// Created by Crowbar 0.74
version 1
nodes
  0 "portal_button_export" -1
  1 "portal_button_root" 0
  2 "portal_button_top" 1
end
skeleton
  time 0
    0 0.000000 0.000000 0.000000 0.000000 0.000000 -1.570796
    1 0.000000 0.000000 0.000000 1.570792 0.000003 1.570793
    2 0.000000 14.996124 0.000000 0.000000 0.000000 0.000000
  time 1
    0 0.000000 0.000000 0.000000 0.000000 0.000000 -1.570796
    1 0.000000 0.000000 0.000000 1.570792 0.000003 1.570793
    2 0.000000 14.000000 0.000000 0.000000 0.000000 0.000000
  time 2
    0 0.000000 0.000000 0.000000 0.000000 0.000000 -1.570796
    1 0.000000 0.000000 0.000000 1.570792 0.000003 1.570793
    2 0.000000 13.003876 0.000000 0.000000 0.000000 0.000000
  time 3
    0 0.000000 0.000000 0.000000 0.000000 0.000000 -1.570796
    1 0.000000 0.000000 0.000000 1.570792 0.000003 1.570793
    2 0.000000 12.003845 0.000000 0.000000 0.000000 0.000000
  time 4
    0 0.000000 0.000000 0.000000 0.000000 0.000000 -1.570796
    1 0.000000 0.000000 0.000000 1.570792 0.000003 1.570793
    2 0.000000 11.003815 0.000000 0.000000 0.000000 0.000000
  time 5
    0 0.000000 0.000000 0.000000 0.000000 0.000000 -1.570796
    1 0.000000 0.000000 0.000000 1.570792 0.000003 1.570793
    2 0.000000 10.003784 0.000000 0.000000 0.000000 0.000000
  time 6
    0 0.000000 0.000000 0.000000 0.000000 0.000000 -1.570796
    1 0.000000 0.000000 0.000000 1.570792 0.000003 1.570793
    2 0.000000 9.003754 0.000000 0.000000 0.000000 0.000000
  time 7
    0 0.000000 0.000000 0.000000 0.000000 0.000000 -1.570796
    1 0.000000 0.000000 0.000000 1.570792 0.000003 1.570793
    2 0.000000 8.003723 0.000000 0.000000 0.000000 0.000000
  time 8
    0 0.000000 0.000000 0.000000 0.000000 0.000000 -1.570796
    1 0.000000 0.000000 0.000000 1.570792 0.000003 1.570793
    2 0.000000 7.003693 0.000000 0.000000 0.000000 0.000000
end
