// Created by Crowbar 0.74
version 1
nodes
  0 "Root" -1
  1 "Button" 0
end
skeleton
  time 0
    0 0.000000 0.000000 0.000000 1.570788 0.000007 -0.000007
    1 0.000000 40.542005 -0.800806 0.542823 0.000000 0.000000
  time 1
    0 0.000000 0.000000 0.000000 1.570788 0.000007 -0.000007
    1 0.000000 40.874046 -0.601581 0.542823 0.000000 0.000000
  time 2
    0 0.000000 0.000000 0.000000 1.570788 0.000007 -0.000007
    1 0.000000 41.319372 -0.335948 0.542823 0.000000 0.000000
  time 3
    0 0.000000 0.000000 0.000000 1.570788 0.000007 -0.000007
    1 0.000000 41.702197 -0.105472 0.542823 0.000000 0.000000
  time 4
    0 0.000000 0.000000 0.000000 1.570788 0.000007 -0.000007
    1 0.000000 41.874077 0.000000 0.542823 0.000000 0.000000
end
