// Created by Crowbar 0.74
version 1
nodes
  0 "Scene_Root" -1
  1 "Root" 0
  2 "Door_Left" 1
  3 "Door_Right" 1
end
skeleton
  time 0
    0 0.000000 0.000000 0.000000 1.570796 0.000000 -1.570796
    1 0.000000 0.000000 0.000000 0.000000 1.570795 0.000000
    2 0.000000 45.053329 0.000000 0.000000 0.000021 0.000000
    3 0.000000 54.462692 0.000000 0.000000 -0.000021 0.000000
  time 1
    0 0.000000 0.000000 0.000000 1.570796 0.000000 -1.570796
    1 0.000000 0.000000 0.000000 0.000000 1.570795 0.000000
    2 0.000000 45.053329 0.000000 0.000000 0.005463 0.000000
    3 0.000000 54.462692 0.000000 0.000000 -0.005463 0.000000
  time 2
    0 0.000000 0.000000 0.000000 1.570796 0.000000 -1.570796
    1 0.000000 0.000000 0.000000 0.000000 1.570795 0.000000
    2 0.000000 45.053329 0.000000 0.000000 0.021043 0.000000
    3 0.000000 54.462692 0.000000 0.000000 -0.021043 0.000000
  time 3
    0 0.000000 0.000000 0.000000 1.570796 0.000000 -1.570796
    1 0.000000 0.000000 0.000000 0.000000 1.570795 0.000000
    2 0.000000 45.053329 0.000000 0.000000 0.045554 0.000000
    3 0.000000 54.462692 0.000000 0.000000 -0.045556 0.000000
  time 4
    0 0.000000 0.000000 0.000000 1.570796 0.000000 -1.570796
    1 0.000000 0.000000 0.000000 0.000000 1.570795 0.000000
    2 0.000000 45.053329 0.000000 0.000000 0.077814 0.000000
    3 0.000000 54.462692 0.000000 0.000000 -0.077817 0.000000
  time 5
    0 0.000000 0.000000 0.000000 1.570796 0.000000 -1.570796
    1 0.000000 0.000000 0.000000 0.000000 1.570795 0.000000
    2 0.000000 45.053329 0.000000 0.000000 0.116618 0.000000
    3 0.000000 54.462692 0.000000 0.000000 -0.116621 0.000000
  time 6
    0 0.000000 0.000000 0.000000 1.570796 0.000000 -1.570796
    1 0.000000 0.000000 0.000000 0.000000 1.570795 0.000000
    2 0.000000 45.053329 0.000000 0.000000 0.160780 0.000000
    3 0.000000 54.462692 0.000000 0.000000 -0.160785 0.000000
  time 7
    0 0.000000 0.000000 0.000000 1.570796 0.000000 -1.570796
    1 0.000000 0.000000 0.000000 0.000000 1.570795 0.000000
    2 0.000000 45.053329 0.000000 0.000000 0.209097 0.000000
    3 0.000000 54.462692 0.000000 0.000000 -0.209104 0.000000
  time 8
    0 0.000000 0.000000 0.000000 1.570796 0.000000 -1.570796
    1 0.000000 0.000000 0.000000 0.000000 1.570795 0.000000
    2 0.000000 45.053329 0.000000 0.000000 0.260406 0.000000
    3 0.000000 54.462692 0.000000 0.000000 -0.260414 0.000000
  time 9
    0 0.000000 0.000000 0.000000 1.570796 0.000000 -1.570796
    1 0.000000 0.000000 0.000000 0.000000 1.570795 0.000000
    2 0.000000 45.053329 0.000000 0.000000 0.313501 0.000000
    3 0.000000 54.462692 0.000000 0.000000 -0.313510 0.000000
  time 10
    0 0.000000 0.000000 0.000000 1.570796 0.000000 -1.570796
    1 0.000000 0.000000 0.000000 0.000000 1.570795 0.000000
    2 0.000000 45.053329 0.000000 0.000000 0.367198 0.000000
    3 0.000000 54.462692 0.000000 0.000000 -0.367188 0.000000
  time 11
    0 0.000000 0.000000 0.000000 1.570796 0.000000 -1.570796
    1 0.000000 0.000000 0.000000 0.000000 1.570795 0.000000
    2 0.000000 45.053329 0.000000 0.000000 0.420293 0.000000
    3 0.000000 54.462692 0.000000 0.000000 -0.420285 0.000000
  time 12
    0 0.000000 0.000000 0.000000 1.570796 0.000000 -1.570796
    1 0.000000 0.000000 0.000000 0.000000 1.570795 0.000000
    2 0.000000 45.053329 0.000000 0.000000 0.471601 0.000000
    3 0.000000 54.462692 0.000000 0.000000 -0.471595 0.000000
  time 13
    0 0.000000 0.000000 0.000000 1.570796 0.000000 -1.570796
    1 0.000000 0.000000 0.000000 0.000000 1.570795 0.000000
    2 0.000000 45.053329 0.000000 0.000000 0.519919 0.000000
    3 0.000000 54.462692 0.000000 0.000000 -0.519914 0.000000
  time 14
    0 0.000000 0.000000 0.000000 1.570796 0.000000 -1.570796
    1 0.000000 0.000000 0.000000 0.000000 1.570795 0.000000
    2 0.000000 45.053329 0.000000 0.000000 0.564081 0.000000
    3 0.000000 54.462692 0.000000 0.000000 -0.564078 0.000000
  time 15
    0 0.000000 0.000000 0.000000 1.570796 0.000000 -1.570796
    1 0.000000 0.000000 0.000000 0.000000 1.570795 0.000000
    2 0.000000 45.053329 0.000000 0.000000 0.602884 0.000000
    3 0.000000 54.462692 0.000000 0.000000 -0.602882 0.000000
  time 16
    0 0.000000 0.000000 0.000000 1.570796 0.000000 -1.570796
    1 0.000000 0.000000 0.000000 0.000000 1.570795 0.000000
    2 0.000000 45.053329 0.000000 0.000000 0.635144 0.000000
    3 0.000000 54.462692 0.000000 0.000000 -0.635143 0.000000
  time 17
    0 0.000000 0.000000 0.000000 1.570796 0.000000 -1.570796
    1 0.000000 0.000000 0.000000 0.000000 1.570795 0.000000
    2 0.000000 45.053329 0.000000 0.000000 0.659656 0.000000
    3 0.000000 54.462692 0.000000 0.000000 -0.659655 0.000000
  time 18
    0 0.000000 0.000000 0.000000 1.570796 0.000000 -1.570796
    1 0.000000 0.000000 0.000000 0.000000 1.570795 0.000000
    2 0.000000 45.053329 0.000000 0.000000 0.675236 0.000000
    3 0.000000 54.462692 0.000000 0.000000 -0.675235 0.000000
  time 19
    0 0.000000 0.000000 0.000000 1.570796 0.000000 -1.570796
    1 0.000000 0.000000 0.000000 0.000000 1.570795 0.000000
    2 0.000000 45.053329 0.000000 0.000000 0.680678 0.000000
    3 0.000000 54.462692 0.000000 0.000000 -0.680678 0.000000
end
