// Created by Crowbar 0.74
version 1
nodes
  0 "Scene_Root" -1
  1 "Root" 0
  2 "Door_Left" 1
  3 "Door_Right" 1
end
skeleton
  time 0
    0 0.000000 0.000000 0.000000 1.570796 0.000000 -1.570796
    1 0.000000 0.000000 0.000000 0.000000 1.570795 0.000000
    2 0.000000 45.053329 0.000000 0.000000 0.680678 0.000000
    3 0.000000 54.462692 0.000000 0.000000 -0.680678 0.000000
  time 1
    0 0.000000 0.000000 0.000000 1.570796 0.000000 -1.570796
    1 0.000000 0.000000 0.000000 0.000000 1.570795 0.000000
    2 0.000000 45.053329 0.000000 0.000000 0.675423 0.000000
    3 0.000000 54.462692 0.000000 0.000000 -0.675422 0.000000
  time 2
    0 0.000000 0.000000 0.000000 1.570796 0.000000 -1.570796
    1 0.000000 0.000000 0.000000 0.000000 1.570795 0.000000
    2 0.000000 45.053329 0.000000 0.000000 0.660944 0.000000
    3 0.000000 54.462692 0.000000 0.000000 -0.660943 0.000000
  time 3
    0 0.000000 0.000000 0.000000 1.570796 0.000000 -1.570796
    1 0.000000 0.000000 0.000000 0.000000 1.570795 0.000000
    2 0.000000 45.053329 0.000000 0.000000 0.638925 0.000000
    3 0.000000 54.462692 0.000000 0.000000 -0.638924 0.000000
  time 4
    0 0.000000 0.000000 0.000000 1.570796 0.000000 -1.570796
    1 0.000000 0.000000 0.000000 0.000000 1.570795 0.000000
    2 0.000000 45.053329 0.000000 0.000000 0.610653 0.000000
    3 0.000000 54.462692 0.000000 0.000000 -0.610651 0.000000
  time 5
    0 0.000000 0.000000 0.000000 1.570796 0.000000 -1.570796
    1 0.000000 0.000000 0.000000 0.000000 1.570795 0.000000
    2 0.000000 45.053329 0.000000 0.000000 0.577147 0.000000
    3 0.000000 54.462692 0.000000 0.000000 -0.577144 0.000000
  time 6
    0 0.000000 0.000000 0.000000 1.570796 0.000000 -1.570796
    1 0.000000 0.000000 0.000000 0.000000 1.570795 0.000000
    2 0.000000 45.053329 0.000000 0.000000 0.539299 0.000000
    3 0.000000 54.462692 0.000000 0.000000 -0.539295 0.000000
  time 7
    0 0.000000 0.000000 0.000000 1.570796 0.000000 -1.570796
    1 0.000000 0.000000 0.000000 0.000000 1.570795 0.000000
    2 0.000000 45.053329 0.000000 0.000000 0.497879 0.000000
    3 0.000000 54.462692 0.000000 0.000000 -0.497873 0.000000
  time 8
    0 0.000000 0.000000 0.000000 1.570796 0.000000 -1.570796
    1 0.000000 0.000000 0.000000 0.000000 1.570795 0.000000
    2 0.000000 45.053329 0.000000 0.000000 0.453571 0.000000
    3 0.000000 54.462692 0.000000 0.000000 -0.453564 0.000000
  time 9
    0 0.000000 0.000000 0.000000 1.570796 0.000000 -1.570796
    1 0.000000 0.000000 0.000000 0.000000 1.570795 0.000000
    2 0.000000 45.053329 0.000000 0.000000 0.406978 0.000000
    3 0.000000 54.462692 0.000000 0.000000 -0.406969 0.000000
  time 10
    0 0.000000 0.000000 0.000000 1.570796 0.000000 -1.570796
    1 0.000000 0.000000 0.000000 0.000000 1.570795 0.000000
    2 0.000000 45.053329 0.000000 0.000000 0.358744 0.000000
    3 0.000000 54.462692 0.000000 0.000000 -0.358734 0.000000
  time 11
    0 0.000000 0.000000 0.000000 1.570796 0.000000 -1.570796
    1 0.000000 0.000000 0.000000 0.000000 1.570795 0.000000
    2 0.000000 45.053329 0.000000 0.000000 0.309471 0.000000
    3 0.000000 54.462692 0.000000 0.000000 -0.309460 0.000000
  time 12
    0 0.000000 0.000000 0.000000 1.570796 0.000000 -1.570796
    1 0.000000 0.000000 0.000000 0.000000 1.570795 0.000000
    2 0.000000 45.053329 0.000000 0.000000 0.259803 0.000000
    3 0.000000 54.462692 0.000000 0.000000 -0.259811 0.000000
  time 13
    0 0.000000 0.000000 0.000000 1.570796 0.000000 -1.570796
    1 0.000000 0.000000 0.000000 0.000000 1.570795 0.000000
    2 0.000000 45.053329 0.000000 0.000000 0.210510 0.000000
    3 0.000000 54.462692 0.000000 0.000000 -0.210516 0.000000
  time 14
    0 0.000000 0.000000 0.000000 1.570796 0.000000 -1.570796
    1 0.000000 0.000000 0.000000 0.000000 1.570795 0.000000
    2 0.000000 45.053329 0.000000 0.000000 0.162421 0.000000
    3 0.000000 54.462692 0.000000 0.000000 -0.162426 0.000000
  time 15
    0 0.000000 0.000000 0.000000 1.570796 0.000000 -1.570796
    1 0.000000 0.000000 0.000000 0.000000 1.570795 0.000000
    2 0.000000 45.053329 0.000000 0.000000 0.116618 0.000000
    3 0.000000 54.462692 0.000000 0.000000 -0.116621 0.000000
  time 16
    0 0.000000 0.000000 0.000000 1.570796 0.000000 -1.570796
    1 0.000000 0.000000 0.000000 0.000000 1.570795 0.000000
    2 0.000000 45.053329 0.000000 0.000000 0.074574 0.000000
    3 0.000000 54.462692 0.000000 0.000000 -0.074576 0.000000
  time 17
    0 0.000000 0.000000 0.000000 1.570796 0.000000 -1.570796
    1 0.000000 0.000000 0.000000 0.000000 1.570795 0.000000
    2 0.000000 45.053329 0.000000 0.000000 0.038367 0.000000
    3 0.000000 54.462692 0.000000 0.000000 -0.038368 0.000000
  time 18
    0 0.000000 0.000000 0.000000 1.570796 0.000000 -1.570796
    1 0.000000 0.000000 0.000000 0.000000 1.570795 0.000000
    2 0.000000 45.053329 0.000000 0.000000 0.011425 0.000000
    3 0.000000 54.462692 0.000000 0.000000 -0.011425 0.000000
  time 19
    0 0.000000 0.000000 0.000000 1.570796 0.000000 -1.570796
    1 0.000000 0.000000 0.000000 0.000000 1.570795 0.000000
    2 0.000000 45.053329 0.000000 0.000000 0.000021 0.000000
    3 0.000000 54.462692 0.000000 0.000000 -0.000021 0.000000
end
