// Created by Crowbar 0.74
version 1
nodes
  0 "static_prop" -1
end
skeleton
  time 0
    0 0.000000 0.000000 0.000000 0.000000 0.000000 0.000000
end
triangles
  phy
    0 0.000000 -1.000000 11.250000 0.800355 -0.534780 -0.271001 0 0
    0 -0.382700 0.923900 11.250000 -0.747466 -0.528201 -0.402864 0 0
    0 -1.847800 -0.765400 7.750000 0.194794 -0.055655 -0.979264 0 0
  phy
    0 0.000000 -1.000000 11.250000 0.800355 -0.534780 -0.271001 0 0
    0 1.000000 0.000000 11.250000 0.010997 -0.462501 0.886550 0 0
    0 -0.382700 0.923900 11.250000 -0.747466 -0.528201 -0.402864 0 0
  phy
    0 1.414200 -1.414200 7.750000 0.599141 -0.116026 0.792192 0 0
    0 1.000000 0.000000 11.250000 0.010997 -0.462501 0.886550 0 0
    0 0.000000 -1.000000 11.250000 0.800355 -0.534780 -0.271001 0 0
  phy
    0 0.000000 -1.000000 11.250000 0.800355 -0.534780 -0.271001 0 0
    0 0.000000 -2.000000 7.750000 0.602360 0.789182 -0.119807 0 0
    0 1.414200 -1.414200 7.750000 0.599141 -0.116026 0.792192 0 0
  phy
    0 -1.847800 -0.765400 7.750000 0.194794 -0.055655 -0.979264 0 0
    0 0.000000 -2.000000 7.750000 0.602360 0.789182 -0.119807 0 0
    0 0.000000 -1.000000 11.250000 0.800355 -0.534780 -0.271001 0 0
  phy
    0 1.847800 0.765400 7.750000 -0.612071 0.328778 0.719217 0 0
    0 -0.382700 0.923900 11.250000 -0.747466 -0.528201 -0.402864 0 0
    0 1.000000 0.000000 11.250000 0.010997 -0.462501 0.886550 0 0
  phy
    0 -0.382700 0.923900 11.250000 -0.747466 -0.528201 -0.402864 0 0
    0 1.847800 0.765400 7.750000 -0.612071 0.328778 0.719217 0 0
    0 -0.765400 1.847800 7.750000 -0.716630 0.631130 -0.296844 0 0
  phy
    0 -1.847800 -0.765400 7.750000 0.194794 -0.055655 -0.979264 0 0
    0 -0.382700 0.923900 11.250000 -0.747466 -0.528201 -0.402864 0 0
    0 -0.765400 1.847800 7.750000 -0.716630 0.631130 -0.296844 0 0
  phy
    0 1.414200 -1.414200 7.750000 0.599141 -0.116026 0.792192 0 0
    0 0.000000 -2.000000 7.750000 0.602360 0.789182 -0.119807 0 0
    0 1.847800 0.765400 7.750000 -0.612071 0.328778 0.719217 0 0
  phy
    0 1.847800 0.765400 7.750000 -0.612071 0.328778 0.719217 0 0
    0 0.000000 -2.000000 7.750000 0.602360 0.789182 -0.119807 0 0
    0 -0.765400 1.847800 7.750000 -0.716630 0.631130 -0.296844 0 0
  phy
    0 1.847800 0.765400 7.750000 -0.612071 0.328778 0.719217 0 0
    0 1.000000 0.000000 11.250000 0.010997 -0.462501 0.886550 0 0
    0 1.414200 -1.414200 7.750000 0.599141 -0.116026 0.792192 0 0
  phy
    0 0.000000 -2.000000 7.750000 0.602360 0.789182 -0.119807 0 0
    0 -1.847800 -0.765400 7.750000 0.194794 -0.055655 -0.979264 0 0
    0 -0.765400 1.847800 7.750000 -0.716630 0.631130 -0.296844 0 0
  phy
    0 -4.550600 10.968500 1.750000 -0.399898 0.901570 -0.165086 0 0
    0 -4.242600 1.757400 0.641300 -0.029358 0.997617 -0.062445 0 0
    0 -8.401700 8.401700 1.750000 -0.666652 0.333392 -0.666652 0 0
  phy
    0 -4.242600 1.757400 0.641300 -0.029358 0.997617 -0.062445 0 0
    0 -4.550600 10.968500 1.750000 -0.399898 0.901570 -0.165086 0 0
    0 1.757400 4.242600 0.641300 -0.056463 0.998403 0.002055 0 0
  phy
    0 -5.999999 -6.000001 0.901500 0.072394 0.993702 -0.085525 0 0
    0 -4.242600 1.757400 0.641300 -0.029358 0.997617 -0.062445 0 0
    0 3.247200 -7.839400 0.901500 0.063553 0.996659 0.051308 0 0
  phy
    0 3.247200 -7.839400 0.901500 0.063553 0.996659 0.051308 0 0
    0 -4.242600 1.757400 0.641300 -0.029358 0.997617 -0.062445 0 0
    0 1.757400 4.242600 0.641300 -0.056463 0.998403 0.002055 0 0
  phy
    0 -4.242600 1.757400 0.641300 -0.029358 0.997617 -0.062445 0 0
    0 -10.968500 4.550600 1.750000 -0.268222 0.710947 -0.650085 0 0
    0 -8.401700 8.401700 1.750000 -0.666652 0.333392 -0.666652 0 0
  phy
    0 -4.242600 1.757400 0.641300 -0.029358 0.997617 -0.062445 0 0
    0 -5.999999 -6.000001 0.901500 0.072394 0.993702 -0.085525 0 0
    0 -11.868200 -0.000001 1.750000 -0.001929 0.646416 -0.762983 0 0
  phy
    0 -10.968500 4.550600 1.750000 -0.268222 0.710947 -0.650085 0 0
    0 -4.242600 1.757400 0.641300 -0.029358 0.997617 -0.062445 0 0
    0 -11.868200 -0.000001 1.750000 -0.001929 0.646416 -0.762983 0 0
  phy
    0 -0.765400 1.847800 7.750000 -0.213957 -0.972815 -0.088617 0 0
    0 1.414200 -1.414200 7.750000 0.168788 -0.966981 0.190942 0 0
    0 1.847800 0.765400 7.750000 -0.108396 -0.966632 0.232105 0 0
  phy
    0 -0.765400 1.847800 7.750000 -0.213957 -0.972815 -0.088617 0 0
    0 0.000000 -2.000000 7.750000 0.254379 -0.966978 -0.015663 0 0
    0 1.414200 -1.414200 7.750000 0.168788 -0.966981 0.190942 0 0
  phy
    0 -0.765400 1.847800 7.750000 -0.213957 -0.972815 -0.088617 0 0
    0 -1.847800 -0.765400 7.750000 0.087462 -0.966632 -0.240776 0 0
    0 0.000000 -2.000000 7.750000 0.254379 -0.966978 -0.015663 0 0
  phy
    0 1.847800 0.765400 7.750000 -0.108396 -0.966632 0.232105 0 0
    0 3.637399 8.780500 5.500000 -0.496054 -0.843689 0.205231 0 0
    0 -0.765400 1.847800 7.750000 -0.213957 -0.972815 -0.088617 0 0
  phy
    0 3.637399 8.780500 5.500000 -0.496054 -0.843689 0.205231 0 0
    0 -3.637400 8.780500 5.500000 -0.522330 -0.824911 -0.216088 0 0
    0 -0.765400 1.847800 7.750000 -0.213957 -0.972815 -0.088617 0 0
  phy
    0 -8.780500 3.637399 5.500000 -0.205231 -0.843689 -0.496054 0 0
    0 -1.847800 -0.765400 7.750000 0.087462 -0.966632 -0.240776 0 0
    0 -0.765400 1.847800 7.750000 -0.213957 -0.972815 -0.088617 0 0
  phy
    0 -0.765400 1.847800 7.750000 -0.213957 -0.972815 -0.088617 0 0
    0 -3.637400 8.780500 5.500000 -0.522330 -0.824911 -0.216088 0 0
    0 -8.780500 3.637399 5.500000 -0.205231 -0.843689 -0.496054 0 0
  phy
    0 -1.847800 -0.765400 7.750000 0.087462 -0.966632 -0.240776 0 0
    0 -8.780500 -3.637400 5.500000 0.216088 -0.824911 -0.522330 0 0
    0 -3.637399 -8.780500 5.500000 0.503213 -0.837491 -0.213038 0 0
  phy
    0 -3.637399 -8.780500 5.500000 0.503213 -0.837491 -0.213038 0 0
    0 0.000000 -2.000000 7.750000 0.254379 -0.966978 -0.015663 0 0
    0 -1.847800 -0.765400 7.750000 0.087462 -0.966632 -0.240776 0 0
  phy
    0 -4.550600 -10.968500 1.750000 0.605993 0.761988 -0.228358 0 0
    0 -0.010395 -11.866706 1.749111 0.994393 -0.105752 0.000000 0 0
    0 -3.637399 -8.780500 5.500000 0.503213 -0.837491 -0.213038 0 0
  phy
    0 -3.637399 -8.780500 5.500000 0.503213 -0.837491 -0.213038 0 0
    0 -0.010395 -11.866706 1.749111 0.994393 -0.105752 0.000000 0 0
    0 3.637400 -8.780500 5.500000 0.513361 -0.831508 0.212260 0 0
  phy
    0 3.637400 -8.780500 5.500000 0.513361 -0.831508 0.212260 0 0
    0 0.000000 -2.000000 7.750000 0.254379 -0.966978 -0.015663 0 0
    0 -3.637399 -8.780500 5.500000 0.503213 -0.837491 -0.213038 0 0
  phy
    0 -3.637399 -8.780500 5.500000 0.503213 -0.837491 -0.213038 0 0
    0 -8.401700 -8.401700 1.750000 0.694391 -0.188793 -0.694391 0 0
    0 -4.550600 -10.968500 1.750000 0.605993 0.761988 -0.228358 0 0
  phy
    0 -3.637399 -8.780500 5.500000 0.503213 -0.837491 -0.213038 0 0
    0 -8.780500 -3.637400 5.500000 0.216088 -0.824911 -0.522330 0 0
    0 -8.401700 -8.401700 1.750000 0.694391 -0.188793 -0.694391 0 0
  phy
    0 -5.999999 -6.000001 0.901500 0.072394 0.993702 -0.085525 0 0
    0 -10.968500 -4.550600 1.750000 0.358517 0.341206 -0.868933 0 0
    0 -11.868200 -0.000001 1.750000 -0.001929 0.646416 -0.762983 0 0
  phy
    0 -5.999999 -6.000001 0.901500 0.072394 0.993702 -0.085525 0 0
    0 -4.550600 -10.968500 1.750000 0.605993 0.761988 -0.228358 0 0
    0 -8.401700 -8.401700 1.750000 0.694391 -0.188793 -0.694391 0 0
  phy
    0 -4.550600 -10.968500 1.750000 0.605993 0.761988 -0.228358 0 0
    0 -5.999999 -6.000001 0.901500 0.072394 0.993702 -0.085525 0 0
    0 3.247200 -7.839400 0.901500 0.063553 0.996659 0.051308 0 0
  phy
    0 -10.968500 -4.550600 1.750000 0.358517 0.341206 -0.868933 0 0
    0 -5.999999 -6.000001 0.901500 0.072394 0.993702 -0.085525 0 0
    0 -8.401700 -8.401700 1.750000 0.694391 -0.188793 -0.694391 0 0
  phy
    0 1.847800 0.765400 7.750000 -0.108396 -0.966632 0.232105 0 0
    0 1.414200 -1.414200 7.750000 0.168788 -0.966981 0.190942 0 0
    0 8.780500 -3.637399 5.500000 0.204804 -0.837490 0.506622 0 0
  phy
    0 8.780500 -3.637399 5.500000 0.204804 -0.837490 0.506622 0 0
    0 8.780500 3.637400 5.500000 -0.216026 -0.824844 0.522460 0 0
    0 1.847800 0.765400 7.750000 -0.108396 -0.966632 0.232105 0 0
  phy
    0 1.847800 0.765400 7.750000 -0.108396 -0.966632 0.232105 0 0
    0 8.780500 3.637400 5.500000 -0.216026 -0.824844 0.522460 0 0
    0 3.637399 8.780500 5.500000 -0.496054 -0.843689 0.205231 0 0
  phy
    0 10.968500 -4.550600 1.750000 0.303380 0.606804 0.734677 0 0
    0 11.866715 -0.009457 1.749392 0.017392 0.798160 0.602194 0 0
    0 8.780500 -3.637399 5.500000 0.204804 -0.837490 0.506622 0 0
  phy
    0 8.780500 -3.637399 5.500000 0.204804 -0.837490 0.506622 0 0
    0 11.866715 -0.009457 1.749392 0.017392 0.798160 0.602194 0 0
    0 8.780500 3.637400 5.500000 -0.216026 -0.824844 0.522460 0 0
  phy
    0 1.414200 -1.414200 7.750000 0.168788 -0.966981 0.190942 0 0
    0 3.637400 -8.780500 5.500000 0.513361 -0.831508 0.212260 0 0
    0 8.780500 -3.637399 5.500000 0.204804 -0.837490 0.506622 0 0
  phy
    0 8.780500 -3.637399 5.500000 0.204804 -0.837490 0.506622 0 0
    0 8.401700 -8.401700 1.750000 0.703070 -0.106696 0.703070 0 0
    0 10.968500 -4.550600 1.750000 0.303380 0.606804 0.734677 0 0
  phy
    0 8.780500 -3.637399 5.500000 0.204804 -0.837490 0.506622 0 0
    0 3.637400 -8.780500 5.500000 0.513361 -0.831508 0.212260 0 0
    0 8.401700 -8.401700 1.750000 0.703070 -0.106696 0.703070 0 0
  phy
    0 -8.780500 3.637399 5.500000 -0.205231 -0.843689 -0.496054 0 0
    0 -10.968500 4.550600 1.750000 -0.268222 0.710947 -0.650085 0 0
    0 -11.868200 -0.000001 1.750000 -0.001929 0.646416 -0.762983 0 0
  phy
    0 -8.780500 -3.637400 5.500000 0.216088 -0.824911 -0.522330 0 0
    0 -8.780500 3.637399 5.500000 -0.205231 -0.843689 -0.496054 0 0
    0 -11.868200 -0.000001 1.750000 -0.001929 0.646416 -0.762983 0 0
  phy
    0 -8.780500 3.637399 5.500000 -0.205231 -0.843689 -0.496054 0 0
    0 -8.780500 -3.637400 5.500000 0.216088 -0.824911 -0.522330 0 0
    0 -1.847800 -0.765400 7.750000 0.087462 -0.966632 -0.240776 0 0
  phy
    0 -10.968500 4.550600 1.750000 -0.268222 0.710947 -0.650085 0 0
    0 -8.780500 3.637399 5.500000 -0.205231 -0.843689 -0.496054 0 0
    0 -8.401700 8.401700 1.750000 -0.666652 0.333392 -0.666652 0 0
  phy
    0 -8.780500 3.637399 5.500000 -0.205231 -0.843689 -0.496054 0 0
    0 -3.637400 8.780500 5.500000 -0.522330 -0.824911 -0.216088 0 0
    0 -8.401700 8.401700 1.750000 -0.666652 0.333392 -0.666652 0 0
  phy
    0 4.550600 10.968500 1.750000 -0.868933 0.341206 0.358517 0 0
    0 3.637399 8.780500 5.500000 -0.496054 -0.843689 0.205231 0 0
    0 8.401700 8.401700 1.750000 -0.694391 -0.188793 0.694391 0 0
  phy
    0 3.637399 8.780500 5.500000 -0.496054 -0.843689 0.205231 0 0
    0 4.550600 10.968500 1.750000 -0.868933 0.341206 0.358517 0 0
    0 -0.000001 11.868200 1.750000 -0.838699 0.544591 -0.002204 0 0
  phy
    0 4.550600 10.968500 1.750000 -0.868933 0.341206 0.358517 0 0
    0 8.401700 8.401700 1.750000 -0.694391 -0.188793 0.694391 0 0
    0 5.999999 6.000001 0.901500 -0.046487 0.994187 0.097114 0 0
  phy
    0 4.550600 10.968500 1.750000 -0.868933 0.341206 0.358517 0 0
    0 5.999999 6.000001 0.901500 -0.046487 0.994187 0.097114 0 0
    0 -0.000001 11.868200 1.750000 -0.838699 0.544591 -0.002204 0 0
  phy
    0 8.401700 8.401700 1.750000 -0.694391 -0.188793 0.694391 0 0
    0 8.780500 3.637400 5.500000 -0.216026 -0.824844 0.522460 0 0
    0 10.968500 4.550600 1.750000 -0.358020 0.341512 0.869017 0 0
  phy
    0 8.780500 3.637400 5.500000 -0.216026 -0.824844 0.522460 0 0
    0 11.866715 -0.009457 1.749392 0.017392 0.798160 0.602194 0 0
    0 10.968500 4.550600 1.750000 -0.358020 0.341512 0.869017 0 0
  phy
    0 8.401700 8.401700 1.750000 -0.694391 -0.188793 0.694391 0 0
    0 10.968500 4.550600 1.750000 -0.358020 0.341512 0.869017 0 0
    0 5.999999 6.000001 0.901500 -0.046487 0.994187 0.097114 0 0
  phy
    0 5.999999 6.000001 0.901500 -0.046487 0.994187 0.097114 0 0
    0 10.968500 4.550600 1.750000 -0.358020 0.341512 0.869017 0 0
    0 11.866715 -0.009457 1.749392 0.017392 0.798160 0.602194 0 0
  phy
    0 -4.550600 -10.968500 1.750000 0.605993 0.761988 -0.228358 0 0
    0 3.247200 -7.839400 0.901500 0.063553 0.996659 0.051308 0 0
    0 -0.010395 -11.866706 1.749111 0.994393 -0.105752 0.000000 0 0
  phy
    0 -10.968500 -4.550600 1.750000 0.358517 0.341206 -0.868933 0 0
    0 -8.401700 -8.401700 1.750000 0.694391 -0.188793 -0.694391 0 0
    0 -8.780500 -3.637400 5.500000 0.216088 -0.824911 -0.522330 0 0
  phy
    0 -10.968500 -4.550600 1.750000 0.358517 0.341206 -0.868933 0 0
    0 -8.780500 -3.637400 5.500000 0.216088 -0.824911 -0.522330 0 0
    0 -11.868200 -0.000001 1.750000 -0.001929 0.646416 -0.762983 0 0
  phy
    0 -3.637400 8.780500 5.500000 -0.522330 -0.824911 -0.216088 0 0
    0 3.637399 8.780500 5.500000 -0.496054 -0.843689 0.205231 0 0
    0 -0.000001 11.868200 1.750000 -0.838699 0.544591 -0.002204 0 0
  phy
    0 3.637399 8.780500 5.500000 -0.496054 -0.843689 0.205231 0 0
    0 8.780500 3.637400 5.500000 -0.216026 -0.824844 0.522460 0 0
    0 8.401700 8.401700 1.750000 -0.694391 -0.188793 0.694391 0 0
  phy
    0 10.968500 -4.550600 1.750000 0.303380 0.606804 0.734677 0 0
    0 8.401700 -8.401700 1.750000 0.703070 -0.106696 0.703070 0 0
    0 3.247200 -7.839400 0.901500 0.063553 0.996659 0.051308 0 0
  phy
    0 10.968500 -4.550600 1.750000 0.303380 0.606804 0.734677 0 0
    0 3.247200 -7.839400 0.901500 0.063553 0.996659 0.051308 0 0
    0 11.866715 -0.009457 1.749392 0.017392 0.798160 0.602194 0 0
  phy
    0 8.401700 -8.401700 1.750000 0.703070 -0.106696 0.703070 0 0
    0 4.550600 -10.968500 1.750000 0.902734 0.216302 0.371866 0 0
    0 3.247200 -7.839400 0.901500 0.063553 0.996659 0.051308 0 0
  phy
    0 3.247200 -7.839400 0.901500 0.063553 0.996659 0.051308 0 0
    0 4.550600 -10.968500 1.750000 0.902734 0.216302 0.371866 0 0
    0 -0.010395 -11.866706 1.749111 0.994393 -0.105752 0.000000 0 0
  phy
    0 8.401700 -8.401700 1.750000 0.703070 -0.106696 0.703070 0 0
    0 3.637400 -8.780500 5.500000 0.513361 -0.831508 0.212260 0 0
    0 4.550600 -10.968500 1.750000 0.902734 0.216302 0.371866 0 0
  phy
    0 3.637400 -8.780500 5.500000 0.513361 -0.831508 0.212260 0 0
    0 -0.010395 -11.866706 1.749111 0.994393 -0.105752 0.000000 0 0
    0 4.550600 -10.968500 1.750000 0.902734 0.216302 0.371866 0 0
  phy
    0 -4.550600 10.968500 1.750000 -0.399898 0.901570 -0.165086 0 0
    0 -8.401700 8.401700 1.750000 -0.666652 0.333392 -0.666652 0 0
    0 -3.637400 8.780500 5.500000 -0.522330 -0.824911 -0.216088 0 0
  phy
    0 -4.550600 10.968500 1.750000 -0.399898 0.901570 -0.165086 0 0
    0 -3.637400 8.780500 5.500000 -0.522330 -0.824911 -0.216088 0 0
    0 -0.000001 11.868200 1.750000 -0.838699 0.544591 -0.002204 0 0
  phy
    0 1.757400 4.242600 0.641300 -0.056463 0.998403 0.002055 0 0
    0 -4.550600 10.968500 1.750000 -0.399898 0.901570 -0.165086 0 0
    0 -0.000001 11.868200 1.750000 -0.838699 0.544591 -0.002204 0 0
  phy
    0 1.414200 -1.414200 7.750000 0.168788 -0.966981 0.190942 0 0
    0 0.000000 -2.000000 7.750000 0.254379 -0.966978 -0.015663 0 0
    0 3.637400 -8.780500 5.500000 0.513361 -0.831508 0.212260 0 0
  phy
    0 5.999999 6.000001 0.901500 -0.046487 0.994187 0.097114 0 0
    0 3.247200 -7.839400 0.901500 0.063553 0.996659 0.051308 0 0
    0 1.757400 4.242600 0.641300 -0.056463 0.998403 0.002055 0 0
  phy
    0 3.247200 -7.839400 0.901500 0.063553 0.996659 0.051308 0 0
    0 5.999999 6.000001 0.901500 -0.046487 0.994187 0.097114 0 0
    0 11.866715 -0.009457 1.749392 0.017392 0.798160 0.602194 0 0
  phy
    0 5.999999 6.000001 0.901500 -0.046487 0.994187 0.097114 0 0
    0 1.757400 4.242600 0.641300 -0.056463 0.998403 0.002055 0 0
    0 -0.000001 11.868200 1.750000 -0.838699 0.544591 -0.002204 0 0
end
