// Created by Crowbar 0.74
version 1
nodes
  0 "static_prop" -1
end
skeleton
  time 0
    0 0.000000 0.000000 0.000000 0.000000 0.000000 0.000000
end
triangles
  phy
    0 -2.822918 1.726780 -2.947395 -0.353271 0.384459 0.852872 0 0
    0 -3.467196 0.171355 -2.947395 -0.136396 0.074219 -0.987870 0 0
    0 -2.822918 1.726780 2.769598 -0.538232 -0.453052 -0.710669 0 0
  phy
    0 -2.822918 1.726780 2.769598 -0.538232 -0.453052 -0.710669 0 0
    0 -3.467196 0.171355 -2.947395 -0.136396 0.074219 -0.987870 0 0
    0 -3.467196 0.171355 2.769598 0.136396 -0.074219 -0.987870 0 0
  phy
    0 -3.467196 0.171355 -2.947395 -0.136396 0.074219 -0.987870 0 0
    0 -2.822918 -1.384069 -2.947395 0.902237 0.379725 -0.204393 0 0
    0 -3.467196 0.171355 2.769598 0.136396 -0.074219 -0.987870 0 0
  phy
    0 -2.822918 -1.384069 -2.947395 0.902237 0.379725 -0.204393 0 0
    0 -3.467196 0.171355 -2.947395 -0.136396 0.074219 -0.987870 0 0
    0 -2.822918 1.726780 -2.947395 -0.353271 0.384459 0.852872 0 0
  phy
    0 -1.267493 2.371058 2.769598 -0.382684 0.000000 0.923879 0 0
    0 -2.822918 1.726780 2.769598 -0.538232 -0.453052 -0.710669 0 0
    0 -1.267493 -2.028347 2.769598 0.220942 0.000000 0.975287 0 0
  phy
    0 -2.822918 1.726780 2.769598 -0.538232 -0.453052 -0.710669 0 0
    0 -2.822918 -1.384069 2.769598 0.659942 -0.359101 -0.659942 0 0
    0 -1.267493 -2.028347 2.769598 0.220942 0.000000 0.975287 0 0
  phy
    0 -2.822918 1.726780 2.769598 -0.538232 -0.453052 -0.710669 0 0
    0 -3.467196 0.171355 2.769598 0.136396 -0.074219 -0.987870 0 0
    0 -2.822918 -1.384069 2.769598 0.659942 -0.359101 -0.659942 0 0
  phy
    0 -2.822918 -1.384069 -2.947395 0.902237 0.379725 -0.204393 0 0
    0 -2.822918 -1.384069 2.769598 0.659942 -0.359101 -0.659942 0 0
    0 -3.467196 0.171355 2.769598 0.136396 -0.074219 -0.987870 0 0
  phy
    0 -2.822918 -1.384069 -2.947395 0.902237 0.379725 -0.204393 0 0
    0 -1.267493 -2.028347 2.769598 0.220942 0.000000 0.975287 0 0
    0 -2.822918 -1.384069 2.769598 0.659942 -0.359101 -0.659942 0 0
  phy
    0 -2.822918 1.726780 -2.947395 -0.353271 0.384459 0.852872 0 0
    0 -2.822918 1.726780 2.769598 -0.538232 -0.453052 -0.710669 0 0
    0 -1.267493 2.371058 2.769598 -0.382684 0.000000 0.923879 0 0
  phy
    0 -2.822918 1.726780 -2.947395 -0.353271 0.384459 0.852872 0 0
    0 -1.267493 -2.028347 2.769598 0.220942 0.000000 0.975287 0 0
    0 -2.822918 -1.384069 -2.947395 0.902237 0.379725 -0.204393 0 0
  phy
    0 -2.822918 1.726780 -2.947395 -0.353271 0.384459 0.852872 0 0
    0 -1.267493 2.371058 2.769598 -0.382684 0.000000 0.923879 0 0
    0 -1.267493 -2.028347 2.769598 0.220942 0.000000 0.975287 0 0
end
