// Created by Crowbar 0.74
version 1
nodes
  0 "static_prop" -1
end
skeleton
  time 0
    0 0.000000 0.000000 0.000000 0.000000 0.000000 0.000000
end
triangles
  phy
    0 -2.368795 -1.905226 2.668220 0.760605 -0.462110 -0.455999 0 0
    0 -3.213220 -0.693645 2.668220 0.283490 -0.689950 -0.666035 0 0
    0 -2.368795 -1.905226 -2.830026 0.726597 0.054929 -0.684864 0 0
  phy
    0 -2.368795 -1.905226 -2.830026 0.726597 0.054929 -0.684864 0 0
    0 -3.213220 -0.693645 2.668220 0.283490 -0.689950 -0.666035 0 0
    0 -3.213220 -0.693645 -2.830026 0.181987 0.195207 -0.963730 0 0
  phy
    0 -3.213220 -0.693645 2.668220 0.283490 -0.689950 -0.666035 0 0
    0 -3.184225 0.782884 2.668220 -0.223653 -0.054929 -0.973120 0 0
    0 -3.213220 -0.693645 -2.830026 0.181987 0.195207 -0.963730 0 0
  phy
    0 -3.213220 -0.693645 -2.830026 0.181987 0.195207 -0.963730 0 0
    0 -3.184225 0.782884 2.668220 -0.223653 -0.054929 -0.973120 0 0
    0 -3.184225 0.782884 -2.830026 -0.399971 0.352813 -0.845900 0 0
  phy
    0 1.360065 0.693645 2.668220 -0.245707 -0.778711 0.577267 0 0
    0 0.439730 -1.960378 2.668220 0.739556 -0.195208 0.644166 0 0
    0 1.331069 -0.782884 2.668220 0.223654 -0.054929 0.973120 0 0
  phy
    0 1.360065 0.693645 2.668220 -0.245707 -0.778711 0.577267 0 0
    0 -0.973493 -2.389074 2.668220 0.932053 -0.352813 0.082469 0 0
    0 0.439730 -1.960378 2.668220 0.739556 -0.195208 0.644166 0 0
  phy
    0 1.360065 0.693645 2.668220 -0.245707 -0.778711 0.577267 0 0
    0 -2.368795 -1.905226 2.668220 0.760605 -0.462110 -0.455999 0 0
    0 -0.973493 -2.389074 2.668220 0.932053 -0.352813 0.082469 0 0
  phy
    0 1.360065 0.693645 2.668220 -0.245707 -0.778711 0.577267 0 0
    0 -3.213220 -0.693645 2.668220 0.283490 -0.689950 -0.666035 0 0
    0 -2.368795 -1.905226 2.668220 0.760605 -0.462110 -0.455999 0 0
  phy
    0 1.360065 0.693645 2.668220 -0.245707 -0.778711 0.577267 0 0
    0 -0.879662 2.389074 2.668220 -0.829408 -0.553802 -0.073387 0 0
    0 -3.213220 -0.693645 2.668220 0.283490 -0.689950 -0.666035 0 0
  phy
    0 1.360065 0.693645 2.668220 -0.245707 -0.778711 0.577267 0 0
    0 0.515640 1.905226 2.668220 -0.856379 -0.054929 0.513417 0 0
    0 -0.879662 2.389074 2.668220 -0.829408 -0.553802 -0.073387 0 0
  phy
    0 -0.879662 2.389074 2.668220 -0.829408 -0.553802 -0.073387 0 0
    0 -2.292885 1.960378 2.668220 -0.739557 -0.195208 -0.644166 0 0
    0 -3.213220 -0.693645 2.668220 0.283490 -0.689950 -0.666035 0 0
  phy
    0 -2.292885 1.960378 2.668220 -0.739557 -0.195208 -0.644166 0 0
    0 -3.184225 0.782884 2.668220 -0.223653 -0.054929 -0.973120 0 0
    0 -3.213220 -0.693645 2.668220 0.283490 -0.689950 -0.666035 0 0
  phy
    0 1.331069 -0.782884 -2.830026 0.355923 0.553802 0.752743 0 0
    0 0.439730 -1.960378 2.668220 0.739556 -0.195208 0.644166 0 0
    0 0.439730 -1.960378 -2.830026 0.875876 0.054929 0.479400 0 0
  phy
    0 1.331069 -0.782884 -2.830026 0.355923 0.553802 0.752743 0 0
    0 1.331069 -0.782884 2.668220 0.223654 -0.054929 0.973120 0 0
    0 0.439730 -1.960378 2.668220 0.739556 -0.195208 0.644166 0 0
  phy
    0 1.360065 0.693645 -2.830026 -0.181987 0.195208 0.963730 0 0
    0 1.331069 -0.782884 2.668220 0.223654 -0.054929 0.973120 0 0
    0 1.331069 -0.782884 -2.830026 0.355923 0.553802 0.752743 0 0
  phy
    0 1.360065 0.693645 -2.830026 -0.181987 0.195208 0.963730 0 0
    0 1.360065 0.693645 2.668220 -0.245707 -0.778711 0.577267 0 0
    0 1.331069 -0.782884 2.668220 0.223654 -0.054929 0.973120 0 0
  phy
    0 -2.368795 -1.905226 -2.830026 0.726597 0.054929 -0.684864 0 0
    0 -3.213220 -0.693645 -2.830026 0.181987 0.195207 -0.963730 0 0
    0 -0.973493 -2.389074 -2.830026 0.622288 0.778711 -0.079788 0 0
  phy
    0 -0.973493 -2.389074 -2.830026 0.622288 0.778711 -0.079788 0 0
    0 -3.213220 -0.693645 -2.830026 0.181987 0.195207 -0.963730 0 0
    0 -3.184225 0.782884 -2.830026 -0.399971 0.352813 -0.845900 0 0
  phy
    0 -0.973493 -2.389074 -2.830026 0.622288 0.778711 -0.079788 0 0
    0 -3.184225 0.782884 -2.830026 -0.399971 0.352813 -0.845900 0 0
    0 -2.292885 1.960378 -2.830026 -0.777921 0.462110 -0.425786 0 0
  phy
    0 -0.973493 -2.389074 -2.830026 0.622288 0.778711 -0.079788 0 0
    0 -2.292885 1.960378 -2.830026 -0.777921 0.462110 -0.425786 0 0
    0 -0.879662 2.389074 -2.830026 -0.717980 0.689950 0.092057 0 0
  phy
    0 -0.973493 -2.389074 -2.830026 0.622288 0.778711 -0.079788 0 0
    0 -0.879662 2.389074 -2.830026 -0.717980 0.689950 0.092057 0 0
    0 1.331069 -0.782884 -2.830026 0.355923 0.553802 0.752743 0 0
  phy
    0 -0.973493 -2.389074 -2.830026 0.622288 0.778711 -0.079788 0 0
    0 1.331069 -0.782884 -2.830026 0.355923 0.553802 0.752743 0 0
    0 0.439730 -1.960378 -2.830026 0.875876 0.054929 0.479400 0 0
  phy
    0 1.331069 -0.782884 -2.830026 0.355923 0.553802 0.752743 0 0
    0 -0.879662 2.389074 -2.830026 -0.717980 0.689950 0.092057 0 0
    0 1.360065 0.693645 -2.830026 -0.181987 0.195208 0.963730 0 0
  phy
    0 1.360065 0.693645 -2.830026 -0.181987 0.195208 0.963730 0 0
    0 -0.879662 2.389074 -2.830026 -0.717980 0.689950 0.092057 0 0
    0 0.515640 1.905226 -2.830026 -0.726597 0.054929 0.684864 0 0
  phy
    0 -2.292885 1.960378 2.668220 -0.739557 -0.195208 -0.644166 0 0
    0 -0.879662 2.389074 2.668220 -0.829408 -0.553802 -0.073387 0 0
    0 -2.292885 1.960378 -2.830026 -0.777921 0.462110 -0.425786 0 0
  phy
    0 -2.292885 1.960378 -2.830026 -0.777921 0.462110 -0.425786 0 0
    0 -0.879662 2.389074 2.668220 -0.829408 -0.553802 -0.073387 0 0
    0 -0.879662 2.389074 -2.830026 -0.717980 0.689950 0.092057 0 0
  phy
    0 -3.184225 0.782884 2.668220 -0.223653 -0.054929 -0.973120 0 0
    0 -2.292885 1.960378 2.668220 -0.739557 -0.195208 -0.644166 0 0
    0 -3.184225 0.782884 -2.830026 -0.399971 0.352813 -0.845900 0 0
  phy
    0 -3.184225 0.782884 -2.830026 -0.399971 0.352813 -0.845900 0 0
    0 -2.292885 1.960378 2.668220 -0.739557 -0.195208 -0.644166 0 0
    0 -2.292885 1.960378 -2.830026 -0.777921 0.462110 -0.425786 0 0
  phy
    0 0.515640 1.905226 -2.830026 -0.726597 0.054929 0.684864 0 0
    0 1.360065 0.693645 2.668220 -0.245707 -0.778711 0.577267 0 0
    0 1.360065 0.693645 -2.830026 -0.181987 0.195208 0.963730 0 0
  phy
    0 0.515640 1.905226 -2.830026 -0.726597 0.054929 0.684864 0 0
    0 0.515640 1.905226 2.668220 -0.856379 -0.054929 0.513417 0 0
    0 1.360065 0.693645 2.668220 -0.245707 -0.778711 0.577267 0 0
  phy
    0 -0.879662 2.389074 2.668220 -0.829408 -0.553802 -0.073387 0 0
    0 0.515640 1.905226 2.668220 -0.856379 -0.054929 0.513417 0 0
    0 -0.879662 2.389074 -2.830026 -0.717980 0.689950 0.092057 0 0
  phy
    0 -0.879662 2.389074 -2.830026 -0.717980 0.689950 0.092057 0 0
    0 0.515640 1.905226 2.668220 -0.856379 -0.054929 0.513417 0 0
    0 0.515640 1.905226 -2.830026 -0.726597 0.054929 0.684864 0 0
  phy
    0 -2.368795 -1.905226 2.668220 0.760605 -0.462110 -0.455999 0 0
    0 -0.973493 -2.389074 -2.830026 0.622288 0.778711 -0.079788 0 0
    0 -0.973493 -2.389074 2.668220 0.932053 -0.352813 0.082469 0 0
  phy
    0 -2.368795 -1.905226 2.668220 0.760605 -0.462110 -0.455999 0 0
    0 -2.368795 -1.905226 -2.830026 0.726597 0.054929 -0.684864 0 0
    0 -0.973493 -2.389074 -2.830026 0.622288 0.778711 -0.079788 0 0
  phy
    0 0.439730 -1.960378 -2.830026 0.875876 0.054929 0.479400 0 0
    0 -0.973493 -2.389074 2.668220 0.932053 -0.352813 0.082469 0 0
    0 -0.973493 -2.389074 -2.830026 0.622288 0.778711 -0.079788 0 0
  phy
    0 0.439730 -1.960378 -2.830026 0.875876 0.054929 0.479400 0 0
    0 0.439730 -1.960378 2.668220 0.739556 -0.195208 0.644166 0 0
    0 -0.973493 -2.389074 2.668220 0.932053 -0.352813 0.082469 0 0
  phy
    0 1.356596 -0.316736 -1.600224 0.979998 0.128925 -0.151599 0 0
    0 1.356596 -0.316736 2.022394 0.736716 -0.126012 -0.664357 0 0
    0 1.356596 0.302896 -1.600224 -0.945966 0.062224 -0.318240 0 0
  phy
    0 1.356596 0.302896 -1.600224 -0.945966 0.062224 -0.318240 0 0
    0 1.356596 -0.316736 2.022394 0.736716 -0.126012 -0.664357 0 0
    0 1.356596 0.302896 2.022394 -0.870280 -0.297715 -0.392401 0 0
  phy
    0 2.730836 -0.316736 2.022394 0.966574 -0.252509 0.044435 0 0
    0 1.356596 0.302896 2.022394 -0.870280 -0.297715 -0.392401 0 0
    0 1.356596 -0.316736 2.022394 0.736716 -0.126012 -0.664357 0 0
  phy
    0 2.730836 -0.316736 2.022394 0.966574 -0.252509 0.044435 0 0
    0 2.730836 0.302896 2.022394 -0.976698 -0.194927 0.089800 0 0
    0 1.356596 0.302896 2.022394 -0.870280 -0.297715 -0.392401 0 0
  phy
    0 3.317780 -0.316736 -0.744627 0.911604 0.129185 0.390243 0 0
    0 1.356596 -0.316736 -1.600224 0.979998 0.128925 -0.151599 0 0
    0 2.736267 -0.316736 -1.411229 0.521245 0.782209 0.341251 0 0
  phy
    0 3.317780 -0.316736 -0.744627 0.911604 0.129185 0.390243 0 0
    0 3.317780 -0.316736 1.435450 0.899305 -0.090746 0.427803 0 0
    0 1.356596 -0.316736 -1.600224 0.979998 0.128925 -0.151599 0 0
  phy
    0 3.317780 -0.316736 1.435450 0.899305 -0.090746 0.427803 0 0
    0 2.730836 -0.316736 2.022394 0.966574 -0.252509 0.044435 0 0
    0 1.356596 -0.316736 -1.600224 0.979998 0.128925 -0.151599 0 0
  phy
    0 2.730836 -0.316736 2.022394 0.966574 -0.252509 0.044435 0 0
    0 1.356596 -0.316736 2.022394 0.736716 -0.126012 -0.664357 0 0
    0 1.356596 -0.316736 -1.600224 0.979998 0.128925 -0.151599 0 0
  phy
    0 2.736267 -0.316736 -1.411229 0.521245 0.782209 0.341251 0 0
    0 2.736267 0.302896 -1.411229 -0.292075 0.876606 0.382433 0 0
    0 3.317780 -0.316736 -0.744627 0.911604 0.129185 0.390243 0 0
  phy
    0 2.736267 0.302896 -1.411229 -0.292075 0.876606 0.382433 0 0
    0 3.317780 0.302896 -0.744627 -0.851204 0.060313 0.521359 0 0
    0 3.317780 -0.316736 -0.744627 0.911604 0.129185 0.390243 0 0
  phy
    0 3.317780 -0.316736 -0.744627 0.911604 0.129185 0.390243 0 0
    0 3.317780 0.302896 -0.744627 -0.851204 0.060313 0.521359 0 0
    0 3.317780 -0.316736 1.435450 0.899305 -0.090746 0.427803 0 0
  phy
    0 3.317780 0.302896 -0.744627 -0.851204 0.060313 0.521359 0 0
    0 3.317780 0.302896 1.435450 -0.971690 -0.049025 0.231118 0 0
    0 3.317780 -0.316736 1.435450 0.899305 -0.090746 0.427803 0 0
  phy
    0 1.356596 0.302896 -1.600224 -0.945966 0.062224 -0.318240 0 0
    0 2.736267 0.302896 -1.411229 -0.292075 0.876606 0.382433 0 0
    0 1.356596 -0.316736 -1.600224 0.979998 0.128925 -0.151599 0 0
  phy
    0 1.356596 -0.316736 -1.600224 0.979998 0.128925 -0.151599 0 0
    0 2.736267 0.302896 -1.411229 -0.292075 0.876606 0.382433 0 0
    0 2.736267 -0.316736 -1.411229 0.521245 0.782209 0.341251 0 0
  phy
    0 3.317780 0.302896 -0.744627 -0.851204 0.060313 0.521359 0 0
    0 2.736267 0.302896 -1.411229 -0.292075 0.876606 0.382433 0 0
    0 1.356596 0.302896 -1.600224 -0.945966 0.062224 -0.318240 0 0
  phy
    0 3.317780 0.302896 -0.744627 -0.851204 0.060313 0.521359 0 0
    0 1.356596 0.302896 -1.600224 -0.945966 0.062224 -0.318240 0 0
    0 3.317780 0.302896 1.435450 -0.971690 -0.049025 0.231118 0 0
  phy
    0 3.317780 0.302896 1.435450 -0.971690 -0.049025 0.231118 0 0
    0 1.356596 0.302896 -1.600224 -0.945966 0.062224 -0.318240 0 0
    0 2.730836 0.302896 2.022394 -0.976698 -0.194927 0.089800 0 0
  phy
    0 2.730836 0.302896 2.022394 -0.976698 -0.194927 0.089800 0 0
    0 1.356596 0.302896 -1.600224 -0.945966 0.062224 -0.318240 0 0
    0 1.356596 0.302896 2.022394 -0.870280 -0.297715 -0.392401 0 0
  phy
    0 3.317780 -0.316736 1.435450 0.899305 -0.090746 0.427803 0 0
    0 2.730836 0.302896 2.022394 -0.976698 -0.194927 0.089800 0 0
    0 2.730836 -0.316736 2.022394 0.966574 -0.252509 0.044435 0 0
  phy
    0 3.317780 -0.316736 1.435450 0.899305 -0.090746 0.427803 0 0
    0 3.317780 0.302896 1.435450 -0.971690 -0.049025 0.231118 0 0
    0 2.730836 0.302896 2.022394 -0.976698 -0.194927 0.089800 0 0
end
