version 1
nodes
0 "cam" -1
end
skeleton
time 0
0  -275.702209 -68.140205 186.292145  1.607451 -0.000009 2.419038
end
triangles
invisible
0  -0.500000 -0.500000 0.000000  0.000000 0.000000 1.000000  0.000000 0.000000 1 0 1.000000
0  0.500000 0.500000 0.000000  0.000000 0.000000 1.000000  1.000000 1.000000 1 0 1.000000
0  -0.500000 0.500000 0.000000  0.000000 0.000000 1.000000  0.000000 1.000000 1 0 1.000000
invisible
0  -0.500000 -0.500000 0.000000  0.000000 0.000000 1.000000  0.000000 0.000000 1 0 1.000000
0  0.500000 -0.500000 0.000000  0.000000 0.000000 1.000000  1.000000 0.000000 1 0 1.000000
0  0.500000 0.500000 0.000000  0.000000 0.000000 1.000000  1.000000 1.000000 1 0 1.000000
end
