// Created by Crowbar 0.74
version 1
nodes
  0 "Scene_Root" -1
  1 "Root" 0
  2 "Arm_Rot1" 1
  3 "Arm_Rot2" 2
  4 "Arm_Rot3" 3
end
skeleton
  time 0
    0 0.000000 0.000000 0.000000 1.570796 0.000000 0.000000
    1 0.000000 0.000000 0.000000 0.000000 0.000000 0.000000
    2 0.000000 -11.567140 0.000000 -0.231950 0.000000 0.000000
    3 0.500414 -55.855713 -17.892462 1.622178 0.000000 0.000000
    4 -0.599933 -11.143446 59.434353 1.263443 -0.165447 -0.027373
  time 1
    0 0.000000 0.000000 0.000000 1.570796 0.000000 0.000000
    1 0.000000 0.000000 0.000000 0.000000 0.000000 0.000000
    2 0.000000 -11.567140 0.000000 -0.231950 0.000000 0.000000
    3 0.500414 -55.855713 -17.892462 1.622178 0.000000 0.000000
    4 -0.599933 -11.143446 59.434353 1.263443 -0.165447 -0.027373
end
