// Created by Crowbar 0.74
version 1
nodes
  0 "Scene_Root" -1
  1 "Root" 0
  2 "Door_Left" 1
  3 "Door_Right" 1
end
skeleton
  time 0
    0 0.000000 0.000000 0.000000 1.570796 0.000000 -1.570796
    1 0.000000 0.000000 0.000000 0.000000 1.570792 0.000000
    2 0.000000 45.053329 0.000000 0.000000 0.000021 0.000000
    3 0.000000 54.462692 0.000000 0.000000 -0.000042 0.000000
  time 1
    0 0.000000 0.000000 0.000000 1.570796 0.000000 -1.570796
    1 0.000000 0.000000 0.000000 0.000000 1.570792 0.000000
    2 0.000000 45.053329 0.000000 0.000000 0.005463 0.000000
    3 0.000000 54.462692 0.000000 0.000000 -0.005463 0.000000
  time 2
    0 0.000000 0.000000 0.000000 1.570796 0.000000 -1.570796
    1 0.000000 0.000000 0.000000 0.000000 1.570792 0.000000
    2 0.000000 45.053329 0.000000 0.000000 0.021063 0.000000
    3 0.000000 54.462692 0.000000 0.000000 -0.021064 0.000000
  time 3
    0 0.000000 0.000000 0.000000 1.570796 0.000000 -1.570796
    1 0.000000 0.000000 0.000000 0.000000 1.570792 0.000000
    2 0.000000 45.053329 0.000000 0.000000 0.045574 0.000000
    3 0.000000 54.462692 0.000000 0.000000 -0.045575 0.000000
  time 4
    0 0.000000 0.000000 0.000000 1.570796 0.000000 -1.570796
    1 0.000000 0.000000 0.000000 0.000000 1.570792 0.000000
    2 0.000000 45.053329 0.000000 0.000000 0.077833 0.000000
    3 0.000000 54.462692 0.000000 0.000000 -0.077835 0.000000
  time 5
    0 0.000000 0.000000 0.000000 1.570796 0.000000 -1.570796
    1 0.000000 0.000000 0.000000 0.000000 1.570792 0.000000
    2 0.000000 45.053329 0.000000 0.000000 0.116635 0.000000
    3 0.000000 54.462692 0.000000 0.000000 -0.116639 0.000000
  time 6
    0 0.000000 0.000000 0.000000 1.570796 0.000000 -1.570796
    1 0.000000 0.000000 0.000000 0.000000 1.570792 0.000000
    2 0.000000 45.053329 0.000000 0.000000 0.160796 0.000000
    3 0.000000 54.462692 0.000000 0.000000 -0.160801 0.000000
  time 7
    0 0.000000 0.000000 0.000000 1.570796 0.000000 -1.570796
    1 0.000000 0.000000 0.000000 0.000000 1.570792 0.000000
    2 0.000000 45.053329 0.000000 0.000000 0.209112 0.000000
    3 0.000000 54.462692 0.000000 0.000000 -0.209118 0.000000
  time 8
    0 0.000000 0.000000 0.000000 1.570796 0.000000 -1.570796
    1 0.000000 0.000000 0.000000 0.000000 1.570792 0.000000
    2 0.000000 45.053329 0.000000 0.000000 0.260419 0.000000
    3 0.000000 54.462692 0.000000 0.000000 -0.260427 0.000000
  time 9
    0 0.000000 0.000000 0.000000 1.570796 0.000000 -1.570796
    1 0.000000 0.000000 0.000000 0.000000 1.570792 0.000000
    2 0.000000 45.053329 0.000000 0.000000 0.313512 0.000000
    3 0.000000 54.462692 0.000000 0.000000 -0.313522 0.000000
  time 10
    0 0.000000 0.000000 0.000000 1.570796 0.000000 -1.570796
    1 0.000000 0.000000 0.000000 0.000000 1.570792 0.000000
    2 0.000000 45.053329 0.000000 0.000000 0.367208 0.000000
    3 0.000000 54.462692 0.000000 0.000000 -0.367198 0.000000
  time 11
    0 0.000000 0.000000 0.000000 1.570796 0.000000 -1.570796
    1 0.000000 0.000000 0.000000 0.000000 1.570792 0.000000
    2 0.000000 45.053329 0.000000 0.000000 0.420301 0.000000
    3 0.000000 54.462692 0.000000 0.000000 -0.420293 0.000000
  time 12
    0 0.000000 0.000000 0.000000 1.570796 0.000000 -1.570796
    1 0.000000 0.000000 0.000000 0.000000 1.570792 0.000000
    2 0.000000 45.053329 0.000000 0.000000 0.471608 0.000000
    3 0.000000 54.462692 0.000000 0.000000 -0.471601 0.000000
  time 13
    0 0.000000 0.000000 0.000000 1.570796 0.000000 -1.570796
    1 0.000000 0.000000 0.000000 0.000000 1.570792 0.000000
    2 0.000000 45.053329 0.000000 0.000000 0.519923 0.000000
    3 0.000000 54.462692 0.000000 0.000000 -0.519919 0.000000
  time 14
    0 0.000000 0.000000 0.000000 1.570796 0.000000 -1.570796
    1 0.000000 0.000000 0.000000 0.000000 1.570792 0.000000
    2 0.000000 45.053329 0.000000 0.000000 0.564085 0.000000
    3 0.000000 54.462692 0.000000 0.000000 -0.564081 0.000000
  time 15
    0 0.000000 0.000000 0.000000 1.570796 0.000000 -1.570796
    1 0.000000 0.000000 0.000000 0.000000 1.570792 0.000000
    2 0.000000 45.053329 0.000000 0.000000 0.602887 0.000000
    3 0.000000 54.462692 0.000000 0.000000 -0.602884 0.000000
  time 16
    0 0.000000 0.000000 0.000000 1.570796 0.000000 -1.570796
    1 0.000000 0.000000 0.000000 0.000000 1.570792 0.000000
    2 0.000000 45.053329 0.000000 0.000000 0.635146 0.000000
    3 0.000000 54.462692 0.000000 0.000000 -0.635144 0.000000
  time 17
    0 0.000000 0.000000 0.000000 1.570796 0.000000 -1.570796
    1 0.000000 0.000000 0.000000 0.000000 1.570792 0.000000
    2 0.000000 45.053329 0.000000 0.000000 0.659657 0.000000
    3 0.000000 54.462692 0.000000 0.000000 -0.659656 0.000000
  time 18
    0 0.000000 0.000000 0.000000 1.570796 0.000000 -1.570796
    1 0.000000 0.000000 0.000000 0.000000 1.570792 0.000000
    2 0.000000 45.053329 0.000000 0.000000 0.675256 0.000000
    3 0.000000 54.462692 0.000000 0.000000 -0.675236 0.000000
  time 19
    0 0.000000 0.000000 0.000000 1.570796 0.000000 -1.570796
    1 0.000000 0.000000 0.000000 0.000000 1.570792 0.000000
    2 0.000000 45.053329 0.000000 0.000000 0.680678 0.000000
    3 0.000000 54.462692 0.000000 0.000000 -0.680678 0.000000
end
