// Created by Crowbar 0.74
version 1
nodes
  0 "Aperture_Door" -1
  1 "Scene_Root" -1
  2 "Root" 1
  3 "cube1" 2
  4 "cube2" 2
  5 "cube3" 2
  6 "cube5" 2
  7 "cube6" 2
  8 "cube7" 2
  9 "cube8" 2
  10 "cube9" 2
  11 "cube10" 2
  12 "cube4" 2
end
skeleton
  time 0
    0 0.000000 0.000000 0.000000 1.570796 0.000000 0.000000
    1 0.000000 0.000000 0.000000 1.570796 0.000000 0.000000
    2 1.196254 0.624548 0.000000 0.000000 0.000000 0.436332
    3 18.066898 -2.068864 55.605560 3.141593 0.209440 3.141593
    4 47.301071 -2.068865 34.343189 3.141593 -0.407023 3.141593
    5 47.348850 -2.068863 -34.414268 3.141593 -0.111832 3.141593
    6 -18.072645 -2.068864 -55.646927 3.141593 0.209440 3.141593
    7 -47.325806 -2.068864 -34.397007 3.141593 -0.432298 3.141593
    8 -58.483028 -2.068864 -0.005009 3.141593 0.516207 3.141593
    9 -47.304958 -2.068865 34.323246 3.141593 -0.105850 3.141593
    10 -18.054792 -2.068864 55.621166 3.141593 0.824471 -3.141593
    11 58.501446 -2.068866 -0.014459 3.141593 0.510130 3.141593
    12 18.039114 -2.068864 -55.672504 3.141593 -0.728027 -3.141593
  time 1
    0 0.000000 0.000000 0.000000 1.570796 0.000000 0.000000
    1 0.000000 0.000000 0.000000 1.570796 0.000000 0.000000
    2 1.196254 0.624548 0.000000 0.000000 0.000000 0.436332
    3 18.066898 -2.068864 55.605560 3.141593 0.206052 3.141593
    4 47.301071 -2.068865 34.343189 3.141593 -0.410410 3.141593
    5 47.348850 -2.068863 -34.414268 3.141593 -0.115219 3.141593
    6 -18.072645 -2.068864 -55.646927 3.141593 0.206052 3.141593
    7 -47.325806 -2.068864 -34.397007 3.141593 -0.435686 3.141593
    8 -58.483028 -2.068864 -0.005009 3.141593 0.512820 3.141593
    9 -47.304958 -2.068865 34.323246 3.141593 -0.109237 3.141593
    10 -18.054792 -2.068864 55.621166 3.141593 0.821084 -3.141593
    11 58.501446 -2.068866 -0.014459 3.141593 0.506743 3.141593
    12 18.039114 -2.068864 -55.672504 3.141593 -0.731437 -3.141593
  time 2
    0 0.000000 0.000000 0.000000 1.570796 0.000000 0.000000
    1 0.000000 0.000000 0.000000 1.570796 0.000000 0.000000
    2 1.196254 0.624548 0.000000 0.000000 0.000000 0.436332
    3 18.066898 -2.068864 55.605560 3.141593 0.196113 3.141593
    4 47.301071 -2.068865 34.343189 3.141593 -0.420349 3.141593
    5 47.348850 -2.068863 -34.414268 3.141593 -0.125158 3.141593
    6 -18.072645 -2.068864 -55.646927 3.141593 0.196113 3.141593
    7 -47.325806 -2.068864 -34.397007 3.141593 -0.445625 3.141593
    8 -58.483028 -2.068864 -0.005009 3.141593 0.502881 3.141593
    9 -47.304958 -2.068865 34.323246 3.141593 -0.119176 3.141593
    10 -18.054792 -2.068864 55.621166 3.141593 0.811145 -3.141593
    11 58.501446 -2.068866 -0.014459 3.141593 0.496804 3.141593
    12 18.039114 -2.068864 -55.672504 3.141593 -0.741364 -3.141593
  time 3
    0 0.000000 0.000000 0.000000 1.570796 0.000000 0.000000
    1 0.000000 0.000000 0.000000 1.570796 0.000000 0.000000
    2 1.196254 0.624548 0.000000 0.000000 0.000000 0.436332
    3 18.066898 -2.068864 55.605560 3.141593 0.180134 3.141593
    4 47.301071 -2.068865 34.343189 3.141593 -0.436328 3.141593
    5 47.348850 -2.068863 -34.414268 3.141593 -0.141137 3.141593
    6 -18.072645 -2.068864 -55.646927 3.141593 0.180134 3.141593
    7 -47.325806 -2.068864 -34.397007 3.141593 -0.461604 3.141593
    8 -58.483028 -2.068864 -0.005009 3.141593 0.486902 3.141593
    9 -47.304958 -2.068865 34.323246 3.141593 -0.135155 3.141593
    10 -18.054792 -2.068864 55.621166 3.141593 0.795166 -3.141593
    11 58.501446 -2.068866 -0.014459 3.141593 0.480825 3.141593
    12 18.039114 -2.068864 -55.672504 3.141593 -0.757347 -3.141593
  time 4
    0 0.000000 0.000000 0.000000 1.570796 0.000000 0.000000
    1 0.000000 0.000000 0.000000 1.570796 0.000000 0.000000
    2 1.196254 0.624548 0.000000 0.000000 0.000000 0.436332
    3 18.066898 -2.068864 55.605560 3.141593 0.158563 3.141593
    4 47.301071 -2.068865 34.343189 3.141593 -0.457900 3.141593
    5 47.348850 -2.068863 -34.414268 3.141593 -0.162709 3.141593
    6 -18.072645 -2.068864 -55.646927 3.141593 0.158563 3.141593
    7 -47.325806 -2.068864 -34.397007 3.141593 -0.483175 3.141593
    8 -58.483028 -2.068864 -0.005009 3.141593 0.465330 3.141593
    9 -47.304958 -2.068865 34.323246 3.141593 -0.156727 3.141593
    10 -18.054792 -2.068864 55.621166 3.141593 0.773594 -3.141593
    11 58.501446 -2.068866 -0.014459 3.141593 0.459253 3.141593
    12 18.039114 -2.068864 -55.672504 3.141593 -0.778906 -3.141593
  time 5
    0 0.000000 0.000000 0.000000 1.570796 0.000000 0.000000
    1 0.000000 0.000000 0.000000 1.570796 0.000000 0.000000
    2 1.196254 0.624548 0.000000 0.000000 0.000000 0.436332
    3 18.066898 -2.068864 55.605560 3.141593 0.131878 3.141593
    4 47.301071 -2.068865 34.343189 3.141593 -0.484585 3.141593
    5 47.348850 -2.068863 -34.414268 3.141593 -0.189393 3.141593
    6 -18.072645 -2.068864 -55.646927 3.141593 0.131878 3.141593
    7 -47.325806 -2.068864 -34.397007 3.141593 -0.509860 3.141593
    8 -58.483028 -2.068864 -0.005009 3.141593 0.438645 3.141593
    9 -47.304958 -2.068865 34.323246 3.141593 -0.183412 3.141593
    10 -18.054792 -2.068864 55.621166 3.141593 0.746909 -3.141593
    11 58.501446 -2.068866 -0.014459 3.141593 0.432568 3.141593
    12 18.039114 -2.068864 -55.672504 3.141593 -0.805579 -3.141593
  time 6
    0 0.000000 0.000000 0.000000 1.570796 0.000000 0.000000
    1 0.000000 0.000000 0.000000 1.570796 0.000000 0.000000
    2 1.196254 0.624548 0.000000 0.000000 0.000000 0.436332
    3 18.066898 -2.068864 55.605560 3.141593 0.100559 3.141593
    4 47.301071 -2.068865 34.343189 3.141593 -0.515903 3.141593
    5 47.348850 -2.068863 -34.414268 3.141593 -0.220712 3.141593
    6 -18.072645 -2.068864 -55.646927 3.141593 0.100559 3.141593
    7 -47.325806 -2.068864 -34.397007 3.141593 -0.541179 3.141593
    8 -58.483028 -2.068864 -0.005009 3.141593 0.407327 3.141593
    9 -47.304958 -2.068865 34.323246 3.141593 -0.214730 3.141593
    10 -18.054792 -2.068864 55.621166 3.141593 0.715591 -3.141593
    11 58.501446 -2.068866 -0.014459 3.141593 0.401250 3.141593
    12 18.039114 -2.068864 -55.672504 3.141593 -0.836911 -3.141593
  time 7
    0 0.000000 0.000000 0.000000 1.570796 0.000000 0.000000
    1 0.000000 0.000000 0.000000 1.570796 0.000000 0.000000
    2 1.196254 0.624548 0.000000 0.000000 0.000000 0.436332
    3 18.066898 -2.068864 55.605560 3.141593 0.065022 3.141593
    4 47.301071 -2.068865 34.343189 3.141593 -0.551441 3.141593
    5 47.348850 -2.068863 -34.414268 3.141593 -0.256249 3.141593
    6 -18.072645 -2.068864 -55.646927 3.141593 0.065022 3.141593
    7 -47.325806 -2.068864 -34.397007 3.141593 -0.576716 3.141593
    8 -58.483028 -2.068864 -0.005009 3.141593 0.371789 3.141593
    9 -47.304958 -2.068865 34.323246 3.141593 -0.250267 3.141593
    10 -18.054792 -2.068864 55.621166 3.141593 0.680053 -3.141593
    11 58.501446 -2.068866 -0.014459 3.141593 0.365712 3.141593
    12 18.039114 -2.068864 -55.672504 3.141593 -0.872442 -3.141593
  time 8
    0 0.000000 0.000000 0.000000 1.570796 0.000000 0.000000
    1 0.000000 0.000000 0.000000 1.570796 0.000000 0.000000
    2 1.196254 0.624548 0.000000 0.000000 0.000000 0.436332
    3 18.066898 -2.068864 55.605560 3.141593 0.025777 3.141593
    4 47.301071 -2.068865 34.343189 3.141593 -0.590685 3.141593
    5 47.348850 -2.068863 -34.414268 3.141593 -0.295494 3.141593
    6 -18.072645 -2.068864 -55.646927 3.141593 0.025777 3.141593
    7 -47.325806 -2.068864 -34.397007 3.141593 -0.615961 3.141593
    8 -58.483028 -2.068864 -0.005009 3.141593 0.332545 3.141593
    9 -47.304958 -2.068865 34.323246 3.141593 -0.289512 3.141593
    10 -18.054792 -2.068864 55.621166 3.141593 0.640809 -3.141593
    11 58.501446 -2.068866 -0.014459 3.141593 0.326468 3.141593
    12 18.039114 -2.068864 -55.672504 3.141593 -0.911690 -3.141593
  time 9
    0 0.000000 0.000000 0.000000 1.570796 0.000000 0.000000
    1 0.000000 0.000000 0.000000 1.570796 0.000000 0.000000
    2 1.196254 0.624548 0.000000 0.000000 0.000000 0.436332
    3 18.066898 -2.068864 55.605560 3.141593 -0.016727 3.141593
    4 47.301071 -2.068865 34.343189 3.141593 -0.633189 3.141593
    5 47.348850 -2.068863 -34.414268 3.141593 -0.337998 3.141593
    6 -18.072645 -2.068864 -55.646927 3.141593 -0.016727 3.141593
    7 -47.325806 -2.068864 -34.397007 3.141593 -0.658465 3.141593
    8 -58.483028 -2.068864 -0.005009 3.141593 0.290041 3.141593
    9 -47.304958 -2.068865 34.323246 3.141593 -0.332016 3.141593
    10 -18.054792 -2.068864 55.621166 3.141593 0.598305 -3.141593
    11 58.501446 -2.068866 -0.014459 3.141593 0.283964 3.141593
    12 18.039114 -2.068864 -55.672504 3.141593 -0.954220 -3.141593
  time 10
    0 0.000000 0.000000 0.000000 1.570796 0.000000 0.000000
    1 0.000000 0.000000 0.000000 1.570796 0.000000 0.000000
    2 1.196254 0.624548 0.000000 0.000000 0.000000 0.436332
    3 18.066898 -2.068864 55.605560 3.141593 -0.062043 3.141593
    4 47.301071 -2.068865 34.343189 3.141593 -0.678505 3.141593
    5 47.348850 -2.068863 -34.414268 3.141593 -0.383314 3.141593
    6 -18.072645 -2.068864 -55.646927 3.141593 -0.062043 3.141593
    7 -47.325806 -2.068864 -34.397007 3.141593 -0.703781 3.141593
    8 -58.483028 -2.068864 -0.005009 3.141593 0.244725 3.141593
    9 -47.304958 -2.068865 34.323246 3.141593 -0.377332 3.141593
    10 -18.054792 -2.068864 55.621166 3.141593 0.552989 -3.141593
    11 58.501446 -2.068866 -0.014459 3.141593 0.238648 3.141593
    12 18.039114 -2.068864 -55.672504 3.141593 -0.999500 -3.141593
  time 11
    0 0.000000 0.000000 0.000000 1.570796 0.000000 0.000000
    1 0.000000 0.000000 0.000000 1.570796 0.000000 0.000000
    2 1.196254 0.624548 0.000000 0.000000 0.000000 0.436332
    3 18.066898 -2.068864 55.605560 3.141593 -0.109660 3.141593
    4 47.301071 -2.068865 34.343189 3.141593 -0.726123 3.141593
    5 47.348850 -2.068863 -34.414268 3.141593 -0.430931 3.141593
    6 -18.072645 -2.068864 -55.646927 3.141593 -0.109660 3.141593
    7 -47.325806 -2.068864 -34.397007 3.141593 -0.751398 3.141593
    8 -58.483028 -2.068864 -0.005009 3.141593 0.197108 3.141593
    9 -47.304958 -2.068865 34.323246 3.141593 -0.424949 3.141593
    10 -18.054792 -2.068864 55.621166 3.141593 0.505372 -3.141593
    11 58.501446 -2.068866 -0.014459 3.141593 0.191030 3.141593
    12 18.039114 -2.068864 -55.672504 3.141593 -1.047146 -3.141593
  time 12
    0 0.000000 0.000000 0.000000 1.570796 0.000000 0.000000
    1 0.000000 0.000000 0.000000 1.570796 0.000000 0.000000
    2 1.196254 0.624548 0.000000 0.000000 0.000000 0.436332
    3 18.066898 -2.068864 55.605560 3.141593 -0.159163 3.141593
    4 47.301071 -2.068865 34.343189 3.141593 -0.775626 3.141593
    5 47.348850 -2.068863 -34.414268 3.141593 -0.480434 3.141593
    6 -18.072645 -2.068864 -55.646927 3.141593 -0.159163 3.141593
    7 -47.325806 -2.068864 -34.397007 3.141593 -0.800901 3.141593
    8 -58.483028 -2.068864 -0.005009 3.141593 0.147605 3.141593
    9 -47.304958 -2.068865 34.323246 3.141593 -0.474452 3.141593
    10 -18.054792 -2.068864 55.621166 3.141593 0.455869 -3.141593
    11 58.501446 -2.068866 -0.014459 3.141593 0.141527 3.141593
    12 18.039114 -2.068864 -55.672504 3.141593 -1.096625 -3.141593
  time 13
    0 0.000000 0.000000 0.000000 1.570796 0.000000 0.000000
    1 0.000000 0.000000 0.000000 1.570796 0.000000 0.000000
    2 1.196254 0.624548 0.000000 0.000000 0.000000 0.436332
    3 18.066898 -2.068864 55.605560 3.141593 -0.210040 3.141593
    4 47.301071 -2.068865 34.343189 3.141593 -0.826503 3.141593
    5 47.348850 -2.068863 -34.414268 3.141593 -0.531311 3.141593
    6 -18.072645 -2.068864 -55.646927 3.141593 -0.210040 3.141593
    7 -47.325806 -2.068864 -34.397007 3.141593 -0.851778 3.141593
    8 -58.483028 -2.068864 -0.005009 3.141593 0.096728 3.141593
    9 -47.304958 -2.068865 34.323246 3.141593 -0.525329 3.141593
    10 -18.054792 -2.068864 55.621166 3.141593 0.404992 -3.141593
    11 58.501446 -2.068866 -0.014459 3.141593 0.090650 3.141593
    12 18.039114 -2.068864 -55.672504 3.141593 -1.147504 -3.141593
  time 14
    0 0.000000 0.000000 0.000000 1.570796 0.000000 0.000000
    1 0.000000 0.000000 0.000000 1.570796 0.000000 0.000000
    2 1.196254 0.624548 0.000000 0.000000 0.000000 0.436332
    3 18.066898 -2.068864 55.605560 3.141593 -0.261876 3.141593
    4 47.301071 -2.068865 34.343189 3.141593 -0.878338 3.141593
    5 47.348850 -2.068863 -34.414268 3.141593 -0.583147 3.141593
    6 -18.072645 -2.068864 -55.646927 3.141593 -0.261876 3.141593
    7 -47.325806 -2.068864 -34.397007 3.141593 -0.903614 3.141593
    8 -58.483028 -2.068864 -0.005009 3.141593 0.044892 3.141593
    9 -47.304958 -2.068865 34.323246 3.141593 -0.577165 3.141593
    10 -18.054792 -2.068864 55.621166 3.141593 0.353156 -3.141593
    11 58.501446 -2.068866 -0.014459 3.141593 0.038815 3.141593
    12 18.039114 -2.068864 -55.672504 3.141593 -1.199325 -3.141593
  time 15
    0 0.000000 0.000000 0.000000 1.570796 0.000000 0.000000
    1 0.000000 0.000000 0.000000 1.570796 0.000000 0.000000
    2 1.196254 0.624548 0.000000 0.000000 0.000000 0.436332
    3 18.066898 -2.068864 55.605560 3.141593 -0.314159 3.141593
    4 47.301071 -2.068865 34.343189 3.141593 -0.930590 3.141593
    5 47.348850 -2.068863 -34.414268 3.141593 -0.635398 3.141593
    6 -18.072645 -2.068864 -55.646927 3.141593 -0.314159 3.141593
    7 -47.325806 -2.068864 -34.397007 3.141593 -0.955865 3.141593
    8 -58.483028 -2.068864 -0.005009 3.141593 -0.007359 3.141593
    9 -47.304958 -2.068865 34.323246 3.141593 -0.629416 3.141593
    10 -18.054792 -2.068864 55.621166 3.141593 0.300905 -3.141593
    11 58.501446 -2.068866 -0.014459 3.141593 -0.013469 3.141593
    12 18.039114 -2.068864 -55.672504 3.141593 -1.251604 -3.141593
  time 16
    0 0.000000 0.000000 0.000000 1.570796 0.000000 0.000000
    1 0.000000 0.000000 0.000000 1.570796 0.000000 0.000000
    2 1.196254 0.624548 0.000000 0.000000 0.000000 0.436332
    3 18.066898 -2.068864 55.605560 3.141593 -0.366410 3.141593
    4 47.301071 -2.068865 34.343189 3.141593 -0.982873 3.141593
    5 47.348850 -2.068863 -34.414268 3.141593 -0.687681 3.141593
    6 -18.072645 -2.068864 -55.646927 3.141593 -0.366410 3.141593
    7 -47.325806 -2.068864 -34.397007 3.141593 -1.008148 3.141593
    8 -58.483028 -2.068864 -0.005009 3.141593 -0.059642 3.141593
    9 -47.304958 -2.068865 34.323246 3.141593 -0.681699 3.141593
    10 -18.054792 -2.068864 55.621166 3.141593 0.248622 -3.141593
    11 58.501446 -2.068866 -0.014459 3.141593 -0.065720 3.141593
    12 18.039114 -2.068864 -55.672504 3.141593 -1.303882 -3.141593
  time 17
    0 0.000000 0.000000 0.000000 1.570796 0.000000 0.000000
    1 0.000000 0.000000 0.000000 1.570796 0.000000 0.000000
    2 1.196254 0.624548 0.000000 0.000000 0.000000 0.436332
    3 18.066898 -2.068864 55.605560 3.141593 -0.418246 3.141593
    4 47.301071 -2.068865 34.343189 3.141593 -1.034709 3.141593
    5 47.348850 -2.068863 -34.414268 3.141593 -0.739517 3.141593
    6 -18.072645 -2.068864 -55.646927 3.141593 -0.418246 3.141593
    7 -47.325806 -2.068864 -34.397007 3.141593 -1.059984 3.141593
    8 -58.483028 -2.068864 -0.005009 3.141593 -0.111478 3.141593
    9 -47.304958 -2.068865 34.323246 3.141593 -0.733535 3.141593
    10 -18.054792 -2.068864 55.621166 3.141593 0.196786 -3.141593
    11 58.501446 -2.068866 -0.014459 3.141593 -0.117556 3.141593
    12 18.039114 -2.068864 -55.672504 3.141593 -1.355703 -3.141593
  time 18
    0 0.000000 0.000000 0.000000 1.570796 0.000000 0.000000
    1 0.000000 0.000000 0.000000 1.570796 0.000000 0.000000
    2 1.196254 0.624548 0.000000 0.000000 0.000000 0.436332
    3 18.066898 -2.068864 55.605560 3.141593 -0.469123 3.141593
    4 47.301071 -2.068865 34.343189 3.141593 -1.085586 3.141593
    5 47.348850 -2.068863 -34.414268 3.141593 -0.790394 3.141593
    6 -18.072645 -2.068864 -55.646927 3.141593 -0.469123 3.141593
    7 -47.325806 -2.068864 -34.397007 3.141593 -1.110861 3.141593
    8 -58.483028 -2.068864 -0.005009 3.141593 -0.162355 3.141593
    9 -47.304958 -2.068865 34.323246 3.141593 -0.784412 3.141593
    10 -18.054792 -2.068864 55.621166 3.141593 0.145909 -3.141593
    11 58.501446 -2.068866 -0.014459 3.141593 -0.168433 3.141593
    12 18.039114 -2.068864 -55.672504 3.141593 -1.406607 -3.141593
  time 19
    0 0.000000 0.000000 0.000000 1.570796 0.000000 0.000000
    1 0.000000 0.000000 0.000000 1.570796 0.000000 0.000000
    2 1.196254 0.624548 0.000000 0.000000 0.000000 0.436332
    3 18.066898 -2.068864 55.605560 3.141593 -0.518626 3.141593
    4 47.301071 -2.068865 34.343189 3.141593 -1.135089 3.141593
    5 47.348850 -2.068863 -34.414268 3.141593 -0.839897 3.141593
    6 -18.072645 -2.068864 -55.646927 3.141593 -0.518626 3.141593
    7 -47.325806 -2.068864 -34.397007 3.141593 -1.160364 3.141593
    8 -58.483028 -2.068864 -0.005009 3.141593 -0.211858 3.141593
    9 -47.304958 -2.068865 34.323246 3.141593 -0.833915 3.141593
    10 -18.054792 -2.068864 55.621166 3.141593 0.096406 -3.141593
    11 58.501446 -2.068866 -0.014459 3.141593 -0.217936 3.141593
    12 18.039114 -2.068864 -55.672504 3.141593 -1.456087 -3.141593
  time 20
    0 0.000000 0.000000 0.000000 1.570796 0.000000 0.000000
    1 0.000000 0.000000 0.000000 1.570796 0.000000 0.000000
    2 1.196254 0.624548 0.000000 0.000000 0.000000 0.436332
    3 18.066898 -2.068864 55.605560 3.141593 -0.566243 3.141593
    4 47.301071 -2.068865 34.343189 3.141593 -1.182706 3.141593
    5 47.348850 -2.068863 -34.414268 3.141593 -0.887514 3.141593
    6 -18.072645 -2.068864 -55.646927 3.141593 -0.566243 3.141593
    7 -47.325806 -2.068864 -34.397007 3.141593 -1.207981 3.141593
    8 -58.483028 -2.068864 -0.005009 3.141593 -0.259475 3.141593
    9 -47.304958 -2.068865 34.323246 3.141593 -0.881532 3.141593
    10 -18.054792 -2.068864 55.621166 3.141593 0.048789 -3.141593
    11 58.501446 -2.068866 -0.014459 3.141593 -0.265553 3.141593
    12 18.039114 -2.068864 -55.672504 3.141593 -1.503708 -3.141593
  time 21
    0 0.000000 0.000000 0.000000 1.570796 0.000000 0.000000
    1 0.000000 0.000000 0.000000 1.570796 0.000000 0.000000
    2 1.196254 0.624548 0.000000 0.000000 0.000000 0.436332
    3 18.066898 -2.068864 55.605560 3.141593 -0.611560 3.141593
    4 47.301071 -2.068865 34.343189 3.141593 -1.228022 3.141593
    5 47.348850 -2.068863 -34.414268 3.141593 -0.932831 3.141593
    6 -18.072645 -2.068864 -55.646927 3.141593 -0.611560 3.141593
    7 -47.325806 -2.068864 -34.397007 3.141593 -1.253297 3.141593
    8 -58.483028 -2.068864 -0.005009 3.141593 -0.304791 3.141593
    9 -47.304958 -2.068865 34.323246 3.141593 -0.926849 3.141593
    10 -18.054792 -2.068864 55.621166 3.141593 0.003473 -3.141593
    11 58.501446 -2.068866 -0.014459 3.141593 -0.310869 3.141593
    12 18.039114 -2.068864 -55.672504 3.141593 -1.549013 -3.141593
  time 22
    0 0.000000 0.000000 0.000000 1.570796 0.000000 0.000000
    1 0.000000 0.000000 0.000000 1.570796 0.000000 0.000000
    2 1.196254 0.624548 0.000000 0.000000 0.000000 0.436332
    3 18.066898 -2.068864 55.605560 3.141593 -0.654064 3.141593
    4 47.301071 -2.068865 34.343189 3.141593 -1.270526 3.141593
    5 47.348850 -2.068863 -34.414268 3.141593 -0.975335 3.141593
    6 -18.072645 -2.068864 -55.646927 3.141593 -0.654064 3.141593
    7 -47.325806 -2.068864 -34.397007 3.141593 -1.295802 3.141593
    8 -58.483028 -2.068864 -0.005009 3.141593 -0.347296 3.141593
    9 -47.304958 -2.068865 34.323246 3.141593 -0.969353 3.141593
    10 -18.054792 -2.068864 55.621166 3.141593 -0.039031 -3.141593
    11 58.501446 -2.068866 -0.014459 3.141593 -0.353373 3.141593
    12 18.039114 -2.068864 -55.672504 6.283185 -1.550031 -6.283090
  time 23
    0 0.000000 0.000000 0.000000 1.570796 0.000000 0.000000
    1 0.000000 0.000000 0.000000 1.570796 0.000000 0.000000
    2 1.196254 0.624548 0.000000 0.000000 0.000000 0.436332
    3 18.066898 -2.068864 55.605560 3.141593 -0.693308 3.141593
    4 47.301071 -2.068865 34.343189 3.141593 -1.309771 3.141593
    5 47.348850 -2.068863 -34.414268 3.141593 -1.014579 3.141593
    6 -18.072645 -2.068864 -55.646927 3.141593 -0.693308 3.141593
    7 -47.325806 -2.068864 -34.397007 3.141593 -1.335046 3.141593
    8 -58.483028 -2.068864 -0.005009 3.141593 -0.386540 3.141593
    9 -47.304958 -2.068865 34.323246 3.141593 -1.008597 3.141593
    10 -18.054792 -2.068864 55.621166 3.141593 -0.078276 -3.141593
    11 58.501446 -2.068866 -0.014459 3.141593 -0.392618 3.141593
    12 18.039114 -2.068864 -55.672504 6.283185 -1.510783 -6.283090
  time 24
    0 0.000000 0.000000 0.000000 1.570796 0.000000 0.000000
    1 0.000000 0.000000 0.000000 1.570796 0.000000 0.000000
    2 1.196254 0.624548 0.000000 0.000000 0.000000 0.436332
    3 18.066898 -2.068864 55.605560 3.141593 -0.728845 3.141593
    4 47.301071 -2.068865 34.343189 3.141593 -1.345308 3.141593
    5 47.348850 -2.068863 -34.414268 3.141593 -1.050116 3.141593
    6 -18.072645 -2.068864 -55.646927 3.141593 -0.728845 3.141593
    7 -47.325806 -2.068864 -34.397007 3.141593 -1.370583 3.141593
    8 -58.483028 -2.068864 -0.005009 3.141593 -0.422077 3.141593
    9 -47.304958 -2.068865 34.323246 3.141593 -1.044134 3.141593
    10 -18.054792 -2.068864 55.621166 3.141593 -0.113813 -3.141593
    11 58.501446 -2.068866 -0.014459 3.141593 -0.428155 3.141593
    12 18.039114 -2.068864 -55.672504 6.283185 -1.475277 -6.283090
  time 25
    0 0.000000 0.000000 0.000000 1.570796 0.000000 0.000000
    1 0.000000 0.000000 0.000000 1.570796 0.000000 0.000000
    2 1.196254 0.624548 0.000000 0.000000 0.000000 0.436332
    3 18.066898 -2.068864 55.605560 3.141593 -0.760164 3.141593
    4 47.301071 -2.068865 34.343189 3.141593 -1.376627 3.141593
    5 47.348850 -2.068863 -34.414268 3.141593 -1.081435 3.141593
    6 -18.072645 -2.068864 -55.646927 3.141593 -0.760164 3.141593
    7 -47.325806 -2.068864 -34.397007 3.141593 -1.401902 3.141593
    8 -58.483028 -2.068864 -0.005009 3.141593 -0.453396 3.141593
    9 -47.304958 -2.068865 34.323246 3.141593 -1.075453 3.141593
    10 -18.054792 -2.068864 55.621166 3.141593 -0.145132 -3.141593
    11 58.501446 -2.068866 -0.014459 3.141593 -0.459474 3.141593
    12 18.039114 -2.068864 -55.672504 6.283185 -1.443920 -6.283090
  time 26
    0 0.000000 0.000000 0.000000 1.570796 0.000000 0.000000
    1 0.000000 0.000000 0.000000 1.570796 0.000000 0.000000
    2 1.196254 0.624548 0.000000 0.000000 0.000000 0.436332
    3 18.066898 -2.068864 55.605560 3.141593 -0.786849 3.141593
    4 47.301071 -2.068865 34.343189 3.141593 -1.403312 3.141593
    5 47.348850 -2.068863 -34.414268 3.141593 -1.108120 3.141593
    6 -18.072645 -2.068864 -55.646927 3.141593 -0.786849 3.141593
    7 -47.325806 -2.068864 -34.397007 3.141593 -1.428587 3.141593
    8 -58.483028 -2.068864 -0.005009 3.141593 -0.480081 3.141593
    9 -47.304958 -2.068865 34.323246 3.141593 -1.102138 3.141593
    10 -18.054792 -2.068864 55.621166 3.141593 -0.171817 -3.141593
    11 58.501446 -2.068866 -0.014459 3.141593 -0.486159 3.141593
    12 18.039114 -2.068864 -55.672504 6.283185 -1.417246 -6.283090
  time 27
    0 0.000000 0.000000 0.000000 1.570796 0.000000 0.000000
    1 0.000000 0.000000 0.000000 1.570796 0.000000 0.000000
    2 1.196254 0.624548 0.000000 0.000000 0.000000 0.436332
    3 18.066898 -2.068864 55.605560 3.141593 -0.808420 3.141593
    4 47.301071 -2.068865 34.343189 3.141593 -1.424883 3.141593
    5 47.348850 -2.068863 -34.414268 3.141593 -1.129691 3.141593
    6 -18.072645 -2.068864 -55.646927 3.141593 -0.808420 3.141593
    7 -47.325806 -2.068864 -34.397007 3.141593 -1.450158 3.141593
    8 -58.483028 -2.068864 -0.005009 3.141593 -0.501652 3.141593
    9 -47.304958 -2.068865 34.323246 3.141593 -1.123709 3.141593
    10 -18.054792 -2.068864 55.621166 3.141593 -0.193388 -3.141593
    11 58.501446 -2.068866 -0.014459 3.141593 -0.507730 3.141593
    12 18.039114 -2.068864 -55.672504 6.283185 -1.395688 -6.283090
  time 28
    0 0.000000 0.000000 0.000000 1.570796 0.000000 0.000000
    1 0.000000 0.000000 0.000000 1.570796 0.000000 0.000000
    2 1.196254 0.624548 0.000000 0.000000 0.000000 0.436332
    3 18.066898 -2.068864 55.605560 3.141593 -0.824399 3.141593
    4 47.301071 -2.068865 34.343189 3.141593 -1.440862 3.141593
    5 47.348850 -2.068863 -34.414268 3.141593 -1.145670 3.141593
    6 -18.072645 -2.068864 -55.646927 3.141593 -0.824399 3.141593
    7 -47.325806 -2.068864 -34.397007 3.141593 -1.466137 3.141593
    8 -58.483028 -2.068864 -0.005009 3.141593 -0.517631 3.141593
    9 -47.304958 -2.068865 34.323246 3.141593 -1.139688 3.141593
    10 -18.054792 -2.068864 55.621166 3.141593 -0.209367 -3.141593
    11 58.501446 -2.068866 -0.014459 3.141593 -0.523709 3.141593
    12 18.039114 -2.068864 -55.672504 6.283185 -1.379705 -6.283090
  time 29
    0 0.000000 0.000000 0.000000 1.570796 0.000000 0.000000
    1 0.000000 0.000000 0.000000 1.570796 0.000000 0.000000
    2 1.196254 0.624548 0.000000 0.000000 0.000000 0.436332
    3 18.066898 -2.068864 55.605560 3.141593 -0.834338 3.141593
    4 47.301071 -2.068865 34.343189 3.141593 -1.450801 3.141593
    5 47.348850 -2.068863 -34.414268 3.141593 -1.155609 3.141593
    6 -18.072645 -2.068864 -55.646927 3.141593 -0.834338 3.141593
    7 -47.325806 -2.068864 -34.397007 3.141593 -1.476076 3.141593
    8 -58.483028 -2.068864 -0.005009 3.141593 -0.527570 3.141593
    9 -47.304958 -2.068865 34.323246 3.141593 -1.149627 3.141593
    10 -18.054792 -2.068864 55.621166 3.141593 -0.219306 -3.141593
    11 58.501446 -2.068866 -0.014459 3.141593 -0.533648 3.141593
    12 18.039114 -2.068864 -55.672504 6.283185 -1.369778 -6.283090
  time 30
    0 0.000000 0.000000 0.000000 1.570796 0.000000 0.000000
    1 0.000000 0.000000 0.000000 1.570796 0.000000 0.000000
    2 1.196254 0.624548 0.000000 0.000000 0.000000 0.436332
    3 18.066898 -2.068864 55.605560 3.141593 -0.837758 3.141593
    4 47.301071 -2.068865 34.343189 3.141593 -1.454189 3.141593
    5 47.348850 -2.068863 -34.414268 3.141593 -1.158997 3.141593
    6 -18.072645 -2.068864 -55.646927 3.141593 -0.837758 3.141593
    7 -47.325806 -2.068864 -34.397007 3.141593 -1.479464 3.141593
    8 -58.483028 -2.068864 -0.005009 3.141593 -0.530990 3.141593
    9 -47.304958 -2.068865 34.323246 3.141593 -1.153015 3.141593
    10 -18.054792 -2.068864 55.621166 3.141593 -0.222694 -3.141593
    11 58.501446 -2.068866 -0.014459 3.141593 -0.537068 3.141593
    12 18.039114 -2.068864 -55.672504 6.283185 -1.366368 -6.283090
end
