// Created by Crowbar 0.74
version 1
nodes
  0 "button_whole_reference_02.polymsh" -1
end
skeleton
  time 0
    0 0.000000 0.000000 0.000000 1.570796 0.000000 0.000000
end
triangles
  phy
    0 -20.042705 25.132754 9.889892 -0.080020 0.994012 -0.074416 0 0
    0 -7.153159 31.340031 9.889892 -0.832255 0.490831 -0.257752 0 0
    0 7.153157 31.340033 9.889892 -0.037639 0.999254 0.008591 0 0
  phy
    0 -20.042705 25.132754 9.889892 -0.080020 0.994012 -0.074416 0 0
    0 7.153157 31.340033 9.889892 -0.037639 0.999254 0.008591 0 0
    0 -28.962545 -13.947628 9.889890 0.030633 0.997505 -0.063610 0 0
  phy
    0 -28.962545 -13.947628 9.889890 0.030633 0.997505 -0.063610 0 0
    0 7.153157 31.340033 9.889892 -0.037639 0.999254 0.008591 0 0
    0 -7.153157 -31.340033 9.889889 0.045678 0.998933 -0.006832 0 0
  phy
    0 -7.153157 -31.340033 9.889889 0.045678 0.998933 -0.006832 0 0
    0 7.153157 31.340033 9.889892 -0.037639 0.999254 0.008591 0 0
    0 20.042705 -25.132756 9.889890 0.055199 0.997505 0.044020 0 0
  phy
    0 -28.962545 -13.947629 13.646249 0.128608 -0.955061 -0.267057 0 0
    0 -28.962545 -13.947628 9.889890 0.030633 0.997505 -0.063610 0 0
    0 -20.042705 -25.132756 13.646248 0.024406 -0.999444 -0.022697 0 0
  phy
    0 -20.042705 -25.132756 13.646248 0.024406 -0.999444 -0.022697 0 0
    0 -28.962545 -13.947628 9.889890 0.030633 0.997505 -0.063610 0 0
    0 -20.042702 -25.132756 9.889890 0.720421 0.490831 -0.489978 0 0
  phy
    0 -28.962545 -13.947628 9.889890 0.030633 0.997505 -0.063610 0 0
    0 -28.962545 -13.947629 13.646249 0.128608 -0.955061 -0.267057 0 0
    0 -32.146000 -0.000002 13.646249 0.000000 -0.390160 -0.920747 0 0
  phy
    0 -28.962545 -13.947628 9.889890 0.030633 0.997505 -0.063610 0 0
    0 -32.146000 -0.000002 13.646249 0.000000 -0.390160 -0.920747 0 0
    0 -32.146000 -0.000001 9.889891 0.000000 0.955061 -0.296411 0 0
  phy
    0 -20.042702 -25.132756 9.889890 0.720421 0.490831 -0.489978 0 0
    0 -28.962545 -13.947628 9.889890 0.030633 0.997505 -0.063610 0 0
    0 -7.153157 -31.340033 9.889889 0.045678 0.998933 -0.006832 0 0
  phy
    0 -20.042705 25.132754 9.889892 -0.080020 0.994012 -0.074416 0 0
    0 -28.962545 -13.947628 9.889890 0.030633 0.997505 -0.063610 0 0
    0 -32.146000 -0.000001 9.889891 0.000000 0.955061 -0.296411 0 0
  phy
    0 7.153152 31.340035 13.646251 -0.743758 -0.646534 0.169758 0 0
    0 7.153157 31.340033 9.889892 -0.037639 0.999254 0.008591 0 0
    0 -7.153159 31.340033 13.646251 -0.194474 -0.980476 -0.029087 0 0
  phy
    0 -7.153159 31.340033 13.646251 -0.194474 -0.980476 -0.029087 0 0
    0 7.153157 31.340033 9.889892 -0.037639 0.999254 0.008591 0 0
    0 -7.153159 31.340031 9.889892 -0.832255 0.490831 -0.257752 0 0
  phy
    0 -7.153159 31.340033 13.646251 -0.194474 -0.980476 -0.029087 0 0
    0 -7.153159 31.340031 9.889892 -0.832255 0.490831 -0.257752 0 0
    0 -20.042705 25.132756 13.646250 -0.720421 -0.490831 -0.489978 0 0
  phy
    0 -20.042705 25.132756 13.646250 -0.720421 -0.490831 -0.489978 0 0
    0 -7.153159 31.340031 9.889892 -0.832255 0.490831 -0.257752 0 0
    0 -20.042705 25.132754 9.889892 -0.080020 0.994012 -0.074416 0 0
  phy
    0 -32.146000 -0.000001 9.889891 0.000000 0.955061 -0.296411 0 0
    0 -32.146000 -0.000002 13.646249 0.000000 -0.390160 -0.920747 0 0
    0 -28.962545 13.947627 9.889891 -0.317384 0.490831 -0.811389 0 0
  phy
    0 -28.962545 13.947627 9.889891 -0.317384 0.490831 -0.811389 0 0
    0 -32.146000 -0.000002 13.646249 0.000000 -0.390160 -0.920747 0 0
    0 -28.962545 13.947630 13.646250 -0.025860 -0.998667 -0.044673 0 0
  phy
    0 -28.962545 13.947627 9.889891 -0.317384 0.490831 -0.811389 0 0
    0 -28.962545 13.947630 13.646250 -0.025860 -0.998667 -0.044673 0 0
    0 -20.042705 25.132754 9.889892 -0.080020 0.994012 -0.074416 0 0
  phy
    0 -20.042705 25.132754 9.889892 -0.080020 0.994012 -0.074416 0 0
    0 -28.962545 13.947630 13.646250 -0.025860 -0.998667 -0.044673 0 0
    0 -20.042705 25.132756 13.646250 -0.720421 -0.490831 -0.489978 0 0
  phy
    0 -28.962545 13.947627 9.889891 -0.317384 0.490831 -0.811389 0 0
    0 -20.042705 25.132754 9.889892 -0.080020 0.994012 -0.074416 0 0
    0 -32.146000 -0.000001 9.889891 0.000000 0.955061 -0.296411 0 0
  phy
    0 20.042707 -25.132756 13.646248 0.596448 -0.646534 0.475651 0 0
    0 7.153159 -31.340033 13.646248 0.514157 -0.849630 0.117353 0 0
    0 20.042705 -25.132756 9.889890 0.055199 0.997505 0.044020 0 0
  phy
    0 7.153159 -31.340033 13.646248 0.514157 -0.849630 0.117353 0 0
    0 7.153159 -31.340033 9.889889 0.743758 0.646534 0.169758 0 0
    0 20.042705 -25.132756 9.889890 0.055199 0.997505 0.044020 0 0
  phy
    0 7.153159 -31.340033 9.889889 0.743758 0.646534 0.169758 0 0
    0 7.153159 -31.340033 13.646248 0.514157 -0.849630 0.117353 0 0
    0 -7.153157 -31.340033 9.889889 0.045678 0.998933 -0.006832 0 0
  phy
    0 7.153159 -31.340033 13.646248 0.514157 -0.849630 0.117353 0 0
    0 -7.153157 -31.340033 13.646248 0.210660 -0.975380 -0.065242 0 0
    0 -7.153157 -31.340033 9.889889 0.045678 0.998933 -0.006832 0 0
  phy
    0 20.042705 -25.132756 9.889890 0.055199 0.997505 0.044020 0 0
    0 7.153159 -31.340033 9.889889 0.743758 0.646534 0.169758 0 0
    0 -7.153157 -31.340033 9.889889 0.045678 0.998933 -0.006832 0 0
  phy
    0 -7.153157 -31.340033 9.889889 0.045678 0.998933 -0.006832 0 0
    0 -7.153157 -31.340033 13.646248 0.210660 -0.975380 -0.065242 0 0
    0 -20.042702 -25.132756 9.889890 0.720421 0.490831 -0.489978 0 0
  phy
    0 -7.153157 -31.340033 13.646248 0.210660 -0.975380 -0.065242 0 0
    0 -20.042705 -25.132756 13.646248 0.024406 -0.999444 -0.022697 0 0
    0 -20.042702 -25.132756 9.889890 0.720421 0.490831 -0.489978 0 0
  phy
    0 -28.962545 -13.947629 13.646249 0.128608 -0.955061 -0.267057 0 0
    0 -20.042705 -25.132756 13.646248 0.024406 -0.999444 -0.022697 0 0
    0 -28.962545 13.947630 13.646250 -0.025860 -0.998667 -0.044673 0 0
  phy
    0 -28.962545 13.947630 13.646250 -0.025860 -0.998667 -0.044673 0 0
    0 -32.146000 -0.000002 13.646249 0.000000 -0.390160 -0.920747 0 0
    0 -28.962545 -13.947629 13.646249 0.128608 -0.955061 -0.267057 0 0
  phy
    0 28.962545 13.947629 9.889891 -0.031623 0.997340 0.065665 0 0
    0 20.042702 25.132756 9.889892 -0.638002 0.490831 0.593328 0 0
    0 28.962545 13.947629 13.646250 -0.399497 -0.390160 0.829565 0 0
  phy
    0 20.042702 25.132756 9.889892 -0.638002 0.490831 0.593328 0 0
    0 20.042702 25.132756 13.646250 -0.025723 -0.999516 0.017495 0 0
    0 28.962545 13.947629 13.646250 -0.399497 -0.390160 0.829565 0 0
  phy
    0 20.042702 25.132756 9.889892 -0.638002 0.490831 0.593328 0 0
    0 7.153157 31.340033 9.889892 -0.037639 0.999254 0.008591 0 0
    0 20.042702 25.132756 13.646250 -0.025723 -0.999516 0.017495 0 0
  phy
    0 20.042702 25.132756 13.646250 -0.025723 -0.999516 0.017495 0 0
    0 7.153157 31.340033 9.889892 -0.037639 0.999254 0.008591 0 0
    0 7.153152 31.340035 13.646251 -0.743758 -0.646534 0.169758 0 0
  phy
    0 20.042702 25.132756 9.889892 -0.638002 0.490831 0.593328 0 0
    0 28.962545 13.947629 9.889891 -0.031623 0.997340 0.065665 0 0
    0 7.153157 31.340033 9.889892 -0.037639 0.999254 0.008591 0 0
  phy
    0 28.962545 13.947629 13.646250 -0.399497 -0.390160 0.829565 0 0
    0 32.146000 0.000001 9.889891 -0.066095 0.490831 0.868744 0 0
    0 28.962545 13.947629 9.889891 -0.031623 0.997340 0.065665 0 0
  phy
    0 28.962545 13.947629 13.646250 -0.399497 -0.390160 0.829565 0 0
    0 32.146000 0.000000 13.646249 0.032093 -0.906108 0.421827 0 0
    0 32.146000 0.000001 9.889891 -0.066095 0.490831 0.868744 0 0
  phy
    0 20.042702 25.132756 13.646250 -0.025723 -0.999516 0.017495 0 0
    0 32.146000 0.000000 13.646249 0.032093 -0.906108 0.421827 0 0
    0 28.962545 13.947629 13.646250 -0.399497 -0.390160 0.829565 0 0
  phy
    0 32.146000 0.000001 9.889891 -0.066095 0.490831 0.868744 0 0
    0 28.962545 -13.947625 9.889890 0.154109 0.906108 0.393978 0 0
    0 28.962545 13.947629 9.889891 -0.031623 0.997340 0.065665 0 0
  phy
    0 28.962545 13.947629 9.889891 -0.031623 0.997340 0.065665 0 0
    0 28.962545 -13.947625 9.889890 0.154109 0.906108 0.393978 0 0
    0 20.042705 -25.132756 9.889890 0.055199 0.997505 0.044020 0 0
  phy
    0 28.962545 13.947629 9.889891 -0.031623 0.997340 0.065665 0 0
    0 20.042705 -25.132756 9.889890 0.055199 0.997505 0.044020 0 0
    0 7.153157 31.340033 9.889892 -0.037639 0.999254 0.008591 0 0
  phy
    0 32.146000 0.000000 13.646249 0.032093 -0.906108 0.421827 0 0
    0 28.962545 -13.947625 9.889890 0.154109 0.906108 0.393978 0 0
    0 32.146000 0.000001 9.889891 -0.066095 0.490831 0.868744 0 0
  phy
    0 32.146000 0.000000 13.646249 0.032093 -0.906108 0.421827 0 0
    0 28.962545 -13.947627 13.646249 0.025860 -0.998667 0.044673 0 0
    0 28.962545 -13.947625 9.889890 0.154109 0.906108 0.393978 0 0
  phy
    0 -28.962545 13.947630 13.646250 -0.025860 -0.998667 -0.044673 0 0
    0 20.042702 25.132756 13.646250 -0.025723 -0.999516 0.017495 0 0
    0 -7.153159 31.340033 13.646251 -0.194474 -0.980476 -0.029087 0 0
  phy
    0 -7.153159 31.340033 13.646251 -0.194474 -0.980476 -0.029087 0 0
    0 -20.042705 25.132756 13.646250 -0.720421 -0.490831 -0.489978 0 0
    0 -28.962545 13.947630 13.646250 -0.025860 -0.998667 -0.044673 0 0
  phy
    0 20.042702 25.132756 13.646250 -0.025723 -0.999516 0.017495 0 0
    0 7.153152 31.340035 13.646251 -0.743758 -0.646534 0.169758 0 0
    0 -7.153159 31.340033 13.646251 -0.194474 -0.980476 -0.029087 0 0
  phy
    0 -20.042705 -25.132756 13.646248 0.024406 -0.999444 -0.022697 0 0
    0 20.042702 25.132756 13.646250 -0.025723 -0.999516 0.017495 0 0
    0 -28.962545 13.947630 13.646250 -0.025860 -0.998667 -0.044673 0 0
  phy
    0 28.962545 -13.947625 9.889890 0.154109 0.906108 0.393978 0 0
    0 28.962545 -13.947627 13.646249 0.025860 -0.998667 0.044673 0 0
    0 20.042705 -25.132756 9.889890 0.055199 0.997505 0.044020 0 0
  phy
    0 28.962545 -13.947627 13.646249 0.025860 -0.998667 0.044673 0 0
    0 20.042707 -25.132756 13.646248 0.596448 -0.646534 0.475651 0 0
    0 20.042705 -25.132756 9.889890 0.055199 0.997505 0.044020 0 0
  phy
    0 28.962545 -13.947627 13.646249 0.025860 -0.998667 0.044673 0 0
    0 -7.153157 -31.340033 13.646248 0.210660 -0.975380 -0.065242 0 0
    0 7.153159 -31.340033 13.646248 0.514157 -0.849630 0.117353 0 0
  phy
    0 28.962545 -13.947627 13.646249 0.025860 -0.998667 0.044673 0 0
    0 -20.042705 -25.132756 13.646248 0.024406 -0.999444 -0.022697 0 0
    0 -7.153157 -31.340033 13.646248 0.210660 -0.975380 -0.065242 0 0
  phy
    0 28.962545 -13.947627 13.646249 0.025860 -0.998667 0.044673 0 0
    0 20.042702 25.132756 13.646250 -0.025723 -0.999516 0.017495 0 0
    0 -20.042705 -25.132756 13.646248 0.024406 -0.999444 -0.022697 0 0
  phy
    0 28.962545 -13.947627 13.646249 0.025860 -0.998667 0.044673 0 0
    0 32.146000 0.000000 13.646249 0.032093 -0.906108 0.421827 0 0
    0 20.042702 25.132756 13.646250 -0.025723 -0.999516 0.017495 0 0
  phy
    0 28.962545 -13.947627 13.646249 0.025860 -0.998667 0.044673 0 0
    0 7.153159 -31.340033 13.646248 0.514157 -0.849630 0.117353 0 0
    0 20.042707 -25.132756 13.646248 0.596448 -0.646534 0.475651 0 0
end
