// Created by Crowbar 0.74
version 1
nodes
  0 "static_prop" -1
end
skeleton
  time 0
    0 0.000000 0.000000 0.000000 0.000000 0.000000 0.000000
end
triangles
  phy
    0 5.000000 3.233659 -4.564467 0.984949 0.145738 0.092927 0 0
    0 -5.000000 3.233659 -4.564467 0.990654 0.100734 -0.091959 0 0
    0 -10.000000 4.670350 -5.000000 0.495631 0.794464 -0.350966 0 0
  phy
    0 5.000000 3.233659 -4.564467 0.984949 0.145738 0.092927 0 0
    0 -5.000000 3.233659 4.564467 0.994032 -0.050539 -0.096675 0 0
    0 -5.000000 3.233659 -4.564467 0.990654 0.100734 -0.091959 0 0
  phy
    0 -5.000000 3.233659 -4.564467 0.990654 0.100734 -0.091959 0 0
    0 -5.000000 3.233659 4.564467 0.994032 -0.050539 -0.096675 0 0
    0 -10.000000 4.670350 -5.000000 0.495631 0.794464 -0.350966 0 0
  phy
    0 5.000000 3.233659 -4.564467 0.984949 0.145738 0.092927 0 0
    0 10.000000 4.670352 5.000000 0.661703 -0.655478 0.364001 0 0
    0 5.000000 3.233659 4.564467 0.957735 -0.275194 0.083741 0 0
  phy
    0 5.000000 3.233659 -4.564467 0.984949 0.145738 0.092927 0 0
    0 10.000000 4.670352 -5.000000 0.601118 0.598204 0.529914 0 0
    0 10.000000 4.670352 5.000000 0.661703 -0.655478 0.364001 0 0
  phy
    0 10.000000 4.670352 -5.000000 0.601118 0.598204 0.529914 0 0
    0 13.387687 9.526227 5.000000 0.553805 -0.013119 0.832543 0 0
    0 10.000000 4.670352 5.000000 0.661703 -0.655478 0.364001 0 0
  phy
    0 10.000000 4.670352 -5.000000 0.601118 0.598204 0.529914 0 0
    0 13.387687 9.526227 -5.000000 0.130424 0.965955 0.223428 0 0
    0 13.387687 9.526227 5.000000 0.553805 -0.013119 0.832543 0 0
  phy
    0 10.000000 4.670352 -5.000000 0.601118 0.598204 0.529914 0 0
    0 5.000000 3.233659 -4.564467 0.984949 0.145738 0.092927 0 0
    0 -10.000000 4.670350 -5.000000 0.495631 0.794464 -0.350966 0 0
  phy
    0 13.387687 9.526227 -5.000000 0.130424 0.965955 0.223428 0 0
    0 10.000000 4.670352 -5.000000 0.601118 0.598204 0.529914 0 0
    0 -10.000000 4.670350 -5.000000 0.495631 0.794464 -0.350966 0 0
  phy
    0 -10.000000 4.670350 5.000000 0.318308 -0.925066 -0.207202 0 0
    0 -13.387687 9.544134 5.000000 0.353383 -0.752352 -0.555956 0 0
    0 -10.000000 4.670350 -5.000000 0.495631 0.794464 -0.350966 0 0
  phy
    0 -10.000000 4.670350 -5.000000 0.495631 0.794464 -0.350966 0 0
    0 -13.387687 9.544134 5.000000 0.353383 -0.752352 -0.555956 0 0
    0 -13.387687 9.544134 -5.000000 0.536275 0.024447 -0.843690 0 0
  phy
    0 -13.387687 9.544134 -5.000000 0.536275 0.024447 -0.843690 0 0
    0 -13.387687 9.544134 5.000000 0.353383 -0.752352 -0.555956 0 0
    0 -13.387687 10.000000 -5.000000 -0.960286 0.278538 -0.016349 0 0
  phy
    0 -13.387687 10.000000 -5.000000 -0.960286 0.278538 -0.016349 0 0
    0 -13.387687 9.544134 5.000000 0.353383 -0.752352 -0.555956 0 0
    0 -13.387687 10.000000 5.000000 -0.998818 -0.045533 -0.017005 0 0
  phy
    0 13.387687 9.526227 5.000000 0.553805 -0.013119 0.832543 0 0
    0 13.387687 10.000000 5.000000 -0.904415 -0.426354 0.016003 0 0
    0 10.000000 4.670352 5.000000 0.661703 -0.655478 0.364001 0 0
  phy
    0 13.387687 10.000000 5.000000 -0.904415 -0.426354 0.016003 0 0
    0 -10.000000 4.670350 5.000000 0.318308 -0.925066 -0.207202 0 0
    0 10.000000 4.670352 5.000000 0.661703 -0.655478 0.364001 0 0
  phy
    0 13.387687 10.000000 5.000000 -0.904415 -0.426354 0.016003 0 0
    0 -13.387687 9.544134 5.000000 0.353383 -0.752352 -0.555956 0 0
    0 -10.000000 4.670350 5.000000 0.318308 -0.925066 -0.207202 0 0
  phy
    0 13.387687 10.000000 5.000000 -0.904415 -0.426354 0.016003 0 0
    0 -13.387687 10.000000 5.000000 -0.998818 -0.045533 -0.017005 0 0
    0 -13.387687 9.544134 5.000000 0.353383 -0.752352 -0.555956 0 0
  phy
    0 5.000000 3.233659 4.564467 0.957735 -0.275194 0.083741 0 0
    0 -5.000000 3.233659 4.564467 0.994032 -0.050539 -0.096675 0 0
    0 5.000000 3.233659 -4.564467 0.984949 0.145738 0.092927 0 0
  phy
    0 13.387687 9.526227 -5.000000 0.130424 0.965955 0.223428 0 0
    0 13.387687 10.000000 5.000000 -0.904415 -0.426354 0.016003 0 0
    0 13.387687 9.526227 5.000000 0.553805 -0.013119 0.832543 0 0
  phy
    0 13.387687 9.526227 -5.000000 0.130424 0.965955 0.223428 0 0
    0 13.387687 10.000000 -5.000000 -0.998724 0.047317 0.017672 0 0
    0 13.387687 10.000000 5.000000 -0.904415 -0.426354 0.016003 0 0
  phy
    0 -10.000000 4.670350 -5.000000 0.495631 0.794464 -0.350966 0 0
    0 -13.387687 9.544134 -5.000000 0.536275 0.024447 -0.843690 0 0
    0 -13.387687 10.000000 -5.000000 -0.960286 0.278538 -0.016349 0 0
  phy
    0 -10.000000 4.670350 -5.000000 0.495631 0.794464 -0.350966 0 0
    0 -13.387687 10.000000 -5.000000 -0.960286 0.278538 -0.016349 0 0
    0 13.387687 9.526227 -5.000000 0.130424 0.965955 0.223428 0 0
  phy
    0 13.387687 9.526227 -5.000000 0.130424 0.965955 0.223428 0 0
    0 -13.387687 10.000000 -5.000000 -0.960286 0.278538 -0.016349 0 0
    0 13.387687 10.000000 -5.000000 -0.998724 0.047317 0.017672 0 0
  phy
    0 5.000000 3.233659 4.564467 0.957735 -0.275194 0.083741 0 0
    0 -10.000000 4.670350 5.000000 0.318308 -0.925066 -0.207202 0 0
    0 -5.000000 3.233659 4.564467 0.994032 -0.050539 -0.096675 0 0
  phy
    0 5.000000 3.233659 4.564467 0.957735 -0.275194 0.083741 0 0
    0 10.000000 4.670352 5.000000 0.661703 -0.655478 0.364001 0 0
    0 -10.000000 4.670350 5.000000 0.318308 -0.925066 -0.207202 0 0
  phy
    0 -10.000000 4.670350 -5.000000 0.495631 0.794464 -0.350966 0 0
    0 -5.000000 3.233659 4.564467 0.994032 -0.050539 -0.096675 0 0
    0 -10.000000 4.670350 5.000000 0.318308 -0.925066 -0.207202 0 0
  phy
    0 13.387687 10.000000 -5.000000 -0.998724 0.047317 0.017672 0 0
    0 -13.387687 10.000000 -5.000000 -0.960286 0.278538 -0.016349 0 0
    0 13.387687 10.000000 5.000000 -0.904415 -0.426354 0.016003 0 0
  phy
    0 13.387687 10.000000 5.000000 -0.904415 -0.426354 0.016003 0 0
    0 -13.387687 10.000000 -5.000000 -0.960286 0.278538 -0.016349 0 0
    0 -13.387687 10.000000 5.000000 -0.998818 -0.045533 -0.017005 0 0
end
