// Created by Crowbar 0.74
version 1
nodes
  0 "static_prop" -1
end
skeleton
  time 0
    0 0.000000 0.000000 0.000000 0.000000 0.000000 0.000000
end
triangles
walllight_sheet
  0 10.000000 4.670352 -5.000000 1.000000 0.000000 0.000000 0.003662 0.112270 1 0 1.000000
  0 10.000000 9.128199 5.000000 1.000000 0.000000 0.000000 0.230662 0.621485 1 0 1.000000
  0 10.000000 4.670352 5.000000 1.000000 0.000000 0.000000 0.003662 0.621485 1 0 1.000000
walllight_sheet
  0 10.000000 4.670352 -5.000000 1.000000 0.000000 0.000000 0.003662 0.112270 1 0 1.000000
  0 10.000000 9.128199 -5.000000 1.000000 0.000000 0.000000 0.230662 0.112270 1 0 1.000000
  0 10.000000 9.128199 5.000000 1.000000 0.000000 0.000000 0.230662 0.621485 1 0 1.000000
walllight_sheet
  0 10.000000 10.000000 5.000000 0.000000 0.000000 1.000000 0.890091 0.398378 1 0 1.000000
  0 9.160105 5.046481 5.000000 0.000000 0.000000 1.000000 0.866548 0.259531 1 0 1.000000
  0 10.000000 4.670352 5.000000 0.000000 0.000000 1.000000 0.890091 0.248988 1 0 1.000000
walllight_sheet
  0 10.000000 10.000000 5.000000 0.000000 0.000000 1.000000 0.890091 0.398378 1 0 1.000000
  0 9.160105 9.460875 5.000000 0.000000 0.000000 1.000000 0.866548 0.383266 1 0 1.000000
  0 9.160105 5.046481 5.000000 0.000000 0.000000 1.000000 0.866548 0.259531 1 0 1.000000
walllight_sheet
  0 -10.000000 10.000000 5.000000 0.000000 0.000000 1.000000 0.329487 0.398378 1 0 1.000000
  0 9.160105 9.460875 5.000000 0.000000 0.000000 1.000000 0.866548 0.383266 1 0 1.000000
  0 10.000000 10.000000 5.000000 0.000000 0.000000 1.000000 0.890091 0.398378 1 0 1.000000
walllight_sheet
  0 -10.000000 10.000000 5.000000 0.000000 0.000000 1.000000 0.329487 0.398378 1 0 1.000000
  0 -9.160105 9.460875 5.000000 0.000000 0.000000 1.000000 0.353029 0.383266 1 0 1.000000
  0 9.160105 9.460875 5.000000 0.000000 0.000000 1.000000 0.866548 0.383266 1 0 1.000000
walllight_sheet
  0 -10.000000 4.670351 5.000000 0.000000 0.000000 1.000000 0.329487 0.248988 1 0 1.000000
  0 -9.160105 9.460875 5.000000 0.000000 0.000000 1.000000 0.353029 0.383266 1 0 1.000000
  0 -10.000000 10.000000 5.000000 0.000000 0.000000 1.000000 0.329487 0.398378 1 0 1.000000
walllight_sheet
  0 -10.000000 4.670351 5.000000 0.000000 0.000000 1.000000 0.329487 0.248988 1 0 1.000000
  0 -9.160105 5.046480 5.000000 0.000000 0.000000 1.000000 0.353029 0.259531 1 0 1.000000
  0 -9.160105 9.460875 5.000000 0.000000 0.000000 1.000000 0.353029 0.383266 1 0 1.000000
walllight_sheet
  0 12.031216 8.935271 4.119174 0.000000 -1.000000 0.000000 0.460905 0.149359 1 0 1.000000
  0 12.739361 8.935271 4.528020 0.000000 -1.000000 0.000000 0.437485 0.189925 1 0 1.000000
  0 12.267264 8.935271 4.528020 0.000000 -1.000000 0.000000 0.437485 0.162881 1 0 1.000000
walllight_sheet
  0 12.031216 8.935271 4.119174 0.000000 -1.000000 0.000000 0.460905 0.149359 1 0 1.000000
  0 12.975409 8.935271 4.119174 0.000000 -1.000000 0.000000 0.460905 0.203446 1 0 1.000000
  0 12.739361 8.935271 4.528020 0.000000 -1.000000 0.000000 0.437485 0.189925 1 0 1.000000
walllight_sheet
  0 12.031216 8.935271 4.119174 0.000000 -1.000000 0.000000 0.460905 0.149359 1 0 1.000000
  0 12.739361 8.935271 3.710325 0.000000 -1.000000 0.000000 0.484326 0.189925 1 0 1.000000
  0 12.975409 8.935271 4.119174 0.000000 -1.000000 0.000000 0.460905 0.203446 1 0 1.000000
walllight_sheet
  0 12.031216 8.935271 4.119174 0.000000 -1.000000 0.000000 0.460905 0.149359 1 0 1.000000
  0 12.267264 8.935271 3.710325 0.000000 -1.000000 0.000000 0.484326 0.162881 1 0 1.000000
  0 12.739361 8.935271 3.710325 0.000000 -1.000000 0.000000 0.484326 0.189925 1 0 1.000000
walllight_sheet
  0 -12.240480 9.441459 -4.356303 0.866025 0.000000 -0.500000 0.708236 0.174675 1 0 1.000000
  0 -12.004433 8.935269 -3.947455 0.866025 0.000000 -0.500000 0.726313 0.194058 1 0 1.000000
  0 -12.240480 8.935269 -4.356303 0.866025 0.000000 -0.500000 0.708236 0.194058 1 0 1.000000
walllight_sheet
  0 -12.240480 9.441459 -4.356303 0.866025 0.000000 -0.500000 0.708236 0.174675 1 0 1.000000
  0 -12.004433 9.441459 -3.947455 0.866025 0.000000 -0.500000 0.726313 0.174675 1 0 1.000000
  0 -12.004433 8.935269 -3.947455 0.866025 0.000000 -0.500000 0.726313 0.194058 1 0 1.000000
walllight_sheet
  0 -12.712578 9.441459 -3.538608 -0.866025 0.000000 0.500000 0.674452 0.174675 1 0 1.000000
  0 -12.948626 8.935269 -3.947455 -0.866025 0.000000 0.500000 0.692529 0.194058 1 0 1.000000
  0 -12.712578 8.935269 -3.538608 -0.866025 0.000000 0.500000 0.674452 0.194058 1 0 1.000000
walllight_sheet
  0 -12.712578 9.441459 -3.538608 -0.866025 0.000000 0.500000 0.674452 0.174675 1 0 1.000000
  0 -12.948626 9.441459 -3.947455 -0.866025 0.000000 0.500000 0.692529 0.174675 1 0 1.000000
  0 -12.948626 8.935269 -3.947455 -0.866025 0.000000 0.500000 0.692529 0.194058 1 0 1.000000
walllight_sheet
  0 12.975409 9.441461 4.119174 0.866025 0.000000 0.500000 0.505533 0.174675 1 0 1.000000
  0 12.739361 8.935271 4.528020 0.866025 0.000000 0.500000 0.523610 0.194058 1 0 1.000000
  0 12.975409 8.935271 4.119174 0.866025 0.000000 0.500000 0.505533 0.194058 1 0 1.000000
walllight_sheet
  0 12.975409 9.441461 4.119174 0.866025 0.000000 0.500000 0.505533 0.174675 1 0 1.000000
  0 12.739361 9.441461 4.528020 0.866025 0.000000 0.500000 0.523610 0.174675 1 0 1.000000
  0 12.739361 8.935271 4.528020 0.866025 0.000000 0.500000 0.523610 0.194058 1 0 1.000000
walllight_sheet
  0 12.739361 9.441461 3.710325 0.866025 0.000000 -0.500000 0.887691 0.135611 1 0 1.000000
  0 12.975409 8.935271 4.119174 0.866025 0.000000 -0.500000 0.905768 0.154994 1 0 1.000000
  0 12.739361 8.935271 3.710325 0.866025 0.000000 -0.500000 0.887691 0.154994 1 0 1.000000
walllight_sheet
  0 12.739361 9.441461 3.710325 0.866025 0.000000 -0.500000 0.887691 0.135611 1 0 1.000000
  0 12.975409 9.441461 4.119174 0.866025 0.000000 -0.500000 0.905768 0.135611 1 0 1.000000
  0 12.975409 8.935271 4.119174 0.866025 0.000000 -0.500000 0.905768 0.154994 1 0 1.000000
walllight_sheet
  0 9.534999 6.764740 -2.842067 0.000000 0.455983 -0.889988 0.981007 0.058364 1 0 1.000000
  0 -9.534999 5.874999 -3.297923 0.000000 0.000000 -1.000000 0.516185 0.036629 1 0 1.000000
  0 -9.534999 6.764740 -2.842067 0.000000 0.455983 -0.889988 0.516185 0.058364 1 0 1.000000
walllight_sheet
  0 9.534999 6.764740 -2.842067 0.000000 0.455983 -0.889988 0.981007 0.058364 1 0 1.000000
  0 9.534999 5.875000 -3.297923 0.000000 0.000000 -1.000000 0.981007 0.036629 1 0 1.000000
  0 -9.534999 5.874999 -3.297923 0.000000 0.000000 -1.000000 0.516185 0.036629 1 0 1.000000
walllight_sheet
  0 9.534999 5.875000 -3.297923 0.000000 0.000000 -1.000000 0.981007 0.036629 1 0 1.000000
  0 -9.534999 4.985258 -2.842067 0.000000 -0.853224 -0.521545 0.516185 0.014991 1 0 1.000000
  0 -9.534999 5.874999 -3.297923 0.000000 0.000000 -1.000000 0.516185 0.036629 1 0 1.000000
walllight_sheet
  0 9.534999 5.875000 -3.297923 0.000000 0.000000 -1.000000 0.981007 0.036629 1 0 1.000000
  0 9.534999 4.985259 -2.842067 0.000000 -0.853224 -0.521545 0.981007 0.014991 1 0 1.000000
  0 -9.534999 4.985258 -2.842067 0.000000 -0.853224 -0.521545 0.516185 0.014991 1 0 1.000000
walllight_sheet
  0 9.534999 4.985259 -2.842067 0.000000 -0.853224 -0.521545 0.981007 0.014991 1 0 1.000000
  0 -9.534999 4.985258 -1.930356 0.000000 -1.000000 0.000000 0.516185 0.015088 1 0 1.000000
  0 -9.534999 4.985258 -2.842067 0.000000 -0.853224 -0.521545 0.516185 0.014991 1 0 1.000000
walllight_sheet
  0 9.534999 4.985259 -2.842067 0.000000 -0.853224 -0.521545 0.981007 0.014991 1 0 1.000000
  0 9.534999 4.985259 -1.930356 0.000000 -1.000000 0.000000 0.981007 0.015088 1 0 1.000000
  0 -9.534999 4.985258 -1.930356 0.000000 -1.000000 0.000000 0.516185 0.015088 1 0 1.000000
walllight_sheet
  0 -12.240480 9.441459 -3.538608 0.000000 0.000000 1.000000 0.539317 0.174675 1 0 1.000000
  0 -12.712578 8.935269 -3.538608 0.000000 0.000000 1.000000 0.557394 0.194058 1 0 1.000000
  0 -12.240480 8.935269 -3.538608 0.000000 0.000000 1.000000 0.539317 0.194058 1 0 1.000000
walllight_sheet
  0 -12.240480 9.441459 -3.538608 0.000000 0.000000 1.000000 0.539317 0.174675 1 0 1.000000
  0 -12.712578 9.441459 -3.538608 0.000000 0.000000 1.000000 0.557394 0.174675 1 0 1.000000
  0 -12.712578 8.935269 -3.538608 0.000000 0.000000 1.000000 0.557394 0.194058 1 0 1.000000
walllight_sheet
  0 12.883422 9.441461 -4.227440 0.993816 0.000000 -0.111035 0.573101 0.174675 1 0 1.000000
  0 12.935842 8.935271 -3.758264 0.993816 0.000000 -0.111035 0.591178 0.194058 1 0 1.000000
  0 12.883422 8.935271 -4.227440 0.993816 0.000000 -0.111035 0.573101 0.194058 1 0 1.000000
walllight_sheet
  0 12.883422 9.441461 -4.227440 0.993816 0.000000 -0.111035 0.573101 0.174675 1 0 1.000000
  0 12.935842 9.441461 -3.758264 0.993816 0.000000 -0.111035 0.591178 0.174675 1 0 1.000000
  0 12.935842 8.935271 -3.758264 0.993816 0.000000 -0.111035 0.591178 0.194058 1 0 1.000000
walllight_sheet
  0 -12.948626 9.441459 -3.947455 -0.866025 0.000000 -0.500000 0.606884 0.174675 1 0 1.000000
  0 -12.712578 8.935269 -4.356303 -0.866025 0.000000 -0.500000 0.624961 0.194058 1 0 1.000000
  0 -12.948626 8.935269 -3.947455 -0.866025 0.000000 -0.500000 0.606884 0.194058 1 0 1.000000
walllight_sheet
  0 -12.948626 9.441459 -3.947455 -0.866025 0.000000 -0.500000 0.606884 0.174675 1 0 1.000000
  0 -12.712578 9.441459 -4.356303 -0.866025 0.000000 -0.500000 0.624961 0.174675 1 0 1.000000
  0 -12.712578 8.935269 -4.356303 -0.866025 0.000000 -0.500000 0.624961 0.194058 1 0 1.000000
walllight_sheet
  0 12.267264 9.441461 3.710325 0.000000 0.000000 -1.000000 0.640668 0.174675 1 0 1.000000
  0 12.739361 8.935271 3.710325 0.000000 0.000000 -1.000000 0.658745 0.194058 1 0 1.000000
  0 12.267264 8.935271 3.710325 0.000000 0.000000 -1.000000 0.640668 0.194058 1 0 1.000000
walllight_sheet
  0 12.267264 9.441461 3.710325 0.000000 0.000000 -1.000000 0.640668 0.174675 1 0 1.000000
  0 12.739361 9.441461 3.710325 0.000000 0.000000 -1.000000 0.658745 0.174675 1 0 1.000000
  0 12.739361 8.935271 3.710325 0.000000 0.000000 -1.000000 0.658745 0.194058 1 0 1.000000
walllight_sheet
  0 12.739361 9.441461 4.528020 0.000000 0.000000 1.000000 0.850880 0.135459 1 0 1.000000
  0 12.267264 8.935271 4.528020 0.000000 0.000000 1.000000 0.868958 0.154841 1 0 1.000000
  0 12.739361 8.935271 4.528020 0.000000 0.000000 1.000000 0.850880 0.154841 1 0 1.000000
walllight_sheet
  0 12.739361 9.441461 4.528020 0.000000 0.000000 1.000000 0.850880 0.135459 1 0 1.000000
  0 12.267264 9.441461 4.528020 0.000000 0.000000 1.000000 0.868958 0.135459 1 0 1.000000
  0 12.267264 8.935271 4.528020 0.000000 0.000000 1.000000 0.868958 0.154841 1 0 1.000000
walllight_sheet
  0 12.031216 9.441461 4.119174 -0.866025 0.000000 -0.500000 0.817097 0.135459 1 0 1.000000
  0 12.267264 8.935271 3.710325 -0.866025 0.000000 -0.500000 0.835174 0.154841 1 0 1.000000
  0 12.031216 8.935271 4.119174 -0.866025 0.000000 -0.500000 0.817097 0.154841 1 0 1.000000
walllight_sheet
  0 12.031216 9.441461 4.119174 -0.866025 0.000000 -0.500000 0.817097 0.135459 1 0 1.000000
  0 12.267264 9.441461 3.710325 -0.866025 0.000000 -0.500000 0.835174 0.135459 1 0 1.000000
  0 12.267264 8.935271 3.710325 -0.866025 0.000000 -0.500000 0.835174 0.154841 1 0 1.000000
walllight_sheet
  0 12.450893 9.441461 -4.416633 0.400749 0.000000 -0.916188 0.783313 0.135459 1 0 1.000000
  0 12.883422 8.935271 -4.227440 0.400749 0.000000 -0.916188 0.801390 0.154841 1 0 1.000000
  0 12.450893 8.935271 -4.416633 0.400749 0.000000 -0.916188 0.783313 0.154841 1 0 1.000000
walllight_sheet
  0 12.450893 9.441461 -4.416633 0.400749 0.000000 -0.916188 0.783313 0.135459 1 0 1.000000
  0 12.883422 9.441461 -4.227440 0.400749 0.000000 -0.916188 0.801390 0.135459 1 0 1.000000
  0 12.883422 8.935271 -4.227440 0.400749 0.000000 -0.916188 0.801390 0.154841 1 0 1.000000
walllight_sheet
  0 12.555732 9.441461 -3.478277 -0.400749 0.000000 0.916188 0.749529 0.135459 1 0 1.000000
  0 12.123202 8.935271 -3.667470 -0.400749 0.000000 0.916188 0.767606 0.154841 1 0 1.000000
  0 12.555732 8.935271 -3.478277 -0.400749 0.000000 0.916188 0.749529 0.154841 1 0 1.000000
walllight_sheet
  0 12.555732 9.441461 -3.478277 -0.400749 0.000000 0.916188 0.749529 0.135459 1 0 1.000000
  0 12.123202 9.441461 -3.667470 -0.400749 0.000000 0.916188 0.767606 0.135459 1 0 1.000000
  0 12.123202 8.935271 -3.667470 -0.400749 0.000000 0.916188 0.767606 0.154841 1 0 1.000000
walllight_sheet
  0 12.267264 9.441461 4.528020 -0.866025 0.000000 0.500000 0.715745 0.135459 1 0 1.000000
  0 12.031216 8.935271 4.119174 -0.866025 0.000000 0.500000 0.733823 0.154841 1 0 1.000000
  0 12.267264 8.935271 4.528020 -0.866025 0.000000 0.500000 0.715745 0.154841 1 0 1.000000
walllight_sheet
  0 12.267264 9.441461 4.528020 -0.866025 0.000000 0.500000 0.715745 0.135459 1 0 1.000000
  0 12.031216 9.441461 4.119174 -0.866025 0.000000 0.500000 0.733823 0.135459 1 0 1.000000
  0 12.031216 8.935271 4.119174 -0.866025 0.000000 0.500000 0.733823 0.154841 1 0 1.000000
walllight_sheet
  0 12.070784 9.441461 -4.136648 -0.593068 0.000000 -0.805152 0.681961 0.135459 1 0 1.000000
  0 12.450893 8.935271 -4.416633 -0.593068 0.000000 -0.805152 0.700039 0.154841 1 0 1.000000
  0 12.070784 8.935271 -4.136648 -0.593068 0.000000 -0.805152 0.681961 0.154841 1 0 1.000000
walllight_sheet
  0 12.070784 9.441461 -4.136648 -0.593068 0.000000 -0.805152 0.681961 0.135459 1 0 1.000000
  0 12.450893 9.441461 -4.416633 -0.593068 0.000000 -0.805152 0.700039 0.135459 1 0 1.000000
  0 12.450893 8.935271 -4.416633 -0.593068 0.000000 -0.805152 0.700039 0.154841 1 0 1.000000
walllight_sheet
  0 12.123202 9.441461 -3.667470 -0.993816 0.000000 0.111035 0.648178 0.135459 1 0 1.000000
  0 12.070784 8.935271 -4.136648 -0.993816 0.000000 0.111035 0.666255 0.154841 1 0 1.000000
  0 12.123202 8.935271 -3.667470 -0.993816 0.000000 0.111035 0.648178 0.154841 1 0 1.000000
walllight_sheet
  0 12.123202 9.441461 -3.667470 -0.993816 0.000000 0.111035 0.648178 0.135459 1 0 1.000000
  0 12.070784 9.441461 -4.136648 -0.993816 0.000000 0.111035 0.666255 0.135459 1 0 1.000000
  0 12.070784 8.935271 -4.136648 -0.993816 0.000000 0.111035 0.666255 0.154841 1 0 1.000000
walllight_sheet
  0 -12.004433 9.441459 4.119174 0.866025 0.000000 0.500000 0.614394 0.135459 1 0 1.000000
  0 -12.240480 8.935269 4.528020 0.866025 0.000000 0.500000 0.632471 0.154841 1 0 1.000000
  0 -12.004433 8.935269 4.119174 0.866025 0.000000 0.500000 0.614394 0.154841 1 0 1.000000
walllight_sheet
  0 -12.004433 9.441459 4.119174 0.866025 0.000000 0.500000 0.614394 0.135459 1 0 1.000000
  0 -12.240480 9.441459 4.528020 0.866025 0.000000 0.500000 0.632471 0.135459 1 0 1.000000
  0 -12.240480 8.935269 4.528020 0.866025 0.000000 0.500000 0.632471 0.154841 1 0 1.000000
walllight_sheet
  0 -9.534999 6.764740 2.572766 0.000000 0.455983 0.889988 0.516185 0.058940 1 0 1.000000
  0 9.534999 5.875000 3.028622 0.000000 0.000000 1.000000 0.981007 0.037302 1 0 1.000000
  0 9.534999 6.764740 2.572766 0.000000 0.455983 0.889988 0.981007 0.058940 1 0 1.000000
walllight_sheet
  0 -9.534999 6.764740 2.572766 0.000000 0.455983 0.889988 0.516185 0.058940 1 0 1.000000
  0 -9.534999 5.874999 3.028622 0.000000 0.000000 1.000000 0.516185 0.037302 1 0 1.000000
  0 9.534999 5.875000 3.028622 0.000000 0.000000 1.000000 0.981007 0.037302 1 0 1.000000
walllight_sheet
  0 -9.534999 5.874999 3.028622 0.000000 0.000000 1.000000 0.516185 0.037302 1 0 1.000000
  0 9.534999 4.985259 2.572766 0.000000 -0.853224 0.521545 0.981007 0.015567 1 0 1.000000
  0 9.534999 5.875000 3.028622 0.000000 0.000000 1.000000 0.981007 0.037302 1 0 1.000000
walllight_sheet
  0 -9.534999 5.874999 3.028622 0.000000 0.000000 1.000000 0.516185 0.037302 1 0 1.000000
  0 -9.534999 4.985258 2.572766 0.000000 -0.853224 0.521545 0.516185 0.015567 1 0 1.000000
  0 9.534999 4.985259 2.572766 0.000000 -0.853224 0.521545 0.981007 0.015567 1 0 1.000000
walllight_sheet
  0 -9.534999 4.985258 2.572766 0.000000 -0.853224 0.521545 0.516185 0.015567 1 0 1.000000
  0 9.534999 4.985259 1.661054 0.000000 -1.000000 0.000000 0.981007 0.015470 1 0 1.000000
  0 9.534999 4.985259 2.572766 0.000000 -0.853224 0.521545 0.981007 0.015567 1 0 1.000000
walllight_sheet
  0 -9.534999 4.985258 2.572766 0.000000 -0.853224 0.521545 0.516185 0.015567 1 0 1.000000
  0 -9.534999 4.985258 1.661054 0.000000 -1.000000 0.000000 0.516185 0.015470 1 0 1.000000
  0 9.534999 4.985259 1.661054 0.000000 -1.000000 0.000000 0.981007 0.015470 1 0 1.000000
walllight_sheet
  0 12.935842 9.441461 -3.758264 0.593068 0.000000 0.805152 0.580610 0.135459 1 0 1.000000
  0 12.555732 8.935271 -3.478277 0.593068 0.000000 0.805152 0.598687 0.154841 1 0 1.000000
  0 12.935842 8.935271 -3.758264 0.593068 0.000000 0.805152 0.580610 0.154841 1 0 1.000000
walllight_sheet
  0 12.935842 9.441461 -3.758264 0.593068 0.000000 0.805152 0.580610 0.135459 1 0 1.000000
  0 12.555732 9.441461 -3.478277 0.593068 0.000000 0.805152 0.598687 0.135459 1 0 1.000000
  0 12.555732 8.935271 -3.478277 0.593068 0.000000 0.805152 0.598687 0.154841 1 0 1.000000
walllight_sheet
  0 -12.240480 9.441459 3.710325 0.866025 0.000000 -0.500000 0.546826 0.135459 1 0 1.000000
  0 -12.004433 8.935269 4.119174 0.866025 0.000000 -0.500000 0.564903 0.154841 1 0 1.000000
  0 -12.240480 8.935269 3.710325 0.866025 0.000000 -0.500000 0.546826 0.154841 1 0 1.000000
walllight_sheet
  0 -12.240480 9.441459 3.710325 0.866025 0.000000 -0.500000 0.546826 0.135459 1 0 1.000000
  0 -12.004433 9.441459 4.119174 0.866025 0.000000 -0.500000 0.564903 0.135459 1 0 1.000000
  0 -12.004433 8.935269 4.119174 0.866025 0.000000 -0.500000 0.564903 0.154841 1 0 1.000000
walllight_sheet
  0 -12.004433 9.441459 -3.947455 0.866025 0.000000 0.500000 0.910939 0.174675 1 0 1.000000
  0 -12.240480 8.935269 -3.538608 0.866025 0.000000 0.500000 0.929016 0.194058 1 0 1.000000
  0 -12.004433 8.935269 -3.947455 0.866025 0.000000 0.500000 0.910939 0.194058 1 0 1.000000
walllight_sheet
  0 -12.004433 9.441459 -3.947455 0.866025 0.000000 0.500000 0.910939 0.174675 1 0 1.000000
  0 -12.240480 9.441459 -3.538608 0.866025 0.000000 0.500000 0.929016 0.174675 1 0 1.000000
  0 -12.240480 8.935269 -3.538608 0.866025 0.000000 0.500000 0.929016 0.194058 1 0 1.000000
walllight_sheet
  0 -12.712578 9.441459 -4.356303 0.000000 0.000000 -1.000000 0.877155 0.174675 1 0 1.000000
  0 -12.240480 8.935269 -4.356303 0.000000 0.000000 -1.000000 0.895232 0.194058 1 0 1.000000
  0 -12.712578 8.935269 -4.356303 0.000000 0.000000 -1.000000 0.877155 0.194058 1 0 1.000000
walllight_sheet
  0 -12.712578 9.441459 -4.356303 0.000000 0.000000 -1.000000 0.877155 0.174675 1 0 1.000000
  0 -12.240480 9.441459 -4.356303 0.000000 0.000000 -1.000000 0.895232 0.174675 1 0 1.000000
  0 -12.240480 8.935269 -4.356303 0.000000 0.000000 -1.000000 0.895232 0.194058 1 0 1.000000
walllight_sheet
  0 -12.712578 9.441459 3.710325 0.000000 0.000000 -1.000000 0.843371 0.174675 1 0 1.000000
  0 -12.240480 8.935269 3.710325 0.000000 0.000000 -1.000000 0.861448 0.194058 1 0 1.000000
  0 -12.712578 8.935269 3.710325 0.000000 0.000000 -1.000000 0.843371 0.194058 1 0 1.000000
walllight_sheet
  0 -12.712578 9.441459 3.710325 0.000000 0.000000 -1.000000 0.843371 0.174675 1 0 1.000000
  0 -12.240480 9.441459 3.710325 0.000000 0.000000 -1.000000 0.861448 0.174675 1 0 1.000000
  0 -12.240480 8.935269 3.710325 0.000000 0.000000 -1.000000 0.861448 0.194058 1 0 1.000000
walllight_sheet
  0 -12.240480 9.441459 4.528020 0.000000 0.000000 1.000000 0.809587 0.174675 1 0 1.000000
  0 -12.712578 8.935269 4.528020 0.000000 0.000000 1.000000 0.827664 0.194058 1 0 1.000000
  0 -12.240480 8.935269 4.528020 0.000000 0.000000 1.000000 0.809587 0.194058 1 0 1.000000
walllight_sheet
  0 -12.240480 9.441459 4.528020 0.000000 0.000000 1.000000 0.809587 0.174675 1 0 1.000000
  0 -12.712578 9.441459 4.528020 0.000000 0.000000 1.000000 0.827664 0.174675 1 0 1.000000
  0 -12.712578 8.935269 4.528020 0.000000 0.000000 1.000000 0.827664 0.194058 1 0 1.000000
walllight_sheet
  0 -12.948626 9.441459 4.119174 -0.866025 0.000000 -0.500000 0.775803 0.174675 1 0 1.000000
  0 -12.712578 8.935269 3.710325 -0.866025 0.000000 -0.500000 0.793881 0.194058 1 0 1.000000
  0 -12.948626 8.935269 4.119174 -0.866025 0.000000 -0.500000 0.775803 0.194058 1 0 1.000000
walllight_sheet
  0 -12.948626 9.441459 4.119174 -0.866025 0.000000 -0.500000 0.775803 0.174675 1 0 1.000000
  0 -12.712578 9.441459 3.710325 -0.866025 0.000000 -0.500000 0.793881 0.174675 1 0 1.000000
  0 -12.712578 8.935269 3.710325 -0.866025 0.000000 -0.500000 0.793881 0.194058 1 0 1.000000
walllight_sheet
  0 -12.712578 9.441459 4.528020 -0.866025 0.000000 0.500000 0.742020 0.174675 1 0 1.000000
  0 -12.948626 8.935269 4.119174 -0.866025 0.000000 0.500000 0.760097 0.194058 1 0 1.000000
  0 -12.712578 8.935269 4.528020 -0.866025 0.000000 0.500000 0.742020 0.194058 1 0 1.000000
walllight_sheet
  0 -12.712578 9.441459 4.528020 -0.866025 0.000000 0.500000 0.742020 0.174675 1 0 1.000000
  0 -12.948626 9.441459 4.119174 -0.866025 0.000000 0.500000 0.760097 0.174675 1 0 1.000000
  0 -12.948626 8.935269 4.119174 -0.866025 0.000000 0.500000 0.760097 0.194058 1 0 1.000000
walllight_sheet
  0 -10.000000 9.128199 5.000000 -0.121864 -0.992547 0.000000 0.870653 0.996775 1 0 1.000000
  0 -13.387687 9.544134 -5.000000 -0.121864 -0.992547 0.000000 0.744130 0.623298 1 0 1.000000
  0 -10.000000 9.128199 -5.000000 -0.121864 -0.992547 0.000000 0.870653 0.623298 1 0 1.000000
walllight_sheet
  0 -10.000000 9.128199 5.000000 -0.121864 -0.992547 0.000000 0.870653 0.996775 1 0 1.000000
  0 -13.387687 9.544134 5.000000 -0.121864 -0.992547 0.000000 0.744130 0.996775 1 0 1.000000
  0 -13.387687 9.544134 -5.000000 -0.121864 -0.992547 0.000000 0.744130 0.623298 1 0 1.000000
walllight_sheet
  0 -10.000000 9.128199 -5.000000 0.000000 0.000000 -1.000000 0.329487 0.372718 1 0 1.000000
  0 -13.387687 9.995804 -5.000000 0.000000 0.000000 -1.000000 0.234529 0.397037 1 0 1.000000
  0 -10.000000 9.992953 -5.000000 0.000000 0.000000 -1.000000 0.329487 0.396957 1 0 1.000000
walllight_sheet
  0 -10.000000 9.128199 -5.000000 0.000000 0.000000 -1.000000 0.329487 0.372718 1 0 1.000000
  0 -13.387687 9.544134 -5.000000 0.000000 0.000000 -1.000000 0.234529 0.384377 1 0 1.000000
  0 -13.387687 9.995804 -5.000000 0.000000 0.000000 -1.000000 0.234529 0.397037 1 0 1.000000
walllight_sheet
  0 13.387687 9.995806 -5.000000 1.000000 0.000000 0.000000 0.282679 0.065112 1 0 1.000000
  0 13.387687 9.544136 5.000000 1.000000 0.000000 0.000000 0.269415 0.358766 1 0 1.000000
  0 13.387687 9.544136 -5.000000 1.000000 0.000000 0.000000 0.269415 0.065112 1 0 1.000000
walllight_sheet
  0 13.387687 9.995806 -5.000000 1.000000 0.000000 0.000000 0.282679 0.065112 1 0 1.000000
  0 13.387687 9.995806 5.000000 1.000000 0.000000 0.000000 0.282679 0.358766 1 0 1.000000
  0 13.387687 9.544136 5.000000 1.000000 0.000000 0.000000 0.269415 0.358766 1 0 1.000000
walllight_sheet
  0 10.000000 9.128199 -5.000000 0.121864 -0.992547 0.000000 0.873478 0.623298 1 0 1.000000
  0 13.387687 9.544136 5.000000 0.121864 -0.992547 0.000000 1.000000 0.996775 1 0 1.000000
  0 10.000000 9.128199 5.000000 0.121864 -0.992547 0.000000 0.873478 0.996775 1 0 1.000000
walllight_sheet
  0 10.000000 9.128199 -5.000000 0.121864 -0.992547 0.000000 0.873478 0.623298 1 0 1.000000
  0 13.387687 9.544136 -5.000000 0.121864 -0.992547 0.000000 1.000000 0.623298 1 0 1.000000
  0 13.387687 9.544136 5.000000 0.121864 -0.992547 0.000000 1.000000 0.996775 1 0 1.000000
walllight_sheet
  0 10.000000 9.128199 5.000000 0.000000 0.000000 1.000000 0.890091 0.373941 1 0 1.000000
  0 13.387687 9.995806 5.000000 0.000000 0.000000 1.000000 0.985048 0.398260 1 0 1.000000
  0 10.000000 9.992953 5.000000 0.000000 0.000000 1.000000 0.890091 0.398180 1 0 1.000000
walllight_sheet
  0 10.000000 9.128199 5.000000 0.000000 0.000000 1.000000 0.890091 0.373941 1 0 1.000000
  0 13.387687 9.544136 5.000000 0.000000 0.000000 1.000000 0.985048 0.385600 1 0 1.000000
  0 13.387687 9.995806 5.000000 0.000000 0.000000 1.000000 0.985048 0.398260 1 0 1.000000
walllight_sheet
  0 10.000000 9.992953 -5.000000 0.000000 0.000000 -1.000000 0.890091 0.396957 1 0 1.000000
  0 13.387687 9.544136 -5.000000 0.000000 0.000000 -1.000000 0.985048 0.384377 1 0 1.000000
  0 10.000000 9.128199 -5.000000 0.000000 0.000000 -1.000000 0.890091 0.372718 1 0 1.000000
walllight_sheet
  0 10.000000 9.992953 -5.000000 0.000000 0.000000 -1.000000 0.890091 0.396957 1 0 1.000000
  0 13.387687 9.995806 -5.000000 0.000000 0.000000 -1.000000 0.985048 0.397037 1 0 1.000000
  0 13.387687 9.544136 -5.000000 0.000000 0.000000 -1.000000 0.985048 0.384377 1 0 1.000000
walllight_sheet
  0 10.000000 10.000000 5.000000 1.000000 0.000000 0.000000 0.976620 0.357573 1 0 1.000000
  0 10.000000 9.992953 -5.000000 1.000000 0.000000 0.000000 0.976535 0.237815 1 0 1.000000
  0 10.000000 10.000000 -5.000000 1.000000 0.000000 0.000000 0.976620 0.237815 1 0 1.000000
walllight_sheet
  0 10.000000 10.000000 5.000000 1.000000 0.000000 0.000000 0.976620 0.357573 1 0 1.000000
  0 10.000000 9.992953 5.000000 1.000000 0.000000 0.000000 0.976535 0.357573 1 0 1.000000
  0 10.000000 9.992953 -5.000000 1.000000 0.000000 0.000000 0.976535 0.237815 1 0 1.000000
walllight_sheet
  0 -13.387687 9.995804 -5.000000 -1.000000 0.000000 0.000000 0.257956 0.358766 1 0 1.000000
  0 -13.387687 9.544134 5.000000 -1.000000 0.000000 0.000000 0.244693 0.065112 1 0 1.000000
  0 -13.387687 9.995804 5.000000 -1.000000 0.000000 0.000000 0.257956 0.065112 1 0 1.000000
walllight_sheet
  0 -13.387687 9.995804 -5.000000 -1.000000 0.000000 0.000000 0.257956 0.358766 1 0 1.000000
  0 -13.387687 9.544134 -5.000000 -1.000000 0.000000 0.000000 0.244693 0.358766 1 0 1.000000
  0 -13.387687 9.544134 5.000000 -1.000000 0.000000 0.000000 0.244693 0.065112 1 0 1.000000
walllight_sheet
  0 -10.000000 4.670351 5.000000 -1.000000 0.000000 0.000000 0.003662 0.621485 1 0 1.000000
  0 -10.000000 9.128199 -5.000000 -1.000000 0.000000 0.000000 0.230662 0.112270 1 0 1.000000
  0 -10.000000 4.670351 -5.000000 -1.000000 0.000000 0.000000 0.003662 0.112270 1 0 1.000000
walllight_sheet
  0 -10.000000 4.670351 5.000000 -1.000000 0.000000 0.000000 0.003662 0.621485 1 0 1.000000
  0 -10.000000 9.128199 5.000000 -1.000000 0.000000 0.000000 0.230662 0.621485 1 0 1.000000
  0 -10.000000 9.128199 -5.000000 -1.000000 0.000000 0.000000 0.230662 0.112270 1 0 1.000000
walllight_sheet
  0 -10.000000 10.000000 -5.000000 -1.000000 0.000000 0.000000 0.976620 0.237815 1 0 1.000000
  0 -10.000000 9.992953 5.000000 -1.000000 0.000000 0.000000 0.976535 0.357573 1 0 1.000000
  0 -10.000000 10.000000 5.000000 -1.000000 0.000000 0.000000 0.976620 0.357573 1 0 1.000000
walllight_sheet
  0 -10.000000 10.000000 -5.000000 -1.000000 0.000000 0.000000 0.976620 0.237815 1 0 1.000000
  0 -10.000000 9.992953 -5.000000 -1.000000 0.000000 0.000000 0.976535 0.237815 1 0 1.000000
  0 -10.000000 9.992953 5.000000 -1.000000 0.000000 0.000000 0.976535 0.357573 1 0 1.000000
walllight_sheet
  0 -4.580052 3.785322 -4.564467 0.000000 1.000000 0.000000 0.645191 0.453867 1 0 1.000000
  0 4.580052 3.785322 -0.780054 0.000000 1.000000 0.000000 0.878948 0.518653 1 0 1.000000
  0 4.580052 3.785322 -4.564467 0.000000 1.000000 0.000000 0.879133 0.454544 1 0 1.000000
walllight_sheet
  0 -4.580052 3.785322 -4.564467 0.000000 1.000000 0.000000 0.645191 0.453867 1 0 1.000000
  0 -4.580052 3.785322 -0.780054 0.000000 1.000000 0.000000 0.645004 0.517976 1 0 1.000000
  0 4.580052 3.785322 -0.780054 0.000000 1.000000 0.000000 0.878948 0.518653 1 0 1.000000
walllight_sheet
  0 4.580052 3.785322 -4.564467 -0.224905 0.973258 0.046767 0.879133 0.454544 1 0 1.000000
  0 9.160105 4.657814 -0.696020 -0.224905 0.973258 0.046767 0.918445 0.520415 1 0 1.000000
  0 9.160105 5.046481 -5.000000 -0.224905 0.973258 0.046767 0.918493 0.447505 1 0 1.000000
walllight_sheet
  0 4.580052 3.785322 -4.564467 -0.224905 0.973258 0.046767 0.879133 0.454544 1 0 1.000000
  0 4.580052 3.785322 -0.780054 -0.224905 0.973258 0.046767 0.878948 0.518653 1 0 1.000000
  0 9.160105 4.657814 -0.696020 -0.224905 0.973258 0.046767 0.918445 0.520415 1 0 1.000000
walllight_sheet
  0 9.160105 5.046481 -5.000000 -1.000000 0.000000 0.000000 0.918493 0.447505 1 0 1.000000
  0 9.160105 9.460875 -0.696020 -1.000000 0.000000 0.000000 0.977341 0.520415 1 0 1.000000
  0 9.160105 9.460875 -5.000000 -1.000000 0.000000 0.000000 0.977274 0.447505 1 0 1.000000
walllight_sheet
  0 9.160105 5.046481 -5.000000 -1.000000 0.000000 0.000000 0.918493 0.447505 1 0 1.000000
  0 9.160105 4.657814 -0.696020 -1.000000 0.000000 0.000000 0.918445 0.520415 1 0 1.000000
  0 9.160105 9.460875 -0.696020 -1.000000 0.000000 0.000000 0.977341 0.520415 1 0 1.000000
walllight_sheet
  0 9.160105 9.460875 -5.000000 0.000000 -1.000000 0.000000 0.253956 0.447505 1 0 1.000000
  0 -9.160105 9.460875 -0.696020 0.000000 -1.000000 0.000000 0.546513 0.519061 1 0 1.000000
  0 -9.160105 9.460875 -5.000000 0.000000 -1.000000 0.000000 0.546446 0.446151 1 0 1.000000
walllight_sheet
  0 9.160105 9.460875 -5.000000 0.000000 -1.000000 0.000000 0.253956 0.447505 1 0 1.000000
  0 9.160105 9.460875 -0.696020 0.000000 -1.000000 0.000000 0.254023 0.520415 1 0 1.000000
  0 -9.160105 9.460875 -0.696020 0.000000 -1.000000 0.000000 0.546513 0.519061 1 0 1.000000
walllight_sheet
  0 -9.160105 9.460875 -5.000000 1.000000 0.000000 0.000000 0.546446 0.446151 1 0 1.000000
  0 -9.160105 4.657813 -0.696020 1.000000 0.000000 0.000000 0.605446 0.519061 1 0 1.000000
  0 -9.160105 5.046480 -5.000000 1.000000 0.000000 0.000000 0.605494 0.446151 1 0 1.000000
walllight_sheet
  0 -9.160105 9.460875 -5.000000 1.000000 0.000000 0.000000 0.546446 0.446151 1 0 1.000000
  0 -9.160105 9.460875 -0.696020 1.000000 0.000000 0.000000 0.546513 0.519061 1 0 1.000000
  0 -9.160105 4.657813 -0.696020 1.000000 0.000000 0.000000 0.605446 0.519061 1 0 1.000000
walllight_sheet
  0 9.160105 9.460875 5.000000 -1.000000 0.000000 0.000000 0.977429 0.616908 1 0 1.000000
  0 9.160105 4.657814 0.696020 -1.000000 0.000000 0.000000 0.918429 0.543997 1 0 1.000000
  0 9.160105 5.046481 5.000000 -1.000000 0.000000 0.000000 0.918381 0.616908 1 0 1.000000
walllight_sheet
  0 9.160105 9.460875 5.000000 -1.000000 0.000000 0.000000 0.977429 0.616908 1 0 1.000000
  0 9.160105 9.460875 0.696020 -1.000000 0.000000 0.000000 0.977363 0.543997 1 0 1.000000
  0 9.160105 4.657814 0.696020 -1.000000 0.000000 0.000000 0.918429 0.543997 1 0 1.000000
walllight_sheet
  0 9.160105 5.046481 5.000000 -0.224905 0.973258 -0.046767 0.918381 0.616908 1 0 1.000000
  0 4.580052 3.785322 0.780054 -0.224905 0.973258 -0.046767 0.878871 0.545082 1 0 1.000000
  0 4.580052 3.785322 4.564467 -0.224905 0.973258 -0.046767 0.878685 0.609191 1 0 1.000000
walllight_sheet
  0 9.160105 5.046481 5.000000 -0.224905 0.973258 -0.046767 0.918381 0.616908 1 0 1.000000
  0 9.160105 4.657814 0.696020 -0.224905 0.973258 -0.046767 0.918429 0.543997 1 0 1.000000
  0 4.580052 3.785322 0.780054 -0.224905 0.973258 -0.046767 0.878871 0.545082 1 0 1.000000
walllight_sheet
  0 4.580052 3.785322 4.564467 0.000000 1.000000 0.000000 0.878685 0.609191 1 0 1.000000
  0 -4.580052 3.785322 0.780054 0.000000 1.000000 0.000000 0.644927 0.544405 1 0 1.000000
  0 -4.580052 3.785322 4.564467 0.000000 1.000000 0.000000 0.644742 0.608514 1 0 1.000000
walllight_sheet
  0 4.580052 3.785322 4.564467 0.000000 1.000000 0.000000 0.878685 0.609191 1 0 1.000000
  0 4.580052 3.785322 0.780054 0.000000 1.000000 0.000000 0.878871 0.545082 1 0 1.000000
  0 -4.580052 3.785322 0.780054 0.000000 1.000000 0.000000 0.644927 0.544405 1 0 1.000000
walllight_sheet
  0 -4.580052 3.785322 4.564467 0.224905 0.973258 -0.046767 0.644742 0.608514 1 0 1.000000
  0 -9.160105 4.657813 0.696020 0.224905 0.973258 -0.046767 0.605430 0.542643 1 0 1.000000
  0 -9.160105 5.046480 5.000000 0.224905 0.973258 -0.046767 0.605382 0.615553 1 0 1.000000
walllight_sheet
  0 -4.580052 3.785322 4.564467 0.224905 0.973258 -0.046767 0.644742 0.608514 1 0 1.000000
  0 -4.580052 3.785322 0.780054 0.224905 0.973258 -0.046767 0.644927 0.544405 1 0 1.000000
  0 -9.160105 4.657813 0.696020 0.224905 0.973258 -0.046767 0.605430 0.542643 1 0 1.000000
walllight_sheet
  0 -9.160105 5.046480 5.000000 1.000000 0.000000 0.000000 0.605382 0.615553 1 0 1.000000
  0 -9.160105 9.460875 0.696020 1.000000 0.000000 0.000000 0.546534 0.542643 1 0 1.000000
  0 -9.160105 9.460875 5.000000 1.000000 0.000000 0.000000 0.546601 0.615553 1 0 1.000000
walllight_sheet
  0 -9.160105 5.046480 5.000000 1.000000 0.000000 0.000000 0.605382 0.615553 1 0 1.000000
  0 -9.160105 4.657813 0.696020 1.000000 0.000000 0.000000 0.605430 0.542643 1 0 1.000000
  0 -9.160105 9.460875 0.696020 1.000000 0.000000 0.000000 0.546534 0.542643 1 0 1.000000
walllight_sheet
  0 -9.160105 9.460875 5.000000 0.000000 -1.000000 0.000000 0.546601 0.615553 1 0 1.000000
  0 9.160105 9.460875 0.696020 0.000000 -1.000000 0.000000 0.254044 0.543997 1 0 1.000000
  0 9.160105 9.460875 5.000000 0.000000 -1.000000 0.000000 0.254111 0.616908 1 0 1.000000
walllight_sheet
  0 -9.160105 9.460875 5.000000 0.000000 -1.000000 0.000000 0.546601 0.615553 1 0 1.000000
  0 -9.160105 9.460875 0.696020 0.000000 -1.000000 0.000000 0.546534 0.542643 1 0 1.000000
  0 9.160105 9.460875 0.696020 0.000000 -1.000000 0.000000 0.254044 0.543997 1 0 1.000000
walllight_sheet
  0 10.000000 4.670352 5.000000 -0.065372 -0.088769 0.993905 0.890091 0.248988 1 0 1.000000
  0 4.580052 3.785322 4.564467 -0.065372 -0.088769 0.993905 0.738169 0.224128 1 0 1.000000
  0 5.000000 3.233659 4.564467 -0.065372 -0.088769 0.993905 0.749940 0.208665 1 0 1.000000
walllight_sheet
  0 10.000000 4.670352 5.000000 -0.065372 -0.088769 0.993905 0.890091 0.248988 1 0 1.000000
  0 9.160105 5.046481 5.000000 -0.065372 -0.088769 0.993905 0.866548 0.259531 1 0 1.000000
  0 4.580052 3.785322 4.564467 -0.065372 -0.088769 0.993905 0.738169 0.224128 1 0 1.000000
walllight_sheet
  0 5.000000 3.233659 4.564467 0.000000 0.000000 1.000000 0.749940 0.208665 1 0 1.000000
  0 -4.580052 3.785322 4.564467 0.000000 0.000000 1.000000 0.481409 0.224128 1 0 1.000000
  0 -5.000000 3.233659 4.564467 0.000000 0.000000 1.000000 0.469638 0.208665 1 0 1.000000
walllight_sheet
  0 5.000000 3.233659 4.564467 0.000000 0.000000 1.000000 0.749940 0.208665 1 0 1.000000
  0 4.580052 3.785322 4.564467 0.000000 0.000000 1.000000 0.738169 0.224128 1 0 1.000000
  0 -4.580052 3.785322 4.564467 0.000000 0.000000 1.000000 0.481409 0.224128 1 0 1.000000
walllight_sheet
  0 -5.000000 3.233659 4.564467 0.065372 -0.088769 0.993905 0.469638 0.208665 1 0 1.000000
  0 -9.160105 5.046480 5.000000 0.065372 -0.088769 0.993905 0.353029 0.259531 1 0 1.000000
  0 -10.000000 4.670351 5.000000 0.065372 -0.088769 0.993905 0.329487 0.248988 1 0 1.000000
walllight_sheet
  0 -5.000000 3.233659 4.564467 0.065372 -0.088769 0.993905 0.469638 0.208665 1 0 1.000000
  0 -4.580052 3.785322 4.564467 0.065372 -0.088769 0.993905 0.481409 0.224128 1 0 1.000000
  0 -9.160105 5.046480 5.000000 0.065372 -0.088769 0.993905 0.353029 0.259531 1 0 1.000000
walllight_sheet
  0 -10.000000 4.670351 -5.000000 0.065372 -0.088769 -0.993905 0.329487 0.247765 1 0 1.000000
  0 -4.580052 3.785322 -4.564467 0.065372 -0.088769 -0.993905 0.481409 0.223011 1 0 1.000000
  0 -5.000000 3.233659 -4.564467 0.065372 -0.088769 -0.993905 0.469638 0.207548 1 0 1.000000
walllight_sheet
  0 -10.000000 4.670351 -5.000000 0.065372 -0.088769 -0.993905 0.329487 0.247765 1 0 1.000000
  0 -9.160105 5.046480 -5.000000 0.065372 -0.088769 -0.993905 0.353029 0.258308 1 0 1.000000
  0 -4.580052 3.785322 -4.564467 0.065372 -0.088769 -0.993905 0.481409 0.223011 1 0 1.000000
walllight_sheet
  0 -5.000000 3.233659 -4.564467 0.000000 0.000000 -1.000000 0.469638 0.207548 1 0 1.000000
  0 4.580052 3.785322 -4.564467 0.000000 0.000000 -1.000000 0.738169 0.223011 1 0 1.000000
  0 5.000000 3.233659 -4.564467 0.000000 0.000000 -1.000000 0.749940 0.207548 1 0 1.000000
walllight_sheet
  0 -5.000000 3.233659 -4.564467 0.000000 0.000000 -1.000000 0.469638 0.207548 1 0 1.000000
  0 -4.580052 3.785322 -4.564467 0.000000 0.000000 -1.000000 0.481409 0.223011 1 0 1.000000
  0 4.580052 3.785322 -4.564467 0.000000 0.000000 -1.000000 0.738169 0.223011 1 0 1.000000
walllight_sheet
  0 5.000000 3.233659 -4.564467 -0.065372 -0.088769 -0.993905 0.749940 0.207548 1 0 1.000000
  0 9.160105 5.046481 -5.000000 -0.065372 -0.088769 -0.993905 0.866548 0.258308 1 0 1.000000
  0 10.000000 4.670352 -5.000000 -0.065372 -0.088769 -0.993905 0.890091 0.247765 1 0 1.000000
walllight_sheet
  0 5.000000 3.233659 -4.564467 -0.065372 -0.088769 -0.993905 0.749940 0.207548 1 0 1.000000
  0 4.580052 3.785322 -4.564467 -0.065372 -0.088769 -0.993905 0.738169 0.223011 1 0 1.000000
  0 9.160105 5.046481 -5.000000 -0.065372 -0.088769 -0.993905 0.866548 0.258308 1 0 1.000000
walllight_sheet
  0 5.000000 3.233659 4.564467 0.276164 -0.961110 0.000000 0.554663 0.979699 1 0 1.000000
  0 10.000000 4.670352 -5.000000 0.276164 -0.961110 0.000000 0.738596 0.627855 1 0 1.000000
  0 10.000000 4.670352 5.000000 0.276164 -0.961110 0.000000 0.738596 0.995721 1 0 1.000000
walllight_sheet
  0 5.000000 3.233659 4.564467 0.276164 -0.961110 0.000000 0.554663 0.979699 1 0 1.000000
  0 5.000000 3.233659 -4.564467 0.276164 -0.961110 0.000000 0.554663 0.643877 1 0 1.000000
  0 10.000000 4.670352 -5.000000 0.276164 -0.961110 0.000000 0.738596 0.627855 1 0 1.000000
walllight_sheet
  0 -5.000000 3.233659 -4.564467 -0.276164 -0.961110 0.000000 0.186797 0.643877 1 0 1.000000
  0 -10.000000 4.670351 5.000000 -0.276164 -0.961110 0.000000 0.002864 0.995721 1 0 1.000000
  0 -10.000000 4.670351 -5.000000 -0.276164 -0.961110 0.000000 0.002864 0.627855 1 0 1.000000
walllight_sheet
  0 -5.000000 3.233659 -4.564467 -0.276164 -0.961110 0.000000 0.186797 0.643877 1 0 1.000000
  0 -5.000000 3.233659 4.564467 -0.276164 -0.961110 0.000000 0.186797 0.979699 1 0 1.000000
  0 -10.000000 4.670351 5.000000 -0.276164 -0.961110 0.000000 0.002864 0.995721 1 0 1.000000
walllight_sheet
  0 -5.000000 3.233659 -4.564467 0.000000 -1.000000 0.000000 0.186797 0.643877 1 0 1.000000
  0 5.000000 3.233659 4.564467 0.000000 -1.000000 0.000000 0.554663 0.979699 1 0 1.000000
  0 -5.000000 3.233659 4.564467 0.000000 -1.000000 0.000000 0.186797 0.979699 1 0 1.000000
walllight_sheet
  0 -5.000000 3.233659 -4.564467 0.000000 -1.000000 0.000000 0.186797 0.643877 1 0 1.000000
  0 5.000000 3.233659 -4.564467 0.000000 -1.000000 0.000000 0.554663 0.643877 1 0 1.000000
  0 5.000000 3.233659 4.564467 0.000000 -1.000000 0.000000 0.554663 0.979699 1 0 1.000000
walllight_sheet
  0 -9.160105 5.046480 -5.000000 0.224905 0.973258 0.046767 0.605494 0.446151 1 0 1.000000
  0 -4.580052 3.785322 -0.780054 0.224905 0.973258 0.046767 0.645004 0.517976 1 0 1.000000
  0 -4.580052 3.785322 -4.564467 0.224905 0.973258 0.046767 0.645191 0.453867 1 0 1.000000
walllight_sheet
  0 -9.160105 5.046480 -5.000000 0.224905 0.973258 0.046767 0.605494 0.446151 1 0 1.000000
  0 -9.160105 4.657813 -0.696020 0.224905 0.973258 0.046767 0.605446 0.519061 1 0 1.000000
  0 -4.580052 3.785322 -0.780054 0.224905 0.973258 0.046767 0.645004 0.517976 1 0 1.000000
walllight_sheet
  0 -10.000000 9.992953 5.000000 0.000000 0.000000 1.000000 0.329487 0.398180 1 0 1.000000
  0 -13.387687 9.544134 5.000000 0.000000 0.000000 1.000000 0.234529 0.385600 1 0 1.000000
  0 -10.000000 9.128199 5.000000 0.000000 0.000000 1.000000 0.329487 0.373941 1 0 1.000000
walllight_sheet
  0 -10.000000 9.992953 5.000000 0.000000 0.000000 1.000000 0.329487 0.398180 1 0 1.000000
  0 -13.387687 9.995804 5.000000 0.000000 0.000000 1.000000 0.234529 0.398260 1 0 1.000000
  0 -13.387687 9.544134 5.000000 0.000000 0.000000 1.000000 0.234529 0.385600 1 0 1.000000
walllight_sheet
  0 9.534999 9.406267 -2.842067 0.000000 0.455983 -0.889988 0.981007 0.122750 1 0 1.000000
  0 -9.534999 8.516526 -3.297923 0.000000 0.000000 -1.000000 0.516185 0.101014 1 0 1.000000
  0 -9.534999 9.406267 -2.842067 0.000000 0.455983 -0.889988 0.516185 0.122750 1 0 1.000000
walllight_sheet
  0 9.534999 9.406267 -2.842067 0.000000 0.455983 -0.889988 0.981007 0.122750 1 0 1.000000
  0 9.534999 8.516526 -3.297923 0.000000 0.000000 -1.000000 0.981007 0.101014 1 0 1.000000
  0 -9.534999 8.516526 -3.297923 0.000000 0.000000 -1.000000 0.516185 0.101014 1 0 1.000000
walllight_sheet
  0 9.534999 8.516526 -3.297923 0.000000 0.000000 -1.000000 0.981007 0.101014 1 0 1.000000
  0 -9.534999 7.626784 -2.842067 0.000000 -0.853224 -0.521545 0.516185 0.079376 1 0 1.000000
  0 -9.534999 8.516526 -3.297923 0.000000 0.000000 -1.000000 0.516185 0.101014 1 0 1.000000
walllight_sheet
  0 9.534999 8.516526 -3.297923 0.000000 0.000000 -1.000000 0.981007 0.101014 1 0 1.000000
  0 9.534999 7.626785 -2.842067 0.000000 -0.853224 -0.521545 0.981007 0.079376 1 0 1.000000
  0 -9.534999 7.626784 -2.842067 0.000000 -0.853224 -0.521545 0.516185 0.079376 1 0 1.000000
walllight_sheet
  0 9.534999 7.626785 -2.842067 0.000000 -0.853224 -0.521545 0.981007 0.079376 1 0 1.000000
  0 -9.534999 7.626784 -1.930356 0.000000 -1.000000 0.000000 0.516185 0.079473 1 0 1.000000
  0 -9.534999 7.626784 -2.842067 0.000000 -0.853224 -0.521545 0.516185 0.079376 1 0 1.000000
walllight_sheet
  0 9.534999 7.626785 -2.842067 0.000000 -0.853224 -0.521545 0.981007 0.079376 1 0 1.000000
  0 9.534999 7.626785 -1.930356 0.000000 -1.000000 0.000000 0.981007 0.079473 1 0 1.000000
  0 -9.534999 7.626784 -1.930356 0.000000 -1.000000 0.000000 0.516185 0.079473 1 0 1.000000
walllight_sheet
  0 -9.534999 9.406267 2.572767 0.000000 0.455983 0.889988 0.516185 0.123326 1 0 1.000000
  0 9.534999 8.516526 3.028622 0.000000 0.000000 1.000000 0.981007 0.101687 1 0 1.000000
  0 9.534999 9.406267 2.572767 0.000000 0.455983 0.889988 0.981007 0.123326 1 0 1.000000
walllight_sheet
  0 -9.534999 9.406267 2.572767 0.000000 0.455983 0.889988 0.516185 0.123326 1 0 1.000000
  0 -9.534999 8.516526 3.028622 0.000000 0.000000 1.000000 0.516185 0.101687 1 0 1.000000
  0 9.534999 8.516526 3.028622 0.000000 0.000000 1.000000 0.981007 0.101687 1 0 1.000000
walllight_sheet
  0 -9.534999 8.516526 3.028622 0.000000 0.000000 1.000000 0.516185 0.101687 1 0 1.000000
  0 9.534999 7.626785 2.572766 0.000000 -0.853224 0.521545 0.981007 0.079952 1 0 1.000000
  0 9.534999 8.516526 3.028622 0.000000 0.000000 1.000000 0.981007 0.101687 1 0 1.000000
walllight_sheet
  0 -9.534999 8.516526 3.028622 0.000000 0.000000 1.000000 0.516185 0.101687 1 0 1.000000
  0 -9.534999 7.626784 2.572766 0.000000 -0.853224 0.521545 0.516185 0.079952 1 0 1.000000
  0 9.534999 7.626785 2.572766 0.000000 -0.853224 0.521545 0.981007 0.079952 1 0 1.000000
walllight_sheet
  0 -9.534999 7.626784 2.572766 0.000000 -0.853224 0.521545 0.516185 0.079952 1 0 1.000000
  0 9.534999 7.626785 1.661054 0.000000 -1.000000 0.000000 0.981007 0.079855 1 0 1.000000
  0 9.534999 7.626785 2.572766 0.000000 -0.853224 0.521545 0.981007 0.079952 1 0 1.000000
walllight_sheet
  0 -9.534999 7.626784 2.572766 0.000000 -0.853224 0.521545 0.516185 0.079952 1 0 1.000000
  0 -9.534999 7.626784 1.661054 0.000000 -1.000000 0.000000 0.516185 0.079855 1 0 1.000000
  0 9.534999 7.626785 1.661054 0.000000 -1.000000 0.000000 0.981007 0.079855 1 0 1.000000
walllight_sheet
  0 12.070784 8.935271 -4.136648 0.000000 -1.000000 0.000000 0.413569 0.162881 1 0 1.000000
  0 12.555732 8.935271 -3.478277 0.000000 -1.000000 0.000000 0.366727 0.162881 1 0 1.000000
  0 12.123202 8.935271 -3.667470 0.000000 -1.000000 0.000000 0.390148 0.149359 1 0 1.000000
walllight_sheet
  0 12.070784 8.935271 -4.136648 0.000000 -1.000000 0.000000 0.413569 0.162881 1 0 1.000000
  0 12.935842 8.935271 -3.758264 0.000000 -1.000000 0.000000 0.366727 0.189925 1 0 1.000000
  0 12.555732 8.935271 -3.478277 0.000000 -1.000000 0.000000 0.366727 0.162881 1 0 1.000000
walllight_sheet
  0 12.070784 8.935271 -4.136648 0.000000 -1.000000 0.000000 0.413569 0.162881 1 0 1.000000
  0 12.883422 8.935271 -4.227440 0.000000 -1.000000 0.000000 0.390148 0.203446 1 0 1.000000
  0 12.935842 8.935271 -3.758264 0.000000 -1.000000 0.000000 0.366727 0.189925 1 0 1.000000
walllight_sheet
  0 12.070784 8.935271 -4.136648 0.000000 -1.000000 0.000000 0.413569 0.162881 1 0 1.000000
  0 12.450893 8.935271 -4.416633 0.000000 -1.000000 0.000000 0.413569 0.189925 1 0 1.000000
  0 12.883422 8.935271 -4.227440 0.000000 -1.000000 0.000000 0.390148 0.203446 1 0 1.000000
walllight_sheet
  0 -12.948626 8.935269 -3.947455 0.000000 -1.000000 0.000000 0.319391 0.149359 1 0 1.000000
  0 -12.240480 8.935269 -3.538608 0.000000 -1.000000 0.000000 0.295970 0.189924 1 0 1.000000
  0 -12.712578 8.935269 -3.538608 0.000000 -1.000000 0.000000 0.295970 0.162880 1 0 1.000000
walllight_sheet
  0 -12.948626 8.935269 -3.947455 0.000000 -1.000000 0.000000 0.319391 0.149359 1 0 1.000000
  0 -12.004433 8.935269 -3.947455 0.000000 -1.000000 0.000000 0.319391 0.203446 1 0 1.000000
  0 -12.240480 8.935269 -3.538608 0.000000 -1.000000 0.000000 0.295970 0.189924 1 0 1.000000
walllight_sheet
  0 -12.948626 8.935269 -3.947455 0.000000 -1.000000 0.000000 0.319391 0.149359 1 0 1.000000
  0 -12.240480 8.935269 -4.356303 0.000000 -1.000000 0.000000 0.342811 0.189924 1 0 1.000000
  0 -12.004433 8.935269 -3.947455 0.000000 -1.000000 0.000000 0.319391 0.203446 1 0 1.000000
walllight_sheet
  0 -12.948626 8.935269 -3.947455 0.000000 -1.000000 0.000000 0.319391 0.149359 1 0 1.000000
  0 -12.712578 8.935269 -4.356303 0.000000 -1.000000 0.000000 0.342811 0.162880 1 0 1.000000
  0 -12.240480 8.935269 -4.356303 0.000000 -1.000000 0.000000 0.342811 0.189924 1 0 1.000000
walllight_sheet
  0 -10.000000 10.000000 -5.000000 0.000000 0.000000 -1.000000 0.329487 0.397155 1 0 1.000000
  0 -9.160105 5.046480 -5.000000 0.000000 0.000000 -1.000000 0.353029 0.258308 1 0 1.000000
  0 -10.000000 4.670351 -5.000000 0.000000 0.000000 -1.000000 0.329487 0.247765 1 0 1.000000
walllight_sheet
  0 -10.000000 10.000000 -5.000000 0.000000 0.000000 -1.000000 0.329487 0.397155 1 0 1.000000
  0 -9.160105 9.460875 -5.000000 0.000000 0.000000 -1.000000 0.353029 0.382043 1 0 1.000000
  0 -9.160105 5.046480 -5.000000 0.000000 0.000000 -1.000000 0.353029 0.258308 1 0 1.000000
walllight_sheet
  0 10.000000 10.000000 -5.000000 0.000000 0.000000 -1.000000 0.890091 0.397155 1 0 1.000000
  0 -9.160105 9.460875 -5.000000 0.000000 0.000000 -1.000000 0.353029 0.382043 1 0 1.000000
  0 -10.000000 10.000000 -5.000000 0.000000 0.000000 -1.000000 0.329487 0.397155 1 0 1.000000
walllight_sheet
  0 10.000000 10.000000 -5.000000 0.000000 0.000000 -1.000000 0.890091 0.397155 1 0 1.000000
  0 9.160105 9.460875 -5.000000 0.000000 0.000000 -1.000000 0.866548 0.382043 1 0 1.000000
  0 -9.160105 9.460875 -5.000000 0.000000 0.000000 -1.000000 0.353029 0.382043 1 0 1.000000
walllight_sheet
  0 10.000000 4.670352 -5.000000 0.000000 0.000000 -1.000000 0.890091 0.247765 1 0 1.000000
  0 9.160105 9.460875 -5.000000 0.000000 0.000000 -1.000000 0.866548 0.382043 1 0 1.000000
  0 10.000000 10.000000 -5.000000 0.000000 0.000000 -1.000000 0.890091 0.397155 1 0 1.000000
walllight_sheet
  0 10.000000 4.670352 -5.000000 0.000000 0.000000 -1.000000 0.890091 0.247765 1 0 1.000000
  0 9.160105 5.046481 -5.000000 0.000000 0.000000 -1.000000 0.866548 0.258308 1 0 1.000000
  0 9.160105 9.460875 -5.000000 0.000000 0.000000 -1.000000 0.866548 0.382043 1 0 1.000000
walllight_sheet
  0 -9.160105 9.460875 -0.696020 0.000000 0.011548 -0.999933 0.384050 0.371916 1 0 1.000000
  0 -4.580052 3.785322 -0.780054 0.000000 0.011548 -0.999933 0.490820 0.239601 1 0 1.000000
  0 -9.160105 4.657813 -0.696020 0.000000 0.011548 -0.999933 0.384050 0.259949 1 0 1.000000
walllight_sheet
  0 -9.160105 9.460875 -0.696020 0.000000 0.011548 -0.999933 0.384050 0.371916 1 0 1.000000
  0 4.580052 3.785322 -0.780054 0.000000 0.011548 -0.999933 0.704360 0.239601 1 0 1.000000
  0 -4.580052 3.785322 -0.780054 0.000000 0.011548 -0.999933 0.490820 0.239601 1 0 1.000000
walllight_sheet
  0 -9.160105 9.460875 -0.696020 0.000000 0.011548 -0.999933 0.384050 0.371916 1 0 1.000000
  0 9.160105 4.657814 -0.696020 0.000000 0.011548 -0.999933 0.811130 0.259949 1 0 1.000000
  0 4.580052 3.785322 -0.780054 0.000000 0.011548 -0.999933 0.704360 0.239601 1 0 1.000000
walllight_sheet
  0 -9.160105 9.460875 -0.696020 0.000000 0.011548 -0.999933 0.384050 0.371916 1 0 1.000000
  0 9.160105 9.460875 -0.696020 0.000000 0.011548 -0.999933 0.811130 0.371916 1 0 1.000000
  0 9.160105 4.657814 -0.696020 0.000000 0.011548 -0.999933 0.811130 0.259949 1 0 1.000000
walllight_sheet
  0 -12.948626 8.935269 4.119174 0.000000 -1.000000 0.000000 0.322541 0.083086 1 0 1.000000
  0 -12.240480 8.935269 4.528020 0.000000 -1.000000 0.000000 0.299120 0.123652 1 0 1.000000
  0 -12.712578 8.935269 4.528020 0.000000 -1.000000 0.000000 0.299120 0.096608 1 0 1.000000
walllight_sheet
  0 -12.948626 8.935269 4.119174 0.000000 -1.000000 0.000000 0.322541 0.083086 1 0 1.000000
  0 -12.004433 8.935269 4.119174 0.000000 -1.000000 0.000000 0.322541 0.137174 1 0 1.000000
  0 -12.240480 8.935269 4.528020 0.000000 -1.000000 0.000000 0.299120 0.123652 1 0 1.000000
walllight_sheet
  0 -12.948626 8.935269 4.119174 0.000000 -1.000000 0.000000 0.322541 0.083086 1 0 1.000000
  0 -12.240480 8.935269 3.710325 0.000000 -1.000000 0.000000 0.345962 0.123652 1 0 1.000000
  0 -12.004433 8.935269 4.119174 0.000000 -1.000000 0.000000 0.322541 0.137174 1 0 1.000000
walllight_sheet
  0 -12.948626 8.935269 4.119174 0.000000 -1.000000 0.000000 0.322541 0.083086 1 0 1.000000
  0 -12.712578 8.935269 3.710325 0.000000 -1.000000 0.000000 0.345962 0.096608 1 0 1.000000
  0 -12.240480 8.935269 3.710325 0.000000 -1.000000 0.000000 0.345962 0.123652 1 0 1.000000
walllight_sheet
  0 -9.160105 9.460875 0.696020 0.000000 0.011548 0.999933 0.384050 0.372058 1 0 1.000000
  0 9.160105 4.657814 0.696020 0.000000 0.011548 0.999933 0.811130 0.260090 1 0 1.000000
  0 9.160105 9.460875 0.696020 0.000000 0.011548 0.999933 0.811130 0.372058 1 0 1.000000
walllight_sheet
  0 -9.160105 9.460875 0.696020 0.000000 0.011548 0.999933 0.384050 0.372058 1 0 1.000000
  0 4.580052 3.785322 0.780054 0.000000 0.011548 0.999933 0.704360 0.239760 1 0 1.000000
  0 9.160105 4.657814 0.696020 0.000000 0.011548 0.999933 0.811130 0.260090 1 0 1.000000
walllight_sheet
  0 -9.160105 9.460875 0.696020 0.000000 0.011548 0.999933 0.384050 0.372058 1 0 1.000000
  0 -4.580052 3.785322 0.780054 0.000000 0.011548 0.999933 0.490820 0.239760 1 0 1.000000
  0 4.580052 3.785322 0.780054 0.000000 0.011548 0.999933 0.704360 0.239760 1 0 1.000000
walllight_sheet
  0 -9.160105 9.460875 0.696020 0.000000 0.011548 0.999933 0.384050 0.372058 1 0 1.000000
  0 -9.160105 4.657813 0.696020 0.000000 0.011548 0.999933 0.384050 0.260090 1 0 1.000000
  0 -4.580052 3.785322 0.780054 0.000000 0.011548 0.999933 0.490820 0.239760 1 0 1.000000
walllight_sheet
  0 10.000000 9.992953 5.000000 0.000000 0.000000 1.000000 0.976535 0.357573 1 0 1.000000
  0 10.000000 10.000000 5.000000 0.000000 0.000000 1.000000 0.976620 0.357573 1 0 1.000000
  0 10.000000 9.128199 5.000000 0.000000 0.000000 1.000000 0.966179 0.357573 1 0 1.000000
walllight_sheet
  0 10.000000 10.000000 5.000000 0.000000 0.000000 1.000000 0.976620 0.357573 1 0 1.000000
  0 10.000000 4.670352 5.000000 0.000000 0.000000 1.000000 0.912793 0.357573 1 0 1.000000
  0 10.000000 9.128199 5.000000 0.000000 0.000000 1.000000 0.966179 0.357573 1 0 1.000000
walllight_sheet
  0 10.000000 9.128199 -5.000000 0.000000 0.000000 1.000000 0.966179 0.237815 1 0 1.000000
  0 10.000000 4.670352 -5.000000 0.000000 0.000000 1.000000 0.912793 0.237815 1 0 1.000000
  0 10.000000 9.992953 -5.000000 0.000000 0.000000 1.000000 0.976535 0.237815 1 0 1.000000
walllight_sheet
  0 10.000000 4.670352 -5.000000 0.000000 0.000000 1.000000 0.912793 0.237815 1 0 1.000000
  0 10.000000 10.000000 -5.000000 0.000000 0.000000 1.000000 0.976620 0.237815 1 0 1.000000
  0 10.000000 9.992953 -5.000000 0.000000 0.000000 1.000000 0.976535 0.237815 1 0 1.000000
walllight_sheet
  0 -10.000000 9.128199 5.000000 0.000000 0.000000 1.000000 0.966179 0.357573 1 0 1.000000
  0 -10.000000 4.670351 5.000000 0.000000 0.000000 1.000000 0.912793 0.357573 1 0 1.000000
  0 -10.000000 9.992953 5.000000 0.000000 0.000000 1.000000 0.976535 0.357573 1 0 1.000000
walllight_sheet
  0 -10.000000 4.670351 5.000000 0.000000 0.000000 1.000000 0.912793 0.357573 1 0 1.000000
  0 -10.000000 10.000000 5.000000 0.000000 0.000000 1.000000 0.976620 0.357573 1 0 1.000000
  0 -10.000000 9.992953 5.000000 0.000000 0.000000 1.000000 0.976535 0.357573 1 0 1.000000
walllight_sheet
  0 -10.000000 9.992953 -5.000000 0.000000 0.000000 1.000000 0.976535 0.237815 1 0 1.000000
  0 -10.000000 10.000000 -5.000000 0.000000 0.000000 1.000000 0.976620 0.237815 1 0 1.000000
  0 -10.000000 9.128199 -5.000000 0.000000 0.000000 1.000000 0.966179 0.237815 1 0 1.000000
walllight_sheet
  0 -10.000000 10.000000 -5.000000 0.000000 0.000000 1.000000 0.976620 0.237815 1 0 1.000000
  0 -10.000000 4.670351 -5.000000 0.000000 0.000000 1.000000 0.912793 0.237815 1 0 1.000000
  0 -10.000000 9.128199 -5.000000 0.000000 0.000000 1.000000 0.966179 0.237815 1 0 1.000000
end
