// Created by Crowbar 0.74
version 1
nodes
  0 "Aperture_Door" -1
  1 "Scene_Root" -1
  2 "Root" 1
  3 "cube1" 2
  4 "cube2" 2
  5 "cube3" 2
  6 "cube5" 2
  7 "cube6" 2
  8 "cube7" 2
  9 "cube8" 2
  10 "cube9" 2
  11 "cube10" 2
  12 "cube4" 2
end
skeleton
  time 0
    0 0.000000 0.000000 0.000000 1.570796 0.000000 0.000000
    1 0.000000 0.000000 0.000000 1.570796 0.000000 0.000000
    2 1.196254 0.624548 0.000000 0.000000 0.000000 0.436332
    3 18.066898 -2.068864 55.605560 3.141593 -0.837758 3.141593
    4 47.301071 -2.068865 34.343189 3.141593 -1.454189 3.141593
    5 47.348850 -2.068863 -34.414268 3.141593 -1.158997 3.141593
    6 -18.072645 -2.068864 -55.646927 3.141593 -0.837758 3.141593
    7 -47.325806 -2.068864 -34.397007 3.141593 -1.479464 3.141593
    8 -58.483028 -2.068864 -0.005009 3.141593 -0.530990 3.141593
    9 -47.304958 -2.068865 34.323246 3.141593 -1.153015 3.141593
    10 -18.054792 -2.068864 55.621166 3.141593 -0.222694 -3.141593
    11 58.501446 -2.068866 -0.014459 3.141593 -0.537068 3.141593
    12 18.039114 -2.068864 -55.672504 6.283185 -1.366368 -6.283090
  time 1
    0 0.000000 0.000000 0.000000 1.570796 0.000000 0.000000
    1 0.000000 0.000000 0.000000 1.570796 0.000000 0.000000
    2 1.196254 0.624548 0.000000 0.000000 0.000000 0.436332
    3 18.066898 -2.068864 55.605560 3.141593 -0.833859 3.141593
    4 47.301071 -2.068865 34.343189 3.141593 -1.450322 3.141593
    5 47.348850 -2.068863 -34.414268 3.141593 -1.155130 3.141593
    6 -18.072645 -2.068864 -55.646927 3.141593 -0.833859 3.141593
    7 -47.325806 -2.068864 -34.397007 3.141593 -1.475597 3.141593
    8 -58.483028 -2.068864 -0.005009 3.141593 -0.527091 3.141593
    9 -47.304958 -2.068865 34.323246 3.141593 -1.149148 3.141593
    10 -18.054792 -2.068864 55.621166 3.141593 -0.218827 -3.141593
    11 58.501446 -2.068866 -0.014459 3.141593 -0.533169 3.141593
    12 18.039114 -2.068864 -55.672504 6.283185 -1.370236 -6.283090
  time 2
    0 0.000000 0.000000 0.000000 1.570796 0.000000 0.000000
    1 0.000000 0.000000 0.000000 1.570796 0.000000 0.000000
    2 1.196254 0.624548 0.000000 0.000000 0.000000 0.436332
    3 18.066898 -2.068864 55.605560 3.141593 -0.822769 3.141593
    4 47.301071 -2.068865 34.343189 3.141593 -1.439232 3.141593
    5 47.348850 -2.068863 -34.414268 3.141593 -1.144041 3.141593
    6 -18.072645 -2.068864 -55.646927 3.141593 -0.822769 3.141593
    7 -47.325806 -2.068864 -34.397007 3.141593 -1.464507 3.141593
    8 -58.483028 -2.068864 -0.005009 3.141593 -0.516001 3.141593
    9 -47.304958 -2.068865 34.323246 3.141593 -1.138058 3.141593
    10 -18.054792 -2.068864 55.621166 3.141593 -0.207737 -3.141593
    11 58.501446 -2.068866 -0.014459 3.141593 -0.522079 3.141593
    12 18.039114 -2.068864 -55.672504 6.283185 -1.381333 -6.283090
  time 3
    0 0.000000 0.000000 0.000000 1.570796 0.000000 0.000000
    1 0.000000 0.000000 0.000000 1.570796 0.000000 0.000000
    2 1.196254 0.624548 0.000000 0.000000 0.000000 0.436332
    3 18.066898 -2.068864 55.605560 3.141593 -0.805161 3.141593
    4 47.301071 -2.068865 34.343189 3.141593 -1.421624 3.141593
    5 47.348850 -2.068863 -34.414268 3.141593 -1.126432 3.141593
    6 -18.072645 -2.068864 -55.646927 3.141593 -0.805161 3.141593
    7 -47.325806 -2.068864 -34.397007 3.141593 -1.446899 3.141593
    8 -58.483028 -2.068864 -0.005009 3.141593 -0.498393 3.141593
    9 -47.304958 -2.068865 34.323246 3.141593 -1.120450 3.141593
    10 -18.054792 -2.068864 55.621166 3.141593 -0.190128 -3.141593
    11 58.501446 -2.068866 -0.014459 3.141593 -0.504470 3.141593
    12 18.039114 -2.068864 -55.672504 6.283185 -1.398946 -6.283090
  time 4
    0 0.000000 0.000000 0.000000 1.570796 0.000000 0.000000
    1 0.000000 0.000000 0.000000 1.570796 0.000000 0.000000
    2 1.196254 0.624548 0.000000 0.000000 0.000000 0.436332
    3 18.066898 -2.068864 55.605560 3.141593 -0.781735 3.141593
    4 47.301071 -2.068865 34.343189 3.141593 -1.398198 3.141593
    5 47.348850 -2.068863 -34.414268 3.141593 -1.103007 3.141593
    6 -18.072645 -2.068864 -55.646927 3.141593 -0.781735 3.141593
    7 -47.325806 -2.068864 -34.397007 3.141593 -1.423473 3.141593
    8 -58.483028 -2.068864 -0.005009 3.141593 -0.474967 3.141593
    9 -47.304958 -2.068865 34.323246 3.141593 -1.097024 3.141593
    10 -18.054792 -2.068864 55.621166 3.141593 -0.166703 -3.141593
    11 58.501446 -2.068866 -0.014459 3.141593 -0.481045 3.141593
    12 18.039114 -2.068864 -55.672504 6.283185 -1.422362 -6.283090
  time 5
    0 0.000000 0.000000 0.000000 1.570796 0.000000 0.000000
    1 0.000000 0.000000 0.000000 1.570796 0.000000 0.000000
    2 1.196254 0.624548 0.000000 0.000000 0.000000 0.436332
    3 18.066898 -2.068864 55.605560 3.141593 -0.753133 3.141593
    4 47.301071 -2.068865 34.343189 3.141593 -1.369596 3.141593
    5 47.348850 -2.068863 -34.414268 3.141593 -1.074404 3.141593
    6 -18.072645 -2.068864 -55.646927 3.141593 -0.753133 3.141593
    7 -47.325806 -2.068864 -34.397007 3.141593 -1.394871 3.141593
    8 -58.483028 -2.068864 -0.005009 3.141593 -0.446365 3.141593
    9 -47.304958 -2.068865 34.323246 3.141593 -1.068422 3.141593
    10 -18.054792 -2.068864 55.621166 3.141593 -0.138101 -3.141593
    11 58.501446 -2.068866 -0.014459 3.141593 -0.452443 3.141593
    12 18.039114 -2.068864 -55.672504 6.283185 -1.450971 -6.283090
  time 6
    0 0.000000 0.000000 0.000000 1.570796 0.000000 0.000000
    1 0.000000 0.000000 0.000000 1.570796 0.000000 0.000000
    2 1.196254 0.624548 0.000000 0.000000 0.000000 0.436332
    3 18.066898 -2.068864 55.605560 3.141593 -0.719929 3.141593
    4 47.301071 -2.068865 34.343189 3.141593 -1.336392 3.141593
    5 47.348850 -2.068863 -34.414268 3.141593 -1.041200 3.141593
    6 -18.072645 -2.068864 -55.646927 3.141593 -0.719929 3.141593
    7 -47.325806 -2.068864 -34.397007 3.141593 -1.361667 3.141593
    8 -58.483028 -2.068864 -0.005009 3.141593 -0.413161 3.141593
    9 -47.304958 -2.068865 34.323246 3.141593 -1.035218 3.141593
    10 -18.054792 -2.068864 55.621166 3.141593 -0.104897 -3.141593
    11 58.501446 -2.068866 -0.014459 3.141593 -0.419239 3.141593
    12 18.039114 -2.068864 -55.672504 6.283185 -1.484160 -6.283090
  time 7
    0 0.000000 0.000000 0.000000 1.570796 0.000000 0.000000
    1 0.000000 0.000000 0.000000 1.570796 0.000000 0.000000
    2 1.196254 0.624548 0.000000 0.000000 0.000000 0.436332
    3 18.066898 -2.068864 55.605560 3.141593 -0.682730 3.141593
    4 47.301071 -2.068865 34.343189 3.141593 -1.299193 3.141593
    5 47.348850 -2.068863 -34.414268 3.141593 -1.004001 3.141593
    6 -18.072645 -2.068864 -55.646927 3.141593 -0.682730 3.141593
    7 -47.325806 -2.068864 -34.397007 3.141593 -1.324468 3.141593
    8 -58.483028 -2.068864 -0.005009 3.141593 -0.375962 3.141593
    9 -47.304958 -2.068865 34.323246 3.141593 -0.998019 3.141593
    10 -18.054792 -2.068864 55.621166 3.141593 -0.067698 -3.141593
    11 58.501446 -2.068866 -0.014459 3.141593 -0.382040 3.141593
    12 18.039114 -2.068864 -55.672504 6.283185 -1.521371 -6.283090
  time 8
    0 0.000000 0.000000 0.000000 1.570796 0.000000 0.000000
    1 0.000000 0.000000 0.000000 1.570796 0.000000 0.000000
    2 1.196254 0.624548 0.000000 0.000000 0.000000 0.436332
    3 18.066898 -2.068864 55.605560 3.141593 -0.642079 3.141593
    4 47.301071 -2.068865 34.343189 3.141593 -1.258542 3.141593
    5 47.348850 -2.068863 -34.414268 3.141593 -0.963350 3.141593
    6 -18.072645 -2.068864 -55.646927 3.141593 -0.642079 3.141593
    7 -47.325806 -2.068864 -34.397007 3.141593 -1.283817 3.141593
    8 -58.483028 -2.068864 -0.005009 3.141593 -0.335311 3.141593
    9 -47.304958 -2.068865 34.323246 3.141593 -0.957368 3.141593
    10 -18.054792 -2.068864 55.621166 3.141593 -0.027047 -3.141593
    11 58.501446 -2.068866 -0.014459 3.141593 -0.341389 3.141593
    12 18.039114 -2.068864 -55.672504 6.283089 -1.562044 -0.000096
  time 9
    0 0.000000 0.000000 0.000000 1.570796 0.000000 0.000000
    1 0.000000 0.000000 0.000000 1.570796 0.000000 0.000000
    2 1.196254 0.624548 0.000000 0.000000 0.000000 0.436332
    3 18.066898 -2.068864 55.605560 3.141593 -0.598457 3.141593
    4 47.301071 -2.068865 34.343189 3.141593 -1.214920 3.141593
    5 47.348850 -2.068863 -34.414268 3.141593 -0.919728 3.141593
    6 -18.072645 -2.068864 -55.646927 3.141593 -0.598457 3.141593
    7 -47.325806 -2.068864 -34.397007 3.141593 -1.240195 3.141593
    8 -58.483028 -2.068864 -0.005009 3.141593 -0.291689 3.141593
    9 -47.304958 -2.068865 34.323246 3.141593 -0.913746 3.141593
    10 -18.054792 -2.068864 55.621166 3.141593 0.016575 -3.141593
    11 58.501446 -2.068866 -0.014459 3.141593 -0.297766 3.141593
    12 18.039114 -2.068864 -55.672504 3.141593 -1.535905 -3.141593
  time 10
    0 0.000000 0.000000 0.000000 1.570796 0.000000 0.000000
    1 0.000000 0.000000 0.000000 1.570796 0.000000 0.000000
    2 1.196254 0.624548 0.000000 0.000000 0.000000 0.436332
    3 18.066898 -2.068864 55.605560 3.141593 -0.552373 3.141593
    4 47.301071 -2.068865 34.343189 3.141593 -1.168836 3.141593
    5 47.348850 -2.068863 -34.414268 3.141593 -0.873645 3.141593
    6 -18.072645 -2.068864 -55.646927 3.141593 -0.552373 3.141593
    7 -47.325806 -2.068864 -34.397007 3.141593 -1.194111 3.141593
    8 -58.483028 -2.068864 -0.005009 3.141593 -0.245605 3.141593
    9 -47.304958 -2.068865 34.323246 3.141593 -0.867662 3.141593
    10 -18.054792 -2.068864 55.621166 3.141593 0.062659 -3.141593
    11 58.501446 -2.068866 -0.014459 3.141593 -0.251683 3.141593
    12 18.039114 -2.068864 -55.672504 3.141593 -1.489836 -3.141593
  time 11
    0 0.000000 0.000000 0.000000 1.570796 0.000000 0.000000
    1 0.000000 0.000000 0.000000 1.570796 0.000000 0.000000
    2 1.196254 0.624548 0.000000 0.000000 0.000000 0.436332
    3 18.066898 -2.068864 55.605560 3.141593 -0.504309 3.141593
    4 47.301071 -2.068865 34.343189 3.141593 -1.120771 3.141593
    5 47.348850 -2.068863 -34.414268 3.141593 -0.825580 3.141593
    6 -18.072645 -2.068864 -55.646927 3.141593 -0.504309 3.141593
    7 -47.325806 -2.068864 -34.397007 3.141593 -1.146047 3.141593
    8 -58.483028 -2.068864 -0.005009 3.141593 -0.197541 3.141593
    9 -47.304958 -2.068865 34.323246 3.141593 -0.819598 3.141593
    10 -18.054792 -2.068864 55.621166 3.141593 0.110723 -3.141593
    11 58.501446 -2.068866 -0.014459 3.141593 -0.203618 3.141593
    12 18.039114 -2.068864 -55.672504 3.141593 -1.441782 -3.141593
  time 12
    0 0.000000 0.000000 0.000000 1.570796 0.000000 0.000000
    1 0.000000 0.000000 0.000000 1.570796 0.000000 0.000000
    2 1.196254 0.624548 0.000000 0.000000 0.000000 0.436332
    3 18.066898 -2.068864 55.605560 3.141593 -0.454710 3.141593
    4 47.301071 -2.068865 34.343189 3.141593 -1.071173 3.141593
    5 47.348850 -2.068863 -34.414268 3.141593 -0.775981 3.141593
    6 -18.072645 -2.068864 -55.646927 3.141593 -0.454710 3.141593
    7 -47.325806 -2.068864 -34.397007 3.141593 -1.096448 3.141593
    8 -58.483028 -2.068864 -0.005009 3.141593 -0.147942 3.141593
    9 -47.304958 -2.068865 34.323246 3.141593 -0.769999 3.141593
    10 -18.054792 -2.068864 55.621166 3.141593 0.160322 -3.141593
    11 58.501446 -2.068866 -0.014459 3.141593 -0.154020 3.141593
    12 18.039114 -2.068864 -55.672504 3.141593 -1.392176 -3.141593
  time 13
    0 0.000000 0.000000 0.000000 1.570796 0.000000 0.000000
    1 0.000000 0.000000 0.000000 1.570796 0.000000 0.000000
    2 1.196254 0.624548 0.000000 0.000000 0.000000 0.436332
    3 18.066898 -2.068864 55.605560 3.141593 -0.404057 3.141593
    4 47.301071 -2.068865 34.343189 3.141593 -1.020519 3.141593
    5 47.348850 -2.068863 -34.414268 3.141593 -0.725328 3.141593
    6 -18.072645 -2.068864 -55.646927 3.141593 -0.404057 3.141593
    7 -47.325806 -2.068864 -34.397007 3.141593 -1.045795 3.141593
    8 -58.483028 -2.068864 -0.005009 3.141593 -0.097289 3.141593
    9 -47.304958 -2.068865 34.323246 3.141593 -0.719346 3.141593
    10 -18.054792 -2.068864 55.621166 3.141593 0.210975 -3.141593
    11 58.501446 -2.068866 -0.014459 3.141593 -0.103366 3.141593
    12 18.039114 -2.068864 -55.672504 3.141593 -1.341526 -3.141593
  time 14
    0 0.000000 0.000000 0.000000 1.570796 0.000000 0.000000
    1 0.000000 0.000000 0.000000 1.570796 0.000000 0.000000
    2 1.196254 0.624548 0.000000 0.000000 0.000000 0.436332
    3 18.066898 -2.068864 55.605560 3.141593 -0.352764 3.141593
    4 47.301071 -2.068865 34.343189 3.141593 -0.969227 3.141593
    5 47.348850 -2.068863 -34.414268 3.141593 -0.674035 3.141593
    6 -18.072645 -2.068864 -55.646927 3.141593 -0.352764 3.141593
    7 -47.325806 -2.068864 -34.397007 3.141593 -0.994502 3.141593
    8 -58.483028 -2.068864 -0.005009 3.141593 -0.045996 3.141593
    9 -47.304958 -2.068865 34.323246 3.141593 -0.668053 3.141593
    10 -18.054792 -2.068864 55.621166 3.141593 0.262268 -3.141593
    11 58.501446 -2.068866 -0.014459 3.141593 -0.052074 3.141593
    12 18.039114 -2.068864 -55.672504 3.141593 -1.290240 -3.141593
  time 15
    0 0.000000 0.000000 0.000000 1.570796 0.000000 0.000000
    1 0.000000 0.000000 0.000000 1.570796 0.000000 0.000000
    2 1.196254 0.624548 0.000000 0.000000 0.000000 0.436332
    3 18.066898 -2.068864 55.605560 3.141593 -0.301280 3.141593
    4 47.301071 -2.068865 34.343189 3.141593 -0.917743 3.141593
    5 47.348850 -2.068863 -34.414268 3.141593 -0.622551 3.141593
    6 -18.072645 -2.068864 -55.646927 3.141593 -0.301280 3.141593
    7 -47.325806 -2.068864 -34.397007 3.141593 -0.943018 3.141593
    8 -58.483028 -2.068864 -0.005009 3.141593 0.005488 3.141593
    9 -47.304958 -2.068865 34.323246 3.141593 -0.616569 3.141593
    10 -18.054792 -2.068864 55.621166 3.141593 0.313752 -3.141593
    11 58.501446 -2.068866 -0.014459 3.141593 -0.000590 3.141593
    12 18.039114 -2.068864 -55.672504 3.141593 -1.238750 -3.141593
  time 16
    0 0.000000 0.000000 0.000000 1.570796 0.000000 0.000000
    1 0.000000 0.000000 0.000000 1.570796 0.000000 0.000000
    2 1.196254 0.624548 0.000000 0.000000 0.000000 0.436332
    3 18.066898 -2.068864 55.605560 3.141593 -0.249988 3.141593
    4 47.301071 -2.068865 34.343189 3.141593 -0.866450 3.141593
    5 47.348850 -2.068863 -34.414268 3.141593 -0.571259 3.141593
    6 -18.072645 -2.068864 -55.646927 3.141593 -0.249988 3.141593
    7 -47.325806 -2.068864 -34.397007 3.141593 -0.891725 3.141593
    8 -58.483028 -2.068864 -0.005009 3.141593 0.056780 3.141593
    9 -47.304958 -2.068865 34.323246 3.141593 -0.565277 3.141593
    10 -18.054792 -2.068864 55.621166 3.141593 0.365044 -3.141593
    11 58.501446 -2.068866 -0.014459 3.141593 0.050703 3.141593
    12 18.039114 -2.068864 -55.672504 3.141593 -1.187464 -3.141593
  time 17
    0 0.000000 0.000000 0.000000 1.570796 0.000000 0.000000
    1 0.000000 0.000000 0.000000 1.570796 0.000000 0.000000
    2 1.196254 0.624548 0.000000 0.000000 0.000000 0.436332
    3 18.066898 -2.068864 55.605560 3.141593 -0.199334 3.141593
    4 47.301071 -2.068865 34.343189 3.141593 -0.815797 3.141593
    5 47.348850 -2.068863 -34.414268 3.141593 -0.520605 3.141593
    6 -18.072645 -2.068864 -55.646927 3.141593 -0.199334 3.141593
    7 -47.325806 -2.068864 -34.397007 3.141593 -0.841072 3.141593
    8 -58.483028 -2.068864 -0.005009 3.141593 0.107434 3.141593
    9 -47.304958 -2.068865 34.323246 3.141593 -0.514623 3.141593
    10 -18.054792 -2.068864 55.621166 3.141593 0.415698 -3.141593
    11 58.501446 -2.068866 -0.014459 3.141593 0.101356 3.141593
    12 18.039114 -2.068864 -55.672504 3.141593 -1.136814 -3.141593
  time 18
    0 0.000000 0.000000 0.000000 1.570796 0.000000 0.000000
    1 0.000000 0.000000 0.000000 1.570796 0.000000 0.000000
    2 1.196254 0.624548 0.000000 0.000000 0.000000 0.436332
    3 18.066898 -2.068864 55.605560 3.141593 -0.149736 3.141593
    4 47.301071 -2.068865 34.343189 3.141593 -0.766198 3.141593
    5 47.348850 -2.068863 -34.414268 3.141593 -0.471007 3.141593
    6 -18.072645 -2.068864 -55.646927 3.141593 -0.149736 3.141593
    7 -47.325806 -2.068864 -34.397007 3.141593 -0.791473 3.141593
    8 -58.483028 -2.068864 -0.005009 3.141593 0.157032 3.141593
    9 -47.304958 -2.068865 34.323246 3.141593 -0.465025 3.141593
    10 -18.054792 -2.068864 55.621166 3.141593 0.465296 -3.141593
    11 58.501446 -2.068866 -0.014459 3.141593 0.150955 3.141593
    12 18.039114 -2.068864 -55.672504 3.141593 -1.087208 -3.141593
  time 19
    0 0.000000 0.000000 0.000000 1.570796 0.000000 0.000000
    1 0.000000 0.000000 0.000000 1.570796 0.000000 0.000000
    2 1.196254 0.624548 0.000000 0.000000 0.000000 0.436332
    3 18.066898 -2.068864 55.605560 3.141593 -0.101575 3.141593
    4 47.301071 -2.068865 34.343189 3.141593 -0.718037 3.141593
    5 47.348850 -2.068863 -34.414268 3.141593 -0.422846 3.141593
    6 -18.072645 -2.068864 -55.646927 3.141593 -0.101575 3.141593
    7 -47.325806 -2.068864 -34.397007 3.141593 -0.743313 3.141593
    8 -58.483028 -2.068864 -0.005009 3.141593 0.205193 3.141593
    9 -47.304958 -2.068865 34.323246 3.141593 -0.416864 3.141593
    10 -18.054792 -2.068864 55.621166 3.141593 0.513457 -3.141593
    11 58.501446 -2.068866 -0.014459 3.141593 0.199116 3.141593
    12 18.039114 -2.068864 -55.672504 3.141593 -1.039052 -3.141593
  time 20
    0 0.000000 0.000000 0.000000 1.570796 0.000000 0.000000
    1 0.000000 0.000000 0.000000 1.570796 0.000000 0.000000
    2 1.196254 0.624548 0.000000 0.000000 0.000000 0.436332
    3 18.066898 -2.068864 55.605560 3.141593 -0.055332 3.141593
    4 47.301071 -2.068865 34.343189 3.141593 -0.671794 3.141593
    5 47.348850 -2.068863 -34.414268 3.141593 -0.376603 3.141593
    6 -18.072645 -2.068864 -55.646927 3.141593 -0.055332 3.141593
    7 -47.325806 -2.068864 -34.397007 3.141593 -0.697070 3.141593
    8 -58.483028 -2.068864 -0.005009 3.141593 0.251436 3.141593
    9 -47.304958 -2.068865 34.323246 3.141593 -0.370621 3.141593
    10 -18.054792 -2.068864 55.621166 3.141593 0.559700 -3.141593
    11 58.501446 -2.068866 -0.014459 3.141593 0.245359 3.141593
    12 18.039114 -2.068864 -55.672504 3.141593 -0.992780 -3.141593
  time 21
    0 0.000000 0.000000 0.000000 1.570796 0.000000 0.000000
    1 0.000000 0.000000 0.000000 1.570796 0.000000 0.000000
    2 1.196254 0.624548 0.000000 0.000000 0.000000 0.436332
    3 18.066898 -2.068864 55.605560 3.141593 -0.011326 3.141593
    4 47.301071 -2.068865 34.343189 3.141593 -0.627788 3.141593
    5 47.348850 -2.068863 -34.414268 3.141593 -0.332597 3.141593
    6 -18.072645 -2.068864 -55.646927 3.141593 -0.011326 3.141593
    7 -47.325806 -2.068864 -34.397007 3.141593 -0.653064 3.141593
    8 -58.483028 -2.068864 -0.005009 3.141593 0.295442 3.141593
    9 -47.304958 -2.068865 34.323246 3.141593 -0.326615 3.141593
    10 -18.054792 -2.068864 55.621166 3.141593 0.603706 -3.141593
    11 58.501446 -2.068866 -0.014459 3.141593 0.289365 3.141593
    12 18.039114 -2.068864 -55.672504 3.141593 -0.948799 -3.141593
  time 22
    0 0.000000 0.000000 0.000000 1.570796 0.000000 0.000000
    1 0.000000 0.000000 0.000000 1.570796 0.000000 0.000000
    2 1.196254 0.624548 0.000000 0.000000 0.000000 0.436332
    3 18.066898 -2.068864 55.605560 3.141593 0.029932 3.141593
    4 47.301071 -2.068865 34.343189 3.141593 -0.586530 3.141593
    5 47.348850 -2.068863 -34.414268 3.141593 -0.291339 3.141593
    6 -18.072645 -2.068864 -55.646927 3.141593 0.029932 3.141593
    7 -47.325806 -2.068864 -34.397007 3.141593 -0.611806 3.141593
    8 -58.483028 -2.068864 -0.005009 3.141593 0.336700 3.141593
    9 -47.304958 -2.068865 34.323246 3.141593 -0.285357 3.141593
    10 -18.054792 -2.068864 55.621166 3.141593 0.644964 -3.141593
    11 58.501446 -2.068866 -0.014459 3.141593 0.330623 3.141593
    12 18.039114 -2.068864 -55.672504 3.141593 -0.907541 -3.141593
  time 23
    0 0.000000 0.000000 0.000000 1.570796 0.000000 0.000000
    1 0.000000 0.000000 0.000000 1.570796 0.000000 0.000000
    2 1.196254 0.624548 0.000000 0.000000 0.000000 0.436332
    3 18.066898 -2.068864 55.605560 3.141593 0.068058 3.141593
    4 47.301071 -2.068865 34.343189 3.141593 -0.548373 3.141593
    5 47.348850 -2.068863 -34.414268 3.141593 -0.253213 3.141593
    6 -18.072645 -2.068864 -55.646927 3.141593 0.068058 3.141593
    7 -47.325806 -2.068864 -34.397007 3.141593 -0.573680 3.141593
    8 -58.483028 -2.068864 -0.005009 3.141593 0.374825 3.141593
    9 -47.304958 -2.068865 34.323246 3.141593 -0.247200 3.141593
    10 -18.054792 -2.068864 55.621166 3.141593 0.683121 -3.141593
    11 58.501446 -2.068866 -0.014459 3.141593 0.368748 3.141593
    12 18.039114 -2.068864 -55.672504 3.141593 -0.869388 -3.141593
  time 24
    0 0.000000 0.000000 0.000000 1.570796 0.000000 0.000000
    1 0.000000 0.000000 0.000000 1.570796 0.000000 0.000000
    2 1.196254 0.624548 0.000000 0.000000 0.000000 0.436332
    3 18.066898 -2.068864 55.605560 3.141593 0.102636 3.141593
    4 47.301071 -2.068865 34.343189 3.141593 -0.513826 3.141593
    5 47.348850 -2.068863 -34.414268 3.141593 -0.218635 3.141593
    6 -18.072645 -2.068864 -55.646927 3.141593 0.102636 3.141593
    7 -47.325806 -2.068864 -34.397007 3.141593 -0.539102 3.141593
    8 -58.483028 -2.068864 -0.005009 3.141593 0.409404 3.141593
    9 -47.304958 -2.068865 34.323246 3.141593 -0.212653 3.141593
    10 -18.054792 -2.068864 55.621166 3.141593 0.717668 -3.141593
    11 58.501446 -2.068866 -0.014459 3.141593 0.403327 3.141593
    12 18.039114 -2.068864 -55.672504 3.141593 -0.834824 -3.141593
  time 25
    0 0.000000 0.000000 0.000000 1.570796 0.000000 0.000000
    1 0.000000 0.000000 0.000000 1.570796 0.000000 0.000000
    2 1.196254 0.624548 0.000000 0.000000 0.000000 0.436332
    3 18.066898 -2.068864 55.605560 3.141593 0.133220 3.141593
    4 47.301071 -2.068865 34.343189 3.141593 -0.483242 3.141593
    5 47.348850 -2.068863 -34.414268 3.141593 -0.188051 3.141593
    6 -18.072645 -2.068864 -55.646927 3.141593 0.133220 3.141593
    7 -47.325806 -2.068864 -34.397007 3.141593 -0.508518 3.141593
    8 -58.483028 -2.068864 -0.005009 3.141593 0.439988 3.141593
    9 -47.304958 -2.068865 34.323246 3.141593 -0.182069 3.141593
    10 -18.054792 -2.068864 55.621166 3.141593 0.748252 -3.141593
    11 58.501446 -2.068866 -0.014459 3.141593 0.433911 3.141593
    12 18.039114 -2.068864 -55.672504 3.141593 -0.804256 -3.141593
  time 26
    0 0.000000 0.000000 0.000000 1.570796 0.000000 0.000000
    1 0.000000 0.000000 0.000000 1.570796 0.000000 0.000000
    2 1.196254 0.624548 0.000000 0.000000 0.000000 0.436332
    3 18.066898 -2.068864 55.605560 3.141593 0.159298 3.141593
    4 47.301071 -2.068865 34.343189 3.141593 -0.457165 3.141593
    5 47.348850 -2.068863 -34.414268 3.141593 -0.161974 3.141593
    6 -18.072645 -2.068864 -55.646927 3.141593 0.159298 3.141593
    7 -47.325806 -2.068864 -34.397007 3.141593 -0.482440 3.141593
    8 -58.483028 -2.068864 -0.005009 3.141593 0.466065 3.141593
    9 -47.304958 -2.068865 34.323246 3.141593 -0.155992 3.141593
    10 -18.054792 -2.068864 55.621166 3.141593 0.774329 -3.141593
    11 58.501446 -2.068866 -0.014459 3.141593 0.459988 3.141593
    12 18.039114 -2.068864 -55.672504 3.141593 -0.778167 -3.141593
  time 27
    0 0.000000 0.000000 0.000000 1.570796 0.000000 0.000000
    1 0.000000 0.000000 0.000000 1.570796 0.000000 0.000000
    2 1.196254 0.624548 0.000000 0.000000 0.000000 0.436332
    3 18.066898 -2.068864 55.605560 3.141593 0.180454 3.141593
    4 47.301071 -2.068865 34.343189 3.141593 -0.436008 3.141593
    5 47.348850 -2.068863 -34.414268 3.141593 -0.140817 3.141593
    6 -18.072645 -2.068864 -55.646927 3.141593 0.180454 3.141593
    7 -47.325806 -2.068864 -34.397007 3.141593 -0.461284 3.141593
    8 -58.483028 -2.068864 -0.005009 3.141593 0.487221 3.141593
    9 -47.304958 -2.068865 34.323246 3.141593 -0.134835 3.141593
    10 -18.054792 -2.068864 55.621166 3.141593 0.795485 -3.141593
    11 58.501446 -2.068866 -0.014459 3.141593 0.481144 3.141593
    12 18.039114 -2.068864 -55.672504 3.141593 -0.756991 -3.141593
  time 28
    0 0.000000 0.000000 0.000000 1.570796 0.000000 0.000000
    1 0.000000 0.000000 0.000000 1.570796 0.000000 0.000000
    2 1.196254 0.624548 0.000000 0.000000 0.000000 0.436332
    3 18.066898 -2.068864 55.605560 3.141593 0.196209 3.141593
    4 47.301071 -2.068865 34.343189 3.141593 -0.420253 3.141593
    5 47.348850 -2.068863 -34.414268 3.141593 -0.125062 3.141593
    6 -18.072645 -2.068864 -55.646927 3.141593 0.196209 3.141593
    7 -47.325806 -2.068864 -34.397007 3.141593 -0.445529 3.141593
    8 -58.483028 -2.068864 -0.005009 3.141593 0.502977 3.141593
    9 -47.304958 -2.068865 34.323246 3.141593 -0.119080 3.141593
    10 -18.054792 -2.068864 55.621166 3.141593 0.811241 -3.141593
    11 58.501446 -2.068866 -0.014459 3.141593 0.496900 3.141593
    12 18.039114 -2.068864 -55.672504 3.141593 -0.741236 -3.141593
  time 29
    0 0.000000 0.000000 0.000000 1.570796 0.000000 0.000000
    1 0.000000 0.000000 0.000000 1.570796 0.000000 0.000000
    2 1.196254 0.624548 0.000000 0.000000 0.000000 0.436332
    3 18.066898 -2.068864 55.605560 3.141593 0.206052 3.141593
    4 47.301071 -2.068865 34.343189 3.141593 -0.410410 3.141593
    5 47.348850 -2.068863 -34.414268 3.141593 -0.115219 3.141593
    6 -18.072645 -2.068864 -55.646927 3.141593 0.206052 3.141593
    7 -47.325806 -2.068864 -34.397007 3.141593 -0.435686 3.141593
    8 -58.483028 -2.068864 -0.005009 3.141593 0.512820 3.141593
    9 -47.304958 -2.068865 34.323246 3.141593 -0.109237 3.141593
    10 -18.054792 -2.068864 55.621166 3.141593 0.821084 -3.141593
    11 58.501446 -2.068866 -0.014459 3.141593 0.506743 3.141593
    12 18.039114 -2.068864 -55.672504 3.141593 -0.731412 -3.141593
  time 30
    0 0.000000 0.000000 0.000000 1.570796 0.000000 0.000000
    1 0.000000 0.000000 0.000000 1.570796 0.000000 0.000000
    2 1.196254 0.624548 0.000000 0.000000 0.000000 0.436332
    3 18.066898 -2.068864 55.605560 3.141593 0.209440 3.141593
    4 47.301071 -2.068865 34.343189 3.141593 -0.407023 3.141593
    5 47.348850 -2.068863 -34.414268 3.141593 -0.111832 3.141593
    6 -18.072645 -2.068864 -55.646927 3.141593 0.209440 3.141593
    7 -47.325806 -2.068864 -34.397007 3.141593 -0.432298 3.141593
    8 -58.483028 -2.068864 -0.005009 3.141593 0.516207 3.141593
    9 -47.304958 -2.068865 34.323246 3.141593 -0.105850 3.141593
    10 -18.054792 -2.068864 55.621166 3.141593 0.824471 -3.141593
    11 58.501446 -2.068866 -0.014459 3.141593 0.510130 3.141593
    12 18.039114 -2.068864 -55.672504 3.141593 -0.728027 -3.141593
end
