// Created by Crowbar 0.74
version 1
nodes
  0 "Aperture_Door" -1
  1 "Scene_Root" -1
  2 "Root" 1
  3 "cube1" 2
  4 "cube2" 2
  5 "cube3" 2
  6 "cube5" 2
  7 "cube6" 2
  8 "cube7" 2
  9 "cube8" 2
  10 "cube9" 2
  11 "cube10" 2
  12 "cube4" 2
end
skeleton
  time 0
    0 0.000000 0.000000 0.000000 1.570674 0.000061 -0.000061
    1 0.000000 0.000000 0.000000 1.570674 0.000061 -0.000061
    2 1.196254 0.624548 0.000000 0.000000 0.000000 0.436332
    3 18.066898 -2.068864 55.605560 3.141593 0.209440 3.141593
    4 47.301071 -2.068865 34.343189 3.141593 -0.407023 3.141593
    5 47.348850 -2.068863 -34.414268 3.141593 -0.111832 3.141593
    6 -18.072645 -2.068864 -55.646927 3.141593 0.209440 3.141593
    7 -47.325806 -2.068864 -34.397007 3.141593 -0.432298 3.141593
    8 -58.483028 -2.068864 -0.005009 3.141593 0.516207 3.141593
    9 -47.304958 -2.068865 34.323246 3.141593 -0.105850 3.141593
    10 -18.054792 -2.068864 55.621166 3.141593 0.824471 -3.141593
    11 58.501446 -2.068866 -0.014459 3.141593 0.510130 3.141593
    12 18.039114 -2.068864 -55.672504 3.141593 -0.728027 -3.141593
end
