// Created by Crowbar 0.74
version 1
nodes
  0 "static_prop" -1
end
skeleton
  time 0
    0 0.000000 0.000000 0.000000 0.000000 0.000000 0.000000
end
triangles
  phy
    0 -31.601162 12.226716 62.940257 -0.473706 -0.030130 0.880168 0 0
    0 -31.601162 4.220117 -62.940257 0.473062 0.060178 0.878971 0 0
    0 -31.601162 12.226721 -62.940257 -0.906554 0.028831 0.421105 0 0
  phy
    0 -31.601162 12.226716 62.940257 -0.473706 -0.030130 0.880168 0 0
    0 -31.601162 4.220111 62.940257 0.905426 -0.057589 0.420581 0 0
    0 -31.601162 4.220117 -62.940257 0.473062 0.060178 0.878971 0 0
  phy
    0 -31.601162 12.226721 -62.940257 -0.906554 0.028831 0.421105 0 0
    0 -31.601162 4.220117 -62.940257 0.473062 0.060178 0.878971 0 0
    0 -40.219468 12.226721 -62.940257 -0.729467 0.092795 -0.677692 0 0
  phy
    0 -40.219468 12.226721 -62.940257 -0.729467 0.092795 -0.677692 0 0
    0 -31.601162 4.220117 -62.940257 0.473062 0.060178 0.878971 0 0
    0 -40.219468 4.220116 -62.940257 0.732430 0.023293 -0.680444 0 0
  phy
    0 -31.601162 12.226716 62.940257 -0.473706 -0.030130 0.880168 0 0
    0 -31.601162 12.226721 -62.940257 -0.906554 0.028831 0.421105 0 0
    0 -40.219468 12.226716 62.940257 -0.731834 -0.046548 -0.679891 0 0
  phy
    0 -40.219468 12.226716 62.940257 -0.731834 -0.046548 -0.679891 0 0
    0 -31.601162 12.226721 -62.940257 -0.906554 0.028831 0.421105 0 0
    0 -40.219468 12.226721 -62.940257 -0.729467 0.092795 -0.677692 0 0
  phy
    0 -31.601162 12.226716 62.940257 -0.473706 -0.030130 0.880168 0 0
    0 -40.219468 12.226716 62.940257 -0.731834 -0.046548 -0.679891 0 0
    0 -31.601162 4.220111 62.940257 0.905426 -0.057589 0.420581 0 0
  phy
    0 -40.219468 12.226716 62.940257 -0.731834 -0.046548 -0.679891 0 0
    0 -40.219468 4.220111 62.940257 0.731834 -0.046548 -0.679891 0 0
    0 -31.601162 4.220111 62.940257 0.905426 -0.057589 0.420581 0 0
  phy
    0 -31.601162 4.220111 62.940257 0.905426 -0.057589 0.420581 0 0
    0 -40.219468 4.220116 -62.940257 0.732430 0.023293 -0.680444 0 0
    0 -31.601162 4.220117 -62.940257 0.473062 0.060178 0.878971 0 0
  phy
    0 -31.601162 4.220111 62.940257 0.905426 -0.057589 0.420581 0 0
    0 -40.219468 4.220111 62.940257 0.731834 -0.046548 -0.679891 0 0
    0 -40.219468 4.220116 -62.940257 0.732430 0.023293 -0.680444 0 0
  phy
    0 -40.219468 12.226721 -62.940257 -0.729467 0.092795 -0.677692 0 0
    0 -40.219468 4.220116 -62.940257 0.732430 0.023293 -0.680444 0 0
    0 -40.219468 12.226716 62.940257 -0.731834 -0.046548 -0.679891 0 0
  phy
    0 -40.219468 12.226716 62.940257 -0.731834 -0.046548 -0.679891 0 0
    0 -40.219468 4.220116 -62.940257 0.732430 0.023293 -0.680444 0 0
    0 -40.219468 4.220111 62.940257 0.731834 -0.046548 -0.679891 0 0
  phy
    0 31.601162 12.226718 62.940257 -0.473062 -0.060178 -0.878971 0 0
    0 31.601162 12.226723 -62.940257 -0.905426 0.057589 -0.420581 0 0
    0 31.601162 4.220119 -62.940257 0.732430 0.023293 -0.680444 0 0
  phy
    0 31.601162 12.226718 62.940257 -0.473062 -0.060178 -0.878971 0 0
    0 31.601162 4.220119 -62.940257 0.732430 0.023293 -0.680444 0 0
    0 31.601162 4.220114 62.940257 0.731834 -0.046548 -0.679891 0 0
  phy
    0 31.601162 4.220119 -62.940257 0.732430 0.023293 -0.680444 0 0
    0 31.601162 12.226723 -62.940257 -0.905426 0.057589 -0.420581 0 0
    0 40.219468 4.220119 -62.940257 0.473062 0.060178 0.878971 0 0
  phy
    0 40.219468 4.220119 -62.940257 0.473062 0.060178 0.878971 0 0
    0 31.601162 12.226723 -62.940257 -0.905426 0.057589 -0.420581 0 0
    0 40.219468 12.226724 -62.940257 -0.731834 0.046548 0.679891 0 0
  phy
    0 31.601162 12.226723 -62.940257 -0.905426 0.057589 -0.420581 0 0
    0 31.601162 12.226718 62.940257 -0.473062 -0.060178 -0.878971 0 0
    0 40.219468 12.226720 62.940257 -0.732430 -0.023293 0.680444 0 0
  phy
    0 31.601162 12.226723 -62.940257 -0.905426 0.057589 -0.420581 0 0
    0 40.219468 12.226720 62.940257 -0.732430 -0.023293 0.680444 0 0
    0 40.219468 12.226724 -62.940257 -0.731834 0.046548 0.679891 0 0
  phy
    0 31.601162 4.220114 62.940257 0.731834 -0.046548 -0.679891 0 0
    0 40.219468 4.220114 62.940257 0.905426 -0.057589 0.420581 0 0
    0 31.601162 12.226718 62.940257 -0.473062 -0.060178 -0.878971 0 0
  phy
    0 40.219468 4.220114 62.940257 0.905426 -0.057589 0.420581 0 0
    0 40.219468 12.226720 62.940257 -0.732430 -0.023293 0.680444 0 0
    0 31.601162 12.226718 62.940257 -0.473062 -0.060178 -0.878971 0 0
  phy
    0 31.601162 4.220119 -62.940257 0.732430 0.023293 -0.680444 0 0
    0 40.219468 4.220114 62.940257 0.905426 -0.057589 0.420581 0 0
    0 31.601162 4.220114 62.940257 0.731834 -0.046548 -0.679891 0 0
  phy
    0 31.601162 4.220119 -62.940257 0.732430 0.023293 -0.680444 0 0
    0 40.219468 4.220119 -62.940257 0.473062 0.060178 0.878971 0 0
    0 40.219468 4.220114 62.940257 0.905426 -0.057589 0.420581 0 0
  phy
    0 40.219468 12.226724 -62.940257 -0.731834 0.046548 0.679891 0 0
    0 40.219468 12.226720 62.940257 -0.732430 -0.023293 0.680444 0 0
    0 40.219468 4.220119 -62.940257 0.473062 0.060178 0.878971 0 0
  phy
    0 40.219468 12.226720 62.940257 -0.732430 -0.023293 0.680444 0 0
    0 40.219468 4.220114 62.940257 0.905426 -0.057589 0.420581 0 0
    0 40.219468 4.220119 -62.940257 0.473062 0.060178 0.878971 0 0
end
