version 1
nodes
0 "portal_button_root" -1
1 "portal_button_top" -1
2 "static_prop" -1
3 "button_whole_reference_02.polymsh" -1
end
skeleton
time 0
0  0.000000 0.000000 0.000000  1.570796 -0.000000 0.000000
1  0.000000 0.000000 7.000000  1.570796 -0.000000 0.000000
2  0.000000 0.000000 0.000000  0.000000 -0.000000 0.000000
3  0.000000 0.000000 0.000000  1.570796 -0.000000 0.000000
time 1
0  0.000000 0.000000 0.000000  1.570796 -0.000000 0.000000
1  0.000000 0.000000 8.000000  1.570796 -0.000000 0.000000
2  0.000000 0.000000 0.000000  0.000000 -0.000000 0.000000
3  0.000000 0.000000 0.000000  1.570796 -0.000000 0.000000
time 2
0  0.000000 0.000000 0.000000  1.570796 -0.000000 0.000000
1  0.000000 0.000000 9.000000  1.570796 -0.000000 0.000000
2  0.000000 0.000000 0.000000  0.000000 -0.000000 0.000000
3  0.000000 0.000000 0.000000  1.570796 -0.000000 0.000000
time 3
0  0.000000 0.000000 0.000000  1.570796 -0.000000 0.000000
1  0.000000 0.000000 10.000000  1.570796 -0.000000 0.000000
2  0.000000 0.000000 0.000000  0.000000 -0.000000 0.000000
3  0.000000 0.000000 0.000000  1.570796 -0.000000 0.000000
time 4
0  0.000000 0.000000 0.000000  1.570796 -0.000000 0.000000
1  0.000000 0.000000 11.000000  1.570796 -0.000000 0.000000
2  0.000000 0.000000 0.000000  0.000000 -0.000000 0.000000
3  0.000000 0.000000 0.000000  1.570796 -0.000000 0.000000
time 5
0  0.000000 0.000000 0.000000  1.570796 -0.000000 0.000000
1  0.000000 0.000000 12.000000  1.570796 -0.000000 0.000000
2  0.000000 0.000000 0.000000  0.000000 -0.000000 0.000000
3  0.000000 0.000000 0.000000  1.570796 -0.000000 0.000000
time 6
0  0.000000 0.000000 0.000000  1.570796 -0.000000 0.000000
1  0.000000 0.000000 13.000000  1.570796 -0.000000 0.000000
2  0.000000 0.000000 0.000000  0.000000 -0.000000 0.000000
3  0.000000 0.000000 0.000000  1.570796 -0.000000 0.000000
time 7
0  0.000000 0.000000 0.000000  1.570796 -0.000000 0.000000
1  0.000000 0.000000 14.000000  1.570796 -0.000000 0.000000
2  0.000000 0.000000 0.000000  0.000000 -0.000000 0.000000
3  0.000000 0.000000 0.000000  1.570796 -0.000000 0.000000
time 8
0  0.000000 0.000000 0.000000  1.570796 -0.000000 0.000000
1  0.000000 0.000000 15.000000  1.570796 -0.000000 0.000000
2  0.000000 0.000000 0.000000  0.000000 -0.000000 0.000000
3  0.000000 0.000000 0.000000  1.570796 -0.000000 0.000000
end
