// Created by Crowbar 0.74
version 1
nodes
  0 "Scene_Root" -1
  1 "Root" 0
  2 "Arm_Rot1" 1
  3 "Arm_Rot2" 2
  4 "Arm_Rot3" 3
end
skeleton
  time 0
    0 0.000000 0.000000 0.000000 1.570796 0.000000 0.000000
    1 0.000000 0.000000 0.000000 0.000000 0.000000 0.000000
    2 0.000000 -11.567140 0.000000 0.000000 0.000000 0.000000
    3 0.500414 -55.855713 -17.892462 0.000000 0.000000 0.000000
    4 -0.599933 -11.143446 59.434353 0.000000 0.000000 0.000000
end
triangles
  phy
    0 0.972319 -1.722602 -1.519140 0.343183 -0.931357 0.121656 0 0
    0 0.831363 -0.650680 -1.519140 0.131718 0.883917 0.448711 0 0
    0 -0.692805 -1.722602 -1.519140 -0.260470 -0.946085 0.192556 0 0
  phy
    0 0.831363 -0.650680 -1.519140 0.131718 0.883917 0.448711 0 0
    0 -0.833760 -0.650680 -1.519140 -0.869309 0.285935 0.403167 0 0
    0 -0.692805 -1.722602 -1.519140 -0.260470 -0.946085 0.192556 0 0
  phy
    0 -0.833760 -0.650680 -1.519140 -0.869309 0.285935 0.403167 0 0
    0 0.831363 -0.650680 -1.519140 0.131718 0.883917 0.448711 0 0
    0 -2.553869 1.893818 -8.096820 -0.467623 0.837836 0.281708 0 0
  phy
    0 -2.553869 1.893818 -8.096820 -0.467623 0.837836 0.281708 0 0
    0 0.831363 -0.650680 -1.519140 0.131718 0.883917 0.448711 0 0
    0 2.833384 1.893818 -8.096820 0.582540 0.786233 0.206120 0 0
  phy
    0 -0.692805 -1.722602 -1.519140 -0.260470 -0.946085 0.192556 0 0
    0 -0.833760 -0.650680 -1.519140 -0.869309 0.285935 0.403167 0 0
    0 -2.553869 -1.668088 -8.096821 -0.981188 -0.148004 0.123955 0 0
  phy
    0 -0.833760 -0.650680 -1.519140 -0.869309 0.285935 0.403167 0 0
    0 -2.553869 1.893818 -8.096820 -0.467623 0.837836 0.281708 0 0
    0 -2.553869 -1.668088 -8.096821 -0.981188 -0.148004 0.123955 0 0
  phy
    0 2.833384 1.893818 -8.096820 0.582540 0.786233 0.206120 0 0
    0 2.791856 1.839304 -12.531482 0.331988 0.494379 -0.803352 0 0
    0 -2.512341 1.839304 -12.531482 -0.523847 0.786192 -0.327850 0 0
  phy
    0 2.833384 1.893818 -8.096820 0.582540 0.786233 0.206120 0 0
    0 -2.512341 1.839304 -12.531482 -0.523847 0.786192 -0.327850 0 0
    0 -2.553869 1.893818 -8.096820 -0.467623 0.837836 0.281708 0 0
  phy
    0 -2.512341 1.839304 -12.531482 -0.523847 0.786192 -0.327850 0 0
    0 2.791856 1.839304 -12.531482 0.331988 0.494379 -0.803352 0 0
    0 -2.512341 -1.722602 -12.531483 -0.173099 -0.900272 -0.399434 0 0
  phy
    0 2.791856 1.839304 -12.531482 0.331988 0.494379 -0.803352 0 0
    0 2.791856 -1.722602 -12.531483 0.419765 -0.872832 -0.248919 0 0
    0 -2.512341 -1.722602 -12.531483 -0.173099 -0.900272 -0.399434 0 0
  phy
    0 2.791856 1.839304 -12.531482 0.331988 0.494379 -0.803352 0 0
    0 2.833384 1.893818 -8.096820 0.582540 0.786233 0.206120 0 0
    0 2.791856 -1.722602 -12.531483 0.419765 -0.872832 -0.248919 0 0
  phy
    0 0.972319 -1.722602 -1.519140 0.343183 -0.931357 0.121656 0 0
    0 2.833384 1.893818 -8.096820 0.582540 0.786233 0.206120 0 0
    0 0.831363 -0.650680 -1.519140 0.131718 0.883917 0.448711 0 0
  phy
    0 -2.512341 1.839304 -12.531482 -0.523847 0.786192 -0.327850 0 0
    0 -2.512341 -1.722602 -12.531483 -0.173099 -0.900272 -0.399434 0 0
    0 -2.553869 -1.668088 -8.096821 -0.981188 -0.148004 0.123955 0 0
  phy
    0 -2.512341 1.839304 -12.531482 -0.523847 0.786192 -0.327850 0 0
    0 -2.553869 -1.668088 -8.096821 -0.981188 -0.148004 0.123955 0 0
    0 -2.553869 1.893818 -8.096820 -0.467623 0.837836 0.281708 0 0
  phy
    0 2.791856 -1.722602 -12.531483 0.419765 -0.872832 -0.248919 0 0
    0 0.972319 -1.722602 -1.519140 0.343183 -0.931357 0.121656 0 0
    0 -2.512341 -1.722602 -12.531483 -0.173099 -0.900272 -0.399434 0 0
  phy
    0 0.972319 -1.722602 -1.519140 0.343183 -0.931357 0.121656 0 0
    0 -0.692805 -1.722602 -1.519140 -0.260470 -0.946085 0.192556 0 0
    0 -2.512341 -1.722602 -12.531483 -0.173099 -0.900272 -0.399434 0 0
  phy
    0 -0.692805 -1.722602 -1.519140 -0.260470 -0.946085 0.192556 0 0
    0 -2.553869 -1.668088 -8.096821 -0.981188 -0.148004 0.123955 0 0
    0 -2.512341 -1.722602 -12.531483 -0.173099 -0.900272 -0.399434 0 0
  phy
    0 2.791856 -1.722602 -12.531483 0.419765 -0.872832 -0.248919 0 0
    0 2.833384 -1.668088 -8.096821 0.965323 -0.206670 0.159497 0 0
    0 0.972319 -1.722602 -1.519140 0.343183 -0.931357 0.121656 0 0
  phy
    0 2.833384 1.893818 -8.096820 0.582540 0.786233 0.206120 0 0
    0 2.833384 -1.668088 -8.096821 0.965323 -0.206670 0.159497 0 0
    0 2.791856 -1.722602 -12.531483 0.419765 -0.872832 -0.248919 0 0
  phy
    0 0.972319 -1.722602 -1.519140 0.343183 -0.931357 0.121656 0 0
    0 2.833384 -1.668088 -8.096821 0.965323 -0.206670 0.159497 0 0
    0 2.833384 1.893818 -8.096820 0.582540 0.786233 0.206120 0 0
  phy
    2 -1.296412 18.387650 -64.334152 -0.808357 -0.546814 -0.218068 0 0
    2 -0.893234 -1.321077 -12.703500 -0.524042 -0.803331 -0.282913 0 0
    2 -0.893234 2.105834 -12.703500 -0.654971 0.701565 0.280747 0 0
  phy
    2 -1.296412 18.387650 -64.334152 -0.808357 -0.546814 -0.218068 0 0
    2 -0.893234 2.105834 -12.703500 -0.654971 0.701565 0.280747 0 0
    2 -1.296412 19.865128 -64.334152 -0.393243 0.883001 0.256259 0 0
  phy
    2 2.021167 18.387650 -64.334152 0.654971 -0.701565 -0.280747 0 0
    2 -0.893234 -1.321077 -12.703500 -0.524042 -0.803331 -0.282913 0 0
    2 -1.296412 18.387650 -64.334152 -0.808357 -0.546814 -0.218068 0 0
  phy
    2 2.021167 18.387650 -64.334152 0.654971 -0.701565 -0.280747 0 0
    2 -1.296412 18.387650 -64.334152 -0.808357 -0.546814 -0.218068 0 0
    2 -1.296412 19.865128 -64.334152 -0.393243 0.883001 0.256259 0 0
  phy
    2 1.042469 2.105834 -12.703500 0.917274 0.362037 0.165947 0 0
    2 1.042469 -1.321077 -12.703500 0.865853 -0.489080 -0.105357 0 0
    2 2.021167 18.387650 -64.334152 0.654971 -0.701565 -0.280747 0 0
  phy
    2 2.021167 18.387650 -64.334152 0.654971 -0.701565 -0.280747 0 0
    2 2.021167 19.865128 -64.334152 0.257949 0.917156 0.303788 0 0
    2 1.042469 2.105834 -12.703500 0.917274 0.362037 0.165947 0 0
  phy
    2 -0.893234 2.105834 -12.703500 -0.654971 0.701565 0.280747 0 0
    2 1.042469 -1.321077 -12.703500 0.865853 -0.489080 -0.105357 0 0
    2 1.042469 2.105834 -12.703500 0.917274 0.362037 0.165947 0 0
  phy
    2 -0.893234 2.105834 -12.703500 -0.654971 0.701565 0.280747 0 0
    2 1.042469 2.105834 -12.703500 0.917274 0.362037 0.165947 0 0
    2 2.021167 19.865128 -64.334152 0.257949 0.917156 0.303788 0 0
  phy
    2 2.021167 18.387650 -64.334152 0.654971 -0.701565 -0.280747 0 0
    2 1.042469 -1.321077 -12.703500 0.865853 -0.489080 -0.105357 0 0
    2 -0.893234 -1.321077 -12.703500 -0.524042 -0.803331 -0.282913 0 0
  phy
    2 2.021167 19.865128 -64.334152 0.257949 0.917156 0.303788 0 0
    2 2.021167 18.387650 -64.334152 0.654971 -0.701565 -0.280747 0 0
    2 -1.296412 19.865128 -64.334152 -0.393243 0.883001 0.256259 0 0
  phy
    2 -0.893234 -1.321077 -12.703500 -0.524042 -0.803331 -0.282913 0 0
    2 1.042469 -1.321077 -12.703500 0.865853 -0.489080 -0.105357 0 0
    2 -0.893234 2.105834 -12.703500 -0.654971 0.701565 0.280747 0 0
  phy
    2 -0.893234 2.105834 -12.703500 -0.654971 0.701565 0.280747 0 0
    2 2.021167 19.865128 -64.334152 0.257949 0.917156 0.303788 0 0
    2 -1.296412 19.865128 -64.334152 -0.393243 0.883001 0.256259 0 0
  phy
    3 1.354808 -40.850320 -78.666875 0.884867 0.057496 -0.462281 0 0
    3 1.213469 -41.335891 -78.058866 0.115959 -0.217981 0.969040 0 0
    3 -1.181329 -40.853887 -78.674032 -0.111642 0.149225 -0.982481 0 0
  phy
    3 1.213469 -41.335891 -78.058866 0.115959 -0.217981 0.969040 0 0
    3 -1.322571 -41.343818 -78.060558 -0.883344 -0.104176 0.457003 0 0
    3 -1.181329 -40.853887 -78.674032 -0.111642 0.149225 -0.982481 0 0
  phy
    3 2.048055 20.470327 -64.865378 0.794321 -0.100839 0.599071 0 0
    3 -1.269523 20.470327 -64.865378 -0.551100 -0.116744 0.826232 0 0
    3 1.213469 -41.335891 -78.058866 0.115959 -0.217981 0.969040 0 0
  phy
    3 -1.269523 20.470327 -64.865378 -0.551100 -0.116744 0.826232 0 0
    3 -1.322571 -41.343818 -78.060558 -0.883344 -0.104176 0.457003 0 0
    3 1.213469 -41.335891 -78.058866 0.115959 -0.217981 0.969040 0 0
  phy
    3 1.354808 -40.850320 -78.666875 0.884867 0.057496 -0.462281 0 0
    3 2.048055 20.470327 -64.865378 0.794321 -0.100839 0.599071 0 0
    3 1.213469 -41.335891 -78.058866 0.115959 -0.217981 0.969040 0 0
  phy
    3 1.354808 -40.850320 -78.666875 0.884867 0.057496 -0.462281 0 0
    3 -1.181329 -40.853887 -78.674032 -0.111642 0.149225 -0.982481 0 0
    3 2.051206 20.421844 -68.774221 0.545531 0.184808 -0.817461 0 0
  phy
    3 1.354808 -40.850320 -78.666875 0.884867 0.057496 -0.462281 0 0
    3 2.051206 20.421844 -68.774221 0.545531 0.184808 -0.817461 0 0
    3 2.048055 20.470327 -64.865378 0.794321 -0.100839 0.599071 0 0
  phy
    3 -1.181329 -40.853887 -78.674032 -0.111642 0.149225 -0.982481 0 0
    3 -1.266372 20.421844 -68.774221 -0.793231 0.132679 -0.594291 0 0
    3 2.051206 20.421844 -68.774221 0.545531 0.184808 -0.817461 0 0
  phy
    3 -1.266372 20.421844 -68.774221 -0.793231 0.132679 -0.594291 0 0
    3 -1.181329 -40.853887 -78.674032 -0.111642 0.149225 -0.982481 0 0
    3 -1.322571 -41.343818 -78.060558 -0.883344 -0.104176 0.457003 0 0
  phy
    3 -1.269523 20.470327 -64.865378 -0.551100 -0.116744 0.826232 0 0
    3 2.048055 20.470327 -64.865378 0.794321 -0.100839 0.599071 0 0
    3 2.051206 20.421844 -68.774221 0.545531 0.184808 -0.817461 0 0
  phy
    3 -1.266372 20.421844 -68.774221 -0.793231 0.132679 -0.594291 0 0
    3 -1.269523 20.470327 -64.865378 -0.551100 -0.116744 0.826232 0 0
    3 2.051206 20.421844 -68.774221 0.545531 0.184808 -0.817461 0 0
  phy
    3 -1.269523 20.470327 -64.865378 -0.551100 -0.116744 0.826232 0 0
    3 -1.266372 20.421844 -68.774221 -0.793231 0.132679 -0.594291 0 0
    3 -1.322571 -41.343818 -78.060558 -0.883344 -0.104176 0.457003 0 0
  phy
    4 -0.440304 -41.634638 -79.403849 -0.448788 -0.749865 -0.486099 0 0
    4 0.440802 -41.634901 -79.403681 0.846909 -0.415003 -0.332441 0 0
    4 0.428587 -47.516565 -69.482058 0.294469 -0.844877 -0.446622 0 0
  phy
    4 0.428587 -47.516565 -69.482058 0.294469 -0.844877 -0.446622 0 0
    4 -0.478497 -47.516546 -69.481806 -0.868818 -0.438086 -0.230727 0 0
    4 -0.440304 -41.634638 -79.403849 -0.448788 -0.749865 -0.486099 0 0
  phy
    4 0.440802 -41.634901 -79.403681 0.846909 -0.415003 -0.332441 0 0
    4 -0.440304 -41.634638 -79.403849 -0.448788 -0.749865 -0.486099 0 0
    4 -0.439984 -40.583902 -79.374613 -0.859246 0.468606 0.205196 0 0
  phy
    4 -0.439984 -40.583902 -79.374613 -0.859246 0.468606 0.205196 0 0
    4 -0.440304 -41.634638 -79.403849 -0.448788 -0.749865 -0.486099 0 0
    4 -0.478497 -47.516546 -69.481806 -0.868818 -0.438086 -0.230727 0 0
  phy
    4 0.428587 -47.516565 -69.482058 0.294469 -0.844877 -0.446622 0 0
    4 0.475992 -47.434732 -68.426013 0.874699 0.396387 0.278889 0 0
    4 -0.431093 -47.434714 -68.425782 -0.343991 0.769160 0.538575 0 0
  phy
    4 -0.431093 -47.434714 -68.425782 -0.343991 0.769160 0.538575 0 0
    4 -0.478497 -47.516546 -69.481806 -0.868818 -0.438086 -0.230727 0 0
    4 0.428587 -47.516565 -69.482058 0.294469 -0.844877 -0.446622 0 0
  phy
    4 0.440802 -41.634901 -79.403681 0.846909 -0.415003 -0.332441 0 0
    4 0.475992 -47.434732 -68.426013 0.874699 0.396387 0.278889 0 0
    4 0.428587 -47.516565 -69.482058 0.294469 -0.844877 -0.446622 0 0
  phy
    4 -0.431093 -47.434714 -68.425782 -0.343991 0.769160 0.538575 0 0
    4 0.441122 -40.584165 -79.374445 0.459695 0.769628 0.443118 0 0
    4 -0.439984 -40.583902 -79.374613 -0.859246 0.468606 0.205196 0 0
  phy
    4 0.441122 -40.584165 -79.374445 0.459695 0.769628 0.443118 0 0
    4 -0.431093 -47.434714 -68.425782 -0.343991 0.769160 0.538575 0 0
    4 0.475992 -47.434732 -68.426013 0.874699 0.396387 0.278889 0 0
  phy
    4 -0.431093 -47.434714 -68.425782 -0.343991 0.769160 0.538575 0 0
    4 -0.439984 -40.583902 -79.374613 -0.859246 0.468606 0.205196 0 0
    4 -0.478497 -47.516546 -69.481806 -0.868818 -0.438086 -0.230727 0 0
  phy
    4 0.441122 -40.584165 -79.374445 0.459695 0.769628 0.443118 0 0
    4 0.440802 -41.634901 -79.403681 0.846909 -0.415003 -0.332441 0 0
    4 -0.439984 -40.583902 -79.374613 -0.859246 0.468606 0.205196 0 0
  phy
    4 0.441122 -40.584165 -79.374445 0.459695 0.769628 0.443118 0 0
    4 0.475992 -47.434732 -68.426013 0.874699 0.396387 0.278889 0 0
    4 0.440802 -41.634901 -79.403681 0.846909 -0.415003 -0.332441 0 0
end
