// Created by Crowbar 0.74
version 1
nodes
  0 "polymsh" -1
end
skeleton
  time 0
    0 0.000000 0.000000 0.000000 1.570796 0.000000 0.000000
end
triangles
Box_dropper
  0 8.703575 10.437786 1.467844 -0.707069 0.707144 0.000000 0.417858 0.439546 1 0 1.000000
  0 -14.415824 -12.679173 2.467844 -0.707069 0.707144 0.000000 0.527742 0.442907 1 0 1.000000
  0 8.703575 10.437786 2.467844 -0.707069 0.707144 0.000000 0.417858 0.442907 1 0 1.000000
Box_dropper
  0 8.703575 10.437786 1.467844 -0.707069 0.707144 0.000000 0.417858 0.439546 1 0 1.000000
  0 -14.415824 -12.679173 1.467843 -0.707069 0.707144 0.000000 0.527742 0.439546 1 0 1.000000
  0 -14.415824 -12.679173 2.467844 -0.707069 0.707144 0.000000 0.527742 0.442907 1 0 1.000000
Box_dropper
  0 -14.415824 -12.679173 -1.587022 -0.499987 0.500013 -0.707107 0.207390 0.477306 1 0 1.000000
  0 -14.101067 -12.993931 -2.032156 -0.499987 0.500013 -0.707107 0.208488 0.478404 1 0 1.000000
  0 -14.392025 -13.284890 -2.032156 -0.500000 0.500000 -0.707107 0.207473 0.479420 1 0 1.000000
Box_dropper
  0 -14.415824 -12.679173 -1.587022 -0.499987 0.500013 -0.707107 0.207390 0.477306 1 0 1.000000
  0 9.018333 10.123028 -2.032156 -0.499974 0.500026 -0.707107 0.289158 0.397743 1 0 1.000000
  0 -14.101067 -12.993931 -2.032156 -0.499987 0.500013 -0.707107 0.208488 0.478404 1 0 1.000000
Box_dropper
  0 -14.415824 -12.679173 -1.587022 -0.499987 0.500013 -0.707107 0.207390 0.477306 1 0 1.000000
  0 8.703575 10.437786 -1.587021 -0.499974 0.500026 -0.707107 0.288060 0.396644 1 0 1.000000
  0 9.018333 10.123028 -2.032156 -0.499974 0.500026 -0.707107 0.289158 0.397743 1 0 1.000000
Box_dropper
  0 -22.934076 -22.787008 -2.127157 0.000000 -1.000000 0.000000 0.533798 0.429723 1 0 1.000000
  0 -9.674983 -22.787008 2.467843 0.000000 -1.000000 0.000000 0.573754 0.443571 1 0 1.000000
  0 -22.934076 -22.787008 2.467843 0.000000 -1.000000 0.000000 0.533798 0.443571 1 0 1.000000
Box_dropper
  0 -22.934076 -22.787008 -2.127157 0.000000 -1.000000 0.000000 0.533798 0.429723 1 0 1.000000
  0 -18.361797 -22.787008 -2.127157 0.000000 -1.000000 0.000000 0.547576 0.429723 1 0 1.000000
  0 -9.674983 -22.787008 2.467843 0.000000 -1.000000 0.000000 0.573754 0.443571 1 0 1.000000
Box_dropper
  0 -18.361797 -22.787008 -2.127157 0.000000 -1.000000 0.000000 0.547576 0.429723 1 0 1.000000
  0 -9.674983 -22.787008 1.467843 0.000000 -1.000000 0.000000 0.573754 0.440557 1 0 1.000000
  0 -9.674983 -22.787008 2.467843 0.000000 -1.000000 0.000000 0.573754 0.443571 1 0 1.000000
Box_dropper
  0 -17.997564 -22.787008 -3.746157 0.000000 -1.000000 0.000000 0.548674 0.424845 1 0 1.000000
  0 -17.307621 -22.787008 -3.746157 0.000000 -1.000000 0.000000 0.550753 0.424845 1 0 1.000000
  0 -18.361797 -22.787008 -3.383047 0.000000 -1.000000 0.000000 0.547576 0.425939 1 0 1.000000
Box_dropper
  0 -18.361797 -22.787008 -2.127157 0.000000 -1.000000 0.000000 0.547576 0.429723 1 0 1.000000
  0 -18.361797 -22.787008 -3.383047 0.000000 -1.000000 0.000000 0.547576 0.425939 1 0 1.000000
  0 -17.307621 -22.787008 -3.746157 0.000000 -1.000000 0.000000 0.550753 0.424845 1 0 1.000000
Box_dropper
  0 -18.361797 -22.787008 -2.127157 0.000000 -1.000000 0.000000 0.547576 0.429723 1 0 1.000000
  0 -17.307621 -22.787008 -3.746157 0.000000 -1.000000 0.000000 0.550753 0.424845 1 0 1.000000
  0 -16.304529 -22.787008 -2.032157 0.000000 -1.000000 0.000000 0.553776 0.430010 1 0 1.000000
Box_dropper
  0 -18.361797 -22.787008 -2.127157 0.000000 -1.000000 0.000000 0.547576 0.429723 1 0 1.000000
  0 -16.304529 -22.787008 -2.032157 0.000000 -1.000000 0.000000 0.553776 0.430010 1 0 1.000000
  0 -9.674983 -22.787008 1.467843 0.000000 -1.000000 0.000000 0.573754 0.440557 1 0 1.000000
Box_dropper
  0 -9.674983 -22.787008 1.467843 0.000000 -1.000000 0.000000 0.573754 0.440557 1 0 1.000000
  0 -16.304529 -22.787008 -2.032157 0.000000 -1.000000 0.000000 0.553776 0.430010 1 0 1.000000
  0 -9.674983 -22.787008 -0.532157 0.000000 -1.000000 0.000000 0.573754 0.435194 1 0 1.000000
Box_dropper
  0 -10.121494 -22.787008 -2.032157 0.000000 -1.000000 0.000000 0.572409 0.430010 1 0 1.000000
  0 -9.674983 -22.787008 -0.532157 0.000000 -1.000000 0.000000 0.573754 0.435194 1 0 1.000000
  0 -16.304529 -22.787008 -2.032157 0.000000 -1.000000 0.000000 0.553776 0.430010 1 0 1.000000
Box_dropper
  0 -10.121494 -22.787008 -2.032157 0.000000 -1.000000 0.000000 0.572409 0.430010 1 0 1.000000
  0 -9.674983 -22.787008 -1.587022 0.000000 -1.000000 0.000000 0.573754 0.431351 1 0 1.000000
  0 -9.674983 -22.787008 -0.532157 0.000000 -1.000000 0.000000 0.573754 0.435194 1 0 1.000000
Box_dropper
  0 -9.674983 -22.787008 -0.532157 0.000000 -1.000000 0.000000 0.573754 0.434530 1 0 1.000000
  0 23.018923 -22.787008 1.467843 0.000000 -1.000000 0.000000 0.672278 0.440557 1 0 1.000000
  0 -9.674983 -22.787008 1.467843 0.000000 -1.000000 0.000000 0.573754 0.440557 1 0 1.000000
Box_dropper
  0 -9.674983 -22.787008 -0.532157 0.000000 -1.000000 0.000000 0.573754 0.434530 1 0 1.000000
  0 23.018923 -22.787008 -0.532157 0.000000 -1.000000 0.000000 0.672278 0.434530 1 0 1.000000
  0 23.018923 -22.787008 1.467843 0.000000 -1.000000 0.000000 0.672278 0.440557 1 0 1.000000
Box_dropper
  0 -22.934076 -9.527914 -1.587021 0.055479 0.704927 -0.707107 0.177668 0.466310 1 0 1.000000
  0 -20.929747 -10.132170 -2.032156 0.110445 0.697322 -0.708197 0.184661 0.468419 1 0 1.000000
  0 -22.934076 -9.974425 -2.032156 0.055479 0.704927 -0.707107 0.177668 0.467868 1 0 1.000000
Box_dropper
  0 -22.934076 -9.527914 -1.587021 0.055479 0.704927 -0.707107 0.177668 0.466310 1 0 1.000000
  0 -20.859898 -9.691155 -1.587022 0.110445 0.697322 -0.708197 0.184905 0.466880 1 0 1.000000
  0 -20.929747 -10.132170 -2.032156 0.110445 0.697322 -0.708197 0.184661 0.468419 1 0 1.000000
Box_dropper
  0 -20.859898 -9.691155 -1.587022 0.110445 0.697322 -0.708197 0.184905 0.466880 1 0 1.000000
  0 -18.974771 -10.601518 -2.032156 0.218170 0.671460 -0.708197 0.191483 0.470057 1 0 1.000000
  0 -20.929747 -10.132170 -2.032156 0.110445 0.697322 -0.708197 0.184661 0.468419 1 0 1.000000
Box_dropper
  0 -20.859898 -9.691155 -1.587022 0.110445 0.697322 -0.708197 0.184905 0.466880 1 0 1.000000
  0 -18.836792 -10.176861 -1.587022 0.218170 0.671460 -0.708197 0.191964 0.468575 1 0 1.000000
  0 -18.974771 -10.601518 -2.032156 0.218170 0.671460 -0.708197 0.191483 0.470057 1 0 1.000000
Box_dropper
  0 -18.836792 -10.176861 -1.587022 0.218170 0.671460 -0.708197 0.191964 0.468575 1 0 1.000000
  0 -17.117287 -11.370914 -2.032156 0.320524 0.629063 -0.708197 0.197964 0.472741 1 0 1.000000
  0 -18.974771 -10.601518 -2.032156 0.218170 0.671460 -0.708197 0.191483 0.470057 1 0 1.000000
Box_dropper
  0 -18.836792 -10.176861 -1.587022 0.218170 0.671460 -0.708197 0.191964 0.468575 1 0 1.000000
  0 -16.914574 -10.973069 -1.587022 0.320524 0.629063 -0.708197 0.198671 0.471353 1 0 1.000000
  0 -17.117287 -11.370914 -2.032156 0.320524 0.629063 -0.708197 0.197964 0.472741 1 0 1.000000
Box_dropper
  0 -16.914574 -10.973069 -1.587022 0.320524 0.629063 -0.708197 0.198671 0.471353 1 0 1.000000
  0 -15.403029 -12.421412 -2.032156 0.414985 0.571178 -0.708197 0.203945 0.476407 1 0 1.000000
  0 -17.117287 -11.370914 -2.032156 0.320524 0.629063 -0.708197 0.197964 0.472741 1 0 1.000000
Box_dropper
  0 -16.914574 -10.973069 -1.587022 0.320524 0.629063 -0.708197 0.198671 0.471353 1 0 1.000000
  0 -15.140577 -12.060176 -1.587022 0.414985 0.571178 -0.708197 0.204861 0.475146 1 0 1.000000
  0 -15.403029 -12.421412 -2.032156 0.414985 0.571178 -0.708197 0.203945 0.476407 1 0 1.000000
Box_dropper
  0 -15.140577 -12.060176 -1.587022 0.414985 0.571178 -0.708197 0.204861 0.475146 1 0 1.000000
  0 -14.392025 -13.284890 -2.032156 0.459229 0.537688 -0.707107 0.207473 0.479420 1 0 1.000000
  0 -15.403029 -12.421412 -2.032156 0.414985 0.571178 -0.708197 0.203945 0.476407 1 0 1.000000
Box_dropper
  0 -15.140577 -12.060176 -1.587022 0.414985 0.571178 -0.708197 0.204861 0.475146 1 0 1.000000
  0 -14.415824 -12.679173 -1.587022 0.459229 0.537688 -0.707107 0.207390 0.477306 1 0 1.000000
  0 -14.392025 -13.284890 -2.032156 0.459229 0.537688 -0.707107 0.207473 0.479420 1 0 1.000000
Box_dropper
  0 8.703575 10.437786 2.467844 0.000000 0.000000 1.000000 0.299573 0.055692 1 0 1.000000
  0 -12.826241 -14.268755 2.467843 0.000000 0.000000 1.000000 0.213365 0.130815 1 0 1.000000
  0 10.290717 8.850644 2.467844 0.000000 0.000000 1.000000 0.294035 0.050154 1 0 1.000000
Box_dropper
  0 8.703575 10.437786 2.467844 0.000000 0.000000 1.000000 0.299573 0.055692 1 0 1.000000
  0 -14.415824 -12.679173 2.467844 0.000000 0.000000 1.000000 0.218911 0.136362 1 0 1.000000
  0 -12.826241 -14.268755 2.467843 0.000000 0.000000 1.000000 0.213365 0.130815 1 0 1.000000
Box_dropper
  0 -20.859898 -9.691155 2.467844 0.000000 0.000000 1.000000 0.229338 0.158847 1 0 1.000000
  0 -22.934076 -9.527914 2.467844 0.000000 0.000000 1.000000 0.229907 0.166084 1 0 1.000000
  0 -22.934076 -22.787008 2.467843 0.000000 0.000000 1.000000 0.183642 0.166084 1 0 1.000000
Box_dropper
  0 -18.836792 -10.176861 2.467844 0.000000 0.000000 1.000000 0.227643 0.151788 1 0 1.000000
  0 -20.859898 -9.691155 2.467844 0.000000 0.000000 1.000000 0.229338 0.158847 1 0 1.000000
  0 -22.934076 -22.787008 2.467843 0.000000 0.000000 1.000000 0.183642 0.166084 1 0 1.000000
Box_dropper
  0 -16.914574 -10.973069 2.467844 0.000000 0.000000 1.000000 0.224865 0.145081 1 0 1.000000
  0 -18.836792 -10.176861 2.467844 0.000000 0.000000 1.000000 0.227643 0.151788 1 0 1.000000
  0 -22.934076 -22.787008 2.467843 0.000000 0.000000 1.000000 0.183642 0.166084 1 0 1.000000
Box_dropper
  0 -15.140577 -12.060176 2.467844 0.000000 0.000000 1.000000 0.221071 0.138891 1 0 1.000000
  0 -16.914574 -10.973069 2.467844 0.000000 0.000000 1.000000 0.224865 0.145081 1 0 1.000000
  0 -22.934076 -22.787008 2.467843 0.000000 0.000000 1.000000 0.183642 0.166084 1 0 1.000000
Box_dropper
  0 -14.415824 -12.679173 2.467844 0.000000 0.000000 1.000000 0.218911 0.136362 1 0 1.000000
  0 -15.140577 -12.060176 2.467844 0.000000 0.000000 1.000000 0.221071 0.138891 1 0 1.000000
  0 -22.934076 -22.787008 2.467843 0.000000 0.000000 1.000000 0.183642 0.166084 1 0 1.000000
Box_dropper
  0 -14.415824 -12.679173 2.467844 0.000000 0.000000 1.000000 0.218911 0.136362 1 0 1.000000
  0 -22.934076 -22.787008 2.467843 0.000000 0.000000 1.000000 0.183642 0.166084 1 0 1.000000
  0 -14.355730 -14.208662 2.467843 0.000000 0.000000 1.000000 0.213575 0.136152 1 0 1.000000
Box_dropper
  0 -14.415824 -12.679173 2.467844 0.000000 0.000000 1.000000 0.218911 0.136362 1 0 1.000000
  0 -14.355730 -14.208662 2.467843 0.000000 0.000000 1.000000 0.213575 0.136152 1 0 1.000000
  0 -12.826241 -14.268755 2.467843 0.000000 0.000000 1.000000 0.213365 0.130815 1 0 1.000000
Box_dropper
  0 -12.207245 -14.993508 2.467843 0.000000 0.000000 1.000000 0.210836 0.128655 1 0 1.000000
  0 -12.826241 -14.268755 2.467843 0.000000 0.000000 1.000000 0.213365 0.130815 1 0 1.000000
  0 -14.355730 -14.208662 2.467843 0.000000 0.000000 1.000000 0.213575 0.136152 1 0 1.000000
Box_dropper
  0 -12.207245 -14.993508 2.467843 0.000000 0.000000 1.000000 0.210836 0.128655 1 0 1.000000
  0 -14.355730 -14.208662 2.467843 0.000000 0.000000 1.000000 0.213575 0.136152 1 0 1.000000
  0 -22.934076 -22.787008 2.467843 0.000000 0.000000 1.000000 0.183642 0.166084 1 0 1.000000
Box_dropper
  0 -11.120138 -16.767506 2.467843 0.000000 0.000000 1.000000 0.204646 0.124862 1 0 1.000000
  0 -12.207245 -14.993508 2.467843 0.000000 0.000000 1.000000 0.210836 0.128655 1 0 1.000000
  0 -22.934076 -22.787008 2.467843 0.000000 0.000000 1.000000 0.183642 0.166084 1 0 1.000000
Box_dropper
  0 -10.323929 -18.689722 2.467843 0.000000 0.000000 1.000000 0.197939 0.122084 1 0 1.000000
  0 -11.120138 -16.767506 2.467843 0.000000 0.000000 1.000000 0.204646 0.124862 1 0 1.000000
  0 -22.934076 -22.787008 2.467843 0.000000 0.000000 1.000000 0.183642 0.166084 1 0 1.000000
Box_dropper
  0 -9.838224 -20.712828 2.467843 0.000000 0.000000 1.000000 0.190880 0.120389 1 0 1.000000
  0 -10.323929 -18.689722 2.467843 0.000000 0.000000 1.000000 0.197939 0.122084 1 0 1.000000
  0 -22.934076 -22.787008 2.467843 0.000000 0.000000 1.000000 0.183642 0.166084 1 0 1.000000
Box_dropper
  0 -9.674983 -22.787008 2.467843 0.000000 0.000000 1.000000 0.183642 0.119820 1 0 1.000000
  0 -9.838224 -20.712828 2.467843 0.000000 0.000000 1.000000 0.190880 0.120389 1 0 1.000000
  0 -22.934076 -22.787008 2.467843 0.000000 0.000000 1.000000 0.183642 0.166084 1 0 1.000000
Box_dropper
  0 -12.826241 -14.268755 -1.587022 0.500013 -0.499987 -0.707107 0.212937 0.482853 1 0 1.000000
  0 -13.431959 -14.244957 -2.032157 0.500000 -0.500000 -0.707107 0.210823 0.482770 1 0 1.000000
  0 -13.141000 -13.953998 -2.032157 0.500013 -0.499987 -0.707107 0.211838 0.481754 1 0 1.000000
Box_dropper
  0 -13.141000 -13.953998 -2.032157 0.500013 -0.499987 -0.707107 0.211838 0.481754 1 0 1.000000
  0 10.290717 8.850644 -1.587021 0.500026 -0.499974 -0.707107 0.293598 0.402182 1 0 1.000000
  0 -12.826241 -14.268755 -1.587022 0.500013 -0.499987 -0.707107 0.212937 0.482853 1 0 1.000000
Box_dropper
  0 -13.141000 -13.953998 -2.032157 0.500013 -0.499987 -0.707107 0.211838 0.481754 1 0 1.000000
  0 9.975959 9.165402 -2.032156 0.500026 -0.499974 -0.707107 0.292500 0.401084 1 0 1.000000
  0 10.290717 8.850644 -1.587021 0.500026 -0.499974 -0.707107 0.293598 0.402182 1 0 1.000000
Box_dropper
  0 -22.934076 23.165993 -0.532155 -1.000000 0.000000 0.000000 0.533940 0.416479 1 0 1.000000
  0 -22.934076 -9.527914 1.467844 -1.000000 0.000000 0.000000 0.632464 0.422506 1 0 1.000000
  0 -22.934076 23.165993 1.467845 -1.000000 0.000000 0.000000 0.533940 0.422506 1 0 1.000000
Box_dropper
  0 -22.934076 23.165993 -0.532155 -1.000000 0.000000 0.000000 0.533940 0.416479 1 0 1.000000
  0 -22.934076 -9.527914 -0.532157 -1.000000 0.000000 0.000000 0.632464 0.416479 1 0 1.000000
  0 -22.934076 -9.527914 1.467844 -1.000000 0.000000 0.000000 0.632464 0.422506 1 0 1.000000
Box_dropper
  0 -22.934076 -18.214727 -2.127157 -1.000000 0.000000 0.000000 0.658642 0.411672 1 0 1.000000
  0 -22.934076 -22.787008 -2.127157 -1.000000 0.000000 0.000000 0.672421 0.411672 1 0 1.000000
  0 -22.934076 -22.787008 2.467843 -1.000000 0.000000 0.000000 0.672421 0.425519 1 0 1.000000
Box_dropper
  0 -22.934076 -18.214727 -2.127157 -1.000000 0.000000 0.000000 0.658642 0.411672 1 0 1.000000
  0 -22.934076 -22.787008 2.467843 -1.000000 0.000000 0.000000 0.672421 0.425519 1 0 1.000000
  0 -22.934076 -9.527914 2.467844 -1.000000 0.000000 0.000000 0.632464 0.425519 1 0 1.000000
Box_dropper
  0 -22.934076 -16.157461 -2.032157 -1.000000 0.000000 0.000000 0.652442 0.411959 1 0 1.000000
  0 -22.934076 -18.214727 -2.127157 -1.000000 0.000000 0.000000 0.658642 0.411672 1 0 1.000000
  0 -22.934076 -9.527914 2.467844 -1.000000 0.000000 0.000000 0.632464 0.425519 1 0 1.000000
Box_dropper
  0 -22.934076 -16.157461 -2.032157 -1.000000 0.000000 0.000000 0.652442 0.411959 1 0 1.000000
  0 -22.934076 -9.527914 2.467844 -1.000000 0.000000 0.000000 0.632464 0.425519 1 0 1.000000
  0 -22.934076 -9.527914 1.467844 -1.000000 0.000000 0.000000 0.632464 0.422506 1 0 1.000000
Box_dropper
  0 -22.934076 -9.527914 1.467844 -1.000000 0.000000 0.000000 0.632464 0.422506 1 0 1.000000
  0 -22.934076 -9.527914 -0.532157 -1.000000 0.000000 0.000000 0.632464 0.417242 1 0 1.000000
  0 -22.934076 -16.157461 -2.032157 -1.000000 0.000000 0.000000 0.652442 0.411959 1 0 1.000000
Box_dropper
  0 -22.934076 -9.527914 -1.587021 -1.000000 0.000000 0.000000 0.632464 0.413300 1 0 1.000000
  0 -22.934076 -16.157461 -2.032157 -1.000000 0.000000 0.000000 0.652442 0.411959 1 0 1.000000
  0 -22.934076 -9.527914 -0.532157 -1.000000 0.000000 0.000000 0.632464 0.417242 1 0 1.000000
Box_dropper
  0 -22.934076 -9.527914 -1.587021 -1.000000 0.000000 0.000000 0.632464 0.413300 1 0 1.000000
  0 -22.934076 -9.974425 -2.032156 -1.000000 0.000000 0.000000 0.633809 0.411959 1 0 1.000000
  0 -22.934076 -16.157461 -2.032157 -1.000000 0.000000 0.000000 0.652442 0.411959 1 0 1.000000
Box_dropper
  0 -22.934076 -16.157461 -2.032157 -1.000000 0.000000 0.000000 0.652442 0.411959 1 0 1.000000
  0 -22.934076 -18.214727 -3.383047 -1.000000 0.000000 0.000000 0.658642 0.407888 1 0 1.000000
  0 -22.934076 -18.214727 -2.127157 -1.000000 0.000000 0.000000 0.658642 0.411672 1 0 1.000000
Box_dropper
  0 -22.934076 -16.157461 -2.032157 -1.000000 0.000000 0.000000 0.652442 0.411959 1 0 1.000000
  0 -22.934076 -17.160553 -3.746157 -1.000000 0.000000 0.000000 0.655465 0.406794 1 0 1.000000
  0 -22.934076 -18.214727 -3.383047 -1.000000 0.000000 0.000000 0.658642 0.407888 1 0 1.000000
Box_dropper
  0 -22.934076 -17.850494 -3.746157 -1.000000 0.000000 0.000000 0.657544 0.406794 1 0 1.000000
  0 -22.934076 -18.214727 -3.383047 -1.000000 0.000000 0.000000 0.658642 0.407888 1 0 1.000000
  0 -22.934076 -17.160553 -3.746157 -1.000000 0.000000 0.000000 0.655465 0.406794 1 0 1.000000
Box_dropper
  0 -9.674983 -22.787008 -0.532157 0.000000 0.000000 -1.000000 0.223932 0.512575 1 0 1.000000
  0 22.453165 -15.598374 -0.532157 0.000000 0.000000 -1.000000 0.336036 0.487492 1 0 1.000000
  0 23.018923 -22.787008 -0.532157 0.000000 0.000000 -1.000000 0.338010 0.512575 1 0 1.000000
Box_dropper
  0 -9.674983 -22.787008 -0.532157 0.000000 0.000000 -1.000000 0.223932 0.512575 1 0 1.000000
  0 -9.838224 -20.712828 -0.532157 0.000000 0.000000 -1.000000 0.223363 0.505338 1 0 1.000000
  0 22.453165 -15.598374 -0.532157 0.000000 0.000000 -1.000000 0.336036 0.487492 1 0 1.000000
Box_dropper
  0 -9.838224 -20.712828 -0.532157 0.000000 0.000000 -1.000000 0.223363 0.505338 1 0 1.000000
  0 20.769823 -8.586750 -0.532156 0.000000 0.000000 -1.000000 0.330163 0.463026 1 0 1.000000
  0 22.453165 -15.598374 -0.532157 0.000000 0.000000 -1.000000 0.336036 0.487492 1 0 1.000000
Box_dropper
  0 -9.838224 -20.712828 -0.532157 0.000000 0.000000 -1.000000 0.223363 0.505338 1 0 1.000000
  0 -10.323929 -18.689722 -0.532157 0.000000 0.000000 -1.000000 0.221668 0.498279 1 0 1.000000
  0 20.769823 -8.586750 -0.532156 0.000000 0.000000 -1.000000 0.330163 0.463026 1 0 1.000000
Box_dropper
  0 -10.323929 -18.689722 -0.532157 0.000000 0.000000 -1.000000 0.221668 0.498279 1 0 1.000000
  0 18.010345 -1.924782 -0.532156 0.000000 0.000000 -1.000000 0.320534 0.439781 1 0 1.000000
  0 20.769823 -8.586750 -0.532156 0.000000 0.000000 -1.000000 0.330163 0.463026 1 0 1.000000
Box_dropper
  0 -10.323929 -18.689722 -0.532157 0.000000 0.000000 -1.000000 0.221668 0.498279 1 0 1.000000
  0 -11.120138 -16.767506 -0.532157 0.000000 0.000000 -1.000000 0.218890 0.491571 1 0 1.000000
  0 18.010345 -1.924782 -0.532156 0.000000 0.000000 -1.000000 0.320534 0.439781 1 0 1.000000
Box_dropper
  0 -11.120138 -16.767506 -0.532157 0.000000 0.000000 -1.000000 0.218890 0.491571 1 0 1.000000
  0 14.242682 4.223488 -0.532156 0.000000 0.000000 -1.000000 0.307388 0.418328 1 0 1.000000
  0 18.010345 -1.924782 -0.532156 0.000000 0.000000 -1.000000 0.320534 0.439781 1 0 1.000000
Box_dropper
  0 -11.120138 -16.767506 -0.532157 0.000000 0.000000 -1.000000 0.218890 0.491571 1 0 1.000000
  0 -12.207245 -14.993508 -0.532157 0.000000 0.000000 -1.000000 0.215096 0.485381 1 0 1.000000
  0 14.242682 4.223488 -0.532156 0.000000 0.000000 -1.000000 0.307388 0.418328 1 0 1.000000
Box_dropper
  0 -12.207245 -14.993508 -0.532157 0.000000 0.000000 -1.000000 0.215096 0.485381 1 0 1.000000
  0 10.290717 8.850644 -0.532156 0.000000 0.000000 -1.000000 0.293598 0.402182 1 0 1.000000
  0 14.242682 4.223488 -0.532156 0.000000 0.000000 -1.000000 0.307388 0.418328 1 0 1.000000
Box_dropper
  0 -12.207245 -14.993508 -0.532157 0.000000 0.000000 -1.000000 0.215096 0.485381 1 0 1.000000
  0 -12.826241 -14.268755 -0.532157 0.000000 0.000000 -1.000000 0.212937 0.482853 1 0 1.000000
  0 10.290717 8.850644 -0.532156 0.000000 0.000000 -1.000000 0.293598 0.402182 1 0 1.000000
Box_dropper
  0 -22.934076 -9.527914 -0.532157 0.078459 0.996917 0.000000 0.718994 0.381403 1 0 1.000000
  0 -20.859898 -9.691155 -1.587022 0.156434 0.987688 0.000000 0.711819 0.376263 1 0 1.000000
  0 -22.934076 -9.527914 -1.587021 0.078459 0.996917 0.000000 0.718994 0.376263 1 0 1.000000
Box_dropper
  0 -22.934076 -9.527914 -0.532157 0.078459 0.996917 0.000000 0.718994 0.381403 1 0 1.000000
  0 -20.859898 -9.691155 -0.532157 0.156434 0.987688 0.000000 0.711819 0.381403 1 0 1.000000
  0 -20.859898 -9.691155 -1.587022 0.156434 0.987688 0.000000 0.711819 0.376263 1 0 1.000000
Box_dropper
  0 -20.859898 -9.691155 -0.532157 0.156434 0.987688 0.000000 0.711819 0.381403 1 0 1.000000
  0 -18.836792 -10.176861 -1.587022 0.309017 0.951056 0.000000 0.704643 0.376263 1 0 1.000000
  0 -20.859898 -9.691155 -1.587022 0.156434 0.987688 0.000000 0.711819 0.376263 1 0 1.000000
Box_dropper
  0 -20.859898 -9.691155 -0.532157 0.156434 0.987688 0.000000 0.711819 0.381403 1 0 1.000000
  0 -18.836792 -10.176861 -0.532157 0.309017 0.951056 0.000000 0.704643 0.381403 1 0 1.000000
  0 -18.836792 -10.176861 -1.587022 0.309017 0.951056 0.000000 0.704643 0.376263 1 0 1.000000
Box_dropper
  0 -18.836792 -10.176861 -0.532157 0.309017 0.951056 0.000000 0.704643 0.381403 1 0 1.000000
  0 -16.914574 -10.973069 -1.587022 0.453991 0.891006 0.000000 0.697468 0.376263 1 0 1.000000
  0 -18.836792 -10.176861 -1.587022 0.309017 0.951056 0.000000 0.704643 0.376263 1 0 1.000000
Box_dropper
  0 -18.836792 -10.176861 -0.532157 0.309017 0.951056 0.000000 0.704643 0.381403 1 0 1.000000
  0 -16.914574 -10.973069 -0.532157 0.453991 0.891006 0.000000 0.697468 0.381403 1 0 1.000000
  0 -16.914574 -10.973069 -1.587022 0.453991 0.891006 0.000000 0.697468 0.376263 1 0 1.000000
Box_dropper
  0 -16.914574 -10.973069 -0.532157 0.453991 0.891006 0.000000 0.697468 0.381403 1 0 1.000000
  0 -15.140577 -12.060176 -1.587022 0.587785 0.809017 0.000000 0.690293 0.376263 1 0 1.000000
  0 -16.914574 -10.973069 -1.587022 0.453991 0.891006 0.000000 0.697468 0.376263 1 0 1.000000
Box_dropper
  0 -16.914574 -10.973069 -0.532157 0.453991 0.891006 0.000000 0.697468 0.381403 1 0 1.000000
  0 -15.140577 -12.060176 -0.532157 0.587785 0.809017 0.000000 0.690293 0.381403 1 0 1.000000
  0 -15.140577 -12.060176 -1.587022 0.587785 0.809017 0.000000 0.690293 0.376263 1 0 1.000000
Box_dropper
  0 -15.140577 -12.060176 -0.532157 0.587785 0.809017 0.000000 0.690293 0.381403 1 0 1.000000
  0 -14.415824 -12.679173 -1.587022 0.649448 0.760406 0.000000 0.687006 0.376263 1 0 1.000000
  0 -15.140577 -12.060176 -1.587022 0.587785 0.809017 0.000000 0.690293 0.376263 1 0 1.000000
Box_dropper
  0 -15.140577 -12.060176 -0.532157 0.587785 0.809017 0.000000 0.690293 0.381403 1 0 1.000000
  0 -14.415824 -12.679173 -0.532157 0.649448 0.760406 0.000000 0.687006 0.381403 1 0 1.000000
  0 -14.415824 -12.679173 -1.587022 0.649448 0.760406 0.000000 0.687006 0.376263 1 0 1.000000
Box_dropper
  0 -14.415824 -12.679173 -0.532157 -0.707069 0.707144 0.000000 0.526601 0.534927 1 0 1.000000
  0 8.703575 10.437786 -1.587021 -0.707069 0.707144 0.000000 0.416717 0.531382 1 0 1.000000
  0 -14.415824 -12.679173 -1.587022 -0.707069 0.707144 0.000000 0.526601 0.531382 1 0 1.000000
Box_dropper
  0 -14.415824 -12.679173 -0.532157 -0.707069 0.707144 0.000000 0.526601 0.534927 1 0 1.000000
  0 8.703575 10.437786 -0.532156 -0.707069 0.707144 0.000000 0.416717 0.534927 1 0 1.000000
  0 8.703575 10.437786 -1.587021 -0.707069 0.707144 0.000000 0.416717 0.531382 1 0 1.000000
Box_dropper
  0 10.290717 8.850644 -0.532156 0.707144 -0.707069 0.000000 0.526349 0.520404 1 0 1.000000
  0 -12.826241 -14.268755 -1.587022 0.707144 -0.707069 0.000000 0.416465 0.516859 1 0 1.000000
  0 10.290717 8.850644 -1.587021 0.707144 -0.707069 0.000000 0.526349 0.516859 1 0 1.000000
Box_dropper
  0 10.290717 8.850644 -0.532156 0.707144 -0.707069 0.000000 0.526349 0.520404 1 0 1.000000
  0 -12.826241 -14.268755 -0.532157 0.707144 -0.707069 0.000000 0.416465 0.520404 1 0 1.000000
  0 -12.826241 -14.268755 -1.587022 0.707144 -0.707069 0.000000 0.416465 0.516859 1 0 1.000000
Box_dropper
  0 -12.826241 -14.268755 1.467843 0.707144 -0.707069 0.000000 0.416333 0.476823 1 0 1.000000
  0 10.290717 8.850644 2.467844 0.707144 -0.707069 0.000000 0.526217 0.480184 1 0 1.000000
  0 -12.826241 -14.268755 2.467843 0.707144 -0.707069 0.000000 0.416333 0.480184 1 0 1.000000
Box_dropper
  0 -12.826241 -14.268755 1.467843 0.707144 -0.707069 0.000000 0.416333 0.476823 1 0 1.000000
  0 10.290717 8.850644 1.467844 0.707144 -0.707069 0.000000 0.526217 0.476823 1 0 1.000000
  0 10.290717 8.850644 2.467844 0.707144 -0.707069 0.000000 0.526217 0.480184 1 0 1.000000
Box_dropper
  0 -22.934076 -9.974425 -2.032156 0.000000 0.000000 -1.000000 0.177668 0.467868 1 0 1.000000
  0 -21.896986 -16.239082 -2.032157 0.000000 0.000000 -1.000000 0.181286 0.489728 1 0 1.000000
  0 -22.934076 -16.157461 -2.032157 0.000000 0.000000 -1.000000 0.177668 0.489443 1 0 1.000000
Box_dropper
  0 -22.934076 -9.974425 -2.032156 0.000000 0.000000 -1.000000 0.177668 0.467868 1 0 1.000000
  0 -20.929747 -10.132170 -2.032156 0.000000 0.000000 -1.000000 0.184661 0.468419 1 0 1.000000
  0 -21.896986 -16.239082 -2.032157 0.000000 0.000000 -1.000000 0.181286 0.489728 1 0 1.000000
Box_dropper
  0 -20.929747 -10.132170 -2.032156 0.000000 0.000000 -1.000000 0.184661 0.468419 1 0 1.000000
  0 -20.885433 -16.481934 -2.032157 0.000000 0.000000 -1.000000 0.184816 0.490575 1 0 1.000000
  0 -21.896986 -16.239082 -2.032157 0.000000 0.000000 -1.000000 0.181286 0.489728 1 0 1.000000
Box_dropper
  0 -20.929747 -10.132170 -2.032156 0.000000 0.000000 -1.000000 0.184661 0.468419 1 0 1.000000
  0 -18.974771 -10.601518 -2.032156 0.000000 0.000000 -1.000000 0.191483 0.470057 1 0 1.000000
  0 -20.885433 -16.481934 -2.032157 0.000000 0.000000 -1.000000 0.184816 0.490575 1 0 1.000000
Box_dropper
  0 -18.974771 -10.601518 -2.032156 0.000000 0.000000 -1.000000 0.191483 0.470057 1 0 1.000000
  0 -19.924326 -16.880039 -2.032157 0.000000 0.000000 -1.000000 0.188169 0.491964 1 0 1.000000
  0 -20.885433 -16.481934 -2.032157 0.000000 0.000000 -1.000000 0.184816 0.490575 1 0 1.000000
Box_dropper
  0 -18.974771 -10.601518 -2.032156 0.000000 0.000000 -1.000000 0.191483 0.470057 1 0 1.000000
  0 -17.117287 -11.370914 -2.032156 0.000000 0.000000 -1.000000 0.197964 0.472741 1 0 1.000000
  0 -19.924326 -16.880039 -2.032157 0.000000 0.000000 -1.000000 0.188169 0.491964 1 0 1.000000
Box_dropper
  0 -17.117287 -11.370914 -2.032156 0.000000 0.000000 -1.000000 0.197964 0.472741 1 0 1.000000
  0 -19.037327 -17.423592 -2.032157 0.000000 0.000000 -1.000000 0.191264 0.493861 1 0 1.000000
  0 -19.924326 -16.880039 -2.032157 0.000000 0.000000 -1.000000 0.188169 0.491964 1 0 1.000000
Box_dropper
  0 -17.117287 -11.370914 -2.032156 0.000000 0.000000 -1.000000 0.197964 0.472741 1 0 1.000000
  0 -15.403029 -12.421412 -2.032156 0.000000 0.000000 -1.000000 0.203945 0.476407 1 0 1.000000
  0 -19.037327 -17.423592 -2.032157 0.000000 0.000000 -1.000000 0.191264 0.493861 1 0 1.000000
Box_dropper
  0 -15.403029 -12.421412 -2.032156 0.000000 0.000000 -1.000000 0.203945 0.476407 1 0 1.000000
  0 -18.246279 -18.099211 -2.032157 0.000000 0.000000 -1.000000 0.194025 0.496218 1 0 1.000000
  0 -19.037327 -17.423592 -2.032157 0.000000 0.000000 -1.000000 0.191264 0.493861 1 0 1.000000
Box_dropper
  0 9.018333 10.123028 -2.032156 0.000000 0.000000 -1.000000 0.289158 0.397743 1 0 1.000000
  0 9.975959 9.165402 -2.032156 0.000000 0.000000 -1.000000 0.292500 0.401084 1 0 1.000000
  0 -13.141000 -13.953998 -2.032157 0.000000 0.000000 -1.000000 0.211838 0.481754 1 0 1.000000
Box_dropper
  0 9.018333 10.123028 -2.032156 0.000000 0.000000 -1.000000 0.289158 0.397743 1 0 1.000000
  0 -13.141000 -13.953998 -2.032157 0.000000 0.000000 -1.000000 0.211838 0.481754 1 0 1.000000
  0 -14.101067 -12.993931 -2.032156 0.000000 0.000000 -1.000000 0.208488 0.478404 1 0 1.000000
Box_dropper
  0 -13.141000 -13.953998 -2.032157 0.000000 0.000000 -1.000000 0.211838 0.481754 1 0 1.000000
  0 -14.392025 -13.284890 -2.032156 0.000000 0.000000 -1.000000 0.207473 0.479420 1 0 1.000000
  0 -14.101067 -12.993931 -2.032156 0.000000 0.000000 -1.000000 0.208488 0.478404 1 0 1.000000
Box_dropper
  0 -13.141000 -13.953998 -2.032157 0.000000 0.000000 -1.000000 0.211838 0.481754 1 0 1.000000
  0 -14.355730 -14.208662 -2.032157 0.000000 0.000000 -1.000000 0.207600 0.482643 1 0 1.000000
  0 -14.392025 -13.284890 -2.032156 0.000000 0.000000 -1.000000 0.207473 0.479420 1 0 1.000000
Box_dropper
  0 -15.403029 -12.421412 -2.032156 0.000000 0.000000 -1.000000 0.203945 0.476407 1 0 1.000000
  0 -14.392025 -13.284890 -2.032156 0.000000 0.000000 -1.000000 0.207473 0.479420 1 0 1.000000
  0 -14.355730 -14.208662 -2.032157 0.000000 0.000000 -1.000000 0.207600 0.482643 1 0 1.000000
Box_dropper
  0 -15.403029 -12.421412 -2.032156 0.000000 0.000000 -1.000000 0.203945 0.476407 1 0 1.000000
  0 -14.355730 -14.208662 -2.032157 0.000000 0.000000 -1.000000 0.207600 0.482643 1 0 1.000000
  0 -18.246279 -18.099211 -2.032157 0.000000 0.000000 -1.000000 0.194025 0.496218 1 0 1.000000
Box_dropper
  0 -12.568480 -15.255960 -2.032157 0.000000 0.000000 -1.000000 0.213836 0.486297 1 0 1.000000
  0 -18.246279 -18.099211 -2.032157 0.000000 0.000000 -1.000000 0.194025 0.496218 1 0 1.000000
  0 -14.355730 -14.208662 -2.032157 0.000000 0.000000 -1.000000 0.207600 0.482643 1 0 1.000000
Box_dropper
  0 -12.568480 -15.255960 -2.032157 0.000000 0.000000 -1.000000 0.213836 0.486297 1 0 1.000000
  0 -17.570660 -18.890259 -2.032157 0.000000 0.000000 -1.000000 0.196382 0.498978 1 0 1.000000
  0 -18.246279 -18.099211 -2.032157 0.000000 0.000000 -1.000000 0.194025 0.496218 1 0 1.000000
Box_dropper
  0 -12.568480 -15.255960 -2.032157 0.000000 0.000000 -1.000000 0.213836 0.486297 1 0 1.000000
  0 -17.027107 -19.777256 -2.032157 0.000000 0.000000 -1.000000 0.198279 0.502073 1 0 1.000000
  0 -17.570660 -18.890259 -2.032157 0.000000 0.000000 -1.000000 0.196382 0.498978 1 0 1.000000
Box_dropper
  0 -12.568480 -15.255960 -2.032157 0.000000 0.000000 -1.000000 0.213836 0.486297 1 0 1.000000
  0 -11.517982 -16.970217 -2.032157 0.000000 0.000000 -1.000000 0.217502 0.492279 1 0 1.000000
  0 -17.027107 -19.777256 -2.032157 0.000000 0.000000 -1.000000 0.198279 0.502073 1 0 1.000000
Box_dropper
  0 -11.517982 -16.970217 -2.032157 0.000000 0.000000 -1.000000 0.217502 0.492279 1 0 1.000000
  0 -16.629004 -20.738365 -2.032157 0.000000 0.000000 -1.000000 0.199668 0.505427 1 0 1.000000
  0 -17.027107 -19.777256 -2.032157 0.000000 0.000000 -1.000000 0.198279 0.502073 1 0 1.000000
Box_dropper
  0 -11.517982 -16.970217 -2.032157 0.000000 0.000000 -1.000000 0.217502 0.492279 1 0 1.000000
  0 -10.748587 -18.827702 -2.032157 0.000000 0.000000 -1.000000 0.220186 0.498760 1 0 1.000000
  0 -16.629004 -20.738365 -2.032157 0.000000 0.000000 -1.000000 0.199668 0.505427 1 0 1.000000
Box_dropper
  0 -10.748587 -18.827702 -2.032157 0.000000 0.000000 -1.000000 0.220186 0.498760 1 0 1.000000
  0 -16.386150 -21.749918 -2.032157 0.000000 0.000000 -1.000000 0.200515 0.508956 1 0 1.000000
  0 -16.629004 -20.738365 -2.032157 0.000000 0.000000 -1.000000 0.199668 0.505427 1 0 1.000000
Box_dropper
  0 -10.748587 -18.827702 -2.032157 0.000000 0.000000 -1.000000 0.220186 0.498760 1 0 1.000000
  0 -10.279239 -20.782679 -2.032157 0.000000 0.000000 -1.000000 0.221824 0.505581 1 0 1.000000
  0 -16.386150 -21.749918 -2.032157 0.000000 0.000000 -1.000000 0.200515 0.508956 1 0 1.000000
Box_dropper
  0 -10.279239 -20.782679 -2.032157 0.000000 0.000000 -1.000000 0.221824 0.505581 1 0 1.000000
  0 -16.304529 -22.787008 -2.032157 0.000000 0.000000 -1.000000 0.200800 0.512575 1 0 1.000000
  0 -16.386150 -21.749918 -2.032157 0.000000 0.000000 -1.000000 0.200515 0.508956 1 0 1.000000
Box_dropper
  0 -10.279239 -20.782679 -2.032157 0.000000 0.000000 -1.000000 0.221824 0.505581 1 0 1.000000
  0 -10.121494 -22.787008 -2.032157 0.000000 0.000000 -1.000000 0.222374 0.512575 1 0 1.000000
  0 -16.304529 -22.787008 -2.032157 0.000000 0.000000 -1.000000 0.200800 0.512575 1 0 1.000000
Box_dropper
  0 -13.141000 -13.953998 -2.032157 0.000000 0.000000 -1.000000 0.211838 0.481754 1 0 1.000000
  0 -13.431959 -14.244957 -2.032157 0.000000 0.000000 -1.000000 0.210823 0.482770 1 0 1.000000
  0 -14.355730 -14.208662 -2.032157 0.000000 0.000000 -1.000000 0.207600 0.482643 1 0 1.000000
Box_dropper
  0 -12.568480 -15.255960 -2.032157 0.000000 0.000000 -1.000000 0.213836 0.486297 1 0 1.000000
  0 -14.355730 -14.208662 -2.032157 0.000000 0.000000 -1.000000 0.207600 0.482643 1 0 1.000000
  0 -13.431959 -14.244957 -2.032157 0.000000 0.000000 -1.000000 0.210823 0.482770 1 0 1.000000
Box_dropper
  0 -14.415824 -12.679173 -0.532157 0.000000 0.000000 -1.000000 0.207390 0.477306 1 0 1.000000
  0 4.076419 14.389750 -0.532155 0.000000 0.000000 -1.000000 0.271915 0.382855 1 0 1.000000
  0 8.703575 10.437786 -0.532156 0.000000 0.000000 -1.000000 0.288060 0.396644 1 0 1.000000
Box_dropper
  0 -14.415824 -12.679173 -0.532157 0.000000 0.000000 -1.000000 0.207390 0.477306 1 0 1.000000
  0 -15.140577 -12.060176 -0.532157 0.000000 0.000000 -1.000000 0.204861 0.475146 1 0 1.000000
  0 4.076419 14.389750 -0.532155 0.000000 0.000000 -1.000000 0.271915 0.382855 1 0 1.000000
Box_dropper
  0 -15.140577 -12.060176 -0.532157 0.000000 0.000000 -1.000000 0.204861 0.475146 1 0 1.000000
  0 -2.071851 18.157415 -0.532155 0.000000 0.000000 -1.000000 0.250462 0.369709 1 0 1.000000
  0 4.076419 14.389750 -0.532155 0.000000 0.000000 -1.000000 0.271915 0.382855 1 0 1.000000
Box_dropper
  0 -15.140577 -12.060176 -0.532157 0.000000 0.000000 -1.000000 0.204861 0.475146 1 0 1.000000
  0 -16.914574 -10.973069 -0.532157 0.000000 0.000000 -1.000000 0.198671 0.471353 1 0 1.000000
  0 -2.071851 18.157415 -0.532155 0.000000 0.000000 -1.000000 0.250462 0.369709 1 0 1.000000
Box_dropper
  0 -16.914574 -10.973069 -0.532157 0.000000 0.000000 -1.000000 0.198671 0.471353 1 0 1.000000
  0 -8.733819 20.916893 -0.532155 0.000000 0.000000 -1.000000 0.227216 0.360080 1 0 1.000000
  0 -2.071851 18.157415 -0.532155 0.000000 0.000000 -1.000000 0.250462 0.369709 1 0 1.000000
Box_dropper
  0 -16.914574 -10.973069 -0.532157 0.000000 0.000000 -1.000000 0.198671 0.471353 1 0 1.000000
  0 -18.836792 -10.176861 -0.532157 0.000000 0.000000 -1.000000 0.191964 0.468575 1 0 1.000000
  0 -8.733819 20.916893 -0.532155 0.000000 0.000000 -1.000000 0.227216 0.360080 1 0 1.000000
Box_dropper
  0 -18.836792 -10.176861 -0.532157 0.000000 0.000000 -1.000000 0.191964 0.468575 1 0 1.000000
  0 -15.745443 22.600235 -0.532155 0.000000 0.000000 -1.000000 0.202751 0.354206 1 0 1.000000
  0 -8.733819 20.916893 -0.532155 0.000000 0.000000 -1.000000 0.227216 0.360080 1 0 1.000000
Box_dropper
  0 -18.836792 -10.176861 -0.532157 0.000000 0.000000 -1.000000 0.191964 0.468575 1 0 1.000000
  0 -20.859898 -9.691155 -0.532157 0.000000 0.000000 -1.000000 0.184905 0.466880 1 0 1.000000
  0 -15.745443 22.600235 -0.532155 0.000000 0.000000 -1.000000 0.202751 0.354206 1 0 1.000000
Box_dropper
  0 -20.859898 -9.691155 -0.532157 0.000000 0.000000 -1.000000 0.184905 0.466880 1 0 1.000000
  0 -22.934076 23.165993 -0.532155 0.000000 0.000000 -1.000000 0.177668 0.352232 1 0 1.000000
  0 -15.745443 22.600235 -0.532155 0.000000 0.000000 -1.000000 0.202751 0.354206 1 0 1.000000
Box_dropper
  0 -20.859898 -9.691155 -0.532157 0.000000 0.000000 -1.000000 0.184905 0.466880 1 0 1.000000
  0 -22.934076 -9.527914 -0.532157 0.000000 0.000000 -1.000000 0.177668 0.466310 1 0 1.000000
  0 -22.934076 23.165993 -0.532155 0.000000 0.000000 -1.000000 0.177668 0.352232 1 0 1.000000
Box_dropper
  0 8.703575 10.437786 1.467844 0.000000 0.000000 1.000000 0.299573 0.055692 1 0 1.000000
  0 -15.140577 -12.060176 1.467843 0.000000 0.000000 1.000000 0.221071 0.138891 1 0 1.000000
  0 -14.415824 -12.679173 1.467843 0.000000 0.000000 1.000000 0.218911 0.136362 1 0 1.000000
Box_dropper
  0 8.703575 10.437786 1.467844 0.000000 0.000000 1.000000 0.299573 0.055692 1 0 1.000000
  0 4.076419 14.389750 1.467844 0.000000 0.000000 1.000000 0.313363 0.071837 1 0 1.000000
  0 -15.140577 -12.060176 1.467843 0.000000 0.000000 1.000000 0.221071 0.138891 1 0 1.000000
Box_dropper
  0 4.076419 14.389750 1.467844 0.000000 0.000000 1.000000 0.313363 0.071837 1 0 1.000000
  0 -16.914574 -10.973069 1.467843 0.000000 0.000000 1.000000 0.224865 0.145081 1 0 1.000000
  0 -15.140577 -12.060176 1.467843 0.000000 0.000000 1.000000 0.221071 0.138891 1 0 1.000000
Box_dropper
  0 4.076419 14.389750 1.467844 0.000000 0.000000 1.000000 0.313363 0.071837 1 0 1.000000
  0 -2.071851 18.157415 1.467845 0.000000 0.000000 1.000000 0.326509 0.093290 1 0 1.000000
  0 -16.914574 -10.973069 1.467843 0.000000 0.000000 1.000000 0.224865 0.145081 1 0 1.000000
Box_dropper
  0 -2.071851 18.157415 1.467845 0.000000 0.000000 1.000000 0.326509 0.093290 1 0 1.000000
  0 -18.836792 -10.176861 1.467843 0.000000 0.000000 1.000000 0.227643 0.151788 1 0 1.000000
  0 -16.914574 -10.973069 1.467843 0.000000 0.000000 1.000000 0.224865 0.145081 1 0 1.000000
Box_dropper
  0 -2.071851 18.157415 1.467845 0.000000 0.000000 1.000000 0.326509 0.093290 1 0 1.000000
  0 -8.733819 20.916893 1.467845 0.000000 0.000000 1.000000 0.336138 0.116536 1 0 1.000000
  0 -18.836792 -10.176861 1.467843 0.000000 0.000000 1.000000 0.227643 0.151788 1 0 1.000000
Box_dropper
  0 -8.733819 20.916893 1.467845 0.000000 0.000000 1.000000 0.336138 0.116536 1 0 1.000000
  0 -20.859898 -9.691155 1.467843 0.000000 0.000000 1.000000 0.229338 0.158847 1 0 1.000000
  0 -18.836792 -10.176861 1.467843 0.000000 0.000000 1.000000 0.227643 0.151788 1 0 1.000000
Box_dropper
  0 -8.733819 20.916893 1.467845 0.000000 0.000000 1.000000 0.336138 0.116536 1 0 1.000000
  0 -15.745443 22.600235 1.467845 0.000000 0.000000 1.000000 0.342011 0.141001 1 0 1.000000
  0 -20.859898 -9.691155 1.467843 0.000000 0.000000 1.000000 0.229338 0.158847 1 0 1.000000
Box_dropper
  0 -15.745443 22.600235 1.467845 0.000000 0.000000 1.000000 0.342011 0.141001 1 0 1.000000
  0 -22.934076 -9.527914 1.467844 0.000000 0.000000 1.000000 0.229907 0.166084 1 0 1.000000
  0 -20.859898 -9.691155 1.467843 0.000000 0.000000 1.000000 0.229338 0.158847 1 0 1.000000
Box_dropper
  0 -15.745443 22.600235 1.467845 0.000000 0.000000 1.000000 0.342011 0.141001 1 0 1.000000
  0 -22.934076 23.165993 1.467845 0.000000 0.000000 1.000000 0.343985 0.166084 1 0 1.000000
  0 -22.934076 -9.527914 1.467844 0.000000 0.000000 1.000000 0.229907 0.166084 1 0 1.000000
Box_dropper
  0 -22.934076 -22.787008 -2.127157 0.000000 0.000000 -1.000000 0.177668 0.512575 1 0 1.000000
  0 -18.418089 -22.071745 -2.127157 0.000000 0.000000 -1.000000 0.193425 0.510079 1 0 1.000000
  0 -18.361797 -22.787008 -2.127157 0.000000 0.000000 -1.000000 0.193621 0.512575 1 0 1.000000
Box_dropper
  0 -22.934076 -22.787008 -2.127157 0.000000 0.000000 -1.000000 0.177668 0.512575 1 0 1.000000
  0 -18.585581 -21.374096 -2.127157 0.000000 0.000000 -1.000000 0.192841 0.507645 1 0 1.000000
  0 -18.418089 -22.071745 -2.127157 0.000000 0.000000 -1.000000 0.193425 0.510079 1 0 1.000000
Box_dropper
  0 -22.934076 -22.787008 -2.127157 0.000000 0.000000 -1.000000 0.177668 0.512575 1 0 1.000000
  0 -18.860146 -20.711237 -2.127157 0.000000 0.000000 -1.000000 0.191883 0.505332 1 0 1.000000
  0 -18.585581 -21.374096 -2.127157 0.000000 0.000000 -1.000000 0.192841 0.507645 1 0 1.000000
Box_dropper
  0 -22.934076 -22.787008 -2.127157 0.000000 0.000000 -1.000000 0.177668 0.512575 1 0 1.000000
  0 -19.235025 -20.099489 -2.127157 0.000000 0.000000 -1.000000 0.190575 0.503198 1 0 1.000000
  0 -18.860146 -20.711237 -2.127157 0.000000 0.000000 -1.000000 0.191883 0.505332 1 0 1.000000
Box_dropper
  0 -22.934076 -22.787008 -2.127157 0.000000 0.000000 -1.000000 0.177668 0.512575 1 0 1.000000
  0 -19.700987 -19.553917 -2.127157 0.000000 0.000000 -1.000000 0.188949 0.501294 1 0 1.000000
  0 -19.235025 -20.099489 -2.127157 0.000000 0.000000 -1.000000 0.190575 0.503198 1 0 1.000000
Box_dropper
  0 -22.934076 -22.787008 -2.127157 0.000000 0.000000 -1.000000 0.177668 0.512575 1 0 1.000000
  0 -20.246557 -19.087955 -2.127157 0.000000 0.000000 -1.000000 0.187045 0.499668 1 0 1.000000
  0 -19.700987 -19.553917 -2.127157 0.000000 0.000000 -1.000000 0.188949 0.501294 1 0 1.000000
Box_dropper
  0 -22.934076 -22.787008 -2.127157 0.000000 0.000000 -1.000000 0.177668 0.512575 1 0 1.000000
  0 -20.858305 -18.713078 -2.127157 0.000000 0.000000 -1.000000 0.184910 0.498360 1 0 1.000000
  0 -20.246557 -19.087955 -2.127157 0.000000 0.000000 -1.000000 0.187045 0.499668 1 0 1.000000
Box_dropper
  0 -22.934076 -22.787008 -2.127157 0.000000 0.000000 -1.000000 0.177668 0.512575 1 0 1.000000
  0 -21.521164 -18.438511 -2.127157 0.000000 0.000000 -1.000000 0.182598 0.497402 1 0 1.000000
  0 -20.858305 -18.713078 -2.127157 0.000000 0.000000 -1.000000 0.184910 0.498360 1 0 1.000000
Box_dropper
  0 -22.934076 -22.787008 -2.127157 0.000000 0.000000 -1.000000 0.177668 0.512575 1 0 1.000000
  0 -22.218815 -18.271021 -2.127157 0.000000 0.000000 -1.000000 0.180163 0.496818 1 0 1.000000
  0 -21.521164 -18.438511 -2.127157 0.000000 0.000000 -1.000000 0.182598 0.497402 1 0 1.000000
Box_dropper
  0 -22.934076 -22.787008 -2.127157 0.000000 0.000000 -1.000000 0.177668 0.512575 1 0 1.000000
  0 -22.934076 -18.214727 -2.127157 0.000000 0.000000 -1.000000 0.177668 0.496621 1 0 1.000000
  0 -22.218815 -18.271021 -2.127157 0.000000 0.000000 -1.000000 0.180163 0.496818 1 0 1.000000
Box_dropper
  0 23.018923 -22.787008 1.467843 0.000000 0.000000 1.000000 0.183642 0.005741 1 0 1.000000
  0 -9.838224 -20.712828 1.467843 0.000000 0.000000 1.000000 0.190880 0.120389 1 0 1.000000
  0 -9.674983 -22.787008 1.467843 0.000000 0.000000 1.000000 0.183642 0.119820 1 0 1.000000
Box_dropper
  0 23.018923 -22.787008 1.467843 0.000000 0.000000 1.000000 0.183642 0.005741 1 0 1.000000
  0 22.453165 -15.598374 1.467843 0.000000 0.000000 1.000000 0.208726 0.007715 1 0 1.000000
  0 -9.838224 -20.712828 1.467843 0.000000 0.000000 1.000000 0.190880 0.120389 1 0 1.000000
Box_dropper
  0 22.453165 -15.598374 1.467843 0.000000 0.000000 1.000000 0.208726 0.007715 1 0 1.000000
  0 -10.323929 -18.689722 1.467843 0.000000 0.000000 1.000000 0.197939 0.122084 1 0 1.000000
  0 -9.838224 -20.712828 1.467843 0.000000 0.000000 1.000000 0.190880 0.120389 1 0 1.000000
Box_dropper
  0 22.453165 -15.598374 1.467843 0.000000 0.000000 1.000000 0.208726 0.007715 1 0 1.000000
  0 20.769823 -8.586750 1.467844 0.000000 0.000000 1.000000 0.233191 0.013589 1 0 1.000000
  0 -10.323929 -18.689722 1.467843 0.000000 0.000000 1.000000 0.197939 0.122084 1 0 1.000000
Box_dropper
  0 20.769823 -8.586750 1.467844 0.000000 0.000000 1.000000 0.233191 0.013589 1 0 1.000000
  0 -11.120138 -16.767506 1.467843 0.000000 0.000000 1.000000 0.204646 0.124862 1 0 1.000000
  0 -10.323929 -18.689722 1.467843 0.000000 0.000000 1.000000 0.197939 0.122084 1 0 1.000000
Box_dropper
  0 20.769823 -8.586750 1.467844 0.000000 0.000000 1.000000 0.233191 0.013589 1 0 1.000000
  0 18.010345 -1.924782 1.467844 0.000000 0.000000 1.000000 0.256437 0.023218 1 0 1.000000
  0 -11.120138 -16.767506 1.467843 0.000000 0.000000 1.000000 0.204646 0.124862 1 0 1.000000
Box_dropper
  0 18.010345 -1.924782 1.467844 0.000000 0.000000 1.000000 0.256437 0.023218 1 0 1.000000
  0 -12.207245 -14.993508 1.467843 0.000000 0.000000 1.000000 0.210836 0.128655 1 0 1.000000
  0 -11.120138 -16.767506 1.467843 0.000000 0.000000 1.000000 0.204646 0.124862 1 0 1.000000
Box_dropper
  0 18.010345 -1.924782 1.467844 0.000000 0.000000 1.000000 0.256437 0.023218 1 0 1.000000
  0 14.242682 4.223488 1.467844 0.000000 0.000000 1.000000 0.277890 0.036364 1 0 1.000000
  0 -12.207245 -14.993508 1.467843 0.000000 0.000000 1.000000 0.210836 0.128655 1 0 1.000000
Box_dropper
  0 14.242682 4.223488 1.467844 0.000000 0.000000 1.000000 0.277890 0.036364 1 0 1.000000
  0 -12.826241 -14.268755 1.467843 0.000000 0.000000 1.000000 0.213365 0.130815 1 0 1.000000
  0 -12.207245 -14.993508 1.467843 0.000000 0.000000 1.000000 0.210836 0.128655 1 0 1.000000
Box_dropper
  0 14.242682 4.223488 1.467844 0.000000 0.000000 1.000000 0.277890 0.036364 1 0 1.000000
  0 10.290717 8.850644 1.467844 0.000000 0.000000 1.000000 0.294035 0.050154 1 0 1.000000
  0 -12.826241 -14.268755 1.467843 0.000000 0.000000 1.000000 0.213365 0.130815 1 0 1.000000
Box_dropper
  0 -12.826241 -14.268755 -1.587022 0.537688 0.459229 -0.707107 0.212937 0.482853 1 0 1.000000
  0 -12.568480 -15.255960 -2.032157 0.571178 0.414985 -0.708197 0.213836 0.486297 1 0 1.000000
  0 -13.431959 -14.244957 -2.032157 0.537688 0.459229 -0.707107 0.210823 0.482770 1 0 1.000000
Box_dropper
  0 -12.826241 -14.268755 -1.587022 0.537688 0.459229 -0.707107 0.212937 0.482853 1 0 1.000000
  0 -12.207245 -14.993508 -1.587022 0.571178 0.414985 -0.708197 0.215096 0.485381 1 0 1.000000
  0 -12.568480 -15.255960 -2.032157 0.571178 0.414985 -0.708197 0.213836 0.486297 1 0 1.000000
Box_dropper
  0 -12.207245 -14.993508 -1.587022 0.571178 0.414985 -0.708197 0.215096 0.485381 1 0 1.000000
  0 -11.517982 -16.970217 -2.032157 0.629063 0.320524 -0.708198 0.217502 0.492279 1 0 1.000000
  0 -12.568480 -15.255960 -2.032157 0.571178 0.414985 -0.708197 0.213836 0.486297 1 0 1.000000
Box_dropper
  0 -12.207245 -14.993508 -1.587022 0.571178 0.414985 -0.708197 0.215096 0.485381 1 0 1.000000
  0 -11.120138 -16.767506 -1.587022 0.629063 0.320524 -0.708198 0.218890 0.491571 1 0 1.000000
  0 -11.517982 -16.970217 -2.032157 0.629063 0.320524 -0.708198 0.217502 0.492279 1 0 1.000000
Box_dropper
  0 -11.120138 -16.767506 -1.587022 0.629063 0.320524 -0.708198 0.218890 0.491571 1 0 1.000000
  0 -10.748587 -18.827702 -2.032157 0.671460 0.218170 -0.708198 0.220186 0.498760 1 0 1.000000
  0 -11.517982 -16.970217 -2.032157 0.629063 0.320524 -0.708198 0.217502 0.492279 1 0 1.000000
Box_dropper
  0 -11.120138 -16.767506 -1.587022 0.629063 0.320524 -0.708198 0.218890 0.491571 1 0 1.000000
  0 -10.323929 -18.689722 -1.587022 0.671460 0.218170 -0.708198 0.221668 0.498279 1 0 1.000000
  0 -10.748587 -18.827702 -2.032157 0.671460 0.218170 -0.708198 0.220186 0.498760 1 0 1.000000
Box_dropper
  0 -10.323929 -18.689722 -1.587022 0.671460 0.218170 -0.708198 0.221668 0.498279 1 0 1.000000
  0 -10.279239 -20.782679 -2.032157 0.697322 0.110445 -0.708197 0.221824 0.505581 1 0 1.000000
  0 -10.748587 -18.827702 -2.032157 0.671460 0.218170 -0.708198 0.220186 0.498760 1 0 1.000000
Box_dropper
  0 -10.323929 -18.689722 -1.587022 0.671460 0.218170 -0.708198 0.221668 0.498279 1 0 1.000000
  0 -9.838224 -20.712828 -1.587022 0.697322 0.110445 -0.708197 0.223363 0.505338 1 0 1.000000
  0 -10.279239 -20.782679 -2.032157 0.697322 0.110445 -0.708197 0.221824 0.505581 1 0 1.000000
Box_dropper
  0 -9.838224 -20.712828 -1.587022 0.697322 0.110445 -0.708197 0.223363 0.505338 1 0 1.000000
  0 -10.121494 -22.787008 -2.032157 0.704927 0.055479 -0.707107 0.222374 0.512575 1 0 1.000000
  0 -10.279239 -20.782679 -2.032157 0.697322 0.110445 -0.708197 0.221824 0.505581 1 0 1.000000
Box_dropper
  0 -9.838224 -20.712828 -1.587022 0.697322 0.110445 -0.708197 0.223363 0.505338 1 0 1.000000
  0 -9.674983 -22.787008 -1.587022 0.704927 0.055479 -0.707107 0.223932 0.512575 1 0 1.000000
  0 -10.121494 -22.787008 -2.032157 0.704927 0.055479 -0.707107 0.222374 0.512575 1 0 1.000000
Box_dropper
  0 -12.826241 -14.268755 -0.532157 0.760406 0.649448 0.000000 0.679229 0.381403 1 0 1.000000
  0 -12.207245 -14.993508 -1.587022 0.809017 0.587785 0.000000 0.675942 0.376263 1 0 1.000000
  0 -12.826241 -14.268755 -1.587022 0.760406 0.649448 0.000000 0.679229 0.376263 1 0 1.000000
Box_dropper
  0 -12.826241 -14.268755 -0.532157 0.760406 0.649448 0.000000 0.679229 0.381403 1 0 1.000000
  0 -12.207245 -14.993508 -0.532157 0.809017 0.587785 0.000000 0.675942 0.381403 1 0 1.000000
  0 -12.207245 -14.993508 -1.587022 0.809017 0.587785 0.000000 0.675942 0.376263 1 0 1.000000
Box_dropper
  0 -12.207245 -14.993508 -0.532157 0.809017 0.587785 0.000000 0.675942 0.381403 1 0 1.000000
  0 -11.120138 -16.767506 -1.587022 0.891006 0.453991 0.000000 0.668767 0.376263 1 0 1.000000
  0 -12.207245 -14.993508 -1.587022 0.809017 0.587785 0.000000 0.675942 0.376263 1 0 1.000000
Box_dropper
  0 -12.207245 -14.993508 -0.532157 0.809017 0.587785 0.000000 0.675942 0.381403 1 0 1.000000
  0 -11.120138 -16.767506 -0.532157 0.891006 0.453991 0.000000 0.668767 0.381403 1 0 1.000000
  0 -11.120138 -16.767506 -1.587022 0.891006 0.453991 0.000000 0.668767 0.376263 1 0 1.000000
Box_dropper
  0 -11.120138 -16.767506 -0.532157 0.891006 0.453991 0.000000 0.668767 0.381403 1 0 1.000000
  0 -10.323929 -18.689722 -1.587022 0.951056 0.309017 0.000000 0.661592 0.376263 1 0 1.000000
  0 -11.120138 -16.767506 -1.587022 0.891006 0.453991 0.000000 0.668767 0.376263 1 0 1.000000
Box_dropper
  0 -11.120138 -16.767506 -0.532157 0.891006 0.453991 0.000000 0.668767 0.381403 1 0 1.000000
  0 -10.323929 -18.689722 -0.532157 0.951056 0.309017 0.000000 0.661592 0.381403 1 0 1.000000
  0 -10.323929 -18.689722 -1.587022 0.951056 0.309017 0.000000 0.661592 0.376263 1 0 1.000000
Box_dropper
  0 -10.323929 -18.689722 -0.532157 0.951056 0.309017 0.000000 0.661592 0.381403 1 0 1.000000
  0 -9.838224 -20.712828 -1.587022 0.987688 0.156434 0.000000 0.654417 0.376263 1 0 1.000000
  0 -10.323929 -18.689722 -1.587022 0.951056 0.309017 0.000000 0.661592 0.376263 1 0 1.000000
Box_dropper
  0 -10.323929 -18.689722 -0.532157 0.951056 0.309017 0.000000 0.661592 0.381403 1 0 1.000000
  0 -9.838224 -20.712828 -0.532157 0.987688 0.156434 0.000000 0.654417 0.381403 1 0 1.000000
  0 -9.838224 -20.712828 -1.587022 0.987688 0.156434 0.000000 0.654417 0.376263 1 0 1.000000
Box_dropper
  0 -9.838224 -20.712828 -0.532157 0.987688 0.156434 0.000000 0.654417 0.381403 1 0 1.000000
  0 -9.674983 -22.787008 -1.587022 0.996917 0.078459 0.000000 0.647241 0.376263 1 0 1.000000
  0 -9.838224 -20.712828 -1.587022 0.987688 0.156434 0.000000 0.654417 0.376263 1 0 1.000000
Box_dropper
  0 -9.838224 -20.712828 -0.532157 0.987688 0.156434 0.000000 0.654417 0.381403 1 0 1.000000
  0 -9.674983 -22.787008 -0.532157 0.996917 0.078459 0.000000 0.647241 0.381403 1 0 1.000000
  0 -9.674983 -22.787008 -1.587022 0.996917 0.078459 0.000000 0.647241 0.376263 1 0 1.000000
Box_dropper
  0 -9.674983 -22.787008 1.467843 0.996917 0.078459 0.000000 0.652539 0.386783 1 0 1.000000
  0 -9.838224 -20.712828 2.467843 0.987688 0.156434 0.000000 0.659334 0.391396 1 0 1.000000
  0 -9.674983 -22.787008 2.467843 0.996917 0.078459 0.000000 0.652539 0.391396 1 0 1.000000
Box_dropper
  0 -9.674983 -22.787008 1.467843 0.996917 0.078459 0.000000 0.652539 0.386783 1 0 1.000000
  0 -9.838224 -20.712828 1.467843 0.987688 0.156434 0.000000 0.659334 0.386783 1 0 1.000000
  0 -9.838224 -20.712828 2.467843 0.987688 0.156434 0.000000 0.659334 0.391396 1 0 1.000000
Box_dropper
  0 -9.838224 -20.712828 1.467843 0.987688 0.156434 0.000000 0.659334 0.386783 1 0 1.000000
  0 -10.323929 -18.689722 2.467843 0.951056 0.309017 0.000000 0.666129 0.391396 1 0 1.000000
  0 -9.838224 -20.712828 2.467843 0.987688 0.156434 0.000000 0.659334 0.391396 1 0 1.000000
Box_dropper
  0 -9.838224 -20.712828 1.467843 0.987688 0.156434 0.000000 0.659334 0.386783 1 0 1.000000
  0 -10.323929 -18.689722 1.467843 0.951056 0.309017 0.000000 0.666129 0.386783 1 0 1.000000
  0 -10.323929 -18.689722 2.467843 0.951056 0.309017 0.000000 0.666129 0.391396 1 0 1.000000
Box_dropper
  0 -10.323929 -18.689722 1.467843 0.951056 0.309017 0.000000 0.666129 0.386783 1 0 1.000000
  0 -11.120138 -16.767506 2.467843 0.891006 0.453991 0.000000 0.672923 0.391396 1 0 1.000000
  0 -10.323929 -18.689722 2.467843 0.951056 0.309017 0.000000 0.666129 0.391396 1 0 1.000000
Box_dropper
  0 -10.323929 -18.689722 1.467843 0.951056 0.309017 0.000000 0.666129 0.386783 1 0 1.000000
  0 -11.120138 -16.767506 1.467843 0.891006 0.453991 0.000000 0.672923 0.386783 1 0 1.000000
  0 -11.120138 -16.767506 2.467843 0.891006 0.453991 0.000000 0.672923 0.391396 1 0 1.000000
Box_dropper
  0 -11.120138 -16.767506 1.467843 0.891006 0.453991 0.000000 0.672923 0.386783 1 0 1.000000
  0 -12.207245 -14.993508 2.467843 0.809017 0.587785 0.000000 0.679718 0.391396 1 0 1.000000
  0 -11.120138 -16.767506 2.467843 0.891006 0.453991 0.000000 0.672923 0.391396 1 0 1.000000
Box_dropper
  0 -11.120138 -16.767506 1.467843 0.891006 0.453991 0.000000 0.672923 0.386783 1 0 1.000000
  0 -12.207245 -14.993508 1.467843 0.809017 0.587785 0.000000 0.679718 0.386783 1 0 1.000000
  0 -12.207245 -14.993508 2.467843 0.809017 0.587785 0.000000 0.679718 0.391396 1 0 1.000000
Box_dropper
  0 -12.207245 -14.993508 1.467843 0.809017 0.587785 0.000000 0.679718 0.386783 1 0 1.000000
  0 -12.826241 -14.268755 2.467843 0.760406 0.649448 0.000000 0.682830 0.391396 1 0 1.000000
  0 -12.207245 -14.993508 2.467843 0.809017 0.587785 0.000000 0.679718 0.391396 1 0 1.000000
Box_dropper
  0 -12.207245 -14.993508 1.467843 0.809017 0.587785 0.000000 0.679718 0.386783 1 0 1.000000
  0 -12.826241 -14.268755 1.467843 0.760406 0.649448 0.000000 0.682830 0.386783 1 0 1.000000
  0 -12.826241 -14.268755 2.467843 0.760406 0.649448 0.000000 0.682830 0.391396 1 0 1.000000
Box_dropper
  0 -14.415824 -12.679173 1.467843 0.649448 0.760406 0.000000 0.690196 0.386783 1 0 1.000000
  0 -15.140577 -12.060176 2.467844 0.587785 0.809017 0.000000 0.693308 0.391396 1 0 1.000000
  0 -14.415824 -12.679173 2.467844 0.649448 0.760406 0.000000 0.690196 0.391396 1 0 1.000000
Box_dropper
  0 -14.415824 -12.679173 1.467843 0.649448 0.760406 0.000000 0.690196 0.386783 1 0 1.000000
  0 -15.140577 -12.060176 1.467843 0.587785 0.809017 0.000000 0.693308 0.386783 1 0 1.000000
  0 -15.140577 -12.060176 2.467844 0.587785 0.809017 0.000000 0.693308 0.391396 1 0 1.000000
Box_dropper
  0 -15.140577 -12.060176 1.467843 0.587785 0.809017 0.000000 0.693308 0.386783 1 0 1.000000
  0 -16.914574 -10.973069 2.467844 0.453991 0.891006 0.000000 0.700103 0.391396 1 0 1.000000
  0 -15.140577 -12.060176 2.467844 0.587785 0.809017 0.000000 0.693308 0.391396 1 0 1.000000
Box_dropper
  0 -15.140577 -12.060176 1.467843 0.587785 0.809017 0.000000 0.693308 0.386783 1 0 1.000000
  0 -16.914574 -10.973069 1.467843 0.453991 0.891006 0.000000 0.700103 0.386783 1 0 1.000000
  0 -16.914574 -10.973069 2.467844 0.453991 0.891006 0.000000 0.700103 0.391396 1 0 1.000000
Box_dropper
  0 -16.914574 -10.973069 1.467843 0.453991 0.891006 0.000000 0.700103 0.386783 1 0 1.000000
  0 -18.836792 -10.176861 2.467844 0.309017 0.951056 0.000000 0.706898 0.391396 1 0 1.000000
  0 -16.914574 -10.973069 2.467844 0.453991 0.891006 0.000000 0.700103 0.391396 1 0 1.000000
Box_dropper
  0 -16.914574 -10.973069 1.467843 0.453991 0.891006 0.000000 0.700103 0.386783 1 0 1.000000
  0 -18.836792 -10.176861 1.467843 0.309017 0.951056 0.000000 0.706898 0.386783 1 0 1.000000
  0 -18.836792 -10.176861 2.467844 0.309017 0.951056 0.000000 0.706898 0.391396 1 0 1.000000
Box_dropper
  0 -18.836792 -10.176861 1.467843 0.309017 0.951056 0.000000 0.706898 0.386783 1 0 1.000000
  0 -20.859898 -9.691155 2.467844 0.156434 0.987688 0.000000 0.713692 0.391396 1 0 1.000000
  0 -18.836792 -10.176861 2.467844 0.309017 0.951056 0.000000 0.706898 0.391396 1 0 1.000000
Box_dropper
  0 -18.836792 -10.176861 1.467843 0.309017 0.951056 0.000000 0.706898 0.386783 1 0 1.000000
  0 -20.859898 -9.691155 1.467843 0.156434 0.987688 0.000000 0.713692 0.386783 1 0 1.000000
  0 -20.859898 -9.691155 2.467844 0.156434 0.987688 0.000000 0.713692 0.391396 1 0 1.000000
Box_dropper
  0 -20.859898 -9.691155 1.467843 0.156434 0.987688 0.000000 0.713692 0.386783 1 0 1.000000
  0 -22.934076 -9.527914 2.467844 0.078459 0.996917 0.000000 0.720487 0.391396 1 0 1.000000
  0 -20.859898 -9.691155 2.467844 0.156434 0.987688 0.000000 0.713692 0.391396 1 0 1.000000
Box_dropper
  0 -20.859898 -9.691155 1.467843 0.156434 0.987688 0.000000 0.713692 0.386783 1 0 1.000000
  0 -22.934076 -9.527914 1.467844 0.078459 0.996917 0.000000 0.720487 0.386783 1 0 1.000000
  0 -22.934076 -9.527914 2.467844 0.078459 0.996917 0.000000 0.720487 0.391396 1 0 1.000000
Box_dropper
  0 23.018923 -22.787008 -0.532157 0.996917 0.078459 0.000000 0.404631 0.582675 1 0 1.000000
  0 22.453165 -15.598374 1.467843 0.987688 0.156434 0.000000 0.427145 0.590888 1 0 1.000000
  0 23.018923 -22.787008 1.467843 0.996917 0.078459 0.000000 0.404631 0.590888 1 0 1.000000
Box_dropper
  0 23.018923 -22.787008 -0.532157 0.996917 0.078459 0.000000 0.404631 0.582675 1 0 1.000000
  0 22.453165 -15.598374 -0.532157 0.987688 0.156434 0.000000 0.427145 0.582675 1 0 1.000000
  0 22.453165 -15.598374 1.467843 0.987688 0.156434 0.000000 0.427145 0.590888 1 0 1.000000
Box_dropper
  0 22.453165 -15.598374 -0.532157 0.987688 0.156434 0.000000 0.427145 0.582675 1 0 1.000000
  0 20.769823 -8.586750 1.467844 0.951056 0.309017 0.000000 0.452391 0.590888 1 0 1.000000
  0 22.453165 -15.598374 1.467843 0.987688 0.156434 0.000000 0.427145 0.590888 1 0 1.000000
Box_dropper
  0 22.453165 -15.598374 -0.532157 0.987688 0.156434 0.000000 0.427145 0.582675 1 0 1.000000
  0 20.769823 -8.586750 -0.532156 0.951056 0.309017 0.000000 0.452391 0.582675 1 0 1.000000
  0 20.769823 -8.586750 1.467844 0.951056 0.309017 0.000000 0.452391 0.590888 1 0 1.000000
Box_dropper
  0 20.769823 -8.586750 -0.532156 0.951056 0.309017 0.000000 0.452391 0.582675 1 0 1.000000
  0 18.010345 -1.924782 1.467844 0.891006 0.453991 0.000000 0.479746 0.590888 1 0 1.000000
  0 20.769823 -8.586750 1.467844 0.951056 0.309017 0.000000 0.452391 0.590888 1 0 1.000000
Box_dropper
  0 20.769823 -8.586750 -0.532156 0.951056 0.309017 0.000000 0.452391 0.582675 1 0 1.000000
  0 18.010345 -1.924782 -0.532156 0.891006 0.453991 0.000000 0.479746 0.582675 1 0 1.000000
  0 18.010345 -1.924782 1.467844 0.891006 0.453991 0.000000 0.479746 0.590888 1 0 1.000000
Box_dropper
  0 18.010345 -1.924782 -0.532156 0.891006 0.453991 0.000000 0.479746 0.582675 1 0 1.000000
  0 14.242682 4.223488 1.467844 0.809017 0.587785 0.000000 0.508536 0.590888 1 0 1.000000
  0 18.010345 -1.924782 1.467844 0.891006 0.453991 0.000000 0.479746 0.590888 1 0 1.000000
Box_dropper
  0 18.010345 -1.924782 -0.532156 0.891006 0.453991 0.000000 0.479746 0.582675 1 0 1.000000
  0 14.242682 4.223488 -0.532156 0.809017 0.587785 0.000000 0.508536 0.582675 1 0 1.000000
  0 14.242682 4.223488 1.467844 0.809017 0.587785 0.000000 0.508536 0.590888 1 0 1.000000
Box_dropper
  0 14.242682 4.223488 -0.532156 0.809017 0.587785 0.000000 0.508536 0.582675 1 0 1.000000
  0 10.290717 8.850644 1.467844 0.725370 0.688359 0.000000 0.533446 0.590888 1 0 1.000000
  0 14.242682 4.223488 1.467844 0.809017 0.587785 0.000000 0.508536 0.590888 1 0 1.000000
Box_dropper
  0 14.242682 4.223488 -0.532156 0.809017 0.587785 0.000000 0.508536 0.582675 1 0 1.000000
  0 10.290717 8.850644 -0.532156 0.725370 0.688359 0.000000 0.533446 0.582675 1 0 1.000000
  0 10.290717 8.850644 1.467844 0.725370 0.688359 0.000000 0.533446 0.590888 1 0 1.000000
Box_dropper
  0 8.703575 10.437786 -0.532156 0.688359 0.725370 0.000000 0.542662 0.582675 1 0 1.000000
  0 10.290717 8.850644 1.467844 0.725370 0.688359 0.000000 0.533446 0.590888 1 0 1.000000
  0 10.290717 8.850644 -0.532156 0.725370 0.688359 0.000000 0.533446 0.582675 1 0 1.000000
Box_dropper
  0 8.703575 10.437786 -0.532156 0.688359 0.725370 0.000000 0.542662 0.582675 1 0 1.000000
  0 10.290717 8.850644 -0.532156 0.725370 0.688359 0.000000 0.533446 0.582675 1 0 1.000000
  0 10.290717 8.850644 -1.587021 0.707107 0.707107 0.000000 0.533446 0.578344 1 0 1.000000
Box_dropper
  0 8.703575 10.437786 -0.532156 0.688359 0.725370 0.000000 0.542662 0.582675 1 0 1.000000
  0 10.290717 8.850644 -1.587021 0.707107 0.707107 0.000000 0.533446 0.578344 1 0 1.000000
  0 9.975959 9.165402 -2.032156 0.707107 0.707107 0.000000 0.535273 0.576516 1 0 1.000000
Box_dropper
  0 8.703575 10.437786 -0.532156 0.688359 0.725370 0.000000 0.542662 0.582675 1 0 1.000000
  0 9.975959 9.165402 -2.032156 0.707107 0.707107 0.000000 0.535273 0.576516 1 0 1.000000
  0 9.018333 10.123028 -2.032156 0.707107 0.707107 0.000000 0.540834 0.576516 1 0 1.000000
Box_dropper
  0 8.703575 10.437786 -0.532156 0.688359 0.725370 0.000000 0.542662 0.582675 1 0 1.000000
  0 9.018333 10.123028 -2.032156 0.707107 0.707107 0.000000 0.540834 0.576516 1 0 1.000000
  0 8.703575 10.437786 -1.587021 0.707107 0.707107 0.000000 0.542662 0.578344 1 0 1.000000
Box_dropper
  0 10.290717 8.850644 1.467844 0.725370 0.688359 0.000000 0.533446 0.590888 1 0 1.000000
  0 8.703575 10.437786 2.467844 0.707107 0.707107 0.000000 0.542662 0.594994 1 0 1.000000
  0 10.290717 8.850644 2.467844 0.707107 0.707107 0.000000 0.533446 0.594994 1 0 1.000000
Box_dropper
  0 10.290717 8.850644 1.467844 0.725370 0.688359 0.000000 0.533446 0.590888 1 0 1.000000
  0 8.703575 10.437786 1.467844 0.688359 0.725370 0.000000 0.542662 0.590888 1 0 1.000000
  0 8.703575 10.437786 2.467844 0.707107 0.707107 0.000000 0.542662 0.594994 1 0 1.000000
Box_dropper
  0 8.703575 10.437786 -0.532156 0.688359 0.725370 0.000000 0.542662 0.582675 1 0 1.000000
  0 8.703575 10.437786 1.467844 0.688359 0.725370 0.000000 0.542662 0.590888 1 0 1.000000
  0 10.290717 8.850644 1.467844 0.725370 0.688359 0.000000 0.533446 0.590888 1 0 1.000000
Box_dropper
  0 8.703575 10.437786 -0.532156 0.688359 0.725370 0.000000 0.542662 0.582675 1 0 1.000000
  0 4.076419 14.389750 1.467844 0.587785 0.809017 0.000000 0.567571 0.590888 1 0 1.000000
  0 8.703575 10.437786 1.467844 0.688359 0.725370 0.000000 0.542662 0.590888 1 0 1.000000
Box_dropper
  0 8.703575 10.437786 -0.532156 0.688359 0.725370 0.000000 0.542662 0.582675 1 0 1.000000
  0 4.076419 14.389750 -0.532155 0.587785 0.809017 0.000000 0.567571 0.582675 1 0 1.000000
  0 4.076419 14.389750 1.467844 0.587785 0.809017 0.000000 0.567571 0.590888 1 0 1.000000
Box_dropper
  0 4.076419 14.389750 -0.532155 0.587785 0.809017 0.000000 0.567571 0.582675 1 0 1.000000
  0 -2.071851 18.157415 1.467845 0.453991 0.891006 0.000000 0.596362 0.590888 1 0 1.000000
  0 4.076419 14.389750 1.467844 0.587785 0.809017 0.000000 0.567571 0.590888 1 0 1.000000
Box_dropper
  0 4.076419 14.389750 -0.532155 0.587785 0.809017 0.000000 0.567571 0.582675 1 0 1.000000
  0 -2.071851 18.157415 -0.532155 0.453991 0.891006 0.000000 0.596362 0.582675 1 0 1.000000
  0 -2.071851 18.157415 1.467845 0.453991 0.891006 0.000000 0.596362 0.590888 1 0 1.000000
Box_dropper
  0 -2.071851 18.157415 -0.532155 0.453991 0.891006 0.000000 0.596362 0.582675 1 0 1.000000
  0 -8.733819 20.916893 1.467845 0.309017 0.951056 0.000000 0.623717 0.590888 1 0 1.000000
  0 -2.071851 18.157415 1.467845 0.453991 0.891006 0.000000 0.596362 0.590888 1 0 1.000000
Box_dropper
  0 -2.071851 18.157415 -0.532155 0.453991 0.891006 0.000000 0.596362 0.582675 1 0 1.000000
  0 -8.733819 20.916893 -0.532155 0.309017 0.951056 0.000000 0.623717 0.582675 1 0 1.000000
  0 -8.733819 20.916893 1.467845 0.309017 0.951056 0.000000 0.623717 0.590888 1 0 1.000000
Box_dropper
  0 -8.733819 20.916893 -0.532155 0.309017 0.951056 0.000000 0.623717 0.582675 1 0 1.000000
  0 -15.745443 22.600235 1.467845 0.156434 0.987688 0.000000 0.648962 0.590888 1 0 1.000000
  0 -8.733819 20.916893 1.467845 0.309017 0.951056 0.000000 0.623717 0.590888 1 0 1.000000
Box_dropper
  0 -8.733819 20.916893 -0.532155 0.309017 0.951056 0.000000 0.623717 0.582675 1 0 1.000000
  0 -15.745443 22.600235 -0.532155 0.156434 0.987688 0.000000 0.648962 0.582675 1 0 1.000000
  0 -15.745443 22.600235 1.467845 0.156434 0.987688 0.000000 0.648962 0.590888 1 0 1.000000
Box_dropper
  0 -15.745443 22.600235 -0.532155 0.156434 0.987688 0.000000 0.648962 0.582675 1 0 1.000000
  0 -22.934076 23.165993 1.467845 0.078459 0.996917 0.000000 0.671477 0.590888 1 0 1.000000
  0 -15.745443 22.600235 1.467845 0.156434 0.987688 0.000000 0.648962 0.590888 1 0 1.000000
Box_dropper
  0 -15.745443 22.600235 -0.532155 0.156434 0.987688 0.000000 0.648962 0.582675 1 0 1.000000
  0 -22.934076 23.165993 -0.532155 0.078459 0.996917 0.000000 0.671477 0.582675 1 0 1.000000
  0 -22.934076 23.165993 1.467845 0.078459 0.996917 0.000000 0.671477 0.590888 1 0 1.000000
Box_dropper
  0 -22.934076 -17.160553 -3.746157 0.000000 0.000000 -1.000000 0.177668 0.492943 1 0 1.000000
  0 -22.161837 -17.911272 -3.746157 0.000000 0.000000 -1.000000 0.180362 0.495562 1 0 1.000000
  0 -22.934076 -17.850494 -3.746157 0.000000 0.000000 -1.000000 0.177668 0.495350 1 0 1.000000
Box_dropper
  0 -22.934076 -17.160553 -3.746157 0.000000 0.000000 -1.000000 0.177668 0.492943 1 0 1.000000
  0 -22.053905 -17.229824 -3.746157 0.000000 0.000000 -1.000000 0.180739 0.493185 1 0 1.000000
  0 -22.161837 -17.911272 -3.746157 0.000000 0.000000 -1.000000 0.180362 0.495562 1 0 1.000000
Box_dropper
  0 -22.053905 -17.229824 -3.746157 0.000000 0.000000 -1.000000 0.180739 0.493185 1 0 1.000000
  0 -21.408609 -18.092106 -3.746157 0.000000 0.000000 -1.000000 0.182990 0.496193 1 0 1.000000
  0 -22.161837 -17.911272 -3.746157 0.000000 0.000000 -1.000000 0.180362 0.495562 1 0 1.000000
Box_dropper
  0 -22.053905 -17.229824 -3.746157 0.000000 0.000000 -1.000000 0.180739 0.493185 1 0 1.000000
  0 -21.195406 -17.435932 -3.746157 0.000000 0.000000 -1.000000 0.183734 0.493904 1 0 1.000000
  0 -21.408609 -18.092106 -3.746157 0.000000 0.000000 -1.000000 0.182990 0.496193 1 0 1.000000
Box_dropper
  0 -21.195406 -17.435932 -3.746157 0.000000 0.000000 -1.000000 0.183734 0.493904 1 0 1.000000
  0 -20.692947 -18.388542 -3.746157 0.000000 0.000000 -1.000000 0.185487 0.497228 1 0 1.000000
  0 -21.408609 -18.092106 -3.746157 0.000000 0.000000 -1.000000 0.182990 0.496193 1 0 1.000000
Box_dropper
  0 -21.195406 -17.435932 -3.746157 0.000000 0.000000 -1.000000 0.183734 0.493904 1 0 1.000000
  0 -20.379719 -17.773800 -3.746157 0.000000 0.000000 -1.000000 0.186580 0.495083 1 0 1.000000
  0 -20.692947 -18.388542 -3.746157 0.000000 0.000000 -1.000000 0.185487 0.497228 1 0 1.000000
Box_dropper
  0 -20.379719 -17.773800 -3.746157 0.000000 0.000000 -1.000000 0.186580 0.495083 1 0 1.000000
  0 -20.032467 -18.793285 -3.746157 0.000000 0.000000 -1.000000 0.187792 0.498640 1 0 1.000000
  0 -20.692947 -18.388542 -3.746157 0.000000 0.000000 -1.000000 0.185487 0.497228 1 0 1.000000
Box_dropper
  0 -20.379719 -17.773800 -3.746157 0.000000 0.000000 -1.000000 0.186580 0.495083 1 0 1.000000
  0 -19.626930 -18.235111 -3.746157 0.000000 0.000000 -1.000000 0.189207 0.496692 1 0 1.000000
  0 -20.032467 -18.793285 -3.746157 0.000000 0.000000 -1.000000 0.187792 0.498640 1 0 1.000000
Box_dropper
  0 -19.626930 -18.235111 -3.746157 0.000000 0.000000 -1.000000 0.189207 0.496692 1 0 1.000000
  0 -19.443436 -19.296366 -3.746157 0.000000 0.000000 -1.000000 0.189847 0.500395 1 0 1.000000
  0 -20.032467 -18.793285 -3.746157 0.000000 0.000000 -1.000000 0.187792 0.498640 1 0 1.000000
Box_dropper
  0 -19.626930 -18.235111 -3.746157 0.000000 0.000000 -1.000000 0.189207 0.496692 1 0 1.000000
  0 -18.955572 -18.808504 -3.746157 0.000000 0.000000 -1.000000 0.191550 0.498693 1 0 1.000000
  0 -19.443436 -19.296366 -3.746157 0.000000 0.000000 -1.000000 0.189847 0.500395 1 0 1.000000
Box_dropper
  0 -18.955572 -18.808504 -3.746157 0.000000 0.000000 -1.000000 0.191550 0.498693 1 0 1.000000
  0 -18.940353 -19.885399 -3.746157 0.000000 0.000000 -1.000000 0.191603 0.502451 1 0 1.000000
  0 -19.443436 -19.296366 -3.746157 0.000000 0.000000 -1.000000 0.189847 0.500395 1 0 1.000000
Box_dropper
  0 -18.955572 -18.808504 -3.746157 0.000000 0.000000 -1.000000 0.191550 0.498693 1 0 1.000000
  0 -18.382179 -19.479860 -3.746157 0.000000 0.000000 -1.000000 0.193550 0.501036 1 0 1.000000
  0 -18.940353 -19.885399 -3.746157 0.000000 0.000000 -1.000000 0.191603 0.502451 1 0 1.000000
Box_dropper
  0 -18.382179 -19.479860 -3.746157 0.000000 0.000000 -1.000000 0.193550 0.501036 1 0 1.000000
  0 -18.535612 -20.545877 -3.746157 0.000000 0.000000 -1.000000 0.193015 0.504755 1 0 1.000000
  0 -18.940353 -19.885399 -3.746157 0.000000 0.000000 -1.000000 0.191603 0.502451 1 0 1.000000
Box_dropper
  0 -18.382179 -19.479860 -3.746157 0.000000 0.000000 -1.000000 0.193550 0.501036 1 0 1.000000
  0 -17.920868 -20.232651 -3.746157 0.000000 0.000000 -1.000000 0.195160 0.503662 1 0 1.000000
  0 -18.535612 -20.545877 -3.746157 0.000000 0.000000 -1.000000 0.193015 0.504755 1 0 1.000000
Box_dropper
  0 -17.920868 -20.232651 -3.746157 0.000000 0.000000 -1.000000 0.195160 0.503662 1 0 1.000000
  0 -18.239174 -21.261541 -3.746157 0.000000 0.000000 -1.000000 0.194049 0.507252 1 0 1.000000
  0 -18.535612 -20.545877 -3.746157 0.000000 0.000000 -1.000000 0.193015 0.504755 1 0 1.000000
Box_dropper
  0 -17.920868 -20.232651 -3.746157 0.000000 0.000000 -1.000000 0.195160 0.503662 1 0 1.000000
  0 -17.583000 -21.048338 -3.746157 0.000000 0.000000 -1.000000 0.196339 0.506508 1 0 1.000000
  0 -18.239174 -21.261541 -3.746157 0.000000 0.000000 -1.000000 0.194049 0.507252 1 0 1.000000
Box_dropper
  0 -17.583000 -21.048338 -3.746157 0.000000 0.000000 -1.000000 0.196339 0.506508 1 0 1.000000
  0 -18.058340 -22.014767 -3.746157 0.000000 0.000000 -1.000000 0.194680 0.509881 1 0 1.000000
  0 -18.239174 -21.261541 -3.746157 0.000000 0.000000 -1.000000 0.194049 0.507252 1 0 1.000000
Box_dropper
  0 -17.583000 -21.048338 -3.746157 0.000000 0.000000 -1.000000 0.196339 0.506508 1 0 1.000000
  0 -17.376892 -21.906836 -3.746157 0.000000 0.000000 -1.000000 0.197058 0.509504 1 0 1.000000
  0 -18.058340 -22.014767 -3.746157 0.000000 0.000000 -1.000000 0.194680 0.509881 1 0 1.000000
Box_dropper
  0 -17.376892 -21.906836 -3.746157 0.000000 0.000000 -1.000000 0.197058 0.509504 1 0 1.000000
  0 -17.997564 -22.787008 -3.746157 0.000000 0.000000 -1.000000 0.194892 0.512575 1 0 1.000000
  0 -18.058340 -22.014767 -3.746157 0.000000 0.000000 -1.000000 0.194680 0.509881 1 0 1.000000
Box_dropper
  0 -17.376892 -21.906836 -3.746157 0.000000 0.000000 -1.000000 0.197058 0.509504 1 0 1.000000
  0 -17.307621 -22.787008 -3.746157 0.000000 0.000000 -1.000000 0.197300 0.512575 1 0 1.000000
  0 -17.997564 -22.787008 -3.746157 0.000000 0.000000 -1.000000 0.194892 0.512575 1 0 1.000000
Box_dropper
  0 -22.934076 -16.157461 -2.032157 0.067768 0.861080 -0.503934 0.552588 0.659290 1 0 1.000000
  0 -22.053905 -17.229824 -3.746157 0.135013 0.852438 -0.505095 0.548893 0.650689 1 0 1.000000
  0 -22.934076 -17.160553 -3.746157 0.067768 0.861080 -0.503934 0.552588 0.650689 1 0 1.000000
Box_dropper
  0 -22.934076 -16.157461 -2.032157 0.067768 0.861080 -0.503934 0.552588 0.659290 1 0 1.000000
  0 -21.896986 -16.239082 -2.032157 0.135013 0.852438 -0.505095 0.548893 0.659290 1 0 1.000000
  0 -22.053905 -17.229824 -3.746157 0.135013 0.852438 -0.505095 0.548893 0.650689 1 0 1.000000
Box_dropper
  0 -21.896986 -16.239082 -2.032157 0.135013 0.852438 -0.505095 0.548893 0.659290 1 0 1.000000
  0 -21.195406 -17.435932 -3.746157 0.266701 0.820823 -0.505095 0.545197 0.650689 1 0 1.000000
  0 -22.053905 -17.229824 -3.746157 0.135013 0.852438 -0.505095 0.548893 0.650689 1 0 1.000000
Box_dropper
  0 -21.896986 -16.239082 -2.032157 0.135013 0.852438 -0.505095 0.548893 0.659290 1 0 1.000000
  0 -20.885433 -16.481934 -2.032157 0.266701 0.820823 -0.505095 0.545197 0.659290 1 0 1.000000
  0 -21.195406 -17.435932 -3.746157 0.266701 0.820823 -0.505095 0.545197 0.650689 1 0 1.000000
Box_dropper
  0 -20.885433 -16.481934 -2.032157 0.266701 0.820823 -0.505095 0.545197 0.659290 1 0 1.000000
  0 -20.379719 -17.773800 -3.746157 0.391823 0.768996 -0.505095 0.541502 0.650689 1 0 1.000000
  0 -21.195406 -17.435932 -3.746157 0.266701 0.820823 -0.505095 0.545197 0.650689 1 0 1.000000
Box_dropper
  0 -20.885433 -16.481934 -2.032157 0.266701 0.820823 -0.505095 0.545197 0.659290 1 0 1.000000
  0 -19.924326 -16.880039 -2.032157 0.391823 0.768996 -0.505095 0.541502 0.659290 1 0 1.000000
  0 -20.379719 -17.773800 -3.746157 0.391823 0.768996 -0.505095 0.541502 0.650689 1 0 1.000000
Box_dropper
  0 -19.924326 -16.880039 -2.032157 0.391823 0.768996 -0.505095 0.541502 0.659290 1 0 1.000000
  0 -19.626930 -18.235111 -3.746157 0.507296 0.698233 -0.505095 0.537807 0.650689 1 0 1.000000
  0 -20.379719 -17.773800 -3.746157 0.391823 0.768996 -0.505095 0.541502 0.650689 1 0 1.000000
Box_dropper
  0 -19.924326 -16.880039 -2.032157 0.391823 0.768996 -0.505095 0.541502 0.659290 1 0 1.000000
  0 -19.037327 -17.423592 -2.032157 0.507296 0.698233 -0.505095 0.537807 0.659290 1 0 1.000000
  0 -19.626930 -18.235111 -3.746157 0.507296 0.698233 -0.505095 0.537807 0.650689 1 0 1.000000
Box_dropper
  0 -19.037327 -17.423592 -2.032157 0.507296 0.698233 -0.505095 0.537807 0.659290 1 0 1.000000
  0 -18.955572 -18.808504 -3.746157 0.610278 0.610278 -0.505095 0.534112 0.650689 1 0 1.000000
  0 -19.626930 -18.235111 -3.746157 0.507296 0.698233 -0.505095 0.537807 0.650689 1 0 1.000000
Box_dropper
  0 -19.037327 -17.423592 -2.032157 0.507296 0.698233 -0.505095 0.537807 0.659290 1 0 1.000000
  0 -18.246279 -18.099211 -2.032157 0.610278 0.610278 -0.505095 0.534112 0.659290 1 0 1.000000
  0 -18.955572 -18.808504 -3.746157 0.610278 0.610278 -0.505095 0.534112 0.650689 1 0 1.000000
Box_dropper
  0 -18.246279 -18.099211 -2.032157 0.610278 0.610278 -0.505095 0.534112 0.659290 1 0 1.000000
  0 -18.382179 -19.479860 -3.746157 0.698233 0.507296 -0.505095 0.530417 0.650689 1 0 1.000000
  0 -18.955572 -18.808504 -3.746157 0.610278 0.610278 -0.505095 0.534112 0.650689 1 0 1.000000
Box_dropper
  0 -18.246279 -18.099211 -2.032157 0.610278 0.610278 -0.505095 0.534112 0.659290 1 0 1.000000
  0 -17.570660 -18.890259 -2.032157 0.698233 0.507296 -0.505095 0.530417 0.659290 1 0 1.000000
  0 -18.382179 -19.479860 -3.746157 0.698233 0.507296 -0.505095 0.530417 0.650689 1 0 1.000000
Box_dropper
  0 -17.570660 -18.890259 -2.032157 0.698233 0.507296 -0.505095 0.530417 0.659290 1 0 1.000000
  0 -17.920868 -20.232651 -3.746157 0.768996 0.391823 -0.505095 0.526722 0.650689 1 0 1.000000
  0 -18.382179 -19.479860 -3.746157 0.698233 0.507296 -0.505095 0.530417 0.650689 1 0 1.000000
Box_dropper
  0 -17.570660 -18.890259 -2.032157 0.698233 0.507296 -0.505095 0.530417 0.659290 1 0 1.000000
  0 -17.027107 -19.777256 -2.032157 0.768996 0.391823 -0.505095 0.526722 0.659290 1 0 1.000000
  0 -17.920868 -20.232651 -3.746157 0.768996 0.391823 -0.505095 0.526722 0.650689 1 0 1.000000
Box_dropper
  0 -17.027107 -19.777256 -2.032157 0.768996 0.391823 -0.505095 0.526722 0.659290 1 0 1.000000
  0 -17.583000 -21.048338 -3.746157 0.820823 0.266701 -0.505095 0.523027 0.650689 1 0 1.000000
  0 -17.920868 -20.232651 -3.746157 0.768996 0.391823 -0.505095 0.526722 0.650689 1 0 1.000000
Box_dropper
  0 -17.027107 -19.777256 -2.032157 0.768996 0.391823 -0.505095 0.526722 0.659290 1 0 1.000000
  0 -16.629004 -20.738365 -2.032157 0.820823 0.266701 -0.505095 0.523027 0.659290 1 0 1.000000
  0 -17.583000 -21.048338 -3.746157 0.820823 0.266701 -0.505095 0.523027 0.650689 1 0 1.000000
Box_dropper
  0 -16.629004 -20.738365 -2.032157 0.820823 0.266701 -0.505095 0.523027 0.659290 1 0 1.000000
  0 -17.376892 -21.906836 -3.746157 0.852438 0.135013 -0.505095 0.519331 0.650689 1 0 1.000000
  0 -17.583000 -21.048338 -3.746157 0.820823 0.266701 -0.505095 0.523027 0.650689 1 0 1.000000
Box_dropper
  0 -16.629004 -20.738365 -2.032157 0.820823 0.266701 -0.505095 0.523027 0.659290 1 0 1.000000
  0 -16.386150 -21.749918 -2.032157 0.852438 0.135013 -0.505095 0.519331 0.659290 1 0 1.000000
  0 -17.376892 -21.906836 -3.746157 0.852438 0.135013 -0.505095 0.519331 0.650689 1 0 1.000000
Box_dropper
  0 -16.386150 -21.749918 -2.032157 0.852438 0.135013 -0.505095 0.519331 0.659290 1 0 1.000000
  0 -17.307621 -22.787008 -3.746157 0.861080 0.067768 -0.503934 0.515636 0.650689 1 0 1.000000
  0 -17.376892 -21.906836 -3.746157 0.852438 0.135013 -0.505095 0.519331 0.650689 1 0 1.000000
Box_dropper
  0 -16.386150 -21.749918 -2.032157 0.852438 0.135013 -0.505095 0.519331 0.659290 1 0 1.000000
  0 -16.304529 -22.787008 -2.032157 0.861080 0.067768 -0.503934 0.515636 0.659290 1 0 1.000000
  0 -17.307621 -22.787008 -3.746157 0.861080 0.067768 -0.503934 0.515636 0.650689 1 0 1.000000
Box_dropper
  0 -22.934076 -17.850494 -3.746157 -0.055479 -0.704927 -0.707107 0.177668 0.495350 1 0 1.000000
  0 -22.218815 -18.271021 -3.383047 -0.110445 -0.697322 -0.708198 0.180163 0.496818 1 0 1.000000
  0 -22.934076 -18.214727 -3.383047 -0.055479 -0.704927 -0.707107 0.177668 0.496621 1 0 1.000000
Box_dropper
  0 -22.934076 -17.850494 -3.746157 -0.055479 -0.704927 -0.707107 0.177668 0.495350 1 0 1.000000
  0 -22.161837 -17.911272 -3.746157 -0.110445 -0.697322 -0.708198 0.180362 0.495562 1 0 1.000000
  0 -22.218815 -18.271021 -3.383047 -0.110445 -0.697322 -0.708198 0.180163 0.496818 1 0 1.000000
Box_dropper
  0 -22.161837 -17.911272 -3.746157 -0.110445 -0.697322 -0.708198 0.180362 0.495562 1 0 1.000000
  0 -21.521164 -18.438511 -3.383047 -0.218170 -0.671459 -0.708198 0.182598 0.497402 1 0 1.000000
  0 -22.218815 -18.271021 -3.383047 -0.110445 -0.697322 -0.708198 0.180163 0.496818 1 0 1.000000
Box_dropper
  0 -22.161837 -17.911272 -3.746157 -0.110445 -0.697322 -0.708198 0.180362 0.495562 1 0 1.000000
  0 -21.408609 -18.092106 -3.746157 -0.218170 -0.671459 -0.708198 0.182990 0.496193 1 0 1.000000
  0 -21.521164 -18.438511 -3.383047 -0.218170 -0.671459 -0.708198 0.182598 0.497402 1 0 1.000000
Box_dropper
  0 -21.408609 -18.092106 -3.746157 -0.218170 -0.671459 -0.708198 0.182990 0.496193 1 0 1.000000
  0 -20.858305 -18.713078 -3.383047 -0.320524 -0.629063 -0.708198 0.184910 0.498360 1 0 1.000000
  0 -21.521164 -18.438511 -3.383047 -0.218170 -0.671459 -0.708198 0.182598 0.497402 1 0 1.000000
Box_dropper
  0 -21.408609 -18.092106 -3.746157 -0.218170 -0.671459 -0.708198 0.182990 0.496193 1 0 1.000000
  0 -20.692947 -18.388542 -3.746157 -0.320524 -0.629063 -0.708198 0.185487 0.497228 1 0 1.000000
  0 -20.858305 -18.713078 -3.383047 -0.320524 -0.629063 -0.708198 0.184910 0.498360 1 0 1.000000
Box_dropper
  0 -20.692947 -18.388542 -3.746157 -0.320524 -0.629063 -0.708198 0.185487 0.497228 1 0 1.000000
  0 -20.246557 -19.087955 -3.383047 -0.414985 -0.571178 -0.708197 0.187045 0.499668 1 0 1.000000
  0 -20.858305 -18.713078 -3.383047 -0.320524 -0.629063 -0.708198 0.184910 0.498360 1 0 1.000000
Box_dropper
  0 -20.692947 -18.388542 -3.746157 -0.320524 -0.629063 -0.708198 0.185487 0.497228 1 0 1.000000
  0 -20.032467 -18.793285 -3.746157 -0.414985 -0.571178 -0.708197 0.187792 0.498640 1 0 1.000000
  0 -20.246557 -19.087955 -3.383047 -0.414985 -0.571178 -0.708197 0.187045 0.499668 1 0 1.000000
Box_dropper
  0 -20.032467 -18.793285 -3.746157 -0.414985 -0.571178 -0.708197 0.187792 0.498640 1 0 1.000000
  0 -19.700987 -19.553917 -3.383047 -0.499228 -0.499228 -0.708197 0.188949 0.501294 1 0 1.000000
  0 -20.246557 -19.087955 -3.383047 -0.414985 -0.571178 -0.708197 0.187045 0.499668 1 0 1.000000
Box_dropper
  0 -20.032467 -18.793285 -3.746157 -0.414985 -0.571178 -0.708197 0.187792 0.498640 1 0 1.000000
  0 -19.443436 -19.296366 -3.746157 -0.499228 -0.499228 -0.708197 0.189847 0.500395 1 0 1.000000
  0 -19.700987 -19.553917 -3.383047 -0.499228 -0.499228 -0.708197 0.188949 0.501294 1 0 1.000000
Box_dropper
  0 -19.443436 -19.296366 -3.746157 -0.499228 -0.499228 -0.708197 0.189847 0.500395 1 0 1.000000
  0 -19.235025 -20.099489 -3.383047 -0.571178 -0.414985 -0.708197 0.190575 0.503198 1 0 1.000000
  0 -19.700987 -19.553917 -3.383047 -0.499228 -0.499228 -0.708197 0.188949 0.501294 1 0 1.000000
Box_dropper
  0 -19.443436 -19.296366 -3.746157 -0.499228 -0.499228 -0.708197 0.189847 0.500395 1 0 1.000000
  0 -18.940353 -19.885399 -3.746157 -0.571178 -0.414985 -0.708197 0.191603 0.502451 1 0 1.000000
  0 -19.235025 -20.099489 -3.383047 -0.571178 -0.414985 -0.708197 0.190575 0.503198 1 0 1.000000
Box_dropper
  0 -18.940353 -19.885399 -3.746157 -0.571178 -0.414985 -0.708197 0.191603 0.502451 1 0 1.000000
  0 -18.860146 -20.711237 -3.383047 -0.629063 -0.320524 -0.708198 0.191883 0.505332 1 0 1.000000
  0 -19.235025 -20.099489 -3.383047 -0.571178 -0.414985 -0.708197 0.190575 0.503198 1 0 1.000000
Box_dropper
  0 -18.940353 -19.885399 -3.746157 -0.571178 -0.414985 -0.708197 0.191603 0.502451 1 0 1.000000
  0 -18.535612 -20.545877 -3.746157 -0.629063 -0.320524 -0.708198 0.193015 0.504755 1 0 1.000000
  0 -18.860146 -20.711237 -3.383047 -0.629063 -0.320524 -0.708198 0.191883 0.505332 1 0 1.000000
Box_dropper
  0 -18.535612 -20.545877 -3.746157 -0.629063 -0.320524 -0.708198 0.193015 0.504755 1 0 1.000000
  0 -18.585581 -21.374096 -3.383047 -0.671460 -0.218170 -0.708198 0.192841 0.507645 1 0 1.000000
  0 -18.860146 -20.711237 -3.383047 -0.629063 -0.320524 -0.708198 0.191883 0.505332 1 0 1.000000
Box_dropper
  0 -18.535612 -20.545877 -3.746157 -0.629063 -0.320524 -0.708198 0.193015 0.504755 1 0 1.000000
  0 -18.239174 -21.261541 -3.746157 -0.671460 -0.218170 -0.708198 0.194049 0.507252 1 0 1.000000
  0 -18.585581 -21.374096 -3.383047 -0.671460 -0.218170 -0.708198 0.192841 0.507645 1 0 1.000000
Box_dropper
  0 -18.239174 -21.261541 -3.746157 -0.671460 -0.218170 -0.708198 0.194049 0.507252 1 0 1.000000
  0 -18.418089 -22.071745 -3.383047 -0.697322 -0.110445 -0.708198 0.193425 0.510079 1 0 1.000000
  0 -18.585581 -21.374096 -3.383047 -0.671460 -0.218170 -0.708198 0.192841 0.507645 1 0 1.000000
Box_dropper
  0 -18.239174 -21.261541 -3.746157 -0.671460 -0.218170 -0.708198 0.194049 0.507252 1 0 1.000000
  0 -18.058340 -22.014767 -3.746157 -0.697322 -0.110445 -0.708198 0.194680 0.509881 1 0 1.000000
  0 -18.418089 -22.071745 -3.383047 -0.697322 -0.110445 -0.708198 0.193425 0.510079 1 0 1.000000
Box_dropper
  0 -18.058340 -22.014767 -3.746157 -0.697322 -0.110445 -0.708198 0.194680 0.509881 1 0 1.000000
  0 -18.361797 -22.787008 -3.383047 -0.704927 -0.055479 -0.707107 0.193621 0.512575 1 0 1.000000
  0 -18.418089 -22.071745 -3.383047 -0.697322 -0.110445 -0.708198 0.193425 0.510079 1 0 1.000000
Box_dropper
  0 -18.058340 -22.014767 -3.746157 -0.697322 -0.110445 -0.708198 0.194680 0.509881 1 0 1.000000
  0 -17.997564 -22.787008 -3.746157 -0.704927 -0.055479 -0.707107 0.194892 0.512575 1 0 1.000000
  0 -18.361797 -22.787008 -3.383047 -0.704927 -0.055479 -0.707107 0.193621 0.512575 1 0 1.000000
Box_dropper
  0 -22.934076 -18.214727 -3.383047 -0.078459 -0.996917 0.000000 0.501957 0.664018 1 0 1.000000
  0 -22.218815 -18.271021 -2.127157 -0.156434 -0.987688 0.000000 0.499533 0.670014 1 0 1.000000
  0 -22.934076 -18.214727 -2.127157 -0.078459 -0.996917 0.000000 0.501957 0.670014 1 0 1.000000
Box_dropper
  0 -22.934076 -18.214727 -3.383047 -0.078459 -0.996917 0.000000 0.501957 0.664018 1 0 1.000000
  0 -22.218815 -18.271021 -3.383047 -0.156434 -0.987688 0.000000 0.499533 0.664018 1 0 1.000000
  0 -22.218815 -18.271021 -2.127157 -0.156434 -0.987688 0.000000 0.499533 0.670014 1 0 1.000000
Box_dropper
  0 -22.218815 -18.271021 -3.383047 -0.156434 -0.987688 0.000000 0.499533 0.664018 1 0 1.000000
  0 -21.521164 -18.438511 -2.127157 -0.309017 -0.951056 0.000000 0.497108 0.670014 1 0 1.000000
  0 -22.218815 -18.271021 -2.127157 -0.156434 -0.987688 0.000000 0.499533 0.670014 1 0 1.000000
Box_dropper
  0 -22.218815 -18.271021 -3.383047 -0.156434 -0.987688 0.000000 0.499533 0.664018 1 0 1.000000
  0 -21.521164 -18.438511 -3.383047 -0.309017 -0.951056 0.000000 0.497108 0.664018 1 0 1.000000
  0 -21.521164 -18.438511 -2.127157 -0.309017 -0.951056 0.000000 0.497108 0.670014 1 0 1.000000
Box_dropper
  0 -21.521164 -18.438511 -3.383047 -0.309017 -0.951056 0.000000 0.497108 0.664018 1 0 1.000000
  0 -20.858305 -18.713078 -2.127157 -0.453991 -0.891006 0.000000 0.494683 0.670014 1 0 1.000000
  0 -21.521164 -18.438511 -2.127157 -0.309017 -0.951056 0.000000 0.497108 0.670014 1 0 1.000000
Box_dropper
  0 -21.521164 -18.438511 -3.383047 -0.309017 -0.951056 0.000000 0.497108 0.664018 1 0 1.000000
  0 -20.858305 -18.713078 -3.383047 -0.453991 -0.891006 0.000000 0.494683 0.664018 1 0 1.000000
  0 -20.858305 -18.713078 -2.127157 -0.453991 -0.891006 0.000000 0.494683 0.670014 1 0 1.000000
Box_dropper
  0 -20.858305 -18.713078 -3.383047 -0.453991 -0.891006 0.000000 0.494683 0.664018 1 0 1.000000
  0 -20.246557 -19.087955 -2.127157 -0.587785 -0.809017 0.000000 0.492258 0.670014 1 0 1.000000
  0 -20.858305 -18.713078 -2.127157 -0.453991 -0.891006 0.000000 0.494683 0.670014 1 0 1.000000
Box_dropper
  0 -20.858305 -18.713078 -3.383047 -0.453991 -0.891006 0.000000 0.494683 0.664018 1 0 1.000000
  0 -20.246557 -19.087955 -3.383047 -0.587785 -0.809017 0.000000 0.492258 0.664018 1 0 1.000000
  0 -20.246557 -19.087955 -2.127157 -0.587785 -0.809017 0.000000 0.492258 0.670014 1 0 1.000000
Box_dropper
  0 -20.246557 -19.087955 -3.383047 -0.587785 -0.809017 0.000000 0.492258 0.664018 1 0 1.000000
  0 -19.700987 -19.553917 -2.127157 -0.707107 -0.707107 0.000000 0.489834 0.670014 1 0 1.000000
  0 -20.246557 -19.087955 -2.127157 -0.587785 -0.809017 0.000000 0.492258 0.670014 1 0 1.000000
Box_dropper
  0 -20.246557 -19.087955 -3.383047 -0.587785 -0.809017 0.000000 0.492258 0.664018 1 0 1.000000
  0 -19.700987 -19.553917 -3.383047 -0.707107 -0.707107 0.000000 0.489834 0.664018 1 0 1.000000
  0 -19.700987 -19.553917 -2.127157 -0.707107 -0.707107 0.000000 0.489834 0.670014 1 0 1.000000
Box_dropper
  0 -19.700987 -19.553917 -3.383047 -0.707107 -0.707107 0.000000 0.489834 0.664018 1 0 1.000000
  0 -19.235025 -20.099489 -2.127157 -0.809017 -0.587785 0.000000 0.487409 0.670014 1 0 1.000000
  0 -19.700987 -19.553917 -2.127157 -0.707107 -0.707107 0.000000 0.489834 0.670014 1 0 1.000000
Box_dropper
  0 -19.700987 -19.553917 -3.383047 -0.707107 -0.707107 0.000000 0.489834 0.664018 1 0 1.000000
  0 -19.235025 -20.099489 -3.383047 -0.809017 -0.587785 0.000000 0.487409 0.664018 1 0 1.000000
  0 -19.235025 -20.099489 -2.127157 -0.809017 -0.587785 0.000000 0.487409 0.670014 1 0 1.000000
Box_dropper
  0 -19.235025 -20.099489 -3.383047 -0.809017 -0.587785 0.000000 0.487409 0.664018 1 0 1.000000
  0 -18.860146 -20.711237 -2.127157 -0.891006 -0.453991 0.000000 0.484984 0.670014 1 0 1.000000
  0 -19.235025 -20.099489 -2.127157 -0.809017 -0.587785 0.000000 0.487409 0.670014 1 0 1.000000
Box_dropper
  0 -19.235025 -20.099489 -3.383047 -0.809017 -0.587785 0.000000 0.487409 0.664018 1 0 1.000000
  0 -18.860146 -20.711237 -3.383047 -0.891006 -0.453991 0.000000 0.484984 0.664018 1 0 1.000000
  0 -18.860146 -20.711237 -2.127157 -0.891006 -0.453991 0.000000 0.484984 0.670014 1 0 1.000000
Box_dropper
  0 -18.860146 -20.711237 -3.383047 -0.891006 -0.453991 0.000000 0.484984 0.664018 1 0 1.000000
  0 -18.585581 -21.374096 -2.127157 -0.951056 -0.309017 0.000000 0.482559 0.670014 1 0 1.000000
  0 -18.860146 -20.711237 -2.127157 -0.891006 -0.453991 0.000000 0.484984 0.670014 1 0 1.000000
Box_dropper
  0 -18.860146 -20.711237 -3.383047 -0.891006 -0.453991 0.000000 0.484984 0.664018 1 0 1.000000
  0 -18.585581 -21.374096 -3.383047 -0.951056 -0.309017 0.000000 0.482559 0.664018 1 0 1.000000
  0 -18.585581 -21.374096 -2.127157 -0.951056 -0.309017 0.000000 0.482559 0.670014 1 0 1.000000
Box_dropper
  0 -18.585581 -21.374096 -3.383047 -0.951056 -0.309017 0.000000 0.482559 0.664018 1 0 1.000000
  0 -18.418089 -22.071745 -2.127157 -0.987688 -0.156434 0.000000 0.480135 0.670014 1 0 1.000000
  0 -18.585581 -21.374096 -2.127157 -0.951056 -0.309017 0.000000 0.482559 0.670014 1 0 1.000000
Box_dropper
  0 -18.585581 -21.374096 -3.383047 -0.951056 -0.309017 0.000000 0.482559 0.664018 1 0 1.000000
  0 -18.418089 -22.071745 -3.383047 -0.987688 -0.156434 0.000000 0.480135 0.664018 1 0 1.000000
  0 -18.418089 -22.071745 -2.127157 -0.987688 -0.156434 0.000000 0.480135 0.670014 1 0 1.000000
Box_dropper
  0 -18.418089 -22.071745 -3.383047 -0.987688 -0.156434 0.000000 0.480135 0.664018 1 0 1.000000
  0 -18.361797 -22.787008 -2.127157 -0.996917 -0.078459 0.000000 0.477710 0.670014 1 0 1.000000
  0 -18.418089 -22.071745 -2.127157 -0.987688 -0.156434 0.000000 0.480135 0.670014 1 0 1.000000
Box_dropper
  0 -18.418089 -22.071745 -3.383047 -0.987688 -0.156434 0.000000 0.480135 0.664018 1 0 1.000000
  0 -18.361797 -22.787008 -3.383047 -0.996917 -0.078459 0.000000 0.477710 0.664018 1 0 1.000000
  0 -18.361797 -22.787008 -2.127157 -0.996917 -0.078459 0.000000 0.477710 0.670014 1 0 1.000000
end
