version 1
nodes
0 "portal_button_root" -1
1 "portal_button_top" -1
2 "static_prop" -1
3 "button_whole_reference_02.polymsh" -1
4 "portal_button_export" -1
end
skeleton
time 0
0  0.000000 0.000000 0.000000  1.570796 -0.000000 0.000000
1  0.000000 0.000000 14.000000  1.570796 -0.000000 0.000000
2  0.000000 0.000000 0.000000  0.000000 -0.000000 0.000000
3  0.000000 0.000000 0.000000  1.570796 -0.000000 0.000000
4  0.000000 0.000000 0.000000  0.000000 -0.000000 0.000000
end
triangles
  phy
0  4.868535 60.476955 -0.007922  0.268271 0.937071 -0.223447  0.000000 0.000000 1 0 1.000000
0  12.090261 49.488319 -0.007923  0.730269 0.217349 -0.647662  0.000000 0.000000 1 0 1.000000
0  -4.868541 60.476955 -0.007922  -0.268267 0.937080 -0.223412  0.000000 0.000000 1 0 1.000000
  phy
0  -4.868541 60.476955 -0.007922  -0.268267 0.937080 -0.223412  0.000000 0.000000 1 0 1.000000
0  12.090261 49.488319 -0.007923  0.730269 0.217349 -0.647662  0.000000 0.000000 1 0 1.000000
0  -12.090265 49.488319 -0.007923  -0.730263 0.217348 -0.647669  0.000000 0.000000 1 0 1.000000
  phy
0  -12.090265 49.488319 -0.007923  -0.730263 0.217348 -0.647669  0.000000 0.000000 1 0 1.000000
0  12.090261 49.488319 -0.007923  0.730269 0.217349 -0.647662  0.000000 0.000000 1 0 1.000000
0  12.042840 32.901672 -0.007924  0.576435 -0.578087 -0.577527  0.000000 0.000000 1 0 1.000000
  phy
0  -12.090265 49.488319 -0.007923  -0.730263 0.217348 -0.647669  0.000000 0.000000 1 0 1.000000
0  12.042840 32.901672 -0.007924  0.576435 -0.578087 -0.577527  0.000000 0.000000 1 0 1.000000
0  -12.042845 32.901672 -0.007924  -0.576450 -0.578100 -0.577500  0.000000 0.000000 1 0 1.000000
  phy
0  -12.090265 49.488319 5.579817  -0.698189 0.373347 0.610855  0.000000 0.000000 1 0 1.000000
0  12.090261 49.488319 5.579817  0.698177 0.373351 0.610867  0.000000 0.000000 1 0 1.000000
0  -4.868541 60.476955 -0.007922  -0.268267 0.937080 -0.223412  0.000000 0.000000 1 0 1.000000
  phy
0  12.090261 49.488319 5.579817  0.698177 0.373351 0.610867  0.000000 0.000000 1 0 1.000000
0  4.868535 60.476955 -0.007922  0.268271 0.937071 -0.223447  0.000000 0.000000 1 0 1.000000
0  -4.868541 60.476955 -0.007922  -0.268267 0.937080 -0.223412  0.000000 0.000000 1 0 1.000000
  phy
0  -12.090265 49.488319 5.579817  -0.698189 0.373347 0.610855  0.000000 0.000000 1 0 1.000000
0  -4.868541 60.476955 -0.007922  -0.268267 0.937080 -0.223412  0.000000 0.000000 1 0 1.000000
0  -12.090265 49.488319 -0.007923  -0.730263 0.217348 -0.647669  0.000000 0.000000 1 0 1.000000
  phy
0  12.090261 49.488319 5.579817  0.698177 0.373351 0.610867  0.000000 0.000000 1 0 1.000000
0  12.042840 32.901672 -0.007924  0.576435 -0.578087 -0.577527  0.000000 0.000000 1 0 1.000000
0  12.090261 49.488319 -0.007923  0.730269 0.217349 -0.647662  0.000000 0.000000 1 0 1.000000
  phy
0  12.090261 49.488319 -0.007923  0.730269 0.217349 -0.647662  0.000000 0.000000 1 0 1.000000
0  4.868535 60.476955 -0.007922  0.268271 0.937071 -0.223447  0.000000 0.000000 1 0 1.000000
0  12.090261 49.488319 5.579817  0.698177 0.373351 0.610867  0.000000 0.000000 1 0 1.000000
  phy
0  -12.090265 49.488319 5.579817  -0.698189 0.373347 0.610855  0.000000 0.000000 1 0 1.000000
0  -12.042845 32.901672 9.806223  -0.564538 -0.506732 0.651552  0.000000 0.000000 1 0 1.000000
0  12.090261 49.488319 5.579817  0.698177 0.373351 0.610867  0.000000 0.000000 1 0 1.000000
  phy
0  -12.090265 49.488319 5.579817  -0.698189 0.373347 0.610855  0.000000 0.000000 1 0 1.000000
0  -12.090265 49.488319 -0.007923  -0.730263 0.217348 -0.647669  0.000000 0.000000 1 0 1.000000
0  -12.042845 32.901672 9.806223  -0.564538 -0.506732 0.651552  0.000000 0.000000 1 0 1.000000
  phy
0  12.090261 49.488319 5.579817  0.698177 0.373351 0.610867  0.000000 0.000000 1 0 1.000000
0  12.042840 32.901672 9.806223  0.564545 -0.506760 0.651523  0.000000 0.000000 1 0 1.000000
0  12.042840 32.901672 -0.007924  0.576435 -0.578087 -0.577527  0.000000 0.000000 1 0 1.000000
  phy
0  12.090261 49.488319 5.579817  0.698177 0.373351 0.610867  0.000000 0.000000 1 0 1.000000
0  -12.042845 32.901672 9.806223  -0.564538 -0.506732 0.651552  0.000000 0.000000 1 0 1.000000
0  12.042840 32.901672 9.806223  0.564545 -0.506760 0.651523  0.000000 0.000000 1 0 1.000000
  phy
0  -12.090265 49.488319 -0.007923  -0.730263 0.217348 -0.647669  0.000000 0.000000 1 0 1.000000
0  -12.042845 32.901672 -0.007924  -0.576450 -0.578100 -0.577500  0.000000 0.000000 1 0 1.000000
0  -12.042845 32.901672 9.806223  -0.564538 -0.506732 0.651552  0.000000 0.000000 1 0 1.000000
  phy
0  12.042840 32.901672 -0.007924  0.576435 -0.578087 -0.577527  0.000000 0.000000 1 0 1.000000
0  -12.042845 32.901672 9.806223  -0.564538 -0.506732 0.651552  0.000000 0.000000 1 0 1.000000
0  -12.042845 32.901672 -0.007924  -0.576450 -0.578100 -0.577500  0.000000 0.000000 1 0 1.000000
  phy
0  12.042840 32.901672 -0.007924  0.576435 -0.578087 -0.577527  0.000000 0.000000 1 0 1.000000
0  12.042840 32.901672 9.806223  0.564545 -0.506760 0.651523  0.000000 0.000000 1 0 1.000000
0  -12.042845 32.901672 9.806223  -0.564538 -0.506732 0.651552  0.000000 0.000000 1 0 1.000000
  phy
0  -27.914036 48.431335 0.123512  -0.491504 0.848791 -0.194880  0.000000 0.000000 1 0 1.000000
0  -12.115099 53.858234 0.123513  0.424834 0.889750 -0.166915  0.000000 0.000000 1 0 1.000000
0  -12.131162 33.295238 0.123512  0.715388 -0.304803 -0.628741  0.000000 0.000000 1 0 1.000000
  phy
0  -27.914036 48.431335 0.123512  -0.491504 0.848791 -0.194880  0.000000 0.000000 1 0 1.000000
0  -12.131162 33.295238 0.123512  0.715388 -0.304803 -0.628741  0.000000 0.000000 1 0 1.000000
0  -39.189709 39.561684 0.123511  -0.689247 0.698953 -0.190797  0.000000 0.000000 1 0 1.000000
  phy
0  -39.189709 39.561684 0.123511  -0.689247 0.698953 -0.190797  0.000000 0.000000 1 0 1.000000
0  -12.131162 33.295238 0.123512  0.715388 -0.304803 -0.628741  0.000000 0.000000 1 0 1.000000
0  -48.355453 27.913059 0.123511  -0.851939 0.484103 -0.199610  0.000000 0.000000 1 0 1.000000
  phy
0  -48.355453 27.913059 0.123511  -0.851939 0.484103 -0.199610  0.000000 0.000000 1 0 1.000000
0  -12.131162 33.295238 0.123512  0.715388 -0.304803 -0.628741  0.000000 0.000000 1 0 1.000000
0  -33.755978 12.492304 0.123511  0.288223 -0.719788 -0.631533  0.000000 0.000000 1 0 1.000000
  phy
0  -48.355453 27.913059 0.123511  -0.851939 0.484103 -0.199610  0.000000 0.000000 1 0 1.000000
0  -33.755978 12.492304 0.123511  0.288223 -0.719788 -0.631533  0.000000 0.000000 1 0 1.000000
0  -53.243401 12.575292 0.123510  -0.885343 -0.430353 -0.175963  0.000000 0.000000 1 0 1.000000
  phy
0  -39.189709 39.561684 0.123511  -0.689247 0.698953 -0.190797  0.000000 0.000000 1 0 1.000000
0  -12.131162 33.295238 9.785331  0.632086 -0.139757 0.762191  0.000000 0.000000 1 0 1.000000
0  -27.914036 48.431335 0.123512  -0.491504 0.848791 -0.194880  0.000000 0.000000 1 0 1.000000
  phy
0  -39.189709 39.561684 0.123511  -0.689247 0.698953 -0.190797  0.000000 0.000000 1 0 1.000000
0  -33.755981 12.492303 9.785331  0.116293 -0.632075 0.766132  0.000000 0.000000 1 0 1.000000
0  -12.131162 33.295238 9.785331  0.632086 -0.139757 0.762191  0.000000 0.000000 1 0 1.000000
  phy
0  -48.355453 27.913059 0.123511  -0.851939 0.484103 -0.199610  0.000000 0.000000 1 0 1.000000
0  -33.755981 12.492303 9.785331  0.116293 -0.632075 0.766132  0.000000 0.000000 1 0 1.000000
0  -39.189709 39.561684 0.123511  -0.689247 0.698953 -0.190797  0.000000 0.000000 1 0 1.000000
  phy
0  -12.131162 33.295238 9.785331  0.632086 -0.139757 0.762191  0.000000 0.000000 1 0 1.000000
0  -12.115099 53.858234 0.123513  0.424834 0.889750 -0.166915  0.000000 0.000000 1 0 1.000000
0  -27.914036 48.431335 0.123512  -0.491504 0.848791 -0.194880  0.000000 0.000000 1 0 1.000000
  phy
0  -12.131162 33.295238 9.785331  0.632086 -0.139757 0.762191  0.000000 0.000000 1 0 1.000000
0  -33.755978 12.492304 0.123511  0.288223 -0.719788 -0.631533  0.000000 0.000000 1 0 1.000000
0  -12.131162 33.295238 0.123512  0.715388 -0.304803 -0.628741  0.000000 0.000000 1 0 1.000000
  phy
0  -12.131162 33.295238 0.123512  0.715388 -0.304803 -0.628741  0.000000 0.000000 1 0 1.000000
0  -12.115099 53.858234 0.123513  0.424834 0.889750 -0.166915  0.000000 0.000000 1 0 1.000000
0  -12.131162 33.295238 9.785331  0.632086 -0.139757 0.762191  0.000000 0.000000 1 0 1.000000
  phy
0  -12.131162 33.295238 9.785331  0.632086 -0.139757 0.762191  0.000000 0.000000 1 0 1.000000
0  -33.755981 12.492303 9.785331  0.116293 -0.632075 0.766132  0.000000 0.000000 1 0 1.000000
0  -33.755978 12.492304 0.123511  0.288223 -0.719788 -0.631533  0.000000 0.000000 1 0 1.000000
  phy
0  -53.243401 12.575292 0.123510  -0.885343 -0.430353 -0.175963  0.000000 0.000000 1 0 1.000000
0  -33.755981 12.492303 9.785331  0.116293 -0.632075 0.766132  0.000000 0.000000 1 0 1.000000
0  -48.355453 27.913059 0.123511  -0.851939 0.484103 -0.199610  0.000000 0.000000 1 0 1.000000
  phy
0  -33.755978 12.492304 0.123511  0.288223 -0.719788 -0.631533  0.000000 0.000000 1 0 1.000000
0  -33.755981 12.492303 9.785331  0.116293 -0.632075 0.766132  0.000000 0.000000 1 0 1.000000
0  -53.243401 12.575292 0.123510  -0.885343 -0.430353 -0.175963  0.000000 0.000000 1 0 1.000000
  phy
0  -60.522598 5.335077 -0.007925  -0.937071 0.268270 -0.223448  0.000000 0.000000 1 0 1.000000
0  -49.533962 12.556804 -0.007924  -0.217349 0.730269 -0.647662  0.000000 0.000000 1 0 1.000000
0  -60.522598 -4.401998 -0.007926  -0.937080 -0.268268 -0.223412  0.000000 0.000000 1 0 1.000000
  phy
0  -60.522598 -4.401998 -0.007926  -0.937080 -0.268268 -0.223412  0.000000 0.000000 1 0 1.000000
0  -49.533962 12.556804 -0.007924  -0.217349 0.730269 -0.647662  0.000000 0.000000 1 0 1.000000
0  -49.533962 -11.623722 -0.007926  -0.217348 -0.730264 -0.647668  0.000000 0.000000 1 0 1.000000
  phy
0  -49.533962 -11.623722 -0.007926  -0.217348 -0.730264 -0.647668  0.000000 0.000000 1 0 1.000000
0  -49.533962 12.556804 -0.007924  -0.217349 0.730269 -0.647662  0.000000 0.000000 1 0 1.000000
0  -32.947315 12.509383 -0.007924  0.578087 0.576435 -0.577527  0.000000 0.000000 1 0 1.000000
  phy
0  -49.533962 -11.623722 -0.007926  -0.217348 -0.730264 -0.647668  0.000000 0.000000 1 0 1.000000
0  -32.947315 12.509383 -0.007924  0.578087 0.576435 -0.577527  0.000000 0.000000 1 0 1.000000
0  -32.947315 -11.576303 -0.007926  0.578110 -0.576429 -0.577510  0.000000 0.000000 1 0 1.000000
  phy
0  -60.522598 -4.401998 -0.007926  -0.937080 -0.268268 -0.223412  0.000000 0.000000 1 0 1.000000
0  -49.533962 12.556805 5.579816  -0.373351 0.698177 0.610867  0.000000 0.000000 1 0 1.000000
0  -60.522598 5.335077 -0.007925  -0.937071 0.268270 -0.223448  0.000000 0.000000 1 0 1.000000
  phy
0  -49.533962 -11.623722 5.579814  -0.373350 -0.698183 0.610860  0.000000 0.000000 1 0 1.000000
0  -49.533962 12.556805 5.579816  -0.373351 0.698177 0.610867  0.000000 0.000000 1 0 1.000000
0  -60.522598 -4.401998 -0.007926  -0.937080 -0.268268 -0.223412  0.000000 0.000000 1 0 1.000000
  phy
0  -49.533962 -11.623722 -0.007926  -0.217348 -0.730264 -0.647668  0.000000 0.000000 1 0 1.000000
0  -49.533962 -11.623722 5.579814  -0.373350 -0.698183 0.610860  0.000000 0.000000 1 0 1.000000
0  -60.522598 -4.401998 -0.007926  -0.937080 -0.268268 -0.223412  0.000000 0.000000 1 0 1.000000
  phy
0  -32.947315 -11.576303 9.806220  0.506727 -0.564550 0.651545  0.000000 0.000000 1 0 1.000000
0  -32.947315 12.509383 -0.007924  0.578087 0.576435 -0.577527  0.000000 0.000000 1 0 1.000000
0  -32.947315 12.509383 9.806222  0.506760 0.564545 0.651523  0.000000 0.000000 1 0 1.000000
  phy
0  -32.947315 -11.576303 9.806220  0.506727 -0.564550 0.651545  0.000000 0.000000 1 0 1.000000
0  -32.947315 -11.576303 -0.007926  0.578110 -0.576429 -0.577510  0.000000 0.000000 1 0 1.000000
0  -32.947315 12.509383 -0.007924  0.578087 0.576435 -0.577527  0.000000 0.000000 1 0 1.000000
  phy
0  -32.947315 12.509383 9.806222  0.506760 0.564545 0.651523  0.000000 0.000000 1 0 1.000000
0  -32.947315 12.509383 -0.007924  0.578087 0.576435 -0.577527  0.000000 0.000000 1 0 1.000000
0  -49.533962 12.556805 5.579816  -0.373351 0.698177 0.610867  0.000000 0.000000 1 0 1.000000
  phy
0  -32.947315 12.509383 9.806222  0.506760 0.564545 0.651523  0.000000 0.000000 1 0 1.000000
0  -49.533962 12.556805 5.579816  -0.373351 0.698177 0.610867  0.000000 0.000000 1 0 1.000000
0  -32.947315 -11.576303 9.806220  0.506727 -0.564550 0.651545  0.000000 0.000000 1 0 1.000000
  phy
0  -32.947315 12.509383 -0.007924  0.578087 0.576435 -0.577527  0.000000 0.000000 1 0 1.000000
0  -49.533962 12.556804 -0.007924  -0.217349 0.730269 -0.647662  0.000000 0.000000 1 0 1.000000
0  -49.533962 12.556805 5.579816  -0.373351 0.698177 0.610867  0.000000 0.000000 1 0 1.000000
  phy
0  -49.533962 12.556804 -0.007924  -0.217349 0.730269 -0.647662  0.000000 0.000000 1 0 1.000000
0  -60.522598 5.335077 -0.007925  -0.937071 0.268270 -0.223448  0.000000 0.000000 1 0 1.000000
0  -49.533962 12.556805 5.579816  -0.373351 0.698177 0.610867  0.000000 0.000000 1 0 1.000000
  phy
0  -49.533962 -11.623722 -0.007926  -0.217348 -0.730264 -0.647668  0.000000 0.000000 1 0 1.000000
0  -32.947315 -11.576303 -0.007926  0.578110 -0.576429 -0.577510  0.000000 0.000000 1 0 1.000000
0  -49.533962 -11.623722 5.579814  -0.373350 -0.698183 0.610860  0.000000 0.000000 1 0 1.000000
  phy
0  -32.947315 -11.576303 -0.007926  0.578110 -0.576429 -0.577510  0.000000 0.000000 1 0 1.000000
0  -32.947315 -11.576303 9.806220  0.506727 -0.564550 0.651545  0.000000 0.000000 1 0 1.000000
0  -49.533962 -11.623722 5.579814  -0.373350 -0.698183 0.610860  0.000000 0.000000 1 0 1.000000
  phy
0  -32.947315 -11.576303 9.806220  0.506727 -0.564550 0.651545  0.000000 0.000000 1 0 1.000000
0  -49.533962 12.556805 5.579816  -0.373351 0.698177 0.610867  0.000000 0.000000 1 0 1.000000
0  -49.533962 -11.623722 5.579814  -0.373350 -0.698183 0.610860  0.000000 0.000000 1 0 1.000000
  phy
0  -12.219479 -50.075665 5.579812  -0.698185 -0.373347 0.610860  0.000000 0.000000 1 0 1.000000
0  -4.997753 -61.064297 -0.007928  -0.268268 -0.937082 -0.223406  0.000000 0.000000 1 0 1.000000
0  11.961047 -50.075665 5.579812  0.698181 -0.373351 0.610862  0.000000 0.000000 1 0 1.000000
  phy
0  -4.997753 -61.064297 -0.007928  -0.268268 -0.937082 -0.223406  0.000000 0.000000 1 0 1.000000
0  4.739323 -61.064297 -0.007928  0.268270 -0.937070 -0.223455  0.000000 0.000000 1 0 1.000000
0  11.961047 -50.075665 5.579812  0.698181 -0.373351 0.610862  0.000000 0.000000 1 0 1.000000
  phy
0  -4.997753 -61.064297 -0.007928  -0.268268 -0.937082 -0.223406  0.000000 0.000000 1 0 1.000000
0  -12.219479 -50.075665 -0.007927  -0.730264 -0.217349 -0.647668  0.000000 0.000000 1 0 1.000000
0  4.739323 -61.064297 -0.007928  0.268270 -0.937070 -0.223455  0.000000 0.000000 1 0 1.000000
  phy
0  4.739323 -61.064297 -0.007928  0.268270 -0.937070 -0.223455  0.000000 0.000000 1 0 1.000000
0  -12.219479 -50.075665 -0.007927  -0.730264 -0.217349 -0.647668  0.000000 0.000000 1 0 1.000000
0  11.961047 -50.075665 -0.007927  0.730267 -0.217349 -0.647664  0.000000 0.000000 1 0 1.000000
  phy
0  11.961047 -50.075665 -0.007927  0.730267 -0.217349 -0.647664  0.000000 0.000000 1 0 1.000000
0  -12.219479 -50.075665 -0.007927  -0.730264 -0.217349 -0.647668  0.000000 0.000000 1 0 1.000000
0  11.913626 -33.489014 -0.007926  0.576435 0.578087 -0.577527  0.000000 0.000000 1 0 1.000000
  phy
0  11.913626 -33.489014 -0.007926  0.576435 0.578087 -0.577527  0.000000 0.000000 1 0 1.000000
0  -12.219479 -50.075665 -0.007927  -0.730264 -0.217349 -0.647668  0.000000 0.000000 1 0 1.000000
0  -12.172058 -33.489014 -0.007926  -0.576450 0.578100 -0.577500  0.000000 0.000000 1 0 1.000000
  phy
0  4.739323 -61.064297 -0.007928  0.268270 -0.937070 -0.223455  0.000000 0.000000 1 0 1.000000
0  11.961047 -50.075665 -0.007927  0.730267 -0.217349 -0.647664  0.000000 0.000000 1 0 1.000000
0  11.961047 -50.075665 5.579812  0.698181 -0.373351 0.610862  0.000000 0.000000 1 0 1.000000
  phy
0  11.961047 -50.075665 5.579812  0.698181 -0.373351 0.610862  0.000000 0.000000 1 0 1.000000
0  11.913626 -33.489014 9.806219  0.564541 0.506751 0.651534  0.000000 0.000000 1 0 1.000000
0  -12.219479 -50.075665 5.579812  -0.698185 -0.373347 0.610860  0.000000 0.000000 1 0 1.000000
  phy
0  11.913626 -33.489014 9.806219  0.564541 0.506751 0.651534  0.000000 0.000000 1 0 1.000000
0  -12.172058 -33.489014 9.806219  -0.564543 0.506740 0.651541  0.000000 0.000000 1 0 1.000000
0  -12.219479 -50.075665 5.579812  -0.698185 -0.373347 0.610860  0.000000 0.000000 1 0 1.000000
  phy
0  -12.219479 -50.075665 -0.007927  -0.730264 -0.217349 -0.647668  0.000000 0.000000 1 0 1.000000
0  -12.219479 -50.075665 5.579812  -0.698185 -0.373347 0.610860  0.000000 0.000000 1 0 1.000000
0  -12.172058 -33.489014 9.806219  -0.564543 0.506740 0.651541  0.000000 0.000000 1 0 1.000000
  phy
0  -12.219479 -50.075665 5.579812  -0.698185 -0.373347 0.610860  0.000000 0.000000 1 0 1.000000
0  -12.219479 -50.075665 -0.007927  -0.730264 -0.217349 -0.647668  0.000000 0.000000 1 0 1.000000
0  -4.997753 -61.064297 -0.007928  -0.268268 -0.937082 -0.223406  0.000000 0.000000 1 0 1.000000
  phy
0  11.961047 -50.075665 5.579812  0.698181 -0.373351 0.610862  0.000000 0.000000 1 0 1.000000
0  11.913626 -33.489014 -0.007926  0.576435 0.578087 -0.577527  0.000000 0.000000 1 0 1.000000
0  11.913626 -33.489014 9.806219  0.564541 0.506751 0.651534  0.000000 0.000000 1 0 1.000000
  phy
0  11.961047 -50.075665 5.579812  0.698181 -0.373351 0.610862  0.000000 0.000000 1 0 1.000000
0  11.961047 -50.075665 -0.007927  0.730267 -0.217349 -0.647664  0.000000 0.000000 1 0 1.000000
0  11.913626 -33.489014 -0.007926  0.576435 0.578087 -0.577527  0.000000 0.000000 1 0 1.000000
  phy
0  -12.172058 -33.489014 -0.007926  -0.576450 0.578100 -0.577500  0.000000 0.000000 1 0 1.000000
0  -12.219479 -50.075665 -0.007927  -0.730264 -0.217349 -0.647668  0.000000 0.000000 1 0 1.000000
0  -12.172058 -33.489014 9.806219  -0.564543 0.506740 0.651541  0.000000 0.000000 1 0 1.000000
  phy
0  11.913626 -33.489014 9.806219  0.564541 0.506751 0.651534  0.000000 0.000000 1 0 1.000000
0  11.913626 -33.489014 -0.007926  0.576435 0.578087 -0.577527  0.000000 0.000000 1 0 1.000000
0  -12.172058 -33.489014 9.806219  -0.564543 0.506740 0.651541  0.000000 0.000000 1 0 1.000000
  phy
0  -12.172058 -33.489014 9.806219  -0.564543 0.506740 0.651541  0.000000 0.000000 1 0 1.000000
0  11.913626 -33.489014 -0.007926  0.576435 0.578087 -0.577527  0.000000 0.000000 1 0 1.000000
0  -12.172058 -33.489014 -0.007926  -0.576450 0.578100 -0.577500  0.000000 0.000000 1 0 1.000000
  phy
0  49.754559 -12.078862 5.579814  0.373350 -0.698179 0.610865  0.000000 0.000000 1 0 1.000000
0  60.743191 -4.857135 -0.007926  0.937082 -0.268267 -0.223406  0.000000 0.000000 1 0 1.000000
0  49.754559 12.101664 5.579815  0.373351 0.698181 0.610862  0.000000 0.000000 1 0 1.000000
  phy
0  60.743191 -4.857135 -0.007926  0.937082 -0.268267 -0.223406  0.000000 0.000000 1 0 1.000000
0  60.743191 4.879939 -0.007925  0.937070 0.268270 -0.223454  0.000000 0.000000 1 0 1.000000
0  49.754559 12.101664 5.579815  0.373351 0.698181 0.610862  0.000000 0.000000 1 0 1.000000
  phy
0  60.743191 -4.857135 -0.007926  0.937082 -0.268267 -0.223406  0.000000 0.000000 1 0 1.000000
0  49.754559 -12.078862 -0.007926  0.217349 -0.730266 -0.647666  0.000000 0.000000 1 0 1.000000
0  60.743191 4.879939 -0.007925  0.937070 0.268270 -0.223454  0.000000 0.000000 1 0 1.000000
  phy
0  60.743191 4.879939 -0.007925  0.937070 0.268270 -0.223454  0.000000 0.000000 1 0 1.000000
0  49.754559 -12.078862 -0.007926  0.217349 -0.730266 -0.647666  0.000000 0.000000 1 0 1.000000
0  49.754559 12.101664 -0.007924  0.217349 0.730267 -0.647664  0.000000 0.000000 1 0 1.000000
  phy
0  49.754559 12.101664 -0.007924  0.217349 0.730267 -0.647664  0.000000 0.000000 1 0 1.000000
0  49.754559 -12.078862 -0.007926  0.217349 -0.730266 -0.647666  0.000000 0.000000 1 0 1.000000
0  33.167908 12.054243 -0.007924  -0.578087 0.576435 -0.577527  0.000000 0.000000 1 0 1.000000
  phy
0  33.167908 12.054243 -0.007924  -0.578087 0.576435 -0.577527  0.000000 0.000000 1 0 1.000000
0  49.754559 -12.078862 -0.007926  0.217349 -0.730266 -0.647666  0.000000 0.000000 1 0 1.000000
0  33.167908 -12.031442 -0.007926  -0.578110 -0.576429 -0.577510  0.000000 0.000000 1 0 1.000000
  phy
0  60.743191 4.879939 -0.007925  0.937070 0.268270 -0.223454  0.000000 0.000000 1 0 1.000000
0  49.754559 12.101664 -0.007924  0.217349 0.730267 -0.647664  0.000000 0.000000 1 0 1.000000
0  49.754559 12.101664 5.579815  0.373351 0.698181 0.610862  0.000000 0.000000 1 0 1.000000
  phy
0  33.167908 -12.031442 9.806220  -0.506735 -0.564555 0.651534  0.000000 0.000000 1 0 1.000000
0  33.167908 -12.031442 -0.007926  -0.578110 -0.576429 -0.577510  0.000000 0.000000 1 0 1.000000
0  49.754559 -12.078862 5.579814  0.373350 -0.698179 0.610865  0.000000 0.000000 1 0 1.000000
  phy
0  33.167908 -12.031442 -0.007926  -0.578110 -0.576429 -0.577510  0.000000 0.000000 1 0 1.000000
0  49.754559 -12.078862 -0.007926  0.217349 -0.730266 -0.647666  0.000000 0.000000 1 0 1.000000
0  49.754559 -12.078862 5.579814  0.373350 -0.698179 0.610865  0.000000 0.000000 1 0 1.000000
  phy
0  33.167908 -12.031442 9.806220  -0.506735 -0.564555 0.651534  0.000000 0.000000 1 0 1.000000
0  33.167908 12.054243 9.806222  -0.506751 0.564541 0.651534  0.000000 0.000000 1 0 1.000000
0  33.167908 12.054243 -0.007924  -0.578087 0.576435 -0.577527  0.000000 0.000000 1 0 1.000000
  phy
0  33.167908 -12.031442 9.806220  -0.506735 -0.564555 0.651534  0.000000 0.000000 1 0 1.000000
0  33.167908 12.054243 -0.007924  -0.578087 0.576435 -0.577527  0.000000 0.000000 1 0 1.000000
0  33.167908 -12.031442 -0.007926  -0.578110 -0.576429 -0.577510  0.000000 0.000000 1 0 1.000000
  phy
0  33.167908 -12.031442 9.806220  -0.506735 -0.564555 0.651534  0.000000 0.000000 1 0 1.000000
0  49.754559 -12.078862 5.579814  0.373350 -0.698179 0.610865  0.000000 0.000000 1 0 1.000000
0  33.167908 12.054243 9.806222  -0.506751 0.564541 0.651534  0.000000 0.000000 1 0 1.000000
  phy
0  49.754559 12.101664 -0.007924  0.217349 0.730267 -0.647664  0.000000 0.000000 1 0 1.000000
0  33.167908 12.054243 -0.007924  -0.578087 0.576435 -0.577527  0.000000 0.000000 1 0 1.000000
0  49.754559 12.101664 5.579815  0.373351 0.698181 0.610862  0.000000 0.000000 1 0 1.000000
  phy
0  33.167908 12.054243 -0.007924  -0.578087 0.576435 -0.577527  0.000000 0.000000 1 0 1.000000
0  33.167908 12.054243 9.806222  -0.506751 0.564541 0.651534  0.000000 0.000000 1 0 1.000000
0  49.754559 12.101664 5.579815  0.373351 0.698181 0.610862  0.000000 0.000000 1 0 1.000000
  phy
0  49.754559 -12.078862 5.579814  0.373350 -0.698179 0.610865  0.000000 0.000000 1 0 1.000000
0  49.754559 12.101664 5.579815  0.373351 0.698181 0.610862  0.000000 0.000000 1 0 1.000000
0  33.167908 12.054243 9.806222  -0.506751 0.564541 0.651534  0.000000 0.000000 1 0 1.000000
  phy
0  60.743191 -4.857135 -0.007926  0.937082 -0.268267 -0.223406  0.000000 0.000000 1 0 1.000000
0  49.754559 -12.078862 5.579814  0.373350 -0.698179 0.610865  0.000000 0.000000 1 0 1.000000
0  49.754559 -12.078862 -0.007926  0.217349 -0.730266 -0.647666  0.000000 0.000000 1 0 1.000000
  phy
0  -39.297379 -38.664490 0.123507  -0.698955 -0.689250 -0.190778  0.000000 0.000000 1 0 1.000000
0  -48.167038 -27.388823 0.123507  -0.848786 -0.491501 -0.194909  0.000000 0.000000 1 0 1.000000
0  -27.648754 -47.830238 0.123507  -0.484112 -0.851955 -0.199522  0.000000 0.000000 1 0 1.000000
  phy
0  -27.648754 -47.830238 0.123507  -0.484112 -0.851955 -0.199522  0.000000 0.000000 1 0 1.000000
0  -48.167038 -27.388823 0.123507  -0.848786 -0.491501 -0.194909  0.000000 0.000000 1 0 1.000000
0  -12.227996 -33.230766 0.123509  0.719787 0.288231 -0.631530  0.000000 0.000000 1 0 1.000000
  phy
0  -27.648754 -47.830238 0.123507  -0.484112 -0.851955 -0.199522  0.000000 0.000000 1 0 1.000000
0  -12.227996 -33.230766 0.123509  0.719787 0.288231 -0.631530  0.000000 0.000000 1 0 1.000000
0  -12.310985 -52.718185 0.123508  0.430353 -0.885344 -0.175963  0.000000 0.000000 1 0 1.000000
  phy
0  -12.227996 -33.230766 0.123509  0.719787 0.288231 -0.631530  0.000000 0.000000 1 0 1.000000
0  -48.167038 -27.388823 0.123507  -0.848786 -0.491501 -0.194909  0.000000 0.000000 1 0 1.000000
0  -33.030933 -11.605948 0.123509  0.304790 0.715379 -0.628757  0.000000 0.000000 1 0 1.000000
  phy
0  -33.030933 -11.605948 0.123509  0.304790 0.715379 -0.628757  0.000000 0.000000 1 0 1.000000
0  -48.167038 -27.388823 0.123507  -0.848786 -0.491501 -0.194909  0.000000 0.000000 1 0 1.000000
0  -53.593933 -11.589884 0.123508  -0.889750 0.424835 -0.166915  0.000000 0.000000 1 0 1.000000
  phy
0  -12.227996 -33.230766 9.785328  0.632063 0.116274 0.766144  0.000000 0.000000 1 0 1.000000
0  -39.297379 -38.664490 0.123507  -0.698955 -0.689250 -0.190778  0.000000 0.000000 1 0 1.000000
0  -27.648754 -47.830238 0.123507  -0.484112 -0.851955 -0.199522  0.000000 0.000000 1 0 1.000000
  phy
0  -27.648754 -47.830238 0.123507  -0.484112 -0.851955 -0.199522  0.000000 0.000000 1 0 1.000000
0  -12.310985 -52.718185 0.123508  0.430353 -0.885344 -0.175963  0.000000 0.000000 1 0 1.000000
0  -12.227996 -33.230766 9.785328  0.632063 0.116274 0.766144  0.000000 0.000000 1 0 1.000000
  phy
0  -12.227996 -33.230766 0.123509  0.719787 0.288231 -0.631530  0.000000 0.000000 1 0 1.000000
0  -33.030933 -11.605948 0.123509  0.304790 0.715379 -0.628757  0.000000 0.000000 1 0 1.000000
0  -12.227996 -33.230766 9.785328  0.632063 0.116274 0.766144  0.000000 0.000000 1 0 1.000000
  phy
0  -33.030933 -11.605948 0.123509  0.304790 0.715379 -0.628757  0.000000 0.000000 1 0 1.000000
0  -33.030933 -11.605948 9.785329  0.139776 0.632096 0.762179  0.000000 0.000000 1 0 1.000000
0  -12.227996 -33.230766 9.785328  0.632063 0.116274 0.766144  0.000000 0.000000 1 0 1.000000
  phy
0  -12.227996 -33.230766 9.785328  0.632063 0.116274 0.766144  0.000000 0.000000 1 0 1.000000
0  -12.310985 -52.718185 0.123508  0.430353 -0.885344 -0.175963  0.000000 0.000000 1 0 1.000000
0  -12.227996 -33.230766 0.123509  0.719787 0.288231 -0.631530  0.000000 0.000000 1 0 1.000000
  phy
0  -12.227996 -33.230766 9.785328  0.632063 0.116274 0.766144  0.000000 0.000000 1 0 1.000000
0  -33.030933 -11.605948 9.785329  0.139776 0.632096 0.762179  0.000000 0.000000 1 0 1.000000
0  -39.297379 -38.664490 0.123507  -0.698955 -0.689250 -0.190778  0.000000 0.000000 1 0 1.000000
  phy
0  -39.297379 -38.664490 0.123507  -0.698955 -0.689250 -0.190778  0.000000 0.000000 1 0 1.000000
0  -33.030933 -11.605948 9.785329  0.139776 0.632096 0.762179  0.000000 0.000000 1 0 1.000000
0  -48.167038 -27.388823 0.123507  -0.848786 -0.491501 -0.194909  0.000000 0.000000 1 0 1.000000
  phy
0  -33.030933 -11.605948 9.785329  0.139776 0.632096 0.762179  0.000000 0.000000 1 0 1.000000
0  -53.593933 -11.589884 0.123508  -0.889750 0.424835 -0.166915  0.000000 0.000000 1 0 1.000000
0  -48.167038 -27.388823 0.123507  -0.848786 -0.491501 -0.194909  0.000000 0.000000 1 0 1.000000
  phy
0  -33.030933 -11.605948 9.785329  0.139776 0.632096 0.762179  0.000000 0.000000 1 0 1.000000
0  -33.030933 -11.605948 0.123509  0.304790 0.715379 -0.628757  0.000000 0.000000 1 0 1.000000
0  -53.593933 -11.589884 0.123508  -0.889750 0.424835 -0.166915  0.000000 0.000000 1 0 1.000000
  phy
0  38.867626 -39.171581 0.123508  0.689250 -0.698956 -0.190777  0.000000 0.000000 1 0 1.000000
0  48.033382 -27.522963 0.123507  0.851955 -0.484112 -0.199522  0.000000 0.000000 1 0 1.000000
0  33.433903 -12.102207 9.785327  -0.116274 0.632063 0.766144  0.000000 0.000000 1 0 1.000000
  phy
0  38.867626 -39.171581 0.123508  0.689250 -0.698956 -0.190777  0.000000 0.000000 1 0 1.000000
0  27.591965 -48.041248 0.123503  0.491501 -0.848785 -0.194909  0.000000 0.000000 1 0 1.000000
0  48.033382 -27.522963 0.123507  0.851955 -0.484112 -0.199522  0.000000 0.000000 1 0 1.000000
  phy
0  38.867626 -39.171581 0.123508  0.689250 -0.698956 -0.190777  0.000000 0.000000 1 0 1.000000
0  11.809083 -32.905136 9.785328  -0.632096 0.139777 0.762179  0.000000 0.000000 1 0 1.000000
0  27.591965 -48.041248 0.123503  0.491501 -0.848785 -0.194909  0.000000 0.000000 1 0 1.000000
  phy
0  33.433903 -12.102207 9.785327  -0.116274 0.632063 0.766144  0.000000 0.000000 1 0 1.000000
0  11.809083 -32.905136 9.785328  -0.632096 0.139777 0.762179  0.000000 0.000000 1 0 1.000000
0  38.867626 -39.171581 0.123508  0.689250 -0.698956 -0.190777  0.000000 0.000000 1 0 1.000000
  phy
0  48.033382 -27.522963 0.123507  0.851955 -0.484112 -0.199522  0.000000 0.000000 1 0 1.000000
0  27.591965 -48.041248 0.123503  0.491501 -0.848785 -0.194909  0.000000 0.000000 1 0 1.000000
0  33.433907 -12.102203 0.123510  -0.288231 0.719787 -0.631530  0.000000 0.000000 1 0 1.000000
  phy
0  48.033382 -27.522963 0.123507  0.851955 -0.484112 -0.199522  0.000000 0.000000 1 0 1.000000
0  33.433907 -12.102203 0.123510  -0.288231 0.719787 -0.631530  0.000000 0.000000 1 0 1.000000
0  52.921326 -12.185192 0.123510  0.885343 0.430354 -0.175963  0.000000 0.000000 1 0 1.000000
  phy
0  33.433907 -12.102203 0.123510  -0.288231 0.719787 -0.631530  0.000000 0.000000 1 0 1.000000
0  27.591965 -48.041248 0.123503  0.491501 -0.848785 -0.194909  0.000000 0.000000 1 0 1.000000
0  11.809083 -32.905136 0.123506  -0.715379 0.304790 -0.628757  0.000000 0.000000 1 0 1.000000
  phy
0  11.809083 -32.905136 0.123506  -0.715379 0.304790 -0.628757  0.000000 0.000000 1 0 1.000000
0  27.591965 -48.041248 0.123503  0.491501 -0.848785 -0.194909  0.000000 0.000000 1 0 1.000000
0  11.793019 -53.468147 0.123502  -0.424835 -0.889750 -0.166915  0.000000 0.000000 1 0 1.000000
  phy
0  33.433903 -12.102207 9.785327  -0.116274 0.632063 0.766144  0.000000 0.000000 1 0 1.000000
0  48.033382 -27.522963 0.123507  0.851955 -0.484112 -0.199522  0.000000 0.000000 1 0 1.000000
0  52.921326 -12.185192 0.123510  0.885343 0.430354 -0.175963  0.000000 0.000000 1 0 1.000000
  phy
0  33.433903 -12.102207 9.785327  -0.116274 0.632063 0.766144  0.000000 0.000000 1 0 1.000000
0  52.921326 -12.185192 0.123510  0.885343 0.430354 -0.175963  0.000000 0.000000 1 0 1.000000
0  33.433907 -12.102203 0.123510  -0.288231 0.719787 -0.631530  0.000000 0.000000 1 0 1.000000
  phy
0  11.809083 -32.905136 9.785328  -0.632096 0.139777 0.762179  0.000000 0.000000 1 0 1.000000
0  11.793019 -53.468147 0.123502  -0.424835 -0.889750 -0.166915  0.000000 0.000000 1 0 1.000000
0  27.591965 -48.041248 0.123503  0.491501 -0.848785 -0.194909  0.000000 0.000000 1 0 1.000000
  phy
0  33.433903 -12.102207 9.785327  -0.116274 0.632063 0.766144  0.000000 0.000000 1 0 1.000000
0  11.809083 -32.905136 0.123506  -0.715379 0.304790 -0.628757  0.000000 0.000000 1 0 1.000000
0  11.809083 -32.905136 9.785328  -0.632096 0.139777 0.762179  0.000000 0.000000 1 0 1.000000
  phy
0  11.809083 -32.905136 0.123506  -0.715379 0.304790 -0.628757  0.000000 0.000000 1 0 1.000000
0  33.433903 -12.102207 9.785327  -0.116274 0.632063 0.766144  0.000000 0.000000 1 0 1.000000
0  33.433907 -12.102203 0.123510  -0.288231 0.719787 -0.631530  0.000000 0.000000 1 0 1.000000
  phy
0  11.809083 -32.905136 9.785328  -0.632096 0.139777 0.762179  0.000000 0.000000 1 0 1.000000
0  11.809083 -32.905136 0.123506  -0.715379 0.304790 -0.628757  0.000000 0.000000 1 0 1.000000
0  11.793019 -53.468147 0.123502  -0.424835 -0.889750 -0.166915  0.000000 0.000000 1 0 1.000000
  phy
0  39.186790 39.223778 0.123509  0.698956 0.689250 -0.190778  0.000000 0.000000 1 0 1.000000
0  48.056446 27.948112 0.123507  0.848785 0.491501 -0.194910  0.000000 0.000000 1 0 1.000000
0  27.538162 48.389530 0.123511  0.484112 0.851954 -0.199522  0.000000 0.000000 1 0 1.000000
  phy
0  27.538162 48.389530 0.123511  0.484112 0.851954 -0.199522  0.000000 0.000000 1 0 1.000000
0  48.056446 27.948112 0.123507  0.848785 0.491501 -0.194910  0.000000 0.000000 1 0 1.000000
0  12.117404 33.790051 0.123512  -0.719782 -0.288221 -0.631540  0.000000 0.000000 1 0 1.000000
  phy
0  27.538162 48.389530 0.123511  0.484112 0.851954 -0.199522  0.000000 0.000000 1 0 1.000000
0  12.117404 33.790051 0.123512  -0.719782 -0.288221 -0.631540  0.000000 0.000000 1 0 1.000000
0  12.200393 53.277477 0.123513  -0.430353 0.885344 -0.175963  0.000000 0.000000 1 0 1.000000
  phy
0  12.117404 33.790051 0.123512  -0.719782 -0.288221 -0.631540  0.000000 0.000000 1 0 1.000000
0  48.056446 27.948112 0.123507  0.848785 0.491501 -0.194910  0.000000 0.000000 1 0 1.000000
0  32.920341 12.165233 0.123508  -0.304801 -0.715383 -0.628748  0.000000 0.000000 1 0 1.000000
  phy
0  32.920341 12.165233 0.123508  -0.304801 -0.715383 -0.628748  0.000000 0.000000 1 0 1.000000
0  48.056446 27.948112 0.123507  0.848785 0.491501 -0.194910  0.000000 0.000000 1 0 1.000000
0  53.483345 12.149169 0.123505  0.889750 -0.424835 -0.166915  0.000000 0.000000 1 0 1.000000
  phy
0  12.117404 33.790051 9.785331  -0.632074 -0.116293 0.766132  0.000000 0.000000 1 0 1.000000
0  39.186790 39.223778 0.123509  0.698956 0.689250 -0.190778  0.000000 0.000000 1 0 1.000000
0  27.538162 48.389530 0.123511  0.484112 0.851954 -0.199522  0.000000 0.000000 1 0 1.000000
  phy
0  27.538162 48.389530 0.123511  0.484112 0.851954 -0.199522  0.000000 0.000000 1 0 1.000000
0  12.200393 53.277477 0.123513  -0.430353 0.885344 -0.175963  0.000000 0.000000 1 0 1.000000
0  12.117404 33.790051 9.785331  -0.632074 -0.116293 0.766132  0.000000 0.000000 1 0 1.000000
  phy
0  39.186790 39.223778 0.123509  0.698956 0.689250 -0.190778  0.000000 0.000000 1 0 1.000000
0  32.920341 12.165235 9.785330  -0.139757 -0.632086 0.762191  0.000000 0.000000 1 0 1.000000
0  48.056446 27.948112 0.123507  0.848785 0.491501 -0.194910  0.000000 0.000000 1 0 1.000000
  phy
0  32.920341 12.165235 9.785330  -0.139757 -0.632086 0.762191  0.000000 0.000000 1 0 1.000000
0  53.483345 12.149169 0.123505  0.889750 -0.424835 -0.166915  0.000000 0.000000 1 0 1.000000
0  48.056446 27.948112 0.123507  0.848785 0.491501 -0.194910  0.000000 0.000000 1 0 1.000000
  phy
0  32.920341 12.165235 9.785330  -0.139757 -0.632086 0.762191  0.000000 0.000000 1 0 1.000000
0  12.117404 33.790051 9.785331  -0.632074 -0.116293 0.766132  0.000000 0.000000 1 0 1.000000
0  12.117404 33.790051 0.123512  -0.719782 -0.288221 -0.631540  0.000000 0.000000 1 0 1.000000
  phy
0  32.920341 12.165235 9.785330  -0.139757 -0.632086 0.762191  0.000000 0.000000 1 0 1.000000
0  12.117404 33.790051 0.123512  -0.719782 -0.288221 -0.631540  0.000000 0.000000 1 0 1.000000
0  32.920341 12.165233 0.123508  -0.304801 -0.715383 -0.628748  0.000000 0.000000 1 0 1.000000
  phy
0  12.117404 33.790051 0.123512  -0.719782 -0.288221 -0.631540  0.000000 0.000000 1 0 1.000000
0  12.117404 33.790051 9.785331  -0.632074 -0.116293 0.766132  0.000000 0.000000 1 0 1.000000
0  12.200393 53.277477 0.123513  -0.430353 0.885344 -0.175963  0.000000 0.000000 1 0 1.000000
  phy
0  12.117404 33.790051 9.785331  -0.632074 -0.116293 0.766132  0.000000 0.000000 1 0 1.000000
0  32.920341 12.165235 9.785330  -0.139757 -0.632086 0.762191  0.000000 0.000000 1 0 1.000000
0  39.186790 39.223778 0.123509  0.698956 0.689250 -0.190778  0.000000 0.000000 1 0 1.000000
  phy
0  32.920341 12.165233 0.123508  -0.304801 -0.715383 -0.628748  0.000000 0.000000 1 0 1.000000
0  53.483345 12.149169 0.123505  0.889750 -0.424835 -0.166915  0.000000 0.000000 1 0 1.000000
0  32.920341 12.165235 9.785330  -0.139757 -0.632086 0.762191  0.000000 0.000000 1 0 1.000000
  phy
0  25.132748 20.042713 9.889892  0.587174 0.468251 -0.660278  0.000000 0.000000 1 1 1.000000
0  31.340029 7.153169 9.889892  0.732179 0.167112 -0.660294  0.000000 0.000000 1 1 1.000000
0  31.340034 -7.153147 9.889892  0.732180 -0.167115 -0.660292  0.000000 0.000000 1 1 1.000000
  phy
0  25.132748 20.042713 9.889892  0.587174 0.468251 -0.660278  0.000000 0.000000 1 1 1.000000
0  31.340034 -7.153147 9.889892  0.732180 -0.167115 -0.660292  0.000000 0.000000 1 1 1.000000
0  -13.947638 28.962542 9.889890  -0.325852 0.676639 -0.660287  0.000000 0.000000 1 1 1.000000
  phy
0  -13.947638 28.962542 9.889890  -0.325852 0.676639 -0.660287  0.000000 0.000000 1 1 1.000000
0  31.340034 -7.153147 9.889892  0.732180 -0.167115 -0.660292  0.000000 0.000000 1 1 1.000000
0  -31.340034 7.153147 9.889889  -0.732199 0.167123 -0.660268  0.000000 0.000000 1 1 1.000000
  phy
0  -31.340034 7.153147 9.889889  -0.732199 0.167123 -0.660268  0.000000 0.000000 1 1 1.000000
0  31.340034 -7.153147 9.889892  0.732180 -0.167115 -0.660292  0.000000 0.000000 1 1 1.000000
0  -25.132750 -20.042713 9.889890  -0.587165 -0.468249 -0.660288  0.000000 0.000000 1 1 1.000000
  phy
0  -13.947639 28.962542 13.646249  -0.325858 0.676651 0.660272  0.000000 0.000000 1 1 1.000000
0  -13.947638 28.962542 9.889890  -0.325852 0.676639 -0.660287  0.000000 0.000000 1 1 1.000000
0  -25.132761 20.042698 13.646248  -0.587158 0.468238 0.660302  0.000000 0.000000 1 1 1.000000
  phy
0  -25.132761 20.042698 13.646248  -0.587158 0.468238 0.660302  0.000000 0.000000 1 1 1.000000
0  -13.947638 28.962542 9.889890  -0.325852 0.676639 -0.660287  0.000000 0.000000 1 1 1.000000
0  -25.132761 20.042694 9.889890  -0.587159 0.468248 -0.660294  0.000000 0.000000 1 1 1.000000
  phy
0  -13.947638 28.962542 9.889890  -0.325852 0.676639 -0.660287  0.000000 0.000000 1 1 1.000000
0  -13.947639 28.962542 13.646249  -0.325858 0.676651 0.660272  0.000000 0.000000 1 1 1.000000
0  -0.000012 32.146000 13.646249  -0.000000 0.751001 0.660302  0.000000 0.000000 1 1 1.000000
  phy
0  -13.947638 28.962542 9.889890  -0.325852 0.676639 -0.660287  0.000000 0.000000 1 1 1.000000
0  -0.000012 32.146000 13.646249  -0.000000 0.751001 0.660302  0.000000 0.000000 1 1 1.000000
0  -0.000011 32.146000 9.889891  -0.000000 0.751027 -0.660272  0.000000 0.000000 1 1 1.000000
  phy
0  -25.132761 20.042694 9.889890  -0.587159 0.468248 -0.660294  0.000000 0.000000 1 1 1.000000
0  -13.947638 28.962542 9.889890  -0.325852 0.676639 -0.660287  0.000000 0.000000 1 1 1.000000
0  -31.340034 7.153147 9.889889  -0.732199 0.167123 -0.660268  0.000000 0.000000 1 1 1.000000
  phy
0  25.132748 20.042713 9.889892  0.587174 0.468251 -0.660278  0.000000 0.000000 1 1 1.000000
0  -13.947638 28.962542 9.889890  -0.325852 0.676639 -0.660287  0.000000 0.000000 1 1 1.000000
0  -0.000011 32.146000 9.889891  -0.000000 0.751027 -0.660272  0.000000 0.000000 1 1 1.000000
  phy
0  31.340036 -7.153142 13.646251  0.732185 -0.167116 0.660286  0.000000 0.000000 1 1 1.000000
0  31.340034 -7.153147 9.889892  0.732180 -0.167115 -0.660292  0.000000 0.000000 1 1 1.000000
0  31.340031 7.153169 13.646251  0.732193 0.167122 0.660275  0.000000 0.000000 1 1 1.000000
  phy
0  31.340031 7.153169 13.646251  0.732193 0.167122 0.660275  0.000000 0.000000 1 1 1.000000
0  31.340034 -7.153147 9.889892  0.732180 -0.167115 -0.660292  0.000000 0.000000 1 1 1.000000
0  31.340029 7.153169 9.889892  0.732179 0.167112 -0.660294  0.000000 0.000000 1 1 1.000000
  phy
0  31.340031 7.153169 13.646251  0.732193 0.167122 0.660275  0.000000 0.000000 1 1 1.000000
0  31.340029 7.153169 9.889892  0.732179 0.167112 -0.660294  0.000000 0.000000 1 1 1.000000
0  25.132750 20.042713 13.646250  0.587159 0.468249 0.660294  0.000000 0.000000 1 1 1.000000
  phy
0  25.132750 20.042713 13.646250  0.587159 0.468249 0.660294  0.000000 0.000000 1 1 1.000000
0  31.340029 7.153169 9.889892  0.732179 0.167112 -0.660294  0.000000 0.000000 1 1 1.000000
0  25.132748 20.042713 9.889892  0.587174 0.468251 -0.660278  0.000000 0.000000 1 1 1.000000
  phy
0  -0.000011 32.146000 9.889891  -0.000000 0.751027 -0.660272  0.000000 0.000000 1 1 1.000000
0  -0.000012 32.146000 13.646249  -0.000000 0.751001 0.660302  0.000000 0.000000 1 1 1.000000
0  13.947618 28.962549 9.889891  0.325853 0.676633 -0.660294  0.000000 0.000000 1 1 1.000000
  phy
0  13.947618 28.962549 9.889891  0.325853 0.676633 -0.660294  0.000000 0.000000 1 1 1.000000
0  -0.000012 32.146000 13.646249  -0.000000 0.751001 0.660302  0.000000 0.000000 1 1 1.000000
0  13.947620 28.962549 13.646250  0.325855 0.676655 0.660270  0.000000 0.000000 1 1 1.000000
  phy
0  13.947618 28.962549 9.889891  0.325853 0.676633 -0.660294  0.000000 0.000000 1 1 1.000000
0  13.947620 28.962549 13.646250  0.325855 0.676655 0.660270  0.000000 0.000000 1 1 1.000000
0  25.132748 20.042713 9.889892  0.587174 0.468251 -0.660278  0.000000 0.000000 1 1 1.000000
  phy
0  25.132748 20.042713 9.889892  0.587174 0.468251 -0.660278  0.000000 0.000000 1 1 1.000000
0  13.947620 28.962549 13.646250  0.325855 0.676655 0.660270  0.000000 0.000000 1 1 1.000000
0  25.132750 20.042713 13.646250  0.587159 0.468249 0.660294  0.000000 0.000000 1 1 1.000000
  phy
0  13.947618 28.962549 9.889891  0.325853 0.676633 -0.660294  0.000000 0.000000 1 1 1.000000
0  25.132748 20.042713 9.889892  0.587174 0.468251 -0.660278  0.000000 0.000000 1 1 1.000000
0  -0.000011 32.146000 9.889891  -0.000000 0.751027 -0.660272  0.000000 0.000000 1 1 1.000000
  phy
0  -25.132750 -20.042715 13.646248  -0.587167 -0.468250 0.660286  0.000000 0.000000 1 1 1.000000
0  -31.340031 -7.153169 13.646248  -0.732183 -0.167116 0.660288  0.000000 0.000000 1 1 1.000000
0  -25.132750 -20.042713 9.889890  -0.587165 -0.468249 -0.660288  0.000000 0.000000 1 1 1.000000
  phy
0  -31.340031 -7.153169 13.646248  -0.732183 -0.167116 0.660288  0.000000 0.000000 1 1 1.000000
0  -31.340031 -7.153169 9.889889  -0.732185 -0.167117 -0.660286  0.000000 0.000000 1 1 1.000000
0  -25.132750 -20.042713 9.889890  -0.587165 -0.468249 -0.660288  0.000000 0.000000 1 1 1.000000
  phy
0  -31.340031 -7.153169 9.889889  -0.732185 -0.167117 -0.660286  0.000000 0.000000 1 1 1.000000
0  -31.340031 -7.153169 13.646248  -0.732183 -0.167116 0.660288  0.000000 0.000000 1 1 1.000000
0  -31.340034 7.153147 9.889889  -0.732199 0.167123 -0.660268  0.000000 0.000000 1 1 1.000000
  phy
0  -31.340031 -7.153169 13.646248  -0.732183 -0.167116 0.660288  0.000000 0.000000 1 1 1.000000
0  -31.340034 7.153147 13.646248  -0.732187 0.167113 0.660285  0.000000 0.000000 1 1 1.000000
0  -31.340034 7.153147 9.889889  -0.732199 0.167123 -0.660268  0.000000 0.000000 1 1 1.000000
  phy
0  -25.132750 -20.042713 9.889890  -0.587165 -0.468249 -0.660288  0.000000 0.000000 1 1 1.000000
0  -31.340031 -7.153169 9.889889  -0.732185 -0.167117 -0.660286  0.000000 0.000000 1 1 1.000000
0  -31.340034 7.153147 9.889889  -0.732199 0.167123 -0.660268  0.000000 0.000000 1 1 1.000000
  phy
0  -31.340034 7.153147 9.889889  -0.732199 0.167123 -0.660268  0.000000 0.000000 1 1 1.000000
0  -31.340034 7.153147 13.646248  -0.732187 0.167113 0.660285  0.000000 0.000000 1 1 1.000000
0  -25.132761 20.042694 9.889890  -0.587159 0.468248 -0.660294  0.000000 0.000000 1 1 1.000000
  phy
0  -31.340034 7.153147 13.646248  -0.732187 0.167113 0.660285  0.000000 0.000000 1 1 1.000000
0  -25.132761 20.042698 13.646248  -0.587158 0.468238 0.660302  0.000000 0.000000 1 1 1.000000
0  -25.132761 20.042694 9.889890  -0.587159 0.468248 -0.660294  0.000000 0.000000 1 1 1.000000
  phy
0  -13.947639 28.962542 13.646249  -0.325858 0.676651 0.660272  0.000000 0.000000 1 1 1.000000
0  -25.132761 20.042698 13.646248  -0.587158 0.468238 0.660302  0.000000 0.000000 1 1 1.000000
0  13.947620 28.962549 13.646250  0.325855 0.676655 0.660270  0.000000 0.000000 1 1 1.000000
  phy
0  13.947620 28.962549 13.646250  0.325855 0.676655 0.660270  0.000000 0.000000 1 1 1.000000
0  -0.000012 32.146000 13.646249  -0.000000 0.751001 0.660302  0.000000 0.000000 1 1 1.000000
0  -13.947639 28.962542 13.646249  -0.325858 0.676651 0.660272  0.000000 0.000000 1 1 1.000000
  phy
0  13.947639 -28.962542 9.889891  0.325859 -0.676653 -0.660270  0.000000 0.000000 1 1 1.000000
0  25.132761 -20.042694 9.889892  0.587164 -0.468242 -0.660294  0.000000 0.000000 1 1 1.000000
0  13.947639 -28.962542 13.646250  0.325847 -0.676628 0.660301  0.000000 0.000000 1 1 1.000000
  phy
0  25.132761 -20.042694 9.889892  0.587164 -0.468242 -0.660294  0.000000 0.000000 1 1 1.000000
0  25.132761 -20.042694 13.646250  0.587169 -0.468256 0.660279  0.000000 0.000000 1 1 1.000000
0  13.947639 -28.962542 13.646250  0.325847 -0.676628 0.660301  0.000000 0.000000 1 1 1.000000
  phy
0  25.132761 -20.042694 9.889892  0.587164 -0.468242 -0.660294  0.000000 0.000000 1 1 1.000000
0  31.340034 -7.153147 9.889892  0.732180 -0.167115 -0.660292  0.000000 0.000000 1 1 1.000000
0  25.132761 -20.042694 13.646250  0.587169 -0.468256 0.660279  0.000000 0.000000 1 1 1.000000
  phy
0  25.132761 -20.042694 13.646250  0.587169 -0.468256 0.660279  0.000000 0.000000 1 1 1.000000
0  31.340034 -7.153147 9.889892  0.732180 -0.167115 -0.660292  0.000000 0.000000 1 1 1.000000
0  31.340036 -7.153142 13.646251  0.732185 -0.167116 0.660286  0.000000 0.000000 1 1 1.000000
  phy
0  25.132761 -20.042694 9.889892  0.587164 -0.468242 -0.660294  0.000000 0.000000 1 1 1.000000
0  13.947639 -28.962542 9.889891  0.325859 -0.676653 -0.660270  0.000000 0.000000 1 1 1.000000
0  31.340034 -7.153147 9.889892  0.732180 -0.167115 -0.660292  0.000000 0.000000 1 1 1.000000
  phy
0  13.947639 -28.962542 13.646250  0.325847 -0.676628 0.660301  0.000000 0.000000 1 1 1.000000
0  0.000011 -32.146000 9.889891  -0.000003 -0.751007 -0.660294  0.000000 0.000000 1 1 1.000000
0  13.947639 -28.962542 9.889891  0.325859 -0.676653 -0.660270  0.000000 0.000000 1 1 1.000000
  phy
0  13.947639 -28.962542 13.646250  0.325847 -0.676628 0.660301  0.000000 0.000000 1 1 1.000000
0  0.000010 -32.146000 13.646249  0.000004 -0.751020 0.660280  0.000000 0.000000 1 1 1.000000
0  0.000011 -32.146000 9.889891  -0.000003 -0.751007 -0.660294  0.000000 0.000000 1 1 1.000000
  phy
0  25.132761 -20.042694 13.646250  0.587169 -0.468256 0.660279  0.000000 0.000000 1 1 1.000000
0  0.000010 -32.146000 13.646249  0.000004 -0.751020 0.660280  0.000000 0.000000 1 1 1.000000
0  13.947639 -28.962542 13.646250  0.325847 -0.676628 0.660301  0.000000 0.000000 1 1 1.000000
  phy
0  0.000011 -32.146000 9.889891  -0.000003 -0.751007 -0.660294  0.000000 0.000000 1 1 1.000000
0  -13.947616 -28.962549 9.889890  -0.325858 -0.676644 -0.660280  0.000000 0.000000 1 1 1.000000
0  13.947639 -28.962542 9.889891  0.325859 -0.676653 -0.660270  0.000000 0.000000 1 1 1.000000
  phy
0  13.947639 -28.962542 9.889891  0.325859 -0.676653 -0.660270  0.000000 0.000000 1 1 1.000000
0  -13.947616 -28.962549 9.889890  -0.325858 -0.676644 -0.660280  0.000000 0.000000 1 1 1.000000
0  -25.132750 -20.042713 9.889890  -0.587165 -0.468249 -0.660288  0.000000 0.000000 1 1 1.000000
  phy
0  13.947639 -28.962542 9.889891  0.325859 -0.676653 -0.660270  0.000000 0.000000 1 1 1.000000
0  -25.132750 -20.042713 9.889890  -0.587165 -0.468249 -0.660288  0.000000 0.000000 1 1 1.000000
0  31.340034 -7.153147 9.889892  0.732180 -0.167115 -0.660292  0.000000 0.000000 1 1 1.000000
  phy
0  0.000010 -32.146000 13.646249  0.000004 -0.751020 0.660280  0.000000 0.000000 1 1 1.000000
0  -13.947616 -28.962549 9.889890  -0.325858 -0.676644 -0.660280  0.000000 0.000000 1 1 1.000000
0  0.000011 -32.146000 9.889891  -0.000003 -0.751007 -0.660294  0.000000 0.000000 1 1 1.000000
  phy
0  0.000010 -32.146000 13.646249  0.000004 -0.751020 0.660280  0.000000 0.000000 1 1 1.000000
0  -13.947618 -28.962549 13.646249  -0.325855 -0.676655 0.660270  0.000000 0.000000 1 1 1.000000
0  -13.947616 -28.962549 9.889890  -0.325858 -0.676644 -0.660280  0.000000 0.000000 1 1 1.000000
  phy
0  13.947620 28.962549 13.646250  0.325855 0.676655 0.660270  0.000000 0.000000 1 1 1.000000
0  25.132761 -20.042694 13.646250  0.587169 -0.468256 0.660279  0.000000 0.000000 1 1 1.000000
0  31.340031 7.153169 13.646251  0.732193 0.167122 0.660275  0.000000 0.000000 1 1 1.000000
  phy
0  31.340031 7.153169 13.646251  0.732193 0.167122 0.660275  0.000000 0.000000 1 1 1.000000
0  25.132750 20.042713 13.646250  0.587159 0.468249 0.660294  0.000000 0.000000 1 1 1.000000
0  13.947620 28.962549 13.646250  0.325855 0.676655 0.660270  0.000000 0.000000 1 1 1.000000
  phy
0  25.132761 -20.042694 13.646250  0.587169 -0.468256 0.660279  0.000000 0.000000 1 1 1.000000
0  31.340036 -7.153142 13.646251  0.732185 -0.167116 0.660286  0.000000 0.000000 1 1 1.000000
0  31.340031 7.153169 13.646251  0.732193 0.167122 0.660275  0.000000 0.000000 1 1 1.000000
  phy
0  -25.132761 20.042698 13.646248  -0.587158 0.468238 0.660302  0.000000 0.000000 1 1 1.000000
0  25.132761 -20.042694 13.646250  0.587169 -0.468256 0.660279  0.000000 0.000000 1 1 1.000000
0  13.947620 28.962549 13.646250  0.325855 0.676655 0.660270  0.000000 0.000000 1 1 1.000000
  phy
0  -13.947616 -28.962549 9.889890  -0.325858 -0.676644 -0.660280  0.000000 0.000000 1 1 1.000000
0  -13.947618 -28.962549 13.646249  -0.325855 -0.676655 0.660270  0.000000 0.000000 1 1 1.000000
0  -25.132750 -20.042713 9.889890  -0.587165 -0.468249 -0.660288  0.000000 0.000000 1 1 1.000000
  phy
0  -13.947618 -28.962549 13.646249  -0.325855 -0.676655 0.660270  0.000000 0.000000 1 1 1.000000
0  -25.132750 -20.042715 13.646248  -0.587167 -0.468250 0.660286  0.000000 0.000000 1 1 1.000000
0  -25.132750 -20.042713 9.889890  -0.587165 -0.468249 -0.660288  0.000000 0.000000 1 1 1.000000
  phy
0  -13.947618 -28.962549 13.646249  -0.325855 -0.676655 0.660270  0.000000 0.000000 1 1 1.000000
0  -31.340034 7.153147 13.646248  -0.732187 0.167113 0.660285  0.000000 0.000000 1 1 1.000000
0  -31.340031 -7.153169 13.646248  -0.732183 -0.167116 0.660288  0.000000 0.000000 1 1 1.000000
  phy
0  -13.947618 -28.962549 13.646249  -0.325855 -0.676655 0.660270  0.000000 0.000000 1 1 1.000000
0  -25.132761 20.042698 13.646248  -0.587158 0.468238 0.660302  0.000000 0.000000 1 1 1.000000
0  -31.340034 7.153147 13.646248  -0.732187 0.167113 0.660285  0.000000 0.000000 1 1 1.000000
  phy
0  -13.947618 -28.962549 13.646249  -0.325855 -0.676655 0.660270  0.000000 0.000000 1 1 1.000000
0  25.132761 -20.042694 13.646250  0.587169 -0.468256 0.660279  0.000000 0.000000 1 1 1.000000
0  -25.132761 20.042698 13.646248  -0.587158 0.468238 0.660302  0.000000 0.000000 1 1 1.000000
  phy
0  -13.947618 -28.962549 13.646249  -0.325855 -0.676655 0.660270  0.000000 0.000000 1 1 1.000000
0  0.000010 -32.146000 13.646249  0.000004 -0.751020 0.660280  0.000000 0.000000 1 1 1.000000
0  25.132761 -20.042694 13.646250  0.587169 -0.468256 0.660279  0.000000 0.000000 1 1 1.000000
  phy
0  -13.947618 -28.962549 13.646249  -0.325855 -0.676655 0.660270  0.000000 0.000000 1 1 1.000000
0  -31.340031 -7.153169 13.646248  -0.732183 -0.167116 0.660288  0.000000 0.000000 1 1 1.000000
0  -25.132750 -20.042715 13.646248  -0.587167 -0.468250 0.660286  0.000000 0.000000 1 1 1.000000
end
