// Created by Crowbar 0.74
version 1
nodes
  0 "polymsh" -1
end
skeleton
  time 0
    0 0.000000 0.000000 0.000000 1.570796 0.000000 0.000000
end
triangles
  phy
    0 -12.825591 -14.287951 -0.000001 0.857879 -0.505680 -0.091278 0 0
    0 0.000001 -12.265043 3.785096 0.702461 -0.711632 -0.011346 0 0
    0 -10.723790 -11.662715 3.904148 0.656332 -0.753173 -0.044256 0 0
  phy
    0 -12.825591 -14.287951 -0.000001 0.857879 -0.505680 -0.091278 0 0
    0 0.000001 -14.908878 -0.000001 0.984560 -0.174453 0.014421 0 0
    0 0.000001 -12.265043 3.785096 0.702461 -0.711632 -0.011346 0 0
  phy
    0 0.000001 -12.265043 3.785096 0.702461 -0.711632 -0.011346 0 0
    0 -10.248568 -8.068934 6.227110 0.156735 -0.987586 -0.010404 0 0
    0 -10.723790 -11.662715 3.904148 0.656332 -0.753173 -0.044256 0 0
  phy
    0 0.000001 -12.265043 3.785096 0.702461 -0.711632 -0.011346 0 0
    0 0.000000 -8.467645 6.227110 0.171519 -0.985178 0.002221 0 0
    0 -10.248568 -8.068934 6.227110 0.156735 -0.987586 -0.010404 0 0
  phy
    0 -10.723790 -11.662715 3.904148 0.656332 -0.753173 -0.044256 0 0
    0 -19.493938 -6.863847 6.227110 0.111675 -0.993554 -0.019459 0 0
    0 -11.995579 -11.684300 3.785096 0.693099 -0.713036 -0.105797 0 0
  phy
    0 -10.248568 -8.068934 6.227110 0.156735 -0.987586 -0.010404 0 0
    0 -19.493938 -6.863847 6.227110 0.111675 -0.993554 -0.019459 0 0
    0 -10.723790 -11.662715 3.904148 0.656332 -0.753173 -0.044256 0 0
  phy
    0 -11.995579 -11.684300 3.785096 0.693099 -0.713036 -0.105797 0 0
    0 -12.825591 -14.287951 -0.000001 0.857879 -0.505680 -0.091278 0 0
    0 -10.723790 -11.662715 3.904148 0.656332 -0.753173 -0.044256 0 0
  phy
    0 33.061826 0.000001 6.227110 0.000000 -0.977717 0.209926 0 0
    0 19.493938 6.863846 6.227111 -0.036501 -0.999313 0.006429 0 0
    0 31.541853 -2.621754 6.227110 0.155279 -0.981590 0.111215 0 0
  phy
    0 19.493938 6.863846 6.227111 -0.036501 -0.999313 0.006429 0 0
    0 26.831104 -4.986874 6.227110 0.192973 -0.979043 0.065086 0 0
    0 31.541853 -2.621754 6.227110 0.155279 -0.981590 0.111215 0 0
  phy
    0 31.541853 -2.621754 6.227110 0.155279 -0.981590 0.111215 0 0
    0 31.404836 -7.221292 3.785096 0.643599 -0.716745 0.268434 0 0
    0 36.918598 -3.796457 3.785096 0.459487 -0.780066 0.424698 0 0
  phy
    0 31.541853 -2.621754 6.227110 0.155279 -0.981590 0.111215 0 0
    0 26.831104 -4.986874 6.227110 0.192973 -0.979043 0.065086 0 0
    0 31.404836 -7.221292 3.785096 0.643599 -0.716745 0.268434 0 0
  phy
    0 31.541853 -2.621754 6.227110 0.155279 -0.981590 0.111215 0 0
    0 36.918598 -3.796457 3.785096 0.459487 -0.780066 0.424698 0 0
    0 33.061826 0.000001 6.227110 0.000000 -0.977717 0.209926 0 0
  phy
    0 11.995580 -11.684299 3.785096 0.693099 -0.713036 0.105797 0 0
    0 19.493938 -6.863845 6.227110 0.203545 -0.978423 0.035467 0 0
    0 10.723786 -11.662714 3.904149 0.679006 -0.733081 0.039279 0 0
  phy
    0 11.995580 -11.684299 3.785096 0.693099 -0.713036 0.105797 0 0
    0 22.816947 -9.939256 3.785096 0.697256 -0.700454 0.152309 0 0
    0 19.493938 -6.863845 6.227110 0.203545 -0.978423 0.035467 0 0
  phy
    0 10.723786 -11.662714 3.904149 0.679006 -0.733081 0.039279 0 0
    0 12.825596 -14.287950 -0.000001 0.908144 0.403529 0.111528 0 0
    0 11.995580 -11.684299 3.785096 0.693099 -0.713036 0.105797 0 0
  phy
    0 12.825596 -14.287950 -0.000001 0.908144 0.403529 0.111528 0 0
    0 22.816947 -9.939256 3.785096 0.697256 -0.700454 0.152309 0 0
    0 11.995580 -11.684299 3.785096 0.693099 -0.713036 0.105797 0 0
  phy
    0 -38.736613 -0.000002 3.785097 0.000000 -0.823064 -0.567949 0 0
    0 -33.061828 -0.000002 6.227110 0.000000 -0.996023 -0.089097 0 0
    0 -36.918598 3.796456 3.785097 -0.459487 -0.780066 -0.424698 0 0
  phy
    0 -36.918598 3.796456 3.785097 -0.459487 -0.780066 -0.424698 0 0
    0 -33.061828 -0.000002 6.227110 0.000000 -0.996023 -0.089097 0 0
    0 -31.541851 2.621754 6.227110 -0.098109 -0.992692 -0.070268 0 0
  phy
    0 -36.918598 3.796456 3.785097 -0.459487 -0.780066 -0.424698 0 0
    0 -41.139468 4.614066 0.000000 -0.517213 -0.556847 -0.649932 0 0
    0 -38.736613 -0.000002 3.785097 0.000000 -0.823064 -0.567949 0 0
  phy
    0 -31.404836 7.221292 3.785097 -0.643599 -0.716745 -0.268435 0 0
    0 -34.995323 8.776477 0.000000 -0.180620 0.979178 -0.092665 0 0
    0 -36.918598 3.796456 3.785097 -0.459487 -0.780066 -0.424698 0 0
  phy
    0 -41.139468 4.614066 0.000000 -0.517213 -0.556847 -0.649932 0 0
    0 -36.918598 3.796456 3.785097 -0.459487 -0.780066 -0.424698 0 0
    0 -34.995323 8.776477 0.000000 -0.180620 0.979178 -0.092665 0 0
  phy
    0 -31.541851 2.621754 6.227110 -0.098109 -0.992692 -0.070268 0 0
    0 -31.404836 7.221292 3.785097 -0.643599 -0.716745 -0.268435 0 0
    0 -36.918598 3.796456 3.785097 -0.459487 -0.780066 -0.424698 0 0
  phy
    0 -19.493938 -6.863847 6.227110 0.111675 -0.993554 -0.019459 0 0
    0 -22.816947 -9.939259 3.785096 0.697256 -0.700454 -0.152309 0 0
    0 -11.995579 -11.684300 3.785096 0.693099 -0.713036 -0.105797 0 0
  phy
    0 -11.995579 -11.684300 3.785096 0.693099 -0.713036 -0.105797 0 0
    0 -22.816947 -9.939259 3.785096 0.697256 -0.700454 -0.152309 0 0
    0 -12.825591 -14.287951 -0.000001 0.857879 -0.505680 -0.091278 0 0
  phy
    0 -10.248568 -8.068934 6.227110 0.156735 -0.987586 -0.010404 0 0
    0 19.493938 6.863846 6.227111 -0.036501 -0.999313 0.006429 0 0
    0 -19.493938 -6.863847 6.227110 0.111675 -0.993554 -0.019459 0 0
  phy
    0 0.000000 -8.467645 6.227110 0.171519 -0.985178 0.002221 0 0
    0 19.493938 6.863846 6.227111 -0.036501 -0.999313 0.006429 0 0
    0 -10.248568 -8.068934 6.227110 0.156735 -0.987586 -0.010404 0 0
  phy
    0 31.541853 2.621756 6.227110 -0.281019 -0.938359 0.201273 0 0
    0 19.493938 6.863846 6.227111 -0.036501 -0.999313 0.006429 0 0
    0 33.061826 0.000001 6.227110 0.000000 -0.977717 0.209926 0 0
  phy
    0 36.918598 -3.796457 3.785096 0.459487 -0.780066 0.424698 0 0
    0 38.736613 0.000002 3.785097 0.000000 -0.823064 0.567949 0 0
    0 33.061826 0.000001 6.227110 0.000000 -0.977717 0.209926 0 0
  phy
    0 33.061826 0.000001 6.227110 0.000000 -0.977717 0.209926 0 0
    0 36.918598 3.796460 3.785097 -0.459487 -0.780066 0.424698 0 0
    0 31.541853 2.621756 6.227110 -0.281019 -0.938359 0.201273 0 0
  phy
    0 33.061826 0.000001 6.227110 0.000000 -0.977717 0.209926 0 0
    0 38.736613 0.000002 3.785097 0.000000 -0.823064 0.567949 0 0
    0 36.918598 3.796460 3.785097 -0.459487 -0.780066 0.424698 0 0
  phy
    0 22.816947 9.939259 3.785097 -0.697256 -0.700454 0.152309 0 0
    0 19.493938 6.863846 6.227111 -0.036501 -0.999313 0.006429 0 0
    0 26.831106 4.986875 6.227111 -0.480954 -0.861608 0.162216 0 0
  phy
    0 26.831106 4.986875 6.227111 -0.480954 -0.861608 0.162216 0 0
    0 31.404836 7.221295 3.785097 -0.643599 -0.716745 0.268434 0 0
    0 22.816947 9.939259 3.785097 -0.697256 -0.700454 0.152309 0 0
  phy
    0 26.831106 4.986875 6.227111 -0.480954 -0.861608 0.162216 0 0
    0 19.493938 6.863846 6.227111 -0.036501 -0.999313 0.006429 0 0
    0 31.541853 2.621756 6.227110 -0.281019 -0.938359 0.201273 0 0
  phy
    0 31.541853 2.621756 6.227110 -0.281019 -0.938359 0.201273 0 0
    0 31.404836 7.221295 3.785097 -0.643599 -0.716745 0.268434 0 0
    0 26.831106 4.986875 6.227111 -0.480954 -0.861608 0.162216 0 0
  phy
    0 0.000001 -12.265043 3.785096 0.702461 -0.711632 -0.011346 0 0
    0 0.000001 -14.908878 -0.000001 0.984560 -0.174453 0.014421 0 0
    0 10.723786 -11.662714 3.904149 0.679006 -0.733081 0.039279 0 0
  phy
    0 10.723786 -11.662714 3.904149 0.679006 -0.733081 0.039279 0 0
    0 0.000001 -14.908878 -0.000001 0.984560 -0.174453 0.014421 0 0
    0 12.825596 -14.287950 -0.000001 0.908144 0.403529 0.111528 0 0
  phy
    0 10.248568 -8.068934 6.227110 0.129363 -0.991540 0.010643 0 0
    0 0.000000 -8.467645 6.227110 0.171519 -0.985178 0.002221 0 0
    0 10.723786 -11.662714 3.904149 0.679006 -0.733081 0.039279 0 0
  phy
    0 10.723786 -11.662714 3.904149 0.679006 -0.733081 0.039279 0 0
    0 0.000000 -8.467645 6.227110 0.171519 -0.985178 0.002221 0 0
    0 0.000001 -12.265043 3.785096 0.702461 -0.711632 -0.011346 0 0
  phy
    0 19.493938 -6.863845 6.227110 0.203545 -0.978423 0.035467 0 0
    0 10.248568 -8.068934 6.227110 0.129363 -0.991540 0.010643 0 0
    0 10.723786 -11.662714 3.904149 0.679006 -0.733081 0.039279 0 0
  phy
    0 19.493938 -6.863845 6.227110 0.203545 -0.978423 0.035467 0 0
    0 19.493938 6.863846 6.227111 -0.036501 -0.999313 0.006429 0 0
    0 10.248568 -8.068934 6.227110 0.129363 -0.991540 0.010643 0 0
  phy
    0 19.493938 -6.863845 6.227110 0.203545 -0.978423 0.035467 0 0
    0 26.831104 -4.986874 6.227110 0.192973 -0.979043 0.065086 0 0
    0 19.493938 6.863846 6.227111 -0.036501 -0.999313 0.006429 0 0
  phy
    0 22.816947 -9.939256 3.785096 0.697256 -0.700454 0.152309 0 0
    0 26.831104 -4.986874 6.227110 0.192973 -0.979043 0.065086 0 0
    0 19.493938 -6.863845 6.227110 0.203545 -0.978423 0.035467 0 0
  phy
    0 31.404836 -7.221292 3.785096 0.643599 -0.716745 0.268434 0 0
    0 34.995323 -8.776478 -0.000001 0.235530 0.964326 0.120835 0 0
    0 36.918598 -3.796457 3.785096 0.459487 -0.780066 0.424698 0 0
  phy
    0 36.918598 -3.796457 3.785096 0.459487 -0.780066 0.424698 0 0
    0 34.995323 -8.776478 -0.000001 0.235530 0.964326 0.120835 0 0
    0 41.139468 -4.614066 -0.000001 0.081192 0.991463 0.102026 0 0
  phy
    0 41.139468 -4.614066 -0.000001 0.081192 0.991463 0.102026 0 0
    0 38.736613 0.000002 3.785097 0.000000 -0.823064 0.567949 0 0
    0 36.918598 -3.796457 3.785096 0.459487 -0.780066 0.424698 0 0
  phy
    0 25.425591 -12.079785 -0.000001 0.507265 0.851035 0.135723 0 0
    0 12.825596 -14.287950 -0.000001 0.908144 0.403529 0.111528 0 0
    0 -25.425591 -12.079787 -0.000001 0.030094 0.999515 -0.008052 0 0
  phy
    0 25.425591 -12.079785 -0.000001 0.507265 0.851035 0.135723 0 0
    0 -25.425591 -12.079787 -0.000001 0.030094 0.999515 -0.008052 0 0
    0 34.995323 -8.776478 -0.000001 0.235530 0.964326 0.120835 0 0
  phy
    0 31.404836 -7.221292 3.785096 0.643599 -0.716745 0.268434 0 0
    0 22.816947 -9.939256 3.785096 0.697256 -0.700454 0.152309 0 0
    0 25.425591 -12.079785 -0.000001 0.507265 0.851035 0.135723 0 0
  phy
    0 25.425591 -12.079785 -0.000001 0.507265 0.851035 0.135723 0 0
    0 34.995323 -8.776478 -0.000001 0.235530 0.964326 0.120835 0 0
    0 31.404836 -7.221292 3.785096 0.643599 -0.716745 0.268434 0 0
  phy
    0 25.425591 -12.079785 -0.000001 0.507265 0.851035 0.135723 0 0
    0 22.816947 -9.939256 3.785096 0.697256 -0.700454 0.152309 0 0
    0 12.825596 -14.287950 -0.000001 0.908144 0.403529 0.111528 0 0
  phy
    0 -41.139468 4.614066 0.000000 -0.517213 -0.556847 -0.649932 0 0
    0 -43.182786 -0.000002 0.000000 0.000000 0.992864 -0.119252 0 0
    0 -38.736613 -0.000002 3.785097 0.000000 -0.823064 -0.567949 0 0
  phy
    0 -41.139468 -4.614070 0.000000 0.601784 0.256926 -0.756205 0 0
    0 -36.918598 -3.796461 3.785096 0.459487 -0.780066 -0.424698 0 0
    0 -38.736613 -0.000002 3.785097 0.000000 -0.823064 -0.567949 0 0
  phy
    0 -38.736613 -0.000002 3.785097 0.000000 -0.823064 -0.567949 0 0
    0 -43.182786 -0.000002 0.000000 0.000000 0.992864 -0.119252 0 0
    0 -41.139468 -4.614070 0.000000 0.601784 0.256926 -0.756205 0 0
  phy
    0 -38.736613 -0.000002 3.785097 0.000000 -0.823064 -0.567949 0 0
    0 -36.918598 -3.796461 3.785096 0.459487 -0.780066 -0.424698 0 0
    0 -33.061828 -0.000002 6.227110 0.000000 -0.996023 -0.089097 0 0
  phy
    0 -33.061828 -0.000002 6.227110 0.000000 -0.996023 -0.089097 0 0
    0 19.493938 6.863846 6.227111 -0.036501 -0.999313 0.006429 0 0
    0 -31.541851 2.621754 6.227110 -0.098109 -0.992692 -0.070268 0 0
  phy
    0 19.493938 6.863846 6.227111 -0.036501 -0.999313 0.006429 0 0
    0 -26.831104 4.986874 6.227111 -0.192973 -0.979043 -0.065086 0 0
    0 -31.541851 2.621754 6.227110 -0.098109 -0.992692 -0.070268 0 0
  phy
    0 -31.541851 2.621754 6.227110 -0.098109 -0.992692 -0.070268 0 0
    0 -26.831104 4.986874 6.227111 -0.192973 -0.979043 -0.065086 0 0
    0 -31.404836 7.221292 3.785097 -0.643599 -0.716745 -0.268435 0 0
  phy
    0 -19.493938 -6.863847 6.227110 0.111675 -0.993554 -0.019459 0 0
    0 19.493938 6.863846 6.227111 -0.036501 -0.999313 0.006429 0 0
    0 -31.541853 -2.621757 6.227110 0.052074 -0.997947 -0.037297 0 0
  phy
    0 -31.541853 -2.621757 6.227110 0.052074 -0.997947 -0.037297 0 0
    0 -26.831104 -4.986877 6.227110 0.480954 -0.861608 -0.162216 0 0
    0 -19.493938 -6.863847 6.227110 0.111675 -0.993554 -0.019459 0 0
  phy
    0 -31.541853 -2.621757 6.227110 0.052074 -0.997947 -0.037297 0 0
    0 19.493938 6.863846 6.227111 -0.036501 -0.999313 0.006429 0 0
    0 -33.061828 -0.000002 6.227110 0.000000 -0.996023 -0.089097 0 0
  phy
    0 -31.541853 -2.621757 6.227110 0.052074 -0.997947 -0.037297 0 0
    0 -36.918598 -3.796461 3.785096 0.459487 -0.780066 -0.424698 0 0
    0 -31.404836 -7.221294 3.785096 0.643599 -0.716745 -0.268434 0 0
  phy
    0 -31.404836 -7.221294 3.785096 0.643599 -0.716745 -0.268434 0 0
    0 -26.831104 -4.986877 6.227110 0.480954 -0.861608 -0.162216 0 0
    0 -31.541853 -2.621757 6.227110 0.052074 -0.997947 -0.037297 0 0
  phy
    0 -33.061828 -0.000002 6.227110 0.000000 -0.996023 -0.089097 0 0
    0 -36.918598 -3.796461 3.785096 0.459487 -0.780066 -0.424698 0 0
    0 -31.541853 -2.621757 6.227110 0.052074 -0.997947 -0.037297 0 0
  phy
    0 -22.816947 -9.939259 3.785096 0.697256 -0.700454 -0.152309 0 0
    0 -25.425591 -12.079787 -0.000001 0.030094 0.999515 -0.008052 0 0
    0 -12.825591 -14.287951 -0.000001 0.857879 -0.505680 -0.091278 0 0
  phy
    0 -12.825591 -14.287951 -0.000001 0.857879 -0.505680 -0.091278 0 0
    0 -25.425591 -12.079787 -0.000001 0.030094 0.999515 -0.008052 0 0
    0 0.000001 -14.908878 -0.000001 0.984560 -0.174453 0.014421 0 0
  phy
    0 -19.493938 -6.863847 6.227110 0.111675 -0.993554 -0.019459 0 0
    0 -26.831104 -4.986877 6.227110 0.480954 -0.861608 -0.162216 0 0
    0 -22.816947 -9.939259 3.785096 0.697256 -0.700454 -0.152309 0 0
  phy
    0 -22.816947 -9.939259 3.785096 0.697256 -0.700454 -0.152309 0 0
    0 -26.831104 -4.986877 6.227110 0.480954 -0.861608 -0.162216 0 0
    0 -31.404836 -7.221294 3.785096 0.643599 -0.716745 -0.268434 0 0
  phy
    0 -31.404836 -7.221294 3.785096 0.643599 -0.716745 -0.268434 0 0
    0 -25.425591 -12.079787 -0.000001 0.030094 0.999515 -0.008052 0 0
    0 -22.816947 -9.939259 3.785096 0.697256 -0.700454 -0.152309 0 0
  phy
    0 -31.404836 -7.221294 3.785096 0.643599 -0.716745 -0.268434 0 0
    0 -34.995323 -8.776481 0.000000 0.775940 -0.489331 -0.398085 0 0
    0 -25.425591 -12.079787 -0.000001 0.030094 0.999515 -0.008052 0 0
  phy
    0 -36.918598 -3.796461 3.785096 0.459487 -0.780066 -0.424698 0 0
    0 -34.995323 -8.776481 0.000000 0.775940 -0.489331 -0.398085 0 0
    0 -31.404836 -7.221294 3.785096 0.643599 -0.716745 -0.268434 0 0
  phy
    0 36.918598 3.796460 3.785097 -0.459487 -0.780066 0.424698 0 0
    0 31.404836 7.221295 3.785097 -0.643599 -0.716745 0.268434 0 0
    0 31.541853 2.621756 6.227110 -0.281019 -0.938359 0.201273 0 0
  phy
    0 10.248568 -8.068934 6.227110 0.129363 -0.991540 0.010643 0 0
    0 19.493938 6.863846 6.227111 -0.036501 -0.999313 0.006429 0 0
    0 0.000000 -8.467645 6.227110 0.171519 -0.985178 0.002221 0 0
  phy
    0 31.404836 -7.221292 3.785096 0.643599 -0.716745 0.268434 0 0
    0 26.831104 -4.986874 6.227110 0.192973 -0.979043 0.065086 0 0
    0 22.816947 -9.939256 3.785096 0.697256 -0.700454 0.152309 0 0
  phy
    0 -25.425591 -12.079787 -0.000001 0.030094 0.999515 -0.008052 0 0
    0 12.825596 -14.287950 -0.000001 0.908144 0.403529 0.111528 0 0
    0 0.000001 -14.908878 -0.000001 0.984560 -0.174453 0.014421 0 0
  phy
    0 -19.493938 6.863844 6.227111 -0.292263 -0.954981 -0.050925 0 0
    0 19.493938 6.863846 6.227111 -0.036501 -0.999313 0.006429 0 0
    0 -10.248568 8.068934 6.227111 -0.303706 -0.952438 -0.024986 0 0
  phy
    0 19.493938 6.863846 6.227111 -0.036501 -0.999313 0.006429 0 0
    0 0.000000 8.467645 6.227111 -0.448424 -0.893802 -0.005806 0 0
    0 -10.248568 8.068934 6.227111 -0.303706 -0.952438 -0.024986 0 0
  phy
    0 -10.248568 8.068934 6.227111 -0.303706 -0.952438 -0.024986 0 0
    0 -10.723794 11.662714 3.904149 -0.630067 -0.775570 -0.038807 0 0
    0 -19.493938 6.863844 6.227111 -0.292263 -0.954981 -0.050925 0 0
  phy
    0 -10.248568 8.068934 6.227111 -0.303706 -0.952438 -0.024986 0 0
    0 0.000000 8.467645 6.227111 -0.448424 -0.893802 -0.005806 0 0
    0 -10.723794 11.662714 3.904149 -0.630067 -0.775570 -0.038807 0 0
  phy
    0 -11.995580 11.684300 3.785097 -0.693099 -0.713036 -0.105797 0 0
    0 -10.723794 11.662714 3.904149 -0.630067 -0.775570 -0.038807 0 0
    0 -12.825585 14.287953 0.000000 -0.341691 0.939109 -0.036356 0 0
  phy
    0 -12.825585 14.287953 0.000000 -0.341691 0.939109 -0.036356 0 0
    0 -10.723794 11.662714 3.904149 -0.630067 -0.775570 -0.038807 0 0
    0 -0.000001 12.265043 3.785097 -0.703053 -0.711132 -0.002656 0 0
  phy
    0 -12.825585 14.287953 0.000000 -0.341691 0.939109 -0.036356 0 0
    0 -0.000001 12.265043 3.785097 -0.703053 -0.711132 -0.002656 0 0
    0 -0.000001 14.908878 0.000000 -0.233735 0.972294 0.003606 0 0
  phy
    0 -11.995580 11.684300 3.785097 -0.693099 -0.713036 -0.105797 0 0
    0 -12.825585 14.287953 0.000000 -0.341691 0.939109 -0.036356 0 0
    0 -22.816947 9.939256 3.785097 -0.697256 -0.700454 -0.152309 0 0
  phy
    0 -19.493938 6.863844 6.227111 -0.292263 -0.954981 -0.050925 0 0
    0 -10.723794 11.662714 3.904149 -0.630067 -0.775570 -0.038807 0 0
    0 -11.995580 11.684300 3.785097 -0.693099 -0.713036 -0.105797 0 0
  phy
    0 -11.995580 11.684300 3.785097 -0.693099 -0.713036 -0.105797 0 0
    0 -22.816947 9.939256 3.785097 -0.697256 -0.700454 -0.152309 0 0
    0 -19.493938 6.863844 6.227111 -0.292263 -0.954981 -0.050925 0 0
  phy
    0 25.425591 12.079787 0.000001 -0.851837 -0.471624 0.227915 0 0
    0 22.816947 9.939259 3.785097 -0.697256 -0.700454 0.152309 0 0
    0 31.404836 7.221295 3.785097 -0.643599 -0.716745 0.268434 0 0
  phy
    0 34.995323 8.776481 0.000000 -0.071173 0.996795 0.036514 0 0
    0 25.425591 12.079787 0.000001 -0.851837 -0.471624 0.227915 0 0
    0 31.404836 7.221295 3.785097 -0.643599 -0.716745 0.268434 0 0
  phy
    0 22.816947 9.939259 3.785097 -0.697256 -0.700454 0.152309 0 0
    0 25.425591 12.079787 0.000001 -0.851837 -0.471624 0.227915 0 0
    0 12.825581 14.287954 0.000000 -0.125830 0.991925 0.015879 0 0
  phy
    0 12.825581 14.287954 0.000000 -0.125830 0.991925 0.015879 0 0
    0 25.425591 12.079787 0.000001 -0.851837 -0.471624 0.227915 0 0
    0 34.995323 8.776481 0.000000 -0.071173 0.996795 0.036514 0 0
  phy
    0 -41.139468 -4.614070 0.000000 0.601784 0.256926 -0.756205 0 0
    0 -25.425591 -12.079787 -0.000001 0.030094 0.999515 -0.008052 0 0
    0 -34.995323 -8.776481 0.000000 0.775940 -0.489331 -0.398085 0 0
  phy
    0 -25.425591 -12.079787 -0.000001 0.030094 0.999515 -0.008052 0 0
    0 -41.139468 -4.614070 0.000000 0.601784 0.256926 -0.756205 0 0
    0 -43.182786 -0.000002 0.000000 0.000000 0.992864 -0.119252 0 0
  phy
    0 -41.139468 -4.614070 0.000000 0.601784 0.256926 -0.756205 0 0
    0 -34.995323 -8.776481 0.000000 0.775940 -0.489331 -0.398085 0 0
    0 -36.918598 -3.796461 3.785096 0.459487 -0.780066 -0.424698 0 0
  phy
    0 -25.425591 -12.079787 -0.000001 0.030094 0.999515 -0.008052 0 0
    0 -25.425591 12.079785 0.000000 -0.249562 0.966054 -0.066772 0 0
    0 -12.825585 14.287953 0.000000 -0.341691 0.939109 -0.036356 0 0
  phy
    0 -25.425591 12.079785 0.000000 -0.249562 0.966054 -0.066772 0 0
    0 -25.425591 -12.079787 -0.000001 0.030094 0.999515 -0.008052 0 0
    0 -34.995323 8.776477 0.000000 -0.180620 0.979178 -0.092665 0 0
  phy
    0 -31.404836 7.221292 3.785097 -0.643599 -0.716745 -0.268435 0 0
    0 -25.425591 12.079785 0.000000 -0.249562 0.966054 -0.066772 0 0
    0 -34.995323 8.776477 0.000000 -0.180620 0.979178 -0.092665 0 0
  phy
    0 -25.425591 12.079785 0.000000 -0.249562 0.966054 -0.066772 0 0
    0 -31.404836 7.221292 3.785097 -0.643599 -0.716745 -0.268435 0 0
    0 -22.816947 9.939256 3.785097 -0.697256 -0.700454 -0.152309 0 0
  phy
    0 -12.825585 14.287953 0.000000 -0.341691 0.939109 -0.036356 0 0
    0 -25.425591 12.079785 0.000000 -0.249562 0.966054 -0.066772 0 0
    0 -22.816947 9.939256 3.785097 -0.697256 -0.700454 -0.152309 0 0
  phy
    0 -25.425591 -12.079787 -0.000001 0.030094 0.999515 -0.008052 0 0
    0 41.139468 -4.614066 -0.000001 0.081192 0.991463 0.102026 0 0
    0 34.995323 -8.776478 -0.000001 0.235530 0.964326 0.120835 0 0
  phy
    0 41.139468 -4.614066 -0.000001 0.081192 0.991463 0.102026 0 0
    0 -25.425591 -12.079787 -0.000001 0.030094 0.999515 -0.008052 0 0
    0 43.182786 0.000002 0.000000 0.000000 0.998264 0.058890 0 0
  phy
    0 41.139468 -4.614066 -0.000001 0.081192 0.991463 0.102026 0 0
    0 43.182786 0.000002 0.000000 0.000000 0.998264 0.058890 0 0
    0 38.736613 0.000002 3.785097 0.000000 -0.823064 0.567949 0 0
  phy
    0 36.918598 3.796460 3.785097 -0.459487 -0.780066 0.424698 0 0
    0 41.139468 4.614070 0.000000 -0.057116 0.995784 0.071773 0 0
    0 34.995323 8.776481 0.000000 -0.071173 0.996795 0.036514 0 0
  phy
    0 34.995323 8.776481 0.000000 -0.071173 0.996795 0.036514 0 0
    0 31.404836 7.221295 3.785097 -0.643599 -0.716745 0.268434 0 0
    0 36.918598 3.796460 3.785097 -0.459487 -0.780066 0.424698 0 0
  phy
    0 38.736613 0.000002 3.785097 0.000000 -0.823064 0.567949 0 0
    0 41.139468 4.614070 0.000000 -0.057116 0.995784 0.071773 0 0
    0 36.918598 3.796460 3.785097 -0.459487 -0.780066 0.424698 0 0
  phy
    0 -19.493938 6.863844 6.227111 -0.292263 -0.954981 -0.050925 0 0
    0 -26.831104 4.986874 6.227111 -0.192973 -0.979043 -0.065086 0 0
    0 19.493938 6.863846 6.227111 -0.036501 -0.999313 0.006429 0 0
  phy
    0 -19.493938 6.863844 6.227111 -0.292263 -0.954981 -0.050925 0 0
    0 -22.816947 9.939256 3.785097 -0.697256 -0.700454 -0.152309 0 0
    0 -26.831104 4.986874 6.227111 -0.192973 -0.979043 -0.065086 0 0
  phy
    0 -0.000001 12.265043 3.785097 -0.703053 -0.711132 -0.002656 0 0
    0 11.995579 11.684301 3.785097 -0.703892 -0.707300 0.065290 0 0
    0 -0.000001 14.908878 0.000000 -0.233735 0.972294 0.003606 0 0
  phy
    0 10.248568 8.068935 6.227111 -0.516140 -0.855755 0.035807 0 0
    0 11.995579 11.684301 3.785097 -0.703892 -0.707300 0.065290 0 0
    0 -0.000001 12.265043 3.785097 -0.703053 -0.711132 -0.002656 0 0
  phy
    0 -0.000001 12.265043 3.785097 -0.703053 -0.711132 -0.002656 0 0
    0 0.000000 8.467645 6.227111 -0.448424 -0.893802 -0.005806 0 0
    0 10.248568 8.068935 6.227111 -0.516140 -0.855755 0.035807 0 0
  phy
    0 -10.723794 11.662714 3.904149 -0.630067 -0.775570 -0.038807 0 0
    0 0.000000 8.467645 6.227111 -0.448424 -0.893802 -0.005806 0 0
    0 -0.000001 12.265043 3.785097 -0.703053 -0.711132 -0.002656 0 0
  phy
    0 22.816947 9.939259 3.785097 -0.697256 -0.700454 0.152309 0 0
    0 12.825581 14.287954 0.000000 -0.125830 0.991925 0.015879 0 0
    0 11.995579 11.684301 3.785097 -0.703892 -0.707300 0.065290 0 0
  phy
    0 22.816947 9.939259 3.785097 -0.697256 -0.700454 0.152309 0 0
    0 11.995579 11.684301 3.785097 -0.703892 -0.707300 0.065290 0 0
    0 19.493938 6.863846 6.227111 -0.036501 -0.999313 0.006429 0 0
  phy
    0 19.493938 6.863846 6.227111 -0.036501 -0.999313 0.006429 0 0
    0 11.995579 11.684301 3.785097 -0.703892 -0.707300 0.065290 0 0
    0 10.248568 8.068935 6.227111 -0.516140 -0.855755 0.035807 0 0
  phy
    0 10.248568 8.068935 6.227111 -0.516140 -0.855755 0.035807 0 0
    0 0.000000 8.467645 6.227111 -0.448424 -0.893802 -0.005806 0 0
    0 19.493938 6.863846 6.227111 -0.036501 -0.999313 0.006429 0 0
  phy
    0 -26.831104 4.986874 6.227111 -0.192973 -0.979043 -0.065086 0 0
    0 -22.816947 9.939256 3.785097 -0.697256 -0.700454 -0.152309 0 0
    0 -31.404836 7.221292 3.785097 -0.643599 -0.716745 -0.268435 0 0
  phy
    0 -41.139468 4.614066 0.000000 -0.517213 -0.556847 -0.649932 0 0
    0 -34.995323 8.776477 0.000000 -0.180620 0.979178 -0.092665 0 0
    0 -43.182786 -0.000002 0.000000 0.000000 0.992864 -0.119252 0 0
  phy
    0 -25.425591 -12.079787 -0.000001 0.030094 0.999515 -0.008052 0 0
    0 -12.825585 14.287953 0.000000 -0.341691 0.939109 -0.036356 0 0
    0 -0.000001 14.908878 0.000000 -0.233735 0.972294 0.003606 0 0
  phy
    0 12.825581 14.287954 0.000000 -0.125830 0.991925 0.015879 0 0
    0 -25.425591 -12.079787 -0.000001 0.030094 0.999515 -0.008052 0 0
    0 -0.000001 14.908878 0.000000 -0.233735 0.972294 0.003606 0 0
  phy
    0 -25.425591 -12.079787 -0.000001 0.030094 0.999515 -0.008052 0 0
    0 41.139468 4.614070 0.000000 -0.057116 0.995784 0.071773 0 0
    0 43.182786 0.000002 0.000000 0.000000 0.998264 0.058890 0 0
  phy
    0 41.139468 4.614070 0.000000 -0.057116 0.995784 0.071773 0 0
    0 -25.425591 -12.079787 -0.000001 0.030094 0.999515 -0.008052 0 0
    0 34.995323 8.776481 0.000000 -0.071173 0.996795 0.036514 0 0
  phy
    0 -34.995323 8.776477 0.000000 -0.180620 0.979178 -0.092665 0 0
    0 -25.425591 -12.079787 -0.000001 0.030094 0.999515 -0.008052 0 0
    0 -43.182786 -0.000002 0.000000 0.000000 0.992864 -0.119252 0 0
  phy
    0 -25.425591 -12.079787 -0.000001 0.030094 0.999515 -0.008052 0 0
    0 12.825581 14.287954 0.000000 -0.125830 0.991925 0.015879 0 0
    0 34.995323 8.776481 0.000000 -0.071173 0.996795 0.036514 0 0
  phy
    0 38.736613 0.000002 3.785097 0.000000 -0.823064 0.567949 0 0
    0 43.182786 0.000002 0.000000 0.000000 0.998264 0.058890 0 0
    0 41.139468 4.614070 0.000000 -0.057116 0.995784 0.071773 0 0
  phy
    0 11.995579 11.684301 3.785097 -0.703892 -0.707300 0.065290 0 0
    0 12.825581 14.287954 0.000000 -0.125830 0.991925 0.015879 0 0
    0 -0.000001 14.908878 0.000000 -0.233735 0.972294 0.003606 0 0
end
