// Created by Crowbar 0.74
version 1
nodes
  0 "Root" -1
  1 "Arm1_1" 0
  2 "Arm1_2" 1
  3 "Arm1_3" 2
  4 "Arm2_1" 0
  5 "Arm2_2" 4
  6 "Arm2_3" 5
  7 "Arm3_1" 0
  8 "Arm3_2" 7
  9 "Arm3_3" 8
  10 "Sphere1" 0
  11 "Sphere2" 0
  12 "Sphere3" 0
end
skeleton
  time 0
    0 0.000000 0.000000 0.000000 1.570796 0.000000 0.000000
    1 0.000417 38.762794 1.967424 0.000000 0.000000 0.000000
    2 0.004898 7.538363 28.306084 0.000000 0.000000 0.000000
    3 0.009832 -39.547501 11.188068 0.000000 0.000000 0.000000
    4 31.338125 -22.756083 1.927585 0.000000 0.000000 -0.637045
    5 7.216468 0.023948 28.257505 0.000000 0.000000 0.000000
    6 -39.555176 -0.245986 11.175534 0.000000 0.000000 0.000000
    7 -31.665152 -23.048283 1.924886 0.000000 0.000000 -0.933751
    8 -0.026383 -7.456958 28.391714 0.000000 0.000000 0.000000
    9 0.259516 39.546661 11.177461 0.000000 0.000000 0.000000
    10 0.000000 50.000000 0.000000 0.000000 0.000000 0.000000
    11 50.000000 -50.000000 0.000000 0.000000 0.000000 -0.637045
    12 -50.000000 -50.000000 0.000000 0.000000 0.000000 -0.933751
end
triangles
  phy
    0 -26.808512 0.290264 35.572101 -0.942910 -0.209722 0.258721 0 0
    0 -28.468732 -2.189953 37.611758 0.019775 -0.998290 0.055004 0 0
    0 -12.662677 -4.523072 28.602540 -0.835719 0.090504 0.541648 0 0
  phy
    0 -26.808512 0.290264 35.572101 -0.942910 -0.209722 0.258721 0 0
    0 -12.662677 -4.523072 28.602540 -0.835719 0.090504 0.541648 0 0
    0 -32.555813 0.543208 30.365450 -0.975901 0.216949 0.023455 0 0
  phy
    0 -28.468732 -2.189953 37.611758 0.019775 -0.998290 0.055004 0 0
    0 -26.808512 0.290264 35.572101 -0.942910 -0.209722 0.258721 0 0
    0 -32.555813 0.543208 30.365450 -0.975901 0.216949 0.023455 0 0
  phy
    0 -34.144206 -2.293217 32.162009 0.542040 -0.104924 -0.833777 0 0
    0 -24.891782 -4.936191 16.511169 -0.805594 0.582017 -0.110790 0 0
    0 -29.971895 -7.659963 24.865889 0.919074 -0.035774 -0.392459 0 0
  phy
    0 -29.971895 -7.659963 24.865889 0.919074 -0.035774 -0.392459 0 0
    0 -24.891782 -4.936191 16.511169 -0.805594 0.582017 -0.110790 0 0
    0 -23.621691 -9.298726 15.038874 0.721705 0.637996 0.268520 0 0
  phy
    0 -24.891782 -4.936191 16.511169 -0.805594 0.582017 -0.110790 0 0
    0 -34.144206 -2.293217 32.162009 0.542040 -0.104924 -0.833777 0 0
    0 -32.555813 0.543208 30.365450 -0.975901 0.216949 0.023455 0 0
  phy
    0 -24.891782 -4.936191 16.511169 -0.805594 0.582017 -0.110790 0 0
    0 -12.662677 -4.523072 28.602540 -0.835719 0.090504 0.541648 0 0
    0 -23.621691 -9.298726 15.038874 0.721705 0.637996 0.268520 0 0
  phy
    0 -12.662677 -4.523072 28.602540 -0.835719 0.090504 0.541648 0 0
    0 -24.891782 -4.936191 16.511169 -0.805594 0.582017 -0.110790 0 0
    0 -32.555813 0.543208 30.365450 -0.975901 0.216949 0.023455 0 0
  phy
    0 -21.169648 -7.671139 33.610576 0.828377 -0.556974 -0.059767 0 0
    0 -28.468732 -2.189953 37.611758 0.019775 -0.998290 0.055004 0 0
    0 -34.144206 -2.293217 32.162009 0.542040 -0.104924 -0.833777 0 0
  phy
    0 -34.144206 -2.293217 32.162009 0.542040 -0.104924 -0.833777 0 0
    0 -29.971895 -7.659963 24.865889 0.919074 -0.035774 -0.392459 0 0
    0 -21.169648 -7.671139 33.610576 0.828377 -0.556974 -0.059767 0 0
  phy
    0 -12.662677 -4.523072 28.602540 -0.835719 0.090504 0.541648 0 0
    0 -28.468732 -2.189953 37.611758 0.019775 -0.998290 0.055004 0 0
    0 -21.169648 -7.671139 33.610576 0.828377 -0.556974 -0.059767 0 0
  phy
    0 -21.169648 -7.671139 33.610576 0.828377 -0.556974 -0.059767 0 0
    0 -11.550183 -9.345175 27.113869 0.984273 -0.064548 0.164442 0 0
    0 -12.662677 -4.523072 28.602540 -0.835719 0.090504 0.541648 0 0
  phy
    0 -29.971895 -7.659963 24.865889 0.919074 -0.035774 -0.392459 0 0
    0 -11.550183 -9.345175 27.113869 0.984273 -0.064548 0.164442 0 0
    0 -21.169648 -7.671139 33.610576 0.828377 -0.556974 -0.059767 0 0
  phy
    0 -34.144206 -2.293217 32.162009 0.542040 -0.104924 -0.833777 0 0
    0 -28.468732 -2.189953 37.611758 0.019775 -0.998290 0.055004 0 0
    0 -32.555813 0.543208 30.365450 -0.975901 0.216949 0.023455 0 0
  phy
    0 -12.662677 -4.523072 28.602540 -0.835719 0.090504 0.541648 0 0
    0 -11.550183 -9.345175 27.113869 0.984273 -0.064548 0.164442 0 0
    0 -23.621691 -9.298726 15.038874 0.721705 0.637996 0.268520 0 0
  phy
    0 -23.621691 -9.298726 15.038874 0.721705 0.637996 0.268520 0 0
    0 -11.550183 -9.345175 27.113869 0.984273 -0.064548 0.164442 0 0
    0 -29.971895 -7.659963 24.865889 0.919074 -0.035774 -0.392459 0 0
  phy
    0 -7.538143 -6.904422 -28.720705 -0.851964 -0.475752 -0.218672 0 0
    0 12.143510 -10.133551 -26.895728 0.891473 -0.422563 0.163453 0 0
    0 12.253373 -7.359571 -28.752640 -0.819477 -0.346895 0.456203 0 0
  phy
    0 -7.538143 -6.904422 -28.720705 -0.851964 -0.475752 -0.218672 0 0
    0 -7.524987 -10.137967 -26.963654 0.953009 0.059137 -0.297114 0 0
    0 12.143510 -10.133551 -26.895728 0.891473 -0.422563 0.163453 0 0
  phy
    0 -7.538143 -6.904422 -28.720705 -0.851964 -0.475752 -0.218672 0 0
    0 12.253373 -7.359571 -28.752640 -0.819477 -0.346895 0.456203 0 0
    0 5.478257 1.024348 -45.329206 -0.957160 -0.246358 0.152157 0 0
  phy
    0 -2.408409 0.449286 -45.769562 -0.897263 -0.089525 -0.432325 0 0
    0 -7.538143 -6.904422 -28.720705 -0.851964 -0.475752 -0.218672 0 0
    0 5.478257 1.024348 -45.329206 -0.957160 -0.246358 0.152157 0 0
  phy
    0 -7.538143 -6.904422 -28.720705 -0.851964 -0.475752 -0.218672 0 0
    0 -2.408409 0.449286 -45.769562 -0.897263 -0.089525 -0.432325 0 0
    0 -2.446778 -2.364884 -49.631464 0.129333 0.605682 -0.785125 0 0
  phy
    0 -7.538143 -6.904422 -28.720705 -0.851964 -0.475752 -0.218672 0 0
    0 -2.446778 -2.364884 -49.631464 0.129333 0.605682 -0.785125 0 0
    0 -7.524987 -10.137967 -26.963654 0.953009 0.059137 -0.297114 0 0
  phy
    0 8.221517 -8.531159 -38.248634 0.940456 0.291074 0.175551 0 0
    0 -7.524987 -10.137967 -26.963654 0.953009 0.059137 -0.297114 0 0
    0 -4.186038 -8.542336 -38.207931 0.916806 0.379139 -0.125381 0 0
  phy
    0 -2.446778 -2.364884 -49.631464 0.129333 0.605682 -0.785125 0 0
    0 -4.186038 -8.542336 -38.207931 0.916806 0.379139 -0.125381 0 0
    0 -7.524987 -10.137967 -26.963654 0.953009 0.059137 -0.297114 0 0
  phy
    0 -4.186038 -8.542336 -38.207931 0.916806 0.379139 -0.125381 0 0
    0 5.419943 -2.468148 -49.791078 0.585020 0.631320 0.509104 0 0
    0 8.221517 -8.531159 -38.248634 0.940456 0.291074 0.175551 0 0
  phy
    0 -2.446778 -2.364884 -49.631464 0.129333 0.605682 -0.785125 0 0
    0 5.419943 -2.468148 -49.791078 0.585020 0.631320 0.509104 0 0
    0 -4.186038 -8.542336 -38.207931 0.916806 0.379139 -0.125381 0 0
  phy
    0 -2.446778 -2.364884 -49.631464 0.129333 0.605682 -0.785125 0 0
    0 -2.408409 0.449286 -45.769562 -0.897263 -0.089525 -0.432325 0 0
    0 5.478257 1.024348 -45.329206 -0.957160 -0.246358 0.152157 0 0
  phy
    0 12.253373 -7.359571 -28.752640 -0.819477 -0.346895 0.456203 0 0
    0 12.143510 -10.133551 -26.895728 0.891473 -0.422563 0.163453 0 0
    0 8.221517 -8.531159 -38.248634 0.940456 0.291074 0.175551 0 0
  phy
    0 8.221517 -8.531159 -38.248634 0.940456 0.291074 0.175551 0 0
    0 5.419943 -2.468148 -49.791078 0.585020 0.631320 0.509104 0 0
    0 12.253373 -7.359571 -28.752640 -0.819477 -0.346895 0.456203 0 0
  phy
    0 12.143510 -10.133551 -26.895728 0.891473 -0.422563 0.163453 0 0
    0 -7.524987 -10.137967 -26.963654 0.953009 0.059137 -0.297114 0 0
    0 8.221517 -8.531159 -38.248634 0.940456 0.291074 0.175551 0 0
  phy
    0 5.419943 -2.468148 -49.791078 0.585020 0.631320 0.509104 0 0
    0 5.478257 1.024348 -45.329206 -0.957160 -0.246358 0.152157 0 0
    0 12.253373 -7.359571 -28.752640 -0.819477 -0.346895 0.456203 0 0
  phy
    0 5.419943 -2.468148 -49.791078 0.585020 0.631320 0.509104 0 0
    0 -2.446778 -2.364884 -49.631464 0.129333 0.605682 -0.785125 0 0
    0 5.478257 1.024348 -45.329206 -0.957160 -0.246358 0.152157 0 0
  phy
    0 14.181794 -3.645705 31.752570 -0.513638 -0.853381 0.088980 0 0
    0 -11.515379 -3.645703 31.721331 -0.484959 -0.463586 -0.741554 0 0
    0 -11.515379 -10.312710 31.721331 0.714155 -0.688554 -0.125996 0 0
  phy
    0 -11.515379 -10.312710 31.721331 0.714155 -0.688554 -0.125996 0 0
    0 14.181794 -10.312705 31.752570 0.548140 -0.107777 0.829414 0 0
    0 14.181794 -3.645705 31.752570 -0.513638 -0.853381 0.088980 0 0
  phy
    0 6.700379 -18.204313 15.283656 0.694479 0.392674 0.602914 0 0
    0 14.181794 -10.312705 31.752570 0.548140 -0.107777 0.829414 0 0
    0 -11.515379 -10.312710 31.721331 0.714155 -0.688554 -0.125996 0 0
  phy
    0 -11.515379 -10.312710 31.721331 0.714155 -0.688554 -0.125996 0 0
    0 -5.644194 -18.204315 15.268652 0.150898 0.821154 -0.550396 0 0
    0 6.700379 -18.204313 15.283656 0.694479 0.392674 0.602914 0 0
  phy
    0 -11.515379 -10.312710 31.721331 0.714155 -0.688554 -0.125996 0 0
    0 -11.515379 -3.645703 31.721331 -0.484959 -0.463586 -0.741554 0 0
    0 -5.644194 -18.204315 15.268652 0.150898 0.821154 -0.550396 0 0
  phy
    0 -4.835988 15.307279 15.604577 -0.751415 -0.117314 -0.649317 0 0
    0 -11.515379 -3.645703 31.721331 -0.484959 -0.463586 -0.741554 0 0
    0 14.181794 -3.645705 31.752570 -0.513638 -0.853381 0.088980 0 0
  phy
    0 14.181794 -3.645705 31.752570 -0.513638 -0.853381 0.088980 0 0
    0 7.508585 15.307280 15.619581 -0.175828 0.789314 0.588276 0 0
    0 -4.835988 15.307279 15.604577 -0.751415 -0.117314 -0.649317 0 0
  phy
    0 14.181794 -10.312705 31.752570 0.548140 -0.107777 0.829414 0 0
    0 7.508585 15.307280 15.619581 -0.175828 0.789314 0.588276 0 0
    0 14.181794 -3.645705 31.752570 -0.513638 -0.853381 0.088980 0 0
  phy
    0 6.700379 -18.204313 15.283656 0.694479 0.392674 0.602914 0 0
    0 7.508585 15.307280 15.619581 -0.175828 0.789314 0.588276 0 0
    0 14.181794 -10.312705 31.752570 0.548140 -0.107777 0.829414 0 0
  phy
    0 6.700379 -18.204313 15.283656 0.694479 0.392674 0.602914 0 0
    0 -5.644194 -18.204315 15.268652 0.150898 0.821154 -0.550396 0 0
    0 7.508585 15.307280 15.619581 -0.175828 0.789314 0.588276 0 0
  phy
    0 -11.515379 -3.645703 31.721331 -0.484959 -0.463586 -0.741554 0 0
    0 -4.835988 15.307279 15.604577 -0.751415 -0.117314 -0.649317 0 0
    0 -5.644194 -18.204315 15.268652 0.150898 0.821154 -0.550396 0 0
  phy
    0 -5.644194 -18.204315 15.268652 0.150898 0.821154 -0.550396 0 0
    0 -4.835988 15.307279 15.604577 -0.751415 -0.117314 -0.649317 0 0
    0 7.508585 15.307280 15.619581 -0.175828 0.789314 0.588276 0 0
  phy
    0 7.508585 15.307279 15.640021 -0.227777 0.179463 -0.957032 0 0
    0 14.181794 -3.645705 31.773007 -0.561288 -0.827275 -0.023907 0 0
    0 16.248126 15.307280 6.921699 -0.743332 0.402988 0.533908 0 0
  phy
    0 16.248126 15.307280 6.921699 -0.743332 0.402988 0.533908 0 0
    0 14.181794 -3.645705 31.773007 -0.561288 -0.827275 -0.023907 0 0
    0 32.374526 -3.645703 13.624447 -0.431143 0.084493 0.898319 0 0
  phy
    0 14.181794 -3.645705 31.773007 -0.561288 -0.827275 -0.023907 0 0
    0 14.181794 -10.312705 31.773007 0.645083 -0.646030 0.408061 0 0
    0 32.374526 -3.645703 13.624447 -0.431143 0.084493 0.898319 0 0
  phy
    0 14.181794 -10.312705 31.773007 0.645083 -0.646030 0.408061 0 0
    0 32.374526 -10.312706 13.624447 0.826201 -0.283191 0.487027 0 0
    0 32.374526 -3.645703 13.624447 -0.431143 0.084493 0.898319 0 0
  phy
    0 6.700379 -18.204313 15.304096 0.631505 -0.211075 -0.746089 0 0
    0 14.181794 -3.645705 31.773007 -0.561288 -0.827275 -0.023907 0 0
    0 7.508585 15.307279 15.640021 -0.227777 0.179463 -0.957032 0 0
  phy
    0 14.181794 -3.645705 31.773007 -0.561288 -0.827275 -0.023907 0 0
    0 6.700379 -18.204313 15.304096 0.631505 -0.211075 -0.746089 0 0
    0 14.181794 -10.312705 31.773007 0.645083 -0.646030 0.408061 0 0
  phy
    0 32.374526 -10.312706 13.624447 0.826201 -0.283191 0.487027 0 0
    0 14.181794 -10.312705 31.773007 0.645083 -0.646030 0.408061 0 0
    0 6.700379 -18.204313 15.304096 0.631505 -0.211075 -0.746089 0 0
  phy
    0 6.700379 -18.204313 15.304096 0.631505 -0.211075 -0.746089 0 0
    0 15.439919 -18.204313 6.585774 0.154604 0.968707 -0.194174 0 0
    0 32.374526 -10.312706 13.624447 0.826201 -0.283191 0.487027 0 0
  phy
    0 6.700379 -18.204313 15.304096 0.631505 -0.211075 -0.746089 0 0
    0 7.508585 15.307279 15.640021 -0.227777 0.179463 -0.957032 0 0
    0 15.439919 -18.204313 6.585774 0.154604 0.968707 -0.194174 0 0
  phy
    0 32.374526 -3.645703 13.624447 -0.431143 0.084493 0.898319 0 0
    0 32.374526 -10.312706 13.624447 0.826201 -0.283191 0.487027 0 0
    0 15.439919 -18.204313 6.585774 0.154604 0.968707 -0.194174 0 0
  phy
    0 32.374526 -3.645703 13.624447 -0.431143 0.084493 0.898319 0 0
    0 15.439919 -18.204313 6.585774 0.154604 0.968707 -0.194174 0 0
    0 16.248126 15.307280 6.921699 -0.743332 0.402988 0.533908 0 0
  phy
    0 15.439919 -18.204313 6.585774 0.154604 0.968707 -0.194174 0 0
    0 7.508585 15.307279 15.640021 -0.227777 0.179463 -0.957032 0 0
    0 16.248126 15.307280 6.921699 -0.743332 0.402988 0.533908 0 0
  phy
    0 32.405762 -10.312703 -12.077100 0.778887 0.201356 0.593962 0 0
    0 32.374526 -10.312704 13.620074 0.645596 -0.670513 0.365537 0 0
    0 15.454925 -18.204313 -5.763172 0.631505 0.677735 -0.376665 0 0
  phy
    0 32.374526 -10.312704 13.620074 0.645596 -0.670513 0.365537 0 0
    0 15.439919 -18.204313 6.581400 0.167395 -0.495695 -0.852212 0 0
    0 15.454925 -18.204313 -5.763172 0.631505 0.677735 -0.376665 0 0
  phy
    0 16.263132 15.307280 -5.427248 -0.227777 0.551776 -0.802285 0 0
    0 15.454925 -18.204313 -5.763172 0.631505 0.677735 -0.376665 0 0
    0 15.439919 -18.204313 6.581400 0.167395 -0.495695 -0.852212 0 0
  phy
    0 32.405762 -10.312703 -12.077100 0.778887 0.201356 0.593962 0 0
    0 15.454925 -18.204313 -5.763172 0.631505 0.677735 -0.376665 0 0
    0 32.405762 -3.645703 -12.077100 -0.512630 0.548265 0.660769 0 0
  phy
    0 15.454925 -18.204313 -5.763172 0.631505 0.677735 -0.376665 0 0
    0 16.263132 15.307280 -5.427248 -0.227777 0.551776 -0.802285 0 0
    0 32.405762 -3.645703 -12.077100 -0.512630 0.548265 0.660769 0 0
  phy
    0 32.405762 -10.312703 -12.077100 0.778887 0.201356 0.593962 0 0
    0 32.405762 -3.645703 -12.077100 -0.512630 0.548265 0.660769 0 0
    0 32.374526 -10.312704 13.620074 0.645596 -0.670513 0.365537 0 0
  phy
    0 32.374526 -10.312704 13.620074 0.645596 -0.670513 0.365537 0 0
    0 32.405762 -3.645703 -12.077100 -0.512630 0.548265 0.660769 0 0
    0 32.374526 -3.645703 13.620074 -0.553935 -0.144712 0.819887 0 0
  phy
    0 32.374526 -3.645703 13.620074 -0.553935 -0.144712 0.819887 0 0
    0 16.248126 15.307280 6.917325 -0.681588 -0.731030 0.032131 0 0
    0 32.374526 -10.312704 13.620074 0.645596 -0.670513 0.365537 0 0
  phy
    0 32.405762 -3.645703 -12.077100 -0.512630 0.548265 0.660769 0 0
    0 16.248126 15.307280 6.917325 -0.681588 -0.731030 0.032131 0 0
    0 32.374526 -3.645703 13.620074 -0.553935 -0.144712 0.819887 0 0
  phy
    0 16.263132 15.307280 -5.427248 -0.227777 0.551776 -0.802285 0 0
    0 16.248126 15.307280 6.917325 -0.681588 -0.731030 0.032131 0 0
    0 32.405762 -3.645703 -12.077100 -0.512630 0.548265 0.660769 0 0
  phy
    0 16.263132 15.307280 -5.427248 -0.227777 0.551776 -0.802285 0 0
    0 15.439919 -18.204313 6.581400 0.167395 -0.495695 -0.852212 0 0
    0 16.248126 15.307280 6.917325 -0.681588 -0.731030 0.032131 0 0
  phy
    0 32.374526 -10.312704 13.620074 0.645596 -0.670513 0.365537 0 0
    0 16.248126 15.307280 6.917325 -0.681588 -0.731030 0.032131 0 0
    0 15.439919 -18.204313 6.581400 0.167395 -0.495695 -0.852212 0 0
  phy
    0 14.257203 -3.645702 -30.261222 -0.514468 0.852363 0.093810 0 0
    0 32.405762 -3.645703 -12.068490 -0.553750 0.477548 0.682135 0 0
    0 32.405762 -10.312702 -12.068490 0.524278 -0.343356 0.779256 0 0
  phy
    0 32.405762 -10.312702 -12.068490 0.524278 -0.343356 0.779256 0 0
    0 14.257203 -10.312703 -30.261222 0.814366 0.498326 0.297454 0 0
    0 14.257203 -3.645702 -30.261222 -0.514468 0.852363 0.093810 0 0
  phy
    0 32.405762 -10.312702 -12.068490 0.524278 -0.343356 0.779256 0 0
    0 32.405762 -3.645703 -12.068490 -0.553750 0.477548 0.682135 0 0
    0 16.263132 15.307280 -5.418639 -0.678628 -0.505823 0.532548 0 0
  phy
    0 16.263132 15.307280 -5.418639 -0.678628 -0.505823 0.532548 0 0
    0 15.454925 -18.204313 -5.754563 0.552921 -0.821420 -0.139814 0 0
    0 32.405762 -10.312702 -12.068490 0.524278 -0.343356 0.779256 0 0
  phy
    0 32.405762 -10.312702 -12.068490 0.524278 -0.343356 0.779256 0 0
    0 15.454925 -18.204313 -5.754563 0.552921 -0.821420 -0.139814 0 0
    0 14.257203 -10.312703 -30.261222 0.814366 0.498326 0.297454 0 0
  phy
    0 14.257203 -3.645702 -30.261222 -0.514468 0.852363 0.093810 0 0
    0 16.263132 15.307280 -5.418639 -0.678628 -0.505823 0.532548 0 0
    0 32.405762 -3.645703 -12.068490 -0.553750 0.477548 0.682135 0 0
  phy
    0 16.263132 15.307280 -5.418639 -0.678628 -0.505823 0.532548 0 0
    0 14.257203 -3.645702 -30.261222 -0.514468 0.852363 0.093810 0 0
    0 7.544812 15.307281 -14.158179 -0.223662 -0.179689 -0.957960 0 0
  phy
    0 6.736604 -18.204313 -14.494104 0.207852 0.075816 -0.975218 0 0
    0 14.257203 -3.645702 -30.261222 -0.514468 0.852363 0.093810 0 0
    0 14.257203 -10.312703 -30.261222 0.814366 0.498326 0.297454 0 0
  phy
    0 14.257203 -3.645702 -30.261222 -0.514468 0.852363 0.093810 0 0
    0 6.736604 -18.204313 -14.494104 0.207852 0.075816 -0.975218 0 0
    0 7.544812 15.307281 -14.158179 -0.223662 -0.179689 -0.957960 0 0
  phy
    0 14.257203 -10.312703 -30.261222 0.814366 0.498326 0.297454 0 0
    0 15.454925 -18.204313 -5.754563 0.552921 -0.821420 -0.139814 0 0
    0 6.736604 -18.204313 -14.494104 0.207852 0.075816 -0.975218 0 0
  phy
    0 6.736604 -18.204313 -14.494104 0.207852 0.075816 -0.975218 0 0
    0 15.454925 -18.204313 -5.754563 0.552921 -0.821420 -0.139814 0 0
    0 7.544812 15.307281 -14.158179 -0.223662 -0.179689 -0.957960 0 0
  phy
    0 15.454925 -18.204313 -5.754563 0.552921 -0.821420 -0.139814 0 0
    0 16.263132 15.307280 -5.418639 -0.678628 -0.505823 0.532548 0 0
    0 7.544812 15.307281 -14.158179 -0.223662 -0.179689 -0.957960 0 0
  phy
    0 -11.439970 -3.645702 -30.292266 -0.515445 0.675665 -0.527061 0 0
    0 14.257203 -3.645703 -30.261029 -0.553434 0.820248 0.144583 0 0
    0 14.257203 -10.312703 -30.261029 0.521622 0.316237 0.792404 0 0
  phy
    0 -11.439970 -3.645702 -30.292266 -0.515445 0.675665 -0.527061 0 0
    0 14.257203 -10.312703 -30.261029 0.521622 0.316237 0.792404 0 0
    0 -11.439970 -10.312705 -30.292266 0.803193 0.579020 -0.140060 0 0
  phy
    0 -11.439970 -10.312705 -30.292266 0.803193 0.579020 -0.140060 0 0
    0 14.257203 -10.312703 -30.261029 0.521622 0.316237 0.792404 0 0
    0 6.736603 -18.204313 -14.493910 0.553975 -0.686422 0.471101 0 0
  phy
    0 6.736603 -18.204313 -14.493910 0.553975 -0.686422 0.471101 0 0
    0 -5.607968 -18.204315 -14.508917 0.215683 -0.644859 -0.733238 0 0
    0 -11.439970 -10.312705 -30.292266 0.803193 0.579020 -0.140060 0 0
  phy
    0 -11.439970 -3.645702 -30.292266 -0.515445 0.675665 -0.527061 0 0
    0 -11.439970 -10.312705 -30.292266 0.803193 0.579020 -0.140060 0 0
    0 -5.607968 -18.204315 -14.508917 0.215683 -0.644859 -0.733238 0 0
  phy
    0 14.257203 -3.645703 -30.261029 -0.553434 0.820248 0.144583 0 0
    0 7.544812 15.307281 -14.157986 -0.680542 0.019399 0.732452 0 0
    0 14.257203 -10.312703 -30.261029 0.521622 0.316237 0.792404 0 0
  phy
    0 14.257203 -3.645703 -30.261029 -0.553434 0.820248 0.144583 0 0
    0 -11.439970 -3.645702 -30.292266 -0.515445 0.675665 -0.527061 0 0
    0 7.544812 15.307281 -14.157986 -0.680542 0.019399 0.732452 0 0
  phy
    0 -4.799761 15.307280 -14.172993 -0.204792 -0.814042 -0.543504 0 0
    0 -5.607968 -18.204315 -14.508917 0.215683 -0.644859 -0.733238 0 0
    0 6.736603 -18.204313 -14.493910 0.553975 -0.686422 0.471101 0 0
  phy
    0 6.736603 -18.204313 -14.493910 0.553975 -0.686422 0.471101 0 0
    0 7.544812 15.307281 -14.157986 -0.680542 0.019399 0.732452 0 0
    0 -4.799761 15.307280 -14.172993 -0.204792 -0.814042 -0.543504 0 0
  phy
    0 14.257203 -10.312703 -30.261029 0.521622 0.316237 0.792404 0 0
    0 7.544812 15.307281 -14.157986 -0.680542 0.019399 0.732452 0 0
    0 6.736603 -18.204313 -14.493910 0.553975 -0.686422 0.471101 0 0
  phy
    0 -4.799761 15.307280 -14.172993 -0.204792 -0.814042 -0.543504 0 0
    0 -11.439970 -3.645702 -30.292266 -0.515445 0.675665 -0.527061 0 0
    0 -5.607968 -18.204315 -14.508917 0.215683 -0.644859 -0.733238 0 0
  phy
    0 -11.439970 -3.645702 -30.292266 -0.515445 0.675665 -0.527061 0 0
    0 -4.799761 15.307280 -14.172993 -0.204792 -0.814042 -0.543504 0 0
    0 7.544812 15.307281 -14.157986 -0.680542 0.019399 0.732452 0 0
  phy
    0 -29.632703 -10.312705 -12.132270 0.749421 0.310754 -0.584636 0 0
    0 -29.632703 -3.645706 -12.132270 -0.515080 0.106900 -0.850450 0 0
    0 -11.439970 -10.312708 -30.280828 0.632734 0.748741 0.197570 0 0
  phy
    0 -11.439970 -10.312708 -30.280828 0.632734 0.748741 0.197570 0 0
    0 -29.632703 -3.645706 -12.132270 -0.515080 0.106900 -0.850450 0 0
    0 -11.439970 -3.645704 -30.280828 -0.553172 0.682324 -0.477949 0 0
  phy
    0 -11.439970 -10.312708 -30.280828 0.632734 0.748741 0.197570 0 0
    0 -14.347510 -18.204313 -5.779159 0.630326 -0.752279 -0.191742 0 0
    0 -29.632703 -10.312705 -12.132270 0.749421 0.310754 -0.584636 0 0
  phy
    0 -14.347510 -18.204313 -5.779159 0.630326 -0.752279 -0.191742 0 0
    0 -29.632703 -3.645706 -12.132270 -0.515080 0.106900 -0.850450 0 0
    0 -29.632703 -10.312705 -12.132270 0.749421 0.310754 -0.584636 0 0
  phy
    0 -5.607968 -18.204315 -14.497481 0.196854 -0.282411 0.938878 0 0
    0 -13.539303 15.307279 -5.443235 -0.182126 -0.961659 0.205040 0 0
    0 -14.347510 -18.204313 -5.779159 0.630326 -0.752279 -0.191742 0 0
  phy
    0 -5.607968 -18.204315 -14.497481 0.196854 -0.282411 0.938878 0 0
    0 -4.799761 15.307280 -14.161556 -0.686399 0.537819 0.489497 0 0
    0 -13.539303 15.307279 -5.443235 -0.182126 -0.961659 0.205040 0 0
  phy
    0 -13.539303 15.307279 -5.443235 -0.182126 -0.961659 0.205040 0 0
    0 -29.632703 -3.645706 -12.132270 -0.515080 0.106900 -0.850450 0 0
    0 -14.347510 -18.204313 -5.779159 0.630326 -0.752279 -0.191742 0 0
  phy
    0 -29.632703 -3.645706 -12.132270 -0.515080 0.106900 -0.850450 0 0
    0 -13.539303 15.307279 -5.443235 -0.182126 -0.961659 0.205040 0 0
    0 -4.799761 15.307280 -14.161556 -0.686399 0.537819 0.489497 0 0
  phy
    0 -11.439970 -10.312708 -30.280828 0.632734 0.748741 0.197570 0 0
    0 -5.607968 -18.204315 -14.497481 0.196854 -0.282411 0.938878 0 0
    0 -14.347510 -18.204313 -5.779159 0.630326 -0.752279 -0.191742 0 0
  phy
    0 -11.439970 -3.645704 -30.280828 -0.553172 0.682324 -0.477949 0 0
    0 -4.799761 15.307280 -14.161556 -0.686399 0.537819 0.489497 0 0
    0 -11.439970 -10.312708 -30.280828 0.632734 0.748741 0.197570 0 0
  phy
    0 -11.439970 -10.312708 -30.280828 0.632734 0.748741 0.197570 0 0
    0 -4.799761 15.307280 -14.161556 -0.686399 0.537819 0.489497 0 0
    0 -5.607968 -18.204315 -14.497481 0.196854 -0.282411 0.938878 0 0
  phy
    0 -11.439970 -3.645704 -30.280828 -0.553172 0.682324 -0.477949 0 0
    0 -29.632703 -3.645706 -12.132270 -0.515080 0.106900 -0.850450 0 0
    0 -4.799761 15.307280 -14.161556 -0.686399 0.537819 0.489497 0 0
  phy
    0 -14.347510 -18.204313 -5.809338 0.190118 0.471515 0.861121 0 0
    0 -14.362515 -18.204313 6.535234 0.694827 -0.598819 0.398284 0 0
    0 -29.632703 -10.312708 -12.162449 0.620996 0.668941 -0.408512 0 0
  phy
    0 -29.632703 -10.312708 -12.162449 0.620996 0.668941 -0.408512 0 0
    0 -14.362515 -18.204313 6.535234 0.694827 -0.598819 0.398284 0 0
    0 -29.663939 -10.312706 13.534724 0.537372 -0.833246 -0.130125 0 0
  phy
    0 -14.347510 -18.204313 -5.809338 0.190118 0.471515 0.861121 0 0
    0 -29.632703 -10.312708 -12.162449 0.620996 0.668941 -0.408512 0 0
    0 -13.539303 15.307278 -5.473414 -0.239639 0.794233 0.558361 0 0
  phy
    0 -13.539303 15.307278 -5.473414 -0.239639 0.794233 0.558361 0 0
    0 -29.632703 -10.312708 -12.162449 0.620996 0.668941 -0.408512 0 0
    0 -29.632703 -3.645706 -12.162449 -0.582547 0.103074 -0.806235 0 0
  phy
    0 -29.632703 -10.312708 -12.162449 0.620996 0.668941 -0.408512 0 0
    0 -29.663939 -10.312706 13.534724 0.537372 -0.833246 -0.130125 0 0
    0 -29.663939 -3.645706 13.534724 -0.462848 -0.119016 -0.878412 0 0
  phy
    0 -29.632703 -10.312708 -12.162449 0.620996 0.668941 -0.408512 0 0
    0 -29.663939 -3.645706 13.534724 -0.462848 -0.119016 -0.878412 0 0
    0 -29.632703 -3.645706 -12.162449 -0.582547 0.103074 -0.806235 0 0
  phy
    0 -13.539303 15.307278 -5.473414 -0.239639 0.794233 0.558361 0 0
    0 -13.554307 15.307279 6.871159 -0.620996 -0.668941 0.408512 0 0
    0 -14.347510 -18.204313 -5.809338 0.190118 0.471515 0.861121 0 0
  phy
    0 -14.347510 -18.204313 -5.809338 0.190118 0.471515 0.861121 0 0
    0 -13.554307 15.307279 6.871159 -0.620996 -0.668941 0.408512 0 0
    0 -14.362515 -18.204313 6.535234 0.694827 -0.598819 0.398284 0 0
  phy
    0 -29.663939 -10.312706 13.534724 0.537372 -0.833246 -0.130125 0 0
    0 -13.554307 15.307279 6.871159 -0.620996 -0.668941 0.408512 0 0
    0 -29.663939 -3.645706 13.534724 -0.462848 -0.119016 -0.878412 0 0
  phy
    0 -14.362515 -18.204313 6.535234 0.694827 -0.598819 0.398284 0 0
    0 -13.554307 15.307279 6.871159 -0.620996 -0.668941 0.408512 0 0
    0 -29.663939 -10.312706 13.534724 0.537372 -0.833246 -0.130125 0 0
  phy
    0 -13.539303 15.307278 -5.473414 -0.239639 0.794233 0.558361 0 0
    0 -29.632703 -3.645706 -12.162449 -0.582547 0.103074 -0.806235 0 0
    0 -13.554307 15.307279 6.871159 -0.620996 -0.668941 0.408512 0 0
  phy
    0 -29.632703 -3.645706 -12.162449 -0.582547 0.103074 -0.806235 0 0
    0 -29.663939 -3.645706 13.534724 -0.462848 -0.119016 -0.878412 0 0
    0 -13.554307 15.307279 6.871159 -0.620996 -0.668941 0.408512 0 0
  phy
    0 -4.835989 15.307273 15.605592 -0.680542 -0.532863 0.502911 0 0
    0 -11.515379 -3.645706 31.722345 -0.463091 -0.705236 -0.536832 0 0
    0 -11.515379 -10.312705 31.722345 0.546700 -0.665229 0.508517 0 0
  phy
    0 -11.515379 -10.312705 31.722345 0.546700 -0.665229 0.508517 0 0
    0 -5.644194 -18.204315 15.269665 0.553975 0.150264 0.818860 0 0
    0 -4.835989 15.307273 15.605592 -0.680542 -0.532863 0.502911 0 0
  phy
    0 -29.663939 -10.312706 13.529613 0.699617 -0.410336 -0.584945 0 0
    0 -11.515379 -10.312705 31.722345 0.546700 -0.665229 0.508517 0 0
    0 -11.515379 -3.645706 31.722345 -0.463091 -0.705236 -0.536832 0 0
  phy
    0 -29.663939 -10.312706 13.529613 0.699617 -0.410336 -0.584945 0 0
    0 -5.644194 -18.204315 15.269665 0.553975 0.150264 0.818860 0 0
    0 -11.515379 -10.312705 31.722345 0.546700 -0.665229 0.508517 0 0
  phy
    0 -29.663939 -3.645706 13.529613 -0.566151 -0.003311 -0.824295 0 0
    0 -14.362515 -18.204313 6.530123 0.215683 0.974611 -0.060124 0 0
    0 -29.663939 -10.312706 13.529613 0.699617 -0.410336 -0.584945 0 0
  phy
    0 -14.362515 -18.204313 6.530123 0.215683 0.974611 -0.060124 0 0
    0 -29.663939 -3.645706 13.529613 -0.566151 -0.003311 -0.824295 0 0
    0 -13.554307 15.307279 6.866047 -0.204792 0.959462 0.193633 0 0
  phy
    0 -4.835989 15.307273 15.605592 -0.680542 -0.532863 0.502911 0 0
    0 -29.663939 -3.645706 13.529613 -0.566151 -0.003311 -0.824295 0 0
    0 -11.515379 -3.645706 31.722345 -0.463091 -0.705236 -0.536832 0 0
  phy
    0 -29.663939 -3.645706 13.529613 -0.566151 -0.003311 -0.824295 0 0
    0 -4.835989 15.307273 15.605592 -0.680542 -0.532863 0.502911 0 0
    0 -13.554307 15.307279 6.866047 -0.204792 0.959462 0.193633 0 0
  phy
    0 -29.663939 -3.645706 13.529613 -0.566151 -0.003311 -0.824295 0 0
    0 -29.663939 -10.312706 13.529613 0.699617 -0.410336 -0.584945 0 0
    0 -11.515379 -3.645706 31.722345 -0.463091 -0.705236 -0.536832 0 0
  phy
    0 -14.362515 -18.204313 6.530123 0.215683 0.974611 -0.060124 0 0
    0 -5.644194 -18.204315 15.269665 0.553975 0.150264 0.818860 0 0
    0 -29.663939 -10.312706 13.529613 0.699617 -0.410336 -0.584945 0 0
  phy
    0 -14.362515 -18.204313 6.530123 0.215683 0.974611 -0.060124 0 0
    0 -13.554307 15.307279 6.866047 -0.204792 0.959462 0.193633 0 0
    0 -5.644194 -18.204315 15.269665 0.553975 0.150264 0.818860 0 0
  phy
    0 -5.644194 -18.204315 15.269665 0.553975 0.150264 0.818860 0 0
    0 -13.554307 15.307279 6.866047 -0.204792 0.959462 0.193633 0 0
    0 -4.835989 15.307273 15.605592 -0.680542 -0.532863 0.502911 0 0
end
