// Created by Crowbar 0.74
version 1
nodes
  0 "static_prop" -1
end
skeleton
  time 0
    0 0.000000 0.000000 0.000000 0.000000 0.000000 0.000000
end
triangles
  phy
    0 45.789490 -16.936483 0.011297 0.237810 0.854591 0.461649 0 0
    0 32.136161 -16.936483 -0.007971 0.196789 0.089949 -0.976311 0 0
    0 45.789490 16.936487 0.011299 -0.204030 0.958552 0.198872 0 0
  phy
    0 45.789490 16.936487 0.011299 -0.204030 0.958552 0.198872 0 0
    0 32.136161 -16.936483 -0.007971 0.196789 0.089949 -0.976311 0 0
    0 32.136161 16.936487 -0.007969 -0.372532 0.085139 -0.924106 0 0
  phy
    0 45.789490 -16.936483 0.011297 0.237810 0.854591 0.461649 0 0
    0 44.695810 -16.936483 11.882211 0.323020 -0.892793 -0.313972 0 0
    0 32.136161 -16.936483 -0.007971 0.196789 0.089949 -0.976311 0 0
  phy
    0 45.789490 -16.936483 0.011297 0.237810 0.854591 0.461649 0 0
    0 51.646228 -16.936483 6.853221 0.120579 -0.426646 0.896345 0 0
    0 44.695810 -16.936483 11.882211 0.323020 -0.892793 -0.313972 0 0
  phy
    0 45.789490 -16.936483 0.011297 0.237810 0.854591 0.461649 0 0
    0 51.646228 16.936487 6.853223 -0.116929 0.244977 0.962452 0 0
    0 51.646228 -16.936483 6.853221 0.120579 -0.426646 0.896345 0 0
  phy
    0 45.789490 16.936487 0.011299 -0.204030 0.958552 0.198872 0 0
    0 51.646228 16.936487 6.853223 -0.116929 0.244977 0.962452 0 0
    0 45.789490 -16.936483 0.011297 0.237810 0.854591 0.461649 0 0
  phy
    0 32.136161 -16.936483 -0.007971 0.196789 0.089949 -0.976311 0 0
    0 44.695810 16.936487 11.882213 -0.168227 -0.929920 -0.327029 0 0
    0 32.136161 16.936487 -0.007969 -0.372532 0.085139 -0.924106 0 0
  phy
    0 32.136161 -16.936483 -0.007971 0.196789 0.089949 -0.976311 0 0
    0 44.695810 -16.936483 11.882211 0.323020 -0.892793 -0.313972 0 0
    0 44.695810 16.936487 11.882213 -0.168227 -0.929920 -0.327029 0 0
  phy
    0 51.646228 -16.936483 6.853221 0.120579 -0.426646 0.896345 0 0
    0 44.695810 16.936487 11.882213 -0.168227 -0.929920 -0.327029 0 0
    0 44.695810 -16.936483 11.882211 0.323020 -0.892793 -0.313972 0 0
  phy
    0 51.646228 -16.936483 6.853221 0.120579 -0.426646 0.896345 0 0
    0 51.646228 16.936487 6.853223 -0.116929 0.244977 0.962452 0 0
    0 44.695810 16.936487 11.882213 -0.168227 -0.929920 -0.327029 0 0
  phy
    0 51.646228 16.936487 6.853223 -0.116929 0.244977 0.962452 0 0
    0 45.789490 16.936487 0.011299 -0.204030 0.958552 0.198872 0 0
    0 44.695810 16.936487 11.882213 -0.168227 -0.929920 -0.327029 0 0
  phy
    0 44.695810 16.936487 11.882213 -0.168227 -0.929920 -0.327029 0 0
    0 45.789490 16.936487 0.011299 -0.204030 0.958552 0.198872 0 0
    0 32.136161 16.936487 -0.007969 -0.372532 0.085139 -0.924106 0 0
  phy
    0 55.247062 16.936485 44.352483 -0.243180 -0.405168 -0.881307 0 0
    0 44.695810 16.936487 11.882213 -0.213410 -0.093382 -0.972490 0 0
    0 44.695810 -16.936483 11.882211 0.214824 -0.093353 -0.972181 0 0
  phy
    0 55.247062 16.936485 44.352483 -0.243180 -0.405168 -0.881307 0 0
    0 44.695810 -16.936483 11.882211 0.214824 -0.093353 -0.972181 0 0
    0 55.247062 -16.936485 44.352483 0.362900 -0.609243 -0.705072 0 0
  phy
    0 44.695810 -16.936483 11.882211 0.214824 -0.093353 -0.972181 0 0
    0 60.877012 -16.936485 24.497014 0.265023 0.301710 0.915824 0 0
    0 55.247062 -16.936485 44.352483 0.362900 -0.609243 -0.705072 0 0
  phy
    0 44.695810 -16.936483 11.882211 0.214824 -0.093353 -0.972181 0 0
    0 51.646228 -16.936484 6.853221 0.236355 0.766312 0.597414 0 0
    0 60.877012 -16.936485 24.497014 0.265023 0.301710 0.915824 0 0
  phy
    0 44.695810 -16.936483 11.882211 0.214824 -0.093353 -0.972181 0 0
    0 44.695810 16.936487 11.882213 -0.213410 -0.093382 -0.972490 0 0
    0 51.646228 16.936487 6.853223 -0.467533 0.697153 0.543498 0 0
  phy
    0 51.646228 -16.936484 6.853221 0.236355 0.766312 0.597414 0 0
    0 44.695810 -16.936483 11.882211 0.214824 -0.093353 -0.972181 0 0
    0 51.646228 16.936487 6.853223 -0.467533 0.697153 0.543498 0 0
  phy
    0 51.646228 16.936487 6.853223 -0.467533 0.697153 0.543498 0 0
    0 44.695810 16.936487 11.882213 -0.213410 -0.093382 -0.972490 0 0
    0 55.247062 16.936485 44.352483 -0.243180 -0.405168 -0.881307 0 0
  phy
    0 51.646228 16.936487 6.853223 -0.467533 0.697153 0.543498 0 0
    0 55.247062 16.936485 44.352483 -0.243180 -0.405168 -0.881307 0 0
    0 63.999999 16.936485 44.352483 -0.310321 -0.259325 0.914577 0 0
  phy
    0 60.877012 16.936486 24.497016 -0.095408 0.311471 0.945454 0 0
    0 63.999999 16.936485 44.352483 -0.310321 -0.259325 0.914577 0 0
    0 60.877012 -16.936485 24.497014 0.265023 0.301710 0.915824 0 0
  phy
    0 63.999999 16.936485 44.352483 -0.310321 -0.259325 0.914577 0 0
    0 63.999999 -16.936486 44.352483 0.241261 -0.264734 0.933654 0 0
    0 60.877012 -16.936485 24.497014 0.265023 0.301710 0.915824 0 0
  phy
    0 63.999999 16.936485 44.352483 -0.310321 -0.259325 0.914577 0 0
    0 55.247062 -16.936485 44.352483 0.362900 -0.609243 -0.705072 0 0
    0 63.999999 -16.936486 44.352483 0.241261 -0.264734 0.933654 0 0
  phy
    0 63.999999 16.936485 44.352483 -0.310321 -0.259325 0.914577 0 0
    0 55.247062 16.936485 44.352483 -0.243180 -0.405168 -0.881307 0 0
    0 55.247062 -16.936485 44.352483 0.362900 -0.609243 -0.705072 0 0
  phy
    0 63.999999 16.936485 44.352483 -0.310321 -0.259325 0.914577 0 0
    0 60.877012 16.936486 24.497016 -0.095408 0.311471 0.945454 0 0
    0 51.646228 16.936487 6.853223 -0.467533 0.697153 0.543498 0 0
  phy
    0 51.646228 -16.936484 6.853221 0.236355 0.766312 0.597414 0 0
    0 51.646228 16.936487 6.853223 -0.467533 0.697153 0.543498 0 0
    0 60.877012 -16.936485 24.497014 0.265023 0.301710 0.915824 0 0
  phy
    0 51.646228 16.936487 6.853223 -0.467533 0.697153 0.543498 0 0
    0 60.877012 16.936486 24.497016 -0.095408 0.311471 0.945454 0 0
    0 60.877012 -16.936485 24.497014 0.265023 0.301710 0.915824 0 0
  phy
    0 60.877012 -16.936485 24.497014 0.265023 0.301710 0.915824 0 0
    0 63.999999 -16.936486 44.352483 0.241261 -0.264734 0.933654 0 0
    0 55.247062 -16.936485 44.352483 0.362900 -0.609243 -0.705072 0 0
  phy
    0 51.777086 16.936484 82.139744 -0.632849 -0.610970 0.475624 0 0
    0 60.882798 16.936485 64.093039 -0.166476 -0.303471 0.938185 0 0
    0 55.247062 16.936485 44.352483 -0.293344 0.400314 -0.868158 0 0
  phy
    0 55.247062 16.936485 44.352483 -0.293344 0.400314 -0.868158 0 0
    0 60.882798 16.936485 64.093039 -0.166476 -0.303471 0.938185 0 0
    0 63.999999 16.936486 44.352483 -0.204411 0.576588 0.791051 0 0
  phy
    0 55.247062 16.936485 44.352483 -0.293344 0.400314 -0.868158 0 0
    0 63.999999 16.936486 44.352483 -0.204411 0.576588 0.791051 0 0
    0 55.247062 -16.936485 44.352483 0.391386 0.602932 -0.695190 0 0
  phy
    0 55.247062 -16.936485 44.352483 0.391386 0.602932 -0.695190 0 0
    0 63.999999 16.936486 44.352483 -0.204411 0.576588 0.791051 0 0
    0 63.999999 -16.936485 44.352483 0.321032 0.060292 0.945147 0 0
  phy
    0 55.247062 16.936485 44.352483 -0.293344 0.400314 -0.868158 0 0
    0 55.247062 -16.936485 44.352483 0.391386 0.602932 -0.695190 0 0
    0 44.718760 -16.936487 76.676321 0.117149 0.194446 -0.973893 0 0
  phy
    0 44.718760 16.936483 76.676321 -0.190758 -0.081164 -0.978276 0 0
    0 55.247062 16.936485 44.352483 -0.293344 0.400314 -0.868158 0 0
    0 44.718760 -16.936487 76.676321 0.117149 0.194446 -0.973893 0 0
  phy
    0 55.247062 16.936485 44.352483 -0.293344 0.400314 -0.868158 0 0
    0 44.718760 16.936483 76.676321 -0.190758 -0.081164 -0.978276 0 0
    0 51.777086 16.936484 82.139744 -0.632849 -0.610970 0.475624 0 0
  phy
    0 60.882798 -16.936486 64.093039 0.091417 -0.306477 0.947478 0 0
    0 63.999999 -16.936485 44.352483 0.321032 0.060292 0.945147 0 0
    0 60.882798 16.936485 64.093039 -0.166476 -0.303471 0.938185 0 0
  phy
    0 60.882798 16.936485 64.093039 -0.166476 -0.303471 0.938185 0 0
    0 51.777086 -16.936487 82.139744 0.470484 -0.696296 0.542048 0 0
    0 60.882798 -16.936486 64.093039 0.091417 -0.306477 0.947478 0 0
  phy
    0 60.882798 -16.936486 64.093039 0.091417 -0.306477 0.947478 0 0
    0 51.777086 -16.936487 82.139744 0.470484 -0.696296 0.542048 0 0
    0 63.999999 -16.936485 44.352483 0.321032 0.060292 0.945147 0 0
  phy
    0 63.999999 -16.936485 44.352483 0.321032 0.060292 0.945147 0 0
    0 51.777086 -16.936487 82.139744 0.470484 -0.696296 0.542048 0 0
    0 55.247062 -16.936485 44.352483 0.391386 0.602932 -0.695190 0 0
  phy
    0 55.247062 -16.936485 44.352483 0.391386 0.602932 -0.695190 0 0
    0 51.777086 -16.936487 82.139744 0.470484 -0.696296 0.542048 0 0
    0 44.718760 -16.936487 76.676321 0.117149 0.194446 -0.973893 0 0
  phy
    0 44.718760 -16.936487 76.676321 0.117149 0.194446 -0.973893 0 0
    0 51.777086 -16.936487 82.139744 0.470484 -0.696296 0.542048 0 0
    0 44.718760 16.936483 76.676321 -0.190758 -0.081164 -0.978276 0 0
  phy
    0 44.718760 16.936483 76.676321 -0.190758 -0.081164 -0.978276 0 0
    0 51.777086 -16.936487 82.139744 0.470484 -0.696296 0.542048 0 0
    0 51.777086 16.936484 82.139744 -0.632849 -0.610970 0.475624 0 0
  phy
    0 63.999999 -16.936485 44.352483 0.321032 0.060292 0.945147 0 0
    0 63.999999 16.936486 44.352483 -0.204411 0.576588 0.791051 0 0
    0 60.882798 16.936485 64.093039 -0.166476 -0.303471 0.938185 0 0
  phy
    0 51.777086 16.936484 82.139744 -0.632849 -0.610970 0.475624 0 0
    0 51.777086 -16.936487 82.139744 0.470484 -0.696296 0.542048 0 0
    0 60.882798 16.936485 64.093039 -0.166476 -0.303471 0.938185 0 0
  phy
    0 19.777089 -16.936489 105.136980 0.121226 -0.991708 0.042660 0 0
    0 16.930994 -16.936489 96.978184 0.404422 0.602778 -0.687823 0 0
    0 37.627640 -16.936489 96.087878 0.486156 -0.709627 0.509983 0 0
  phy
    0 16.930994 -16.936489 96.978184 0.404422 0.602778 -0.687823 0 0
    0 44.718760 -16.936487 76.676321 0.228583 0.849028 -0.476341 0 0
    0 37.627640 -16.936489 96.087878 0.486156 -0.709627 0.509983 0 0
  phy
    0 44.718760 -16.936487 76.676321 0.228583 0.849028 -0.476341 0 0
    0 51.777086 -16.936487 82.139744 0.124557 -0.340454 0.931975 0 0
    0 37.627640 -16.936489 96.087878 0.486156 -0.709627 0.509983 0 0
  phy
    0 37.627640 -16.936489 96.087878 0.486156 -0.709627 0.509983 0 0
    0 51.777086 -16.936487 82.139744 0.124557 -0.340454 0.931975 0 0
    0 37.627640 16.936483 96.087878 -0.045257 -0.811217 0.582992 0 0
  phy
    0 37.627640 16.936483 96.087878 -0.045257 -0.811217 0.582992 0 0
    0 19.777089 -16.936489 105.136980 0.121226 -0.991708 0.042660 0 0
    0 37.627640 -16.936489 96.087878 0.486156 -0.709627 0.509983 0 0
  phy
    0 51.777086 -16.936487 82.139744 0.124557 -0.340454 0.931975 0 0
    0 51.777086 16.936483 82.139744 -0.547571 -0.287114 0.785959 0 0
    0 37.627640 16.936483 96.087878 -0.045257 -0.811217 0.582992 0 0
  phy
    0 19.777089 16.936481 105.136980 -0.726832 -0.686181 0.029517 0 0
    0 19.777089 -16.936489 105.136980 0.121226 -0.991708 0.042660 0 0
    0 37.627640 16.936483 96.087878 -0.045257 -0.811217 0.582992 0 0
  phy
    0 19.777089 16.936481 105.136980 -0.726832 -0.686181 0.029517 0 0
    0 37.627640 16.936483 96.087878 -0.045257 -0.811217 0.582992 0 0
    0 51.777086 16.936483 82.139744 -0.547571 -0.287114 0.785959 0 0
  phy
    0 16.930994 -16.936489 96.978184 0.404422 0.602778 -0.687823 0 0
    0 16.930994 16.936481 96.978184 -0.110293 0.655061 -0.747483 0 0
    0 44.718760 -16.936487 76.676321 0.228583 0.849028 -0.476341 0 0
  phy
    0 16.930994 16.936481 96.978184 -0.110293 0.655061 -0.747483 0 0
    0 16.930994 -16.936489 96.978184 0.404422 0.602778 -0.687823 0 0
    0 19.777089 -16.936489 105.136980 0.121226 -0.991708 0.042660 0 0
  phy
    0 44.718760 16.936483 76.676321 -0.393002 0.897354 -0.200760 0 0
    0 16.930994 16.936481 96.978184 -0.110293 0.655061 -0.747483 0 0
    0 19.777089 16.936481 105.136980 -0.726832 -0.686181 0.029517 0 0
  phy
    0 44.718760 16.936483 76.676321 -0.393002 0.897354 -0.200760 0 0
    0 19.777089 16.936481 105.136980 -0.726832 -0.686181 0.029517 0 0
    0 51.777086 16.936483 82.139744 -0.547571 -0.287114 0.785959 0 0
  phy
    0 44.718760 16.936483 76.676321 -0.393002 0.897354 -0.200760 0 0
    0 51.777086 -16.936487 82.139744 0.124557 -0.340454 0.931975 0 0
    0 44.718760 -16.936487 76.676321 0.228583 0.849028 -0.476341 0 0
  phy
    0 51.777086 -16.936487 82.139744 0.124557 -0.340454 0.931975 0 0
    0 44.718760 16.936483 76.676321 -0.393002 0.897354 -0.200760 0 0
    0 51.777086 16.936483 82.139744 -0.547571 -0.287114 0.785959 0 0
  phy
    0 16.930994 16.936481 96.978184 -0.110293 0.655061 -0.747483 0 0
    0 44.718760 16.936483 76.676321 -0.393002 0.897354 -0.200760 0 0
    0 44.718760 -16.936487 76.676321 0.228583 0.849028 -0.476341 0 0
  phy
    0 19.777089 16.936481 105.136980 -0.726832 -0.686181 0.029517 0 0
    0 16.930994 16.936481 96.978184 -0.110293 0.655061 -0.747483 0 0
    0 19.777089 -16.936489 105.136980 0.121226 -0.991708 0.042660 0 0
  phy
    0 16.930994 16.936481 96.978184 -0.211243 0.954150 0.212071 0 0
    0 19.777089 -16.936489 105.136980 0.463812 -0.738184 0.489860 0 0
    0 16.930994 -16.936489 96.978184 0.211968 0.953997 0.212037 0 0
  phy
    0 16.930994 16.936481 96.978184 -0.211243 0.954150 0.212071 0 0
    0 19.777089 16.936481 105.136980 -0.239934 -0.808888 0.536779 0 0
    0 19.777089 -16.936489 105.136980 0.463812 -0.738184 0.489860 0 0
  phy
    0 19.777089 -16.936489 105.136980 0.463812 -0.738184 0.489860 0 0
    0 -16.930994 -16.936489 96.978184 0.228885 0.950265 -0.211207 0 0
    0 16.930994 -16.936489 96.978184 0.211968 0.953997 0.212037 0 0
  phy
    0 19.777089 -16.936489 105.136980 0.463812 -0.738184 0.489860 0 0
    0 -19.777089 -16.936489 105.136980 0.542428 -0.699997 -0.464518 0 0
    0 -16.930994 -16.936489 96.978184 0.228885 0.950265 -0.211207 0 0
  phy
    0 16.930994 -16.936489 96.978184 0.211968 0.953997 0.212037 0 0
    0 -16.930994 -16.936489 96.978184 0.228885 0.950265 -0.211207 0 0
    0 16.930994 16.936481 96.978184 -0.211243 0.954150 0.212071 0 0
  phy
    0 16.930994 16.936481 96.978184 -0.211243 0.954150 0.212071 0 0
    0 -16.930994 -16.936489 96.978184 0.228885 0.950265 -0.211207 0 0
    0 -16.930994 16.936481 96.978184 -0.396762 0.896056 -0.199159 0 0
  phy
    0 -16.930994 16.936481 96.978184 -0.396762 0.896056 -0.199159 0 0
    0 -16.930994 -16.936489 96.978184 0.228885 0.950265 -0.211207 0 0
    0 -19.777089 16.936481 105.136980 -0.122644 -0.826937 -0.548756 0 0
  phy
    0 -19.777089 16.936481 105.136980 -0.122644 -0.826937 -0.548756 0 0
    0 -16.930994 -16.936489 96.978184 0.228885 0.950265 -0.211207 0 0
    0 -19.777089 -16.936489 105.136980 0.542428 -0.699997 -0.464518 0 0
  phy
    0 0.000000 -16.936489 108.213603 0.060361 -0.996837 -0.051691 0 0
    0 -19.777089 16.936481 105.136980 -0.122644 -0.826937 -0.548756 0 0
    0 -19.777089 -16.936489 105.136980 0.542428 -0.699997 -0.464518 0 0
  phy
    0 0.000000 -16.936489 108.213603 0.060361 -0.996837 -0.051691 0 0
    0 0.000000 16.936481 108.213603 -0.337148 -0.940188 0.048753 0 0
    0 -19.777089 16.936481 105.136980 -0.122644 -0.826937 -0.548756 0 0
  phy
    0 0.000000 16.936481 108.213603 -0.337148 -0.940188 0.048753 0 0
    0 19.777089 16.936481 105.136980 -0.239934 -0.808888 0.536779 0 0
    0 16.930994 16.936481 96.978184 -0.211243 0.954150 0.212071 0 0
  phy
    0 0.000000 16.936481 108.213603 -0.337148 -0.940188 0.048753 0 0
    0 16.930994 16.936481 96.978184 -0.211243 0.954150 0.212071 0 0
    0 -16.930994 16.936481 96.978184 -0.396762 0.896056 -0.199159 0 0
  phy
    0 0.000000 16.936481 108.213603 -0.337148 -0.940188 0.048753 0 0
    0 -16.930994 16.936481 96.978184 -0.396762 0.896056 -0.199159 0 0
    0 -19.777089 16.936481 105.136980 -0.122644 -0.826937 -0.548756 0 0
  phy
    0 19.777089 -16.936489 105.136980 0.463812 -0.738184 0.489860 0 0
    0 0.000000 16.936481 108.213603 -0.337148 -0.940188 0.048753 0 0
    0 0.000000 -16.936489 108.213603 0.060361 -0.996837 -0.051691 0 0
  phy
    0 19.777089 -16.936489 105.136980 0.463812 -0.738184 0.489860 0 0
    0 19.777089 16.936481 105.136980 -0.239934 -0.808888 0.536779 0 0
    0 0.000000 16.936481 108.213603 -0.337148 -0.940188 0.048753 0 0
  phy
    0 0.000000 -16.936489 108.213603 0.060361 -0.996837 -0.051691 0 0
    0 -19.777089 -16.936489 105.136980 0.542428 -0.699997 -0.464518 0 0
    0 19.777089 -16.936489 105.136980 0.463812 -0.738184 0.489860 0 0
  phy
    0 -37.627640 16.936480 96.087878 -0.346948 -0.788931 -0.507163 0 0
    0 -19.777089 16.936481 105.136980 -0.237278 -0.970544 -0.041750 0 0
    0 -16.930994 16.936481 96.978184 -0.215885 0.643540 0.734336 0 0
  phy
    0 -37.627640 16.936480 96.087878 -0.346948 -0.788931 -0.507163 0 0
    0 -16.930994 16.936481 96.978184 -0.215885 0.643540 0.734336 0 0
    0 -44.718760 16.936479 76.676321 -0.406744 0.840511 0.357913 0 0
  phy
    0 -37.627640 16.936480 96.087878 -0.346948 -0.788931 -0.507163 0 0
    0 -44.718760 16.936479 76.676321 -0.406744 0.840511 0.357913 0 0
    0 -51.777086 16.936479 82.139744 -0.124557 -0.340454 -0.931975 0 0
  phy
    0 -19.777089 -16.936490 105.136980 0.121226 -0.991708 -0.042660 0 0
    0 -37.627640 16.936480 96.087878 -0.346948 -0.788931 -0.507163 0 0
    0 -37.627640 -16.936491 96.087878 0.347703 -0.731947 -0.585967 0 0
  phy
    0 -19.777089 -16.936490 105.136980 0.121226 -0.991708 -0.042660 0 0
    0 -19.777089 16.936481 105.136980 -0.237278 -0.970544 -0.041750 0 0
    0 -37.627640 16.936480 96.087878 -0.346948 -0.788931 -0.507163 0 0
  phy
    0 -37.627640 16.936480 96.087878 -0.346948 -0.788931 -0.507163 0 0
    0 -51.777086 16.936479 82.139744 -0.124557 -0.340454 -0.931975 0 0
    0 -37.627640 -16.936491 96.087878 0.347703 -0.731947 -0.585967 0 0
  phy
    0 -37.627640 -16.936491 96.087878 0.347703 -0.731947 -0.585967 0 0
    0 -16.930994 -16.936489 96.978184 0.404422 0.602778 0.687823 0 0
    0 -19.777089 -16.936490 105.136980 0.121226 -0.991708 -0.042660 0 0
  phy
    0 -37.627640 -16.936491 96.087878 0.347703 -0.731947 -0.585967 0 0
    0 -44.718760 -16.936491 76.676321 0.217299 0.898072 0.382424 0 0
    0 -16.930994 -16.936489 96.978184 0.404422 0.602778 0.687823 0 0
  phy
    0 -37.627640 -16.936491 96.087878 0.347703 -0.731947 -0.585967 0 0
    0 -51.777086 -16.936492 82.139744 0.243511 -0.332797 -0.911015 0 0
    0 -44.718760 -16.936491 76.676321 0.217299 0.898072 0.382424 0 0
  phy
    0 -51.777086 16.936479 82.139744 -0.124557 -0.340454 -0.931975 0 0
    0 -51.777086 -16.936492 82.139744 0.243511 -0.332797 -0.911015 0 0
    0 -37.627640 -16.936491 96.087878 0.347703 -0.731947 -0.585967 0 0
  phy
    0 -44.718760 -16.936491 76.676321 0.217299 0.898072 0.382424 0 0
    0 -16.930994 16.936481 96.978184 -0.215885 0.643540 0.734336 0 0
    0 -16.930994 -16.936489 96.978184 0.404422 0.602778 0.687823 0 0
  phy
    0 -16.930994 16.936481 96.978184 -0.215885 0.643540 0.734336 0 0
    0 -44.718760 -16.936491 76.676321 0.217299 0.898072 0.382424 0 0
    0 -44.718760 16.936479 76.676321 -0.406744 0.840511 0.357913 0 0
  phy
    0 -44.718760 -16.936491 76.676321 0.217299 0.898072 0.382424 0 0
    0 -51.777086 16.936479 82.139744 -0.124557 -0.340454 -0.931975 0 0
    0 -44.718760 16.936479 76.676321 -0.406744 0.840511 0.357913 0 0
  phy
    0 -51.777086 16.936479 82.139744 -0.124557 -0.340454 -0.931975 0 0
    0 -44.718760 -16.936491 76.676321 0.217299 0.898072 0.382424 0 0
    0 -51.777086 -16.936492 82.139744 0.243511 -0.332797 -0.911015 0 0
  phy
    0 -19.777089 -16.936490 105.136980 0.121226 -0.991708 -0.042660 0 0
    0 -16.930994 -16.936489 96.978184 0.404422 0.602778 0.687823 0 0
    0 -16.930994 16.936481 96.978184 -0.215885 0.643540 0.734336 0 0
  phy
    0 -16.930994 16.936481 96.978184 -0.215885 0.643540 0.734336 0 0
    0 -19.777089 16.936481 105.136980 -0.237278 -0.970544 -0.041750 0 0
    0 -19.777089 -16.936490 105.136980 0.121226 -0.991708 -0.042660 0 0
  phy
    0 -60.882798 16.936481 64.093039 -0.166476 -0.303471 -0.938185 0 0
    0 -51.777086 16.936480 82.139744 -0.632849 -0.610970 -0.475624 0 0
    0 -55.247062 16.936481 44.352483 -0.278690 0.491989 0.824790 0 0
  phy
    0 -60.882798 16.936481 64.093039 -0.166476 -0.303471 -0.938185 0 0
    0 -55.247062 16.936481 44.352483 -0.278690 0.491989 0.824790 0 0
    0 -63.999999 16.936483 44.352483 -0.241144 0.266421 -0.933204 0 0
  phy
    0 -63.999999 16.936483 44.352483 -0.241144 0.266421 -0.933204 0 0
    0 -55.247062 16.936481 44.352483 -0.278690 0.491989 0.824790 0 0
    0 -63.999999 -16.936489 44.352483 0.310473 0.260956 -0.914062 0 0
  phy
    0 -63.999999 -16.936489 44.352483 0.310473 0.260956 -0.914062 0 0
    0 -55.247062 16.936481 44.352483 -0.278690 0.491989 0.824790 0 0
    0 -55.247062 -16.936489 44.352483 0.435295 0.461204 0.773181 0 0
  phy
    0 -55.247062 16.936481 44.352483 -0.278690 0.491989 0.824790 0 0
    0 -44.718760 -16.936491 76.676321 0.117149 0.194446 0.973893 0 0
    0 -55.247062 -16.936489 44.352483 0.435295 0.461204 0.773181 0 0
  phy
    0 -44.718760 16.936479 76.676321 -0.190758 -0.081164 0.978276 0 0
    0 -44.718760 -16.936491 76.676321 0.117149 0.194446 0.973893 0 0
    0 -55.247062 16.936481 44.352483 -0.278690 0.491989 0.824790 0 0
  phy
    0 -44.718760 16.936479 76.676321 -0.190758 -0.081164 0.978276 0 0
    0 -55.247062 16.936481 44.352483 -0.278690 0.491989 0.824790 0 0
    0 -51.777086 16.936480 82.139744 -0.632849 -0.610970 -0.475624 0 0
  phy
    0 -60.882798 -16.936490 64.093039 0.091417 -0.306477 -0.947478 0 0
    0 -60.882798 16.936481 64.093039 -0.166476 -0.303471 -0.938185 0 0
    0 -63.999999 -16.936489 44.352483 0.310473 0.260956 -0.914062 0 0
  phy
    0 -60.882798 16.936481 64.093039 -0.166476 -0.303471 -0.938185 0 0
    0 -60.882798 -16.936490 64.093039 0.091417 -0.306477 -0.947478 0 0
    0 -51.777086 -16.936491 82.139744 0.470484 -0.696296 -0.542048 0 0
  phy
    0 -63.999999 -16.936489 44.352483 0.310473 0.260956 -0.914062 0 0
    0 -51.777086 -16.936491 82.139744 0.470484 -0.696296 -0.542048 0 0
    0 -60.882798 -16.936490 64.093039 0.091417 -0.306477 -0.947478 0 0
  phy
    0 -55.247062 -16.936489 44.352483 0.435295 0.461204 0.773181 0 0
    0 -51.777086 -16.936491 82.139744 0.470484 -0.696296 -0.542048 0 0
    0 -63.999999 -16.936489 44.352483 0.310473 0.260956 -0.914062 0 0
  phy
    0 -44.718760 -16.936491 76.676321 0.117149 0.194446 0.973893 0 0
    0 -51.777086 -16.936491 82.139744 0.470484 -0.696296 -0.542048 0 0
    0 -55.247062 -16.936489 44.352483 0.435295 0.461204 0.773181 0 0
  phy
    0 -44.718760 16.936479 76.676321 -0.190758 -0.081164 0.978276 0 0
    0 -51.777086 -16.936491 82.139744 0.470484 -0.696296 -0.542048 0 0
    0 -44.718760 -16.936491 76.676321 0.117149 0.194446 0.973893 0 0
  phy
    0 -51.777086 16.936480 82.139744 -0.632849 -0.610970 -0.475624 0 0
    0 -51.777086 -16.936491 82.139744 0.470484 -0.696296 -0.542048 0 0
    0 -44.718760 16.936479 76.676321 -0.190758 -0.081164 0.978276 0 0
  phy
    0 -63.999999 -16.936489 44.352483 0.310473 0.260956 -0.914062 0 0
    0 -60.882798 16.936481 64.093039 -0.166476 -0.303471 -0.938185 0 0
    0 -63.999999 16.936483 44.352483 -0.241144 0.266421 -0.933204 0 0
  phy
    0 -51.777086 16.936480 82.139744 -0.632849 -0.610970 -0.475624 0 0
    0 -60.882798 16.936481 64.093039 -0.166476 -0.303471 -0.938185 0 0
    0 -51.777086 -16.936491 82.139744 0.470484 -0.696296 -0.542048 0 0
  phy
    0 -44.695810 16.936483 11.882213 -0.402676 -0.087493 0.911152 0 0
    0 -55.247062 16.936481 44.352483 -0.227682 -0.406736 0.884718 0 0
    0 -44.695810 -16.936487 11.882211 0.108575 -0.095019 0.989537 0 0
  phy
    0 -55.247062 16.936481 44.352483 -0.227682 -0.406736 0.884718 0 0
    0 -55.247062 -16.936489 44.352483 0.451314 -0.583442 0.675212 0 0
    0 -44.695810 -16.936487 11.882211 0.108575 -0.095019 0.989537 0 0
  phy
    0 -44.695810 -16.936487 11.882211 0.108575 -0.095019 0.989537 0 0
    0 -51.646228 -16.936487 6.853221 0.386769 0.593065 -0.706175 0 0
    0 -51.646228 16.936483 6.853223 -0.200837 0.930848 -0.305264 0 0
  phy
    0 -44.695810 16.936483 11.882213 -0.402676 -0.087493 0.911152 0 0
    0 -44.695810 -16.936487 11.882211 0.108575 -0.095019 0.989537 0 0
    0 -51.646228 16.936483 6.853223 -0.200837 0.930848 -0.305264 0 0
  phy
    0 -55.247062 -16.936489 44.352483 0.451314 -0.583442 0.675212 0 0
    0 -51.646228 -16.936487 6.853221 0.386769 0.593065 -0.706175 0 0
    0 -44.695810 -16.936487 11.882211 0.108575 -0.095019 0.989537 0 0
  phy
    0 -60.877012 16.936483 24.497016 -0.344120 0.342238 -0.874331 0 0
    0 -63.999999 16.936481 44.352483 -0.123353 -0.270709 -0.954725 0 0
    0 -55.247062 16.936481 44.352483 -0.227682 -0.406736 0.884718 0 0
  phy
    0 -60.877012 16.936483 24.497016 -0.344120 0.342238 -0.874331 0 0
    0 -55.247062 16.936481 44.352483 -0.227682 -0.406736 0.884718 0 0
    0 -44.695810 16.936483 11.882213 -0.402676 -0.087493 0.911152 0 0
  phy
    0 -60.877012 16.936483 24.497016 -0.344120 0.342238 -0.874331 0 0
    0 -44.695810 16.936483 11.882213 -0.402676 -0.087493 0.911152 0 0
    0 -51.646228 16.936483 6.853223 -0.200837 0.930848 -0.305264 0 0
  phy
    0 -60.877012 16.936483 24.497016 -0.344120 0.342238 -0.874331 0 0
    0 -60.877012 -16.936489 24.497014 0.221195 0.254071 -0.941552 0 0
    0 -63.999999 16.936481 44.352483 -0.123353 -0.270709 -0.954725 0 0
  phy
    0 -63.999999 16.936481 44.352483 -0.123353 -0.270709 -0.954725 0 0
    0 -60.877012 -16.936489 24.497014 0.221195 0.254071 -0.941552 0 0
    0 -63.999999 -16.936489 44.352483 0.241261 -0.264734 -0.933654 0 0
  phy
    0 -63.999999 -16.936489 44.352483 0.241261 -0.264734 -0.933654 0 0
    0 -55.247062 -16.936489 44.352483 0.451314 -0.583442 0.675212 0 0
    0 -63.999999 16.936481 44.352483 -0.123353 -0.270709 -0.954725 0 0
  phy
    0 -55.247062 -16.936489 44.352483 0.451314 -0.583442 0.675212 0 0
    0 -55.247062 16.936481 44.352483 -0.227682 -0.406736 0.884718 0 0
    0 -63.999999 16.936481 44.352483 -0.123353 -0.270709 -0.954725 0 0
  phy
    0 -60.877012 -16.936489 24.497014 0.221195 0.254071 -0.941552 0 0
    0 -51.646228 -16.936487 6.853221 0.386769 0.593065 -0.706175 0 0
    0 -55.247062 -16.936489 44.352483 0.451314 -0.583442 0.675212 0 0
  phy
    0 -55.247062 -16.936489 44.352483 0.451314 -0.583442 0.675212 0 0
    0 -63.999999 -16.936489 44.352483 0.241261 -0.264734 -0.933654 0 0
    0 -60.877012 -16.936489 24.497014 0.221195 0.254071 -0.941552 0 0
  phy
    0 -60.877012 -16.936489 24.497014 0.221195 0.254071 -0.941552 0 0
    0 -60.877012 16.936483 24.497016 -0.344120 0.342238 -0.874331 0 0
    0 -51.646228 -16.936487 6.853221 0.386769 0.593065 -0.706175 0 0
  phy
    0 -51.646228 -16.936487 6.853221 0.386769 0.593065 -0.706175 0 0
    0 -60.877012 16.936483 24.497016 -0.344120 0.342238 -0.874331 0 0
    0 -51.646228 16.936483 6.853223 -0.200837 0.930848 -0.305264 0 0
  phy
    0 -45.789490 -16.936487 0.011297 0.323020 0.892793 -0.313972 0 0
    0 -51.646228 -16.936487 6.853221 0.116928 0.244977 -0.962452 0 0
    0 -45.789490 16.936483 0.011299 -0.168227 0.929920 -0.327029 0 0
  phy
    0 -45.789490 16.936483 0.011299 -0.168227 0.929920 -0.327029 0 0
    0 -51.646228 -16.936487 6.853221 0.116928 0.244977 -0.962452 0 0
    0 -51.646228 16.936483 6.853223 -0.120579 -0.426646 -0.896345 0 0
  phy
    0 -32.136161 -16.936487 -0.007971 0.196789 0.089949 0.976311 0 0
    0 -45.789490 -16.936487 0.011297 0.323020 0.892793 -0.313972 0 0
    0 -45.789490 16.936483 0.011299 -0.168227 0.929920 -0.327029 0 0
  phy
    0 -32.136161 -16.936487 -0.007971 0.196789 0.089949 0.976311 0 0
    0 -45.789490 16.936483 0.011299 -0.168227 0.929920 -0.327029 0 0
    0 -32.136161 16.936483 -0.007969 -0.372532 0.085139 0.924106 0 0
  phy
    0 -45.789490 -16.936487 0.011297 0.323020 0.892793 -0.313972 0 0
    0 -44.695810 -16.936487 11.882211 0.257183 -0.964054 0.066754 0 0
    0 -51.646228 -16.936487 6.853221 0.116928 0.244977 -0.962452 0 0
  phy
    0 -45.789490 -16.936487 0.011297 0.323020 0.892793 -0.313972 0 0
    0 -32.136161 -16.936487 -0.007971 0.196789 0.089949 0.976311 0 0
    0 -44.695810 -16.936487 11.882211 0.257183 -0.964054 0.066754 0 0
  phy
    0 -32.136161 -16.936487 -0.007971 0.196789 0.089949 0.976311 0 0
    0 -44.695810 16.936483 11.882213 -0.186674 -0.848088 0.495883 0 0
    0 -44.695810 -16.936487 11.882211 0.257183 -0.964054 0.066754 0 0
  phy
    0 -32.136161 -16.936487 -0.007971 0.196789 0.089949 0.976311 0 0
    0 -32.136161 16.936483 -0.007969 -0.372532 0.085139 0.924106 0 0
    0 -44.695810 16.936483 11.882213 -0.186674 -0.848088 0.495883 0 0
  phy
    0 -45.789490 16.936483 0.011299 -0.168227 0.929920 -0.327029 0 0
    0 -51.646228 16.936483 6.853223 -0.120579 -0.426646 -0.896345 0 0
    0 -44.695810 16.936483 11.882213 -0.186674 -0.848088 0.495883 0 0
  phy
    0 -45.789490 16.936483 0.011299 -0.168227 0.929920 -0.327029 0 0
    0 -44.695810 16.936483 11.882213 -0.186674 -0.848088 0.495883 0 0
    0 -32.136161 16.936483 -0.007969 -0.372532 0.085139 0.924106 0 0
  phy
    0 -44.695810 16.936483 11.882213 -0.186674 -0.848088 0.495883 0 0
    0 -51.646228 16.936483 6.853223 -0.120579 -0.426646 -0.896345 0 0
    0 -44.695810 -16.936487 11.882211 0.257183 -0.964054 0.066754 0 0
  phy
    0 -44.695810 -16.936487 11.882211 0.257183 -0.964054 0.066754 0 0
    0 -51.646228 16.936483 6.853223 -0.120579 -0.426646 -0.896345 0 0
    0 -51.646228 -16.936487 6.853221 0.116928 0.244977 -0.962452 0 0
end
