// Created by Crowbar 0.74
version 1
nodes
  0 "static_prop" -1
end
skeleton
  time 0
    0 0.000000 0.000000 0.000000 0.000000 0.000000 0.000000
end
triangles
Door_01
  0 -34.216076 -7.971905 0.007416 -0.001579 0.001899 -0.999997 0.175885 0.452352 1 0 1.000000
  0 -32.293308 -8.993882 0.000107 -0.001674 0.004004 -0.999990 0.171900 0.459741 1 0 1.000000
  0 -44.417221 -9.166776 0.000106 0.000239 0.002039 -0.999998 0.171229 0.412552 1 0 1.000000
Door_01
  0 -32.173492 -8.078610 0.000671 -0.003302 0.000000 -0.999994 0.175478 0.460194 1 0 1.000000
  0 -32.293308 -8.993882 0.000107 -0.001674 0.004004 -0.999990 0.171900 0.459741 1 0 1.000000
  0 -34.216076 -7.971905 0.007416 -0.001579 0.001899 -0.999997 0.175885 0.452352 1 0 1.000000
Door_01
  0 -32.293308 8.996056 0.000107 -0.001674 -0.004004 -0.999990 0.241765 0.459741 1 0 1.000000
  0 -32.173492 8.080782 0.000672 -0.003302 0.000000 -0.999994 0.238234 0.460194 1 0 1.000000
  0 -34.216076 7.974079 0.007417 -0.001579 -0.001899 -0.999997 0.237811 0.452352 1 0 1.000000
Door_01
  0 -32.293308 8.996056 0.000107 -0.001674 -0.004004 -0.999990 0.241765 0.459741 1 0 1.000000
  0 -34.216076 7.974079 0.007417 -0.001579 -0.001899 -0.999997 0.237811 0.452352 1 0 1.000000
  0 -44.417221 9.168947 0.000107 0.000239 -0.002039 -0.999998 0.242436 0.412552 1 0 1.000000
Door_01
  0 -34.216076 -7.971905 0.007416 -0.001579 0.001899 -0.999997 0.175885 0.452352 1 0 1.000000
  0 -44.417221 9.168947 0.000107 0.000239 -0.002039 -0.999998 0.242436 0.412552 1 0 1.000000
  0 -34.216076 7.974079 0.007417 -0.001579 -0.001899 -0.999997 0.237811 0.452352 1 0 1.000000
Door_01
  0 -34.216076 -7.971905 0.007416 -0.001579 0.001899 -0.999997 0.175885 0.452352 1 0 1.000000
  0 -44.417221 -9.166776 0.000106 0.000239 0.002039 -0.999998 0.171229 0.412552 1 0 1.000000
  0 -44.417221 9.168947 0.000107 0.000239 -0.002039 -0.999998 0.242436 0.412552 1 0 1.000000
Door_01
  0 -45.767815 8.145735 0.000107 0.000000 0.000000 -1.000000 0.238463 0.407316 1 0 1.000000
  0 -44.417221 9.168947 0.000107 0.000239 -0.002039 -0.999998 0.242436 0.412552 1 0 1.000000
  0 -44.417221 -9.166776 0.000106 0.000239 0.002039 -0.999998 0.171229 0.412552 1 0 1.000000
Door_01
  0 -45.767815 8.145735 0.000107 0.000000 0.000000 -1.000000 0.238463 0.407316 1 0 1.000000
  0 -44.417221 -9.166776 0.000106 0.000239 0.002039 -0.999998 0.171229 0.412552 1 0 1.000000
  0 -45.767815 -8.143563 0.000106 0.000000 0.000000 -1.000000 0.175203 0.407316 1 0 1.000000
Door_01
  0 55.985374 -9.166772 15.853787 0.244064 -0.961752 -0.124358 0.453052 0.648154 1 0 1.000000
  0 44.470150 -9.166772 -0.001632 0.208866 -0.961527 -0.178437 0.410376 0.589393 1 0 1.000000
  0 45.815914 -8.143559 -0.001631 0.731070 -0.274700 -0.624562 0.415364 0.589393 1 0 1.000000
Door_01
  0 55.985374 -9.166772 15.853787 0.244064 -0.961752 -0.124358 0.453052 0.648154 1 0 1.000000
  0 45.815914 -8.143559 -0.001631 0.731070 -0.274700 -0.624562 0.415364 0.589393 1 0 1.000000
  0 56.900013 -8.143559 15.388078 0.856528 -0.275490 -0.436423 0.456442 0.646428 1 0 1.000000
Door_01
  0 55.985374 -9.166772 15.853787 0.244064 -0.961752 -0.124358 0.453052 0.648154 1 0 1.000000
  0 56.900013 -8.143559 15.388078 0.856528 -0.275490 -0.436423 0.456442 0.646428 1 0 1.000000
  0 63.074150 -8.143560 34.390118 0.949469 -0.275490 -0.150381 0.479323 0.716850 1 0 1.000000
Door_01
  0 55.985374 -9.166772 15.853787 0.244064 -0.961752 -0.124358 0.453052 0.648154 1 0 1.000000
  0 63.074150 -8.143560 34.390118 0.949469 -0.275490 -0.150381 0.479323 0.716850 1 0 1.000000
  0 62.060387 -9.166773 34.550529 0.270548 -0.961752 -0.042851 0.475566 0.717444 1 0 1.000000
Door_01
  0 63.074150 -8.143560 34.390118 0.949469 -0.275490 -0.150381 0.479323 0.716850 1 0 1.000000
  0 62.060410 -9.166773 54.209484 0.270548 -0.961752 0.042851 0.475566 0.790301 1 0 1.000000
  0 62.060387 -9.166773 34.550529 0.270548 -0.961752 -0.042851 0.475566 0.717444 1 0 1.000000
Door_01
  0 63.074150 -8.143560 34.390118 0.949469 -0.275490 -0.150381 0.479323 0.716850 1 0 1.000000
  0 63.074150 -8.143560 54.370045 0.949469 -0.275490 0.150381 0.479323 0.790896 1 0 1.000000
  0 62.060410 -9.166773 54.209484 0.270548 -0.961752 0.042851 0.475566 0.790301 1 0 1.000000
Door_01
  0 56.900013 -8.143561 73.372086 0.856528 -0.275490 0.436423 0.456442 0.861318 1 0 1.000000
  0 62.060410 -9.166773 54.209484 0.270548 -0.961752 0.042851 0.475566 0.790301 1 0 1.000000
  0 63.074150 -8.143560 54.370045 0.949469 -0.275490 0.150381 0.479323 0.790896 1 0 1.000000
Door_01
  0 56.900013 -8.143561 73.372086 0.856528 -0.275490 0.436423 0.456442 0.861318 1 0 1.000000
  0 55.985435 -9.166774 72.906258 0.244065 -0.961752 0.124358 0.453052 0.859592 1 0 1.000000
  0 62.060410 -9.166773 54.209484 0.270548 -0.961752 0.042851 0.475566 0.790301 1 0 1.000000
Door_01
  0 55.985435 -9.166774 72.906258 0.244065 -0.961752 0.124358 0.453052 0.859592 1 0 1.000000
  0 56.900013 -8.143561 73.372086 0.856528 -0.275490 0.436423 0.456442 0.861318 1 0 1.000000
  0 45.156105 -8.143563 89.536186 0.679744 -0.275490 0.679745 0.412919 0.921223 1 0 1.000000
Door_01
  0 55.985435 -9.166774 72.906258 0.244065 -0.961752 0.124358 0.453052 0.859592 1 0 1.000000
  0 45.156105 -8.143563 89.536186 0.679744 -0.275490 0.679745 0.412919 0.921223 1 0 1.000000
  0 44.430145 -9.166776 88.810631 0.193690 -0.961752 0.193692 0.410228 0.918534 1 0 1.000000
Door_01
  0 44.430145 -9.166776 88.810631 0.193690 -0.961752 0.193692 0.410228 0.918534 1 0 1.000000
  0 45.156105 -8.143563 89.536186 0.679744 -0.275490 0.679745 0.412919 0.921223 1 0 1.000000
  0 28.992004 -8.143565 101.280090 0.436423 -0.275490 0.856528 0.353014 0.964746 1 0 1.000000
Door_01
  0 44.430145 -9.166776 88.810631 0.193690 -0.961752 0.193692 0.410228 0.918534 1 0 1.000000
  0 28.992004 -8.143565 101.280090 0.436423 -0.275490 0.856528 0.353014 0.964746 1 0 1.000000
  0 28.525688 -9.166778 100.365768 0.124356 -0.961752 0.244066 0.351286 0.961358 1 0 1.000000
Door_01
  0 28.525688 -9.166778 100.365768 0.124356 -0.961752 0.244066 0.351286 0.961358 1 0 1.000000
  0 28.992004 -8.143565 101.280090 0.436423 -0.275490 0.856528 0.353014 0.964746 1 0 1.000000
  0 9.989964 -8.143566 107.454231 0.150381 -0.275489 0.949469 0.282592 0.987628 1 0 1.000000
Door_01
  0 28.525688 -9.166778 100.365768 0.124356 -0.961752 0.244066 0.351286 0.961358 1 0 1.000000
  0 9.989964 -8.143566 107.454231 0.150381 -0.275489 0.949469 0.282592 0.987628 1 0 1.000000
  0 9.828945 -9.166779 106.440567 0.042849 -0.961752 0.270549 0.281995 0.983871 1 0 1.000000
Door_01
  0 9.828945 -9.166779 106.440567 0.042849 -0.961752 0.270549 0.281995 0.983871 1 0 1.000000
  0 9.989964 -8.143566 107.454231 0.150381 -0.275489 0.949469 0.282592 0.987628 1 0 1.000000
  0 -9.989964 -8.143566 107.454231 -0.150382 -0.275489 0.949469 0.208545 0.987628 1 0 1.000000
Door_01
  0 9.828945 -9.166779 106.440567 0.042849 -0.961752 0.270549 0.281995 0.983871 1 0 1.000000
  0 -9.989964 -8.143566 107.454231 -0.150382 -0.275489 0.949469 0.208545 0.987628 1 0 1.000000
  0 -9.829885 -9.166779 106.440414 -0.042852 -0.961752 0.270548 0.209139 0.983871 1 0 1.000000
Door_01
  0 -9.829885 -9.166779 106.440414 -0.042852 -0.961752 0.270548 0.209139 0.983871 1 0 1.000000
  0 -9.989964 -8.143566 107.454231 -0.150382 -0.275489 0.949469 0.208545 0.987628 1 0 1.000000
  0 -28.992004 -8.143567 101.280090 -0.436423 -0.275489 0.856528 0.138123 0.964746 1 0 1.000000
Door_01
  0 -9.829885 -9.166779 106.440414 -0.042852 -0.961752 0.270548 0.209139 0.983871 1 0 1.000000
  0 -28.992004 -8.143567 101.280090 -0.436423 -0.275489 0.856528 0.138123 0.964746 1 0 1.000000
  0 -28.526453 -9.166780 100.365372 -0.124359 -0.961752 0.244065 0.139849 0.961356 1 0 1.000000
Door_01
  0 -28.526453 -9.166780 100.365372 -0.124359 -0.961752 0.244065 0.139849 0.961356 1 0 1.000000
  0 -28.992004 -8.143567 101.280090 -0.436423 -0.275489 0.856528 0.138123 0.964746 1 0 1.000000
  0 -45.156105 -8.143567 89.536186 -0.679745 -0.275489 0.679744 0.078219 0.921223 1 0 1.000000
Door_01
  0 -28.526453 -9.166780 100.365372 -0.124359 -0.961752 0.244065 0.139849 0.961356 1 0 1.000000
  0 -45.156105 -8.143567 89.536186 -0.679745 -0.275489 0.679744 0.078219 0.921223 1 0 1.000000
  0 -44.430626 -9.166780 88.810150 -0.193693 -0.961752 0.193691 0.080907 0.918532 1 0 1.000000
Door_01
  0 -56.900013 -8.143567 73.372086 -0.856528 -0.275489 0.436423 0.034695 0.861318 1 0 1.000000
  0 -44.430626 -9.166780 88.810150 -0.193693 -0.961752 0.193691 0.080907 0.918532 1 0 1.000000
  0 -45.156105 -8.143567 89.536186 -0.679745 -0.275489 0.679744 0.078219 0.921223 1 0 1.000000
Door_01
  0 -56.900013 -8.143567 73.372086 -0.856528 -0.275489 0.436423 0.034695 0.861318 1 0 1.000000
  0 -55.985634 -9.166780 72.905869 -0.244066 -0.961752 0.124357 0.038084 0.859590 1 0 1.000000
  0 -44.430626 -9.166780 88.810150 -0.193693 -0.961752 0.193691 0.080907 0.918532 1 0 1.000000
Door_01
  0 -55.985634 -9.166780 72.905869 -0.244066 -0.961752 0.124357 0.038084 0.859590 1 0 1.000000
  0 -56.900013 -8.143567 73.372086 -0.856528 -0.275489 0.436423 0.034695 0.861318 1 0 1.000000
  0 -63.074150 -8.143566 54.370045 -0.949469 -0.275489 0.150381 0.011814 0.790896 1 0 1.000000
Door_01
  0 -55.985634 -9.166780 72.905869 -0.244066 -0.961752 0.124357 0.038084 0.859590 1 0 1.000000
  0 -63.074150 -8.143566 54.370045 -0.949469 -0.275489 0.150381 0.011814 0.790896 1 0 1.000000
  0 -62.060432 -9.166779 54.209335 -0.270549 -0.961752 0.042850 0.015571 0.790300 1 0 1.000000
Door_01
  0 -62.060432 -9.166779 54.209335 -0.270549 -0.961752 0.042850 0.015571 0.790300 1 0 1.000000
  0 -63.074150 -8.143566 54.370045 -0.949469 -0.275489 0.150381 0.011814 0.790896 1 0 1.000000
  0 -63.074150 -8.143566 34.390118 -0.949469 -0.275488 -0.150381 0.011814 0.716850 1 0 1.000000
Door_01
  0 -62.060432 -9.166779 54.209335 -0.270549 -0.961752 0.042850 0.015571 0.790300 1 0 1.000000
  0 -63.074150 -8.143566 34.390118 -0.949469 -0.275488 -0.150381 0.011814 0.716850 1 0 1.000000
  0 -62.060410 -9.166779 34.550678 -0.270549 -0.961752 -0.042851 0.015571 0.717445 1 0 1.000000
Door_01
  0 -62.060410 -9.166779 34.550678 -0.270549 -0.961752 -0.042851 0.015571 0.717445 1 0 1.000000
  0 -63.074150 -8.143566 34.390118 -0.949469 -0.275488 -0.150381 0.011814 0.716850 1 0 1.000000
  0 -56.900013 -8.143565 15.388078 -0.856526 -0.275499 -0.436422 0.034695 0.646428 1 0 1.000000
Door_01
  0 -62.060410 -9.166779 34.550678 -0.270549 -0.961752 -0.042851 0.015571 0.717445 1 0 1.000000
  0 -56.900013 -8.143565 15.388078 -0.856526 -0.275499 -0.436422 0.034695 0.646428 1 0 1.000000
  0 -55.985573 -9.166778 15.854177 -0.244056 -0.961755 -0.124353 0.038084 0.648155 1 0 1.000000
Door_01
  0 -55.985573 -9.166778 15.854177 -0.244056 -0.961755 -0.124353 0.038084 0.648155 1 0 1.000000
  0 -56.900013 -8.143565 15.388078 -0.856526 -0.275499 -0.436422 0.034695 0.646428 1 0 1.000000
  0 -45.767815 -8.143563 0.000106 -0.728459 -0.274684 -0.627611 0.075952 0.589399 1 0 1.000000
Door_01
  0 -55.985573 -9.166778 15.854177 -0.244056 -0.961755 -0.124353 0.038084 0.648155 1 0 1.000000
  0 -45.767815 -8.143563 0.000106 -0.728459 -0.274684 -0.627611 0.075952 0.589399 1 0 1.000000
  0 -44.417221 -9.166776 0.000106 -0.208130 -0.961523 -0.179321 0.080957 0.589399 1 0 1.000000
Door_01
  0 32.170582 8.080784 -0.002058 -0.002521 0.000000 -0.999997 0.175478 0.460194 1 0 1.000000
  0 32.291763 8.996058 -0.001630 -0.001276 0.002998 -0.999995 0.171900 0.459741 1 0 1.000000
  0 34.163635 7.974082 -0.007083 -0.000878 0.001779 -0.999998 0.175885 0.452352 1 0 1.000000
Door_01
  0 32.291763 8.996058 -0.001630 -0.001276 0.002998 -0.999995 0.171900 0.459741 1 0 1.000000
  0 44.470150 9.168951 -0.001631 0.000176 0.001521 -0.999999 0.171229 0.412552 1 0 1.000000
  0 34.163635 7.974082 -0.007083 -0.000878 0.001779 -0.999998 0.175885 0.452352 1 0 1.000000
Door_01
  0 32.170582 -8.078609 -0.002059 -0.002521 0.000000 -0.999997 0.238234 0.460194 1 0 1.000000
  0 34.163635 -7.971902 -0.007083 -0.000878 -0.001779 -0.999998 0.237811 0.452352 1 0 1.000000
  0 32.291763 -8.993880 -0.001631 -0.001276 -0.002997 -0.999995 0.241765 0.459741 1 0 1.000000
Door_01
  0 44.470150 -9.166772 -0.001632 0.000176 -0.001521 -0.999999 0.242436 0.412552 1 0 1.000000
  0 32.291763 -8.993880 -0.001631 -0.001276 -0.002997 -0.999995 0.241765 0.459741 1 0 1.000000
  0 34.163635 -7.971902 -0.007083 -0.000878 -0.001779 -0.999998 0.237811 0.452352 1 0 1.000000
Door_01
  0 34.163635 7.974082 -0.007083 -0.000878 0.001779 -0.999998 0.175885 0.452352 1 0 1.000000
  0 44.470150 -9.166772 -0.001632 0.000176 -0.001521 -0.999999 0.242436 0.412552 1 0 1.000000
  0 34.163635 -7.971902 -0.007083 -0.000878 -0.001779 -0.999998 0.237811 0.452352 1 0 1.000000
Door_01
  0 34.163635 7.974082 -0.007083 -0.000878 0.001779 -0.999998 0.175885 0.452352 1 0 1.000000
  0 44.470150 9.168951 -0.001631 0.000176 0.001521 -0.999999 0.171229 0.412552 1 0 1.000000
  0 44.470150 -9.166772 -0.001632 0.000176 -0.001521 -0.999999 0.242436 0.412552 1 0 1.000000
Door_01
  0 45.815914 8.145739 -0.001631 0.000000 0.000000 -1.000000 0.175203 0.407316 1 0 1.000000
  0 44.470150 -9.166772 -0.001632 0.000176 -0.001521 -0.999999 0.242436 0.412552 1 0 1.000000
  0 44.470150 9.168951 -0.001631 0.000176 0.001521 -0.999999 0.171229 0.412552 1 0 1.000000
Door_01
  0 45.815914 8.145739 -0.001631 0.000000 0.000000 -1.000000 0.175203 0.407316 1 0 1.000000
  0 45.815914 -8.143559 -0.001631 0.000000 0.000000 -1.000000 0.238463 0.407316 1 0 1.000000
  0 44.470150 -9.166772 -0.001632 0.000176 -0.001521 -0.999999 0.242436 0.412552 1 0 1.000000
Door_01
  0 55.985374 9.168951 15.853787 0.244064 0.961752 -0.124358 0.453052 0.648154 1 0 1.000000
  0 45.815914 8.145739 -0.001631 0.731070 0.274700 -0.624562 0.415364 0.589393 1 0 1.000000
  0 44.470150 9.168951 -0.001631 0.208866 0.961527 -0.178437 0.410376 0.589393 1 0 1.000000
Door_01
  0 55.985374 9.168951 15.853787 0.244064 0.961752 -0.124358 0.453052 0.648154 1 0 1.000000
  0 56.900013 8.145739 15.388078 0.856528 0.275490 -0.436423 0.456442 0.646428 1 0 1.000000
  0 45.815914 8.145739 -0.001631 0.731070 0.274700 -0.624562 0.415364 0.589393 1 0 1.000000
Door_01
  0 62.060387 9.168950 34.550529 0.270548 0.961752 -0.042851 0.475566 0.717444 1 0 1.000000
  0 56.900013 8.145739 15.388078 0.856528 0.275490 -0.436423 0.456442 0.646428 1 0 1.000000
  0 55.985374 9.168951 15.853787 0.244064 0.961752 -0.124358 0.453052 0.648154 1 0 1.000000
Door_01
  0 62.060387 9.168950 34.550529 0.270548 0.961752 -0.042851 0.475566 0.717444 1 0 1.000000
  0 63.074150 8.145738 34.390118 0.949469 0.275490 -0.150381 0.479323 0.716850 1 0 1.000000
  0 56.900013 8.145739 15.388078 0.856528 0.275490 -0.436423 0.456442 0.646428 1 0 1.000000
Door_01
  0 62.060387 9.168950 34.550529 0.270548 0.961752 -0.042851 0.475566 0.717444 1 0 1.000000
  0 63.074150 8.145738 54.370045 0.949469 0.275490 0.150381 0.479323 0.790896 1 0 1.000000
  0 63.074150 8.145738 34.390118 0.949469 0.275490 -0.150381 0.479323 0.716850 1 0 1.000000
Door_01
  0 62.060387 9.168950 34.550529 0.270548 0.961752 -0.042851 0.475566 0.717444 1 0 1.000000
  0 62.060410 9.168950 54.209484 0.270548 0.961752 0.042851 0.475566 0.790301 1 0 1.000000
  0 63.074150 8.145738 54.370045 0.949469 0.275490 0.150381 0.479323 0.790896 1 0 1.000000
Door_01
  0 55.985435 9.168949 72.906258 0.244065 0.961752 0.124358 0.453052 0.859592 1 0 1.000000
  0 63.074150 8.145738 54.370045 0.949469 0.275490 0.150381 0.479323 0.790896 1 0 1.000000
  0 62.060410 9.168950 54.209484 0.270548 0.961752 0.042851 0.475566 0.790301 1 0 1.000000
Door_01
  0 55.985435 9.168949 72.906258 0.244065 0.961752 0.124358 0.453052 0.859592 1 0 1.000000
  0 56.900013 8.145737 73.372086 0.856528 0.275490 0.436423 0.456442 0.861318 1 0 1.000000
  0 63.074150 8.145738 54.370045 0.949469 0.275490 0.150381 0.479323 0.790896 1 0 1.000000
Door_01
  0 45.156105 8.145735 89.536186 0.679744 0.275490 0.679745 0.412919 0.921223 1 0 1.000000
  0 56.900013 8.145737 73.372086 0.856528 0.275490 0.436423 0.456442 0.861318 1 0 1.000000
  0 55.985435 9.168949 72.906258 0.244065 0.961752 0.124358 0.453052 0.859592 1 0 1.000000
Door_01
  0 45.156105 8.145735 89.536186 0.679744 0.275490 0.679745 0.412919 0.921223 1 0 1.000000
  0 55.985435 9.168949 72.906258 0.244065 0.961752 0.124358 0.453052 0.859592 1 0 1.000000
  0 44.430145 9.168947 88.810631 0.193690 0.961752 0.193692 0.410228 0.918534 1 0 1.000000
Door_01
  0 44.430145 9.168947 88.810631 0.193690 0.961752 0.193692 0.410228 0.918534 1 0 1.000000
  0 28.992004 8.145733 101.280090 0.436423 0.275490 0.856528 0.353014 0.964746 1 0 1.000000
  0 45.156105 8.145735 89.536186 0.679744 0.275490 0.679745 0.412919 0.921223 1 0 1.000000
Door_01
  0 44.430145 9.168947 88.810631 0.193690 0.961752 0.193692 0.410228 0.918534 1 0 1.000000
  0 28.525688 9.168945 100.365768 0.124356 0.961752 0.244066 0.351286 0.961358 1 0 1.000000
  0 28.992004 8.145733 101.280090 0.436423 0.275490 0.856528 0.353014 0.964746 1 0 1.000000
Door_01
  0 9.828945 9.168944 106.440567 0.042849 0.961752 0.270549 0.281995 0.983871 1 0 1.000000
  0 28.992004 8.145733 101.280090 0.436423 0.275490 0.856528 0.353014 0.964746 1 0 1.000000
  0 28.525688 9.168945 100.365768 0.124356 0.961752 0.244066 0.351286 0.961358 1 0 1.000000
Door_01
  0 9.828945 9.168944 106.440567 0.042849 0.961752 0.270549 0.281995 0.983871 1 0 1.000000
  0 9.989964 8.145732 107.454231 0.150381 0.275489 0.949469 0.282592 0.987628 1 0 1.000000
  0 28.992004 8.145733 101.280090 0.436423 0.275490 0.856528 0.353014 0.964746 1 0 1.000000
Door_01
  0 -9.829885 9.168944 106.440414 -0.042852 0.961752 0.270548 0.209139 0.983871 1 0 1.000000
  0 9.989964 8.145732 107.454231 0.150381 0.275489 0.949469 0.282592 0.987628 1 0 1.000000
  0 9.828945 9.168944 106.440567 0.042849 0.961752 0.270549 0.281995 0.983871 1 0 1.000000
Door_01
  0 -9.829885 9.168944 106.440414 -0.042852 0.961752 0.270548 0.209139 0.983871 1 0 1.000000
  0 -9.989964 8.145732 107.454231 -0.150382 0.275489 0.949469 0.208545 0.987628 1 0 1.000000
  0 9.989964 8.145732 107.454231 0.150381 0.275489 0.949469 0.282592 0.987628 1 0 1.000000
Door_01
  0 -28.526453 9.168943 100.365372 -0.124359 0.961752 0.244065 0.139849 0.961356 1 0 1.000000
  0 -9.989964 8.145732 107.454231 -0.150382 0.275489 0.949469 0.208545 0.987628 1 0 1.000000
  0 -9.829885 9.168944 106.440414 -0.042852 0.961752 0.270548 0.209139 0.983871 1 0 1.000000
Door_01
  0 -28.526453 9.168943 100.365372 -0.124359 0.961752 0.244065 0.139849 0.961356 1 0 1.000000
  0 -28.992004 8.145731 101.280090 -0.436423 0.275489 0.856528 0.138123 0.964746 1 0 1.000000
  0 -9.989964 8.145732 107.454231 -0.150382 0.275489 0.949469 0.208545 0.987628 1 0 1.000000
Door_01
  0 -45.156105 8.145731 89.536186 -0.679745 0.275489 0.679744 0.078219 0.921223 1 0 1.000000
  0 -28.992004 8.145731 101.280090 -0.436423 0.275489 0.856528 0.138123 0.964746 1 0 1.000000
  0 -28.526453 9.168943 100.365372 -0.124359 0.961752 0.244065 0.139849 0.961356 1 0 1.000000
Door_01
  0 -45.156105 8.145731 89.536186 -0.679745 0.275489 0.679744 0.078219 0.921223 1 0 1.000000
  0 -28.526453 9.168943 100.365372 -0.124359 0.961752 0.244065 0.139849 0.961356 1 0 1.000000
  0 -44.430626 9.168943 88.810150 -0.193693 0.961752 0.193691 0.080907 0.918532 1 0 1.000000
Door_01
  0 -45.156105 8.145731 89.536186 -0.679745 0.275489 0.679744 0.078219 0.921223 1 0 1.000000
  0 -44.430626 9.168943 88.810150 -0.193693 0.961752 0.193691 0.080907 0.918532 1 0 1.000000
  0 -55.985634 9.168943 72.905869 -0.244066 0.961752 0.124357 0.038084 0.859590 1 0 1.000000
Door_01
  0 -45.156105 8.145731 89.536186 -0.679745 0.275489 0.679744 0.078219 0.921223 1 0 1.000000
  0 -55.985634 9.168943 72.905869 -0.244066 0.961752 0.124357 0.038084 0.859590 1 0 1.000000
  0 -56.900013 8.145731 73.372086 -0.856528 0.275489 0.436423 0.034695 0.861318 1 0 1.000000
Door_01
  0 -62.060432 9.168944 54.209335 -0.270549 0.961752 0.042850 0.015571 0.790300 1 0 1.000000
  0 -56.900013 8.145731 73.372086 -0.856528 0.275489 0.436423 0.034695 0.861318 1 0 1.000000
  0 -55.985634 9.168943 72.905869 -0.244066 0.961752 0.124357 0.038084 0.859590 1 0 1.000000
Door_01
  0 -62.060432 9.168944 54.209335 -0.270549 0.961752 0.042850 0.015571 0.790300 1 0 1.000000
  0 -63.074150 8.145732 54.370045 -0.949469 0.275489 0.150381 0.011814 0.790896 1 0 1.000000
  0 -56.900013 8.145731 73.372086 -0.856528 0.275489 0.436423 0.034695 0.861318 1 0 1.000000
Door_01
  0 -62.060432 9.168944 54.209335 -0.270549 0.961752 0.042850 0.015571 0.790300 1 0 1.000000
  0 -63.074150 8.145732 34.390118 -0.949469 0.275488 -0.150381 0.011814 0.716850 1 0 1.000000
  0 -63.074150 8.145732 54.370045 -0.949469 0.275489 0.150381 0.011814 0.790896 1 0 1.000000
Door_01
  0 -62.060432 9.168944 54.209335 -0.270549 0.961752 0.042850 0.015571 0.790300 1 0 1.000000
  0 -62.060410 9.168944 34.550678 -0.270549 0.961752 -0.042851 0.015571 0.717445 1 0 1.000000
  0 -63.074150 8.145732 34.390118 -0.949469 0.275488 -0.150381 0.011814 0.716850 1 0 1.000000
Door_01
  0 -63.074150 8.145732 34.390118 -0.949469 0.275488 -0.150381 0.011814 0.716850 1 0 1.000000
  0 -62.060410 9.168944 34.550678 -0.270549 0.961752 -0.042851 0.015571 0.717445 1 0 1.000000
  0 -55.985573 9.168945 15.854177 -0.244056 0.961755 -0.124353 0.038084 0.648155 1 0 1.000000
Door_01
  0 -63.074150 8.145732 34.390118 -0.949469 0.275488 -0.150381 0.011814 0.716850 1 0 1.000000
  0 -55.985573 9.168945 15.854177 -0.244056 0.961755 -0.124353 0.038084 0.648155 1 0 1.000000
  0 -56.900013 8.145733 15.388078 -0.856526 0.275499 -0.436422 0.034695 0.646428 1 0 1.000000
Door_01
  0 -56.900013 8.145733 15.388078 -0.856526 0.275499 -0.436422 0.034695 0.646428 1 0 1.000000
  0 -55.985573 9.168945 15.854177 -0.244056 0.961755 -0.124353 0.038084 0.648155 1 0 1.000000
  0 -44.417221 9.168947 0.000107 -0.208130 0.961523 -0.179321 0.080957 0.589399 1 0 1.000000
Door_01
  0 -56.900013 8.145733 15.388078 -0.856526 0.275499 -0.436422 0.034695 0.646428 1 0 1.000000
  0 -44.417221 9.168947 0.000107 -0.208130 0.961523 -0.179321 0.080957 0.589399 1 0 1.000000
  0 -45.767815 8.145735 0.000107 -0.728459 0.274684 -0.627611 0.075952 0.589399 1 0 1.000000
Door_01
  0 -28.992004 8.145731 101.280090 -0.453991 0.000000 0.891006 0.612021 0.091938 1 0 1.000000
  0 -45.156105 -8.143567 89.536186 -0.707107 0.000000 0.707107 0.683292 0.139618 1 0 1.000000
  0 -28.992004 -8.143567 101.280090 -0.453991 0.000000 0.891006 0.612021 0.139618 1 0 1.000000
Door_01
  0 -28.992004 8.145731 101.280090 -0.453991 0.000000 0.891006 0.612021 0.091938 1 0 1.000000
  0 -45.156105 8.145731 89.536186 -0.707107 0.000000 0.707107 0.683292 0.091938 1 0 1.000000
  0 -45.156105 -8.143567 89.536186 -0.707107 0.000000 0.707107 0.683292 0.139618 1 0 1.000000
Door_01
  0 -45.156105 -8.143567 89.536186 -0.707107 0.000000 0.707107 0.683292 0.139618 1 0 1.000000
  0 -45.156105 8.145731 89.536186 -0.707107 0.000000 0.707107 0.683292 0.091938 1 0 1.000000
  0 -56.900013 8.145731 73.372086 -0.891006 0.000000 0.453991 0.751415 0.091938 1 0 1.000000
Door_01
  0 -45.156105 -8.143567 89.536186 -0.707107 0.000000 0.707107 0.683292 0.139618 1 0 1.000000
  0 -56.900013 8.145731 73.372086 -0.891006 0.000000 0.453991 0.751415 0.091938 1 0 1.000000
  0 -56.900013 -8.143567 73.372086 -0.891006 0.000000 0.453991 0.751415 0.139618 1 0 1.000000
Door_01
  0 -63.074150 -8.143566 54.370045 -0.987688 0.000000 0.156434 0.816212 0.139618 1 0 1.000000
  0 -56.900013 -8.143567 73.372086 -0.891006 0.000000 0.453991 0.751415 0.139618 1 0 1.000000
  0 -56.900013 8.145731 73.372086 -0.891006 0.000000 0.453991 0.751415 0.091938 1 0 1.000000
Door_01
  0 -63.074150 -8.143566 54.370045 -0.987688 0.000000 0.156434 0.816212 0.139618 1 0 1.000000
  0 -56.900013 8.145731 73.372086 -0.891006 0.000000 0.453991 0.751415 0.091938 1 0 1.000000
  0 -63.074150 8.145732 54.370045 -0.987688 0.000000 0.156434 0.816212 0.091938 1 0 1.000000
Door_01
  0 -63.074150 8.145732 54.370045 -0.987688 0.000000 0.156434 0.816212 0.091938 1 0 1.000000
  0 -63.074150 -8.143566 34.390118 -0.987688 0.000000 -0.156434 0.877960 0.139618 1 0 1.000000
  0 -63.074150 -8.143566 54.370045 -0.987688 0.000000 0.156434 0.816212 0.139618 1 0 1.000000
Door_01
  0 -63.074150 8.145732 54.370045 -0.987688 0.000000 0.156434 0.816212 0.091938 1 0 1.000000
  0 -63.074150 8.145732 34.390118 -0.987688 0.000000 -0.156434 0.877960 0.091938 1 0 1.000000
  0 -63.074150 -8.143566 34.390118 -0.987688 0.000000 -0.156434 0.877960 0.139618 1 0 1.000000
Door_01
  0 -56.900013 -8.143565 15.388078 -0.891006 0.000000 -0.453991 0.937168 0.139618 1 0 1.000000
  0 -63.074150 -8.143566 34.390118 -0.987688 0.000000 -0.156434 0.877960 0.139618 1 0 1.000000
  0 -63.074150 8.145732 34.390118 -0.987688 0.000000 -0.156434 0.877960 0.091938 1 0 1.000000
Door_01
  0 -56.900013 -8.143565 15.388078 -0.891006 0.000000 -0.453991 0.937168 0.139618 1 0 1.000000
  0 -63.074150 8.145732 34.390118 -0.987688 0.000000 -0.156434 0.877960 0.091938 1 0 1.000000
  0 -56.900013 8.145733 15.388078 -0.891006 0.000000 -0.453991 0.937168 0.091938 1 0 1.000000
Door_01
  0 -45.767815 -8.143563 0.000106 -0.757602 0.000000 -0.652717 0.991686 0.139618 1 0 1.000000
  0 -56.900013 -8.143565 15.388078 -0.891006 0.000000 -0.453991 0.937168 0.139618 1 0 1.000000
  0 -56.900013 8.145733 15.388078 -0.891006 0.000000 -0.453991 0.937168 0.091938 1 0 1.000000
Door_01
  0 -45.767815 -8.143563 0.000106 -0.757602 0.000000 -0.652717 0.991686 0.139618 1 0 1.000000
  0 -56.900013 8.145733 15.388078 -0.891006 0.000000 -0.453991 0.937168 0.091938 1 0 1.000000
  0 -45.767815 8.145735 0.000107 -0.757602 0.000000 -0.652717 0.991686 0.091938 1 0 1.000000
Door_01
  0 56.900013 -8.143559 15.388078 0.891006 0.000000 -0.453991 0.065184 0.139618 1 0 1.000000
  0 45.815914 -8.143559 -0.001631 0.760319 0.000000 -0.649550 0.010768 0.139618 1 0 1.000000
  0 45.815914 8.145739 -0.001631 0.760319 0.000000 -0.649550 0.010768 0.091938 1 0 1.000000
Door_01
  0 56.900013 -8.143559 15.388078 0.891006 0.000000 -0.453991 0.065184 0.139618 1 0 1.000000
  0 45.815914 8.145739 -0.001631 0.760319 0.000000 -0.649550 0.010768 0.091938 1 0 1.000000
  0 56.900013 8.145739 15.388078 0.891006 0.000000 -0.453991 0.065184 0.091938 1 0 1.000000
Door_01
  0 63.074150 -8.143560 34.390118 0.987688 0.000000 -0.156434 0.124392 0.139618 1 0 1.000000
  0 56.900013 -8.143559 15.388078 0.891006 0.000000 -0.453991 0.065184 0.139618 1 0 1.000000
  0 56.900013 8.145739 15.388078 0.891006 0.000000 -0.453991 0.065184 0.091938 1 0 1.000000
Door_01
  0 63.074150 -8.143560 34.390118 0.987688 0.000000 -0.156434 0.124392 0.139618 1 0 1.000000
  0 56.900013 8.145739 15.388078 0.891006 0.000000 -0.453991 0.065184 0.091938 1 0 1.000000
  0 63.074150 8.145738 34.390118 0.987688 0.000000 -0.156434 0.124392 0.091938 1 0 1.000000
Door_01
  0 63.074150 -8.143560 54.370045 0.987688 0.000000 0.156434 0.186140 0.139618 1 0 1.000000
  0 63.074150 -8.143560 34.390118 0.987688 0.000000 -0.156434 0.124392 0.139618 1 0 1.000000
  0 63.074150 8.145738 34.390118 0.987688 0.000000 -0.156434 0.124392 0.091938 1 0 1.000000
Door_01
  0 63.074150 -8.143560 54.370045 0.987688 0.000000 0.156434 0.186140 0.139618 1 0 1.000000
  0 63.074150 8.145738 34.390118 0.987688 0.000000 -0.156434 0.124392 0.091938 1 0 1.000000
  0 63.074150 8.145738 54.370045 0.987688 0.000000 0.156434 0.186140 0.091938 1 0 1.000000
Door_01
  0 56.900013 -8.143561 73.372086 0.891006 0.000000 0.453991 0.250937 0.139618 1 0 1.000000
  0 63.074150 -8.143560 54.370045 0.987688 0.000000 0.156434 0.186140 0.139618 1 0 1.000000
  0 63.074150 8.145738 54.370045 0.987688 0.000000 0.156434 0.186140 0.091938 1 0 1.000000
Door_01
  0 56.900013 -8.143561 73.372086 0.891006 0.000000 0.453991 0.250937 0.139618 1 0 1.000000
  0 63.074150 8.145738 54.370045 0.987688 0.000000 0.156434 0.186140 0.091938 1 0 1.000000
  0 56.900013 8.145737 73.372086 0.891006 0.000000 0.453991 0.250937 0.091938 1 0 1.000000
Door_01
  0 56.900013 8.145737 73.372086 0.891006 0.000000 0.453991 0.250937 0.091938 1 0 1.000000
  0 45.156105 -8.143563 89.536186 0.707107 0.000000 0.707107 0.319061 0.139618 1 0 1.000000
  0 56.900013 -8.143561 73.372086 0.891006 0.000000 0.453991 0.250937 0.139618 1 0 1.000000
Door_01
  0 56.900013 8.145737 73.372086 0.891006 0.000000 0.453991 0.250937 0.091938 1 0 1.000000
  0 45.156105 8.145735 89.536186 0.707107 0.000000 0.707107 0.319061 0.091938 1 0 1.000000
  0 45.156105 -8.143563 89.536186 0.707107 0.000000 0.707107 0.319061 0.139618 1 0 1.000000
Door_01
  0 28.992004 -8.143565 101.280090 0.453991 0.000000 0.891006 0.390332 0.139618 1 0 1.000000
  0 45.156105 -8.143563 89.536186 0.707107 0.000000 0.707107 0.319061 0.139618 1 0 1.000000
  0 45.156105 8.145735 89.536186 0.707107 0.000000 0.707107 0.319061 0.091938 1 0 1.000000
Door_01
  0 28.992004 -8.143565 101.280090 0.453991 0.000000 0.891006 0.390332 0.139618 1 0 1.000000
  0 45.156105 8.145735 89.536186 0.707107 0.000000 0.707107 0.319061 0.091938 1 0 1.000000
  0 28.992004 8.145733 101.280090 0.453991 0.000000 0.891006 0.390332 0.091938 1 0 1.000000
Door_01
  0 9.989964 -8.143566 107.454231 0.156434 0.000000 0.987688 0.463923 0.139618 1 0 1.000000
  0 28.992004 -8.143565 101.280090 0.453991 0.000000 0.891006 0.390332 0.139618 1 0 1.000000
  0 28.992004 8.145733 101.280090 0.453991 0.000000 0.891006 0.390332 0.091938 1 0 1.000000
Door_01
  0 9.989964 -8.143566 107.454231 0.156434 0.000000 0.987688 0.463923 0.139618 1 0 1.000000
  0 28.992004 8.145733 101.280090 0.453991 0.000000 0.891006 0.390332 0.091938 1 0 1.000000
  0 9.989964 8.145732 107.454231 0.156434 0.000000 0.987688 0.463923 0.091938 1 0 1.000000
Door_01
  0 9.989964 8.145732 107.454231 0.156434 0.000000 0.987688 0.463923 0.091938 1 0 1.000000
  0 -9.989964 -8.143566 107.454231 -0.156434 0.000000 0.987688 0.538430 0.139618 1 0 1.000000
  0 9.989964 -8.143566 107.454231 0.156434 0.000000 0.987688 0.463923 0.139618 1 0 1.000000
Door_01
  0 9.989964 8.145732 107.454231 0.156434 0.000000 0.987688 0.463923 0.091938 1 0 1.000000
  0 -9.989964 8.145732 107.454231 -0.156434 0.000000 0.987688 0.538430 0.091938 1 0 1.000000
  0 -9.989964 -8.143566 107.454231 -0.156434 0.000000 0.987688 0.538430 0.139618 1 0 1.000000
Door_01
  0 -9.989964 8.145732 107.454231 -0.156434 0.000000 0.987688 0.538430 0.091938 1 0 1.000000
  0 -28.992004 -8.143567 101.280090 -0.453991 0.000000 0.891006 0.612021 0.139618 1 0 1.000000
  0 -9.989964 -8.143566 107.454231 -0.156434 0.000000 0.987688 0.538430 0.139618 1 0 1.000000
Door_01
  0 -9.989964 8.145732 107.454231 -0.156434 0.000000 0.987688 0.538430 0.091938 1 0 1.000000
  0 -28.992004 8.145731 101.280090 -0.453991 0.000000 0.891006 0.612021 0.091938 1 0 1.000000
  0 -28.992004 -8.143567 101.280090 -0.453991 0.000000 0.891006 0.612021 0.139618 1 0 1.000000
Door_01
  0 -32.293308 -8.993882 0.000107 0.014257 -0.999741 0.017752 0.125889 0.589399 1 0 1.000000
  0 -38.998386 -8.993883 5.385064 0.016358 -0.999744 0.015597 0.101536 0.609853 1 0 1.000000
  0 -44.417221 -9.166776 0.000106 0.000000 -1.000000 0.000000 0.080957 0.589399 1 0 1.000000
Door_01
  0 -44.417221 -9.166776 0.000106 0.000000 -1.000000 0.000000 0.080957 0.589399 1 0 1.000000
  0 -38.998386 -8.993883 5.385064 0.016358 -0.999744 0.015597 0.101536 0.609853 1 0 1.000000
  0 -49.139793 -8.993884 19.343512 0.020061 -0.999746 0.010240 0.064081 0.661405 1 0 1.000000
Door_01
  0 -44.417221 -9.166776 0.000106 0.000000 -1.000000 0.000000 0.080957 0.589399 1 0 1.000000
  0 -49.139793 -8.993884 19.343512 0.020061 -0.999746 0.010240 0.064081 0.661405 1 0 1.000000
  0 -55.985573 -9.166778 15.854177 0.000000 -1.000000 0.000000 0.038084 0.648155 1 0 1.000000
Door_01
  0 -54.471447 -8.993885 35.752651 0.022219 -0.999747 0.003519 0.044389 0.722009 1 0 1.000000
  0 -55.985573 -9.166778 15.854177 0.000000 -1.000000 0.000000 0.038084 0.648155 1 0 1.000000
  0 -49.139793 -8.993884 19.343512 0.020061 -0.999746 0.010240 0.064081 0.661405 1 0 1.000000
Door_01
  0 -54.471447 -8.993885 35.752651 0.022219 -0.999747 0.003519 0.044389 0.722009 1 0 1.000000
  0 -62.060410 -9.166779 34.550678 0.000000 -1.000000 0.000000 0.015571 0.717445 1 0 1.000000
  0 -55.985573 -9.166778 15.854177 0.000000 -1.000000 0.000000 0.038084 0.648155 1 0 1.000000
Door_01
  0 -54.471447 -8.993885 53.006241 0.022218 -0.999747 -0.003519 0.044389 0.785732 1 0 1.000000
  0 -62.060410 -9.166779 34.550678 0.000000 -1.000000 0.000000 0.015571 0.717445 1 0 1.000000
  0 -54.471447 -8.993885 35.752651 0.022219 -0.999747 0.003519 0.044389 0.722009 1 0 1.000000
Door_01
  0 -54.471447 -8.993885 53.006241 0.022218 -0.999747 -0.003519 0.044389 0.785732 1 0 1.000000
  0 -62.060432 -9.166779 54.209335 0.000000 -1.000000 0.000000 0.015571 0.790300 1 0 1.000000
  0 -62.060410 -9.166779 34.550678 0.000000 -1.000000 0.000000 0.015571 0.717445 1 0 1.000000
Door_01
  0 -55.985634 -9.166780 72.905869 0.000000 -1.000000 0.000000 0.038084 0.859590 1 0 1.000000
  0 -62.060432 -9.166779 54.209335 0.000000 -1.000000 0.000000 0.015571 0.790300 1 0 1.000000
  0 -54.471447 -8.993885 53.006241 0.022218 -0.999747 -0.003519 0.044389 0.785732 1 0 1.000000
Door_01
  0 -55.985634 -9.166780 72.905869 0.000000 -1.000000 0.000000 0.038084 0.859590 1 0 1.000000
  0 -54.471447 -8.993885 53.006241 0.022218 -0.999747 -0.003519 0.044389 0.785732 1 0 1.000000
  0 -49.139793 -8.993886 69.415382 0.020042 -0.999747 -0.010212 0.064081 0.846336 1 0 1.000000
Door_01
  0 -49.139793 -8.993886 69.415382 0.020042 -0.999747 -0.010212 0.064081 0.846336 1 0 1.000000
  0 -44.430626 -9.166780 88.810150 0.000000 -1.000000 0.000000 0.080907 0.918532 1 0 1.000000
  0 -55.985634 -9.166780 72.905869 0.000000 -1.000000 0.000000 0.038084 0.859590 1 0 1.000000
Door_01
  0 -49.139793 -8.993886 69.415382 0.020042 -0.999747 -0.010212 0.064081 0.846336 1 0 1.000000
  0 -38.998386 -8.993887 83.373833 0.015904 -0.999747 -0.015903 0.101536 0.897889 1 0 1.000000
  0 -44.430626 -9.166780 88.810150 0.000000 -1.000000 0.000000 0.080907 0.918532 1 0 1.000000
Door_01
  0 -44.430626 -9.166780 88.810150 0.000000 -1.000000 0.000000 0.080907 0.918532 1 0 1.000000
  0 -38.998386 -8.993887 83.373833 0.015904 -0.999747 -0.015903 0.101536 0.897889 1 0 1.000000
  0 -25.039938 -8.993886 93.515236 0.010210 -0.999747 -0.020037 0.153089 0.935344 1 0 1.000000
Door_01
  0 -44.430626 -9.166780 88.810150 0.000000 -1.000000 0.000000 0.080907 0.918532 1 0 1.000000
  0 -25.039938 -8.993886 93.515236 0.010210 -0.999747 -0.020037 0.153089 0.935344 1 0 1.000000
  0 -28.526453 -9.166780 100.365372 0.000000 -1.000000 0.000000 0.139849 0.961356 1 0 1.000000
Door_01
  0 -28.526453 -9.166780 100.365372 0.000000 -1.000000 0.000000 0.139849 0.961356 1 0 1.000000
  0 -25.039938 -8.993886 93.515236 0.010210 -0.999747 -0.020037 0.153089 0.935344 1 0 1.000000
  0 -8.630798 -8.993886 98.846893 0.003518 -0.999747 -0.022207 0.213692 0.955035 1 0 1.000000
Door_01
  0 -28.526453 -9.166780 100.365372 0.000000 -1.000000 0.000000 0.139849 0.961356 1 0 1.000000
  0 -8.630798 -8.993886 98.846893 0.003518 -0.999747 -0.022207 0.213692 0.955035 1 0 1.000000
  0 -9.829885 -9.166779 106.440414 0.000000 -1.000000 0.000000 0.209139 0.983871 1 0 1.000000
Door_01
  0 -9.829885 -9.166779 106.440414 0.000000 -1.000000 0.000000 0.209139 0.983871 1 0 1.000000
  0 -8.630798 -8.993886 98.846893 0.003518 -0.999747 -0.022207 0.213692 0.955035 1 0 1.000000
  0 8.622792 -8.993886 98.846893 -0.003516 -0.999747 -0.022204 0.277415 0.955035 1 0 1.000000
Door_01
  0 -9.829885 -9.166779 106.440414 0.000000 -1.000000 0.000000 0.209139 0.983871 1 0 1.000000
  0 8.622792 -8.993886 98.846893 -0.003516 -0.999747 -0.022204 0.277415 0.955035 1 0 1.000000
  0 9.828945 -9.166779 106.440567 0.000000 -1.000000 0.000000 0.281995 0.983871 1 0 1.000000
Door_01
  0 28.525688 -9.166778 100.365768 0.000000 -1.000000 0.000000 0.351286 0.961358 1 0 1.000000
  0 9.828945 -9.166779 106.440567 0.000000 -1.000000 0.000000 0.281995 0.983871 1 0 1.000000
  0 8.622792 -8.993886 98.846893 -0.003516 -0.999747 -0.022204 0.277415 0.955035 1 0 1.000000
Door_01
  0 28.525688 -9.166778 100.365768 0.000000 -1.000000 0.000000 0.351286 0.961358 1 0 1.000000
  0 8.622792 -8.993886 98.846893 -0.003516 -0.999747 -0.022204 0.277415 0.955035 1 0 1.000000
  0 25.031931 -8.993884 93.515236 -0.010204 -0.999747 -0.020027 0.338019 0.935344 1 0 1.000000
Door_01
  0 25.031931 -8.993884 93.515236 -0.010204 -0.999747 -0.020027 0.338019 0.935344 1 0 1.000000
  0 44.430145 -9.166776 88.810631 0.000000 -1.000000 0.000000 0.410228 0.918534 1 0 1.000000
  0 28.525688 -9.166778 100.365768 0.000000 -1.000000 0.000000 0.351286 0.961358 1 0 1.000000
Door_01
  0 25.031931 -8.993884 93.515236 -0.010204 -0.999747 -0.020027 0.338019 0.935344 1 0 1.000000
  0 38.990379 -8.993883 83.373833 -0.015892 -0.999747 -0.015892 0.389572 0.897889 1 0 1.000000
  0 44.430145 -9.166776 88.810631 0.000000 -1.000000 0.000000 0.410228 0.918534 1 0 1.000000
Door_01
  0 44.430145 -9.166776 88.810631 0.000000 -1.000000 0.000000 0.410228 0.918534 1 0 1.000000
  0 38.990379 -8.993883 83.373833 -0.015892 -0.999747 -0.015892 0.389572 0.897889 1 0 1.000000
  0 49.131786 -8.993882 69.415382 -0.020023 -0.999747 -0.010203 0.427027 0.846336 1 0 1.000000
Door_01
  0 44.430145 -9.166776 88.810631 0.000000 -1.000000 0.000000 0.410228 0.918534 1 0 1.000000
  0 49.131786 -8.993882 69.415382 -0.020023 -0.999747 -0.010203 0.427027 0.846336 1 0 1.000000
  0 55.985435 -9.166774 72.906258 0.000000 -1.000000 0.000000 0.453052 0.859592 1 0 1.000000
Door_01
  0 49.131786 -8.993882 69.415382 -0.020023 -0.999747 -0.010203 0.427027 0.846336 1 0 1.000000
  0 62.060410 -9.166773 54.209484 0.000000 -1.000000 0.000000 0.475566 0.790301 1 0 1.000000
  0 55.985435 -9.166774 72.906258 0.000000 -1.000000 0.000000 0.453052 0.859592 1 0 1.000000
Door_01
  0 49.131786 -8.993882 69.415382 -0.020023 -0.999747 -0.010203 0.427027 0.846336 1 0 1.000000
  0 54.463440 -8.993881 53.006241 -0.022196 -0.999747 -0.003515 0.446718 0.785732 1 0 1.000000
  0 62.060410 -9.166773 54.209484 0.000000 -1.000000 0.000000 0.475566 0.790301 1 0 1.000000
Door_01
  0 62.060387 -9.166773 34.550529 0.000000 -1.000000 0.000000 0.475566 0.717444 1 0 1.000000
  0 62.060410 -9.166773 54.209484 0.000000 -1.000000 0.000000 0.475566 0.790301 1 0 1.000000
  0 54.463440 -8.993881 53.006241 -0.022196 -0.999747 -0.003515 0.446718 0.785732 1 0 1.000000
Door_01
  0 62.060387 -9.166773 34.550529 0.000000 -1.000000 0.000000 0.475566 0.717444 1 0 1.000000
  0 54.463440 -8.993881 53.006241 -0.022196 -0.999747 -0.003515 0.446718 0.785732 1 0 1.000000
  0 54.463440 -8.993881 35.752651 -0.022196 -0.999747 0.003516 0.446718 0.722009 1 0 1.000000
Door_01
  0 55.985374 -9.166772 15.853787 0.000000 -1.000000 0.000000 0.453052 0.648154 1 0 1.000000
  0 62.060387 -9.166773 34.550529 0.000000 -1.000000 0.000000 0.475566 0.717444 1 0 1.000000
  0 54.463440 -8.993881 35.752651 -0.022196 -0.999747 0.003516 0.446718 0.722009 1 0 1.000000
Door_01
  0 55.985374 -9.166772 15.853787 0.000000 -1.000000 0.000000 0.453052 0.648154 1 0 1.000000
  0 54.463440 -8.993881 35.752651 -0.022196 -0.999747 0.003516 0.446718 0.722009 1 0 1.000000
  0 49.131786 -8.993880 19.343512 -0.020023 -0.999747 0.010201 0.427027 0.661405 1 0 1.000000
Door_01
  0 49.131786 -8.993880 19.343512 -0.020023 -0.999747 0.010201 0.427027 0.661405 1 0 1.000000
  0 44.470150 -9.166772 -0.001632 0.000000 -1.000000 0.000000 0.410376 0.589393 1 0 1.000000
  0 55.985374 -9.166772 15.853787 0.000000 -1.000000 0.000000 0.453052 0.648154 1 0 1.000000
Door_01
  0 49.131786 -8.993880 19.343512 -0.020023 -0.999747 0.010201 0.427027 0.661405 1 0 1.000000
  0 38.990379 -8.993879 5.385064 -0.014193 -0.999743 0.017650 0.389572 0.609853 1 0 1.000000
  0 44.470150 -9.166772 -0.001632 0.000000 -1.000000 0.000000 0.410376 0.589393 1 0 1.000000
Door_01
  0 44.470150 -9.166772 -0.001632 0.000000 -1.000000 0.000000 0.410376 0.589393 1 0 1.000000
  0 38.990379 -8.993879 5.385064 -0.014193 -0.999743 0.017650 0.389572 0.609853 1 0 1.000000
  0 32.291763 -8.993880 -0.001631 -0.014193 -0.999743 0.017650 0.365243 0.589393 1 0 1.000000
Door_01
  0 -8.630798 8.996052 98.846893 0.003518 0.999747 -0.022207 0.213692 0.955035 1 0 1.000000
  0 -25.039938 8.996052 93.515236 0.010210 0.999747 -0.020036 0.153089 0.935344 1 0 1.000000
  0 -28.526453 9.168943 100.365372 0.000000 1.000000 0.000000 0.139849 0.961356 1 0 1.000000
Door_01
  0 -44.430626 9.168943 88.810150 0.000000 1.000000 0.000000 0.080907 0.918532 1 0 1.000000
  0 -28.526453 9.168943 100.365372 0.000000 1.000000 0.000000 0.139849 0.961356 1 0 1.000000
  0 -25.039938 8.996052 93.515236 0.010210 0.999747 -0.020036 0.153089 0.935344 1 0 1.000000
Door_01
  0 -44.430626 9.168943 88.810150 0.000000 1.000000 0.000000 0.080907 0.918532 1 0 1.000000
  0 -25.039938 8.996052 93.515236 0.010210 0.999747 -0.020036 0.153089 0.935344 1 0 1.000000
  0 -38.998386 8.996051 83.373833 0.015904 0.999747 -0.015903 0.101536 0.897889 1 0 1.000000
Door_01
  0 -38.998386 8.996051 83.373833 0.015904 0.999747 -0.015903 0.101536 0.897889 1 0 1.000000
  0 -55.985634 9.168943 72.905869 0.000000 1.000000 0.000000 0.038084 0.859590 1 0 1.000000
  0 -44.430626 9.168943 88.810150 0.000000 1.000000 0.000000 0.080907 0.918532 1 0 1.000000
Door_01
  0 -38.998386 8.996051 83.373833 0.015904 0.999747 -0.015903 0.101536 0.897889 1 0 1.000000
  0 -49.139793 8.996052 69.415382 0.020042 0.999747 -0.010212 0.064081 0.846336 1 0 1.000000
  0 -55.985634 9.168943 72.905869 0.000000 1.000000 0.000000 0.038084 0.859590 1 0 1.000000
Door_01
  0 -54.471447 8.996053 53.006241 0.022218 0.999747 -0.003519 0.044389 0.785732 1 0 1.000000
  0 -55.985634 9.168943 72.905869 0.000000 1.000000 0.000000 0.038084 0.859590 1 0 1.000000
  0 -49.139793 8.996052 69.415382 0.020042 0.999747 -0.010212 0.064081 0.846336 1 0 1.000000
Door_01
  0 -54.471447 8.996053 53.006241 0.022218 0.999747 -0.003519 0.044389 0.785732 1 0 1.000000
  0 -62.060432 9.168944 54.209335 0.000000 1.000000 0.000000 0.015571 0.790300 1 0 1.000000
  0 -55.985634 9.168943 72.905869 0.000000 1.000000 0.000000 0.038084 0.859590 1 0 1.000000
Door_01
  0 -62.060410 9.168944 34.550678 0.000000 1.000000 0.000000 0.015571 0.717445 1 0 1.000000
  0 -62.060432 9.168944 54.209335 0.000000 1.000000 0.000000 0.015571 0.790300 1 0 1.000000
  0 -54.471447 8.996053 53.006241 0.022218 0.999747 -0.003519 0.044389 0.785732 1 0 1.000000
Door_01
  0 -62.060410 9.168944 34.550678 0.000000 1.000000 0.000000 0.015571 0.717445 1 0 1.000000
  0 -54.471447 8.996053 53.006241 0.022218 0.999747 -0.003519 0.044389 0.785732 1 0 1.000000
  0 -54.471447 8.996053 35.752651 0.022219 0.999747 0.003519 0.044389 0.722009 1 0 1.000000
Door_01
  0 -54.471447 8.996053 35.752651 0.022219 0.999747 0.003519 0.044389 0.722009 1 0 1.000000
  0 -55.985573 9.168945 15.854177 0.000000 1.000000 0.000000 0.038084 0.648155 1 0 1.000000
  0 -62.060410 9.168944 34.550678 0.000000 1.000000 0.000000 0.015571 0.717445 1 0 1.000000
Door_01
  0 -54.471447 8.996053 35.752651 0.022219 0.999747 0.003519 0.044389 0.722009 1 0 1.000000
  0 -49.139793 8.996054 19.343512 0.020061 0.999746 0.010240 0.064081 0.661405 1 0 1.000000
  0 -55.985573 9.168945 15.854177 0.000000 1.000000 0.000000 0.038084 0.648155 1 0 1.000000
Door_01
  0 -38.998386 8.996055 5.385065 0.016358 0.999744 0.015597 0.101536 0.609853 1 0 1.000000
  0 -55.985573 9.168945 15.854177 0.000000 1.000000 0.000000 0.038084 0.648155 1 0 1.000000
  0 -49.139793 8.996054 19.343512 0.020061 0.999746 0.010240 0.064081 0.661405 1 0 1.000000
Door_01
  0 -38.998386 8.996055 5.385065 0.016358 0.999744 0.015597 0.101536 0.609853 1 0 1.000000
  0 -44.417221 9.168947 0.000107 0.000000 1.000000 0.000000 0.080957 0.589399 1 0 1.000000
  0 -55.985573 9.168945 15.854177 0.000000 1.000000 0.000000 0.038084 0.648155 1 0 1.000000
Door_01
  0 -44.417221 9.168947 0.000107 0.000000 1.000000 0.000000 0.080957 0.589399 1 0 1.000000
  0 -38.998386 8.996055 5.385065 0.016358 0.999744 0.015597 0.101536 0.609853 1 0 1.000000
  0 -32.293308 8.996056 0.000107 0.014257 0.999741 0.017752 0.125889 0.589399 1 0 1.000000
Door_01
  0 32.291763 8.996058 -0.001630 -0.014193 0.999743 0.017650 0.365243 0.589393 1 0 1.000000
  0 38.990379 8.996058 5.385065 -0.016300 0.999747 0.015510 0.389572 0.609853 1 0 1.000000
  0 44.470150 9.168951 -0.001631 0.000000 1.000000 0.000000 0.410376 0.589393 1 0 1.000000
Door_01
  0 44.470150 9.168951 -0.001631 0.000000 1.000000 0.000000 0.410376 0.589393 1 0 1.000000
  0 38.990379 8.996058 5.385065 -0.016300 0.999747 0.015510 0.389572 0.609853 1 0 1.000000
  0 49.131786 8.996058 19.343512 -0.020023 0.999747 0.010201 0.427027 0.661405 1 0 1.000000
Door_01
  0 44.470150 9.168951 -0.001631 0.000000 1.000000 0.000000 0.410376 0.589393 1 0 1.000000
  0 49.131786 8.996058 19.343512 -0.020023 0.999747 0.010201 0.427027 0.661405 1 0 1.000000
  0 55.985374 9.168951 15.853787 0.000000 1.000000 0.000000 0.453052 0.648154 1 0 1.000000
Door_01
  0 54.463440 8.996057 35.752651 -0.022196 0.999747 0.003516 0.446718 0.722009 1 0 1.000000
  0 55.985374 9.168951 15.853787 0.000000 1.000000 0.000000 0.453052 0.648154 1 0 1.000000
  0 49.131786 8.996058 19.343512 -0.020023 0.999747 0.010201 0.427027 0.661405 1 0 1.000000
Door_01
  0 54.463440 8.996057 35.752651 -0.022196 0.999747 0.003516 0.446718 0.722009 1 0 1.000000
  0 62.060387 9.168950 34.550529 0.000000 1.000000 0.000000 0.475566 0.717444 1 0 1.000000
  0 55.985374 9.168951 15.853787 0.000000 1.000000 0.000000 0.453052 0.648154 1 0 1.000000
Door_01
  0 54.463440 8.996057 53.006241 -0.022196 0.999747 -0.003515 0.446718 0.785732 1 0 1.000000
  0 62.060387 9.168950 34.550529 0.000000 1.000000 0.000000 0.475566 0.717444 1 0 1.000000
  0 54.463440 8.996057 35.752651 -0.022196 0.999747 0.003516 0.446718 0.722009 1 0 1.000000
Door_01
  0 54.463440 8.996057 53.006241 -0.022196 0.999747 -0.003515 0.446718 0.785732 1 0 1.000000
  0 62.060410 9.168950 54.209484 0.000000 1.000000 0.000000 0.475566 0.790301 1 0 1.000000
  0 62.060387 9.168950 34.550529 0.000000 1.000000 0.000000 0.475566 0.717444 1 0 1.000000
Door_01
  0 62.060410 9.168950 54.209484 0.000000 1.000000 0.000000 0.475566 0.790301 1 0 1.000000
  0 54.463440 8.996057 53.006241 -0.022196 0.999747 -0.003515 0.446718 0.785732 1 0 1.000000
  0 49.131786 8.996056 69.415382 -0.020023 0.999747 -0.010202 0.427027 0.846336 1 0 1.000000
Door_01
  0 62.060410 9.168950 54.209484 0.000000 1.000000 0.000000 0.475566 0.790301 1 0 1.000000
  0 49.131786 8.996056 69.415382 -0.020023 0.999747 -0.010202 0.427027 0.846336 1 0 1.000000
  0 55.985435 9.168949 72.906258 0.000000 1.000000 0.000000 0.453052 0.859592 1 0 1.000000
Door_01
  0 44.430145 9.168947 88.810631 0.000000 1.000000 0.000000 0.410228 0.918534 1 0 1.000000
  0 55.985435 9.168949 72.906258 0.000000 1.000000 0.000000 0.453052 0.859592 1 0 1.000000
  0 49.131786 8.996056 69.415382 -0.020023 0.999747 -0.010202 0.427027 0.846336 1 0 1.000000
Door_01
  0 44.430145 9.168947 88.810631 0.000000 1.000000 0.000000 0.410228 0.918534 1 0 1.000000
  0 49.131786 8.996056 69.415382 -0.020023 0.999747 -0.010202 0.427027 0.846336 1 0 1.000000
  0 38.990379 8.996055 83.373833 -0.015892 0.999747 -0.015892 0.389572 0.897889 1 0 1.000000
Door_01
  0 38.990379 8.996055 83.373833 -0.015892 0.999747 -0.015892 0.389572 0.897889 1 0 1.000000
  0 28.525688 9.168945 100.365768 0.000000 1.000000 0.000000 0.351286 0.961358 1 0 1.000000
  0 44.430145 9.168947 88.810631 0.000000 1.000000 0.000000 0.410228 0.918534 1 0 1.000000
Door_01
  0 38.990379 8.996055 83.373833 -0.015892 0.999747 -0.015892 0.389572 0.897889 1 0 1.000000
  0 25.031931 8.996054 93.515236 -0.010204 0.999747 -0.020027 0.338019 0.935344 1 0 1.000000
  0 28.525688 9.168945 100.365768 0.000000 1.000000 0.000000 0.351286 0.961358 1 0 1.000000
Door_01
  0 28.525688 9.168945 100.365768 0.000000 1.000000 0.000000 0.351286 0.961358 1 0 1.000000
  0 25.031931 8.996054 93.515236 -0.010204 0.999747 -0.020027 0.338019 0.935344 1 0 1.000000
  0 8.622792 8.996052 98.846893 -0.003516 0.999747 -0.022204 0.277415 0.955035 1 0 1.000000
Door_01
  0 28.525688 9.168945 100.365768 0.000000 1.000000 0.000000 0.351286 0.961358 1 0 1.000000
  0 8.622792 8.996052 98.846893 -0.003516 0.999747 -0.022204 0.277415 0.955035 1 0 1.000000
  0 9.828945 9.168944 106.440567 0.000000 1.000000 0.000000 0.281995 0.983871 1 0 1.000000
Door_01
  0 9.828945 9.168944 106.440567 0.000000 1.000000 0.000000 0.281995 0.983871 1 0 1.000000
  0 8.622792 8.996052 98.846893 -0.003516 0.999747 -0.022204 0.277415 0.955035 1 0 1.000000
  0 -8.630798 8.996052 98.846893 0.003518 0.999747 -0.022207 0.213692 0.955035 1 0 1.000000
Door_01
  0 9.828945 9.168944 106.440567 0.000000 1.000000 0.000000 0.281995 0.983871 1 0 1.000000
  0 -8.630798 8.996052 98.846893 0.003518 0.999747 -0.022207 0.213692 0.955035 1 0 1.000000
  0 -9.829885 9.168944 106.440414 0.000000 1.000000 0.000000 0.209139 0.983871 1 0 1.000000
Door_01
  0 -8.630798 8.996052 98.846893 0.003518 0.999747 -0.022207 0.213692 0.955035 1 0 1.000000
  0 -28.526453 9.168943 100.365372 0.000000 1.000000 0.000000 0.139849 0.961356 1 0 1.000000
  0 -9.829885 9.168944 106.440414 0.000000 1.000000 0.000000 0.209139 0.983871 1 0 1.000000
Door_01
  0 -25.002520 -8.078613 93.441833 0.037970 0.996496 -0.074520 0.157004 0.927310 1 0 1.000000
  0 -8.816792 -7.971910 100.021233 0.000000 1.000000 0.000000 0.214235 0.950983 1 0 1.000000
  0 -8.617909 -8.078613 98.765511 0.013083 0.996496 -0.082604 0.215000 0.946154 1 0 1.000000
Door_01
  0 -25.002520 -8.078613 93.441833 0.037970 0.996496 -0.074520 0.157004 0.927310 1 0 1.000000
  0 -25.579523 -7.971910 94.574692 0.000000 1.000000 0.000000 0.154785 0.931666 1 0 1.000000
  0 -8.816792 -7.971910 100.021233 0.000000 1.000000 0.000000 0.214235 0.950983 1 0 1.000000
Door_01
  0 -38.940105 -8.078614 83.315590 0.059144 0.996496 -0.059144 0.107670 0.891467 1 0 1.000000
  0 -25.579523 -7.971910 94.574692 0.000000 1.000000 0.000000 0.154785 0.931666 1 0 1.000000
  0 -25.002520 -8.078613 93.441833 0.037970 0.996496 -0.074520 0.157004 0.927310 1 0 1.000000
Door_01
  0 -38.940105 -8.078614 83.315590 0.059144 0.996496 -0.059144 0.107670 0.891467 1 0 1.000000
  0 -39.838753 -7.971910 84.214752 0.000000 1.000000 0.000000 0.104215 0.894924 1 0 1.000000
  0 -25.579523 -7.971910 94.574692 0.000000 1.000000 0.000000 0.154785 0.931666 1 0 1.000000
Door_01
  0 -49.066360 -8.078613 69.378014 0.074535 0.996495 -0.037977 0.071827 0.842133 1 0 1.000000
  0 -39.838753 -7.971910 84.214752 0.000000 1.000000 0.000000 0.104215 0.894924 1 0 1.000000
  0 -38.940105 -8.078614 83.315590 0.059144 0.996496 -0.059144 0.107670 0.891467 1 0 1.000000
Door_01
  0 -49.066360 -8.078613 69.378014 0.074535 0.996495 -0.037977 0.071827 0.842133 1 0 1.000000
  0 -50.198692 -7.971910 69.955521 0.000000 1.000000 0.000000 0.067473 0.844354 1 0 1.000000
  0 -39.838753 -7.971910 84.214752 0.000000 1.000000 0.000000 0.104215 0.894924 1 0 1.000000
Door_01
  0 -54.390060 -8.078612 52.993401 0.082634 0.996494 -0.013088 0.052983 0.784137 1 0 1.000000
  0 -50.198692 -7.971910 69.955521 0.000000 1.000000 0.000000 0.067473 0.844354 1 0 1.000000
  0 -49.066360 -8.078613 69.378014 0.074535 0.996495 -0.037977 0.071827 0.842133 1 0 1.000000
Door_01
  0 -54.390060 -8.078612 52.993401 0.082634 0.996494 -0.013088 0.052983 0.784137 1 0 1.000000
  0 -55.645233 -7.971910 53.192795 0.000000 1.000000 0.000000 0.048156 0.784904 1 0 1.000000
  0 -50.198692 -7.971910 69.955521 0.000000 1.000000 0.000000 0.067473 0.844354 1 0 1.000000
Door_01
  0 -54.390076 -8.078612 35.765591 0.082647 0.996493 0.013090 0.052983 0.723157 1 0 1.000000
  0 -55.645233 -7.971910 53.192795 0.000000 1.000000 0.000000 0.048156 0.784904 1 0 1.000000
  0 -54.390060 -8.078612 52.993401 0.082634 0.996494 -0.013088 0.052983 0.784137 1 0 1.000000
Door_01
  0 -54.390076 -8.078612 35.765591 0.082647 0.996493 0.013090 0.052983 0.723157 1 0 1.000000
  0 -55.645233 -7.971909 35.567417 0.000000 1.000000 0.000000 0.048156 0.722395 1 0 1.000000
  0 -55.645233 -7.971910 53.192795 0.000000 1.000000 0.000000 0.048156 0.784904 1 0 1.000000
Door_01
  0 -49.066402 -8.078611 19.380960 0.074569 0.996492 0.037995 0.071827 0.665162 1 0 1.000000
  0 -55.645233 -7.971909 35.567417 0.000000 1.000000 0.000000 0.048156 0.722395 1 0 1.000000
  0 -54.390076 -8.078612 35.765591 0.082647 0.996493 0.013090 0.052983 0.723157 1 0 1.000000
Door_01
  0 -49.066402 -8.078611 19.380960 0.074569 0.996492 0.037995 0.071827 0.665162 1 0 1.000000
  0 -50.198692 -7.971908 18.804686 0.000000 1.000000 0.000000 0.067473 0.662946 1 0 1.000000
  0 -55.645233 -7.971909 35.567417 0.000000 1.000000 0.000000 0.048156 0.722395 1 0 1.000000
Door_01
  0 -38.940254 -8.078611 5.443257 0.058197 0.996508 0.059879 0.107670 0.615828 1 0 1.000000
  0 -50.198692 -7.971908 18.804686 0.000000 1.000000 0.000000 0.067473 0.662946 1 0 1.000000
  0 -49.066402 -8.078611 19.380960 0.074569 0.996492 0.037995 0.071827 0.665162 1 0 1.000000
Door_01
  0 -38.940254 -8.078611 5.443257 0.058197 0.996508 0.059879 0.107670 0.615828 1 0 1.000000
  0 -39.838753 -7.971906 4.545455 0.000000 1.000000 0.000000 0.104215 0.612375 1 0 1.000000
  0 -50.198692 -7.971908 18.804686 0.000000 1.000000 0.000000 0.067473 0.662946 1 0 1.000000
Door_01
  0 -38.940254 -8.078611 5.443257 0.058197 0.996508 0.059879 0.107670 0.615828 1 0 1.000000
  0 -34.216076 -7.971905 0.007416 0.000000 1.000000 0.000000 0.124156 0.596281 1 0 1.000000
  0 -39.838753 -7.971906 4.545455 0.000000 1.000000 0.000000 0.104215 0.612375 1 0 1.000000
Door_01
  0 -38.940254 -8.078611 5.443257 0.058197 0.996508 0.059879 0.107670 0.615828 1 0 1.000000
  0 -32.173492 -8.078610 0.000671 0.052544 0.996486 0.065226 0.131400 0.596257 1 0 1.000000
  0 -34.216076 -7.971905 0.007416 0.000000 1.000000 0.000000 0.124156 0.596281 1 0 1.000000
Door_01
  0 38.932236 -8.078608 5.443251 -0.058418 0.996475 0.060200 0.383309 0.615828 1 0 1.000000
  0 34.163635 -7.971902 -0.007083 0.000000 1.000000 0.000000 0.366666 0.596229 1 0 1.000000
  0 32.170582 -8.078609 -0.002059 -0.052980 0.996421 0.065860 0.359598 0.596247 1 0 1.000000
Door_01
  0 38.932236 -8.078608 5.443251 -0.058418 0.996475 0.060200 0.383309 0.615828 1 0 1.000000
  0 39.830547 -7.971902 4.545455 0.000000 1.000000 0.000000 0.386764 0.612375 1 0 1.000000
  0 34.163635 -7.971902 -0.007083 0.000000 1.000000 0.000000 0.366666 0.596229 1 0 1.000000
Door_01
  0 50.190483 -7.971903 18.804686 0.000000 1.000000 0.000000 0.423506 0.662946 1 0 1.000000
  0 39.830547 -7.971902 4.545455 0.000000 1.000000 0.000000 0.386764 0.612375 1 0 1.000000
  0 38.932236 -8.078608 5.443251 -0.058418 0.996475 0.060200 0.383309 0.615828 1 0 1.000000
Door_01
  0 50.190483 -7.971903 18.804686 0.000000 1.000000 0.000000 0.423506 0.662946 1 0 1.000000
  0 38.932236 -8.078608 5.443251 -0.058418 0.996475 0.060200 0.383309 0.615828 1 0 1.000000
  0 49.058392 -8.078608 19.380955 -0.074580 0.996491 0.038000 0.419153 0.665162 1 0 1.000000
Door_01
  0 54.382069 -8.078609 35.765591 -0.082660 0.996492 0.013092 0.437997 0.723157 1 0 1.000000
  0 50.190483 -7.971903 18.804686 0.000000 1.000000 0.000000 0.423506 0.662946 1 0 1.000000
  0 49.058392 -8.078608 19.380955 -0.074580 0.996491 0.038000 0.419153 0.665162 1 0 1.000000
Door_01
  0 54.382069 -8.078609 35.765591 -0.082660 0.996492 0.013092 0.437997 0.723157 1 0 1.000000
  0 55.637024 -7.971904 35.567417 0.000000 1.000000 0.000000 0.442822 0.722395 1 0 1.000000
  0 50.190483 -7.971903 18.804686 0.000000 1.000000 0.000000 0.423506 0.662946 1 0 1.000000
Door_01
  0 54.382053 -8.078609 52.993404 -0.082647 0.996493 -0.013090 0.437997 0.784137 1 0 1.000000
  0 55.637024 -7.971904 35.567417 0.000000 1.000000 0.000000 0.442822 0.722395 1 0 1.000000
  0 54.382069 -8.078609 35.765591 -0.082660 0.996492 0.013092 0.437997 0.723157 1 0 1.000000
Door_01
  0 54.382053 -8.078609 52.993404 -0.082647 0.996493 -0.013090 0.437997 0.784137 1 0 1.000000
  0 55.637024 -7.971905 53.192795 0.000000 1.000000 0.000000 0.442822 0.784904 1 0 1.000000
  0 55.637024 -7.971904 35.567417 0.000000 1.000000 0.000000 0.442822 0.722395 1 0 1.000000
Door_01
  0 49.058353 -8.078609 69.378021 -0.074545 0.996494 -0.037982 0.419153 0.842133 1 0 1.000000
  0 55.637024 -7.971905 53.192795 0.000000 1.000000 0.000000 0.442822 0.784904 1 0 1.000000
  0 54.382053 -8.078609 52.993404 -0.082647 0.996493 -0.013090 0.437997 0.784137 1 0 1.000000
Door_01
  0 49.058353 -8.078609 69.378021 -0.074545 0.996494 -0.037982 0.419153 0.842133 1 0 1.000000
  0 50.190483 -7.971905 69.955521 0.000000 1.000000 0.000000 0.423506 0.844354 1 0 1.000000
  0 55.637024 -7.971905 53.192795 0.000000 1.000000 0.000000 0.442822 0.784904 1 0 1.000000
Door_01
  0 38.932091 -8.078610 83.315598 -0.059151 0.996495 -0.059150 0.383309 0.891467 1 0 1.000000
  0 50.190483 -7.971905 69.955521 0.000000 1.000000 0.000000 0.423506 0.844354 1 0 1.000000
  0 49.058353 -8.078609 69.378021 -0.074545 0.996494 -0.037982 0.419153 0.842133 1 0 1.000000
Door_01
  0 38.932091 -8.078610 83.315598 -0.059151 0.996495 -0.059150 0.383309 0.891467 1 0 1.000000
  0 39.830547 -7.971906 84.214752 0.000000 1.000000 0.000000 0.386764 0.894924 1 0 1.000000
  0 50.190483 -7.971905 69.955521 0.000000 1.000000 0.000000 0.423506 0.844354 1 0 1.000000
Door_01
  0 25.571316 -7.971908 94.574692 0.000000 1.000000 0.000000 0.336193 0.931666 1 0 1.000000
  0 39.830547 -7.971906 84.214752 0.000000 1.000000 0.000000 0.386764 0.894924 1 0 1.000000
  0 38.932091 -8.078610 83.315598 -0.059151 0.996495 -0.059150 0.383309 0.891467 1 0 1.000000
Door_01
  0 25.571316 -7.971908 94.574692 0.000000 1.000000 0.000000 0.336193 0.931666 1 0 1.000000
  0 38.932091 -8.078610 83.315598 -0.059151 0.996495 -0.059150 0.383309 0.891467 1 0 1.000000
  0 24.994499 -8.078611 93.441841 -0.037973 0.996496 -0.074526 0.333976 0.927310 1 0 1.000000
Door_01
  0 8.609887 -8.078613 98.765511 -0.013084 0.996496 -0.082606 0.275980 0.946154 1 0 1.000000
  0 25.571316 -7.971908 94.574692 0.000000 1.000000 0.000000 0.336193 0.931666 1 0 1.000000
  0 24.994499 -8.078611 93.441841 -0.037973 0.996496 -0.074526 0.333976 0.927310 1 0 1.000000
Door_01
  0 8.609887 -8.078613 98.765511 -0.013084 0.996496 -0.082606 0.275980 0.946154 1 0 1.000000
  0 8.808585 -7.971909 100.021233 0.000000 1.000000 0.000000 0.276744 0.950983 1 0 1.000000
  0 25.571316 -7.971908 94.574692 0.000000 1.000000 0.000000 0.336193 0.931666 1 0 1.000000
Door_01
  0 -8.617909 -8.078613 98.765511 0.013083 0.996496 -0.082604 0.215000 0.946154 1 0 1.000000
  0 8.808585 -7.971909 100.021233 0.000000 1.000000 0.000000 0.276744 0.950983 1 0 1.000000
  0 8.609887 -8.078613 98.765511 -0.013084 0.996496 -0.082606 0.275980 0.946154 1 0 1.000000
Door_01
  0 -8.617909 -8.078613 98.765511 0.013083 0.996496 -0.082604 0.215000 0.946154 1 0 1.000000
  0 -8.816792 -7.971910 100.021233 0.000000 1.000000 0.000000 0.214235 0.950983 1 0 1.000000
  0 8.808585 -7.971909 100.021233 0.000000 1.000000 0.000000 0.276744 0.950983 1 0 1.000000
Door_01
  0 -39.838753 -7.971906 4.545455 0.697208 0.000000 0.716869 0.966409 0.338576 1 0 1.000000
  0 -34.216076 -7.971905 0.007416 0.628056 0.000000 0.778168 0.986482 0.338576 1 0 1.000000
  0 -34.216076 7.974079 0.007417 0.628056 0.000000 0.778168 0.986482 0.297220 1 0 1.000000
Door_01
  0 -39.838753 -7.971906 4.545455 0.697208 0.000000 0.716869 0.966409 0.338576 1 0 1.000000
  0 -34.216076 7.974079 0.007417 0.628056 0.000000 0.778168 0.986482 0.297220 1 0 1.000000
  0 -39.838753 7.974078 4.545455 0.697208 0.000000 0.716869 0.966409 0.297220 1 0 1.000000
Door_01
  0 -50.198692 7.974077 18.804686 0.891007 0.000000 0.453990 0.916793 0.297220 1 0 1.000000
  0 -39.838753 -7.971906 4.545455 0.697208 0.000000 0.716869 0.966409 0.338576 1 0 1.000000
  0 -39.838753 7.974078 4.545455 0.697208 0.000000 0.716869 0.966409 0.297220 1 0 1.000000
Door_01
  0 -50.198692 7.974077 18.804686 0.891007 0.000000 0.453990 0.916793 0.297220 1 0 1.000000
  0 -50.198692 -7.971908 18.804686 0.891007 0.000000 0.453990 0.916793 0.338576 1 0 1.000000
  0 -39.838753 -7.971906 4.545455 0.697208 0.000000 0.716869 0.966409 0.338576 1 0 1.000000
Door_01
  0 -55.645233 7.974076 35.567417 0.987688 0.000000 0.156434 0.865911 0.297220 1 0 1.000000
  0 -50.198692 -7.971908 18.804686 0.891007 0.000000 0.453990 0.916793 0.338576 1 0 1.000000
  0 -50.198692 7.974077 18.804686 0.891007 0.000000 0.453990 0.916793 0.297220 1 0 1.000000
Door_01
  0 -55.645233 7.974076 35.567417 0.987688 0.000000 0.156434 0.865911 0.297220 1 0 1.000000
  0 -55.645233 -7.971909 35.567417 0.987688 0.000000 0.156434 0.865911 0.338576 1 0 1.000000
  0 -50.198692 -7.971908 18.804686 0.891007 0.000000 0.453990 0.916793 0.338576 1 0 1.000000
Door_01
  0 -55.645233 7.974075 53.192795 0.987688 0.000000 -0.156434 0.813454 0.297220 1 0 1.000000
  0 -55.645233 -7.971909 35.567417 0.987688 0.000000 0.156434 0.865911 0.338576 1 0 1.000000
  0 -55.645233 7.974076 35.567417 0.987688 0.000000 0.156434 0.865911 0.297220 1 0 1.000000
Door_01
  0 -55.645233 7.974075 53.192795 0.987688 0.000000 -0.156434 0.813454 0.297220 1 0 1.000000
  0 -55.645233 -7.971910 53.192795 0.987688 0.000000 -0.156434 0.813454 0.338576 1 0 1.000000
  0 -55.645233 -7.971909 35.567417 0.987688 0.000000 0.156434 0.865911 0.338576 1 0 1.000000
Door_01
  0 -50.198692 7.974075 69.955521 0.891007 0.000000 -0.453990 0.759208 0.297220 1 0 1.000000
  0 -55.645233 -7.971910 53.192795 0.987688 0.000000 -0.156434 0.813454 0.338576 1 0 1.000000
  0 -55.645233 7.974075 53.192795 0.987688 0.000000 -0.156434 0.813454 0.297220 1 0 1.000000
Door_01
  0 -50.198692 7.974075 69.955521 0.891007 0.000000 -0.453990 0.759208 0.297220 1 0 1.000000
  0 -50.198692 -7.971910 69.955521 0.891007 0.000000 -0.453990 0.759208 0.338576 1 0 1.000000
  0 -55.645233 -7.971910 53.192795 0.987688 0.000000 -0.156434 0.813454 0.338576 1 0 1.000000
Door_01
  0 -39.838753 7.974074 84.214752 0.707107 0.000000 -0.707107 0.703123 0.297220 1 0 1.000000
  0 -50.198692 -7.971910 69.955521 0.891007 0.000000 -0.453990 0.759208 0.338576 1 0 1.000000
  0 -50.198692 7.974075 69.955521 0.891007 0.000000 -0.453990 0.759208 0.297220 1 0 1.000000
Door_01
  0 -39.838753 7.974074 84.214752 0.707107 0.000000 -0.707107 0.703123 0.297220 1 0 1.000000
  0 -39.838753 -7.971910 84.214752 0.707107 0.000000 -0.707107 0.703123 0.338576 1 0 1.000000
  0 -50.198692 -7.971910 69.955521 0.891007 0.000000 -0.453990 0.759208 0.338576 1 0 1.000000
Door_01
  0 -25.579523 7.974074 94.574692 0.453990 0.000000 -0.891007 0.645399 0.297220 1 0 1.000000
  0 -39.838753 -7.971910 84.214752 0.707107 0.000000 -0.707107 0.703123 0.338576 1 0 1.000000
  0 -39.838753 7.974074 84.214752 0.707107 0.000000 -0.707107 0.703123 0.297220 1 0 1.000000
Door_01
  0 -25.579523 7.974074 94.574692 0.453990 0.000000 -0.891007 0.645399 0.297220 1 0 1.000000
  0 -25.579523 -7.971910 94.574692 0.453990 0.000000 -0.891007 0.645399 0.338576 1 0 1.000000
  0 -39.838753 -7.971910 84.214752 0.707107 0.000000 -0.707107 0.703123 0.338576 1 0 1.000000
Door_01
  0 -8.816792 7.974074 100.021233 0.156434 0.000000 -0.987688 0.586523 0.297220 1 0 1.000000
  0 -25.579523 -7.971910 94.574692 0.453990 0.000000 -0.891007 0.645399 0.338576 1 0 1.000000
  0 -25.579523 7.974074 94.574692 0.453990 0.000000 -0.891007 0.645399 0.297220 1 0 1.000000
Door_01
  0 -8.816792 7.974074 100.021233 0.156434 0.000000 -0.987688 0.586523 0.297220 1 0 1.000000
  0 -8.816792 -7.971910 100.021233 0.156434 0.000000 -0.987688 0.586523 0.338576 1 0 1.000000
  0 -25.579523 -7.971910 94.574692 0.453990 0.000000 -0.891007 0.645399 0.338576 1 0 1.000000
Door_01
  0 8.808585 7.974075 100.021233 -0.156434 0.000000 -0.987688 0.527230 0.297220 1 0 1.000000
  0 -8.816792 -7.971910 100.021233 0.156434 0.000000 -0.987688 0.586523 0.338576 1 0 1.000000
  0 -8.816792 7.974074 100.021233 0.156434 0.000000 -0.987688 0.586523 0.297220 1 0 1.000000
Door_01
  0 8.808585 7.974075 100.021233 -0.156434 0.000000 -0.987688 0.527230 0.297220 1 0 1.000000
  0 8.808585 -7.971909 100.021233 -0.156434 0.000000 -0.987688 0.527230 0.338576 1 0 1.000000
  0 -8.816792 -7.971910 100.021233 0.156434 0.000000 -0.987688 0.586523 0.338576 1 0 1.000000
Door_01
  0 25.571316 7.974076 94.574692 -0.453990 0.000000 -0.891007 0.468354 0.297220 1 0 1.000000
  0 8.808585 -7.971909 100.021233 -0.156434 0.000000 -0.987688 0.527230 0.338576 1 0 1.000000
  0 8.808585 7.974075 100.021233 -0.156434 0.000000 -0.987688 0.527230 0.297220 1 0 1.000000
Door_01
  0 25.571316 7.974076 94.574692 -0.453990 0.000000 -0.891007 0.468354 0.297220 1 0 1.000000
  0 25.571316 -7.971908 94.574692 -0.453990 0.000000 -0.891007 0.468354 0.338576 1 0 1.000000
  0 8.808585 -7.971909 100.021233 -0.156434 0.000000 -0.987688 0.527230 0.338576 1 0 1.000000
Door_01
  0 39.830547 7.974078 84.214752 -0.707107 0.000000 -0.707107 0.410629 0.297220 1 0 1.000000
  0 25.571316 -7.971908 94.574692 -0.453990 0.000000 -0.891007 0.468354 0.338576 1 0 1.000000
  0 25.571316 7.974076 94.574692 -0.453990 0.000000 -0.891007 0.468354 0.297220 1 0 1.000000
Door_01
  0 39.830547 7.974078 84.214752 -0.707107 0.000000 -0.707107 0.410629 0.297220 1 0 1.000000
  0 39.830547 -7.971906 84.214752 -0.707107 0.000000 -0.707107 0.410629 0.338576 1 0 1.000000
  0 25.571316 -7.971908 94.574692 -0.453990 0.000000 -0.891007 0.468354 0.338576 1 0 1.000000
Door_01
  0 50.190483 7.974080 69.955521 -0.891007 0.000000 -0.453990 0.354545 0.297220 1 0 1.000000
  0 39.830547 -7.971906 84.214752 -0.707107 0.000000 -0.707107 0.410629 0.338576 1 0 1.000000
  0 39.830547 7.974078 84.214752 -0.707107 0.000000 -0.707107 0.410629 0.297220 1 0 1.000000
Door_01
  0 50.190483 7.974080 69.955521 -0.891007 0.000000 -0.453990 0.354545 0.297220 1 0 1.000000
  0 50.190483 -7.971905 69.955521 -0.891007 0.000000 -0.453990 0.354545 0.338576 1 0 1.000000
  0 39.830547 -7.971906 84.214752 -0.707107 0.000000 -0.707107 0.410629 0.338576 1 0 1.000000
Door_01
  0 55.637024 7.974080 53.192795 -0.987688 0.000000 -0.156434 0.300298 0.297220 1 0 1.000000
  0 50.190483 -7.971905 69.955521 -0.891007 0.000000 -0.453990 0.354545 0.338576 1 0 1.000000
  0 50.190483 7.974080 69.955521 -0.891007 0.000000 -0.453990 0.354545 0.297220 1 0 1.000000
Door_01
  0 55.637024 7.974080 53.192795 -0.987688 0.000000 -0.156434 0.300298 0.297220 1 0 1.000000
  0 55.637024 -7.971905 53.192795 -0.987688 0.000000 -0.156434 0.300298 0.338576 1 0 1.000000
  0 50.190483 -7.971905 69.955521 -0.891007 0.000000 -0.453990 0.354545 0.338576 1 0 1.000000
Door_01
  0 55.637024 7.974081 35.567417 -0.987688 0.000000 0.156434 0.247842 0.297220 1 0 1.000000
  0 55.637024 -7.971905 53.192795 -0.987688 0.000000 -0.156434 0.300298 0.338576 1 0 1.000000
  0 55.637024 7.974080 53.192795 -0.987688 0.000000 -0.156434 0.300298 0.297220 1 0 1.000000
Door_01
  0 55.637024 7.974081 35.567417 -0.987688 0.000000 0.156434 0.247842 0.297220 1 0 1.000000
  0 55.637024 -7.971904 35.567417 -0.987688 0.000000 0.156434 0.247842 0.338576 1 0 1.000000
  0 55.637024 -7.971905 53.192795 -0.987688 0.000000 -0.156434 0.300298 0.338576 1 0 1.000000
Door_01
  0 50.190483 7.974082 18.804686 -0.891007 0.000000 0.453990 0.196960 0.297220 1 0 1.000000
  0 55.637024 -7.971904 35.567417 -0.987688 0.000000 0.156434 0.247842 0.338576 1 0 1.000000
  0 55.637024 7.974081 35.567417 -0.987688 0.000000 0.156434 0.247842 0.297220 1 0 1.000000
Door_01
  0 50.190483 7.974082 18.804686 -0.891007 0.000000 0.453990 0.196960 0.297220 1 0 1.000000
  0 50.190483 -7.971903 18.804686 -0.891007 0.000000 0.453990 0.196960 0.338576 1 0 1.000000
  0 55.637024 -7.971904 35.567417 -0.987688 0.000000 0.156434 0.247842 0.338576 1 0 1.000000
Door_01
  0 39.830547 7.974082 4.545455 -0.696394 0.000000 0.717660 0.147344 0.297220 1 0 1.000000
  0 50.190483 -7.971903 18.804686 -0.891007 0.000000 0.453990 0.196960 0.338576 1 0 1.000000
  0 50.190483 7.974082 18.804686 -0.891007 0.000000 0.453990 0.196960 0.297220 1 0 1.000000
Door_01
  0 39.830547 7.974082 4.545455 -0.696394 0.000000 0.717660 0.147344 0.297220 1 0 1.000000
  0 39.830547 -7.971902 4.545455 -0.696394 0.000000 0.717660 0.147344 0.338576 1 0 1.000000
  0 50.190483 -7.971903 18.804686 -0.891007 0.000000 0.453990 0.196960 0.338576 1 0 1.000000
Door_01
  0 34.163635 -7.971902 -0.007083 -0.626288 0.000000 0.779592 0.127146 0.338576 1 0 1.000000
  0 39.830547 -7.971902 4.545455 -0.696394 0.000000 0.717660 0.147344 0.338576 1 0 1.000000
  0 39.830547 7.974082 4.545455 -0.696394 0.000000 0.717660 0.147344 0.297220 1 0 1.000000
Door_01
  0 34.163635 -7.971902 -0.007083 -0.626288 0.000000 0.779592 0.127146 0.338576 1 0 1.000000
  0 39.830547 7.974082 4.545455 -0.696394 0.000000 0.717660 0.147344 0.297220 1 0 1.000000
  0 34.163635 7.974082 -0.007083 -0.626288 0.000000 0.779592 0.127146 0.297220 1 0 1.000000
Door_01
  0 -32.293308 8.996056 0.000107 0.624160 0.085603 0.776592 0.007522 0.018412 1 0 1.000000
  0 -38.940254 8.080781 5.443258 0.689455 -0.142870 0.710098 0.031607 0.008119 1 0 1.000000
  0 -32.173492 8.080782 0.000672 0.620369 -0.142164 0.771318 0.007522 0.008119 1 0 1.000000
Door_01
  0 -32.293308 8.996056 0.000107 0.624160 0.085603 0.776592 0.007522 0.018412 1 0 1.000000
  0 -38.998386 8.996055 5.385065 0.721301 0.087813 0.687033 0.031607 0.018412 1 0 1.000000
  0 -38.940254 8.080781 5.443258 0.689455 -0.142870 0.710098 0.031607 0.008119 1 0 1.000000
Door_01
  0 -49.139793 8.996054 19.343512 0.887422 0.089620 0.452162 0.082874 0.018412 1 0 1.000000
  0 -38.940254 8.080781 5.443258 0.689455 -0.142870 0.710098 0.031607 0.008119 1 0 1.000000
  0 -38.998386 8.996055 5.385065 0.721301 0.087813 0.687033 0.031607 0.018412 1 0 1.000000
Door_01
  0 -49.139793 8.996054 19.343512 0.887422 0.089620 0.452162 0.082874 0.018412 1 0 1.000000
  0 -49.066402 8.080780 19.380960 0.881888 -0.142701 0.449344 0.082874 0.008119 1 0 1.000000
  0 -38.940254 8.080781 5.443258 0.689455 -0.142870 0.710098 0.031607 0.008119 1 0 1.000000
Door_01
  0 -54.471447 8.996053 35.752651 0.983711 0.089657 0.155804 0.141119 0.018412 1 0 1.000000
  0 -49.066402 8.080780 19.380960 0.881888 -0.142701 0.449344 0.082874 0.008119 1 0 1.000000
  0 -49.139793 8.996054 19.343512 0.887422 0.089620 0.452162 0.082874 0.018412 1 0 1.000000
Door_01
  0 -54.471447 8.996053 35.752651 0.983711 0.089657 0.155804 0.141119 0.018412 1 0 1.000000
  0 -54.390076 8.080779 35.765591 0.977580 -0.142701 0.154833 0.141119 0.008119 1 0 1.000000
  0 -49.066402 8.080780 19.380960 0.881888 -0.142701 0.449344 0.082874 0.008119 1 0 1.000000
Door_01
  0 -54.471447 8.996053 53.006241 0.983711 0.089656 -0.155805 0.206255 0.018412 1 0 1.000000
  0 -54.390076 8.080779 35.765591 0.977580 -0.142701 0.154833 0.141119 0.008119 1 0 1.000000
  0 -54.471447 8.996053 35.752651 0.983711 0.089657 0.155804 0.141119 0.018412 1 0 1.000000
Door_01
  0 -54.471447 8.996053 53.006241 0.983711 0.089656 -0.155805 0.206255 0.018412 1 0 1.000000
  0 -54.390060 8.080779 52.993401 0.977580 -0.142701 -0.154834 0.206255 0.008119 1 0 1.000000
  0 -54.390076 8.080779 35.765591 0.977580 -0.142701 0.154833 0.141119 0.008119 1 0 1.000000
Door_01
  0 -49.139793 8.996052 69.415382 0.887418 0.089656 -0.452163 0.275372 0.018412 1 0 1.000000
  0 -54.390060 8.080779 52.993401 0.977580 -0.142701 -0.154834 0.206255 0.008119 1 0 1.000000
  0 -54.471447 8.996053 53.006241 0.983711 0.089656 -0.155805 0.206255 0.018412 1 0 1.000000
Door_01
  0 -49.139793 8.996052 69.415382 0.887418 0.089656 -0.452163 0.275372 0.018412 1 0 1.000000
  0 -49.066360 8.080778 69.378014 0.881887 -0.142701 -0.449345 0.275372 0.008119 1 0 1.000000
  0 -54.390060 8.080779 52.993401 0.977580 -0.142701 -0.154834 0.206255 0.008119 1 0 1.000000
Door_01
  0 -49.066360 8.080778 69.378014 0.881887 -0.142701 -0.449345 0.275372 0.008119 1 0 1.000000
  0 -49.139793 8.996052 69.415382 0.887418 0.089656 -0.452163 0.275372 0.018412 1 0 1.000000
  0 -38.998386 8.996051 83.373833 0.704259 0.089656 -0.704259 0.343857 0.018412 1 0 1.000000
Door_01
  0 -49.066360 8.080778 69.378014 0.881887 -0.142701 -0.449345 0.275372 0.008119 1 0 1.000000
  0 -38.998386 8.996051 83.373833 0.704259 0.089656 -0.704259 0.343857 0.018412 1 0 1.000000
  0 -38.940105 8.080777 83.315590 0.699870 -0.142701 -0.699870 0.343857 0.008119 1 0 1.000000
Door_01
  0 -25.039938 8.996052 93.515236 0.452162 0.089655 -0.887418 0.408610 0.018412 1 0 1.000000
  0 -38.940105 8.080777 83.315590 0.699870 -0.142701 -0.699870 0.343857 0.008119 1 0 1.000000
  0 -38.998386 8.996051 83.373833 0.704259 0.089656 -0.704259 0.343857 0.018412 1 0 1.000000
Door_01
  0 -25.039938 8.996052 93.515236 0.452162 0.089655 -0.887418 0.408610 0.018412 1 0 1.000000
  0 -25.002520 8.080778 93.441833 0.449344 -0.142701 -0.881888 0.408610 0.008119 1 0 1.000000
  0 -38.940105 8.080777 83.315590 0.699870 -0.142701 -0.699870 0.343857 0.008119 1 0 1.000000
Door_01
  0 -25.002520 8.080778 93.441833 0.449344 -0.142701 -0.881888 0.408610 0.008119 1 0 1.000000
  0 -25.039938 8.996052 93.515236 0.452162 0.089655 -0.887418 0.408610 0.018412 1 0 1.000000
  0 -8.630798 8.996052 98.846893 0.155804 0.089655 -0.983711 0.469664 0.018412 1 0 1.000000
Door_01
  0 -25.002520 8.080778 93.441833 0.449344 -0.142701 -0.881888 0.408610 0.008119 1 0 1.000000
  0 -8.630798 8.996052 98.846893 0.155804 0.089655 -0.983711 0.469664 0.018412 1 0 1.000000
  0 -8.617909 8.080778 98.765511 0.154833 -0.142701 -0.977580 0.469664 0.008119 1 0 1.000000
Door_01
  0 8.622792 8.996052 98.846893 -0.155804 0.089655 -0.983711 0.529259 0.018412 1 0 1.000000
  0 -8.617909 8.080778 98.765511 0.154833 -0.142701 -0.977580 0.469664 0.008119 1 0 1.000000
  0 -8.630798 8.996052 98.846893 0.155804 0.089655 -0.983711 0.469664 0.018412 1 0 1.000000
Door_01
  0 8.622792 8.996052 98.846893 -0.155804 0.089655 -0.983711 0.529259 0.018412 1 0 1.000000
  0 8.609887 8.080778 98.765511 -0.154833 -0.142701 -0.977580 0.529259 0.008119 1 0 1.000000
  0 -8.617909 8.080778 98.765511 0.154833 -0.142701 -0.977580 0.469664 0.008119 1 0 1.000000
Door_01
  0 25.031931 8.996054 93.515236 -0.452162 0.089656 -0.887418 0.590316 0.018412 1 0 1.000000
  0 8.609887 8.080778 98.765511 -0.154833 -0.142701 -0.977580 0.529259 0.008119 1 0 1.000000
  0 8.622792 8.996052 98.846893 -0.155804 0.089655 -0.983711 0.529259 0.018412 1 0 1.000000
Door_01
  0 25.031931 8.996054 93.515236 -0.452162 0.089656 -0.887418 0.590316 0.018412 1 0 1.000000
  0 24.994499 8.080780 93.441841 -0.449344 -0.142701 -0.881888 0.590316 0.008119 1 0 1.000000
  0 8.609887 8.080778 98.765511 -0.154833 -0.142701 -0.977580 0.529259 0.008119 1 0 1.000000
Door_01
  0 38.990379 8.996055 83.373833 -0.704259 0.089656 -0.704259 0.655075 0.018412 1 0 1.000000
  0 24.994499 8.080780 93.441841 -0.449344 -0.142701 -0.881888 0.590316 0.008119 1 0 1.000000
  0 25.031931 8.996054 93.515236 -0.452162 0.089656 -0.887418 0.590316 0.018412 1 0 1.000000
Door_01
  0 38.990379 8.996055 83.373833 -0.704259 0.089656 -0.704259 0.655075 0.018412 1 0 1.000000
  0 38.932091 8.080781 83.315598 -0.699870 -0.142701 -0.699870 0.655075 0.008119 1 0 1.000000
  0 24.994499 8.080780 93.441841 -0.449344 -0.142701 -0.881888 0.590316 0.008119 1 0 1.000000
Door_01
  0 49.131786 8.996056 69.415382 -0.887418 0.089656 -0.452163 0.723570 0.018412 1 0 1.000000
  0 38.932091 8.080781 83.315598 -0.699870 -0.142701 -0.699870 0.655075 0.008119 1 0 1.000000
  0 38.990379 8.996055 83.373833 -0.704259 0.089656 -0.704259 0.655075 0.018412 1 0 1.000000
Door_01
  0 49.131786 8.996056 69.415382 -0.887418 0.089656 -0.452163 0.723570 0.018412 1 0 1.000000
  0 49.058353 8.080782 69.378021 -0.881887 -0.142701 -0.449345 0.723570 0.008119 1 0 1.000000
  0 38.932091 8.080781 83.315598 -0.699870 -0.142701 -0.699870 0.655075 0.008119 1 0 1.000000
Door_01
  0 49.058353 8.080782 69.378021 -0.881887 -0.142701 -0.449345 0.723570 0.008119 1 0 1.000000
  0 49.131786 8.996056 69.415382 -0.887418 0.089656 -0.452163 0.723570 0.018412 1 0 1.000000
  0 54.463440 8.996057 53.006241 -0.983710 0.089657 -0.155805 0.792696 0.018412 1 0 1.000000
Door_01
  0 49.058353 8.080782 69.378021 -0.881887 -0.142701 -0.449345 0.723570 0.008119 1 0 1.000000
  0 54.463440 8.996057 53.006241 -0.983710 0.089657 -0.155805 0.792696 0.018412 1 0 1.000000
  0 54.382053 8.080783 52.993404 -0.977580 -0.142701 -0.154834 0.792696 0.008119 1 0 1.000000
Door_01
  0 54.463440 8.996057 35.752651 -0.983711 0.089657 0.155804 0.857841 0.018412 1 0 1.000000
  0 54.382053 8.080783 52.993404 -0.977580 -0.142701 -0.154834 0.792696 0.008119 1 0 1.000000
  0 54.463440 8.996057 53.006241 -0.983710 0.089657 -0.155805 0.792696 0.018412 1 0 1.000000
Door_01
  0 54.463440 8.996057 35.752651 -0.983711 0.089657 0.155804 0.857841 0.018412 1 0 1.000000
  0 54.382069 8.080783 35.765591 -0.977580 -0.142701 0.154833 0.857841 0.008119 1 0 1.000000
  0 54.382053 8.080783 52.993404 -0.977580 -0.142701 -0.154834 0.792696 0.008119 1 0 1.000000
Door_01
  0 49.131786 8.996058 19.343512 -0.887422 0.089622 0.452162 0.916092 0.018412 1 0 1.000000
  0 54.382069 8.080783 35.765591 -0.977580 -0.142701 0.154833 0.857841 0.008119 1 0 1.000000
  0 54.463440 8.996057 35.752651 -0.983711 0.089657 0.155804 0.857841 0.018412 1 0 1.000000
Door_01
  0 49.131786 8.996058 19.343512 -0.887422 0.089622 0.452162 0.916092 0.018412 1 0 1.000000
  0 49.058392 8.080784 19.380955 -0.881888 -0.142700 0.449344 0.916092 0.008119 1 0 1.000000
  0 54.382069 8.080783 35.765591 -0.977580 -0.142701 0.154833 0.857841 0.008119 1 0 1.000000
Door_01
  0 38.990379 8.996058 5.385065 -0.721512 0.087850 0.686806 0.967362 0.018412 1 0 1.000000
  0 49.058392 8.080784 19.380955 -0.881888 -0.142700 0.449344 0.916092 0.008119 1 0 1.000000
  0 49.131786 8.996058 19.343512 -0.887422 0.089622 0.452162 0.916092 0.018412 1 0 1.000000
Door_01
  0 38.990379 8.996058 5.385065 -0.721512 0.087850 0.686806 0.967362 0.018412 1 0 1.000000
  0 38.932236 8.080785 5.443252 -0.689673 -0.142866 0.709887 0.967362 0.008119 1 0 1.000000
  0 49.058392 8.080784 19.380955 -0.881888 -0.142700 0.449344 0.916092 0.008119 1 0 1.000000
Door_01
  0 38.990379 8.996058 5.385065 -0.721512 0.087850 0.686806 0.967362 0.018412 1 0 1.000000
  0 32.170582 8.080784 -0.002058 -0.620841 -0.142167 0.770937 0.991434 0.008119 1 0 1.000000
  0 38.932236 8.080785 5.443252 -0.689673 -0.142866 0.709887 0.967362 0.008119 1 0 1.000000
Door_01
  0 38.990379 8.996058 5.385065 -0.721512 0.087850 0.686806 0.967362 0.018412 1 0 1.000000
  0 32.291763 8.996058 -0.001630 -0.624638 0.085682 0.776200 0.991434 0.018412 1 0 1.000000
  0 32.170582 8.080784 -0.002058 -0.620841 -0.142167 0.770937 0.991434 0.008119 1 0 1.000000
Door_01
  0 32.291763 -8.993880 -0.001631 -0.624638 -0.085682 0.776200 0.991610 0.023181 1 0 1.000000
  0 38.932236 -8.078608 5.443251 -0.689673 0.142866 0.709887 0.967537 0.033475 1 0 1.000000
  0 32.170582 -8.078609 -0.002059 -0.620841 0.142167 0.770937 0.991610 0.033475 1 0 1.000000
Door_01
  0 32.291763 -8.993880 -0.001631 -0.624638 -0.085682 0.776200 0.991610 0.023181 1 0 1.000000
  0 38.990379 -8.993879 5.385064 -0.721512 -0.087850 0.686806 0.967537 0.023181 1 0 1.000000
  0 38.932236 -8.078608 5.443251 -0.689673 0.142866 0.709887 0.967537 0.033475 1 0 1.000000
Door_01
  0 49.131786 -8.993880 19.343512 -0.887422 -0.089622 0.452162 0.916267 0.023181 1 0 1.000000
  0 38.932236 -8.078608 5.443251 -0.689673 0.142866 0.709887 0.967537 0.033475 1 0 1.000000
  0 38.990379 -8.993879 5.385064 -0.721512 -0.087850 0.686806 0.967537 0.023181 1 0 1.000000
Door_01
  0 49.131786 -8.993880 19.343512 -0.887422 -0.089622 0.452162 0.916267 0.023181 1 0 1.000000
  0 49.058392 -8.078608 19.380955 -0.881888 0.142700 0.449344 0.916267 0.033475 1 0 1.000000
  0 38.932236 -8.078608 5.443251 -0.689673 0.142866 0.709887 0.967537 0.033475 1 0 1.000000
Door_01
  0 49.058392 -8.078608 19.380955 -0.881888 0.142700 0.449344 0.916267 0.033475 1 0 1.000000
  0 49.131786 -8.993880 19.343512 -0.887422 -0.089622 0.452162 0.916267 0.023181 1 0 1.000000
  0 54.463440 -8.993881 35.752651 -0.983711 -0.089657 0.155804 0.858017 0.023181 1 0 1.000000
Door_01
  0 49.058392 -8.078608 19.380955 -0.881888 0.142700 0.449344 0.916267 0.033475 1 0 1.000000
  0 54.463440 -8.993881 35.752651 -0.983711 -0.089657 0.155804 0.858017 0.023181 1 0 1.000000
  0 54.382069 -8.078609 35.765591 -0.977580 0.142701 0.154833 0.858017 0.033475 1 0 1.000000
Door_01
  0 54.382069 -8.078609 35.765591 -0.977580 0.142701 0.154833 0.858017 0.033475 1 0 1.000000
  0 54.463440 -8.993881 35.752651 -0.983711 -0.089657 0.155804 0.858017 0.023181 1 0 1.000000
  0 54.463440 -8.993881 53.006241 -0.983710 -0.089657 -0.155805 0.792872 0.023181 1 0 1.000000
Door_01
  0 54.382069 -8.078609 35.765591 -0.977580 0.142701 0.154833 0.858017 0.033475 1 0 1.000000
  0 54.463440 -8.993881 53.006241 -0.983710 -0.089657 -0.155805 0.792872 0.023181 1 0 1.000000
  0 54.382053 -8.078609 52.993404 -0.977580 0.142701 -0.154834 0.792872 0.033475 1 0 1.000000
Door_01
  0 54.382053 -8.078609 52.993404 -0.977580 0.142701 -0.154834 0.792872 0.033475 1 0 1.000000
  0 54.463440 -8.993881 53.006241 -0.983710 -0.089657 -0.155805 0.792872 0.023181 1 0 1.000000
  0 49.131786 -8.993882 69.415382 -0.887418 -0.089656 -0.452163 0.723745 0.023181 1 0 1.000000
Door_01
  0 54.382053 -8.078609 52.993404 -0.977580 0.142701 -0.154834 0.792872 0.033475 1 0 1.000000
  0 49.131786 -8.993882 69.415382 -0.887418 -0.089656 -0.452163 0.723745 0.023181 1 0 1.000000
  0 49.058353 -8.078609 69.378021 -0.881887 0.142701 -0.449345 0.723745 0.033475 1 0 1.000000
Door_01
  0 49.058353 -8.078609 69.378021 -0.881887 0.142701 -0.449345 0.723745 0.033475 1 0 1.000000
  0 49.131786 -8.993882 69.415382 -0.887418 -0.089656 -0.452163 0.723745 0.023181 1 0 1.000000
  0 38.990379 -8.993883 83.373833 -0.704259 -0.089656 -0.704259 0.655250 0.023181 1 0 1.000000
Door_01
  0 49.058353 -8.078609 69.378021 -0.881887 0.142701 -0.449345 0.723745 0.033475 1 0 1.000000
  0 38.990379 -8.993883 83.373833 -0.704259 -0.089656 -0.704259 0.655250 0.023181 1 0 1.000000
  0 38.932091 -8.078610 83.315598 -0.699870 0.142701 -0.699870 0.655250 0.033475 1 0 1.000000
Door_01
  0 38.932091 -8.078610 83.315598 -0.699870 0.142701 -0.699870 0.655250 0.033475 1 0 1.000000
  0 38.990379 -8.993883 83.373833 -0.704259 -0.089656 -0.704259 0.655250 0.023181 1 0 1.000000
  0 25.031931 -8.993884 93.515236 -0.452162 -0.089656 -0.887418 0.590491 0.023181 1 0 1.000000
Door_01
  0 38.932091 -8.078610 83.315598 -0.699870 0.142701 -0.699870 0.655250 0.033475 1 0 1.000000
  0 25.031931 -8.993884 93.515236 -0.452162 -0.089656 -0.887418 0.590491 0.023181 1 0 1.000000
  0 24.994499 -8.078611 93.441841 -0.449344 0.142701 -0.881888 0.590491 0.033475 1 0 1.000000
Door_01
  0 24.994499 -8.078611 93.441841 -0.449344 0.142701 -0.881888 0.590491 0.033475 1 0 1.000000
  0 25.031931 -8.993884 93.515236 -0.452162 -0.089656 -0.887418 0.590491 0.023181 1 0 1.000000
  0 8.622792 -8.993886 98.846893 -0.155804 -0.089655 -0.983711 0.529435 0.023181 1 0 1.000000
Door_01
  0 24.994499 -8.078611 93.441841 -0.449344 0.142701 -0.881888 0.590491 0.033475 1 0 1.000000
  0 8.622792 -8.993886 98.846893 -0.155804 -0.089655 -0.983711 0.529435 0.023181 1 0 1.000000
  0 8.609887 -8.078613 98.765511 -0.154833 0.142701 -0.977580 0.529435 0.033475 1 0 1.000000
Door_01
  0 8.609887 -8.078613 98.765511 -0.154833 0.142701 -0.977580 0.529435 0.033475 1 0 1.000000
  0 8.622792 -8.993886 98.846893 -0.155804 -0.089655 -0.983711 0.529435 0.023181 1 0 1.000000
  0 -8.630798 -8.993886 98.846893 0.155804 -0.089655 -0.983711 0.469840 0.023181 1 0 1.000000
Door_01
  0 8.609887 -8.078613 98.765511 -0.154833 0.142701 -0.977580 0.529435 0.033475 1 0 1.000000
  0 -8.630798 -8.993886 98.846893 0.155804 -0.089655 -0.983711 0.469840 0.023181 1 0 1.000000
  0 -8.617909 -8.078613 98.765511 0.154833 0.142701 -0.977580 0.469840 0.033475 1 0 1.000000
Door_01
  0 -8.617909 -8.078613 98.765511 0.154833 0.142701 -0.977580 0.469840 0.033475 1 0 1.000000
  0 -8.630798 -8.993886 98.846893 0.155804 -0.089655 -0.983711 0.469840 0.023181 1 0 1.000000
  0 -25.039938 -8.993886 93.515236 0.452162 -0.089655 -0.887418 0.408786 0.023181 1 0 1.000000
Door_01
  0 -8.617909 -8.078613 98.765511 0.154833 0.142701 -0.977580 0.469840 0.033475 1 0 1.000000
  0 -25.039938 -8.993886 93.515236 0.452162 -0.089655 -0.887418 0.408786 0.023181 1 0 1.000000
  0 -25.002520 -8.078613 93.441833 0.449344 0.142701 -0.881888 0.408786 0.033475 1 0 1.000000
Door_01
  0 -25.002520 -8.078613 93.441833 0.449344 0.142701 -0.881888 0.408786 0.033475 1 0 1.000000
  0 -25.039938 -8.993886 93.515236 0.452162 -0.089655 -0.887418 0.408786 0.023181 1 0 1.000000
  0 -38.998386 -8.993887 83.373833 0.704259 -0.089656 -0.704259 0.344033 0.023181 1 0 1.000000
Door_01
  0 -25.002520 -8.078613 93.441833 0.449344 0.142701 -0.881888 0.408786 0.033475 1 0 1.000000
  0 -38.998386 -8.993887 83.373833 0.704259 -0.089656 -0.704259 0.344033 0.023181 1 0 1.000000
  0 -38.940105 -8.078614 83.315590 0.699870 0.142701 -0.699870 0.344033 0.033475 1 0 1.000000
Door_01
  0 -38.940105 -8.078614 83.315590 0.699870 0.142701 -0.699870 0.344033 0.033475 1 0 1.000000
  0 -38.998386 -8.993887 83.373833 0.704259 -0.089656 -0.704259 0.344033 0.023181 1 0 1.000000
  0 -49.139793 -8.993886 69.415382 0.887418 -0.089656 -0.452163 0.275547 0.023181 1 0 1.000000
Door_01
  0 -38.940105 -8.078614 83.315590 0.699870 0.142701 -0.699870 0.344033 0.033475 1 0 1.000000
  0 -49.139793 -8.993886 69.415382 0.887418 -0.089656 -0.452163 0.275547 0.023181 1 0 1.000000
  0 -49.066360 -8.078613 69.378014 0.881887 0.142701 -0.449345 0.275547 0.033475 1 0 1.000000
Door_01
  0 -49.066360 -8.078613 69.378014 0.881887 0.142701 -0.449345 0.275547 0.033475 1 0 1.000000
  0 -49.139793 -8.993886 69.415382 0.887418 -0.089656 -0.452163 0.275547 0.023181 1 0 1.000000
  0 -54.471447 -8.993885 53.006241 0.983711 -0.089656 -0.155805 0.206431 0.023181 1 0 1.000000
Door_01
  0 -49.066360 -8.078613 69.378014 0.881887 0.142701 -0.449345 0.275547 0.033475 1 0 1.000000
  0 -54.471447 -8.993885 53.006241 0.983711 -0.089656 -0.155805 0.206431 0.023181 1 0 1.000000
  0 -54.390060 -8.078612 52.993401 0.977580 0.142701 -0.154834 0.206431 0.033475 1 0 1.000000
Door_01
  0 -54.471447 -8.993885 35.752651 0.983711 -0.089657 0.155804 0.141294 0.023181 1 0 1.000000
  0 -54.390060 -8.078612 52.993401 0.977580 0.142701 -0.154834 0.206431 0.033475 1 0 1.000000
  0 -54.471447 -8.993885 53.006241 0.983711 -0.089656 -0.155805 0.206431 0.023181 1 0 1.000000
Door_01
  0 -54.471447 -8.993885 35.752651 0.983711 -0.089657 0.155804 0.141294 0.023181 1 0 1.000000
  0 -54.390076 -8.078612 35.765591 0.977580 0.142701 0.154833 0.141294 0.033475 1 0 1.000000
  0 -54.390060 -8.078612 52.993401 0.977580 0.142701 -0.154834 0.206431 0.033475 1 0 1.000000
Door_01
  0 -49.139793 -8.993884 19.343512 0.887422 -0.089620 0.452162 0.083050 0.023181 1 0 1.000000
  0 -54.390076 -8.078612 35.765591 0.977580 0.142701 0.154833 0.141294 0.033475 1 0 1.000000
  0 -54.471447 -8.993885 35.752651 0.983711 -0.089657 0.155804 0.141294 0.023181 1 0 1.000000
Door_01
  0 -49.139793 -8.993884 19.343512 0.887422 -0.089620 0.452162 0.083050 0.023181 1 0 1.000000
  0 -49.066402 -8.078611 19.380960 0.881888 0.142701 0.449344 0.083050 0.033475 1 0 1.000000
  0 -54.390076 -8.078612 35.765591 0.977580 0.142701 0.154833 0.141294 0.033475 1 0 1.000000
Door_01
  0 -38.998386 -8.993883 5.385064 0.721301 -0.087813 0.687033 0.031782 0.023181 1 0 1.000000
  0 -49.066402 -8.078611 19.380960 0.881888 0.142701 0.449344 0.083050 0.033475 1 0 1.000000
  0 -49.139793 -8.993884 19.343512 0.887422 -0.089620 0.452162 0.083050 0.023181 1 0 1.000000
Door_01
  0 -38.998386 -8.993883 5.385064 0.721301 -0.087813 0.687033 0.031782 0.023181 1 0 1.000000
  0 -38.940254 -8.078611 5.443257 0.689455 0.142870 0.710098 0.031782 0.033475 1 0 1.000000
  0 -49.066402 -8.078611 19.380960 0.881888 0.142701 0.449344 0.083050 0.033475 1 0 1.000000
Door_01
  0 -38.998386 -8.993883 5.385064 0.721301 -0.087813 0.687033 0.031782 0.023181 1 0 1.000000
  0 -32.173492 -8.078610 0.000671 0.620369 0.142164 0.771318 0.007698 0.033475 1 0 1.000000
  0 -38.940254 -8.078611 5.443257 0.689455 0.142870 0.710098 0.031782 0.033475 1 0 1.000000
Door_01
  0 -38.998386 -8.993883 5.385064 0.721301 -0.087813 0.687033 0.031782 0.023181 1 0 1.000000
  0 -32.293308 -8.993882 0.000107 0.624160 -0.085603 0.776592 0.007698 0.023181 1 0 1.000000
  0 -32.173492 -8.078610 0.000671 0.620369 0.142164 0.771318 0.007698 0.033475 1 0 1.000000
Door_01
  0 -32.173492 8.080782 0.000672 0.052544 -0.996486 0.065226 0.131400 0.596257 1 0 1.000000
  0 -39.838753 7.974078 4.545455 0.000000 -1.000000 0.000000 0.104215 0.612375 1 0 1.000000
  0 -34.216076 7.974079 0.007417 0.000000 -1.000000 0.000000 0.124156 0.596281 1 0 1.000000
Door_01
  0 -32.173492 8.080782 0.000672 0.052544 -0.996486 0.065226 0.131400 0.596257 1 0 1.000000
  0 -38.940254 8.080781 5.443258 0.058197 -0.996508 0.059879 0.107670 0.615828 1 0 1.000000
  0 -39.838753 7.974078 4.545455 0.000000 -1.000000 0.000000 0.104215 0.612375 1 0 1.000000
Door_01
  0 -49.066402 8.080780 19.380960 0.074569 -0.996492 0.037995 0.071827 0.665162 1 0 1.000000
  0 -39.838753 7.974078 4.545455 0.000000 -1.000000 0.000000 0.104215 0.612375 1 0 1.000000
  0 -38.940254 8.080781 5.443258 0.058197 -0.996508 0.059879 0.107670 0.615828 1 0 1.000000
Door_01
  0 -49.066402 8.080780 19.380960 0.074569 -0.996492 0.037995 0.071827 0.665162 1 0 1.000000
  0 -50.198692 7.974077 18.804686 0.000000 -1.000000 0.000000 0.067473 0.662946 1 0 1.000000
  0 -39.838753 7.974078 4.545455 0.000000 -1.000000 0.000000 0.104215 0.612375 1 0 1.000000
Door_01
  0 -54.390076 8.080779 35.765591 0.082647 -0.996493 0.013090 0.052983 0.723157 1 0 1.000000
  0 -50.198692 7.974077 18.804686 0.000000 -1.000000 0.000000 0.067473 0.662946 1 0 1.000000
  0 -49.066402 8.080780 19.380960 0.074569 -0.996492 0.037995 0.071827 0.665162 1 0 1.000000
Door_01
  0 -54.390076 8.080779 35.765591 0.082647 -0.996493 0.013090 0.052983 0.723157 1 0 1.000000
  0 -55.645233 7.974076 35.567417 0.000000 -1.000000 0.000000 0.048156 0.722395 1 0 1.000000
  0 -50.198692 7.974077 18.804686 0.000000 -1.000000 0.000000 0.067473 0.662946 1 0 1.000000
Door_01
  0 -54.390060 8.080779 52.993401 0.082634 -0.996494 -0.013088 0.052983 0.784137 1 0 1.000000
  0 -55.645233 7.974076 35.567417 0.000000 -1.000000 0.000000 0.048156 0.722395 1 0 1.000000
  0 -54.390076 8.080779 35.765591 0.082647 -0.996493 0.013090 0.052983 0.723157 1 0 1.000000
Door_01
  0 -54.390060 8.080779 52.993401 0.082634 -0.996494 -0.013088 0.052983 0.784137 1 0 1.000000
  0 -55.645233 7.974075 53.192795 0.000000 -1.000000 0.000000 0.048156 0.784904 1 0 1.000000
  0 -55.645233 7.974076 35.567417 0.000000 -1.000000 0.000000 0.048156 0.722395 1 0 1.000000
Door_01
  0 -49.066360 8.080778 69.378014 0.074535 -0.996495 -0.037977 0.071827 0.842133 1 0 1.000000
  0 -55.645233 7.974075 53.192795 0.000000 -1.000000 0.000000 0.048156 0.784904 1 0 1.000000
  0 -54.390060 8.080779 52.993401 0.082634 -0.996494 -0.013088 0.052983 0.784137 1 0 1.000000
Door_01
  0 -49.066360 8.080778 69.378014 0.074535 -0.996495 -0.037977 0.071827 0.842133 1 0 1.000000
  0 -50.198692 7.974075 69.955521 0.000000 -1.000000 0.000000 0.067473 0.844354 1 0 1.000000
  0 -55.645233 7.974075 53.192795 0.000000 -1.000000 0.000000 0.048156 0.784904 1 0 1.000000
Door_01
  0 -38.940105 8.080777 83.315590 0.059144 -0.996496 -0.059144 0.107670 0.891467 1 0 1.000000
  0 -50.198692 7.974075 69.955521 0.000000 -1.000000 0.000000 0.067473 0.844354 1 0 1.000000
  0 -49.066360 8.080778 69.378014 0.074535 -0.996495 -0.037977 0.071827 0.842133 1 0 1.000000
Door_01
  0 -38.940105 8.080777 83.315590 0.059144 -0.996496 -0.059144 0.107670 0.891467 1 0 1.000000
  0 -39.838753 7.974074 84.214752 0.000000 -1.000000 0.000000 0.104215 0.894924 1 0 1.000000
  0 -50.198692 7.974075 69.955521 0.000000 -1.000000 0.000000 0.067473 0.844354 1 0 1.000000
Door_01
  0 -25.002520 8.080778 93.441833 0.037970 -0.996496 -0.074520 0.157004 0.927310 1 0 1.000000
  0 -39.838753 7.974074 84.214752 0.000000 -1.000000 0.000000 0.104215 0.894924 1 0 1.000000
  0 -38.940105 8.080777 83.315590 0.059144 -0.996496 -0.059144 0.107670 0.891467 1 0 1.000000
Door_01
  0 -25.002520 8.080778 93.441833 0.037970 -0.996496 -0.074520 0.157004 0.927310 1 0 1.000000
  0 -25.579523 7.974074 94.574692 0.000000 -1.000000 0.000000 0.154785 0.931666 1 0 1.000000
  0 -39.838753 7.974074 84.214752 0.000000 -1.000000 0.000000 0.104215 0.894924 1 0 1.000000
Door_01
  0 -8.617909 8.080778 98.765511 0.013083 -0.996496 -0.082604 0.215000 0.946154 1 0 1.000000
  0 -25.579523 7.974074 94.574692 0.000000 -1.000000 0.000000 0.154785 0.931666 1 0 1.000000
  0 -25.002520 8.080778 93.441833 0.037970 -0.996496 -0.074520 0.157004 0.927310 1 0 1.000000
Door_01
  0 -8.617909 8.080778 98.765511 0.013083 -0.996496 -0.082604 0.215000 0.946154 1 0 1.000000
  0 -8.816792 7.974074 100.021233 0.000000 -1.000000 0.000000 0.214235 0.950983 1 0 1.000000
  0 -25.579523 7.974074 94.574692 0.000000 -1.000000 0.000000 0.154785 0.931666 1 0 1.000000
Door_01
  0 8.609887 8.080778 98.765511 -0.013084 -0.996496 -0.082606 0.275980 0.946154 1 0 1.000000
  0 -8.816792 7.974074 100.021233 0.000000 -1.000000 0.000000 0.214235 0.950983 1 0 1.000000
  0 -8.617909 8.080778 98.765511 0.013083 -0.996496 -0.082604 0.215000 0.946154 1 0 1.000000
Door_01
  0 8.609887 8.080778 98.765511 -0.013084 -0.996496 -0.082606 0.275980 0.946154 1 0 1.000000
  0 8.808585 7.974075 100.021233 0.000000 -1.000000 0.000000 0.276744 0.950983 1 0 1.000000
  0 -8.816792 7.974074 100.021233 0.000000 -1.000000 0.000000 0.214235 0.950983 1 0 1.000000
Door_01
  0 24.994499 8.080780 93.441841 -0.037973 -0.996496 -0.074526 0.333976 0.927310 1 0 1.000000
  0 8.808585 7.974075 100.021233 0.000000 -1.000000 0.000000 0.276744 0.950983 1 0 1.000000
  0 8.609887 8.080778 98.765511 -0.013084 -0.996496 -0.082606 0.275980 0.946154 1 0 1.000000
Door_01
  0 24.994499 8.080780 93.441841 -0.037973 -0.996496 -0.074526 0.333976 0.927310 1 0 1.000000
  0 25.571316 7.974076 94.574692 0.000000 -1.000000 0.000000 0.336193 0.931666 1 0 1.000000
  0 8.808585 7.974075 100.021233 0.000000 -1.000000 0.000000 0.276744 0.950983 1 0 1.000000
Door_01
  0 39.830547 7.974078 84.214752 0.000000 -1.000000 0.000000 0.386764 0.894924 1 0 1.000000
  0 25.571316 7.974076 94.574692 0.000000 -1.000000 0.000000 0.336193 0.931666 1 0 1.000000
  0 24.994499 8.080780 93.441841 -0.037973 -0.996496 -0.074526 0.333976 0.927310 1 0 1.000000
Door_01
  0 39.830547 7.974078 84.214752 0.000000 -1.000000 0.000000 0.386764 0.894924 1 0 1.000000
  0 24.994499 8.080780 93.441841 -0.037973 -0.996496 -0.074526 0.333976 0.927310 1 0 1.000000
  0 38.932091 8.080781 83.315598 -0.059151 -0.996495 -0.059151 0.383309 0.891467 1 0 1.000000
Door_01
  0 49.058353 8.080782 69.378021 -0.074545 -0.996494 -0.037982 0.419153 0.842133 1 0 1.000000
  0 39.830547 7.974078 84.214752 0.000000 -1.000000 0.000000 0.386764 0.894924 1 0 1.000000
  0 38.932091 8.080781 83.315598 -0.059151 -0.996495 -0.059151 0.383309 0.891467 1 0 1.000000
Door_01
  0 49.058353 8.080782 69.378021 -0.074545 -0.996494 -0.037982 0.419153 0.842133 1 0 1.000000
  0 50.190483 7.974080 69.955521 0.000000 -1.000000 0.000000 0.423506 0.844354 1 0 1.000000
  0 39.830547 7.974078 84.214752 0.000000 -1.000000 0.000000 0.386764 0.894924 1 0 1.000000
Door_01
  0 54.382053 8.080783 52.993404 -0.082647 -0.996493 -0.013090 0.437997 0.784137 1 0 1.000000
  0 50.190483 7.974080 69.955521 0.000000 -1.000000 0.000000 0.423506 0.844354 1 0 1.000000
  0 49.058353 8.080782 69.378021 -0.074545 -0.996494 -0.037982 0.419153 0.842133 1 0 1.000000
Door_01
  0 54.382053 8.080783 52.993404 -0.082647 -0.996493 -0.013090 0.437997 0.784137 1 0 1.000000
  0 55.637024 7.974080 53.192795 0.000000 -1.000000 0.000000 0.442822 0.784904 1 0 1.000000
  0 50.190483 7.974080 69.955521 0.000000 -1.000000 0.000000 0.423506 0.844354 1 0 1.000000
Door_01
  0 54.382069 8.080783 35.765591 -0.082660 -0.996492 0.013092 0.437997 0.723157 1 0 1.000000
  0 55.637024 7.974080 53.192795 0.000000 -1.000000 0.000000 0.442822 0.784904 1 0 1.000000
  0 54.382053 8.080783 52.993404 -0.082647 -0.996493 -0.013090 0.437997 0.784137 1 0 1.000000
Door_01
  0 54.382069 8.080783 35.765591 -0.082660 -0.996492 0.013092 0.437997 0.723157 1 0 1.000000
  0 55.637024 7.974081 35.567417 0.000000 -1.000000 0.000000 0.442822 0.722395 1 0 1.000000
  0 55.637024 7.974080 53.192795 0.000000 -1.000000 0.000000 0.442822 0.784904 1 0 1.000000
Door_01
  0 49.058392 8.080784 19.380955 -0.074580 -0.996491 0.038000 0.419153 0.665162 1 0 1.000000
  0 55.637024 7.974081 35.567417 0.000000 -1.000000 0.000000 0.442822 0.722395 1 0 1.000000
  0 54.382069 8.080783 35.765591 -0.082660 -0.996492 0.013092 0.437997 0.723157 1 0 1.000000
Door_01
  0 49.058392 8.080784 19.380955 -0.074580 -0.996491 0.038000 0.419153 0.665162 1 0 1.000000
  0 50.190483 7.974082 18.804686 0.000000 -1.000000 0.000000 0.423506 0.662946 1 0 1.000000
  0 55.637024 7.974081 35.567417 0.000000 -1.000000 0.000000 0.442822 0.722395 1 0 1.000000
Door_01
  0 50.190483 7.974082 18.804686 0.000000 -1.000000 0.000000 0.423506 0.662946 1 0 1.000000
  0 49.058392 8.080784 19.380955 -0.074580 -0.996491 0.038000 0.419153 0.665162 1 0 1.000000
  0 38.932236 8.080785 5.443252 -0.058418 -0.996475 0.060199 0.383309 0.615828 1 0 1.000000
Door_01
  0 50.190483 7.974082 18.804686 0.000000 -1.000000 0.000000 0.423506 0.662946 1 0 1.000000
  0 38.932236 8.080785 5.443252 -0.058418 -0.996475 0.060199 0.383309 0.615828 1 0 1.000000
  0 39.830547 7.974082 4.545455 0.000000 -1.000000 0.000000 0.386764 0.612375 1 0 1.000000
Door_01
  0 38.932236 8.080785 5.443252 -0.058418 -0.996475 0.060199 0.383309 0.615828 1 0 1.000000
  0 34.163635 7.974082 -0.007083 0.000000 -1.000000 0.000000 0.366666 0.596229 1 0 1.000000
  0 39.830547 7.974082 4.545455 0.000000 -1.000000 0.000000 0.386764 0.612375 1 0 1.000000
Door_01
  0 38.932236 8.080785 5.443252 -0.058418 -0.996475 0.060199 0.383309 0.615828 1 0 1.000000
  0 32.170582 8.080784 -0.002058 -0.052980 -0.996421 0.065860 0.359598 0.596247 1 0 1.000000
  0 34.163635 7.974082 -0.007083 0.000000 -1.000000 0.000000 0.366666 0.596229 1 0 1.000000
end
