// Created by Crowbar 0.74
version 1
nodes
  0 "static_prop" -1
end
skeleton
  time 0
    0 0.000000 0.000000 0.000000 0.000000 0.000000 0.000000
end
triangles
  phy
    0 0.253418 1.982233 -2.892716 -0.749173 0.192791 0.633696 0 0
    0 0.742141 1.286528 2.744552 0.687039 -0.360328 0.630984 0 0
    0 0.742141 1.286528 -2.892716 0.000000 0.086371 0.996263 0 0
  phy
    0 0.253418 1.982233 -2.892716 -0.749173 0.192791 0.633696 0 0
    0 0.253418 1.982233 2.744552 -0.876275 -0.033236 0.480664 0 0
    0 0.742141 1.286528 2.744552 0.687039 -0.360328 0.630984 0 0
  phy
    0 -0.926463 2.415621 2.744552 -0.957088 -0.265046 -0.117184 0 0
    0 0.253418 1.982233 2.744552 -0.876275 -0.033236 0.480664 0 0
    0 -0.926463 2.415621 -2.892716 -0.958023 0.261598 0.117299 0 0
  phy
    0 -0.926463 2.415621 -2.892716 -0.958023 0.261598 0.117299 0 0
    0 0.253418 1.982233 2.744552 -0.876275 -0.033236 0.480664 0 0
    0 0.253418 1.982233 -2.892716 -0.749173 0.192791 0.633696 0 0
  phy
    0 0.253418 1.982233 -2.892716 -0.749173 0.192791 0.633696 0 0
    0 0.742141 1.286528 -2.892716 0.000000 0.086371 0.996263 0 0
    0 0.253418 0.106647 -2.892716 0.971214 0.119471 0.206085 0 0
  phy
    0 0.253418 1.982233 -2.892716 -0.749173 0.192791 0.633696 0 0
    0 0.253418 0.106647 -2.892716 0.971214 0.119471 0.206085 0 0
    0 -0.926463 2.415621 -2.892716 -0.958023 0.261598 0.117299 0 0
  phy
    0 -0.926463 2.415621 -2.892716 -0.958023 0.261598 0.117299 0 0
    0 0.253418 0.106647 -2.892716 0.971214 0.119471 0.206085 0 0
    0 -2.106345 1.982233 -2.892716 -0.787676 0.414144 -0.456127 0 0
  phy
    0 -2.106345 1.982233 -2.892716 -0.787676 0.414144 -0.456127 0 0
    0 0.253418 0.106647 -2.892716 0.971214 0.119471 0.206085 0 0
    0 -2.106345 0.106647 -2.892716 0.931044 0.175949 -0.319686 0 0
  phy
    0 -2.106345 1.982233 -2.892716 -0.787676 0.414144 -0.456127 0 0
    0 -2.106345 0.106647 -2.892716 0.931044 0.175949 -0.319686 0 0
    0 -2.719518 1.127442 -2.892716 -0.218537 0.072710 -0.973116 0 0
  phy
    0 -2.719518 1.127442 2.744552 0.910527 -0.314420 -0.268477 0 0
    0 -2.106345 1.982233 2.744552 -0.746153 -0.040860 -0.664519 0 0
    0 -2.719518 1.127442 -2.892716 -0.218537 0.072710 -0.973116 0 0
  phy
    0 -2.719518 1.127442 -2.892716 -0.218537 0.072710 -0.973116 0 0
    0 -2.106345 1.982233 2.744552 -0.746153 -0.040860 -0.664519 0 0
    0 -2.106345 1.982233 -2.892716 -0.787676 0.414144 -0.456127 0 0
  phy
    0 -2.106345 1.982233 2.744552 -0.746153 -0.040860 -0.664519 0 0
    0 -0.926463 2.415621 2.744552 -0.957088 -0.265046 -0.117184 0 0
    0 -2.106345 1.982233 -2.892716 -0.787676 0.414144 -0.456127 0 0
  phy
    0 -2.106345 1.982233 -2.892716 -0.787676 0.414144 -0.456127 0 0
    0 -0.926463 2.415621 2.744552 -0.957088 -0.265046 -0.117184 0 0
    0 -0.926463 2.415621 -2.892716 -0.958023 0.261598 0.117299 0 0
  phy
    0 0.742141 1.286528 2.744552 0.687039 -0.360328 0.630984 0 0
    0 -0.926463 2.415621 2.744552 -0.957088 -0.265046 -0.117184 0 0
    0 -2.719518 1.127442 2.744552 0.910527 -0.314420 -0.268477 0 0
  phy
    0 0.742141 1.286528 2.744552 0.687039 -0.360328 0.630984 0 0
    0 0.253418 1.982233 2.744552 -0.876275 -0.033236 0.480664 0 0
    0 -0.926463 2.415621 2.744552 -0.957088 -0.265046 -0.117184 0 0
  phy
    0 -0.926463 2.415621 2.744552 -0.957088 -0.265046 -0.117184 0 0
    0 -2.106345 1.982233 2.744552 -0.746153 -0.040860 -0.664519 0 0
    0 -2.719518 1.127442 2.744552 0.910527 -0.314420 -0.268477 0 0
  phy
    0 0.742141 1.286528 -2.892716 0.000000 0.086371 0.996263 0 0
    0 0.742141 1.286528 2.744552 0.687039 -0.360328 0.630984 0 0
    0 0.253418 0.106647 -2.892716 0.971214 0.119471 0.206085 0 0
  phy
    0 -2.719518 1.127442 2.744552 0.910527 -0.314420 -0.268477 0 0
    0 -2.719518 1.127442 -2.892716 -0.218537 0.072710 -0.973116 0 0
    0 -2.106345 0.106647 -2.892716 0.931044 0.175949 -0.319686 0 0
  phy
    0 0.253418 0.106647 -2.892716 0.971214 0.119471 0.206085 0 0
    0 0.742141 1.286528 2.744552 0.687039 -0.360328 0.630984 0 0
    0 -2.719518 1.127442 2.744552 0.910527 -0.314420 -0.268477 0 0
  phy
    0 -2.719518 1.127442 2.744552 0.910527 -0.314420 -0.268477 0 0
    0 -2.106345 0.106647 -2.892716 0.931044 0.175949 -0.319686 0 0
    0 0.253418 0.106647 -2.892716 0.971214 0.119471 0.206085 0 0
end
