// Created by Crowbar 0.74
version 1
nodes
  0 "static_prop" -1
end
skeleton
  time 0
    0 0.000000 0.000000 0.000000 0.000000 0.000000 0.000000
end
triangles
  phy
    0 -2.687643 0.203720 -2.848294 -0.689995 0.510170 -0.513452 0 0
    0 -3.139771 -0.863341 -2.848294 -0.172976 0.047153 -0.983797 0 0
    0 -2.687643 0.203720 2.670497 -0.626332 -0.444933 -0.640112 0 0
  phy
    0 -2.687643 0.203720 2.670497 -0.626332 -0.444933 -0.640112 0 0
    0 -3.139771 -0.863341 -2.848294 -0.172976 0.047153 -0.983797 0 0
    0 -3.139771 -0.863341 2.670497 0.112588 -0.051532 -0.992305 0 0
  phy
    0 -3.139771 -0.863341 -2.848294 -0.172976 0.047153 -0.983797 0 0
    0 -2.758090 -1.701353 -2.848294 0.799558 0.141728 -0.583627 0 0
    0 -3.139771 -0.863341 2.670497 0.112588 -0.051532 -0.992305 0 0
  phy
    0 -3.139771 -0.863341 2.670497 0.112588 -0.051532 -0.992305 0 0
    0 -2.758090 -1.701353 -2.848294 0.799558 0.141728 -0.583627 0 0
    0 -2.758090 -1.701353 2.670497 0.776504 -0.275282 -0.566799 0 0
  phy
    0 0.785570 1.842307 2.670497 -0.572777 -0.037499 0.818853 0 0
    0 0.352236 2.100504 2.670497 -0.770511 -0.481028 -0.418241 0 0
    0 1.519486 0.070477 2.670497 0.000000 -0.105166 0.994455 0 0
  phy
    0 0.352236 2.100504 2.670497 -0.770511 -0.481028 -0.418241 0 0
    0 0.785570 -1.701353 2.670497 0.750443 -0.337354 0.568355 0 0
    0 1.519486 0.070477 2.670497 0.000000 -0.105166 0.994455 0 0
  phy
    0 0.352236 2.100504 2.670497 -0.770511 -0.481028 -0.418241 0 0
    0 -0.986260 -2.435270 2.670497 0.798642 -0.591617 -0.110270 0 0
    0 0.785570 -1.701353 2.670497 0.750443 -0.337354 0.568355 0 0
  phy
    0 0.352236 2.100504 2.670497 -0.770511 -0.481028 -0.418241 0 0
    0 -2.687643 0.203720 2.670497 -0.626332 -0.444933 -0.640112 0 0
    0 -0.986260 -2.435270 2.670497 0.798642 -0.591617 -0.110270 0 0
  phy
    0 -2.687643 0.203720 2.670497 -0.626332 -0.444933 -0.640112 0 0
    0 -2.758090 -1.701353 2.670497 0.776504 -0.275282 -0.566799 0 0
    0 -0.986260 -2.435270 2.670497 0.798642 -0.591617 -0.110270 0 0
  phy
    0 -2.687643 0.203720 2.670497 -0.626332 -0.444933 -0.640112 0 0
    0 -3.139771 -0.863341 2.670497 0.112588 -0.051532 -0.992305 0 0
    0 -2.758090 -1.701353 2.670497 0.776504 -0.275282 -0.566799 0 0
  phy
    0 0.785570 -1.701353 -2.848294 0.549520 0.414210 0.725574 0 0
    0 1.519486 0.070477 2.670497 0.000000 -0.105166 0.994455 0 0
    0 0.785570 -1.701353 2.670497 0.750443 -0.337354 0.568355 0 0
  phy
    0 0.785570 -1.701353 -2.848294 0.549520 0.414210 0.725574 0 0
    0 1.519486 0.070477 -2.848294 0.000000 0.606256 0.795269 0 0
    0 1.519486 0.070477 2.670497 0.000000 -0.105166 0.994455 0 0
  phy
    0 0.785570 -1.701353 2.670497 0.750443 -0.337354 0.568355 0 0
    0 -0.986260 -2.435270 -2.848294 0.944620 0.301134 0.130425 0 0
    0 0.785570 -1.701353 -2.848294 0.549520 0.414210 0.725574 0 0
  phy
    0 0.785570 -1.701353 2.670497 0.750443 -0.337354 0.568355 0 0
    0 -0.986260 -2.435270 2.670497 0.798642 -0.591617 -0.110270 0 0
    0 -0.986260 -2.435270 -2.848294 0.944620 0.301134 0.130425 0 0
  phy
    0 0.352236 2.100504 2.670497 -0.770511 -0.481028 -0.418241 0 0
    0 0.785570 1.842307 2.670497 -0.572777 -0.037499 0.818853 0 0
    0 0.352236 2.100504 -2.848294 -0.940549 0.070099 -0.332346 0 0
  phy
    0 0.352236 2.100504 -2.848294 -0.940549 0.070099 -0.332346 0 0
    0 0.785570 1.842307 2.670497 -0.572777 -0.037499 0.818853 0 0
    0 0.785570 1.842307 -2.848294 -0.417799 0.356923 0.835494 0 0
  phy
    0 1.519486 0.070477 2.670497 0.000000 -0.105166 0.994455 0 0
    0 0.785570 1.842307 -2.848294 -0.417799 0.356923 0.835494 0 0
    0 0.785570 1.842307 2.670497 -0.572777 -0.037499 0.818853 0 0
  phy
    0 1.519486 0.070477 2.670497 0.000000 -0.105166 0.994455 0 0
    0 1.519486 0.070477 -2.848294 0.000000 0.606256 0.795269 0 0
    0 0.785570 1.842307 -2.848294 -0.417799 0.356923 0.835494 0 0
  phy
    0 -2.687643 0.203720 2.670497 -0.626332 -0.444933 -0.640112 0 0
    0 0.352236 2.100504 2.670497 -0.770511 -0.481028 -0.418241 0 0
    0 -2.687643 0.203720 -2.848294 -0.689995 0.510170 -0.513452 0 0
  phy
    0 -2.687643 0.203720 -2.848294 -0.689995 0.510170 -0.513452 0 0
    0 0.352236 2.100504 2.670497 -0.770511 -0.481028 -0.418241 0 0
    0 0.352236 2.100504 -2.848294 -0.940549 0.070099 -0.332346 0 0
  phy
    0 -2.687643 0.203720 -2.848294 -0.689995 0.510170 -0.513452 0 0
    0 0.352236 2.100504 -2.848294 -0.940549 0.070099 -0.332346 0 0
    0 0.785570 1.842307 -2.848294 -0.417799 0.356923 0.835494 0 0
  phy
    0 -2.687643 0.203720 -2.848294 -0.689995 0.510170 -0.513452 0 0
    0 0.785570 1.842307 -2.848294 -0.417799 0.356923 0.835494 0 0
    0 1.519486 0.070477 -2.848294 0.000000 0.606256 0.795269 0 0
  phy
    0 -2.687643 0.203720 -2.848294 -0.689995 0.510170 -0.513452 0 0
    0 1.519486 0.070477 -2.848294 0.000000 0.606256 0.795269 0 0
    0 0.785570 -1.701353 -2.848294 0.549520 0.414210 0.725574 0 0
  phy
    0 -2.687643 0.203720 -2.848294 -0.689995 0.510170 -0.513452 0 0
    0 0.785570 -1.701353 -2.848294 0.549520 0.414210 0.725574 0 0
    0 -0.986260 -2.435270 -2.848294 0.944620 0.301134 0.130425 0 0
  phy
    0 -2.687643 0.203720 -2.848294 -0.689995 0.510170 -0.513452 0 0
    0 -0.986260 -2.435270 -2.848294 0.944620 0.301134 0.130425 0 0
    0 -2.758090 -1.701353 -2.848294 0.799558 0.141728 -0.583627 0 0
  phy
    0 -2.687643 0.203720 -2.848294 -0.689995 0.510170 -0.513452 0 0
    0 -2.758090 -1.701353 -2.848294 0.799558 0.141728 -0.583627 0 0
    0 -3.139771 -0.863341 -2.848294 -0.172976 0.047153 -0.983797 0 0
  phy
    0 -2.758090 -1.701353 -2.848294 0.799558 0.141728 -0.583627 0 0
    0 -0.986260 -2.435270 2.670497 0.798642 -0.591617 -0.110270 0 0
    0 -2.758090 -1.701353 2.670497 0.776504 -0.275282 -0.566799 0 0
  phy
    0 -2.758090 -1.701353 -2.848294 0.799558 0.141728 -0.583627 0 0
    0 -0.986260 -2.435270 -2.848294 0.944620 0.301134 0.130425 0 0
    0 -0.986260 -2.435270 2.670497 0.798642 -0.591617 -0.110270 0 0
  phy
    0 1.247985 -0.301578 1.990638 0.942126 -0.081711 -0.325149 0 0
    0 3.307063 -0.301578 -1.220184 0.932423 0.164411 0.321801 0 0
    0 3.099721 -0.301578 1.990638 0.878687 -0.368973 0.302931 0 0
  phy
    0 1.247985 -0.301578 1.990638 0.942126 -0.081711 -0.325149 0 0
    0 1.277605 -0.301578 -1.575778 0.947939 0.171909 -0.268066 0 0
    0 3.307063 -0.301578 -1.220184 0.932423 0.164411 0.321801 0 0
  phy
    0 3.307063 -0.301578 -1.220184 0.932423 0.164411 0.321801 0 0
    0 3.099721 0.336816 1.990638 -0.949771 -0.104153 0.295105 0 0
    0 3.099721 -0.301578 1.990638 0.878687 -0.368973 0.302931 0 0
  phy
    0 3.307063 -0.301578 -1.220184 0.932423 0.164411 0.321801 0 0
    0 3.307063 0.336816 -1.220184 -0.932293 0.164564 0.322100 0 0
    0 3.099721 0.336816 1.990638 -0.949771 -0.104153 0.295105 0 0
  phy
    0 3.099721 -0.301578 1.990638 0.878687 -0.368973 0.302931 0 0
    0 1.247985 0.336816 1.990638 -0.896229 -0.318286 -0.308979 0 0
    0 1.247985 -0.301578 1.990638 0.942126 -0.081711 -0.325149 0 0
  phy
    0 3.099721 -0.301578 1.990638 0.878687 -0.368973 0.302931 0 0
    0 3.099721 0.336816 1.990638 -0.949771 -0.104153 0.295105 0 0
    0 1.247985 0.336816 1.990638 -0.896229 -0.318286 -0.308979 0 0
  phy
    0 3.307063 -0.301578 -1.220184 0.932423 0.164411 0.321801 0 0
    0 1.277605 -0.301578 -1.575778 0.947939 0.171909 -0.268066 0 0
    0 1.277605 0.336816 -1.575778 -0.938132 0.186930 -0.291489 0 0
  phy
    0 3.307063 -0.301578 -1.220184 0.932423 0.164411 0.321801 0 0
    0 1.277605 0.336816 -1.575778 -0.938132 0.186930 -0.291489 0 0
    0 3.307063 0.336816 -1.220184 -0.932293 0.164564 0.322100 0 0
  phy
    0 1.277605 -0.301578 -1.575778 0.947939 0.171909 -0.268066 0 0
    0 1.247985 -0.301578 1.990638 0.942126 -0.081711 -0.325149 0 0
    0 1.277605 0.336816 -1.575778 -0.938132 0.186930 -0.291489 0 0
  phy
    0 1.277605 0.336816 -1.575778 -0.938132 0.186930 -0.291489 0 0
    0 1.247985 -0.301578 1.990638 0.942126 -0.081711 -0.325149 0 0
    0 1.247985 0.336816 1.990638 -0.896229 -0.318286 -0.308979 0 0
  phy
    0 3.307063 0.336816 -1.220184 -0.932293 0.164564 0.322100 0 0
    0 1.277605 0.336816 -1.575778 -0.938132 0.186930 -0.291489 0 0
    0 3.099721 0.336816 1.990638 -0.949771 -0.104153 0.295105 0 0
  phy
    0 3.099721 0.336816 1.990638 -0.949771 -0.104153 0.295105 0 0
    0 1.277605 0.336816 -1.575778 -0.938132 0.186930 -0.291489 0 0
    0 1.247985 0.336816 1.990638 -0.896229 -0.318286 -0.308979 0 0
end
