// Created by Crowbar 0.74
version 1
nodes
  0 "static_prop" -1
end
skeleton
  time 0
    0 0.000000 0.000000 0.000000 0.000000 0.000000 0.000000
end
triangles
  phy
    0 10.327836 -11.625898 64.476968 0.863810 -0.077877 0.497763 0 0
    0 10.327836 -11.625892 -64.476968 0.396983 0.071580 0.915031 0 0
    0 10.327834 11.625892 64.476968 -0.650844 -0.117354 0.750086 0 0
  phy
    0 10.327836 -11.625892 -64.476968 0.396983 0.071580 0.915031 0 0
    0 10.327834 11.625898 -64.476968 -0.637802 0.230005 0.735055 0 0
    0 10.327834 11.625892 64.476968 -0.650844 -0.117354 0.750086 0 0
  phy
    0 -9.847568 11.625892 64.476968 -0.396983 -0.071580 -0.915031 0 0
    0 10.327834 11.625892 64.476968 -0.650844 -0.117354 0.750086 0 0
    0 -9.847568 11.625898 -64.476968 -0.863810 0.077877 -0.497763 0 0
  phy
    0 -9.847568 11.625898 -64.476968 -0.863810 0.077877 -0.497763 0 0
    0 10.327834 11.625892 64.476968 -0.650844 -0.117354 0.750086 0 0
    0 10.327834 11.625898 -64.476968 -0.637802 0.230005 0.735055 0 0
  phy
    0 10.327834 11.625898 -64.476968 -0.637802 0.230005 0.735055 0 0
    0 10.327836 -11.625892 -64.476968 0.396983 0.071580 0.915031 0 0
    0 -9.847566 -11.625892 -64.476968 0.650844 0.117354 -0.750086 0 0
  phy
    0 10.327834 11.625898 -64.476968 -0.637802 0.230005 0.735055 0 0
    0 -9.847566 -11.625892 -64.476968 0.650844 0.117354 -0.750086 0 0
    0 -9.847568 11.625898 -64.476968 -0.863810 0.077877 -0.497763 0 0
  phy
    0 10.327836 -11.625898 64.476968 0.863810 -0.077877 0.497763 0 0
    0 -9.847566 -11.625892 -64.476968 0.650844 0.117354 -0.750086 0 0
    0 10.327836 -11.625892 -64.476968 0.396983 0.071580 0.915031 0 0
  phy
    0 10.327836 -11.625898 64.476968 0.863810 -0.077877 0.497763 0 0
    0 -9.847566 -11.625898 64.476968 0.637802 -0.230005 -0.735055 0 0
    0 -9.847566 -11.625892 -64.476968 0.650844 0.117354 -0.750086 0 0
  phy
    0 -9.847568 11.625898 -64.476968 -0.863810 0.077877 -0.497763 0 0
    0 -9.847566 -11.625892 -64.476968 0.650844 0.117354 -0.750086 0 0
    0 -9.847568 11.625892 64.476968 -0.396983 -0.071580 -0.915031 0 0
  phy
    0 -9.847568 11.625892 64.476968 -0.396983 -0.071580 -0.915031 0 0
    0 -9.847566 -11.625892 -64.476968 0.650844 0.117354 -0.750086 0 0
    0 -9.847566 -11.625898 64.476968 0.637802 -0.230005 -0.735055 0 0
  phy
    0 -9.847566 -11.625898 64.476968 0.637802 -0.230005 -0.735055 0 0
    0 10.327834 11.625892 64.476968 -0.650844 -0.117354 0.750086 0 0
    0 -9.847568 11.625892 64.476968 -0.396983 -0.071580 -0.915031 0 0
  phy
    0 -9.847566 -11.625898 64.476968 0.637802 -0.230005 -0.735055 0 0
    0 10.327836 -11.625898 64.476968 0.863810 -0.077877 0.497763 0 0
    0 10.327834 11.625892 64.476968 -0.650844 -0.117354 0.750086 0 0
end
