// Created by Crowbar 0.74
version 1
nodes
  0 "Scene_Root" -1
  1 "Root" 0
  2 "Screen_TR" 1
  3 "Screen_BL" 1
end
skeleton
  time 0
    0 0.000000 0.000000 0.000000 1.570796 0.000000 0.000000
    1 0.000000 0.000000 0.000000 0.000000 0.000000 0.000000
    2 75.126396 94.613602 -7.221797 0.000000 0.000000 0.000000
    3 7.668623 30.828308 -74.930145 0.000000 0.000000 0.000000
end
triangles
  phy
    0 -94.660848 25.363804 1.529596 -0.014527 -0.998834 -0.046039 0 0
    0 -69.296794 69.296125 1.529836 -0.164414 -0.974829 -0.150590 0 0
    0 -84.870724 48.999585 1.529725 -0.359398 -0.743566 -0.563864 0 0
  phy
    0 -94.660848 25.363804 1.529596 -0.014527 -0.998834 -0.046039 0 0
    0 -49.000407 84.870249 1.529920 -0.092304 -0.994572 -0.048024 0 0
    0 -69.296794 69.296125 1.529836 -0.164414 -0.974829 -0.150590 0 0
  phy
    0 -94.660848 25.363804 1.529596 -0.014527 -0.998834 -0.046039 0 0
    0 -25.364722 94.660598 1.529974 -0.004148 -0.999991 -0.000919 0 0
    0 -49.000407 84.870249 1.529920 -0.092304 -0.994572 -0.048024 0 0
  phy
    0 -94.660848 25.363804 1.529596 -0.014527 -0.998834 -0.046039 0 0
    0 -97.999995 -0.000480 1.529458 -0.001811 -0.999147 -0.041267 0 0
    0 -25.364722 94.660598 1.529974 -0.004148 -0.999991 -0.000919 0 0
  phy
    0 -97.999995 -0.000480 1.529458 -0.001811 -0.999147 -0.041267 0 0
    0 -94.660606 -25.364730 1.529319 0.006622 -0.999531 -0.029903 0 0
    0 -25.364722 94.660598 1.529974 -0.004148 -0.999991 -0.000919 0 0
  phy
    0 -94.660606 -25.364730 1.529319 0.006622 -0.999531 -0.029903 0 0
    0 -84.870257 -49.000415 1.529191 0.002294 -0.999988 -0.004410 0 0
    0 -25.364722 94.660598 1.529974 -0.004148 -0.999991 -0.000919 0 0
  phy
    0 -84.870257 -49.000415 1.529191 0.002294 -0.999988 -0.004410 0 0
    0 84.870724 -48.999601 1.529191 0.001414 -0.999995 0.002717 0 0
    0 -25.364722 94.660598 1.529974 -0.004148 -0.999991 -0.000919 0 0
  phy
    0 94.660848 -25.363821 1.529319 0.048208 -0.974829 0.217682 0 0
    0 94.660606 25.364714 1.529596 -0.006146 -0.999791 0.019477 0 0
    0 84.870724 -48.999601 1.529191 0.001414 -0.999995 0.002717 0 0
  phy
    0 94.660606 25.364714 1.529596 -0.006146 -0.999791 0.019477 0 0
    0 25.363812 94.660840 1.529974 -0.013641 -0.999902 0.003021 0 0
    0 84.870724 -48.999601 1.529191 0.001414 -0.999995 0.002717 0 0
  phy
    0 25.363812 94.660840 1.529974 -0.013641 -0.999902 0.003021 0 0
    0 -0.000472 97.999987 1.529992 -0.013604 -0.999907 0.000000 0 0
    0 84.870724 -48.999601 1.529191 0.001414 -0.999995 0.002717 0 0
  phy
    0 -0.000472 97.999987 1.529992 -0.013604 -0.999907 0.000000 0 0
    0 -25.364722 94.660598 1.529974 -0.004148 -0.999991 -0.000919 0 0
    0 84.870724 -48.999601 1.529191 0.001414 -0.999995 0.002717 0 0
  phy
    0 84.870724 -48.999601 1.529191 0.001414 -0.999995 0.002717 0 0
    0 69.296794 -69.296141 1.529080 0.451632 -0.743565 0.493091 0 0
    0 84.870724 -48.999590 -0.470810 0.359398 0.743566 0.563864 0 0
  phy
    0 69.296794 -69.296141 1.529080 0.451632 -0.743565 0.493091 0 0
    0 69.296794 -69.296130 -0.470921 0.035600 0.998834 0.032607 0 0
    0 84.870724 -48.999590 -0.470810 0.359398 0.743566 0.563864 0 0
  phy
    0 84.870724 -48.999601 1.529191 0.001414 -0.999995 0.002717 0 0
    0 94.660848 -25.363810 -0.470681 0.000948 0.999995 0.003003 0 0
    0 94.660848 -25.363821 1.529319 0.048208 -0.974829 0.217682 0 0
  phy
    0 84.870724 -48.999601 1.529191 0.001414 -0.999995 0.002717 0 0
    0 84.870724 -48.999590 -0.470810 0.359398 0.743566 0.563864 0 0
    0 94.660848 -25.363810 -0.470681 0.000948 0.999995 0.003003 0 0
  phy
    0 84.870724 -48.999601 1.529191 0.001414 -0.999995 0.002717 0 0
    0 49.000407 -84.870265 1.528995 0.188012 -0.974829 0.119836 0 0
    0 69.296794 -69.296141 1.529080 0.451632 -0.743565 0.493091 0 0
  phy
    0 84.870724 -48.999601 1.529191 0.001414 -0.999995 0.002717 0 0
    0 25.364722 -94.660614 1.528942 0.099227 -0.994572 0.031310 0 0
    0 49.000407 -84.870265 1.528995 0.188012 -0.974829 0.119836 0 0
  phy
    0 84.870724 -48.999601 1.529191 0.001414 -0.999995 0.002717 0 0
    0 0.000472 -98.000003 1.528923 0.061110 -0.998127 0.002682 0 0
    0 25.364722 -94.660614 1.528942 0.099227 -0.994572 0.031310 0 0
  phy
    0 84.870724 -48.999601 1.529191 0.001414 -0.999995 0.002717 0 0
    0 -25.363812 -94.660856 1.528942 0.053112 -0.998487 -0.014231 0 0
    0 0.000472 -98.000003 1.528923 0.061110 -0.998127 0.002682 0 0
  phy
    0 84.870724 -48.999601 1.529191 0.001414 -0.999995 0.002717 0 0
    0 -48.999593 -84.870732 1.528995 0.025827 -0.999531 -0.016462 0 0
    0 -25.363812 -94.660856 1.528942 0.053112 -0.998487 -0.014231 0 0
  phy
    0 84.870724 -48.999601 1.529191 0.001414 -0.999995 0.002717 0 0
    0 -69.296133 -69.296802 1.529080 0.016436 -0.999704 -0.017945 0 0
    0 -48.999593 -84.870732 1.528995 0.025827 -0.999531 -0.016462 0 0
  phy
    0 84.870724 -48.999601 1.529191 0.001414 -0.999995 0.002717 0 0
    0 -84.870257 -49.000415 1.529191 0.002294 -0.999988 -0.004410 0 0
    0 -69.296133 -69.296802 1.529080 0.016436 -0.999704 -0.017945 0 0
  phy
    0 97.999995 0.000463 1.529458 -0.029315 -0.743566 0.668020 0 0
    0 94.660606 25.364725 -0.470405 -0.013226 0.998127 0.059722 0 0
    0 94.660606 25.364714 1.529596 -0.006146 -0.999791 0.019477 0 0
  phy
    0 97.999995 0.000463 1.529458 -0.029315 -0.743566 0.668020 0 0
    0 97.999995 0.000474 -0.470543 0.001028 0.999725 0.023415 0 0
    0 94.660606 25.364725 -0.470405 -0.013226 0.998127 0.059722 0 0
  phy
    0 94.660848 -25.363821 1.529319 0.048208 -0.974829 0.217682 0 0
    0 97.999995 0.000474 -0.470543 0.001028 0.999725 0.023415 0 0
    0 97.999995 0.000463 1.529458 -0.029315 -0.743566 0.668020 0 0
  phy
    0 94.660848 -25.363821 1.529319 0.048208 -0.974829 0.217682 0 0
    0 94.660848 -25.363810 -0.470681 0.000948 0.999995 0.003003 0 0
    0 97.999995 0.000474 -0.470543 0.001028 0.999725 0.023415 0 0
  phy
    0 97.999995 0.000463 1.529458 -0.029315 -0.743566 0.668020 0 0
    0 94.660606 25.364714 1.529596 -0.006146 -0.999791 0.019477 0 0
    0 94.660848 -25.363821 1.529319 0.048208 -0.974829 0.217682 0 0
  phy
    0 25.363812 94.660851 -0.470027 -0.027346 0.999589 0.008629 0 0
    0 48.999593 84.870727 -0.470080 -0.563864 0.743566 0.359398 0 0
    0 69.296133 69.296796 -0.470165 -0.150590 0.974829 0.164414 0 0
  phy
    0 25.363812 94.660851 -0.470027 -0.027346 0.999589 0.008629 0 0
    0 69.296133 69.296796 -0.470165 -0.150590 0.974829 0.164414 0 0
    0 84.870257 49.000410 -0.470276 -0.048024 0.994572 0.092304 0 0
  phy
    0 25.363812 94.660851 -0.470027 -0.027346 0.999589 0.008629 0 0
    0 84.870257 49.000410 -0.470276 -0.048024 0.994572 0.092304 0 0
    0 94.660606 25.364725 -0.470405 -0.013226 0.998127 0.059722 0 0
  phy
    0 25.363812 94.660851 -0.470027 -0.027346 0.999589 0.008629 0 0
    0 94.660606 25.364725 -0.470405 -0.013226 0.998127 0.059722 0 0
    0 97.999995 0.000474 -0.470543 0.001028 0.999725 0.023415 0 0
  phy
    0 25.363812 94.660851 -0.470027 -0.027346 0.999589 0.008629 0 0
    0 97.999995 0.000474 -0.470543 0.001028 0.999725 0.023415 0 0
    0 -0.000472 97.999998 -0.470009 -0.024102 0.999710 0.000000 0 0
  phy
    0 -0.000472 97.999998 -0.470009 -0.024102 0.999710 0.000000 0 0
    0 97.999995 0.000474 -0.470543 0.001028 0.999725 0.023415 0 0
    0 94.660848 -25.363810 -0.470681 0.000948 0.999995 0.003003 0 0
  phy
    0 -0.000472 97.999998 -0.470009 -0.024102 0.999710 0.000000 0 0
    0 94.660848 -25.363810 -0.470681 0.000948 0.999995 0.003003 0 0
    0 -25.364722 94.660609 -0.470027 -0.019477 0.999791 -0.006146 0 0
  phy
    0 -25.364722 94.660609 -0.470027 -0.019477 0.999791 -0.006146 0 0
    0 94.660848 -25.363810 -0.470681 0.000948 0.999995 0.003003 0 0
    0 -49.000407 84.870259 -0.470080 -0.015134 0.999839 -0.009646 0 0
  phy
    0 -49.000407 84.870259 -0.470080 -0.015134 0.999839 -0.009646 0 0
    0 94.660848 -25.363810 -0.470681 0.000948 0.999995 0.003003 0 0
    0 -69.296794 69.296135 -0.470165 -0.011090 0.999865 -0.012108 0 0
  phy
    0 -69.296794 69.296135 -0.470165 -0.011090 0.999865 -0.012108 0 0
    0 94.660848 -25.363810 -0.470681 0.000948 0.999995 0.003003 0 0
    0 -84.870724 48.999595 -0.470276 -0.007193 0.999879 -0.013825 0 0
  phy
    0 -84.870724 48.999595 -0.470276 -0.007193 0.999879 -0.013825 0 0
    0 94.660848 -25.363810 -0.470681 0.000948 0.999995 0.003003 0 0
    0 -94.660848 25.363815 -0.470405 -0.003312 0.999883 -0.014957 0 0
  phy
    0 -94.660848 25.363815 -0.470405 -0.003312 0.999883 -0.014957 0 0
    0 94.660848 -25.363810 -0.470681 0.000948 0.999995 0.003003 0 0
    0 -97.999995 -0.000469 -0.470543 0.000258 0.999983 -0.005889 0 0
  phy
    0 -97.999995 -0.000469 -0.470543 0.000258 0.999983 -0.005889 0 0
    0 94.660848 -25.363810 -0.470681 0.000948 0.999995 0.003003 0 0
    0 0.000472 -97.999993 -0.471077 0.006426 0.999979 -0.000282 0 0
  phy
    0 -97.999995 -0.000469 -0.470543 0.000258 0.999983 -0.005889 0 0
    0 0.000472 -97.999993 -0.471077 0.006426 0.999979 -0.000282 0 0
    0 -69.296133 -69.296791 -0.470921 0.021146 0.999589 -0.019368 0 0
  phy
    0 -97.999995 -0.000469 -0.470543 0.000258 0.999983 -0.005889 0 0
    0 -69.296133 -69.296791 -0.470921 0.021146 0.999589 -0.019368 0 0
    0 -94.660606 -25.364720 -0.470681 0.067091 0.974829 -0.212622 0 0
  phy
    0 -94.660606 -25.364720 -0.470681 0.067091 0.974829 -0.212622 0 0
    0 -69.296133 -69.296791 -0.470921 0.021146 0.999589 -0.019368 0 0
    0 -84.870257 -49.000404 -0.470810 0.359398 0.743566 -0.563864 0 0
  phy
    0 -69.296133 -69.296791 -0.470921 0.021146 0.999589 -0.019368 0 0
    0 0.000472 -97.999993 -0.471077 0.006426 0.999979 -0.000282 0 0
    0 -25.363812 -94.660845 -0.471059 0.145460 0.988596 -0.038976 0 0
  phy
    0 -69.296133 -69.296791 -0.470921 0.021146 0.999589 -0.019368 0 0
    0 -25.363812 -94.660845 -0.471059 0.145460 0.988596 -0.038976 0 0
    0 -48.999593 -84.870722 -0.471006 0.593180 0.743566 -0.308622 0 0
  phy
    0 0.000472 -97.999993 -0.471077 0.006426 0.999979 -0.000282 0 0
    0 94.660848 -25.363810 -0.470681 0.000948 0.999995 0.003003 0 0
    0 69.296794 -69.296130 -0.470921 0.035600 0.998834 0.032607 0 0
  phy
    0 0.000472 -97.999993 -0.471077 0.006426 0.999979 -0.000282 0 0
    0 69.296794 -69.296130 -0.470921 0.035600 0.998834 0.032607 0 0
    0 25.364722 -94.660604 -0.471059 0.217682 0.974829 0.048208 0 0
  phy
    0 25.364722 -94.660604 -0.471059 0.217682 0.974829 0.048208 0 0
    0 69.296794 -69.296130 -0.470921 0.035600 0.998834 0.032607 0 0
    0 49.000407 -84.870254 -0.471006 0.593180 0.743566 0.308622 0 0
  phy
    0 69.296794 -69.296130 -0.470921 0.035600 0.998834 0.032607 0 0
    0 94.660848 -25.363810 -0.470681 0.000948 0.999995 0.003003 0 0
    0 84.870724 -48.999590 -0.470810 0.359398 0.743566 0.563864 0 0
  phy
    0 25.364722 -94.660614 1.528942 0.099227 -0.994572 0.031310 0 0
    0 49.000407 -84.870254 -0.471006 0.593180 0.743566 0.308622 0 0
    0 49.000407 -84.870265 1.528995 0.188012 -0.974829 0.119836 0 0
  phy
    0 25.364722 -94.660614 1.528942 0.099227 -0.994572 0.031310 0 0
    0 25.364722 -94.660604 -0.471059 0.217682 0.974829 0.048208 0 0
    0 49.000407 -84.870254 -0.471006 0.593180 0.743566 0.308622 0 0
  phy
    0 0.000472 -98.000003 1.528923 0.061110 -0.998127 0.002682 0 0
    0 25.364722 -94.660604 -0.471059 0.217682 0.974829 0.048208 0 0
    0 25.364722 -94.660614 1.528942 0.099227 -0.994572 0.031310 0 0
  phy
    0 0.000472 -98.000003 1.528923 0.061110 -0.998127 0.002682 0 0
    0 0.000472 -97.999993 -0.471077 0.006426 0.999979 -0.000282 0 0
    0 25.364722 -94.660604 -0.471059 0.217682 0.974829 0.048208 0 0
  phy
    0 -94.660848 25.363815 -0.470405 -0.003312 0.999883 -0.014957 0 0
    0 -94.660848 25.363804 1.529596 -0.014527 -0.998834 -0.046039 0 0
    0 -84.870724 48.999595 -0.470276 -0.007193 0.999879 -0.013825 0 0
  phy
    0 -84.870724 48.999595 -0.470276 -0.007193 0.999879 -0.013825 0 0
    0 -94.660848 25.363804 1.529596 -0.014527 -0.998834 -0.046039 0 0
    0 -84.870724 48.999585 1.529725 -0.359398 -0.743566 -0.563864 0 0
  phy
    0 -97.999995 -0.000480 1.529458 -0.001811 -0.999147 -0.041267 0 0
    0 -94.660848 25.363804 1.529596 -0.014527 -0.998834 -0.046039 0 0
    0 -94.660848 25.363815 -0.470405 -0.003312 0.999883 -0.014957 0 0
  phy
    0 -97.999995 -0.000480 1.529458 -0.001811 -0.999147 -0.041267 0 0
    0 -94.660848 25.363815 -0.470405 -0.003312 0.999883 -0.014957 0 0
    0 -97.999995 -0.000469 -0.470543 0.000258 0.999983 -0.005889 0 0
  phy
    0 25.363812 94.660840 1.529974 -0.013641 -0.999902 0.003021 0 0
    0 69.296133 69.296785 1.529836 -0.164414 -0.974829 0.150590 0 0
    0 48.999593 84.870716 1.529920 -0.593180 -0.743566 0.308622 0 0
  phy
    0 25.363812 94.660840 1.529974 -0.013641 -0.999902 0.003021 0 0
    0 84.870257 49.000399 1.529725 -0.055925 -0.994572 0.087742 0 0
    0 69.296133 69.296785 1.529836 -0.164414 -0.974829 0.150590 0 0
  phy
    0 25.363812 94.660840 1.529974 -0.013641 -0.999902 0.003021 0 0
    0 94.660606 25.364714 1.529596 -0.006146 -0.999791 0.019477 0 0
    0 84.870257 49.000399 1.529725 -0.055925 -0.994572 0.087742 0 0
  phy
    0 -0.000472 97.999987 1.529992 -0.013604 -0.999907 0.000000 0 0
    0 25.363812 94.660840 1.529974 -0.013641 -0.999902 0.003021 0 0
    0 -0.000472 97.999998 -0.470009 -0.024102 0.999710 0.000000 0 0
  phy
    0 -0.000472 97.999998 -0.470009 -0.024102 0.999710 0.000000 0 0
    0 25.363812 94.660840 1.529974 -0.013641 -0.999902 0.003021 0 0
    0 25.363812 94.660851 -0.470027 -0.027346 0.999589 0.008629 0 0
  phy
    0 25.363812 94.660840 1.529974 -0.013641 -0.999902 0.003021 0 0
    0 48.999593 84.870716 1.529920 -0.593180 -0.743566 0.308622 0 0
    0 25.363812 94.660851 -0.470027 -0.027346 0.999589 0.008629 0 0
  phy
    0 48.999593 84.870716 1.529920 -0.593180 -0.743566 0.308622 0 0
    0 69.296133 69.296785 1.529836 -0.164414 -0.974829 0.150590 0 0
    0 48.999593 84.870727 -0.470080 -0.563864 0.743566 0.359398 0 0
  phy
    0 48.999593 84.870727 -0.470080 -0.563864 0.743566 0.359398 0 0
    0 69.296133 69.296785 1.529836 -0.164414 -0.974829 0.150590 0 0
    0 69.296133 69.296796 -0.470165 -0.150590 0.974829 0.164414 0 0
  phy
    0 69.296133 69.296796 -0.470165 -0.150590 0.974829 0.164414 0 0
    0 84.870257 49.000399 1.529725 -0.055925 -0.994572 0.087742 0 0
    0 84.870257 49.000410 -0.470276 -0.048024 0.994572 0.092304 0 0
  phy
    0 69.296133 69.296796 -0.470165 -0.150590 0.974829 0.164414 0 0
    0 69.296133 69.296785 1.529836 -0.164414 -0.974829 0.150590 0 0
    0 84.870257 49.000399 1.529725 -0.055925 -0.994572 0.087742 0 0
  phy
    0 94.660606 25.364714 1.529596 -0.006146 -0.999791 0.019477 0 0
    0 84.870257 49.000410 -0.470276 -0.048024 0.994572 0.092304 0 0
    0 84.870257 49.000399 1.529725 -0.055925 -0.994572 0.087742 0 0
  phy
    0 94.660606 25.364714 1.529596 -0.006146 -0.999791 0.019477 0 0
    0 94.660606 25.364725 -0.470405 -0.013226 0.998127 0.059722 0 0
    0 84.870257 49.000410 -0.470276 -0.048024 0.994572 0.092304 0 0
  phy
    0 49.000407 -84.870265 1.528995 0.188012 -0.974829 0.119836 0 0
    0 69.296794 -69.296130 -0.470921 0.035600 0.998834 0.032607 0 0
    0 69.296794 -69.296141 1.529080 0.451632 -0.743565 0.493091 0 0
  phy
    0 49.000407 -84.870265 1.528995 0.188012 -0.974829 0.119836 0 0
    0 49.000407 -84.870254 -0.471006 0.593180 0.743566 0.308622 0 0
    0 69.296794 -69.296130 -0.470921 0.035600 0.998834 0.032607 0 0
  phy
    0 -48.999593 -84.870732 1.528995 0.025827 -0.999531 -0.016462 0 0
    0 -69.296133 -69.296791 -0.470921 0.021146 0.999589 -0.019368 0 0
    0 -48.999593 -84.870722 -0.471006 0.593180 0.743566 -0.308622 0 0
  phy
    0 -48.999593 -84.870732 1.528995 0.025827 -0.999531 -0.016462 0 0
    0 -69.296133 -69.296802 1.529080 0.016436 -0.999704 -0.017945 0 0
    0 -69.296133 -69.296791 -0.470921 0.021146 0.999589 -0.019368 0 0
  phy
    0 -25.363812 -94.660845 -0.471059 0.145460 0.988596 -0.038976 0 0
    0 -25.363812 -94.660856 1.528942 0.053112 -0.998487 -0.014231 0 0
    0 -48.999593 -84.870722 -0.471006 0.593180 0.743566 -0.308622 0 0
  phy
    0 -25.363812 -94.660856 1.528942 0.053112 -0.998487 -0.014231 0 0
    0 -48.999593 -84.870732 1.528995 0.025827 -0.999531 -0.016462 0 0
    0 -48.999593 -84.870722 -0.471006 0.593180 0.743566 -0.308622 0 0
  phy
    0 -25.363812 -94.660845 -0.471059 0.145460 0.988596 -0.038976 0 0
    0 0.000472 -97.999993 -0.471077 0.006426 0.999979 -0.000282 0 0
    0 -25.363812 -94.660856 1.528942 0.053112 -0.998487 -0.014231 0 0
  phy
    0 -84.870257 -49.000404 -0.470810 0.359398 0.743566 -0.563864 0 0
    0 -84.870257 -49.000415 1.529191 0.002294 -0.999988 -0.004410 0 0
    0 -94.660606 -25.364720 -0.470681 0.067091 0.974829 -0.212622 0 0
  phy
    0 -94.660606 -25.364720 -0.470681 0.067091 0.974829 -0.212622 0 0
    0 -84.870257 -49.000415 1.529191 0.002294 -0.999988 -0.004410 0 0
    0 -94.660606 -25.364730 1.529319 0.006622 -0.999531 -0.029903 0 0
  phy
    0 -69.296133 -69.296802 1.529080 0.016436 -0.999704 -0.017945 0 0
    0 -84.870257 -49.000415 1.529191 0.002294 -0.999988 -0.004410 0 0
    0 -84.870257 -49.000404 -0.470810 0.359398 0.743566 -0.563864 0 0
  phy
    0 -69.296133 -69.296802 1.529080 0.016436 -0.999704 -0.017945 0 0
    0 -84.870257 -49.000404 -0.470810 0.359398 0.743566 -0.563864 0 0
    0 -69.296133 -69.296791 -0.470921 0.021146 0.999589 -0.019368 0 0
  phy
    0 -97.999995 -0.000480 1.529458 -0.001811 -0.999147 -0.041267 0 0
    0 -97.999995 -0.000469 -0.470543 0.000258 0.999983 -0.005889 0 0
    0 -94.660606 -25.364730 1.529319 0.006622 -0.999531 -0.029903 0 0
  phy
    0 -94.660606 -25.364730 1.529319 0.006622 -0.999531 -0.029903 0 0
    0 -97.999995 -0.000469 -0.470543 0.000258 0.999983 -0.005889 0 0
    0 -94.660606 -25.364720 -0.470681 0.067091 0.974829 -0.212622 0 0
  phy
    0 25.363812 94.660851 -0.470027 -0.027346 0.999589 0.008629 0 0
    0 48.999593 84.870716 1.529920 -0.593180 -0.743566 0.308622 0 0
    0 48.999593 84.870727 -0.470080 -0.563864 0.743566 0.359398 0 0
  phy
    0 -25.363812 -94.660856 1.528942 0.053112 -0.998487 -0.014231 0 0
    0 0.000472 -97.999993 -0.471077 0.006426 0.999979 -0.000282 0 0
    0 0.000472 -98.000003 1.528923 0.061110 -0.998127 0.002682 0 0
  phy
    0 -69.296794 69.296125 1.529836 -0.164414 -0.974829 -0.150590 0 0
    0 -49.000407 84.870249 1.529920 -0.092304 -0.994572 -0.048024 0 0
    0 -49.000407 84.870259 -0.470080 -0.015134 0.999839 -0.009646 0 0
  phy
    0 -69.296794 69.296125 1.529836 -0.164414 -0.974829 -0.150590 0 0
    0 -49.000407 84.870259 -0.470080 -0.015134 0.999839 -0.009646 0 0
    0 -69.296794 69.296135 -0.470165 -0.011090 0.999865 -0.012108 0 0
  phy
    0 -69.296794 69.296135 -0.470165 -0.011090 0.999865 -0.012108 0 0
    0 -84.870724 48.999595 -0.470276 -0.007193 0.999879 -0.013825 0 0
    0 -84.870724 48.999585 1.529725 -0.359398 -0.743566 -0.563864 0 0
  phy
    0 -69.296794 69.296135 -0.470165 -0.011090 0.999865 -0.012108 0 0
    0 -84.870724 48.999585 1.529725 -0.359398 -0.743566 -0.563864 0 0
    0 -69.296794 69.296125 1.529836 -0.164414 -0.974829 -0.150590 0 0
  phy
    0 -25.364722 94.660598 1.529974 -0.004148 -0.999991 -0.000919 0 0
    0 -0.000472 97.999987 1.529992 -0.013604 -0.999907 0.000000 0 0
    0 -0.000472 97.999998 -0.470009 -0.024102 0.999710 0.000000 0 0
  phy
    0 -25.364722 94.660598 1.529974 -0.004148 -0.999991 -0.000919 0 0
    0 -0.000472 97.999998 -0.470009 -0.024102 0.999710 0.000000 0 0
    0 -25.364722 94.660609 -0.470027 -0.019477 0.999791 -0.006146 0 0
  phy
    0 -25.364722 94.660609 -0.470027 -0.019477 0.999791 -0.006146 0 0
    0 -49.000407 84.870259 -0.470080 -0.015134 0.999839 -0.009646 0 0
    0 -49.000407 84.870249 1.529920 -0.092304 -0.994572 -0.048024 0 0
  phy
    0 -25.364722 94.660609 -0.470027 -0.019477 0.999791 -0.006146 0 0
    0 -49.000407 84.870249 1.529920 -0.092304 -0.994572 -0.048024 0 0
    0 -25.364722 94.660598 1.529974 -0.004148 -0.999991 -0.000919 0 0
  phy
    0 69.735733 7.318800 1.683644 -0.797350 0.121758 -0.591107 0 0
    0 58.675401 -42.765119 1.683371 0.263499 0.189705 -0.945823 0 0
    0 69.735733 7.318053 138.826513 -0.446079 -0.203702 -0.871504 0 0
  phy
    0 69.735733 7.318053 138.826513 -0.446079 -0.203702 -0.871504 0 0
    0 58.675401 -42.765119 1.683371 0.263499 0.189705 -0.945823 0 0
    0 58.675401 -42.765865 138.826242 0.264324 -0.173049 -0.948782 0 0
  phy
    0 86.170878 -51.673563 1.683322 0.434553 0.103797 0.894645 0 0
    0 86.170878 -51.674310 138.826091 0.815581 -0.282760 0.504852 0 0
    0 58.675401 -42.765119 1.683371 0.263499 0.189705 -0.945823 0 0
  phy
    0 58.675401 -42.765119 1.683371 0.263499 0.189705 -0.945823 0 0
    0 86.170878 -51.674310 138.826091 0.815581 -0.282760 0.504852 0 0
    0 58.675401 -42.765865 138.826242 0.264324 -0.173049 -0.948782 0 0
  phy
    0 58.675401 -42.765119 1.683371 0.263499 0.189705 -0.945823 0 0
    0 69.735733 7.318800 1.683644 -0.797350 0.121758 -0.591107 0 0
    0 99.436174 8.394952 1.683649 -0.250332 0.360450 0.898560 0 0
  phy
    0 86.170878 -51.673563 1.683322 0.434553 0.103797 0.894645 0 0
    0 58.675401 -42.765119 1.683371 0.263499 0.189705 -0.945823 0 0
    0 99.436174 8.394952 1.683649 -0.250332 0.360450 0.898560 0 0
  phy
    0 86.170878 -51.674310 138.826091 0.815581 -0.282760 0.504852 0 0
    0 69.735733 7.318053 138.826513 -0.446079 -0.203702 -0.871504 0 0
    0 58.675401 -42.765865 138.826242 0.264324 -0.173049 -0.948782 0 0
  phy
    0 86.170878 -51.674310 138.826091 0.815581 -0.282760 0.504852 0 0
    0 99.436174 8.394205 138.826416 -0.266895 -0.104783 0.958012 0 0
    0 69.735733 7.318053 138.826513 -0.446079 -0.203702 -0.871504 0 0
  phy
    0 99.436174 8.394205 138.826416 -0.266895 -0.104783 0.958012 0 0
    0 69.735733 7.318800 1.683644 -0.797350 0.121758 -0.591107 0 0
    0 69.735733 7.318053 138.826513 -0.446079 -0.203702 -0.871504 0 0
  phy
    0 69.735733 7.318800 1.683644 -0.797350 0.121758 -0.591107 0 0
    0 99.436174 8.394205 138.826416 -0.266895 -0.104783 0.958012 0 0
    0 99.436174 8.394952 1.683649 -0.250332 0.360450 0.898560 0 0
  phy
    0 99.436174 8.394205 138.826416 -0.266895 -0.104783 0.958012 0 0
    0 86.170878 -51.674310 138.826091 0.815581 -0.282760 0.504852 0 0
    0 86.170878 -51.673563 1.683322 0.434553 0.103797 0.894645 0 0
  phy
    0 86.170878 -51.673563 1.683322 0.434553 0.103797 0.894645 0 0
    0 99.436174 8.394952 1.683649 -0.250332 0.360450 0.898560 0 0
    0 99.436174 8.394205 138.826416 -0.266895 -0.104783 0.958012 0 0
  phy
    0 29.242973 -71.496556 1.683214 -0.464336 0.182101 -0.866736 0 0
    0 82.989096 -51.144252 1.683324 0.184243 0.334812 0.924097 0 0
    0 51.145039 -82.988617 1.683151 0.933075 0.067308 0.353327 0 0
  phy
    0 82.989096 -51.144252 1.683324 0.184243 0.334812 0.924097 0 0
    0 29.242973 -71.496556 1.683214 -0.464336 0.182101 -0.866736 0 0
    0 59.460875 -41.278359 1.683379 -0.986536 0.093938 -0.133872 0 0
  phy
    0 29.242973 -71.496556 1.683214 -0.464336 0.182101 -0.866736 0 0
    0 29.242973 -71.497307 138.826087 0.238555 -0.265352 -0.934173 0 0
    0 59.460880 -41.279105 138.826250 -0.854226 -0.074859 -0.514484 0 0
  phy
    0 29.242973 -71.496556 1.683214 -0.464336 0.182101 -0.866736 0 0
    0 59.460880 -41.279105 138.826250 -0.854226 -0.074859 -0.514484 0 0
    0 59.460875 -41.278359 1.683379 -0.986536 0.093938 -0.133872 0 0
  phy
    0 51.145039 -82.988617 1.683151 0.933075 0.067308 0.353327 0 0
    0 29.242973 -71.497307 138.826087 0.238555 -0.265352 -0.934173 0 0
    0 29.242973 -71.496556 1.683214 -0.464336 0.182101 -0.866736 0 0
  phy
    0 82.989096 -51.144252 1.683324 0.184243 0.334812 0.924097 0 0
    0 82.989096 -51.144998 138.826094 0.192514 -0.174920 0.965578 0 0
    0 51.145039 -82.988617 1.683151 0.933075 0.067308 0.353327 0 0
  phy
    0 82.989096 -51.144998 138.826094 0.192514 -0.174920 0.965578 0 0
    0 82.989096 -51.144252 1.683324 0.184243 0.334812 0.924097 0 0
    0 59.460875 -41.278359 1.683379 -0.986536 0.093938 -0.133872 0 0
  phy
    0 51.145039 -82.988617 1.683151 0.933075 0.067308 0.353327 0 0
    0 51.145039 -82.989368 138.825921 0.926798 -0.133710 0.350951 0 0
    0 29.242973 -71.497307 138.826087 0.238555 -0.265352 -0.934173 0 0
  phy
    0 82.989096 -51.144998 138.826094 0.192514 -0.174920 0.965578 0 0
    0 51.145039 -82.989368 138.825921 0.926798 -0.133710 0.350951 0 0
    0 51.145039 -82.988617 1.683151 0.933075 0.067308 0.353327 0 0
  phy
    0 82.989096 -51.144998 138.826094 0.192514 -0.174920 0.965578 0 0
    0 59.460880 -41.279105 138.826250 -0.854226 -0.074859 -0.514484 0 0
    0 29.242973 -71.497307 138.826087 0.238555 -0.265352 -0.934173 0 0
  phy
    0 29.242973 -71.497307 138.826087 0.238555 -0.265352 -0.934173 0 0
    0 51.145039 -82.989368 138.825921 0.926798 -0.133710 0.350951 0 0
    0 82.989096 -51.144998 138.826094 0.192514 -0.174920 0.965578 0 0
  phy
    0 59.460880 -41.279105 138.826250 -0.854226 -0.074859 -0.514484 0 0
    0 82.989096 -51.144998 138.826094 0.192514 -0.174920 0.965578 0 0
    0 59.460875 -41.278359 1.683379 -0.986536 0.093938 -0.133872 0 0
  phy
    0 -5.253405 -103.157830 1.683041 0.925779 0.327319 -0.189195 0 0
    0 -2.073979 -74.815746 1.683196 -0.572366 0.099415 -0.813950 0 0
    0 39.204597 -63.754968 1.683256 -0.965377 0.170659 0.197287 0 0
  phy
    0 -5.253405 -103.157830 1.683041 0.925779 0.327319 -0.189195 0 0
    0 39.204597 -63.754968 1.683256 -0.965377 0.170659 0.197287 0 0
    0 56.129324 -86.710054 1.683130 0.879783 0.102276 0.464243 0 0
  phy
    0 -2.073978 -74.816492 138.826069 -0.858838 -0.082884 -0.505497 0 0
    0 -2.073979 -74.815746 1.683196 -0.572366 0.099415 -0.813950 0 0
    0 -5.253405 -103.158581 138.825812 0.965377 -0.170659 -0.197287 0 0
  phy
    0 -5.253405 -103.158581 138.825812 0.965377 -0.170659 -0.197287 0 0
    0 -2.073979 -74.815746 1.683196 -0.572366 0.099415 -0.813950 0 0
    0 -5.253405 -103.157830 1.683041 0.925779 0.327319 -0.189195 0 0
  phy
    0 -5.253405 -103.157830 1.683041 0.925779 0.327319 -0.189195 0 0
    0 56.129324 -86.710054 1.683130 0.879783 0.102276 0.464243 0 0
    0 -5.253405 -103.158581 138.825812 0.965377 -0.170659 -0.197287 0 0
  phy
    0 56.129324 -86.710054 1.683130 0.879783 0.102276 0.464243 0 0
    0 56.129328 -86.710805 138.825901 0.397497 -0.177632 0.900246 0 0
    0 -5.253405 -103.158581 138.825812 0.965377 -0.170659 -0.197287 0 0
  phy
    0 -2.073979 -74.815746 1.683196 -0.572366 0.099415 -0.813950 0 0
    0 -2.073978 -74.816492 138.826069 -0.858838 -0.082884 -0.505497 0 0
    0 39.204597 -63.754968 1.683256 -0.965377 0.170659 0.197287 0 0
  phy
    0 39.204597 -63.754968 1.683256 -0.965377 0.170659 0.197287 0 0
    0 -2.073978 -74.816492 138.826069 -0.858838 -0.082884 -0.505497 0 0
    0 39.204600 -63.755715 138.826129 -0.925779 -0.327319 0.189196 0 0
  phy
    0 -2.073978 -74.816492 138.826069 -0.858838 -0.082884 -0.505497 0 0
    0 -5.253405 -103.158581 138.825812 0.965377 -0.170659 -0.197287 0 0
    0 39.204600 -63.755715 138.826129 -0.925779 -0.327319 0.189196 0 0
  phy
    0 39.204597 -63.754968 1.683256 -0.965377 0.170659 0.197287 0 0
    0 56.129328 -86.710805 138.825901 0.397497 -0.177632 0.900246 0 0
    0 56.129324 -86.710054 1.683130 0.879783 0.102276 0.464243 0 0
  phy
    0 39.204597 -63.754968 1.683256 -0.965377 0.170659 0.197287 0 0
    0 39.204600 -63.755715 138.826129 -0.925779 -0.327319 0.189196 0 0
    0 56.129328 -86.710805 138.825901 0.397497 -0.177632 0.900246 0 0
  phy
    0 39.204600 -63.755715 138.826129 -0.925779 -0.327319 0.189196 0 0
    0 -5.253405 -103.158581 138.825812 0.965377 -0.170659 -0.197287 0 0
    0 56.129328 -86.710805 138.825901 0.397497 -0.177632 0.900246 0 0
  phy
    0 -46.487104 -86.494774 138.825902 0.675316 -0.303644 -0.672123 0 0
    0 -38.848423 -62.458085 138.827788 -0.831343 -0.115920 -0.543536 0 0
    0 -46.574061 -86.470726 1.683129 0.706737 0.081263 -0.702794 0 0
  phy
    0 -46.574061 -86.470726 1.683129 0.706737 0.081263 -0.702794 0 0
    0 -38.848423 -62.458085 138.827788 -0.831343 -0.115920 -0.543536 0 0
    0 -38.935348 -62.433939 1.684908 -0.984223 0.175841 -0.019624 0 0
  phy
    0 -38.848423 -62.458085 138.827788 -0.831343 -0.115920 -0.543536 0 0
    0 -46.487104 -86.494774 138.825902 0.675316 -0.303644 -0.672123 0 0
    0 2.415585 -73.564642 138.827728 -0.700277 -0.157089 0.696373 0 0
  phy
    0 -38.848423 -62.458085 138.827788 -0.831343 -0.115920 -0.543536 0 0
    0 2.415585 -73.564642 138.827728 -0.700277 -0.157089 0.696373 0 0
    0 -38.935348 -62.433939 1.684908 -0.984223 0.175841 -0.019624 0 0
  phy
    0 2.415585 -73.564642 138.827728 -0.700277 -0.157089 0.696373 0 0
    0 -2.987048 -98.149603 1.683069 0.799816 0.237356 0.551322 0 0
    0 2.415585 -73.563891 1.684848 -0.701034 0.153111 0.696497 0 0
  phy
    0 2.415585 -73.564642 138.827728 -0.700277 -0.157089 0.696373 0 0
    0 2.415585 -73.563891 1.684848 -0.701034 0.153111 0.696497 0 0
    0 -38.935348 -62.433939 1.684908 -0.984223 0.175841 -0.019624 0 0
  phy
    0 2.415585 -73.563891 1.684848 -0.701034 0.153111 0.696497 0 0
    0 -2.987048 -98.149603 1.683069 0.799816 0.237356 0.551322 0 0
    0 -38.935348 -62.433939 1.684908 -0.984223 0.175841 -0.019624 0 0
  phy
    0 -46.487104 -86.494774 138.825902 0.675316 -0.303644 -0.672123 0 0
    0 -2.987048 -98.150354 138.825839 0.995948 -0.088917 0.013467 0 0
    0 2.415585 -73.564642 138.827728 -0.700277 -0.157089 0.696373 0 0
  phy
    0 2.415585 -73.564642 138.827728 -0.700277 -0.157089 0.696373 0 0
    0 -2.987048 -98.150354 138.825839 0.995948 -0.088917 0.013467 0 0
    0 -2.987048 -98.149603 1.683069 0.799816 0.237356 0.551322 0 0
  phy
    0 -46.574061 -86.470726 1.683129 0.706737 0.081263 -0.702794 0 0
    0 -2.987048 -98.150354 138.825839 0.995948 -0.088917 0.013467 0 0
    0 -46.487104 -86.494774 138.825902 0.675316 -0.303644 -0.672123 0 0
  phy
    0 -2.987048 -98.149603 1.683069 0.799816 0.237356 0.551322 0 0
    0 -2.987048 -98.150354 138.825839 0.995948 -0.088917 0.013467 0 0
    0 -46.574061 -86.470726 1.683129 0.706737 0.081263 -0.702794 0 0
  phy
    0 -2.987048 -98.149603 1.683069 0.799816 0.237356 0.551322 0 0
    0 -46.574061 -86.470726 1.683129 0.706737 0.081263 -0.702794 0 0
    0 -38.935348 -62.433939 1.684908 -0.984223 0.175841 -0.019624 0 0
  phy
    0 -43.514354 -89.090183 5.557327 0.607423 0.072240 -0.791087 0 0
    0 -99.427390 0.037464 142.699246 0.357900 -0.129380 -0.924753 0 0
    0 -99.427390 0.038212 5.557812 0.362956 0.235859 -0.901462 0 0
  phy
    0 -99.427390 0.037464 142.699246 0.357900 -0.129380 -0.924753 0 0
    0 -43.514354 -89.090183 5.557327 0.607423 0.072240 -0.791087 0 0
    0 -43.514354 -89.090925 142.698764 0.852874 -0.177013 -0.491194 0 0
  phy
    0 -36.150263 -65.626417 1.902556 -0.225428 0.215754 0.950070 0 0
    0 -43.514354 -89.090183 5.557327 0.607423 0.072240 -0.791087 0 0
    0 -99.427390 0.038212 5.557812 0.362956 0.235859 -0.901462 0 0
  phy
    0 -36.150263 -65.626417 1.902556 -0.225428 0.215754 0.950070 0 0
    0 -43.514354 -89.090925 142.698764 0.852874 -0.177013 -0.491194 0 0
    0 -43.514354 -89.090183 5.557327 0.607423 0.072240 -0.791087 0 0
  phy
    0 -36.150263 -65.626417 1.902556 -0.225428 0.215754 0.950070 0 0
    0 -80.416583 4.936471 1.902941 -0.694330 0.062927 0.716900 0 0
    0 -36.150266 -65.627164 139.044093 -0.440647 -0.135156 0.887447 0 0
  phy
    0 -36.150266 -65.627164 139.044093 -0.440647 -0.135156 0.887447 0 0
    0 -80.416583 4.936471 1.902941 -0.694330 0.062927 0.716900 0 0
    0 -80.416583 4.935723 139.044475 -0.685314 -0.120809 0.718157 0 0
  phy
    0 -36.150266 -65.627164 139.044093 -0.440647 -0.135156 0.887447 0 0
    0 -80.416583 4.935723 139.044475 -0.685314 -0.120809 0.718157 0 0
    0 -99.427390 0.037464 142.699246 0.357900 -0.129380 -0.924753 0 0
  phy
    0 -99.427390 0.037464 142.699246 0.357900 -0.129380 -0.924753 0 0
    0 -43.514354 -89.090925 142.698764 0.852874 -0.177013 -0.491194 0 0
    0 -36.150266 -65.627164 139.044093 -0.440647 -0.135156 0.887447 0 0
  phy
    0 -36.150266 -65.627164 139.044093 -0.440647 -0.135156 0.887447 0 0
    0 -43.514354 -89.090925 142.698764 0.852874 -0.177013 -0.491194 0 0
    0 -36.150263 -65.626417 1.902556 -0.225428 0.215754 0.950070 0 0
  phy
    0 -36.150263 -65.626417 1.902556 -0.225428 0.215754 0.950070 0 0
    0 -99.427390 0.038212 5.557812 0.362956 0.235859 -0.901462 0 0
    0 -80.416583 4.936471 1.902941 -0.694330 0.062927 0.716900 0 0
  phy
    0 -99.427390 0.038212 5.557812 0.362956 0.235859 -0.901462 0 0
    0 -99.427390 0.037464 142.699246 0.357900 -0.129380 -0.924753 0 0
    0 -80.416583 4.936471 1.902941 -0.694330 0.062927 0.716900 0 0
  phy
    0 -99.427390 0.037464 142.699246 0.357900 -0.129380 -0.924753 0 0
    0 -80.416583 4.935723 139.044475 -0.685314 -0.120809 0.718157 0 0
    0 -80.416583 4.936471 1.902941 -0.694330 0.062927 0.716900 0 0
  phy
    0 -60.109139 38.226254 138.826680 -0.238914 -0.074996 0.968140 0 0
    0 -71.169518 -3.051685 1.683588 0.513045 0.206106 0.833250 0 0
    0 -60.109139 38.226998 1.683813 -0.236923 0.148742 0.960075 0 0
  phy
    0 -60.109139 38.226254 138.826680 -0.238914 -0.074996 0.968140 0 0
    0 -71.169518 -3.052433 138.826457 0.828069 -0.246504 0.503525 0 0
    0 -71.169518 -3.051685 1.683588 0.513045 0.206106 0.833250 0 0
  phy
    0 -60.109139 38.226254 138.826680 -0.238914 -0.074996 0.968140 0 0
    0 -60.109139 38.226998 1.683813 -0.236923 0.148742 0.960075 0 0
    0 -84.983015 52.923061 1.683892 -0.886732 0.280319 -0.367596 0 0
  phy
    0 -84.983015 52.922315 138.826656 -0.482253 -0.179597 -0.857425 0 0
    0 -60.109139 38.226254 138.826680 -0.238914 -0.074996 0.968140 0 0
    0 -84.983015 52.923061 1.683892 -0.886732 0.280319 -0.367596 0 0
  phy
    0 -60.109139 38.226254 138.826680 -0.238914 -0.074996 0.968140 0 0
    0 -84.983015 52.922315 138.826656 -0.482253 -0.179597 -0.857425 0 0
    0 -71.169518 -3.052433 138.826457 0.828069 -0.246504 0.503525 0 0
  phy
    0 -60.109139 38.226998 1.683813 -0.236923 0.148742 0.960075 0 0
    0 -71.169518 -3.051685 1.683588 0.513045 0.206106 0.833250 0 0
    0 -84.983015 52.923061 1.683892 -0.886732 0.280319 -0.367596 0 0
  phy
    0 -71.169518 -3.051685 1.683588 0.513045 0.206106 0.833250 0 0
    0 -71.169518 -3.052433 138.826457 0.828069 -0.246504 0.503525 0 0
    0 -100.058958 -3.342183 1.683585 0.238340 0.101978 -0.965813 0 0
  phy
    0 -71.169518 -3.052433 138.826457 0.828069 -0.246504 0.503525 0 0
    0 -100.058958 -3.342931 138.826352 0.234706 -0.200846 -0.951091 0 0
    0 -100.058958 -3.342183 1.683585 0.238340 0.101978 -0.965813 0 0
  phy
    0 -84.983015 52.922315 138.826656 -0.482253 -0.179597 -0.857425 0 0
    0 -100.058958 -3.342183 1.683585 0.238340 0.101978 -0.965813 0 0
    0 -100.058958 -3.342931 138.826352 0.234706 -0.200846 -0.951091 0 0
  phy
    0 -100.058958 -3.342183 1.683585 0.238340 0.101978 -0.965813 0 0
    0 -84.983015 52.922315 138.826656 -0.482253 -0.179597 -0.857425 0 0
    0 -84.983015 52.923061 1.683892 -0.886732 0.280319 -0.367596 0 0
  phy
    0 -71.169518 -3.051685 1.683588 0.513045 0.206106 0.833250 0 0
    0 -100.058958 -3.342183 1.683585 0.238340 0.101978 -0.965813 0 0
    0 -84.983015 52.923061 1.683892 -0.886732 0.280319 -0.367596 0 0
  phy
    0 -84.983015 52.922315 138.826656 -0.482253 -0.179597 -0.857425 0 0
    0 -100.058958 -3.342931 138.826352 0.234706 -0.200846 -0.951091 0 0
    0 -71.169518 -3.052433 138.826457 0.828069 -0.246504 0.503525 0 0
  phy
    0 -35.745736 65.962539 138.826830 0.266728 -0.294568 0.917653 0 0
    0 -35.745736 65.963291 1.683964 0.275855 0.152324 0.949053 0 0
    0 -51.987149 83.829949 138.826824 -0.990722 -0.121979 0.059923 0 0
  phy
    0 -35.745736 65.963291 1.683964 0.275855 0.152324 0.949053 0 0
    0 -51.987149 83.830700 1.684061 -0.864368 0.085647 -0.495512 0 0
    0 -51.987149 83.829949 138.826824 -0.990722 -0.121979 0.059923 0 0
  phy
    0 -65.963636 35.744342 138.826667 0.867840 -0.083295 0.489812 0 0
    0 -35.745736 65.963291 1.683964 0.275855 0.152324 0.949053 0 0
    0 -35.745736 65.962539 138.826830 0.266728 -0.294568 0.917653 0 0
  phy
    0 -65.963636 35.744342 138.826667 0.867840 -0.083295 0.489812 0 0
    0 -65.963641 35.745091 1.683798 0.992992 0.113154 -0.034096 0 0
    0 -35.745736 65.963291 1.683964 0.275855 0.152324 0.949053 0 0
  phy
    0 -51.987149 83.829949 138.826824 -0.990722 -0.121979 0.059923 0 0
    0 -83.831205 51.985579 138.826651 -0.275855 -0.152324 -0.949053 0 0
    0 -35.745736 65.962539 138.826830 0.266728 -0.294568 0.917653 0 0
  phy
    0 -83.831205 51.985579 138.826651 -0.275855 -0.152324 -0.949053 0 0
    0 -65.963636 35.744342 138.826667 0.867840 -0.083295 0.489812 0 0
    0 -35.745736 65.962539 138.826830 0.266728 -0.294568 0.917653 0 0
  phy
    0 -83.831205 51.985579 138.826651 -0.275855 -0.152324 -0.949053 0 0
    0 -51.987149 83.829949 138.826824 -0.990722 -0.121979 0.059923 0 0
    0 -51.987149 83.830700 1.684061 -0.864368 0.085647 -0.495512 0 0
  phy
    0 -83.831205 51.986326 1.683887 -0.266728 0.294568 -0.917652 0 0
    0 -35.745736 65.963291 1.683964 0.275855 0.152324 0.949053 0 0
    0 -65.963641 35.745091 1.683798 0.992992 0.113154 -0.034096 0 0
  phy
    0 -35.745736 65.963291 1.683964 0.275855 0.152324 0.949053 0 0
    0 -83.831205 51.986326 1.683887 -0.266728 0.294568 -0.917652 0 0
    0 -51.987149 83.830700 1.684061 -0.864368 0.085647 -0.495512 0 0
  phy
    0 -83.831205 51.986326 1.683887 -0.266728 0.294568 -0.917652 0 0
    0 -65.963641 35.745091 1.683798 0.992992 0.113154 -0.034096 0 0
    0 -83.831205 51.985579 138.826651 -0.275855 -0.152324 -0.949053 0 0
  phy
    0 -65.963641 35.745091 1.683798 0.992992 0.113154 -0.034096 0 0
    0 -65.963636 35.744342 138.826667 0.867840 -0.083295 0.489812 0 0
    0 -83.831205 51.985579 138.826651 -0.275855 -0.152324 -0.949053 0 0
  phy
    0 -83.831205 51.986326 1.683887 -0.266728 0.294568 -0.917652 0 0
    0 -83.831205 51.985579 138.826651 -0.275855 -0.152324 -0.949053 0 0
    0 -51.987149 83.830700 1.684061 -0.864368 0.085647 -0.495512 0 0
  phy
    0 4.739127 98.197520 138.826901 -0.807652 -0.279161 0.519392 0 0
    0 9.371489 70.896907 1.683990 0.789945 0.088874 0.606703 0 0
    0 4.739126 98.198272 1.684139 -0.981374 0.189300 0.032720 0 0
  phy
    0 4.739127 98.197520 138.826901 -0.807652 -0.279161 0.519392 0 0
    0 9.371490 70.896156 138.826857 0.780748 -0.175680 0.599641 0 0
    0 9.371489 70.896907 1.683990 0.789945 0.088874 0.606703 0 0
  phy
    0 9.371490 70.896156 138.826857 0.780748 -0.175680 0.599641 0 0
    0 4.739127 98.197520 138.826901 -0.807652 -0.279161 0.519392 0 0
    0 -45.209038 59.835320 138.826797 0.954392 -0.177234 -0.240258 0 0
  phy
    0 4.739127 98.197520 138.826901 -0.807652 -0.279161 0.519392 0 0
    0 -52.778598 86.541459 138.826838 -0.902121 -0.099423 -0.419872 0 0
    0 -45.209038 59.835320 138.826797 0.954392 -0.177234 -0.240258 0 0
  phy
    0 -52.778598 86.541459 138.826838 -0.902121 -0.099423 -0.419872 0 0
    0 4.739127 98.197520 138.826901 -0.807652 -0.279161 0.519392 0 0
    0 4.739126 98.198272 1.684139 -0.981374 0.189300 0.032720 0 0
  phy
    0 -52.778598 86.541459 138.826838 -0.902121 -0.099423 -0.419872 0 0
    0 4.739126 98.198272 1.684139 -0.981374 0.189300 0.032720 0 0
    0 -52.778598 86.542210 1.684076 -0.539515 0.150782 -0.828365 0 0
  phy
    0 -45.209038 59.835320 138.826797 0.954392 -0.177234 -0.240258 0 0
    0 9.371489 70.896907 1.683990 0.789945 0.088874 0.606703 0 0
    0 9.371490 70.896156 138.826857 0.780748 -0.175680 0.599641 0 0
  phy
    0 -45.209038 59.835320 138.826797 0.954392 -0.177234 -0.240258 0 0
    0 -45.209038 59.836071 1.683931 0.912371 0.338862 -0.229680 0 0
    0 9.371489 70.896907 1.683990 0.789945 0.088874 0.606703 0 0
  phy
    0 4.739126 98.198272 1.684139 -0.981374 0.189300 0.032720 0 0
    0 9.371489 70.896907 1.683990 0.789945 0.088874 0.606703 0 0
    0 -45.209038 59.836071 1.683931 0.912371 0.338862 -0.229680 0 0
  phy
    0 4.739126 98.198272 1.684139 -0.981374 0.189300 0.032720 0 0
    0 -45.209038 59.836071 1.683931 0.912371 0.338862 -0.229680 0 0
    0 -52.778598 86.542210 1.684076 -0.539515 0.150782 -0.828365 0 0
  phy
    0 -52.778598 86.541459 138.826838 -0.902121 -0.099423 -0.419872 0 0
    0 -52.778598 86.542210 1.684076 -0.539515 0.150782 -0.828365 0 0
    0 -45.209038 59.835320 138.826797 0.954392 -0.177234 -0.240258 0 0
  phy
    0 -52.778598 86.542210 1.684076 -0.539515 0.150782 -0.828365 0 0
    0 -45.209038 59.836071 1.683931 0.912371 0.338862 -0.229680 0 0
    0 -45.209038 59.835320 138.826797 0.954392 -0.177234 -0.240258 0 0
  phy
    0 64.104033 -37.010076 1.195107 0.007513 0.969003 -0.246935 0 0
    0 64.104033 -37.010091 4.009218 0.026292 -0.502470 -0.864195 0 0
    0 74.020760 0.000350 1.195308 -0.086338 0.977043 -0.194763 0 0
  phy
    0 74.020760 0.000350 1.195308 -0.086338 0.977043 -0.194763 0 0
    0 64.104033 -37.010091 4.009218 0.026292 -0.502470 -0.864195 0 0
    0 74.020760 0.000335 4.009421 -0.336214 -0.624340 -0.705096 0 0
  phy
    0 75.344416 -43.499643 1.195072 0.318793 0.828556 0.460289 0 0
    0 64.104033 -37.010076 1.195107 0.007513 0.969003 -0.246935 0 0
    0 74.020760 0.000350 1.195308 -0.086338 0.977043 -0.194763 0 0
  phy
    0 75.344416 -43.499643 1.195072 0.318793 0.828556 0.460289 0 0
    0 74.020760 0.000350 1.195308 -0.086338 0.977043 -0.194763 0 0
    0 87.000000 0.000412 1.195308 0.085823 0.370917 0.924692 0 0
  phy
    0 87.000000 0.000412 1.195308 0.085823 0.370917 0.924692 0 0
    0 74.020760 0.000350 1.195308 -0.086338 0.977043 -0.194763 0 0
    0 74.020760 0.000335 4.009421 -0.336214 -0.624340 -0.705096 0 0
  phy
    0 87.000000 0.000412 1.195308 0.085823 0.370917 0.924692 0 0
    0 74.020760 0.000335 4.009421 -0.336214 -0.624340 -0.705096 0 0
    0 87.000000 0.000325 17.373836 -0.293218 -0.934337 0.202580 0 0
  phy
    0 75.344416 -43.499643 1.195072 0.318793 0.828556 0.460289 0 0
    0 64.104033 -37.010091 4.009218 0.026292 -0.502470 -0.864195 0 0
    0 64.104033 -37.010076 1.195107 0.007513 0.969003 -0.246935 0 0
  phy
    0 74.020760 0.000335 4.009421 -0.336214 -0.624340 -0.705096 0 0
    0 64.104033 -37.010091 4.009218 0.026292 -0.502470 -0.864195 0 0
    0 75.344416 -43.499730 17.373599 0.245421 -0.947404 0.205413 0 0
  phy
    0 74.020760 0.000335 4.009421 -0.336214 -0.624340 -0.705096 0 0
    0 75.344416 -43.499730 17.373599 0.245421 -0.947404 0.205413 0 0
    0 87.000000 0.000325 17.373836 -0.293218 -0.934337 0.202580 0 0
  phy
    0 75.344416 -43.499643 1.195072 0.318793 0.828556 0.460289 0 0
    0 75.344416 -43.499730 17.373599 0.245421 -0.947404 0.205413 0 0
    0 64.104033 -37.010091 4.009218 0.026292 -0.502470 -0.864195 0 0
  phy
    0 87.000000 0.000412 1.195308 0.085823 0.370917 0.924692 0 0
    0 75.344416 -43.499730 17.373599 0.245421 -0.947404 0.205413 0 0
    0 75.344416 -43.499643 1.195072 0.318793 0.828556 0.460289 0 0
  phy
    0 87.000000 0.000412 1.195308 0.085823 0.370917 0.924692 0 0
    0 87.000000 0.000325 17.373836 -0.293218 -0.934337 0.202580 0 0
    0 75.344416 -43.499730 17.373599 0.245421 -0.947404 0.205413 0 0
  phy
    0 64.104033 -37.010091 4.009220 -0.750211 -0.552880 -0.362640 0 0
    0 75.344416 -43.499730 17.373599 -0.394484 -0.907323 -0.145422 0 0
    0 75.344416 -43.499643 1.195071 0.536671 0.370917 0.757895 0 0
  phy
    0 64.104033 -37.010091 4.009220 -0.750211 -0.552880 -0.362640 0 0
    0 75.344416 -43.499643 1.195071 0.536671 0.370917 0.757895 0 0
    0 64.104033 -37.010076 1.195107 -0.172152 0.977043 -0.125501 0 0
  phy
    0 37.010688 -64.103702 4.009071 -0.464706 -0.594444 -0.656266 0 0
    0 75.344416 -43.499730 17.373599 -0.394484 -0.907323 -0.145422 0 0
    0 64.104033 -37.010091 4.009220 -0.750211 -0.552880 -0.362640 0 0
  phy
    0 37.010688 -64.103702 4.009071 -0.464706 -0.594444 -0.656266 0 0
    0 64.104033 -37.010091 4.009220 -0.750211 -0.552880 -0.362640 0 0
    0 64.104033 -37.010076 1.195107 -0.172152 0.977043 -0.125501 0 0
  phy
    0 37.010688 -64.103702 4.009071 -0.464706 -0.594444 -0.656266 0 0
    0 37.010688 -64.103687 1.194959 -0.116961 0.969003 -0.217609 0 0
    0 43.500364 -75.344008 1.194898 0.506227 0.828556 0.239226 0 0
  phy
    0 37.010688 -64.103687 1.194959 -0.116961 0.969003 -0.217609 0 0
    0 37.010688 -64.103702 4.009071 -0.464706 -0.594444 -0.656266 0 0
    0 64.104033 -37.010076 1.195107 -0.172152 0.977043 -0.125501 0 0
  phy
    0 43.500364 -75.344008 1.194898 0.506227 0.828556 0.239226 0 0
    0 37.010688 -64.103687 1.194959 -0.116961 0.969003 -0.217609 0 0
    0 64.104033 -37.010076 1.195107 -0.172152 0.977043 -0.125501 0 0
  phy
    0 37.010688 -64.103702 4.009071 -0.464706 -0.594444 -0.656266 0 0
    0 43.500364 -75.344095 17.373425 0.709276 -0.564182 0.422642 0 0
    0 75.344416 -43.499730 17.373599 -0.394484 -0.907323 -0.145422 0 0
  phy
    0 43.500364 -75.344095 17.373425 0.709276 -0.564182 0.422642 0 0
    0 37.010688 -64.103702 4.009071 -0.464706 -0.594444 -0.656266 0 0
    0 43.500364 -75.344008 1.194898 0.506227 0.828556 0.239226 0 0
  phy
    0 75.344416 -43.499730 17.373599 -0.394484 -0.907323 -0.145422 0 0
    0 43.500364 -75.344095 17.373425 0.709276 -0.564182 0.422642 0 0
    0 75.344416 -43.499643 1.195071 0.536671 0.370917 0.757895 0 0
  phy
    0 43.500364 -75.344095 17.373425 0.709276 -0.564182 0.422642 0 0
    0 43.500364 -75.344008 1.194898 0.506227 0.828556 0.239226 0 0
    0 75.344416 -43.499643 1.195071 0.536671 0.370917 0.757895 0 0
  phy
    0 75.344416 -43.499643 1.195071 0.536671 0.370917 0.757895 0 0
    0 43.500364 -75.344008 1.194898 0.506227 0.828556 0.239226 0 0
    0 64.104033 -37.010076 1.195107 -0.172152 0.977043 -0.125501 0 0
  phy
    0 0.000419 -87.000094 17.373362 0.299353 -0.943463 -0.142355 0 0
    0 0.000356 -74.020782 4.009018 -0.755537 -0.606131 -0.248533 0 0
    0 0.000356 -74.020767 1.194905 -0.188070 0.943463 -0.272959 0 0
  phy
    0 0.000419 -87.000094 17.373362 0.299353 -0.943463 -0.142355 0 0
    0 0.000356 -74.020767 1.194905 -0.188070 0.943463 -0.272959 0 0
    0 0.000419 -87.000007 1.194833 0.779792 0.625589 -0.023724 0 0
  phy
    0 0.000356 -74.020782 4.009018 -0.755537 -0.606131 -0.248533 0 0
    0 37.010688 -64.103702 4.009070 -0.800696 -0.594444 -0.074315 0 0
    0 0.000356 -74.020767 1.194905 -0.188070 0.943463 -0.272959 0 0
  phy
    0 37.010688 -64.103702 4.009070 -0.800696 -0.594444 -0.074315 0 0
    0 0.000356 -74.020782 4.009018 -0.755537 -0.606131 -0.248533 0 0
    0 0.000419 -87.000094 17.373362 0.299353 -0.943463 -0.142355 0 0
  phy
    0 37.010688 -64.103702 4.009070 -0.800696 -0.594444 -0.074315 0 0
    0 43.500364 -75.344095 17.373425 0.028830 -0.934337 0.355224 0 0
    0 43.500364 -75.344008 1.194898 0.730581 0.594444 0.335990 0 0
  phy
    0 43.500364 -75.344008 1.194898 0.730581 0.594444 0.335990 0 0
    0 37.010688 -64.103687 1.194959 -0.246935 0.969003 0.007513 0 0
    0 37.010688 -64.103702 4.009070 -0.800696 -0.594444 -0.074315 0 0
  phy
    0 0.000356 -74.020767 1.194905 -0.188070 0.943463 -0.272959 0 0
    0 37.010688 -64.103702 4.009070 -0.800696 -0.594444 -0.074315 0 0
    0 37.010688 -64.103687 1.194959 -0.246935 0.969003 0.007513 0 0
  phy
    0 43.500364 -75.344095 17.373425 0.028830 -0.934337 0.355224 0 0
    0 37.010688 -64.103702 4.009070 -0.800696 -0.594444 -0.074315 0 0
    0 0.000419 -87.000094 17.373362 0.299353 -0.943463 -0.142355 0 0
  phy
    0 0.000419 -87.000094 17.373362 0.299353 -0.943463 -0.142355 0 0
    0 43.500364 -75.344008 1.194898 0.730581 0.594444 0.335990 0 0
    0 43.500364 -75.344095 17.373425 0.028830 -0.934337 0.355224 0 0
  phy
    0 0.000419 -87.000094 17.373362 0.299353 -0.943463 -0.142355 0 0
    0 0.000419 -87.000007 1.194833 0.779792 0.625589 -0.023724 0 0
    0 43.500364 -75.344008 1.194898 0.730581 0.594444 0.335990 0 0
  phy
    0 37.010688 -64.103687 1.194959 -0.246935 0.969003 0.007513 0 0
    0 43.500364 -75.344008 1.194898 0.730581 0.594444 0.335990 0 0
    0 0.000356 -74.020767 1.194905 -0.188070 0.943463 -0.272959 0 0
  phy
    0 0.000356 -74.020767 1.194905 -0.188070 0.943463 -0.272959 0 0
    0 43.500364 -75.344008 1.194898 0.730581 0.594444 0.335990 0 0
    0 0.000419 -87.000007 1.194833 0.779792 0.625589 -0.023724 0 0
  phy
    0 0.000356 -74.020782 4.009018 -0.730193 -0.594991 0.335863 0 0
    0 -37.010070 -64.104055 4.009071 -0.777214 -0.607739 0.163068 0 0
    0 -43.499636 -75.344515 17.373431 -0.425860 -0.899471 -0.097958 0 0
  phy
    0 -37.010070 -64.104055 4.009071 -0.777214 -0.607739 0.163068 0 0
    0 0.000356 -74.020782 4.009018 -0.730193 -0.594991 0.335863 0 0
    0 -37.074851 -64.041662 1.194960 -0.299353 0.943463 -0.142355 0 0
  phy
    0 -43.499636 -75.344515 17.373431 -0.425860 -0.899471 -0.097958 0 0
    0 -37.010070 -64.104055 4.009071 -0.777214 -0.607739 0.163068 0 0
    0 -37.074851 -64.041662 1.194960 -0.299353 0.943463 -0.142355 0 0
  phy
    0 0.000356 -74.020782 4.009018 -0.730193 -0.594991 0.335863 0 0
    0 0.000419 -87.000007 1.194833 0.556994 0.829250 0.045854 0 0
    0 0.000356 -74.020767 1.194905 -0.210092 0.968987 0.130098 0 0
  phy
    0 0.000356 -74.020782 4.009018 -0.730193 -0.594991 0.335863 0 0
    0 0.000356 -74.020767 1.194905 -0.210092 0.968987 0.130098 0 0
    0 -37.074851 -64.041662 1.194960 -0.299353 0.943463 -0.142355 0 0
  phy
    0 0.000356 -74.020767 1.194905 -0.210092 0.968987 0.130098 0 0
    0 0.000419 -87.000007 1.194833 0.556994 0.829250 0.045854 0 0
    0 -37.074851 -64.041662 1.194960 -0.299353 0.943463 -0.142355 0 0
  phy
    0 0.000419 -87.000007 1.194833 0.556994 0.829250 0.045854 0 0
    0 0.000419 -87.000104 17.373367 0.825572 -0.564181 -0.011381 0 0
    0 -43.499636 -75.344423 1.194898 0.853288 0.370850 -0.366564 0 0
  phy
    0 0.000419 -87.000104 17.373367 0.825572 -0.564181 -0.011381 0 0
    0 -43.499636 -75.344515 17.373431 -0.425860 -0.899471 -0.097958 0 0
    0 -43.499636 -75.344423 1.194898 0.853288 0.370850 -0.366564 0 0
  phy
    0 -43.499636 -75.344423 1.194898 0.853288 0.370850 -0.366564 0 0
    0 -43.499636 -75.344515 17.373431 -0.425860 -0.899471 -0.097958 0 0
    0 -37.074851 -64.041662 1.194960 -0.299353 0.943463 -0.142355 0 0
  phy
    0 0.000419 -87.000007 1.194833 0.556994 0.829250 0.045854 0 0
    0 -43.499636 -75.344423 1.194898 0.853288 0.370850 -0.366564 0 0
    0 -37.074851 -64.041662 1.194960 -0.299353 0.943463 -0.142355 0 0
  phy
    0 0.000356 -74.020782 4.009018 -0.730193 -0.594991 0.335863 0 0
    0 -43.499636 -75.344515 17.373431 -0.425860 -0.899471 -0.097958 0 0
    0 0.000419 -87.000104 17.373367 0.825572 -0.564181 -0.011381 0 0
  phy
    0 0.000356 -74.020782 4.009018 -0.730193 -0.594991 0.335863 0 0
    0 0.000419 -87.000104 17.373367 0.825572 -0.564181 -0.011381 0 0
    0 0.000419 -87.000007 1.194833 0.556994 0.829250 0.045854 0 0
  phy
    0 -43.499636 -75.344423 1.194898 0.705591 0.625320 -0.333339 0 0
    0 -75.344001 -43.500371 1.195071 0.464893 0.594003 -0.656533 0 0
    0 -37.074851 -64.041662 1.194960 -0.055110 0.993202 0.102532 0 0
  phy
    0 -37.074851 -64.041662 1.194960 -0.055110 0.993202 0.102532 0 0
    0 -75.344001 -43.500371 1.195071 0.464893 0.594003 -0.656533 0 0
    0 -64.103680 -37.010695 1.195107 -0.346502 0.903410 0.252559 0 0
  phy
    0 -37.074851 -64.041662 1.194960 -0.055110 0.993202 0.102532 0 0
    0 -64.103680 -37.010695 1.195107 -0.346502 0.903410 0.252559 0 0
    0 -37.010070 -64.104055 4.009071 -0.464893 -0.594003 0.656533 0 0
  phy
    0 -64.103680 -37.010695 1.195107 -0.346502 0.903410 0.252559 0 0
    0 -64.102155 -37.009827 4.007407 -0.750211 -0.552880 0.362640 0 0
    0 -37.010070 -64.104055 4.009071 -0.464893 -0.594003 0.656533 0 0
  phy
    0 -37.010070 -64.104055 4.009071 -0.464893 -0.594003 0.656533 0 0
    0 -43.499636 -75.344423 1.194898 0.705591 0.625320 -0.333339 0 0
    0 -37.074851 -64.041662 1.194960 -0.055110 0.993202 0.102532 0 0
  phy
    0 -64.103680 -37.010695 1.195107 -0.346502 0.903410 0.252559 0 0
    0 -75.344001 -43.500371 1.195071 0.464893 0.594003 -0.656533 0 0
    0 -64.102155 -37.009827 4.007407 -0.750211 -0.552880 0.362640 0 0
  phy
    0 -75.344011 -43.500453 17.373606 -0.394516 -0.907306 0.145441 0 0
    0 -43.499636 -75.344515 17.373428 0.709276 -0.564182 -0.422642 0 0
    0 -37.010070 -64.104055 4.009071 -0.464893 -0.594003 0.656533 0 0
  phy
    0 -37.010070 -64.104055 4.009071 -0.464893 -0.594003 0.656533 0 0
    0 -64.102155 -37.009827 4.007407 -0.750211 -0.552880 0.362640 0 0
    0 -75.344011 -43.500453 17.373606 -0.394516 -0.907306 0.145441 0 0
  phy
    0 -37.010070 -64.104055 4.009071 -0.464893 -0.594003 0.656533 0 0
    0 -43.499636 -75.344515 17.373428 0.709276 -0.564182 -0.422642 0 0
    0 -43.499636 -75.344423 1.194898 0.705591 0.625320 -0.333339 0 0
  phy
    0 -75.344001 -43.500371 1.195071 0.464893 0.594003 -0.656533 0 0
    0 -43.499636 -75.344515 17.373428 0.709276 -0.564182 -0.422642 0 0
    0 -75.344011 -43.500453 17.373606 -0.394516 -0.907306 0.145441 0 0
  phy
    0 -43.499636 -75.344423 1.194898 0.705591 0.625320 -0.333339 0 0
    0 -43.499636 -75.344515 17.373428 0.709276 -0.564182 -0.422642 0 0
    0 -75.344001 -43.500371 1.195071 0.464893 0.594003 -0.656533 0 0
  phy
    0 -75.344001 -43.500371 1.195071 0.464893 0.594003 -0.656533 0 0
    0 -75.344011 -43.500453 17.373606 -0.394516 -0.907306 0.145441 0 0
    0 -64.102155 -37.009827 4.007407 -0.750211 -0.552880 0.362640 0 0
  phy
    0 -64.103680 -37.010695 1.195107 -0.045485 0.903512 0.426142 0 0
    0 -75.344001 -43.500380 1.195072 0.318793 0.828556 -0.460289 0 0
    0 -74.020760 -0.000363 1.195308 -0.061241 0.993202 0.098992 0 0
  phy
    0 -74.020760 -0.000363 1.195308 -0.061241 0.993202 0.098992 0 0
    0 -75.344001 -43.500380 1.195072 0.318793 0.828556 -0.460289 0 0
    0 -87.000000 -0.000425 1.195308 0.085823 0.370917 -0.924692 0 0
  phy
    0 -74.020760 -0.000378 4.009420 -0.454867 -0.502470 0.735269 0 0
    0 -74.020760 -0.000363 1.195308 -0.061241 0.993202 0.098992 0 0
    0 -87.000000 -0.000425 1.195308 0.085823 0.370917 -0.924692 0 0
  phy
    0 -74.020760 -0.000378 4.009420 -0.454867 -0.502470 0.735269 0 0
    0 -87.000000 -0.000425 1.195308 0.085823 0.370917 -0.924692 0 0
    0 -87.000000 -0.000513 17.373836 -0.268922 -0.907323 0.323182 0 0
  phy
    0 -74.020760 -0.000363 1.195308 -0.061241 0.993202 0.098992 0 0
    0 -74.020760 -0.000378 4.009420 -0.454867 -0.502470 0.735269 0 0
    0 -64.103680 -37.010695 1.195107 -0.045485 0.903512 0.426142 0 0
  phy
    0 -64.103680 -37.010695 1.195107 -0.045485 0.903512 0.426142 0 0
    0 -74.020760 -0.000378 4.009420 -0.454867 -0.502470 0.735269 0 0
    0 -64.103680 -37.010707 4.009218 -0.061378 -0.624340 0.778738 0 0
  phy
    0 -64.103680 -37.010707 4.009218 -0.061378 -0.624340 0.778738 0 0
    0 -75.344001 -43.500380 1.195072 0.318793 0.828556 -0.460289 0 0
    0 -64.103680 -37.010695 1.195107 -0.045485 0.903512 0.426142 0 0
  phy
    0 -87.000000 -0.000513 17.373836 -0.268922 -0.907323 0.323182 0 0
    0 -75.344001 -43.500453 17.373600 0.402930 -0.564182 -0.720657 0 0
    0 -64.103680 -37.010707 4.009218 -0.061378 -0.624340 0.778738 0 0
  phy
    0 -64.103680 -37.010707 4.009218 -0.061378 -0.624340 0.778738 0 0
    0 -74.020760 -0.000378 4.009420 -0.454867 -0.502470 0.735269 0 0
    0 -87.000000 -0.000513 17.373836 -0.268922 -0.907323 0.323182 0 0
  phy
    0 -75.344001 -43.500453 17.373600 0.402930 -0.564182 -0.720657 0 0
    0 -75.344001 -43.500380 1.195072 0.318793 0.828556 -0.460289 0 0
    0 -64.103680 -37.010707 4.009218 -0.061378 -0.624340 0.778738 0 0
  phy
    0 -87.000000 -0.000513 17.373836 -0.268922 -0.907323 0.323182 0 0
    0 -87.000000 -0.000425 1.195308 0.085823 0.370917 -0.924692 0 0
    0 -75.344001 -43.500453 17.373600 0.402930 -0.564182 -0.720657 0 0
  phy
    0 -75.344001 -43.500453 17.373600 0.402930 -0.564182 -0.720657 0 0
    0 -87.000000 -0.000425 1.195308 0.085823 0.370917 -0.924692 0 0
    0 -75.344001 -43.500380 1.195072 0.318793 0.828556 -0.460289 0 0
  phy
    0 -64.104033 37.010053 4.009621 -0.061050 -0.552880 0.831022 0 0
    0 -74.020760 -0.000378 4.009421 0.335989 -0.594444 0.730581 0 0
    0 -64.104033 37.010063 1.195510 0.045485 0.903512 0.426142 0 0
  phy
    0 -74.020760 -0.000378 4.009421 0.335989 -0.594444 0.730581 0 0
    0 -74.020760 -0.000363 1.195308 0.061241 0.993202 0.098992 0 0
    0 -64.104033 37.010063 1.195510 0.045485 0.903512 0.426142 0 0
  phy
    0 -64.104033 37.010063 1.195510 0.045485 0.903512 0.426142 0 0
    0 -74.020760 -0.000363 1.195308 0.061241 0.993202 0.098992 0 0
    0 -75.344416 43.499630 1.195545 -0.335989 0.594444 -0.730581 0 0
  phy
    0 -75.344416 43.499630 1.195545 -0.335989 0.594444 -0.730581 0 0
    0 -74.020760 -0.000363 1.195308 0.061241 0.993202 0.098992 0 0
    0 -87.000000 -0.000426 1.195308 0.064081 0.624479 -0.778408 0 0
  phy
    0 -74.020760 -0.000378 4.009421 0.335989 -0.594444 0.730581 0 0
    0 -87.000000 -0.000426 1.195308 0.064081 0.624479 -0.778408 0 0
    0 -74.020760 -0.000363 1.195308 0.061241 0.993202 0.098992 0 0
  phy
    0 -74.020760 -0.000378 4.009421 0.335989 -0.594444 0.730581 0 0
    0 -87.000000 -0.000514 17.373838 -0.011381 -0.564182 -0.825572 0 0
    0 -87.000000 -0.000426 1.195308 0.064081 0.624479 -0.778408 0 0
  phy
    0 -64.104033 37.010063 1.195510 0.045485 0.903512 0.426142 0 0
    0 -75.344416 43.499630 1.195545 -0.335989 0.594444 -0.730581 0 0
    0 -64.104033 37.010053 4.009621 -0.061050 -0.552880 0.831022 0 0
  phy
    0 -64.104033 37.010053 4.009621 -0.061050 -0.552880 0.831022 0 0
    0 -75.344411 43.499566 17.374074 -0.071303 -0.907323 0.414345 0 0
    0 -74.020760 -0.000378 4.009421 0.335989 -0.594444 0.730581 0 0
  phy
    0 -74.020760 -0.000378 4.009421 0.335989 -0.594444 0.730581 0 0
    0 -75.344411 43.499566 17.374074 -0.071303 -0.907323 0.414345 0 0
    0 -87.000000 -0.000514 17.373838 -0.011381 -0.564182 -0.825572 0 0
  phy
    0 -75.344411 43.499566 17.374074 -0.071303 -0.907323 0.414345 0 0
    0 -75.344416 43.499630 1.195545 -0.335989 0.594444 -0.730581 0 0
    0 -87.000000 -0.000514 17.373838 -0.011381 -0.564182 -0.825572 0 0
  phy
    0 -87.000000 -0.000514 17.373838 -0.011381 -0.564182 -0.825572 0 0
    0 -75.344416 43.499630 1.195545 -0.335989 0.594444 -0.730581 0 0
    0 -87.000000 -0.000426 1.195308 0.064081 0.624479 -0.778408 0 0
  phy
    0 -64.104033 37.010053 4.009621 -0.061050 -0.552880 0.831022 0 0
    0 -75.344416 43.499630 1.195545 -0.335989 0.594444 -0.730581 0 0
    0 -75.344411 43.499566 17.374074 -0.071303 -0.907323 0.414345 0 0
  phy
    0 -37.010688 64.103659 4.009771 0.530048 -0.606131 0.593005 0 0
    0 -43.500364 75.343912 17.374258 0.128411 -0.899237 0.418190 0 0
    0 -64.104029 37.010050 4.009619 0.572015 -0.615088 0.542647 0 0
  phy
    0 -64.104029 37.010050 4.009619 0.572015 -0.615088 0.542647 0 0
    0 -43.500364 75.343912 17.374258 0.128411 -0.899237 0.418190 0 0
    0 -75.344416 43.499547 17.374079 -0.390936 -0.564040 -0.727343 0 0
  phy
    0 -37.010688 64.103674 1.195658 0.026393 0.943463 0.330424 0 0
    0 -37.010688 64.103659 4.009771 0.530048 -0.606131 0.593005 0 0
    0 -64.104029 37.010050 4.009619 0.572015 -0.615088 0.542647 0 0
  phy
    0 -64.104029 37.010050 4.009619 0.572015 -0.615088 0.542647 0 0
    0 -64.104033 37.010063 1.195510 0.514668 0.853313 -0.083509 0 0
    0 -37.010688 64.103674 1.195658 0.026393 0.943463 0.330424 0 0
  phy
    0 -75.344416 43.499547 17.374079 -0.390936 -0.564040 -0.727343 0 0
    0 -64.104033 37.010063 1.195510 0.514668 0.853313 -0.083509 0 0
    0 -64.104029 37.010050 4.009619 0.572015 -0.615088 0.542647 0 0
  phy
    0 -37.010688 64.103674 1.195658 0.026393 0.943463 0.330424 0 0
    0 -43.500364 75.343912 17.374258 0.128411 -0.899237 0.418190 0 0
    0 -37.010688 64.103659 4.009771 0.530048 -0.606131 0.593005 0 0
  phy
    0 -43.500364 75.343995 1.195719 -0.744152 0.370050 -0.556148 0 0
    0 -43.500364 75.343912 17.374258 0.128411 -0.899237 0.418190 0 0
    0 -37.010688 64.103674 1.195658 0.026393 0.943463 0.330424 0 0
  phy
    0 -37.010688 64.103674 1.195658 0.026393 0.943463 0.330424 0 0
    0 -75.344430 43.499616 1.195545 -0.264548 0.829312 -0.492196 0 0
    0 -43.500364 75.343995 1.195719 -0.744152 0.370050 -0.556148 0 0
  phy
    0 -75.344430 43.499616 1.195545 -0.264548 0.829312 -0.492196 0 0
    0 -37.010688 64.103674 1.195658 0.026393 0.943463 0.330424 0 0
    0 -64.104033 37.010063 1.195510 0.514668 0.853313 -0.083509 0 0
  phy
    0 -75.344430 43.499616 1.195545 -0.264548 0.829312 -0.492196 0 0
    0 -75.344416 43.499547 17.374079 -0.390936 -0.564040 -0.727343 0 0
    0 -43.500364 75.343995 1.195719 -0.744152 0.370050 -0.556148 0 0
  phy
    0 -43.500364 75.343995 1.195719 -0.744152 0.370050 -0.556148 0 0
    0 -75.344416 43.499547 17.374079 -0.390936 -0.564040 -0.727343 0 0
    0 -43.500364 75.343912 17.374258 0.128411 -0.899237 0.418190 0 0
  phy
    0 -75.344430 43.499616 1.195545 -0.264548 0.829312 -0.492196 0 0
    0 -64.104033 37.010063 1.195510 0.514668 0.853313 -0.083509 0 0
    0 -75.344416 43.499547 17.374079 -0.390936 -0.564040 -0.727343 0 0
  phy
    0 -43.500369 75.343995 1.195718 -0.843718 0.370917 -0.388021 0 0
    0 -37.010688 64.103659 4.009771 0.831022 -0.552880 -0.061050 0 0
    0 -43.500369 75.343907 17.374257 0.414345 -0.907323 -0.071303 0 0
  phy
    0 -37.010688 64.103659 4.009771 0.831022 -0.552880 -0.061050 0 0
    0 -43.500369 75.343995 1.195718 -0.843718 0.370917 -0.388021 0 0
    0 -37.010688 64.103674 1.195658 0.211839 0.977043 0.022611 0 0
  phy
    0 -0.000356 74.020739 4.009826 0.730581 -0.594443 0.335990 0 0
    0 -43.500369 75.343907 17.374257 0.414345 -0.907323 -0.071303 0 0
    0 -37.010688 64.103659 4.009771 0.831022 -0.552880 -0.061050 0 0
  phy
    0 -37.010688 64.103659 4.009771 0.831022 -0.552880 -0.061050 0 0
    0 -37.010688 64.103674 1.195658 0.211839 0.977043 0.022611 0 0
    0 -0.000356 74.020739 4.009826 0.730581 -0.594443 0.335990 0 0
  phy
    0 -0.000419 86.999994 1.195783 -0.558019 0.828556 0.045938 0 0
    0 -0.000356 74.020739 4.009826 0.730581 -0.594443 0.335990 0 0
    0 -0.000356 74.020754 1.195712 0.210096 0.969003 0.129974 0 0
  phy
    0 -0.000419 86.999994 1.195783 -0.558019 0.828556 0.045938 0 0
    0 -0.000419 86.999906 17.374320 -0.825572 -0.564181 -0.011381 0 0
    0 -0.000356 74.020739 4.009826 0.730581 -0.594443 0.335990 0 0
  phy
    0 -0.000356 74.020739 4.009826 0.730581 -0.594443 0.335990 0 0
    0 -37.010688 64.103674 1.195658 0.211839 0.977043 0.022611 0 0
    0 -0.000356 74.020754 1.195712 0.210096 0.969003 0.129974 0 0
  phy
    0 -0.000356 74.020754 1.195712 0.210096 0.969003 0.129974 0 0
    0 -37.010688 64.103674 1.195658 0.211839 0.977043 0.022611 0 0
    0 -0.000419 86.999994 1.195783 -0.558019 0.828556 0.045938 0 0
  phy
    0 -0.000419 86.999906 17.374320 -0.825572 -0.564181 -0.011381 0 0
    0 -43.500369 75.343995 1.195718 -0.843718 0.370917 -0.388021 0 0
    0 -43.500369 75.343907 17.374257 0.414345 -0.907323 -0.071303 0 0
  phy
    0 -43.500369 75.343995 1.195718 -0.843718 0.370917 -0.388021 0 0
    0 -0.000419 86.999906 17.374320 -0.825572 -0.564181 -0.011381 0 0
    0 -0.000419 86.999994 1.195783 -0.558019 0.828556 0.045938 0 0
  phy
    0 -37.010688 64.103674 1.195658 0.211839 0.977043 0.022611 0 0
    0 -43.500369 75.343995 1.195718 -0.843718 0.370917 -0.388021 0 0
    0 -0.000419 86.999994 1.195783 -0.558019 0.828556 0.045938 0 0
  phy
    0 -0.000419 86.999906 17.374320 -0.825572 -0.564181 -0.011381 0 0
    0 -43.500369 75.343907 17.374257 0.414345 -0.907323 -0.071303 0 0
    0 -0.000356 74.020739 4.009826 0.730581 -0.594443 0.335990 0 0
  phy
    0 75.344001 43.499604 138.841098 -0.084559 0.985596 0.146460 0 0
    0 75.344006 43.499584 140.841102 -0.003135 -0.999980 0.005431 0 0
    0 84.035439 22.516905 138.840985 -0.207939 0.595420 0.776039 0 0
  phy
    0 75.344006 43.499584 140.841102 -0.003135 -0.999980 0.005431 0 0
    0 84.035439 22.516894 140.840988 -0.008024 -0.999519 0.029945 0 0
    0 84.035439 22.516905 138.840985 -0.207939 0.595420 0.776039 0 0
  phy
    0 84.035439 22.516894 140.840988 -0.008024 -0.999519 0.029945 0 0
    0 87.000000 -0.000349 140.840866 -0.003019 -0.997626 0.068802 0 0
    0 84.035439 22.516905 138.840985 -0.207939 0.595420 0.776039 0 0
  phy
    0 87.000000 -0.000349 140.840866 -0.003019 -0.997626 0.068802 0 0
    0 87.000000 -0.000338 138.840863 0.002383 0.998521 0.054311 0 0
    0 84.035439 22.516905 138.840985 -0.207939 0.595420 0.776039 0 0
  phy
    0 -43.499636 -75.345181 138.840456 0.631311 0.702538 -0.328461 0 0
    0 -61.517994 -61.519341 138.840530 0.030408 0.999075 -0.030408 0 0
    0 -22.516852 -84.036414 138.840409 0.243583 0.968379 -0.053944 0 0
  phy
    0 -22.516852 -84.036414 138.840409 0.243583 0.968379 -0.053944 0 0
    0 -61.517994 -61.519341 138.840530 0.030408 0.999075 -0.030408 0 0
    0 0.000419 -87.000760 138.840393 0.078247 0.996934 0.000000 0 0
  phy
    0 0.000419 -87.000760 138.840393 0.078247 0.996934 0.000000 0 0
    0 -61.517994 -61.519341 138.840530 0.030408 0.999075 -0.030408 0 0
    0 22.517663 -84.036200 138.840409 0.067239 0.997626 0.014891 0 0
  phy
    0 22.517663 -84.036200 138.840409 0.067239 0.997626 0.014891 0 0
    0 -61.517994 -61.519341 138.840530 0.030408 0.999075 -0.030408 0 0
    0 43.500364 -75.344757 138.840456 0.006552 0.999973 0.003409 0 0
  phy
    0 43.500364 -75.344757 138.840456 0.006552 0.999973 0.003409 0 0
    0 -61.517994 -61.519341 138.840530 0.030408 0.999075 -0.030408 0 0
    0 -75.344001 -43.501115 138.840628 0.015921 0.999405 -0.030601 0 0
  phy
    0 43.500364 -75.344757 138.840456 0.006552 0.999973 0.003409 0 0
    0 -75.344001 -43.501115 138.840628 0.015921 0.999405 -0.030601 0 0
    0 -84.035439 -22.518418 138.840741 0.004726 0.999833 -0.017637 0 0
  phy
    0 43.500364 -75.344757 138.840456 0.006552 0.999973 0.003409 0 0
    0 -84.035439 -22.518418 138.840741 0.004726 0.999833 -0.017637 0 0
    0 -87.000000 -0.001176 138.840863 0.001009 0.999735 -0.022982 0 0
  phy
    0 43.500364 -75.344757 138.840456 0.006552 0.999973 0.003409 0 0
    0 -87.000000 -0.001176 138.840863 0.001009 0.999735 -0.022982 0 0
    0 -84.035654 22.516096 138.840985 -0.006968 0.999638 -0.026006 0 0
  phy
    0 43.500364 -75.344757 138.840456 0.006552 0.999973 0.003409 0 0
    0 -84.035654 22.516096 138.840985 -0.006968 0.999638 -0.026006 0 0
    0 -75.344416 43.498881 138.841098 -0.003839 0.999974 -0.006024 0 0
  phy
    0 43.500364 -75.344757 138.840456 0.006552 0.999973 0.003409 0 0
    0 -75.344416 43.498881 138.841098 -0.003839 0.999974 -0.006024 0 0
    0 61.518590 -61.518754 138.840530 0.012945 0.999846 0.011857 0 0
  phy
    0 61.518590 -61.518754 138.840530 0.012945 0.999846 0.011857 0 0
    0 -75.344416 43.498881 138.841098 -0.003839 0.999974 -0.006024 0 0
    0 75.344416 -43.500396 138.840628 0.003709 0.999972 0.006424 0 0
  phy
    0 75.344416 -43.500396 138.840628 0.003709 0.999972 0.006424 0 0
    0 -75.344416 43.498881 138.841098 -0.003839 0.999974 -0.006024 0 0
    0 -43.500364 75.343232 138.841271 -0.007515 0.999962 -0.004339 0 0
  phy
    0 75.344416 -43.500396 138.840628 0.003709 0.999972 0.006424 0 0
    0 -43.500364 75.343232 138.841271 -0.007515 0.999962 -0.004339 0 0
    0 61.517994 61.517830 138.841196 -0.006084 0.999959 0.006642 0 0
  phy
    0 75.344416 -43.500396 138.840628 0.003709 0.999972 0.006424 0 0
    0 61.517994 61.517830 138.841196 -0.006084 0.999959 0.006642 0 0
    0 87.000000 -0.000338 138.840863 0.002383 0.998521 0.054311 0 0
  phy
    0 75.344416 -43.500396 138.840628 0.003709 0.999972 0.006424 0 0
    0 87.000000 -0.000338 138.840863 0.002383 0.998521 0.054311 0 0
    0 84.035654 -22.517610 138.840741 0.144752 0.828979 0.540223 0 0
  phy
    0 87.000000 -0.000338 138.840863 0.002383 0.998521 0.054311 0 0
    0 61.517994 61.517830 138.841196 -0.006084 0.999959 0.006642 0 0
    0 75.344001 43.499604 138.841098 -0.084559 0.985596 0.146460 0 0
  phy
    0 87.000000 -0.000338 138.840863 0.002383 0.998521 0.054311 0 0
    0 75.344001 43.499604 138.841098 -0.084559 0.985596 0.146460 0 0
    0 84.035439 22.516905 138.840985 -0.207939 0.595420 0.776039 0 0
  phy
    0 61.517994 61.517830 138.841196 -0.006084 0.999959 0.006642 0 0
    0 -43.500364 75.343232 138.841271 -0.007515 0.999962 -0.004339 0 0
    0 22.516852 84.034894 138.841318 -0.051844 0.998521 0.016359 0 0
  phy
    0 61.517994 61.517830 138.841196 -0.006084 0.999959 0.006642 0 0
    0 22.516852 84.034894 138.841318 -0.051844 0.998521 0.016359 0 0
    0 43.499636 75.343656 138.841271 -0.600112 0.702537 0.382502 0 0
  phy
    0 22.516852 84.034894 138.841318 -0.051844 0.998521 0.016359 0 0
    0 -43.500364 75.343232 138.841271 -0.007515 0.999962 -0.004339 0 0
    0 -22.517663 84.034679 138.841318 -0.243582 0.968379 -0.053944 0 0
  phy
    0 22.516852 84.034894 138.841318 -0.051844 0.998521 0.016359 0 0
    0 -22.517663 84.034679 138.841318 -0.243582 0.968379 -0.053944 0 0
    0 -0.000419 86.999240 138.841334 -0.710963 0.702537 0.031200 0 0
  phy
    0 -43.500364 75.343232 138.841271 -0.007515 0.999962 -0.004339 0 0
    0 -75.344416 43.498881 138.841098 -0.003839 0.999974 -0.006024 0 0
    0 -61.518590 61.517238 138.841196 -0.395470 0.828979 -0.395470 0 0
  phy
    0 -84.035439 -22.518418 138.840741 0.004726 0.999833 -0.017637 0 0
    0 -75.344001 -43.501115 138.840628 0.015921 0.999405 -0.030601 0 0
    0 -84.035439 -22.518436 140.840745 0.207939 -0.595420 -0.776039 0 0
  phy
    0 -84.035439 -22.518436 140.840745 0.207939 -0.595420 -0.776039 0 0
    0 -75.344001 -43.501115 138.840628 0.015921 0.999405 -0.030601 0 0
    0 -75.344001 -43.501130 140.840631 0.002946 -0.999985 -0.004622 0 0
  phy
    0 -84.035439 -22.518418 138.840741 0.004726 0.999833 -0.017637 0 0
    0 -84.035439 -22.518436 140.840745 0.207939 -0.595420 -0.776039 0 0
    0 -87.000000 -0.001176 138.840863 0.001009 0.999735 -0.022982 0 0
  phy
    0 -87.000000 -0.001176 138.840863 0.001009 0.999735 -0.022982 0 0
    0 -84.035439 -22.518436 140.840745 0.207939 -0.595420 -0.776039 0 0
    0 -87.000000 -0.001186 140.840866 -0.010938 -0.968379 -0.249244 0 0
  phy
    0 -61.517994 -61.519356 140.840534 0.008268 -0.999932 -0.008268 0 0
    0 -75.344001 -43.501130 140.840631 0.002946 -0.999985 -0.004622 0 0
    0 -61.517994 -61.519341 138.840530 0.030408 0.999075 -0.030408 0 0
  phy
    0 -61.517994 -61.519341 138.840530 0.030408 0.999075 -0.030408 0 0
    0 -75.344001 -43.501130 140.840631 0.002946 -0.999985 -0.004622 0 0
    0 -75.344001 -43.501115 138.840628 0.015921 0.999405 -0.030601 0 0
  phy
    0 61.518590 -61.518765 140.840534 0.480664 -0.702538 0.524788 0 0
    0 75.344416 -43.500407 140.840631 0.084559 -0.985596 0.146460 0 0
    0 43.500364 -75.344768 140.840459 0.017809 -0.999777 0.011351 0 0
  phy
    0 75.344416 -43.500407 140.840631 0.084559 -0.985596 0.146460 0 0
    0 84.035654 -22.517621 140.840745 0.040137 -0.987902 0.149793 0 0
    0 43.500364 -75.344768 140.840459 0.017809 -0.999777 0.011351 0 0
  phy
    0 84.035654 -22.517621 140.840745 0.040137 -0.987902 0.149793 0 0
    0 87.000000 -0.000349 140.840866 -0.003019 -0.997626 0.068802 0 0
    0 43.500364 -75.344768 140.840459 0.017809 -0.999777 0.011351 0 0
  phy
    0 87.000000 -0.000349 140.840866 -0.003019 -0.997626 0.068802 0 0
    0 84.035439 22.516894 140.840988 -0.008024 -0.999519 0.029945 0 0
    0 43.500364 -75.344768 140.840459 0.017809 -0.999777 0.011351 0 0
  phy
    0 84.035439 22.516894 140.840988 -0.008024 -0.999519 0.029945 0 0
    0 75.344006 43.499584 140.841102 -0.003135 -0.999980 0.005431 0 0
    0 43.500364 -75.344768 140.840459 0.017809 -0.999777 0.011351 0 0
  phy
    0 75.344006 43.499584 140.841102 -0.003135 -0.999980 0.005431 0 0
    0 22.517663 -84.036210 140.840412 0.026139 -0.999624 0.008248 0 0
    0 43.500364 -75.344768 140.840459 0.017809 -0.999777 0.011351 0 0
  phy
    0 75.344006 43.499584 140.841102 -0.003135 -0.999980 0.005431 0 0
    0 0.000419 -87.000771 140.840396 0.030637 -0.999531 0.000000 0 0
    0 22.517663 -84.036210 140.840412 0.026139 -0.999624 0.008248 0 0
  phy
    0 75.344006 43.499584 140.841102 -0.003135 -0.999980 0.005431 0 0
    0 -22.516852 -84.036425 140.840412 0.019278 -0.999796 -0.006083 0 0
    0 0.000419 -87.000771 140.840396 0.030637 -0.999531 0.000000 0 0
  phy
    0 75.344006 43.499584 140.841102 -0.003135 -0.999980 0.005431 0 0
    0 -43.499650 -75.345187 140.840459 0.015595 -0.999829 -0.009940 0 0
    0 -22.516852 -84.036425 140.840412 0.019278 -0.999796 -0.006083 0 0
  phy
    0 75.344006 43.499584 140.841102 -0.003135 -0.999980 0.005431 0 0
    0 -61.517994 -61.519356 140.840534 0.008268 -0.999932 -0.008268 0 0
    0 -43.499650 -75.345187 140.840459 0.015595 -0.999829 -0.009940 0 0
  phy
    0 75.344006 43.499584 140.841102 -0.003135 -0.999980 0.005431 0 0
    0 -75.344001 -43.501130 140.840631 0.002946 -0.999985 -0.004622 0 0
    0 -61.517994 -61.519356 140.840534 0.008268 -0.999932 -0.008268 0 0
  phy
    0 75.344006 43.499584 140.841102 -0.003135 -0.999980 0.005431 0 0
    0 43.499636 75.343645 140.841274 -0.005852 -0.999978 0.003045 0 0
    0 -75.344001 -43.501130 140.840631 0.002946 -0.999985 -0.004622 0 0
  phy
    0 75.344006 43.499584 140.841102 -0.003135 -0.999980 0.005431 0 0
    0 61.517984 61.517823 140.841199 -0.524788 -0.702538 0.480664 0 0
    0 43.499636 75.343645 140.841274 -0.005852 -0.999978 0.003045 0 0
  phy
    0 43.499636 75.343645 140.841274 -0.005852 -0.999978 0.003045 0 0
    0 -61.518562 61.517256 140.841199 -0.008409 -0.999929 -0.008409 0 0
    0 -75.344001 -43.501130 140.840631 0.002946 -0.999985 -0.004622 0 0
  phy
    0 43.499636 75.343645 140.841274 -0.005852 -0.999978 0.003045 0 0
    0 -0.000419 86.999229 140.841337 -0.057386 -0.998349 -0.002518 0 0
    0 -61.518562 61.517256 140.841199 -0.008409 -0.999929 -0.008409 0 0
  phy
    0 43.499636 75.343645 140.841274 -0.005852 -0.999978 0.003045 0 0
    0 22.516852 84.034883 140.841321 -0.694812 -0.702537 0.153874 0 0
    0 -0.000419 86.999229 140.841337 -0.057386 -0.998349 -0.002518 0 0
  phy
    0 -0.000419 86.999229 140.841337 -0.057386 -0.998349 -0.002518 0 0
    0 -22.517696 84.034668 140.841321 -0.237921 -0.968379 -0.075075 0 0
    0 -61.518562 61.517256 140.841199 -0.008409 -0.999929 -0.008409 0 0
  phy
    0 -22.517696 84.034668 140.841321 -0.237921 -0.968379 -0.075075 0 0
    0 -43.500364 75.343230 140.841274 -0.484354 -0.828977 -0.279642 0 0
    0 -61.518562 61.517256 140.841199 -0.008409 -0.999929 -0.008409 0 0
  phy
    0 -61.518562 61.517256 140.841199 -0.008409 -0.999929 -0.008409 0 0
    0 -84.035654 22.516086 140.840988 -0.009911 -0.999267 -0.036988 0 0
    0 -75.344001 -43.501130 140.840631 0.002946 -0.999985 -0.004622 0 0
  phy
    0 -61.518562 61.517256 140.841199 -0.008409 -0.999929 -0.008409 0 0
    0 -75.344421 43.498860 140.841102 -0.328461 -0.702537 -0.631312 0 0
    0 -84.035654 22.516086 140.840988 -0.009911 -0.999267 -0.036988 0 0
  phy
    0 -84.035654 22.516086 140.840988 -0.009911 -0.999267 -0.036988 0 0
    0 -87.000000 -0.001186 140.840866 -0.010938 -0.968379 -0.249244 0 0
    0 -75.344001 -43.501130 140.840631 0.002946 -0.999985 -0.004622 0 0
  phy
    0 -87.000000 -0.001186 140.840866 -0.010938 -0.968379 -0.249244 0 0
    0 -84.035439 -22.518436 140.840745 0.207939 -0.595420 -0.776039 0 0
    0 -75.344001 -43.501130 140.840631 0.002946 -0.999985 -0.004622 0 0
  phy
    0 75.344416 -43.500396 138.840628 0.003709 0.999972 0.006424 0 0
    0 84.035654 -22.517621 140.840745 0.040137 -0.987902 0.149793 0 0
    0 75.344416 -43.500407 140.840631 0.084559 -0.985596 0.146460 0 0
  phy
    0 75.344416 -43.500396 138.840628 0.003709 0.999972 0.006424 0 0
    0 84.035654 -22.517610 138.840741 0.144752 0.828979 0.540223 0 0
    0 84.035654 -22.517621 140.840745 0.040137 -0.987902 0.149793 0 0
  phy
    0 75.344416 -43.500396 138.840628 0.003709 0.999972 0.006424 0 0
    0 61.518590 -61.518765 140.840534 0.480664 -0.702538 0.524788 0 0
    0 61.518590 -61.518754 138.840530 0.012945 0.999846 0.011857 0 0
  phy
    0 75.344416 -43.500396 138.840628 0.003709 0.999972 0.006424 0 0
    0 75.344416 -43.500407 140.840631 0.084559 -0.985596 0.146460 0 0
    0 61.518590 -61.518765 140.840534 0.480664 -0.702538 0.524788 0 0
  phy
    0 -22.517696 84.034668 140.841321 -0.237921 -0.968379 -0.075075 0 0
    0 -0.000419 86.999229 140.841337 -0.057386 -0.998349 -0.002518 0 0
    0 -22.517663 84.034679 138.841318 -0.243582 0.968379 -0.053944 0 0
  phy
    0 -22.517663 84.034679 138.841318 -0.243582 0.968379 -0.053944 0 0
    0 -0.000419 86.999229 140.841337 -0.057386 -0.998349 -0.002518 0 0
    0 -0.000419 86.999240 138.841334 -0.710963 0.702537 0.031200 0 0
  phy
    0 -43.500364 75.343230 140.841274 -0.484354 -0.828977 -0.279642 0 0
    0 -22.517696 84.034668 140.841321 -0.237921 -0.968379 -0.075075 0 0
    0 -43.500364 75.343232 138.841271 -0.007515 0.999962 -0.004339 0 0
  phy
    0 -43.500364 75.343232 138.841271 -0.007515 0.999962 -0.004339 0 0
    0 -22.517696 84.034668 140.841321 -0.237921 -0.968379 -0.075075 0 0
    0 -22.517663 84.034679 138.841318 -0.243582 0.968379 -0.053944 0 0
  phy
    0 43.499636 75.343656 138.841271 -0.600112 0.702537 0.382502 0 0
    0 22.516852 84.034894 138.841318 -0.051844 0.998521 0.016359 0 0
    0 43.499636 75.343645 140.841274 -0.005852 -0.999978 0.003045 0 0
  phy
    0 43.499636 75.343645 140.841274 -0.005852 -0.999978 0.003045 0 0
    0 22.516852 84.034894 138.841318 -0.051844 0.998521 0.016359 0 0
    0 22.516852 84.034883 140.841321 -0.694812 -0.702537 0.153874 0 0
  phy
    0 22.516852 84.034894 138.841318 -0.051844 0.998521 0.016359 0 0
    0 -0.000419 86.999240 138.841334 -0.710963 0.702537 0.031200 0 0
    0 22.516852 84.034883 140.841321 -0.694812 -0.702537 0.153874 0 0
  phy
    0 -43.500364 75.343230 140.841274 -0.484354 -0.828977 -0.279642 0 0
    0 -43.500364 75.343232 138.841271 -0.007515 0.999962 -0.004339 0 0
    0 -61.518562 61.517256 140.841199 -0.008409 -0.999929 -0.008409 0 0
  phy
    0 -87.000000 -0.001186 140.840866 -0.010938 -0.968379 -0.249244 0 0
    0 -84.035654 22.516086 140.840988 -0.009911 -0.999267 -0.036988 0 0
    0 -84.035654 22.516096 138.840985 -0.006968 0.999638 -0.026006 0 0
  phy
    0 -87.000000 -0.001186 140.840866 -0.010938 -0.968379 -0.249244 0 0
    0 -84.035654 22.516096 138.840985 -0.006968 0.999638 -0.026006 0 0
    0 -87.000000 -0.001176 138.840863 0.001009 0.999735 -0.022982 0 0
  phy
    0 -84.035654 22.516086 140.840988 -0.009911 -0.999267 -0.036988 0 0
    0 -75.344421 43.498860 140.841102 -0.328461 -0.702537 -0.631312 0 0
    0 -84.035654 22.516096 138.840985 -0.006968 0.999638 -0.026006 0 0
  phy
    0 -84.035654 22.516096 138.840985 -0.006968 0.999638 -0.026006 0 0
    0 -75.344421 43.498860 140.841102 -0.328461 -0.702537 -0.631312 0 0
    0 -75.344416 43.498881 138.841098 -0.003839 0.999974 -0.006024 0 0
  phy
    0 -61.518590 61.517238 138.841196 -0.395470 0.828979 -0.395470 0 0
    0 -75.344416 43.498881 138.841098 -0.003839 0.999974 -0.006024 0 0
    0 -61.518562 61.517256 140.841199 -0.008409 -0.999929 -0.008409 0 0
  phy
    0 -43.500364 75.343232 138.841271 -0.007515 0.999962 -0.004339 0 0
    0 -61.518590 61.517238 138.841196 -0.395470 0.828979 -0.395470 0 0
    0 -61.518562 61.517256 140.841199 -0.008409 -0.999929 -0.008409 0 0
  phy
    0 -43.499636 -75.345181 138.840456 0.631311 0.702538 -0.328461 0 0
    0 -43.499650 -75.345187 140.840459 0.015595 -0.999829 -0.009940 0 0
    0 -61.517994 -61.519341 138.840530 0.030408 0.999075 -0.030408 0 0
  phy
    0 -43.499650 -75.345187 140.840459 0.015595 -0.999829 -0.009940 0 0
    0 -61.517994 -61.519356 140.840534 0.008268 -0.999932 -0.008268 0 0
    0 -61.517994 -61.519341 138.840530 0.030408 0.999075 -0.030408 0 0
  phy
    0 -22.516852 -84.036414 138.840409 0.243583 0.968379 -0.053944 0 0
    0 -22.516852 -84.036425 140.840412 0.019278 -0.999796 -0.006083 0 0
    0 -43.499636 -75.345181 138.840456 0.631311 0.702538 -0.328461 0 0
  phy
    0 -22.516852 -84.036425 140.840412 0.019278 -0.999796 -0.006083 0 0
    0 -43.499650 -75.345187 140.840459 0.015595 -0.999829 -0.009940 0 0
    0 -43.499636 -75.345181 138.840456 0.631311 0.702538 -0.328461 0 0
  phy
    0 -22.516852 -84.036414 138.840409 0.243583 0.968379 -0.053944 0 0
    0 0.000419 -87.000771 140.840396 0.030637 -0.999531 0.000000 0 0
    0 -22.516852 -84.036425 140.840412 0.019278 -0.999796 -0.006083 0 0
  phy
    0 43.499636 75.343645 140.841274 -0.005852 -0.999978 0.003045 0 0
    0 61.517984 61.517823 140.841199 -0.524788 -0.702538 0.480664 0 0
    0 43.499636 75.343656 138.841271 -0.600112 0.702537 0.382502 0 0
  phy
    0 43.499636 75.343656 138.841271 -0.600112 0.702537 0.382502 0 0
    0 61.517984 61.517823 140.841199 -0.524788 -0.702538 0.480664 0 0
    0 61.517994 61.517830 138.841196 -0.006084 0.999959 0.006642 0 0
  phy
    0 75.344006 43.499584 140.841102 -0.003135 -0.999980 0.005431 0 0
    0 75.344001 43.499604 138.841098 -0.084559 0.985596 0.146460 0 0
    0 61.517994 61.517830 138.841196 -0.006084 0.999959 0.006642 0 0
  phy
    0 61.517994 61.517830 138.841196 -0.006084 0.999959 0.006642 0 0
    0 61.517984 61.517823 140.841199 -0.524788 -0.702538 0.480664 0 0
    0 75.344006 43.499584 140.841102 -0.003135 -0.999980 0.005431 0 0
  phy
    0 84.035654 -22.517621 140.840745 0.040137 -0.987902 0.149793 0 0
    0 87.000000 -0.000338 138.840863 0.002383 0.998521 0.054311 0 0
    0 87.000000 -0.000349 140.840866 -0.003019 -0.997626 0.068802 0 0
  phy
    0 84.035654 -22.517621 140.840745 0.040137 -0.987902 0.149793 0 0
    0 84.035654 -22.517610 138.840741 0.144752 0.828979 0.540223 0 0
    0 87.000000 -0.000338 138.840863 0.002383 0.998521 0.054311 0 0
  phy
    0 22.516852 84.034883 140.841321 -0.694812 -0.702537 0.153874 0 0
    0 -0.000419 86.999240 138.841334 -0.710963 0.702537 0.031200 0 0
    0 -0.000419 86.999229 140.841337 -0.057386 -0.998349 -0.002518 0 0
  phy
    0 -75.344416 43.498881 138.841098 -0.003839 0.999974 -0.006024 0 0
    0 -75.344421 43.498860 140.841102 -0.328461 -0.702537 -0.631312 0 0
    0 -61.518562 61.517256 140.841199 -0.008409 -0.999929 -0.008409 0 0
  phy
    0 0.000419 -87.000771 140.840396 0.030637 -0.999531 0.000000 0 0
    0 22.517663 -84.036200 138.840409 0.067239 0.997626 0.014891 0 0
    0 22.517663 -84.036210 140.840412 0.026139 -0.999624 0.008248 0 0
  phy
    0 0.000419 -87.000771 140.840396 0.030637 -0.999531 0.000000 0 0
    0 0.000419 -87.000760 138.840393 0.078247 0.996934 0.000000 0 0
    0 22.517663 -84.036200 138.840409 0.067239 0.997626 0.014891 0 0
  phy
    0 43.500364 -75.344757 138.840456 0.006552 0.999973 0.003409 0 0
    0 22.517663 -84.036210 140.840412 0.026139 -0.999624 0.008248 0 0
    0 22.517663 -84.036200 138.840409 0.067239 0.997626 0.014891 0 0
  phy
    0 43.500364 -75.344757 138.840456 0.006552 0.999973 0.003409 0 0
    0 43.500364 -75.344768 140.840459 0.017809 -0.999777 0.011351 0 0
    0 22.517663 -84.036210 140.840412 0.026139 -0.999624 0.008248 0 0
  phy
    0 43.500364 -75.344768 140.840459 0.017809 -0.999777 0.011351 0 0
    0 61.518590 -61.518754 138.840530 0.012945 0.999846 0.011857 0 0
    0 61.518590 -61.518765 140.840534 0.480664 -0.702538 0.524788 0 0
  phy
    0 43.500364 -75.344768 140.840459 0.017809 -0.999777 0.011351 0 0
    0 43.500364 -75.344757 138.840456 0.006552 0.999973 0.003409 0 0
    0 61.518590 -61.518754 138.840530 0.012945 0.999846 0.011857 0 0
  phy
    0 0.000419 -87.000760 138.840393 0.078247 0.996934 0.000000 0 0
    0 0.000419 -87.000771 140.840396 0.030637 -0.999531 0.000000 0 0
    0 -22.516852 -84.036414 138.840409 0.243583 0.968379 -0.053944 0 0
  phy
    0 95.508733 10.724866 101.505914 0.168801 0.912811 0.371863 0 0
    0 85.711491 52.675743 101.185186 -0.311865 0.633436 0.708166 0 0
    0 96.374621 11.338268 138.433322 -0.070943 -0.159682 0.984616 0 0
  phy
    0 85.711491 52.675743 101.185186 -0.311865 0.633436 0.708166 0 0
    0 86.507271 53.253116 138.114434 -0.515202 -0.404807 0.755446 0 0
    0 96.374621 11.338268 138.433322 -0.070943 -0.159682 0.984616 0 0
  phy
    0 83.021967 4.100452 139.351092 0.461954 -0.843263 -0.274782 0 0
    0 95.508733 10.724866 101.505914 0.168801 0.912811 0.371863 0 0
    0 96.374621 11.338268 138.433322 -0.070943 -0.159682 0.984616 0 0
  phy
    0 96.374621 11.338268 138.433322 -0.070943 -0.159682 0.984616 0 0
    0 86.507271 53.253116 138.114434 -0.515202 -0.404807 0.755446 0 0
    0 83.021967 4.100452 139.351092 0.461954 -0.843263 -0.274782 0 0
  phy
    0 54.036828 86.940740 138.430840 -0.548469 -0.786942 0.282674 0 0
    0 86.507271 53.253116 138.114434 -0.515202 -0.404807 0.755446 0 0
    0 53.239161 86.361992 101.413781 -0.783583 0.230100 0.577107 0 0
  phy
    0 53.239161 86.361992 101.413781 -0.783583 0.230100 0.577107 0 0
    0 86.507271 53.253116 138.114434 -0.515202 -0.404807 0.755446 0 0
    0 85.711491 52.675743 101.185186 -0.311865 0.633436 0.708166 0 0
  phy
    0 54.036828 86.940740 138.430840 -0.548469 -0.786942 0.282674 0 0
    0 53.239161 86.361992 101.413781 -0.783583 0.230100 0.577107 0 0
    0 11.719775 97.756227 102.094415 -0.410348 0.908947 -0.073685 0 0
  phy
    0 53.239161 86.361992 101.413781 -0.783583 0.230100 0.577107 0 0
    0 85.711491 52.675743 101.185186 -0.311865 0.633436 0.708166 0 0
    0 11.719775 97.756227 102.094415 -0.410348 0.908947 -0.073685 0 0
  phy
    0 54.036828 86.940740 138.430840 -0.548469 -0.786942 0.282674 0 0
    0 4.797444 85.249640 139.911392 0.509095 -0.519613 -0.686167 0 0
    0 83.021967 4.100452 139.351092 0.461954 -0.843263 -0.274782 0 0
  phy
    0 83.021967 4.100452 139.351092 0.461954 -0.843263 -0.274782 0 0
    0 86.507271 53.253116 138.114434 -0.515202 -0.404807 0.755446 0 0
    0 54.036828 86.940740 138.430840 -0.548469 -0.786942 0.282674 0 0
  phy
    0 83.021967 4.100452 139.351092 0.461954 -0.843263 -0.274782 0 0
    0 82.266830 3.552566 103.824627 0.689585 0.343848 -0.637370 0 0
    0 95.508733 10.724866 101.505914 0.168801 0.912811 0.371863 0 0
  phy
    0 83.021967 4.100452 139.351092 0.461954 -0.843263 -0.274782 0 0
    0 4.797444 85.249640 139.911392 0.509095 -0.519613 -0.686167 0 0
    0 82.266830 3.552566 103.824627 0.689585 0.343848 -0.637370 0 0
  phy
    0 4.042306 84.701757 104.384937 0.570390 0.326588 -0.753655 0 0
    0 4.797444 85.249640 139.911392 0.509095 -0.519613 -0.686167 0 0
    0 11.719775 97.756227 102.094415 -0.410348 0.908947 -0.073685 0 0
  phy
    0 4.797444 85.249640 139.911392 0.509095 -0.519613 -0.686167 0 0
    0 4.042306 84.701757 104.384937 0.570390 0.326588 -0.753655 0 0
    0 82.266830 3.552566 103.824627 0.689585 0.343848 -0.637370 0 0
  phy
    0 4.042306 84.701757 104.384937 0.570390 0.326588 -0.753655 0 0
    0 11.719775 97.756227 102.094415 -0.410348 0.908947 -0.073685 0 0
    0 82.266830 3.552566 103.824627 0.689585 0.343848 -0.637370 0 0
  phy
    0 85.711491 52.675743 101.185186 -0.311865 0.633436 0.708166 0 0
    0 95.508733 10.724866 101.505914 0.168801 0.912811 0.371863 0 0
    0 11.719775 97.756227 102.094415 -0.410348 0.908947 -0.073685 0 0
  phy
    0 11.719775 97.756227 102.094415 -0.410348 0.908947 -0.073685 0 0
    0 95.508733 10.724866 101.505914 0.168801 0.912811 0.371863 0 0
    0 82.266830 3.552566 103.824627 0.689585 0.343848 -0.637370 0 0
  phy
    0 54.036828 86.940740 138.430840 -0.548469 -0.786942 0.282674 0 0
    0 12.510232 98.335060 139.023738 -0.950435 -0.310048 -0.023315 0 0
    0 4.797444 85.249640 139.911392 0.509095 -0.519613 -0.686167 0 0
  phy
    0 54.036828 86.940740 138.430840 -0.548469 -0.786942 0.282674 0 0
    0 11.719775 97.756227 102.094415 -0.410348 0.908947 -0.073685 0 0
    0 12.510232 98.335060 139.023738 -0.950435 -0.310048 -0.023315 0 0
  phy
    0 11.719775 97.756227 102.094415 -0.410348 0.908947 -0.073685 0 0
    0 4.797444 85.249640 139.911392 0.509095 -0.519613 -0.686167 0 0
    0 12.510232 98.335060 139.023738 -0.950435 -0.310048 -0.023315 0 0
end
