// Created by Crowbar 0.74
version 1
nodes
  0 "Scene_Root" -1
  1 "Root" 0
  2 "Door_Left" 1
  3 "Door_Right" 1
end
skeleton
  time 0
    0 0.000000 0.000000 0.000000 1.570796 0.000000 0.000000
    1 0.000000 0.000000 0.000000 0.000000 0.000000 0.000000
    2 0.000000 45.053329 0.000000 0.000000 0.680678 0.000000
    3 0.000000 54.462692 0.000000 0.000000 -0.680678 0.000000
end
triangles
  phy
    0 35.646131 86.143946 161.582951 -0.798389 -0.505253 0.327559 0 0
    0 52.720973 77.047885 161.582902 -0.851954 -0.007357 0.523565 0 0
    0 35.646126 86.144830 -0.195114 -0.916846 0.133783 0.376159 0 0
  phy
    0 35.646126 86.144830 -0.195114 -0.916846 0.133783 0.376159 0 0
    0 52.720973 77.047885 161.582902 -0.851954 -0.007357 0.523565 0 0
    0 52.720983 77.048760 -0.195163 -0.803682 0.167449 0.571013 0 0
  phy
    0 52.720983 77.048760 -0.195163 -0.803682 0.167449 0.571013 0 0
    0 52.720973 77.047885 161.582902 -0.851954 -0.007357 0.523565 0 0
    0 66.024731 66.078014 161.582842 0.317793 -0.108150 0.941972 0 0
  phy
    0 52.720973 77.047885 161.582902 -0.851954 -0.007357 0.523565 0 0
    0 35.646131 86.143946 161.582951 -0.798389 -0.505253 0.327559 0 0
    0 66.024731 66.078014 161.582842 0.317793 -0.108150 0.941972 0 0
  phy
    0 39.349370 37.412389 161.582687 0.918641 -0.172293 -0.355548 0 0
    0 35.646131 86.143946 161.582951 -0.798389 -0.505253 0.327559 0 0
    0 0.163248 72.073575 161.582875 0.560019 -0.229316 -0.796111 0 0
  phy
    0 39.349370 37.412389 161.582687 0.918641 -0.172293 -0.355548 0 0
    0 66.024731 66.078014 161.582842 0.317793 -0.108150 0.941972 0 0
    0 35.646131 86.143946 161.582951 -0.798389 -0.505253 0.327559 0 0
  phy
    0 35.646131 86.143946 161.582951 -0.798389 -0.505253 0.327559 0 0
    0 16.238727 92.015446 161.582983 -0.968719 -0.090078 0.231235 0 0
    0 0.163248 72.073575 161.582875 0.560019 -0.229316 -0.796111 0 0
  phy
    0 16.238727 92.015446 161.582983 -0.968719 -0.090078 0.231235 0 0
    0 -0.053755 93.426384 161.582990 -0.627047 -0.041903 -0.777854 0 0
    0 0.163248 72.073575 161.582875 0.560019 -0.229316 -0.796111 0 0
  phy
    0 35.646126 86.144830 -0.195114 -0.916846 0.133783 0.376159 0 0
    0 16.238727 92.015446 161.582983 -0.968719 -0.090078 0.231235 0 0
    0 35.646131 86.143946 161.582951 -0.798389 -0.505253 0.327559 0 0
  phy
    0 16.238720 92.016330 -0.195082 -0.943118 0.292676 0.157699 0 0
    0 16.238727 92.015446 161.582983 -0.968719 -0.090078 0.231235 0 0
    0 35.646126 86.144830 -0.195114 -0.916846 0.133783 0.376159 0 0
  phy
    0 16.238727 92.015446 161.582983 -0.968719 -0.090078 0.231235 0 0
    0 16.238720 92.016330 -0.195082 -0.943118 0.292676 0.157699 0 0
    0 -0.053755 93.426384 161.582990 -0.627047 -0.041903 -0.777854 0 0
  phy
    0 66.024731 66.078898 -0.195223 0.318094 0.099105 0.942865 0 0
    0 39.349370 37.413271 -0.195377 0.943958 0.235512 0.231250 0 0
    0 52.720983 77.048760 -0.195163 -0.803682 0.167449 0.571013 0 0
  phy
    0 52.720983 77.048760 -0.195163 -0.803682 0.167449 0.571013 0 0
    0 39.349370 37.413271 -0.195377 0.943958 0.235512 0.231250 0 0
    0 35.646126 86.144830 -0.195114 -0.916846 0.133783 0.376159 0 0
  phy
    0 35.646126 86.144830 -0.195114 -0.916846 0.133783 0.376159 0 0
    0 39.349370 37.413271 -0.195377 0.943958 0.235512 0.231250 0 0
    0 16.238720 92.016330 -0.195082 -0.943118 0.292676 0.157699 0 0
  phy
    0 16.238720 92.016330 -0.195082 -0.943118 0.292676 0.157699 0 0
    0 39.349370 37.413271 -0.195377 0.943958 0.235512 0.231250 0 0
    0 0.163251 72.074455 -0.195189 0.573693 0.075878 -0.815548 0 0
  phy
    0 16.238720 92.016330 -0.195082 -0.943118 0.292676 0.157699 0 0
    0 0.163251 72.074455 -0.195189 0.573693 0.075878 -0.815548 0 0
    0 -0.053753 93.427268 -0.195074 -0.625402 0.083586 -0.775813 0 0
  phy
    0 52.720983 77.048760 -0.195163 -0.803682 0.167449 0.571013 0 0
    0 66.024731 66.078014 161.582842 0.317793 -0.108150 0.941972 0 0
    0 66.024731 66.078898 -0.195223 0.318094 0.099105 0.942865 0 0
  phy
    0 -0.053755 93.426384 161.582990 -0.627047 -0.041903 -0.777854 0 0
    0 16.238720 92.016330 -0.195082 -0.943118 0.292676 0.157699 0 0
    0 -0.053753 93.427268 -0.195074 -0.625402 0.083586 -0.775813 0 0
  phy
    0 -0.053753 93.427268 -0.195074 -0.625402 0.083586 -0.775813 0 0
    0 0.163251 72.074455 -0.195189 0.573693 0.075878 -0.815548 0 0
    0 -0.053755 93.426384 161.582990 -0.627047 -0.041903 -0.777854 0 0
  phy
    0 -0.053755 93.426384 161.582990 -0.627047 -0.041903 -0.777854 0 0
    0 0.163251 72.074455 -0.195189 0.573693 0.075878 -0.815548 0 0
    0 0.163248 72.073575 161.582875 0.560019 -0.229316 -0.796111 0 0
  phy
    0 39.349370 37.413271 -0.195377 0.943958 0.235512 0.231250 0 0
    0 39.349370 37.412389 161.582687 0.918641 -0.172293 -0.355548 0 0
    0 0.163251 72.074455 -0.195189 0.573693 0.075878 -0.815548 0 0
  phy
    0 0.163251 72.074455 -0.195189 0.573693 0.075878 -0.815548 0 0
    0 39.349370 37.412389 161.582687 0.918641 -0.172293 -0.355548 0 0
    0 0.163248 72.073575 161.582875 0.560019 -0.229316 -0.796111 0 0
  phy
    0 66.024731 66.078014 161.582842 0.317793 -0.108150 0.941972 0 0
    0 39.349370 37.412389 161.582687 0.918641 -0.172293 -0.355548 0 0
    0 39.349370 37.413271 -0.195377 0.943958 0.235512 0.231250 0 0
  phy
    0 66.024731 66.078014 161.582842 0.317793 -0.108150 0.941972 0 0
    0 39.349370 37.413271 -0.195377 0.943958 0.235512 0.231250 0 0
    0 66.024731 66.078898 -0.195223 0.318094 0.099105 0.942865 0 0
  phy
    0 91.685059 17.128941 -0.076008 -0.211617 0.400384 0.891578 0 0
    0 91.685059 17.128057 161.705729 -0.167603 -0.029345 0.985418 0 0
    0 93.398573 0.005735 -0.076101 0.463735 0.058445 0.884044 0 0
  phy
    0 91.685059 17.128057 161.705729 -0.167603 -0.029345 0.985418 0 0
    0 93.398573 0.004854 161.705637 0.910352 -0.178297 0.373456 0 0
    0 93.398573 0.005735 -0.076101 0.463735 0.058445 0.884044 0 0
  phy
    0 77.359319 52.269407 161.705919 -0.526499 -0.408881 0.745396 0 0
    0 91.685059 17.128057 161.705729 -0.167603 -0.029345 0.985418 0 0
    0 86.196089 35.301495 161.705828 -0.377488 -0.005494 0.925998 0 0
  phy
    0 77.359319 52.269407 161.705919 -0.526499 -0.408881 0.745396 0 0
    0 93.398573 0.004854 161.705637 0.910352 -0.178297 0.373456 0 0
    0 91.685059 17.128057 161.705729 -0.167603 -0.029345 0.985418 0 0
  phy
    0 77.359319 52.269407 161.705919 -0.526499 -0.408881 0.745396 0 0
    0 72.099411 0.180194 161.705638 0.791092 -0.272515 -0.547639 0 0
    0 93.398573 0.004854 161.705637 0.910352 -0.178297 0.373456 0 0
  phy
    0 77.359319 52.269407 161.705919 -0.526499 -0.408881 0.745396 0 0
    0 39.388960 37.393031 161.705839 0.090929 -0.120191 -0.988578 0 0
    0 72.099411 0.180194 161.705638 0.791092 -0.272515 -0.547639 0 0
  phy
    0 91.685059 17.128057 161.705729 -0.167603 -0.029345 0.985418 0 0
    0 91.685059 17.128941 -0.076008 -0.211617 0.400384 0.891578 0 0
    0 86.196089 35.301495 161.705828 -0.377488 -0.005494 0.925998 0 0
  phy
    0 77.359319 52.269407 161.705919 -0.526499 -0.408881 0.745396 0 0
    0 66.038806 66.068619 -0.075740 -0.917176 0.172242 -0.359334 0 0
    0 66.038806 66.067740 161.705994 -0.926007 -0.104365 -0.362794 0 0
  phy
    0 39.388960 37.393031 161.705839 0.090929 -0.120191 -0.988578 0 0
    0 66.038806 66.067740 161.705994 -0.926007 -0.104365 -0.362794 0 0
    0 66.038806 66.068619 -0.075740 -0.917176 0.172242 -0.359334 0 0
  phy
    0 66.038806 66.067740 161.705994 -0.926007 -0.104365 -0.362794 0 0
    0 39.388960 37.393031 161.705839 0.090929 -0.120191 -0.988578 0 0
    0 77.359319 52.269407 161.705919 -0.526499 -0.408881 0.745396 0 0
  phy
    0 77.359324 52.270278 -0.075816 -0.519123 0.007764 0.854664 0 0
    0 77.359319 52.269407 161.705919 -0.526499 -0.408881 0.745396 0 0
    0 86.196089 35.301495 161.705828 -0.377488 -0.005494 0.925998 0 0
  phy
    0 86.196089 35.301495 161.705828 -0.377488 -0.005494 0.925998 0 0
    0 86.196089 35.302379 -0.075909 -0.377135 0.043546 0.925134 0 0
    0 77.359324 52.270278 -0.075816 -0.519123 0.007764 0.854664 0 0
  phy
    0 91.685059 17.128941 -0.076008 -0.211617 0.400384 0.891578 0 0
    0 86.196089 35.302379 -0.075909 -0.377135 0.043546 0.925134 0 0
    0 86.196089 35.301495 161.705828 -0.377488 -0.005494 0.925998 0 0
  phy
    0 66.038806 66.068619 -0.075740 -0.917176 0.172242 -0.359334 0 0
    0 77.359324 52.270278 -0.075816 -0.519123 0.007764 0.854664 0 0
    0 86.196089 35.302379 -0.075909 -0.377135 0.043546 0.925134 0 0
  phy
    0 66.038806 66.068619 -0.075740 -0.917176 0.172242 -0.359334 0 0
    0 86.196089 35.302379 -0.075909 -0.377135 0.043546 0.925134 0 0
    0 91.685059 17.128941 -0.076008 -0.211617 0.400384 0.891578 0 0
  phy
    0 66.038806 66.068619 -0.075740 -0.917176 0.172242 -0.359334 0 0
    0 91.685059 17.128941 -0.076008 -0.211617 0.400384 0.891578 0 0
    0 39.388960 37.393913 -0.075894 0.087475 0.296463 -0.951030 0 0
  phy
    0 39.388960 37.393913 -0.075894 0.087475 0.296463 -0.951030 0 0
    0 91.685059 17.128941 -0.076008 -0.211617 0.400384 0.891578 0 0
    0 72.099411 0.181076 -0.076098 0.819752 0.077288 -0.567480 0 0
  phy
    0 72.099411 0.181076 -0.076098 0.819752 0.077288 -0.567480 0 0
    0 91.685059 17.128941 -0.076008 -0.211617 0.400384 0.891578 0 0
    0 93.398573 0.005735 -0.076101 0.463735 0.058445 0.884044 0 0
  phy
    0 77.359324 52.270278 -0.075816 -0.519123 0.007764 0.854664 0 0
    0 66.038806 66.068619 -0.075740 -0.917176 0.172242 -0.359334 0 0
    0 77.359319 52.269407 161.705919 -0.526499 -0.408881 0.745396 0 0
  phy
    0 93.398573 0.005735 -0.076101 0.463735 0.058445 0.884044 0 0
    0 93.398573 0.004854 161.705637 0.910352 -0.178297 0.373456 0 0
    0 72.099411 0.181076 -0.076098 0.819752 0.077288 -0.567480 0 0
  phy
    0 93.398573 0.004854 161.705637 0.910352 -0.178297 0.373456 0 0
    0 72.099411 0.180194 161.705638 0.791092 -0.272515 -0.547639 0 0
    0 72.099411 0.181076 -0.076098 0.819752 0.077288 -0.567480 0 0
  phy
    0 72.099411 0.181076 -0.076098 0.819752 0.077288 -0.567480 0 0
    0 39.388960 37.393031 161.705839 0.090929 -0.120191 -0.988578 0 0
    0 39.388960 37.393913 -0.075894 0.087475 0.296463 -0.951030 0 0
  phy
    0 72.099411 0.181076 -0.076098 0.819752 0.077288 -0.567480 0 0
    0 72.099411 0.180194 161.705638 0.791092 -0.272515 -0.547639 0 0
    0 39.388960 37.393031 161.705839 0.090929 -0.120191 -0.988578 0 0
  phy
    0 39.388960 37.393913 -0.075894 0.087475 0.296463 -0.951030 0 0
    0 39.388960 37.393031 161.705839 0.090929 -0.120191 -0.988578 0 0
    0 66.038806 66.068619 -0.075740 -0.917176 0.172242 -0.359334 0 0
end
