// Created by Crowbar 0.74
version 1
nodes
  0 "Scene_Root" -1
  1 "Root" 0
  2 "Door_Left" 1
  3 "Door_Right" 1
end
skeleton
  time 0
    0 0.000000 0.000000 0.000000 1.570796 0.000000 0.000000
    1 0.000000 0.000000 0.000000 0.000000 0.000000 0.000000
    2 0.000000 45.053329 0.000000 0.000000 0.680678 0.000000
    3 0.000000 54.462692 0.000000 0.000000 -0.680678 0.000000
end
triangles
round_elevator_doors
  2 63.601444 63.604042 -0.071598 -0.707118 0.707096 0.000000 0.292894 0.417607 1 2 1.000000
  2 64.923401 64.926071 104.238007 -0.707116 0.707098 0.000000 0.523282 0.422142 1 2 1.000000
  2 64.923424 64.926056 -0.071598 -0.707117 0.707096 0.000000 0.292894 0.422142 1 2 1.000000
round_elevator_doors
  2 63.601444 63.604042 -0.071598 -0.707118 0.707096 0.000000 0.292894 0.417607 1 2 1.000000
  2 63.601421 63.604050 104.238007 -0.707116 0.707098 0.000000 0.523282 0.417607 1 2 1.000000
  2 64.923401 64.926071 104.238007 -0.707116 0.707098 0.000000 0.523282 0.422142 1 2 1.000000
round_elevator_doors
  3 36.035233 86.226974 -0.191986 0.381654 0.924305 0.000001 0.042558 0.322976 1 3 1.000000
  3 39.071068 84.887787 104.117638 0.427230 0.904143 0.000001 0.272539 0.331128 1 3 1.000000
  3 39.070908 84.887939 -0.191986 0.427059 0.904224 -0.000002 0.042558 0.331128 1 3 1.000000
round_elevator_doors
  3 36.035233 86.226974 -0.191986 0.381654 0.924305 0.000001 0.042558 0.322976 1 3 1.000000
  3 36.035404 86.226822 104.117638 0.382140 0.924104 0.000004 0.272539 0.322976 1 3 1.000000
  3 39.071068 84.887787 104.117638 0.427230 0.904143 0.000001 0.272539 0.331128 1 3 1.000000
round_elevator_doors
  3 32.419662 87.635193 -0.191990 0.340598 0.940209 0.000001 0.042558 0.313456 1 3 1.000000
  3 36.035404 86.226822 104.117638 0.382140 0.924104 0.000004 0.272539 0.322976 1 3 1.000000
  3 36.035233 86.226974 -0.191986 0.381654 0.924305 0.000001 0.042558 0.322976 1 3 1.000000
round_elevator_doors
  3 32.419662 87.635193 -0.191990 0.340598 0.940209 0.000001 0.042558 0.313456 1 3 1.000000
  3 32.419811 87.635010 104.117630 0.340600 0.940208 0.000001 0.272539 0.313456 1 3 1.000000
  3 36.035404 86.226822 104.117638 0.382140 0.924104 0.000004 0.272539 0.322976 1 3 1.000000
round_elevator_doors
  3 28.864002 88.828110 -0.191990 0.309066 0.951041 0.000001 0.042558 0.304265 1 3 1.000000
  3 32.419811 87.635010 104.117630 0.340600 0.940208 0.000001 0.272539 0.313456 1 3 1.000000
  3 32.419662 87.635193 -0.191990 0.340598 0.940209 0.000001 0.042558 0.313456 1 3 1.000000
round_elevator_doors
  3 28.864002 88.828110 -0.191990 0.309066 0.951041 0.000001 0.042558 0.304265 1 3 1.000000
  3 28.864164 88.827950 104.117630 0.309073 0.951038 0.000001 0.272539 0.304265 1 3 1.000000
  3 32.419811 87.635010 104.117630 0.340600 0.940208 0.000001 0.272539 0.313456 1 3 1.000000
round_elevator_doors
  3 25.167913 89.990593 -0.191982 0.278824 0.960342 0.000005 0.042558 0.294860 1 3 1.000000
  3 28.864164 88.827950 104.117630 0.309073 0.951038 0.000001 0.272539 0.304265 1 3 1.000000
  3 28.864002 88.828110 -0.191990 0.309066 0.951041 0.000001 0.042558 0.304265 1 3 1.000000
round_elevator_doors
  3 25.167913 89.990593 -0.191982 0.278824 0.960342 0.000005 0.042558 0.294860 1 3 1.000000
  3 25.168011 89.990479 104.117645 0.278458 0.960448 0.000000 0.272539 0.294860 1 3 1.000000
  3 28.864164 88.827950 104.117630 0.309073 0.951038 0.000001 0.272539 0.304265 1 3 1.000000
round_elevator_doors
  3 21.779110 90.883438 -0.191982 0.233252 0.972416 0.000001 0.042558 0.286353 1 3 1.000000
  3 25.168011 89.990479 104.117645 0.278458 0.960448 0.000000 0.272539 0.294860 1 3 1.000000
  3 25.167913 89.990593 -0.191982 0.278824 0.960342 0.000005 0.042558 0.294860 1 3 1.000000
round_elevator_doors
  3 21.779110 90.883438 -0.191982 0.233252 0.972416 0.000001 0.042558 0.286353 1 3 1.000000
  3 21.779179 90.883362 104.117645 0.233261 0.972414 0.000000 0.272539 0.286353 1 3 1.000000
  3 25.168011 89.990479 104.117645 0.278458 0.960448 0.000000 0.272539 0.294860 1 3 1.000000
round_elevator_doors
  3 18.510910 91.591057 -0.191978 0.187609 0.982244 0.000000 0.042558 0.278247 1 3 1.000000
  3 21.779179 90.883362 104.117645 0.233261 0.972414 0.000000 0.272539 0.286353 1 3 1.000000
  3 21.779110 90.883438 -0.191982 0.233252 0.972416 0.000001 0.042558 0.286353 1 3 1.000000
round_elevator_doors
  3 18.510910 91.591057 -0.191978 0.187609 0.982244 0.000000 0.042558 0.278247 1 3 1.000000
  3 18.510944 91.591034 104.117661 0.187523 0.982260 -0.000001 0.272539 0.278247 1 3 1.000000
  3 21.779179 90.883362 104.117645 0.233261 0.972414 0.000000 0.272539 0.286353 1 3 1.000000
round_elevator_doors
  3 14.612923 92.249802 -0.191982 0.158670 0.987332 0.000000 0.042558 0.268676 1 3 1.000000
  3 18.510944 91.591034 104.117661 0.187523 0.982260 -0.000001 0.272539 0.278247 1 3 1.000000
  3 18.510910 91.591057 -0.191978 0.187609 0.982244 0.000000 0.042558 0.278247 1 3 1.000000
round_elevator_doors
  3 14.612923 92.249802 -0.191982 0.158670 0.987332 0.000000 0.042558 0.268676 1 3 1.000000
  3 14.612900 92.249817 104.117653 0.158673 0.987331 0.000000 0.272539 0.268676 1 3 1.000000
  3 18.510944 91.591034 104.117661 0.187523 0.982260 -0.000001 0.272539 0.278247 1 3 1.000000
round_elevator_doors
  3 11.179077 92.773254 -0.191986 0.123139 0.992389 0.000000 0.042558 0.260564 1 3 1.000000
  3 14.612900 92.249817 104.117653 0.158673 0.987331 0.000000 0.272539 0.268676 1 3 1.000000
  3 14.612923 92.249802 -0.191982 0.158670 0.987332 0.000000 0.042558 0.268676 1 3 1.000000
round_elevator_doors
  3 11.179077 92.773254 -0.191986 0.123139 0.992389 0.000000 0.042558 0.260564 1 3 1.000000
  3 11.179047 92.773270 104.117645 0.122706 0.992443 -0.000002 0.272539 0.260564 1 3 1.000000
  3 14.612900 92.249817 104.117653 0.158673 0.987331 0.000000 0.272539 0.268676 1 3 1.000000
round_elevator_doors
  3 7.405830 93.142563 -0.191986 0.056060 0.998427 0.000000 0.042558 0.251705 1 3 1.000000
  3 11.179047 92.773270 104.117645 0.122706 0.992443 -0.000002 0.272539 0.260564 1 3 1.000000
  3 11.179077 92.773254 -0.191986 0.123139 0.992389 0.000000 0.042558 0.260564 1 3 1.000000
round_elevator_doors
  3 7.405830 93.142563 -0.191986 0.056060 0.998427 0.000000 0.042558 0.251705 1 3 1.000000
  3 7.405796 93.142563 104.117645 0.055910 0.998436 0.000000 0.272539 0.251705 1 3 1.000000
  3 11.179047 92.773270 104.117645 0.122706 0.992443 -0.000002 0.272539 0.260564 1 3 1.000000
round_elevator_doors
  3 0.002060 93.399994 -0.191986 0.034749 0.999396 0.000000 0.042558 0.234733 1 3 1.000000
  3 7.405796 93.142563 104.117645 0.055910 0.998436 0.000000 0.272539 0.251705 1 3 1.000000
  3 7.405830 93.142563 -0.191986 0.056060 0.998427 0.000000 0.042558 0.251705 1 3 1.000000
round_elevator_doors
  3 0.002060 93.399994 -0.191986 0.034749 0.999396 0.000000 0.042558 0.234733 1 3 1.000000
  3 0.002041 93.399994 104.117645 0.034748 0.999396 0.000000 0.272539 0.234733 1 3 1.000000
  3 7.405796 93.142563 104.117645 0.055910 0.998436 0.000000 0.272539 0.251705 1 3 1.000000
round_elevator_doors
  3 62.819363 69.097404 -0.191998 0.685109 0.728190 -0.019091 0.042558 0.399535 1 3 1.000000
  3 65.376678 66.613289 104.117615 0.696764 0.717300 0.000000 0.272539 0.407816 1 3 1.000000
  3 65.376717 66.613274 -0.191998 0.696762 0.717303 0.000000 0.042558 0.407816 1 3 1.000000
round_elevator_doors
  3 62.819363 69.097404 -0.191998 0.685109 0.728190 -0.019091 0.042558 0.399535 1 3 1.000000
  3 62.819344 69.097412 104.117615 0.683229 0.730204 0.000000 0.272539 0.399535 1 3 1.000000
  3 65.376678 66.613289 104.117615 0.696764 0.717300 0.000000 0.272539 0.407816 1 3 1.000000
round_elevator_doors
  3 60.334358 71.328621 -0.191998 0.651758 0.758427 0.000000 0.042558 0.391756 1 3 1.000000
  3 62.819344 69.097412 104.117615 0.683229 0.730204 0.000000 0.272539 0.399535 1 3 1.000000
  3 62.819363 69.097404 -0.191998 0.685109 0.728190 -0.019091 0.042558 0.399535 1 3 1.000000
round_elevator_doors
  3 60.334358 71.328621 -0.191998 0.651758 0.758427 0.000000 0.042558 0.391756 1 3 1.000000
  3 60.334332 71.328636 104.117630 0.651758 0.758427 0.000000 0.272539 0.391756 1 3 1.000000
  3 62.819344 69.097412 104.117615 0.683229 0.730204 0.000000 0.272539 0.399535 1 3 1.000000
round_elevator_doors
  3 57.816807 73.398697 -0.191994 0.614347 0.789036 0.000000 0.042558 0.384155 1 3 1.000000
  3 60.334332 71.328636 104.117630 0.651758 0.758427 0.000000 0.272539 0.391756 1 3 1.000000
  3 60.334358 71.328621 -0.191998 0.651758 0.758427 0.000000 0.042558 0.391756 1 3 1.000000
round_elevator_doors
  3 57.816807 73.398697 -0.191994 0.614347 0.789036 0.000000 0.042558 0.384155 1 3 1.000000
  3 57.816776 73.398697 104.117645 0.614804 0.788680 -0.000001 0.272539 0.384155 1 3 1.000000
  3 60.334332 71.328636 104.117630 0.651758 0.758427 0.000000 0.272539 0.391756 1 3 1.000000
round_elevator_doors
  3 54.900845 75.560921 -0.191986 0.583725 0.811952 0.000000 0.042558 0.375696 1 3 1.000000
  3 57.816776 73.398697 104.117645 0.614804 0.788680 -0.000001 0.272539 0.384155 1 3 1.000000
  3 57.816807 73.398697 -0.191994 0.614347 0.789036 0.000000 0.042558 0.384155 1 3 1.000000
round_elevator_doors
  3 54.900845 75.560921 -0.191986 0.583725 0.811952 0.000000 0.042558 0.375696 1 3 1.000000
  3 54.900810 75.560921 104.117645 0.583724 0.811952 0.000000 0.272539 0.375696 1 3 1.000000
  3 57.816776 73.398697 104.117645 0.614804 0.788680 -0.000001 0.272539 0.384155 1 3 1.000000
round_elevator_doors
  3 51.634529 77.836868 -0.191990 0.554265 0.832340 0.000000 0.042558 0.366085 1 3 1.000000
  3 54.900810 75.560921 104.117645 0.583724 0.811952 0.000000 0.272539 0.375696 1 3 1.000000
  3 54.900845 75.560921 -0.191986 0.583725 0.811952 0.000000 0.042558 0.375696 1 3 1.000000
round_elevator_doors
  3 51.634529 77.836868 -0.191990 0.554265 0.832340 0.000000 0.042558 0.366085 1 3 1.000000
  3 51.634548 77.836823 104.117638 0.554585 0.832127 0.000000 0.272539 0.366085 1 3 1.000000
  3 54.900810 75.560921 104.117645 0.583724 0.811952 0.000000 0.272539 0.375696 1 3 1.000000
round_elevator_doors
  3 48.709358 79.686234 -0.191990 0.521606 0.853187 0.000000 0.042558 0.357734 1 3 1.000000
  3 51.634548 77.836823 104.117638 0.554585 0.832127 0.000000 0.272539 0.366085 1 3 1.000000
  3 51.634529 77.836868 -0.191990 0.554265 0.832340 0.000000 0.042558 0.366085 1 3 1.000000
round_elevator_doors
  3 48.709358 79.686234 -0.191990 0.521606 0.853187 0.000000 0.042558 0.357734 1 3 1.000000
  3 48.709427 79.686165 104.117630 0.521603 0.853188 0.000000 0.272539 0.357734 1 3 1.000000
  3 51.634548 77.836823 104.117638 0.554585 0.832127 0.000000 0.272539 0.366085 1 3 1.000000
round_elevator_doors
  3 45.788754 81.411949 -0.191986 0.488930 0.872323 0.000000 0.042558 0.349544 1 3 1.000000
  3 48.709427 79.686165 104.117630 0.521603 0.853188 0.000000 0.272539 0.357734 1 3 1.000000
  3 48.709358 79.686234 -0.191990 0.521606 0.853187 0.000000 0.042558 0.357734 1 3 1.000000
round_elevator_doors
  3 45.788754 81.411949 -0.191986 0.488930 0.872323 0.000000 0.042558 0.349544 1 3 1.000000
  3 45.788857 81.411842 104.117630 0.488886 0.872348 -0.000001 0.272539 0.349544 1 3 1.000000
  3 48.709427 79.686165 104.117630 0.521603 0.853188 0.000000 0.272539 0.357734 1 3 1.000000
round_elevator_doors
  3 42.404404 83.219101 -0.191990 0.459385 0.888237 0.000000 0.042558 0.340288 1 3 1.000000
  3 45.788857 81.411842 104.117630 0.488886 0.872348 -0.000001 0.272539 0.349544 1 3 1.000000
  3 45.788754 81.411949 -0.191986 0.488930 0.872323 0.000000 0.042558 0.349544 1 3 1.000000
round_elevator_doors
  3 42.404404 83.219101 -0.191990 0.459385 0.888237 0.000000 0.042558 0.340288 1 3 1.000000
  3 42.404572 83.218971 104.117630 0.459383 0.888238 0.000000 0.272539 0.340288 1 3 1.000000
  3 45.788857 81.411842 104.117630 0.488886 0.872348 -0.000001 0.272539 0.349544 1 3 1.000000
round_elevator_doors
  3 39.070908 84.887939 -0.191986 0.427059 0.904224 -0.000002 0.042558 0.331128 1 3 1.000000
  3 42.404572 83.218971 104.117630 0.459383 0.888238 0.000000 0.272539 0.340288 1 3 1.000000
  3 42.404404 83.219101 -0.191990 0.459385 0.888237 0.000000 0.042558 0.340288 1 3 1.000000
round_elevator_doors
  3 39.070908 84.887939 -0.191986 0.427059 0.904224 -0.000002 0.042558 0.331128 1 3 1.000000
  3 39.071068 84.887787 104.117638 0.427230 0.904143 0.000001 0.272539 0.331128 1 3 1.000000
  3 42.404572 83.218971 104.117630 0.459383 0.888238 0.000000 0.272539 0.340288 1 3 1.000000
round_elevator_doors
  3 36.046410 78.316513 -0.191990 -0.427489 -0.904020 -0.000003 0.042558 0.503242 1 3 1.000000
  3 33.245678 79.551773 104.117645 -0.381885 -0.924210 -0.000002 0.272539 0.511353 1 3 1.000000
  3 33.245663 79.551903 -0.191986 -0.381685 -0.924293 -0.000001 0.042558 0.511353 1 3 1.000000
round_elevator_doors
  3 36.046410 78.316513 -0.191990 -0.427489 -0.904020 -0.000003 0.042558 0.503242 1 3 1.000000
  3 36.046406 78.316444 104.117630 -0.427166 -0.904173 0.000000 0.272539 0.503242 1 3 1.000000
  3 33.245678 79.551773 104.117645 -0.381885 -0.924210 -0.000002 0.272539 0.511353 1 3 1.000000
round_elevator_doors
  3 36.046410 78.316513 -0.191990 -0.427489 -0.904020 -0.000003 0.042558 0.503242 1 3 1.000000
  3 39.121498 76.776138 104.117630 -0.459853 -0.887995 0.000000 0.272539 0.494128 1 3 1.000000
  3 36.046406 78.316444 104.117630 -0.427166 -0.904173 0.000000 0.272539 0.503242 1 3 1.000000
round_elevator_doors
  3 36.046410 78.316513 -0.191990 -0.427489 -0.904020 -0.000003 0.042558 0.503242 1 3 1.000000
  3 39.121529 76.776123 -0.191990 -0.459862 -0.887990 0.000000 0.042558 0.494128 1 3 1.000000
  3 39.121498 76.776138 104.117630 -0.459853 -0.887995 0.000000 0.272539 0.494128 1 3 1.000000
round_elevator_doors
  3 39.121529 76.776123 -0.191990 -0.459862 -0.887990 0.000000 0.042558 0.494128 1 3 1.000000
  3 42.241997 75.106522 104.117630 -0.489331 -0.872098 0.000002 0.272539 0.484825 1 3 1.000000
  3 39.121498 76.776138 104.117630 -0.459853 -0.887995 0.000000 0.272539 0.494128 1 3 1.000000
round_elevator_doors
  3 39.121529 76.776123 -0.191990 -0.459862 -0.887990 0.000000 0.042558 0.494128 1 3 1.000000
  3 42.242016 75.106483 -0.191994 -0.489291 -0.872121 0.000000 0.042558 0.484825 1 3 1.000000
  3 42.241997 75.106522 104.117630 -0.489331 -0.872098 0.000002 0.272539 0.484825 1 3 1.000000
round_elevator_doors
  3 42.242016 75.106483 -0.191994 -0.489291 -0.872121 0.000000 0.042558 0.484825 1 3 1.000000
  3 44.935387 73.513153 104.117630 -0.521894 -0.853010 0.000000 0.272539 0.476594 1 3 1.000000
  3 42.241997 75.106522 104.117630 -0.489331 -0.872098 0.000002 0.272539 0.484825 1 3 1.000000
round_elevator_doors
  3 42.242016 75.106483 -0.191994 -0.489291 -0.872121 0.000000 0.042558 0.484825 1 3 1.000000
  3 44.935413 73.513123 -0.191994 -0.521888 -0.853014 0.000000 0.042558 0.476594 1 3 1.000000
  3 44.935387 73.513153 104.117630 -0.521894 -0.853010 0.000000 0.272539 0.476594 1 3 1.000000
round_elevator_doors
  3 44.935413 73.513123 -0.191994 -0.521888 -0.853014 0.000000 0.042558 0.476594 1 3 1.000000
  3 47.633778 71.806595 104.117645 -0.554135 -0.832427 0.000000 0.272539 0.468201 1 3 1.000000
  3 44.935387 73.513153 104.117630 -0.521894 -0.853010 0.000000 0.272539 0.476594 1 3 1.000000
round_elevator_doors
  3 44.935413 73.513123 -0.191994 -0.521888 -0.853014 0.000000 0.042558 0.476594 1 3 1.000000
  3 47.633804 71.806587 -0.191990 -0.554133 -0.832428 -0.000002 0.042558 0.468201 1 3 1.000000
  3 47.633778 71.806595 104.117645 -0.554135 -0.832427 0.000000 0.272539 0.468201 1 3 1.000000
round_elevator_doors
  3 47.633804 71.806587 -0.191990 -0.554133 -0.832428 -0.000002 0.042558 0.468201 1 3 1.000000
  3 50.650196 69.710930 104.117630 -0.581284 -0.813700 0.000000 0.272539 0.458541 1 3 1.000000
  3 47.633778 71.806595 104.117645 -0.554135 -0.832427 0.000000 0.272539 0.468201 1 3 1.000000
round_elevator_doors
  3 47.633804 71.806587 -0.191990 -0.554133 -0.832428 -0.000002 0.042558 0.468201 1 3 1.000000
  3 50.650223 69.710922 -0.191998 -0.580585 -0.814200 0.000000 0.042558 0.458541 1 3 1.000000
  3 50.650196 69.710930 104.117630 -0.581284 -0.813700 0.000000 0.272539 0.458541 1 3 1.000000
round_elevator_doors
  3 53.349949 67.728355 -0.191998 -0.611746 -0.791054 0.000000 0.042558 0.450130 1 3 1.000000
  3 50.650196 69.710930 104.117630 -0.581284 -0.813700 0.000000 0.272539 0.458541 1 3 1.000000
  3 50.650223 69.710922 -0.191998 -0.580585 -0.814200 0.000000 0.042558 0.458541 1 3 1.000000
round_elevator_doors
  3 53.349949 67.728355 -0.191998 -0.611746 -0.791054 0.000000 0.042558 0.450130 1 3 1.000000
  3 53.349960 67.728317 104.117630 -0.611672 -0.791112 -0.000001 0.272539 0.450130 1 3 1.000000
  3 50.650196 69.710930 104.117630 -0.581284 -0.813700 0.000000 0.272539 0.458541 1 3 1.000000
round_elevator_doors
  3 55.677628 65.825531 -0.191998 -0.651460 -0.758683 0.000000 0.042558 0.442573 1 3 1.000000
  3 53.349960 67.728317 104.117630 -0.611672 -0.791112 -0.000001 0.272539 0.450130 1 3 1.000000
  3 53.349949 67.728355 -0.191998 -0.611746 -0.791054 0.000000 0.042558 0.450130 1 3 1.000000
round_elevator_doors
  3 55.677628 65.825531 -0.191998 -0.651460 -0.758683 0.000000 0.042558 0.442573 1 3 1.000000
  3 55.677700 65.825470 104.117630 -0.651460 -0.758683 0.000000 0.272539 0.442573 1 3 1.000000
  3 53.349960 67.728317 104.117630 -0.611672 -0.791112 -0.000001 0.272539 0.450130 1 3 1.000000
round_elevator_doors
  3 57.965935 63.762356 -0.192001 -0.685506 -0.728067 0.000000 0.042558 0.434838 1 3 1.000000
  3 55.677700 65.825470 104.117630 -0.651460 -0.758683 0.000000 0.272539 0.442573 1 3 1.000000
  3 55.677628 65.825531 -0.191998 -0.651460 -0.758683 0.000000 0.042558 0.442573 1 3 1.000000
round_elevator_doors
  3 57.965935 63.762356 -0.192001 -0.685506 -0.728067 0.000000 0.042558 0.434838 1 3 1.000000
  3 57.966049 63.762249 104.117607 -0.685264 -0.728295 0.000000 0.272539 0.434838 1 3 1.000000
  3 55.677700 65.825470 104.117630 -0.651460 -0.758683 0.000000 0.272539 0.442573 1 3 1.000000
round_elevator_doors
  3 57.965935 63.762356 -0.192001 -0.685506 -0.728067 0.000000 0.042558 0.434838 1 3 1.000000
  3 60.314034 61.456970 104.117615 -0.700588 -0.713566 0.000000 0.272539 0.426604 1 3 1.000000
  3 57.966049 63.762249 104.117607 -0.685264 -0.728295 0.000000 0.272539 0.434838 1 3 1.000000
round_elevator_doors
  3 57.965935 63.762356 -0.192001 -0.685506 -0.728067 0.000000 0.042558 0.434838 1 3 1.000000
  3 60.313862 61.457127 -0.191998 -0.700589 -0.713565 0.000000 0.042558 0.426604 1 3 1.000000
  3 60.314034 61.456970 104.117615 -0.700588 -0.713566 0.000000 0.272539 0.426604 1 3 1.000000
round_elevator_doors
  3 61.506493 61.503845 104.117615 0.707099 -0.707114 0.000000 0.272539 0.423794 1 3 1.000000
  3 61.792465 61.789783 -0.192001 0.707111 -0.707103 0.000000 0.042558 0.422820 1 3 1.000000
  3 61.792431 61.789791 104.117599 0.707099 -0.707114 0.000000 0.272539 0.422820 1 3 1.000000
round_elevator_doors
  3 61.506493 61.503845 104.117615 0.707099 -0.707114 0.000000 0.272539 0.423794 1 3 1.000000
  3 61.506519 61.503830 -0.192001 0.707111 -0.707103 0.000000 0.042558 0.423794 1 3 1.000000
  3 61.792465 61.789783 -0.192001 0.707111 -0.707103 0.000000 0.042558 0.422820 1 3 1.000000
round_elevator_doors
  3 63.643185 63.640480 104.117599 -0.210237 -0.977650 0.000000 0.272539 0.416513 1 3 1.000000
  3 63.281258 63.718300 -0.192001 -0.210237 -0.977650 0.000000 0.042558 0.417054 1 3 1.000000
  3 63.643211 63.640472 -0.192001 -0.210237 -0.977650 0.000000 0.042558 0.416513 1 3 1.000000
round_elevator_doors
  3 63.643185 63.640480 104.117599 -0.210237 -0.977650 0.000000 0.272539 0.416513 1 3 1.000000
  3 63.281227 63.718315 104.117599 -0.210237 -0.977650 0.000000 0.272539 0.417054 1 3 1.000000
  3 63.281258 63.718300 -0.192001 -0.210237 -0.977650 0.000000 0.042558 0.417054 1 3 1.000000
round_elevator_doors
  3 0.002041 93.399994 104.117645 -1.000000 0.000035 -0.000001 0.272539 0.234733 1 3 1.000000
  3 0.001888 86.168900 -0.191990 -1.000000 0.000025 0.000000 0.042558 0.217156 1 3 1.000000
  3 0.001781 86.168793 104.117630 -1.000000 0.000036 -0.000001 0.272539 0.217156 1 3 1.000000
round_elevator_doors
  3 0.002041 93.399994 104.117645 -1.000000 0.000035 -0.000001 0.272539 0.234733 1 3 1.000000
  3 0.002060 93.399994 -0.191986 -1.000000 0.000025 0.000000 0.042558 0.234733 1 3 1.000000
  3 0.001888 86.168900 -0.191990 -1.000000 0.000025 0.000000 0.042558 0.217156 1 3 1.000000
round_elevator_doors
  3 64.867645 65.304649 -0.192001 -0.389492 -0.921030 0.000000 0.042558 0.411648 1 3 1.000000
  3 65.176697 65.173958 104.117599 -0.389472 -0.921038 0.000000 0.272539 0.411288 1 3 1.000000
  3 64.867615 65.304665 104.117599 -0.389472 -0.921038 0.000000 0.272539 0.411648 1 3 1.000000
round_elevator_doors
  3 64.867645 65.304649 -0.192001 -0.389492 -0.921030 0.000000 0.042558 0.411648 1 3 1.000000
  3 65.176727 65.173943 -0.192001 -0.389492 -0.921030 0.000000 0.042558 0.411288 1 3 1.000000
  3 65.176697 65.173958 104.117599 -0.389472 -0.921038 0.000000 0.272539 0.411288 1 3 1.000000
round_elevator_doors
  3 60.314034 61.456970 104.117615 0.039757 -0.999209 0.000005 0.272539 0.426604 1 3 1.000000
  3 61.506519 61.503830 -0.192001 0.039143 -0.999233 -0.000001 0.042558 0.423794 1 3 1.000000
  3 61.506493 61.503845 104.117615 0.039279 -0.999228 0.000000 0.272539 0.423794 1 3 1.000000
round_elevator_doors
  3 60.314034 61.456970 104.117615 0.039757 -0.999209 0.000005 0.272539 0.426604 1 3 1.000000
  3 60.313862 61.457127 -0.191998 0.039142 -0.999234 -0.000001 0.042558 0.426604 1 3 1.000000
  3 61.506519 61.503830 -0.192001 0.039143 -0.999233 -0.000001 0.042558 0.423794 1 3 1.000000
round_elevator_doors
  3 62.003933 62.001286 104.117599 -0.389443 -0.921050 0.000000 0.272539 0.422099 1 3 1.000000
  3 61.694878 62.131958 -0.192001 -0.389443 -0.921050 0.000000 0.042558 0.422459 1 3 1.000000
  3 62.003956 62.001274 -0.192001 -0.389443 -0.921050 0.000000 0.042558 0.422099 1 3 1.000000
round_elevator_doors
  3 62.003933 62.001286 104.117599 -0.389443 -0.921050 0.000000 0.272539 0.422099 1 3 1.000000
  3 61.694847 62.131973 104.117599 -0.389443 -0.921050 0.000000 0.272539 0.422459 1 3 1.000000
  3 61.694878 62.131958 -0.192001 -0.389443 -0.921050 0.000000 0.042558 0.422459 1 3 1.000000
round_elevator_doors
  3 65.176697 65.173958 104.117599 0.707101 -0.707113 0.000000 0.272539 0.411288 1 3 1.000000
  3 65.423492 65.420715 -0.191994 0.707131 -0.707082 0.000000 0.042558 0.410447 1 3 1.000000
  3 65.423470 65.420731 104.117615 0.707101 -0.707113 0.000000 0.272539 0.410447 1 3 1.000000
round_elevator_doors
  3 65.176697 65.173958 104.117599 0.707101 -0.707113 0.000000 0.272539 0.411288 1 3 1.000000
  3 65.176727 65.173943 -0.192001 0.707131 -0.707082 0.000000 0.042558 0.411288 1 3 1.000000
  3 65.423492 65.420715 -0.191994 0.707131 -0.707082 0.000000 0.042558 0.410447 1 3 1.000000
round_elevator_doors
  3 63.643185 63.640480 104.117599 0.707097 -0.707117 0.000000 0.272539 0.416513 1 3 1.000000
  3 64.965225 64.962448 -0.192001 0.707096 -0.707118 0.000000 0.042558 0.412009 1 3 1.000000
  3 64.965202 64.962463 104.117599 0.707097 -0.707117 0.000000 0.272539 0.412009 1 3 1.000000
round_elevator_doors
  3 63.643185 63.640480 104.117599 0.707097 -0.707117 0.000000 0.272539 0.416513 1 3 1.000000
  3 63.643211 63.640472 -0.192001 0.707096 -0.707118 0.000000 0.042558 0.416513 1 3 1.000000
  3 64.965225 64.962448 -0.192001 0.707096 -0.707118 0.000000 0.042558 0.412009 1 3 1.000000
round_elevator_doors
  3 61.694847 62.131973 104.117599 0.961661 0.274242 0.000000 0.272539 0.422459 1 3 1.000000
  3 61.792465 61.789783 -0.192001 0.961654 0.274266 0.000000 0.042558 0.422820 1 3 1.000000
  3 61.694878 62.131958 -0.192001 0.961654 0.274266 0.000000 0.042558 0.422459 1 3 1.000000
round_elevator_doors
  3 61.694847 62.131973 104.117599 0.961661 0.274242 0.000000 0.272539 0.422459 1 3 1.000000
  3 61.792431 61.789791 104.117599 0.961661 0.274241 0.000000 0.272539 0.422820 1 3 1.000000
  3 61.792465 61.789783 -0.192001 0.961654 0.274266 0.000000 0.042558 0.422820 1 3 1.000000
round_elevator_doors
  3 64.965225 64.962448 -0.192001 0.961649 0.274282 0.000000 0.042558 0.412009 1 3 1.000000
  3 64.867615 65.304665 104.117599 0.961663 0.274233 0.000000 0.272539 0.411648 1 3 1.000000
  3 64.965202 64.962463 104.117599 0.961663 0.274233 0.000000 0.272539 0.412009 1 3 1.000000
round_elevator_doors
  3 64.965225 64.962448 -0.192001 0.961649 0.274282 0.000000 0.042558 0.412009 1 3 1.000000
  3 64.867645 65.304649 -0.192001 0.961649 0.274282 0.000000 0.042558 0.411648 1 3 1.000000
  3 64.867615 65.304665 104.117599 0.961663 0.274233 0.000000 0.272539 0.411648 1 3 1.000000
round_elevator_doors
  3 63.281227 63.718315 104.117599 0.993656 0.112464 0.000000 0.272539 0.417054 1 3 1.000000
  3 63.325977 63.323250 -0.192001 0.993653 0.112487 0.000000 0.042558 0.417594 1 3 1.000000
  3 63.281258 63.718300 -0.192001 0.993653 0.112487 0.000000 0.042558 0.417054 1 3 1.000000
round_elevator_doors
  3 63.281227 63.718315 104.117599 0.993656 0.112464 0.000000 0.272539 0.417054 1 3 1.000000
  3 63.325947 63.323257 104.117599 0.993656 0.112463 0.000000 0.272539 0.417594 1 3 1.000000
  3 63.325977 63.323250 -0.192001 0.993653 0.112487 0.000000 0.042558 0.417594 1 3 1.000000
round_elevator_doors
  3 65.423470 65.420731 104.117615 0.999231 0.039199 0.000000 0.272539 0.410447 1 3 1.000000
  3 65.376717 66.613274 -0.191998 0.999231 0.039195 0.000000 0.042558 0.407816 1 3 1.000000
  3 65.376678 66.613289 104.117615 0.999231 0.039199 0.000000 0.272539 0.407816 1 3 1.000000
round_elevator_doors
  3 65.423470 65.420731 104.117615 0.999231 0.039199 0.000000 0.272539 0.410447 1 3 1.000000
  3 65.423492 65.420715 -0.191994 0.999231 0.039195 0.000000 0.042558 0.410447 1 3 1.000000
  3 65.376717 66.613274 -0.191998 0.999231 0.039195 0.000000 0.042558 0.407816 1 3 1.000000
round_elevator_doors
  3 62.003933 62.001286 104.117599 0.707094 -0.707120 0.000000 0.272539 0.422099 1 3 1.000000
  3 63.325977 63.323250 -0.192001 0.707094 -0.707120 0.000000 0.042558 0.417594 1 3 1.000000
  3 63.325947 63.323257 104.117599 0.707094 -0.707120 0.000000 0.272539 0.417594 1 3 1.000000
round_elevator_doors
  3 62.003933 62.001286 104.117599 0.707094 -0.707120 0.000000 0.272539 0.422099 1 3 1.000000
  3 62.003956 62.001274 -0.192001 0.707094 -0.707120 0.000000 0.042558 0.422099 1 3 1.000000
  3 63.325977 63.323250 -0.192001 0.707094 -0.707120 0.000000 0.042558 0.417594 1 3 1.000000
round_elevator_doors
  2 65.244614 64.824646 -0.071598 0.301055 0.953607 0.000000 0.292894 0.422505 1 2 1.000000
  2 64.923401 64.926071 104.238007 0.301071 0.953602 0.000000 0.523282 0.422142 1 2 1.000000
  2 65.244591 64.824669 104.238007 0.301071 0.953602 0.000000 0.523282 0.422505 1 2 1.000000
round_elevator_doors
  2 65.244614 64.824646 -0.071598 0.301055 0.953607 0.000000 0.292894 0.422505 1 2 1.000000
  2 64.923424 64.926056 -0.071598 0.301055 0.953607 0.000000 0.292894 0.422142 1 2 1.000000
  2 64.923401 64.926071 104.238007 0.301071 0.953602 0.000000 0.523282 0.422142 1 2 1.000000
round_elevator_doors
  2 62.071941 61.651894 -0.071598 0.301024 0.953616 0.000000 0.292894 0.411619 1 2 1.000000
  2 61.750721 61.753296 104.238007 0.301032 0.953614 0.000000 0.523282 0.411257 1 2 1.000000
  2 62.071911 61.651905 104.238007 0.301032 0.953614 0.000000 0.523282 0.411619 1 2 1.000000
round_elevator_doors
  2 62.071941 61.651894 -0.071598 0.301024 0.953616 0.000000 0.292894 0.411619 1 2 1.000000
  2 61.750748 61.753284 -0.071594 0.301024 0.953616 0.000000 0.292894 0.411257 1 2 1.000000
  2 61.750721 61.753296 104.238007 0.301032 0.953614 0.000000 0.523282 0.411257 1 2 1.000000
round_elevator_doors
  2 63.284199 63.286808 104.238007 0.128630 0.991693 0.000000 0.523282 0.416518 1 2 1.000000
  2 63.658276 63.238274 -0.071598 0.128643 0.991691 0.000000 0.292894 0.417062 1 2 1.000000
  2 63.284214 63.286797 -0.071598 0.128643 0.991691 0.000000 0.292894 0.416518 1 2 1.000000
round_elevator_doors
  2 63.284199 63.286808 104.238007 0.128630 0.991693 0.000000 0.523282 0.416518 1 2 1.000000
  2 63.658257 63.238293 104.238007 0.128630 0.991693 0.000000 0.523282 0.417062 1 2 1.000000
  2 63.658276 63.238274 -0.071598 0.128643 0.991691 0.000000 0.292894 0.417062 1 2 1.000000
round_elevator_doors
  2 93.400047 0.001955 -0.071598 0.000025 -1.000000 -0.000001 0.292894 0.217137 1 2 1.000000
  2 86.168823 0.001696 104.238022 0.000037 -1.000000 0.000000 0.523282 0.234682 1 2 1.000000
  2 86.168770 0.001780 -0.071598 0.000024 -1.000000 -0.000001 0.292894 0.234682 1 2 1.000000
round_elevator_doors
  2 93.400047 0.001955 -0.071598 0.000025 -1.000000 -0.000001 0.292894 0.217137 1 2 1.000000
  2 93.400024 0.001974 104.238022 0.000038 -1.000000 0.000000 0.523282 0.217137 1 2 1.000000
  2 86.168823 0.001696 104.238022 0.000037 -1.000000 0.000000 0.523282 0.234682 1 2 1.000000
round_elevator_doors
  2 66.613281 65.376648 104.238022 0.039273 0.999228 0.000000 0.523282 0.426485 1 2 1.000000
  2 65.420837 65.423500 -0.071594 0.039273 0.999228 0.000000 0.292894 0.423849 1 2 1.000000
  2 65.420830 65.423515 104.238022 0.039273 0.999228 0.000000 0.523282 0.423849 1 2 1.000000
round_elevator_doors
  2 66.613281 65.376648 104.238022 0.039273 0.999228 0.000000 0.523282 0.426485 1 2 1.000000
  2 66.613304 65.376633 -0.071594 0.039273 0.999228 0.000000 0.292894 0.426485 1 2 1.000000
  2 65.420837 65.423500 -0.071594 0.039273 0.999228 0.000000 0.292894 0.423849 1 2 1.000000
round_elevator_doors
  2 61.503948 61.506523 104.238022 -0.999231 0.039216 0.000001 0.523282 0.410410 1 2 1.000000
  2 61.456997 60.313801 -0.071590 -0.999225 0.039361 0.000000 0.292894 0.407775 1 2 1.000000
  2 61.457153 60.313972 104.238022 -0.999231 0.039214 0.000001 0.523282 0.407775 1 2 1.000000
round_elevator_doors
  2 61.503948 61.506523 104.238022 -0.999231 0.039216 0.000001 0.523282 0.410410 1 2 1.000000
  2 61.503975 61.506512 -0.071594 -0.999225 0.039362 0.000000 0.292894 0.410410 1 2 1.000000
  2 61.456997 60.313801 -0.071590 -0.999225 0.039361 0.000000 0.292894 0.407775 1 2 1.000000
round_elevator_doors
  2 61.503975 61.506512 -0.071594 -0.707101 0.707113 0.000000 0.292894 0.410410 1 2 1.000000
  2 61.750721 61.753296 104.238007 -0.707115 0.707098 0.000000 0.523282 0.411257 1 2 1.000000
  2 61.750748 61.753284 -0.071594 -0.707101 0.707113 0.000000 0.292894 0.411257 1 2 1.000000
round_elevator_doors
  2 61.503975 61.506512 -0.071594 -0.707101 0.707113 0.000000 0.292894 0.410410 1 2 1.000000
  2 61.503948 61.506523 104.238022 -0.707115 0.707098 0.000000 0.523282 0.410410 1 2 1.000000
  2 61.750721 61.753296 104.238007 -0.707115 0.707098 0.000000 0.523282 0.411257 1 2 1.000000
round_elevator_doors
  2 61.962234 61.964783 -0.071598 -0.707115 0.707099 0.000000 0.292894 0.411982 1 2 1.000000
  2 63.284199 63.286808 104.238007 -0.707111 0.707102 0.000000 0.523282 0.416518 1 2 1.000000
  2 63.284214 63.286797 -0.071598 -0.707115 0.707098 0.000000 0.292894 0.416518 1 2 1.000000
round_elevator_doors
  2 61.962234 61.964783 -0.071598 -0.707115 0.707099 0.000000 0.292894 0.411982 1 2 1.000000
  2 61.962204 61.964794 104.238007 -0.707111 0.707102 0.000000 0.523282 0.411982 1 2 1.000000
  2 63.284199 63.286808 104.238007 -0.707111 0.707102 0.000000 0.523282 0.416518 1 2 1.000000
round_elevator_doors
  2 63.658257 63.238293 104.238007 -0.988140 -0.153554 0.000000 0.523282 0.417062 1 2 1.000000
  2 63.601444 63.604042 -0.071598 -0.988141 -0.153550 0.000000 0.292894 0.417607 1 2 1.000000
  2 63.658276 63.238274 -0.071598 -0.988141 -0.153550 0.000000 0.292894 0.417062 1 2 1.000000
round_elevator_doors
  2 63.658257 63.238293 104.238007 -0.988140 -0.153554 0.000000 0.523282 0.417062 1 2 1.000000
  2 63.601421 63.604050 104.238007 -0.988140 -0.153554 0.000000 0.523282 0.417607 1 2 1.000000
  2 63.601444 63.604042 -0.071598 -0.988141 -0.153550 0.000000 0.292894 0.417607 1 2 1.000000
round_elevator_doors
  2 65.134918 65.137550 -0.071598 -0.707143 0.707070 0.000000 0.292894 0.422868 1 2 1.000000
  2 65.420830 65.423515 104.238022 -0.707109 0.707104 0.000000 0.523282 0.423849 1 2 1.000000
  2 65.420837 65.423500 -0.071594 -0.707143 0.707070 0.000000 0.292894 0.423849 1 2 1.000000
round_elevator_doors
  2 65.134918 65.137550 -0.071598 -0.707143 0.707070 0.000000 0.292894 0.422868 1 2 1.000000
  2 65.134880 65.137566 104.238007 -0.707109 0.707105 0.000000 0.523282 0.422868 1 2 1.000000
  2 65.420830 65.423515 104.238022 -0.707109 0.707104 0.000000 0.523282 0.423849 1 2 1.000000
round_elevator_doors
  2 61.962234 61.964783 -0.071598 -0.943666 -0.330898 0.000000 0.292894 0.411982 1 2 1.000000
  2 62.071911 61.651905 104.238007 -0.943675 -0.330873 0.000000 0.523282 0.411619 1 2 1.000000
  2 61.962204 61.964794 104.238007 -0.943675 -0.330873 0.000000 0.523282 0.411982 1 2 1.000000
round_elevator_doors
  2 61.962234 61.964783 -0.071598 -0.943666 -0.330898 0.000000 0.292894 0.411982 1 2 1.000000
  2 62.071941 61.651894 -0.071598 -0.943666 -0.330898 0.000000 0.292894 0.411619 1 2 1.000000
  2 62.071911 61.651905 104.238007 -0.943675 -0.330873 0.000000 0.523282 0.411619 1 2 1.000000
round_elevator_doors
  2 65.134918 65.137550 -0.071598 -0.943686 -0.330841 0.000000 0.292894 0.422868 1 2 1.000000
  2 65.244591 64.824669 104.238007 -0.943678 -0.330866 0.000000 0.523282 0.422505 1 2 1.000000
  2 65.134880 65.137566 104.238007 -0.943678 -0.330866 0.000000 0.523282 0.422868 1 2 1.000000
round_elevator_doors
  2 65.134918 65.137550 -0.071598 -0.943686 -0.330841 0.000000 0.292894 0.422868 1 2 1.000000
  2 65.244614 64.824646 -0.071598 -0.943686 -0.330841 0.000000 0.292894 0.422505 1 2 1.000000
  2 65.244591 64.824669 104.238007 -0.943678 -0.330866 0.000000 0.523282 0.422505 1 2 1.000000
round_elevator_doors
  2 80.769379 30.113483 104.238022 -0.939180 -0.343425 0.000000 0.523282 0.314071 1 2 1.000000
  2 79.534973 33.256660 -0.071590 -0.922569 -0.385832 0.000000 0.292894 0.323039 1 2 1.000000
  2 80.769409 30.113464 -0.071594 -0.939587 -0.342309 0.000000 0.292894 0.314071 1 2 1.000000
round_elevator_doors
  2 80.769379 30.113483 104.238022 -0.939180 -0.343425 0.000000 0.523282 0.314071 1 2 1.000000
  2 79.534943 33.256676 104.238022 -0.922568 -0.385834 0.000000 0.523282 0.323039 1 2 1.000000
  2 79.534973 33.256660 -0.071590 -0.922569 -0.385832 0.000000 0.292894 0.323039 1 2 1.000000
round_elevator_doors
  2 79.534943 33.256676 104.238022 -0.922568 -0.385834 0.000000 0.523282 0.323039 1 2 1.000000
  2 78.244148 36.162773 -0.071602 -0.905051 -0.425302 0.000000 0.292894 0.331466 1 2 1.000000
  2 79.534973 33.256660 -0.071590 -0.922569 -0.385832 0.000000 0.292894 0.323039 1 2 1.000000
round_elevator_doors
  2 79.534943 33.256676 104.238022 -0.922568 -0.385834 0.000000 0.523282 0.323039 1 2 1.000000
  2 78.244125 36.162788 104.238007 -0.905050 -0.425305 0.000000 0.523282 0.331466 1 2 1.000000
  2 78.244148 36.162773 -0.071602 -0.905051 -0.425302 0.000000 0.292894 0.331466 1 2 1.000000
round_elevator_doors
  2 78.244125 36.162788 104.238007 -0.905050 -0.425305 0.000000 0.523282 0.331466 1 2 1.000000
  2 76.776123 39.121387 -0.071594 -0.893378 -0.449306 0.000000 0.292894 0.340209 1 2 1.000000
  2 78.244148 36.162773 -0.071602 -0.905051 -0.425302 0.000000 0.292894 0.331466 1 2 1.000000
round_elevator_doors
  2 78.244125 36.162788 104.238007 -0.905050 -0.425305 0.000000 0.523282 0.331466 1 2 1.000000
  2 76.776085 39.121403 104.238029 -0.893378 -0.449306 0.000000 0.523282 0.340209 1 2 1.000000
  2 76.776123 39.121387 -0.071594 -0.893378 -0.449306 0.000000 0.292894 0.340209 1 2 1.000000
round_elevator_doors
  2 76.776085 39.121403 104.238029 -0.893378 -0.449306 0.000000 0.523282 0.340209 1 2 1.000000
  2 75.213997 42.186131 -0.071594 -0.880126 -0.474741 0.000000 0.292894 0.349213 1 2 1.000000
  2 76.776123 39.121387 -0.071594 -0.893378 -0.449306 0.000000 0.292894 0.340209 1 2 1.000000
round_elevator_doors
  2 76.776085 39.121403 104.238029 -0.893378 -0.449306 0.000000 0.523282 0.340209 1 2 1.000000
  2 75.213974 42.186146 104.238037 -0.879965 -0.475038 0.000000 0.523282 0.349213 1 2 1.000000
  2 75.213997 42.186131 -0.071594 -0.880126 -0.474741 0.000000 0.292894 0.349213 1 2 1.000000
round_elevator_doors
  2 73.613564 44.990200 104.238029 -0.854226 -0.519902 0.000000 0.523282 0.357669 1 2 1.000000
  2 75.213997 42.186131 -0.071594 -0.880126 -0.474741 0.000000 0.292894 0.349213 1 2 1.000000
  2 75.213974 42.186146 104.238037 -0.879965 -0.475038 0.000000 0.523282 0.349213 1 2 1.000000
round_elevator_doors
  2 73.613564 44.990200 104.238029 -0.854226 -0.519902 0.000000 0.523282 0.357669 1 2 1.000000
  2 73.613609 44.990204 -0.071590 -0.853980 -0.520306 0.000000 0.292894 0.357669 1 2 1.000000
  2 75.213997 42.186131 -0.071594 -0.880126 -0.474741 0.000000 0.292894 0.349213 1 2 1.000000
round_elevator_doors
  2 71.712547 47.924698 104.238037 -0.822991 -0.568055 0.000000 0.523282 0.366830 1 2 1.000000
  2 73.613609 44.990204 -0.071590 -0.853980 -0.520306 0.000000 0.292894 0.357669 1 2 1.000000
  2 73.613564 44.990200 104.238029 -0.854226 -0.519902 0.000000 0.523282 0.357669 1 2 1.000000
round_elevator_doors
  2 71.712547 47.924698 104.238037 -0.822991 -0.568055 0.000000 0.523282 0.366830 1 2 1.000000
  2 71.712585 47.924690 -0.071590 -0.822987 -0.568061 0.000000 0.292894 0.366830 1 2 1.000000
  2 73.613609 44.990204 -0.071590 -0.853980 -0.520306 0.000000 0.292894 0.357669 1 2 1.000000
round_elevator_doors
  2 69.710945 50.650166 104.238037 -0.797461 -0.603370 0.000000 0.523282 0.375676 1 2 1.000000
  2 71.712585 47.924690 -0.071590 -0.822987 -0.568061 0.000000 0.292894 0.366830 1 2 1.000000
  2 71.712547 47.924698 104.238037 -0.822991 -0.568055 0.000000 0.523282 0.366830 1 2 1.000000
round_elevator_doors
  2 69.710945 50.650166 104.238037 -0.797461 -0.603370 0.000000 0.523282 0.375676 1 2 1.000000
  2 69.710968 50.650150 -0.071590 -0.797454 -0.603380 0.000000 0.292894 0.375676 1 2 1.000000
  2 71.712585 47.924690 -0.071590 -0.822987 -0.568061 0.000000 0.292894 0.366830 1 2 1.000000
round_elevator_doors
  2 67.749069 53.167614 104.238029 -0.775020 -0.631936 0.000000 0.523282 0.383741 1 2 1.000000
  2 69.710968 50.650150 -0.071590 -0.797454 -0.603380 0.000000 0.292894 0.375676 1 2 1.000000
  2 69.710945 50.650166 104.238037 -0.797461 -0.603370 0.000000 0.523282 0.375676 1 2 1.000000
round_elevator_doors
  2 67.749069 53.167614 104.238029 -0.775020 -0.631936 0.000000 0.523282 0.383741 1 2 1.000000
  2 67.749046 53.167568 -0.071594 -0.775012 -0.631947 0.000001 0.292894 0.383741 1 2 1.000000
  2 69.710968 50.650150 -0.071590 -0.797454 -0.603380 0.000000 0.292894 0.375676 1 2 1.000000
round_elevator_doors
  2 65.697235 55.573719 104.238022 -0.757797 -0.652491 0.000001 0.523282 0.391726 1 2 1.000000
  2 67.749046 53.167568 -0.071594 -0.775012 -0.631947 0.000001 0.292894 0.383741 1 2 1.000000
  2 67.749069 53.167614 104.238029 -0.775020 -0.631936 0.000000 0.523282 0.383741 1 2 1.000000
round_elevator_doors
  2 65.697235 55.573719 104.238022 -0.757797 -0.652491 0.000001 0.523282 0.391726 1 2 1.000000
  2 65.697182 55.573627 -0.071590 -0.757786 -0.652503 0.000001 0.292894 0.391726 1 2 1.000000
  2 67.749046 53.167568 -0.071594 -0.775012 -0.631947 0.000001 0.292894 0.383741 1 2 1.000000
round_elevator_doors
  2 63.612125 57.972134 104.238022 -0.745340 -0.666684 0.000002 0.523282 0.399750 1 2 1.000000
  2 65.697182 55.573627 -0.071590 -0.757786 -0.652503 0.000001 0.292894 0.391726 1 2 1.000000
  2 65.697235 55.573719 104.238022 -0.757797 -0.652491 0.000001 0.523282 0.391726 1 2 1.000000
round_elevator_doors
  2 63.612125 57.972134 104.238022 -0.745340 -0.666684 0.000002 0.523282 0.399750 1 2 1.000000
  2 63.612011 57.972000 -0.071594 -0.745328 -0.666698 0.000002 0.292894 0.399750 1 2 1.000000
  2 65.697182 55.573627 -0.071590 -0.757786 -0.652503 0.000001 0.292894 0.391726 1 2 1.000000
round_elevator_doors
  2 63.612125 57.972134 104.238022 -0.745340 -0.666684 0.000002 0.523282 0.399750 1 2 1.000000
  2 61.456997 60.313801 -0.071590 -0.735843 -0.677152 0.000002 0.292894 0.407775 1 2 1.000000
  2 63.612011 57.972000 -0.071594 -0.745328 -0.666698 0.000002 0.292894 0.399750 1 2 1.000000
round_elevator_doors
  2 63.612125 57.972134 104.238022 -0.745340 -0.666684 0.000002 0.523282 0.399750 1 2 1.000000
  2 61.457153 60.313972 104.238022 -0.735855 -0.677139 0.000002 0.523282 0.407775 1 2 1.000000
  2 61.456997 60.313801 -0.071590 -0.735843 -0.677152 0.000002 0.292894 0.407775 1 2 1.000000
round_elevator_doors
  2 86.168823 0.001696 104.238022 -0.998825 -0.048458 0.000000 0.523282 0.234682 1 2 1.000000
  2 86.001877 3.441664 -0.071598 -0.998435 -0.055931 0.000000 0.292894 0.243241 1 2 1.000000
  2 86.168770 0.001780 -0.071598 -0.998825 -0.048456 0.000000 0.292894 0.234682 1 2 1.000000
round_elevator_doors
  2 86.168823 0.001696 104.238022 -0.998825 -0.048458 0.000000 0.523282 0.234682 1 2 1.000000
  2 86.001923 3.441614 104.238014 -0.998434 -0.055935 0.000000 0.523282 0.243241 1 2 1.000000
  2 86.001877 3.441664 -0.071598 -0.998435 -0.055931 0.000000 0.292894 0.243241 1 2 1.000000
round_elevator_doors
  2 85.784721 6.860193 104.238007 -0.997272 -0.073819 0.000000 0.523282 0.251758 1 2 1.000000
  2 86.001877 3.441664 -0.071598 -0.998435 -0.055931 0.000000 0.292894 0.243241 1 2 1.000000
  2 86.001923 3.441614 104.238014 -0.998434 -0.055935 0.000000 0.523282 0.243241 1 2 1.000000
round_elevator_doors
  2 85.784721 6.860193 104.238007 -0.997272 -0.073819 0.000000 0.523282 0.251758 1 2 1.000000
  2 85.784706 6.860243 -0.071602 -0.997272 -0.073808 0.000000 0.292894 0.251758 1 2 1.000000
  2 86.001877 3.441664 -0.071598 -0.998435 -0.055931 0.000000 0.292894 0.243241 1 2 1.000000
round_elevator_doors
  2 85.784721 6.860193 104.238007 -0.997272 -0.073819 0.000000 0.523282 0.251758 1 2 1.000000
  2 85.506645 10.150591 -0.071602 -0.994827 -0.101578 0.000000 0.292894 0.260226 1 2 1.000000
  2 85.784706 6.860243 -0.071602 -0.997272 -0.073808 0.000000 0.292894 0.251758 1 2 1.000000
round_elevator_doors
  2 85.784721 6.860193 104.238007 -0.997272 -0.073819 0.000000 0.523282 0.251758 1 2 1.000000
  2 85.506630 10.150583 104.238007 -0.994826 -0.101589 0.000000 0.523282 0.260226 1 2 1.000000
  2 85.506645 10.150591 -0.071602 -0.994827 -0.101578 0.000000 0.292894 0.260226 1 2 1.000000
round_elevator_doors
  2 85.506630 10.150583 104.238007 -0.994826 -0.101589 0.000000 0.523282 0.260226 1 2 1.000000
  2 85.107697 13.481470 -0.071598 -0.989927 -0.141576 0.000000 0.292894 0.268833 1 2 1.000000
  2 85.506645 10.150591 -0.071602 -0.994827 -0.101578 0.000000 0.292894 0.260226 1 2 1.000000
round_elevator_doors
  2 85.506630 10.150583 104.238007 -0.994826 -0.101589 0.000000 0.523282 0.260226 1 2 1.000000
  2 85.107666 13.481482 104.238007 -0.990048 -0.140729 0.000000 0.523282 0.268833 1 2 1.000000
  2 85.107697 13.481470 -0.071598 -0.989927 -0.141576 0.000000 0.292894 0.268833 1 2 1.000000
round_elevator_doors
  2 84.516319 17.073092 -0.071598 -0.982325 -0.187183 0.000001 0.292894 0.278379 1 2 1.000000
  2 85.107697 13.481470 -0.071598 -0.989927 -0.141576 0.000000 0.292894 0.268833 1 2 1.000000
  2 85.107666 13.481482 104.238007 -0.990048 -0.140729 0.000000 0.523282 0.268833 1 2 1.000000
round_elevator_doors
  2 84.516319 17.073092 -0.071598 -0.982325 -0.187183 0.000001 0.292894 0.278379 1 2 1.000000
  2 85.107666 13.481482 104.238007 -0.990048 -0.140729 0.000000 0.523282 0.268833 1 2 1.000000
  2 84.516296 17.073111 104.238007 -0.982297 -0.187328 0.000000 0.523282 0.278379 1 2 1.000000
round_elevator_doors
  2 83.846710 20.101788 104.238014 -0.971922 -0.235304 0.000000 0.523282 0.286509 1 2 1.000000
  2 84.516319 17.073092 -0.071598 -0.982325 -0.187183 0.000001 0.292894 0.278379 1 2 1.000000
  2 84.516296 17.073111 104.238007 -0.982297 -0.187328 0.000000 0.523282 0.278379 1 2 1.000000
round_elevator_doors
  2 83.846710 20.101788 104.238014 -0.971922 -0.235304 0.000000 0.523282 0.286509 1 2 1.000000
  2 83.846733 20.101782 -0.071598 -0.971921 -0.235305 0.000000 0.292894 0.286509 1 2 1.000000
  2 84.516319 17.073092 -0.071598 -0.982325 -0.187183 0.000001 0.292894 0.278379 1 2 1.000000
round_elevator_doors
  2 83.015198 23.259502 104.238014 -0.960340 -0.278831 0.000000 0.523282 0.295059 1 2 1.000000
  2 83.846733 20.101782 -0.071598 -0.971921 -0.235305 0.000000 0.292894 0.286509 1 2 1.000000
  2 83.846710 20.101788 104.238014 -0.971922 -0.235304 0.000000 0.523282 0.286509 1 2 1.000000
round_elevator_doors
  2 83.015198 23.259502 104.238014 -0.960340 -0.278831 0.000000 0.523282 0.295059 1 2 1.000000
  2 83.015221 23.259485 -0.071598 -0.960577 -0.278013 0.000000 0.292894 0.295059 1 2 1.000000
  2 83.846733 20.101782 -0.071598 -0.971921 -0.235305 0.000000 0.292894 0.286509 1 2 1.000000
round_elevator_doors
  2 81.950745 26.629282 104.238022 -0.950352 -0.311176 0.000000 0.523282 0.304301 1 2 1.000000
  2 83.015221 23.259485 -0.071598 -0.960577 -0.278013 0.000000 0.292894 0.295059 1 2 1.000000
  2 83.015198 23.259502 104.238014 -0.960340 -0.278831 0.000000 0.523282 0.295059 1 2 1.000000
round_elevator_doors
  2 81.950745 26.629282 104.238022 -0.950352 -0.311176 0.000000 0.523282 0.304301 1 2 1.000000
  2 81.950775 26.629269 -0.071594 -0.950351 -0.311180 0.000000 0.292894 0.304301 1 2 1.000000
  2 83.015221 23.259485 -0.071598 -0.960577 -0.278013 0.000000 0.292894 0.295059 1 2 1.000000
round_elevator_doors
  2 81.950745 26.629282 104.238022 -0.950352 -0.311176 0.000000 0.523282 0.304301 1 2 1.000000
  2 80.769409 30.113464 -0.071594 -0.939587 -0.342309 0.000000 0.292894 0.314071 1 2 1.000000
  2 81.950775 26.629269 -0.071594 -0.950351 -0.311180 0.000000 0.292894 0.304301 1 2 1.000000
round_elevator_doors
  2 81.950745 26.629282 104.238022 -0.950352 -0.311176 0.000000 0.523282 0.304301 1 2 1.000000
  2 80.769379 30.113483 104.238022 -0.939180 -0.343425 0.000000 0.523282 0.314071 1 2 1.000000
  2 80.769409 30.113464 -0.071594 -0.939587 -0.342309 0.000000 0.292894 0.314071 1 2 1.000000
round_elevator_doors
  2 68.941780 62.831799 104.238022 0.746505 0.665380 0.000000 0.523282 0.434510 1 2 1.000000
  2 66.613304 65.376633 -0.071594 0.737783 0.675038 -0.000001 0.292894 0.426485 1 2 1.000000
  2 66.613281 65.376648 104.238022 0.737772 0.675050 0.000000 0.523282 0.426485 1 2 1.000000
round_elevator_doors
  2 68.941780 62.831799 104.238022 0.746505 0.665380 0.000000 0.523282 0.434510 1 2 1.000000
  2 68.941750 62.831745 -0.071590 0.746513 0.665371 -0.000001 0.292894 0.434510 1 2 1.000000
  2 66.613304 65.376633 -0.071594 0.737783 0.675038 -0.000001 0.292894 0.426485 1 2 1.000000
round_elevator_doors
  2 71.200394 60.230366 104.238029 0.757528 0.652803 -0.000001 0.523282 0.442536 1 2 1.000000
  2 68.941750 62.831745 -0.071590 0.746513 0.665371 -0.000001 0.292894 0.434510 1 2 1.000000
  2 68.941780 62.831799 104.238022 0.746505 0.665380 0.000000 0.523282 0.434510 1 2 1.000000
round_elevator_doors
  2 71.200394 60.230366 104.238029 0.757528 0.652803 -0.000001 0.523282 0.442536 1 2 1.000000
  2 71.200317 60.230270 -0.071590 0.757538 0.652791 -0.000001 0.292894 0.442536 1 2 1.000000
  2 68.941750 62.831745 -0.071590 0.746513 0.665371 -0.000001 0.292894 0.434510 1 2 1.000000
round_elevator_doors
  2 73.428696 57.625198 104.238007 0.773882 0.633330 -0.000001 0.523282 0.450521 1 2 1.000000
  2 71.200317 60.230270 -0.071590 0.757538 0.652791 -0.000001 0.292894 0.442536 1 2 1.000000
  2 71.200394 60.230366 104.238029 0.757528 0.652803 -0.000001 0.523282 0.442536 1 2 1.000000
round_elevator_doors
  2 73.428696 57.625198 104.238007 0.773882 0.633330 -0.000001 0.523282 0.450521 1 2 1.000000
  2 73.428574 57.625061 -0.071598 0.773895 0.633313 -0.000002 0.292894 0.450521 1 2 1.000000
  2 71.200317 60.230270 -0.071590 0.757538 0.652791 -0.000001 0.292894 0.442536 1 2 1.000000
round_elevator_doors
  2 75.561127 54.900768 104.238029 0.796710 0.604361 -0.000002 0.523282 0.458587 1 2 1.000000
  2 73.428574 57.625061 -0.071598 0.773895 0.633313 -0.000002 0.292894 0.450521 1 2 1.000000
  2 73.428696 57.625198 104.238007 0.773882 0.633330 -0.000001 0.523282 0.450521 1 2 1.000000
round_elevator_doors
  2 75.561127 54.900768 104.238029 0.796710 0.604361 -0.000002 0.523282 0.458587 1 2 1.000000
  2 75.560959 54.900608 -0.071590 0.796715 0.604355 -0.000002 0.292894 0.458587 1 2 1.000000
  2 73.428574 57.625061 -0.071598 0.773895 0.633313 -0.000002 0.292894 0.450521 1 2 1.000000
round_elevator_doors
  2 77.731781 51.947399 104.238022 0.823371 0.567503 -0.000002 0.523282 0.467433 1 2 1.000000
  2 75.560959 54.900608 -0.071590 0.796715 0.604355 -0.000002 0.292894 0.458587 1 2 1.000000
  2 75.561127 54.900768 104.238029 0.796710 0.604361 -0.000002 0.523282 0.458587 1 2 1.000000
round_elevator_doors
  2 77.731781 51.947399 104.238022 0.823371 0.567503 -0.000002 0.523282 0.467433 1 2 1.000000
  2 77.731613 51.947277 -0.071594 0.822982 0.568067 -0.000002 0.292894 0.467433 1 2 1.000000
  2 75.560959 54.900608 -0.071590 0.796715 0.604355 -0.000002 0.292894 0.458587 1 2 1.000000
round_elevator_doors
  2 79.791260 48.765774 104.238022 0.853985 0.520297 -0.000002 0.523282 0.476594 1 2 1.000000
  2 77.731613 51.947277 -0.071594 0.822982 0.568067 -0.000002 0.292894 0.467433 1 2 1.000000
  2 77.731781 51.947399 104.238022 0.823371 0.567503 -0.000002 0.523282 0.467433 1 2 1.000000
round_elevator_doors
  2 79.791260 48.765774 104.238022 0.853985 0.520297 -0.000002 0.523282 0.476594 1 2 1.000000
  2 79.791130 48.765713 -0.071590 0.853979 0.520307 -0.000001 0.292894 0.476594 1 2 1.000000
  2 77.731613 51.947277 -0.071594 0.822982 0.568067 -0.000002 0.292894 0.467433 1 2 1.000000
round_elevator_doors
  2 81.525772 45.726238 104.238022 0.879969 0.475030 -0.000001 0.523282 0.485050 1 2 1.000000
  2 79.791130 48.765713 -0.071590 0.853979 0.520307 -0.000001 0.292894 0.476594 1 2 1.000000
  2 79.791260 48.765774 104.238022 0.853985 0.520297 -0.000002 0.523282 0.476594 1 2 1.000000
round_elevator_doors
  2 81.525772 45.726238 104.238022 0.879969 0.475030 -0.000001 0.523282 0.485050 1 2 1.000000
  2 81.525681 45.726246 -0.071590 0.879963 0.475043 0.000000 0.292894 0.485050 1 2 1.000000
  2 79.791130 48.765713 -0.071590 0.853979 0.520307 -0.000001 0.292894 0.476594 1 2 1.000000
round_elevator_doors
  2 83.219154 42.404373 104.238014 0.893364 0.449333 0.000000 0.523282 0.494054 1 2 1.000000
  2 81.525681 45.726246 -0.071590 0.879963 0.475043 0.000000 0.292894 0.485050 1 2 1.000000
  2 81.525772 45.726238 104.238022 0.879969 0.475030 -0.000001 0.523282 0.485050 1 2 1.000000
round_elevator_doors
  2 83.219154 42.404373 104.238014 0.893364 0.449333 0.000000 0.523282 0.494054 1 2 1.000000
  2 83.219109 42.404453 -0.071598 0.893359 0.449343 0.000000 0.292894 0.494054 1 2 1.000000
  2 81.525681 45.726246 -0.071590 0.879963 0.475043 0.000000 0.292894 0.485050 1 2 1.000000
round_elevator_doors
  2 83.219109 42.404453 -0.071598 0.893359 0.449343 0.000000 0.292894 0.494054 1 2 1.000000
  2 83.219154 42.404373 104.238014 0.893364 0.449333 0.000000 0.523282 0.494054 1 2 1.000000
  2 84.810394 39.197498 104.238022 0.905052 0.425301 0.000000 0.523282 0.502797 1 2 1.000000
round_elevator_doors
  2 83.219109 42.404453 -0.071598 0.893359 0.449343 0.000000 0.292894 0.494054 1 2 1.000000
  2 84.810394 39.197498 104.238022 0.905052 0.425301 0.000000 0.523282 0.502797 1 2 1.000000
  2 84.810379 39.197567 -0.071594 0.905048 0.425309 0.000000 0.292894 0.502797 1 2 1.000000
round_elevator_doors
  2 86.209511 36.047504 104.238014 0.922833 0.385201 0.000000 0.523282 0.511224 1 2 1.000000
  2 84.810379 39.197567 -0.071594 0.905048 0.425309 0.000000 0.292894 0.502797 1 2 1.000000
  2 84.810394 39.197498 104.238022 0.905052 0.425301 0.000000 0.523282 0.502797 1 2 1.000000
round_elevator_doors
  2 86.209511 36.047504 104.238014 0.922833 0.385201 0.000000 0.523282 0.511224 1 2 1.000000
  2 86.209526 36.047554 -0.071594 0.922570 0.385831 0.000000 0.292894 0.511224 1 2 1.000000
  2 84.810379 39.197567 -0.071594 0.905048 0.425309 0.000000 0.292894 0.502797 1 2 1.000000
round_elevator_doors
  2 87.547485 32.640553 104.238014 0.939661 0.342108 0.000000 0.523282 0.520192 1 2 1.000000
  2 86.209526 36.047554 -0.071594 0.922570 0.385831 0.000000 0.292894 0.511224 1 2 1.000000
  2 86.209511 36.047504 104.238014 0.922833 0.385201 0.000000 0.523282 0.511224 1 2 1.000000
round_elevator_doors
  2 87.547485 32.640553 104.238014 0.939661 0.342108 0.000000 0.523282 0.520192 1 2 1.000000
  2 87.547531 32.640575 -0.071598 0.939381 0.342876 0.000001 0.292894 0.520192 1 2 1.000000
  2 86.209526 36.047554 -0.071594 0.922570 0.385831 0.000000 0.292894 0.511224 1 2 1.000000
round_elevator_doors
  2 88.828003 28.863991 104.238014 0.950352 0.311178 0.000000 0.523282 0.529962 1 2 1.000000
  2 87.547531 32.640575 -0.071598 0.939381 0.342876 0.000001 0.292894 0.520192 1 2 1.000000
  2 87.547485 32.640553 104.238014 0.939661 0.342108 0.000000 0.523282 0.520192 1 2 1.000000
round_elevator_doors
  2 88.828003 28.863991 104.238014 0.950352 0.311178 0.000000 0.523282 0.529962 1 2 1.000000
  2 88.828033 28.863977 -0.071598 0.950354 0.311171 0.000000 0.292894 0.529962 1 2 1.000000
  2 87.547531 32.640575 -0.071598 0.939381 0.342876 0.000001 0.292894 0.520192 1 2 1.000000
round_elevator_doors
  2 89.981781 25.211411 104.238022 0.960350 0.278796 0.000000 0.523282 0.539204 1 2 1.000000
  2 88.828033 28.863977 -0.071598 0.950354 0.311171 0.000000 0.292894 0.529962 1 2 1.000000
  2 88.828003 28.863991 104.238014 0.950352 0.311178 0.000000 0.523282 0.529962 1 2 1.000000
round_elevator_doors
  2 89.981781 25.211411 104.238022 0.960350 0.278796 0.000000 0.523282 0.539204 1 2 1.000000
  2 89.981781 25.211422 -0.071602 0.960580 0.278003 0.000000 0.292894 0.539204 1 2 1.000000
  2 88.828033 28.863977 -0.071598 0.950354 0.311171 0.000000 0.292894 0.529962 1 2 1.000000
round_elevator_doors
  2 90.883049 21.788712 104.238014 0.971883 0.235464 0.000000 0.523282 0.547754 1 2 1.000000
  2 89.981781 25.211422 -0.071602 0.960580 0.278003 0.000000 0.292894 0.539204 1 2 1.000000
  2 89.981781 25.211411 104.238022 0.960350 0.278796 0.000000 0.523282 0.539204 1 2 1.000000
round_elevator_doors
  2 90.883049 21.788712 104.238014 0.971883 0.235464 0.000000 0.523282 0.547754 1 2 1.000000
  2 90.883011 21.788744 -0.071594 0.971884 0.235460 0.000000 0.292894 0.547754 1 2 1.000000
  2 89.981781 25.211422 -0.071602 0.960580 0.278003 0.000000 0.292894 0.539204 1 2 1.000000
round_elevator_doors
  2 91.609955 18.505972 104.238022 0.982347 0.187069 0.000000 0.523282 0.555884 1 2 1.000000
  2 90.883011 21.788744 -0.071594 0.971884 0.235460 0.000000 0.292894 0.547754 1 2 1.000000
  2 90.883049 21.788712 104.238014 0.971883 0.235464 0.000000 0.523282 0.547754 1 2 1.000000
round_elevator_doors
  2 91.609955 18.505972 104.238022 0.982347 0.187069 0.000000 0.523282 0.555884 1 2 1.000000
  2 91.609909 18.506029 -0.071594 0.982337 0.187122 0.000000 0.292894 0.555884 1 2 1.000000
  2 90.883011 21.788744 -0.071594 0.971884 0.235460 0.000000 0.292894 0.547754 1 2 1.000000
round_elevator_doors
  2 92.249802 14.612818 104.238022 0.990072 0.140557 -0.000001 0.523282 0.565430 1 2 1.000000
  2 91.609909 18.506029 -0.071594 0.982337 0.187122 0.000000 0.292894 0.555884 1 2 1.000000
  2 91.609955 18.505972 104.238022 0.982347 0.187069 0.000000 0.523282 0.555884 1 2 1.000000
round_elevator_doors
  2 92.249802 14.612818 104.238022 0.990072 0.140557 -0.000001 0.523282 0.565430 1 2 1.000000
  2 92.249756 14.612894 -0.071594 0.990058 0.140658 0.000000 0.292894 0.565430 1 2 1.000000
  2 91.609909 18.506029 -0.071594 0.982337 0.187122 0.000000 0.292894 0.555884 1 2 1.000000
round_elevator_doors
  2 92.675209 10.997358 104.238022 0.995010 0.099772 0.000000 0.523282 0.574037 1 2 1.000000
  2 92.249756 14.612894 -0.071594 0.990058 0.140658 0.000000 0.292894 0.565430 1 2 1.000000
  2 92.249802 14.612818 104.238022 0.990072 0.140557 -0.000001 0.523282 0.565430 1 2 1.000000
round_elevator_doors
  2 92.675209 10.997358 104.238022 0.995010 0.099772 0.000000 0.523282 0.574037 1 2 1.000000
  2 92.675201 10.997423 -0.071594 0.995011 0.099766 0.000000 0.292894 0.574037 1 2 1.000000
  2 92.249756 14.612894 -0.071594 0.990058 0.140658 0.000000 0.292894 0.565430 1 2 1.000000
round_elevator_doors
  2 92.971397 7.426008 104.238022 0.997287 0.073607 0.000000 0.523282 0.582505 1 2 1.000000
  2 92.675201 10.997423 -0.071594 0.995011 0.099766 0.000000 0.292894 0.574037 1 2 1.000000
  2 92.675209 10.997358 104.238022 0.995010 0.099772 0.000000 0.523282 0.574037 1 2 1.000000
round_elevator_doors
  2 92.971397 7.426008 104.238022 0.997287 0.073607 0.000000 0.523282 0.582505 1 2 1.000000
  2 92.971375 7.426043 -0.071598 0.997288 0.073601 0.000000 0.292894 0.582505 1 2 1.000000
  2 92.675201 10.997423 -0.071594 0.995011 0.099766 0.000000 0.292894 0.574037 1 2 1.000000
round_elevator_doors
  2 93.210770 3.725367 104.238022 0.998336 0.057659 0.000000 0.523282 0.591022 1 2 1.000000
  2 92.971375 7.426043 -0.071598 0.997288 0.073601 0.000000 0.292894 0.582505 1 2 1.000000
  2 92.971397 7.426008 104.238022 0.997287 0.073607 0.000000 0.523282 0.582505 1 2 1.000000
round_elevator_doors
  2 93.210770 3.725367 104.238022 0.998336 0.057659 0.000000 0.523282 0.591022 1 2 1.000000
  2 93.210777 3.725374 -0.071598 0.998336 0.057663 0.000000 0.292894 0.591022 1 2 1.000000
  2 92.971375 7.426043 -0.071598 0.997288 0.073601 0.000000 0.292894 0.582505 1 2 1.000000
round_elevator_doors
  2 93.400024 0.001974 104.238022 0.998711 0.050761 0.000000 0.523282 0.599581 1 2 1.000000
  2 93.210777 3.725374 -0.071598 0.998336 0.057663 0.000000 0.292894 0.591022 1 2 1.000000
  2 93.210770 3.725367 104.238022 0.998336 0.057659 0.000000 0.523282 0.591022 1 2 1.000000
round_elevator_doors
  2 93.400024 0.001974 104.238022 0.998711 0.050761 0.000000 0.523282 0.599581 1 2 1.000000
  2 93.400047 0.001955 -0.071598 0.998710 0.050771 0.000000 0.292894 0.599581 1 2 1.000000
  2 93.210777 3.725374 -0.071598 0.998336 0.057663 0.000000 0.292894 0.591022 1 2 1.000000
round_elevator_doors
  3 6.840073 85.955963 -0.191990 -0.054628 -0.998507 -0.000001 0.042558 0.582532 1 3 1.000000
  3 0.001781 86.168793 104.117630 -0.031119 -0.999516 -0.000001 0.272539 0.599504 1 3 1.000000
  3 0.001888 86.168900 -0.191990 -0.031125 -0.999515 -0.000001 0.042558 0.599504 1 3 1.000000
round_elevator_doors
  3 6.840073 85.955963 -0.191990 -0.054628 -0.998507 -0.000001 0.042558 0.582532 1 3 1.000000
  3 6.839993 85.955902 104.117630 -0.054661 -0.998505 -0.000004 0.272539 0.582532 1 3 1.000000
  3 0.001781 86.168793 104.117630 -0.031119 -0.999516 -0.000001 0.272539 0.599504 1 3 1.000000
round_elevator_doors
  3 10.317364 85.604797 -0.191986 -0.127038 -0.991898 0.000000 0.042558 0.573671 1 3 1.000000
  3 6.839993 85.955902 104.117630 -0.054661 -0.998505 -0.000004 0.272539 0.582532 1 3 1.000000
  3 6.840073 85.955963 -0.191990 -0.054628 -0.998507 -0.000001 0.042558 0.582532 1 3 1.000000
round_elevator_doors
  3 10.317364 85.604797 -0.191986 -0.127038 -0.991898 0.000000 0.042558 0.573671 1 3 1.000000
  3 10.317326 85.604805 104.117630 -0.127174 -0.991880 -0.000001 0.272539 0.573671 1 3 1.000000
  3 6.839993 85.955902 104.117630 -0.054661 -0.998505 -0.000004 0.272539 0.582532 1 3 1.000000
round_elevator_doors
  3 10.317364 85.604797 -0.191986 -0.127038 -0.991898 0.000000 0.042558 0.573671 1 3 1.000000
  3 13.481556 85.107681 104.117630 -0.162328 -0.986737 0.000000 0.272539 0.565559 1 3 1.000000
  3 10.317326 85.604805 104.117630 -0.127174 -0.991880 -0.000001 0.272539 0.573671 1 3 1.000000
round_elevator_doors
  3 10.317364 85.604797 -0.191986 -0.127038 -0.991898 0.000000 0.042558 0.573671 1 3 1.000000
  3 13.481586 85.107674 -0.191986 -0.162226 -0.986754 0.000000 0.042558 0.565559 1 3 1.000000
  3 13.481556 85.107681 104.117630 -0.162328 -0.986737 0.000000 0.272539 0.565559 1 3 1.000000
round_elevator_doors
  3 13.481586 85.107674 -0.191986 -0.162226 -0.986754 0.000000 0.042558 0.565559 1 3 1.000000
  3 17.077007 84.494484 104.117630 -0.188178 -0.982135 0.000000 0.272539 0.555988 1 3 1.000000
  3 13.481556 85.107681 104.117630 -0.162328 -0.986737 0.000000 0.272539 0.565559 1 3 1.000000
round_elevator_doors
  3 13.481586 85.107674 -0.191986 -0.162226 -0.986754 0.000000 0.042558 0.565559 1 3 1.000000
  3 17.076998 84.494530 -0.191994 -0.187786 -0.982210 -0.000001 0.042558 0.555988 1 3 1.000000
  3 17.077007 84.494484 104.117630 -0.188178 -0.982135 0.000000 0.272539 0.555988 1 3 1.000000
round_elevator_doors
  3 17.076998 84.494530 -0.191994 -0.187786 -0.982210 -0.000001 0.042558 0.555988 1 3 1.000000
  3 20.092461 83.842529 104.117630 -0.232776 -0.972530 -0.000001 0.272539 0.547883 1 3 1.000000
  3 17.077007 84.494484 104.117630 -0.188178 -0.982135 0.000000 0.272539 0.555988 1 3 1.000000
round_elevator_doors
  3 17.076998 84.494530 -0.191994 -0.187786 -0.982210 -0.000001 0.042558 0.555988 1 3 1.000000
  3 20.092424 83.842659 -0.191986 -0.233356 -0.972391 -0.000002 0.042558 0.547883 1 3 1.000000
  3 20.092461 83.842529 104.117630 -0.232776 -0.972530 -0.000001 0.272539 0.547883 1 3 1.000000
round_elevator_doors
  3 20.092424 83.842659 -0.191986 -0.233356 -0.972391 -0.000002 0.042558 0.547883 1 3 1.000000
  3 23.219194 83.020996 104.117630 -0.278273 -0.960502 -0.000001 0.272539 0.539375 1 3 1.000000
  3 20.092461 83.842529 104.117630 -0.232776 -0.972530 -0.000001 0.272539 0.547883 1 3 1.000000
round_elevator_doors
  3 20.092424 83.842659 -0.191986 -0.233356 -0.972391 -0.000002 0.042558 0.547883 1 3 1.000000
  3 23.219158 83.021210 -0.191986 -0.277850 -0.960624 -0.000001 0.042558 0.539375 1 3 1.000000
  3 23.219194 83.020996 104.117630 -0.278273 -0.960502 -0.000001 0.272539 0.539375 1 3 1.000000
round_elevator_doors
  3 23.219158 83.021210 -0.191986 -0.277850 -0.960624 -0.000001 0.042558 0.539375 1 3 1.000000
  3 26.629469 81.950714 104.117630 -0.308661 -0.951172 -0.000002 0.272539 0.529970 1 3 1.000000
  3 23.219194 83.020996 104.117630 -0.278273 -0.960502 -0.000001 0.272539 0.539375 1 3 1.000000
round_elevator_doors
  3 23.219158 83.021210 -0.191986 -0.277850 -0.960624 -0.000001 0.042558 0.539375 1 3 1.000000
  3 26.629383 81.950958 -0.191994 -0.308658 -0.951173 -0.000002 0.042558 0.529970 1 3 1.000000
  3 26.629469 81.950714 104.117630 -0.308661 -0.951172 -0.000002 0.272539 0.529970 1 3 1.000000
round_elevator_doors
  3 29.910028 80.851158 -0.191990 -0.340497 -0.940246 -0.000002 0.042558 0.520825 1 3 1.000000
  3 26.629469 81.950714 104.117630 -0.308661 -0.951172 -0.000002 0.272539 0.529970 1 3 1.000000
  3 26.629383 81.950958 -0.191994 -0.308658 -0.951173 -0.000002 0.042558 0.529970 1 3 1.000000
round_elevator_doors
  3 29.910028 80.851158 -0.191990 -0.340497 -0.940246 -0.000002 0.042558 0.520825 1 3 1.000000
  3 29.910072 80.850937 104.117630 -0.340487 -0.940249 -0.000001 0.272539 0.520825 1 3 1.000000
  3 26.629469 81.950714 104.117630 -0.308661 -0.951172 -0.000002 0.272539 0.529970 1 3 1.000000
round_elevator_doors
  3 33.245663 79.551903 -0.191986 -0.381685 -0.924293 -0.000001 0.042558 0.511353 1 3 1.000000
  3 29.910072 80.850937 104.117630 -0.340487 -0.940249 -0.000001 0.272539 0.520825 1 3 1.000000
  3 29.910028 80.851158 -0.191990 -0.340497 -0.940246 -0.000002 0.042558 0.520825 1 3 1.000000
round_elevator_doors
  3 33.245663 79.551903 -0.191986 -0.381685 -0.924293 -0.000001 0.042558 0.511353 1 3 1.000000
  3 33.245678 79.551773 104.117645 -0.381885 -0.924210 -0.000002 0.272539 0.511353 1 3 1.000000
  3 29.910072 80.850937 104.117630 -0.340487 -0.940249 -0.000001 0.272539 0.520825 1 3 1.000000
end
