// Created by Crowbar 0.74
version 1
nodes
  0 "static_prop" -1
end
skeleton
  time 0
    0 0.000000 0.000000 0.000000 0.000000 0.000000 0.000000
end
triangles
  phy
    0 -61.000013 324.899981 -96.000001 -0.985063 0.092349 -0.145336 0 0
    0 -61.000013 315.900037 -96.000001 0.989025 0.023180 -0.145921 0 0
    0 -61.000013 324.899981 96.000001 -0.989025 -0.023180 -0.145921 0 0
  phy
    0 -61.000013 324.899981 96.000001 -0.989025 -0.023180 -0.145921 0 0
    0 -61.000013 315.900037 -96.000001 0.989025 0.023180 -0.145921 0 0
    0 -61.000013 315.900037 96.000001 0.985063 -0.092349 -0.145336 0 0
  phy
    0 -61.000013 315.900037 -96.000001 0.989025 0.023180 -0.145921 0 0
    0 -61.000013 324.899981 -96.000001 -0.985063 0.092349 -0.145336 0 0
    0 -0.000014 315.900037 -96.000001 0.955261 0.089555 0.281879 0 0
  phy
    0 -0.000014 315.900037 -96.000001 0.955261 0.089555 0.281879 0 0
    0 -61.000013 324.899981 -96.000001 -0.985063 0.092349 -0.145336 0 0
    0 -0.000014 324.899981 -96.000001 -0.997018 0.023367 0.073550 0 0
  phy
    0 -61.000013 324.899981 -96.000001 -0.985063 0.092349 -0.145336 0 0
    0 -61.000013 324.899981 96.000001 -0.989025 -0.023180 -0.145921 0 0
    0 -0.000014 324.899981 -96.000001 -0.997018 0.023367 0.073550 0 0
  phy
    0 -0.000014 324.899981 -96.000001 -0.997018 0.023367 0.073550 0 0
    0 -61.000013 324.899981 96.000001 -0.989025 -0.023180 -0.145921 0 0
    0 -0.000014 324.899981 96.000001 -0.955261 -0.089555 0.281879 0 0
  phy
    0 -61.000013 315.900037 -96.000001 0.989025 0.023180 -0.145921 0 0
    0 -0.000014 315.900037 96.000001 0.997018 -0.023367 0.073550 0 0
    0 -61.000013 315.900037 96.000001 0.985063 -0.092349 -0.145336 0 0
  phy
    0 -61.000013 315.900037 -96.000001 0.989025 0.023180 -0.145921 0 0
    0 -0.000014 315.900037 -96.000001 0.955261 0.089555 0.281879 0 0
    0 -0.000014 315.900037 96.000001 0.997018 -0.023367 0.073550 0 0
  phy
    0 -61.000013 315.900037 96.000001 0.985063 -0.092349 -0.145336 0 0
    0 -0.000014 324.899981 96.000001 -0.955261 -0.089555 0.281879 0 0
    0 -61.000013 324.899981 96.000001 -0.989025 -0.023180 -0.145921 0 0
  phy
    0 -61.000013 315.900037 96.000001 0.985063 -0.092349 -0.145336 0 0
    0 -0.000014 315.900037 96.000001 0.997018 -0.023367 0.073550 0 0
    0 -0.000014 324.899981 96.000001 -0.955261 -0.089555 0.281879 0 0
  phy
    0 -0.000014 315.900037 -96.000001 0.955261 0.089555 0.281879 0 0
    0 -0.000014 324.899981 96.000001 -0.955261 -0.089555 0.281879 0 0
    0 -0.000014 315.900037 96.000001 0.997018 -0.023367 0.073550 0 0
  phy
    0 -0.000014 315.900037 -96.000001 0.955261 0.089555 0.281879 0 0
    0 -0.000014 324.899981 -96.000001 -0.997018 0.023367 0.073550 0 0
    0 -0.000014 324.899981 96.000001 -0.955261 -0.089555 0.281879 0 0
  phy
    0 -132.000015 63.899981 -96.000001 0.023671 0.023425 -0.999445 0 0
    0 -132.000033 253.899999 -96.000001 -0.093907 0.092928 -0.991235 0 0
    0 -123.000004 63.899985 -96.000001 0.093906 0.092928 0.991235 0 0
  phy
    0 -123.000004 63.899985 -96.000001 0.093906 0.092928 0.991235 0 0
    0 -132.000033 253.899999 -96.000001 -0.093907 0.092928 -0.991235 0 0
    0 -123.000014 253.899999 -96.000001 -0.023671 0.023425 0.999445 0 0
  phy
    0 -132.000033 253.899999 -96.000001 -0.093907 0.092928 -0.991235 0 0
    0 -132.000015 63.899981 -96.000001 0.023671 0.023425 -0.999445 0 0
    0 -132.000033 253.899999 96.000001 -0.023671 -0.023425 -0.999445 0 0
  phy
    0 -132.000033 253.899999 96.000001 -0.023671 -0.023425 -0.999445 0 0
    0 -132.000015 63.899981 -96.000001 0.023671 0.023425 -0.999445 0 0
    0 -132.000015 63.899981 96.000001 0.093907 -0.092928 -0.991235 0 0
  phy
    0 -123.000004 63.899985 -96.000001 0.093906 0.092928 0.991235 0 0
    0 -132.000015 63.899981 96.000001 0.093907 -0.092928 -0.991235 0 0
    0 -132.000015 63.899981 -96.000001 0.023671 0.023425 -0.999445 0 0
  phy
    0 -123.000004 63.899985 -96.000001 0.093906 0.092928 0.991235 0 0
    0 -123.000004 63.899985 96.000001 0.023671 -0.023425 0.999445 0 0
    0 -132.000015 63.899981 96.000001 0.093907 -0.092928 -0.991235 0 0
  phy
    0 -123.000014 253.899999 -96.000001 -0.023671 0.023425 0.999445 0 0
    0 -132.000033 253.899999 -96.000001 -0.093907 0.092928 -0.991235 0 0
    0 -123.000014 253.899999 96.000001 -0.093907 -0.092928 0.991235 0 0
  phy
    0 -123.000014 253.899999 96.000001 -0.093907 -0.092928 0.991235 0 0
    0 -132.000033 253.899999 -96.000001 -0.093907 0.092928 -0.991235 0 0
    0 -132.000033 253.899999 96.000001 -0.023671 -0.023425 -0.999445 0 0
  phy
    0 -123.000014 253.899999 -96.000001 -0.023671 0.023425 0.999445 0 0
    0 -123.000004 63.899985 96.000001 0.023671 -0.023425 0.999445 0 0
    0 -123.000004 63.899985 -96.000001 0.093906 0.092928 0.991235 0 0
  phy
    0 -123.000014 253.899999 -96.000001 -0.023671 0.023425 0.999445 0 0
    0 -123.000014 253.899999 96.000001 -0.093907 -0.092928 0.991235 0 0
    0 -123.000004 63.899985 96.000001 0.023671 -0.023425 0.999445 0 0
  phy
    0 -123.000014 253.899999 96.000001 -0.093907 -0.092928 0.991235 0 0
    0 -132.000015 63.899981 96.000001 0.093907 -0.092928 -0.991235 0 0
    0 -123.000004 63.899985 96.000001 0.023671 -0.023425 0.999445 0 0
  phy
    0 -123.000014 253.899999 96.000001 -0.093907 -0.092928 0.991235 0 0
    0 -132.000033 253.899999 96.000001 -0.023671 -0.023425 -0.999445 0 0
    0 -132.000015 63.899981 96.000001 0.093907 -0.092928 -0.991235 0 0
  phy
    0 60.999985 315.900037 96.000001 0.989025 -0.023180 0.145921 0 0
    0 60.999985 324.899981 -96.000001 -0.989025 0.023180 0.145921 0 0
    0 60.999985 324.899981 96.000001 -0.985063 -0.092349 0.145336 0 0
  phy
    0 60.999985 315.900037 96.000001 0.989025 -0.023180 0.145921 0 0
    0 60.999985 315.900037 -96.000001 0.985063 0.092349 0.145336 0 0
    0 60.999985 324.899981 -96.000001 -0.989025 0.023180 0.145921 0 0
  phy
    0 60.999985 324.899981 96.000001 -0.985063 -0.092349 0.145336 0 0
    0 -0.000014 315.900037 96.000001 0.955261 -0.089555 -0.281879 0 0
    0 60.999985 315.900037 96.000001 0.989025 -0.023180 0.145921 0 0
  phy
    0 60.999985 324.899981 96.000001 -0.985063 -0.092349 0.145336 0 0
    0 -0.000014 324.899981 96.000001 -0.997018 -0.023367 -0.073550 0 0
    0 -0.000014 315.900037 96.000001 0.955261 -0.089555 -0.281879 0 0
  phy
    0 60.999985 315.900037 96.000001 0.989025 -0.023180 0.145921 0 0
    0 -0.000014 315.900037 -96.000001 0.997018 0.023367 -0.073550 0 0
    0 60.999985 315.900037 -96.000001 0.985063 0.092349 0.145336 0 0
  phy
    0 60.999985 315.900037 96.000001 0.989025 -0.023180 0.145921 0 0
    0 -0.000014 315.900037 96.000001 0.955261 -0.089555 -0.281879 0 0
    0 -0.000014 315.900037 -96.000001 0.997018 0.023367 -0.073550 0 0
  phy
    0 60.999985 324.899981 96.000001 -0.985063 -0.092349 0.145336 0 0
    0 60.999985 324.899981 -96.000001 -0.989025 0.023180 0.145921 0 0
    0 -0.000014 324.899981 96.000001 -0.997018 -0.023367 -0.073550 0 0
  phy
    0 -0.000014 324.899981 96.000001 -0.997018 -0.023367 -0.073550 0 0
    0 60.999985 324.899981 -96.000001 -0.989025 0.023180 0.145921 0 0
    0 -0.000014 324.899981 -96.000001 -0.955261 0.089555 -0.281879 0 0
  phy
    0 60.999985 324.899981 -96.000001 -0.989025 0.023180 0.145921 0 0
    0 60.999985 315.900037 -96.000001 0.985063 0.092349 0.145336 0 0
    0 -0.000014 324.899981 -96.000001 -0.955261 0.089555 -0.281879 0 0
  phy
    0 -0.000014 324.899981 -96.000001 -0.955261 0.089555 -0.281879 0 0
    0 60.999985 315.900037 -96.000001 0.985063 0.092349 0.145336 0 0
    0 -0.000014 315.900037 -96.000001 0.997018 0.023367 -0.073550 0 0
  phy
    0 -0.000014 324.899981 96.000001 -0.997018 -0.023367 -0.073550 0 0
    0 -0.000014 324.899981 -96.000001 -0.955261 0.089555 -0.281879 0 0
    0 -0.000014 315.900037 96.000001 0.955261 -0.089555 -0.281879 0 0
  phy
    0 -0.000014 315.900037 96.000001 0.955261 -0.089555 -0.281879 0 0
    0 -0.000014 324.899981 -96.000001 -0.955261 0.089555 -0.281879 0 0
    0 -0.000014 315.900037 -96.000001 0.997018 0.023367 -0.073550 0 0
  phy
    0 123.000004 253.899999 96.000001 -0.047109 -0.093237 -0.994529 0 0
    0 132.000005 63.900004 96.000001 0.047109 -0.093237 0.994529 0 0
    0 131.999996 253.899999 96.000001 -0.047302 -0.023405 0.998606 0 0
  phy
    0 123.000004 253.899999 96.000001 -0.047109 -0.093237 -0.994529 0 0
    0 123.000004 63.900000 96.000001 0.047302 -0.023405 -0.998606 0 0
    0 132.000005 63.900004 96.000001 0.047109 -0.093237 0.994529 0 0
  phy
    0 123.000004 253.899999 96.000001 -0.047109 -0.093237 -0.994529 0 0
    0 131.999996 253.899999 96.000001 -0.047302 -0.023405 0.998606 0 0
    0 123.000004 253.899999 -96.000001 -0.047264 0.046771 -0.997787 0 0
  phy
    0 123.000004 253.899999 -96.000001 -0.047264 0.046771 -0.997787 0 0
    0 131.999996 253.899999 96.000001 -0.047302 -0.023405 0.998606 0 0
    0 131.999996 253.899999 -96.000001 -0.047264 0.046771 0.997787 0 0
  phy
    0 131.999996 253.899999 96.000001 -0.047302 -0.023405 0.998606 0 0
    0 132.000005 63.900004 -96.000001 0.047264 0.046771 0.997787 0 0
    0 131.999996 253.899999 -96.000001 -0.047264 0.046771 0.997787 0 0
  phy
    0 131.999996 253.899999 96.000001 -0.047302 -0.023405 0.998606 0 0
    0 132.000005 63.900004 96.000001 0.047109 -0.093237 0.994529 0 0
    0 132.000005 63.900004 -96.000001 0.047264 0.046771 0.997787 0 0
  phy
    0 123.000004 253.899999 96.000001 -0.047109 -0.093237 -0.994529 0 0
    0 123.000004 253.899999 -96.000001 -0.047264 0.046771 -0.997787 0 0
    0 123.000004 63.900000 96.000001 0.047302 -0.023405 -0.998606 0 0
  phy
    0 123.000004 63.900000 96.000001 0.047302 -0.023405 -0.998606 0 0
    0 123.000004 253.899999 -96.000001 -0.047264 0.046771 -0.997787 0 0
    0 123.000004 63.900000 -96.000001 0.047264 0.046771 -0.997787 0 0
  phy
    0 123.000004 253.899999 -96.000001 -0.047264 0.046771 -0.997787 0 0
    0 131.999996 253.899999 -96.000001 -0.047264 0.046771 0.997787 0 0
    0 132.000005 63.900004 -96.000001 0.047264 0.046771 0.997787 0 0
  phy
    0 123.000004 253.899999 -96.000001 -0.047264 0.046771 -0.997787 0 0
    0 132.000005 63.900004 -96.000001 0.047264 0.046771 0.997787 0 0
    0 123.000004 63.900000 -96.000001 0.047264 0.046771 -0.997787 0 0
  phy
    0 132.000005 63.900004 -96.000001 0.047264 0.046771 0.997787 0 0
    0 123.000004 63.900000 96.000001 0.047302 -0.023405 -0.998606 0 0
    0 123.000004 63.900000 -96.000001 0.047264 0.046771 -0.997787 0 0
  phy
    0 132.000005 63.900004 -96.000001 0.047264 0.046771 0.997787 0 0
    0 132.000005 63.900004 96.000001 0.047109 -0.093237 0.994529 0 0
    0 123.000004 63.900000 96.000001 0.047302 -0.023405 -0.998606 0 0
  phy
    0 -123.000014 253.900017 -95.999992 0.762895 0.080976 0.641431 0 0
    0 -123.000014 253.900017 95.999992 0.764778 -0.040588 0.643014 0 0
    0 -130.535561 257.435521 -95.999992 -0.643403 0.020941 -0.765241 0 0
  phy
    0 -123.000014 253.900017 95.999992 0.764778 -0.040588 0.643014 0 0
    0 -130.535571 257.435540 96.000001 -0.642981 -0.041854 -0.764738 0 0
    0 -130.535561 257.435521 -95.999992 -0.643403 0.020941 -0.765241 0 0
  phy
    0 -61.000032 315.900037 -96.000001 0.675255 0.020039 0.737313 0 0
    0 -123.000014 253.900017 -95.999992 0.762895 0.080976 0.641431 0 0
    0 -64.535559 323.435491 -95.999992 -0.817592 0.082583 -0.569845 0 0
  phy
    0 -64.535559 323.435491 -95.999992 -0.817592 0.082583 -0.569845 0 0
    0 -123.000014 253.900017 -95.999992 0.762895 0.080976 0.641431 0 0
    0 -130.535561 257.435521 -95.999992 -0.643403 0.020941 -0.765241 0 0
  phy
    0 -61.000032 315.900037 -96.000001 0.675255 0.020039 0.737313 0 0
    0 -123.000014 253.900017 95.999992 0.764778 -0.040588 0.643014 0 0
    0 -123.000014 253.900017 -95.999992 0.762895 0.080976 0.641431 0 0
  phy
    0 -61.000032 315.900037 -96.000001 0.675255 0.020039 0.737313 0 0
    0 -61.000032 315.900037 96.000001 0.579972 -0.037747 0.813761 0 0
    0 -123.000014 253.900017 95.999992 0.764778 -0.040588 0.643014 0 0
  phy
    0 -64.535559 323.435491 -95.999992 -0.817592 0.082583 -0.569845 0 0
    0 -61.000032 315.900037 96.000001 0.579972 -0.037747 0.813761 0 0
    0 -61.000032 315.900037 -96.000001 0.675255 0.020039 0.737313 0 0
  phy
    0 -64.535559 323.435491 -95.999992 -0.817592 0.082583 -0.569845 0 0
    0 -64.535573 323.435528 96.000001 -0.735957 -0.040077 -0.675841 0 0
    0 -61.000032 315.900037 96.000001 0.579972 -0.037747 0.813761 0 0
  phy
    0 -64.535559 323.435491 -95.999992 -0.817592 0.082583 -0.569845 0 0
    0 -130.535561 257.435521 -95.999992 -0.643403 0.020941 -0.765241 0 0
    0 -64.535573 323.435528 96.000001 -0.735957 -0.040077 -0.675841 0 0
  phy
    0 -64.535573 323.435528 96.000001 -0.735957 -0.040077 -0.675841 0 0
    0 -130.535561 257.435521 -95.999992 -0.643403 0.020941 -0.765241 0 0
    0 -130.535571 257.435540 96.000001 -0.642981 -0.041854 -0.764738 0 0
  phy
    0 -130.535571 257.435540 96.000001 -0.642981 -0.041854 -0.764738 0 0
    0 -123.000014 253.900017 95.999992 0.764778 -0.040588 0.643014 0 0
    0 -64.535573 323.435528 96.000001 -0.735957 -0.040077 -0.675841 0 0
  phy
    0 -123.000014 253.900017 95.999992 0.764778 -0.040588 0.643014 0 0
    0 -61.000032 315.900037 96.000001 0.579972 -0.037747 0.813761 0 0
    0 -64.535573 323.435528 96.000001 -0.735957 -0.040077 -0.675841 0 0
  phy
    0 -63.999990 -0.000003 -96.000001 -0.035365 0.007807 0.999344 0 0
    0 -67.309995 8.759987 96.000001 -0.650624 -0.032706 0.758696 0 0
    0 -63.999999 -0.000003 96.000001 -0.035362 -0.015613 0.999253 0 0
  phy
    0 -63.999990 -0.000003 -96.000001 -0.035365 0.007807 0.999344 0 0
    0 -67.309995 8.759996 -96.000011 -0.693702 0.018945 0.720013 0 0
    0 -67.309995 8.759987 96.000001 -0.650624 -0.032706 0.758696 0 0
  phy
    0 -63.999999 -0.000003 96.000001 -0.035362 -0.015613 0.999253 0 0
    0 -67.309995 8.759987 96.000001 -0.650624 -0.032706 0.758696 0 0
    0 -66.999995 -0.000003 96.000001 0.867547 -0.031024 -0.496387 0 0
  phy
    0 -67.309995 8.759987 96.000001 -0.650624 -0.032706 0.758696 0 0
    0 -76.310015 8.759987 96.000001 0.713972 -0.053613 -0.698119 0 0
    0 -66.999995 -0.000003 96.000001 0.867547 -0.031024 -0.496387 0 0
  phy
    0 -67.309995 8.759987 96.000001 -0.650624 -0.032706 0.758696 0 0
    0 -122.999995 63.899990 95.999992 -0.736993 -0.031648 0.675159 0 0
    0 -76.310015 8.759987 96.000001 0.713972 -0.053613 -0.698119 0 0
  phy
    0 -122.999995 63.899990 95.999992 -0.736993 -0.031648 0.675159 0 0
    0 -131.999996 63.899985 95.999992 0.646105 -0.017884 -0.763039 0 0
    0 -76.310015 8.759987 96.000001 0.713972 -0.053613 -0.698119 0 0
  phy
    0 -63.999999 -0.000003 96.000001 -0.035362 -0.015613 0.999253 0 0
    0 -66.999995 -0.000003 96.000001 0.867547 -0.031024 -0.496387 0 0
    0 -63.999990 -0.000003 -96.000001 -0.035365 0.007807 0.999344 0 0
  phy
    0 -66.999995 -0.000003 96.000001 0.867547 -0.031024 -0.496387 0 0
    0 -66.999995 -0.000003 -96.000011 0.776778 0.019671 -0.629468 0 0
    0 -63.999990 -0.000003 -96.000001 -0.035365 0.007807 0.999344 0 0
  phy
    0 -76.310015 8.759987 -96.000114 0.711571 0.032899 -0.701843 0 0
    0 -131.999996 63.899985 -96.000001 0.645796 0.035750 -0.762673 0 0
    0 -122.999995 63.899990 -96.000001 -0.799405 0.056079 0.598170 0 0
  phy
    0 -76.310015 8.759987 -96.000114 0.711571 0.032899 -0.701843 0 0
    0 -122.999995 63.899990 -96.000001 -0.799405 0.056079 0.598170 0 0
    0 -67.309995 8.759996 -96.000011 -0.693702 0.018945 0.720013 0 0
  phy
    0 -76.310015 8.759987 -96.000114 0.711571 0.032899 -0.701843 0 0
    0 -67.309995 8.759996 -96.000011 -0.693702 0.018945 0.720013 0 0
    0 -66.999995 -0.000003 -96.000011 0.776778 0.019671 -0.629468 0 0
  phy
    0 -66.999995 -0.000003 -96.000011 0.776778 0.019671 -0.629468 0 0
    0 -67.309995 8.759996 -96.000011 -0.693702 0.018945 0.720013 0 0
    0 -63.999990 -0.000003 -96.000001 -0.035365 0.007807 0.999344 0 0
  phy
    0 -66.999995 -0.000003 -96.000011 0.776778 0.019671 -0.629468 0 0
    0 -76.310015 8.759987 96.000001 0.713972 -0.053613 -0.698119 0 0
    0 -76.310015 8.759987 -96.000114 0.711571 0.032899 -0.701843 0 0
  phy
    0 -66.999995 -0.000003 -96.000011 0.776778 0.019671 -0.629468 0 0
    0 -66.999995 -0.000003 96.000001 0.867547 -0.031024 -0.496387 0 0
    0 -76.310015 8.759987 96.000001 0.713972 -0.053613 -0.698119 0 0
  phy
    0 -131.999996 63.899985 -96.000001 0.645796 0.035750 -0.762673 0 0
    0 -131.999996 63.899985 95.999992 0.646105 -0.017884 -0.763039 0 0
    0 -122.999995 63.899990 -96.000001 -0.799405 0.056079 0.598170 0 0
  phy
    0 -122.999995 63.899990 -96.000001 -0.799405 0.056079 0.598170 0 0
    0 -131.999996 63.899985 95.999992 0.646105 -0.017884 -0.763039 0 0
    0 -122.999995 63.899990 95.999992 -0.736993 -0.031648 0.675159 0 0
  phy
    0 -76.310015 8.759987 -96.000114 0.711571 0.032899 -0.701843 0 0
    0 -131.999996 63.899985 95.999992 0.646105 -0.017884 -0.763039 0 0
    0 -131.999996 63.899985 -96.000001 0.645796 0.035750 -0.762673 0 0
  phy
    0 -76.310015 8.759987 -96.000114 0.711571 0.032899 -0.701843 0 0
    0 -76.310015 8.759987 96.000001 0.713972 -0.053613 -0.698119 0 0
    0 -131.999996 63.899985 95.999992 0.646105 -0.017884 -0.763039 0 0
  phy
    0 -122.999995 63.899990 -96.000001 -0.799405 0.056079 0.598170 0 0
    0 -122.999995 63.899990 95.999992 -0.736993 -0.031648 0.675159 0 0
    0 -67.309995 8.759996 -96.000011 -0.693702 0.018945 0.720013 0 0
  phy
    0 -67.309995 8.759996 -96.000011 -0.693702 0.018945 0.720013 0 0
    0 -122.999995 63.899990 95.999992 -0.736993 -0.031648 0.675159 0 0
    0 -67.309995 8.759987 96.000001 -0.650624 -0.032706 0.758696 0 0
  phy
    0 122.999995 253.899980 -96.000011 0.764778 0.040588 -0.643014 0 0
    0 60.999985 315.899999 -96.000001 0.643047 0.039322 -0.764817 0 0
    0 64.535531 323.435528 -96.000011 -0.764778 0.040588 0.643014 0 0
  phy
    0 122.999995 253.899980 -96.000011 0.764778 0.040588 -0.643014 0 0
    0 64.535531 323.435528 -96.000011 -0.764778 0.040588 0.643014 0 0
    0 130.535533 257.435521 -96.000011 -0.642980 0.041854 0.764738 0 0
  phy
    0 60.999985 315.899999 -96.000001 0.643047 0.039322 -0.764817 0 0
    0 122.999995 253.899980 -96.000011 0.764778 0.040588 -0.643014 0 0
    0 60.999985 315.899999 96.000001 0.643420 -0.019672 -0.765261 0 0
  phy
    0 60.999985 315.899999 96.000001 0.643420 -0.019672 -0.765261 0 0
    0 122.999995 253.899980 -96.000011 0.764778 0.040588 -0.643014 0 0
    0 122.999995 253.899980 96.000011 0.762895 -0.080976 -0.641431 0 0
  phy
    0 60.999985 315.899999 -96.000001 0.643047 0.039322 -0.764817 0 0
    0 60.999985 315.899999 96.000001 0.643420 -0.019672 -0.765261 0 0
    0 64.535531 323.435528 -96.000011 -0.764778 0.040588 0.643014 0 0
  phy
    0 64.535531 323.435528 -96.000011 -0.764778 0.040588 0.643014 0 0
    0 60.999985 315.899999 96.000001 0.643420 -0.019672 -0.765261 0 0
    0 64.535531 323.435528 96.000011 -0.762895 -0.080976 0.641431 0 0
  phy
    0 122.999995 253.899980 -96.000011 0.764778 0.040588 -0.643014 0 0
    0 130.535533 257.435521 96.000011 -0.643403 -0.020941 0.765241 0 0
    0 122.999995 253.899980 96.000011 0.762895 -0.080976 -0.641431 0 0
  phy
    0 122.999995 253.899980 -96.000011 0.764778 0.040588 -0.643014 0 0
    0 130.535533 257.435521 -96.000011 -0.642980 0.041854 0.764738 0 0
    0 130.535533 257.435521 96.000011 -0.643403 -0.020941 0.765241 0 0
  phy
    0 122.999995 253.899980 96.000011 0.762895 -0.080976 -0.641431 0 0
    0 64.535531 323.435528 96.000011 -0.762895 -0.080976 0.641431 0 0
    0 60.999985 315.899999 96.000001 0.643420 -0.019672 -0.765261 0 0
  phy
    0 122.999995 253.899980 96.000011 0.762895 -0.080976 -0.641431 0 0
    0 130.535533 257.435521 96.000011 -0.643403 -0.020941 0.765241 0 0
    0 64.535531 323.435528 96.000011 -0.762895 -0.080976 0.641431 0 0
  phy
    0 130.535533 257.435521 96.000011 -0.643403 -0.020941 0.765241 0 0
    0 64.535531 323.435528 -96.000011 -0.764778 0.040588 0.643014 0 0
    0 64.535531 323.435528 96.000011 -0.762895 -0.080976 0.641431 0 0
  phy
    0 130.535533 257.435521 96.000011 -0.643403 -0.020941 0.765241 0 0
    0 130.535533 257.435521 -96.000011 -0.642980 0.041854 0.764738 0 0
    0 64.535531 323.435528 -96.000011 -0.764778 0.040588 0.643014 0 0
  phy
    0 63.999990 0.000003 96.000001 -0.202341 -0.007651 -0.979285 0 0
    0 63.999990 0.000003 -96.000001 0.293517 0.014935 -0.955837 0 0
    0 67.000000 0.000003 96.000011 0.814625 -0.018116 0.579705 0 0
  phy
    0 63.999990 0.000003 -96.000001 0.293517 0.014935 -0.955837 0 0
    0 67.000000 0.000003 -96.000011 0.814224 0.036213 0.579420 0 0
    0 67.000000 0.000003 96.000011 0.814625 -0.018116 0.579705 0 0
  phy
    0 67.000000 0.000003 96.000011 0.814625 -0.018116 0.579705 0 0
    0 76.309865 8.759987 -95.999889 0.712781 0.030595 0.700719 0 0
    0 76.309865 8.759987 95.999889 0.711783 -0.061103 0.699737 0 0
  phy
    0 67.000000 0.000003 96.000011 0.814625 -0.018116 0.579705 0 0
    0 67.000000 0.000003 -96.000011 0.814224 0.036213 0.579420 0 0
    0 76.309865 8.759987 -95.999889 0.712781 0.030595 0.700719 0 0
  phy
    0 76.309865 8.759987 95.999889 0.711783 -0.061103 0.699737 0 0
    0 67.310000 8.760005 96.000011 -0.693702 -0.018945 -0.720013 0 0
    0 67.000000 0.000003 96.000011 0.814625 -0.018116 0.579705 0 0
  phy
    0 76.309865 8.759987 95.999889 0.711783 -0.061103 0.699737 0 0
    0 122.999995 63.899995 96.000011 -0.759644 -0.060703 -0.647500 0 0
    0 67.310000 8.760005 96.000011 -0.693702 -0.018945 -0.720013 0 0
  phy
    0 76.309865 8.759987 95.999889 0.711783 -0.061103 0.699737 0 0
    0 131.999996 63.900000 96.000011 0.646107 -0.017884 0.763038 0 0
    0 122.999995 63.899995 96.000011 -0.759644 -0.060703 -0.647500 0 0
  phy
    0 67.310000 8.760005 96.000011 -0.693702 -0.018945 -0.720013 0 0
    0 63.999990 0.000003 96.000001 -0.202341 -0.007651 -0.979285 0 0
    0 67.000000 0.000003 96.000011 0.814625 -0.018116 0.579705 0 0
  phy
    0 63.999990 0.000003 -96.000001 0.293517 0.014935 -0.955837 0 0
    0 63.999990 0.000003 96.000001 -0.202341 -0.007651 -0.979285 0 0
    0 67.310000 8.760005 -96.000011 -0.650624 0.032705 -0.758696 0 0
  phy
    0 67.310000 8.760005 -96.000011 -0.650624 0.032705 -0.758696 0 0
    0 63.999990 0.000003 96.000001 -0.202341 -0.007651 -0.979285 0 0
    0 67.310000 8.760005 96.000011 -0.693702 -0.018945 -0.720013 0 0
  phy
    0 131.999996 63.900000 -96.000011 0.645797 0.035750 0.762672 0 0
    0 76.309865 8.759987 -95.999889 0.712781 0.030595 0.700719 0 0
    0 122.999995 63.899995 -96.000011 -0.760696 0.030393 -0.648396 0 0
  phy
    0 122.999995 63.899995 -96.000011 -0.760696 0.030393 -0.648396 0 0
    0 76.309865 8.759987 -95.999889 0.712781 0.030595 0.700719 0 0
    0 67.310000 8.760005 -96.000011 -0.650624 0.032705 -0.758696 0 0
  phy
    0 67.310000 8.760005 -96.000011 -0.650624 0.032705 -0.758696 0 0
    0 76.309865 8.759987 -95.999889 0.712781 0.030595 0.700719 0 0
    0 67.000000 0.000003 -96.000011 0.814224 0.036213 0.579420 0 0
  phy
    0 67.310000 8.760005 -96.000011 -0.650624 0.032705 -0.758696 0 0
    0 67.000000 0.000003 -96.000011 0.814224 0.036213 0.579420 0 0
    0 63.999990 0.000003 -96.000001 0.293517 0.014935 -0.955837 0 0
  phy
    0 76.309865 8.759987 -95.999889 0.712781 0.030595 0.700719 0 0
    0 131.999996 63.900000 96.000011 0.646107 -0.017884 0.763038 0 0
    0 76.309865 8.759987 95.999889 0.711783 -0.061103 0.699737 0 0
  phy
    0 76.309865 8.759987 -95.999889 0.712781 0.030595 0.700719 0 0
    0 131.999996 63.900000 -96.000011 0.645797 0.035750 0.762672 0 0
    0 131.999996 63.900000 96.000011 0.646107 -0.017884 0.763038 0 0
  phy
    0 67.310000 8.760005 -96.000011 -0.650624 0.032705 -0.758696 0 0
    0 67.310000 8.760005 96.000011 -0.693702 -0.018945 -0.720013 0 0
    0 122.999995 63.899995 -96.000011 -0.760696 0.030393 -0.648396 0 0
  phy
    0 122.999995 63.899995 -96.000011 -0.760696 0.030393 -0.648396 0 0
    0 67.310000 8.760005 96.000011 -0.693702 -0.018945 -0.720013 0 0
    0 122.999995 63.899995 96.000011 -0.759644 -0.060703 -0.647500 0 0
  phy
    0 122.999995 63.899995 96.000011 -0.759644 -0.060703 -0.647500 0 0
    0 131.999996 63.900000 96.000011 0.646107 -0.017884 0.763038 0 0
    0 122.999995 63.899995 -96.000011 -0.760696 0.030393 -0.648396 0 0
  phy
    0 122.999995 63.899995 -96.000011 -0.760696 0.030393 -0.648396 0 0
    0 131.999996 63.900000 96.000011 0.646107 -0.017884 0.763038 0 0
    0 131.999996 63.900000 -96.000011 0.645797 0.035750 0.762672 0 0
end
