// Created by Crowbar 0.74
version 1
nodes
  0 "static_prop" -1
end
skeleton
  time 0
    0 0.000000 0.000000 0.000000 0.000000 0.000000 0.000000
end
triangles
  phy
    0 -90.493208 106.291865 62.863447 0.153503 0.768187 0.621551 0 0
    0 -90.493208 180.252912 96.689913 -0.231929 -0.253554 0.939106 0 0
    0 -90.493208 106.291865 96.689913 0.092225 -0.923062 0.373431 0 0
  phy
    0 -90.493208 106.291865 62.863447 0.153503 0.768187 0.621551 0 0
    0 -90.493208 180.252931 62.863451 -0.212353 0.464306 0.859841 0 0
    0 -90.493208 180.252912 96.689913 -0.231929 -0.253554 0.939106 0 0
  phy
    0 -90.493208 180.252912 96.689913 -0.231929 -0.253554 0.939106 0 0
    0 -132.300018 275.572379 96.689923 -0.069191 -0.692514 -0.718078 0 0
    0 -90.493208 106.291865 96.689913 0.092225 -0.923062 0.373431 0 0
  phy
    0 -132.300018 275.572379 96.689923 -0.069191 -0.692514 -0.718078 0 0
    0 -132.300000 10.972388 96.689923 0.241971 -0.946382 -0.214037 0 0
    0 -90.493208 106.291865 96.689913 0.092225 -0.923062 0.373431 0 0
  phy
    0 -90.493208 106.291865 96.689913 0.092225 -0.923062 0.373431 0 0
    0 -132.300000 10.972388 96.689923 0.241971 -0.946382 -0.214037 0 0
    0 -90.493208 106.291865 62.863447 0.153503 0.768187 0.621551 0 0
  phy
    0 -90.493208 180.252912 96.689913 -0.231929 -0.253554 0.939106 0 0
    0 -132.300018 275.572398 62.863456 -0.193072 0.966207 -0.170784 0 0
    0 -132.300018 275.572379 96.689923 -0.069191 -0.692514 -0.718078 0 0
  phy
    0 -90.493208 180.252931 62.863451 -0.212353 0.464306 0.859841 0 0
    0 -132.300018 275.572398 62.863456 -0.193072 0.966207 -0.170784 0 0
    0 -90.493208 180.252912 96.689913 -0.231929 -0.253554 0.939106 0 0
  phy
    0 -90.493208 180.252931 62.863451 -0.212353 0.464306 0.859841 0 0
    0 -90.493208 106.291865 62.863447 0.153503 0.768187 0.621551 0 0
    0 -132.300018 275.572398 62.863456 -0.193072 0.966207 -0.170784 0 0
  phy
    0 -90.493208 106.291865 62.863447 0.153503 0.768187 0.621551 0 0
    0 -132.300000 10.972389 62.863437 0.076720 0.600125 -0.796218 0 0
    0 -132.300018 275.572398 62.863456 -0.193072 0.966207 -0.170784 0 0
  phy
    0 -90.493208 106.291865 62.863447 0.153503 0.768187 0.621551 0 0
    0 -132.300000 10.972388 96.689923 0.241971 -0.946382 -0.214037 0 0
    0 -132.300000 10.972389 62.863437 0.076720 0.600125 -0.796218 0 0
  phy
    0 -132.300018 275.572379 96.689923 -0.069191 -0.692514 -0.718078 0 0
    0 -132.300000 10.972389 62.863437 0.076720 0.600125 -0.796218 0 0
    0 -132.300000 10.972388 96.689923 0.241971 -0.946382 -0.214037 0 0
  phy
    0 -132.300000 10.972389 62.863437 0.076720 0.600125 -0.796218 0 0
    0 -132.300018 275.572379 96.689923 -0.069191 -0.692514 -0.718078 0 0
    0 -132.300018 275.572398 62.863456 -0.193072 0.966207 -0.170784 0 0
  phy
    0 34.271164 225.673698 -95.945015 0.028052 0.928295 -0.370785 0 0
    0 82.425142 177.519152 -95.945015 0.255182 0.963276 0.083553 0 0
    0 87.314769 179.552131 -79.126030 0.441182 -0.886400 0.140189 0 0
  phy
    0 34.271164 225.673698 -95.945015 0.028052 0.928295 -0.370785 0 0
    0 87.314769 179.552131 -79.126030 0.441182 -0.886400 0.140189 0 0
    0 36.304204 230.563306 -79.126030 -0.339424 -0.894932 -0.289635 0 0
  phy
    0 87.314769 179.552131 -79.126030 0.441182 -0.886400 0.140189 0 0
    0 124.214540 255.989784 -78.333935 -0.147130 -0.978113 0.147132 0 0
    0 36.304204 230.563306 -79.126030 -0.339424 -0.894932 -0.289635 0 0
  phy
    0 87.314769 179.552131 -79.126030 0.441182 -0.886400 0.140189 0 0
    0 124.214540 255.989784 -96.174572 -0.247416 0.936786 0.247419 0 0
    0 124.214540 255.989784 -78.333935 -0.147130 -0.978113 0.147132 0 0
  phy
    0 82.425142 177.519152 -95.945015 0.255182 0.963276 0.083553 0 0
    0 124.214540 255.989784 -96.174572 -0.247416 0.936786 0.247419 0 0
    0 87.314769 179.552131 -79.126030 0.441182 -0.886400 0.140189 0 0
  phy
    0 34.271164 225.673698 -95.945015 0.028052 0.928295 -0.370785 0 0
    0 36.304204 230.563306 -79.126030 -0.339424 -0.894932 -0.289635 0 0
    0 124.214540 255.989784 -96.174572 -0.247416 0.936786 0.247419 0 0
  phy
    0 82.425142 177.519152 -95.945015 0.255182 0.963276 0.083553 0 0
    0 34.271164 225.673698 -95.945015 0.028052 0.928295 -0.370785 0 0
    0 124.214540 255.989784 -96.174572 -0.247416 0.936786 0.247419 0 0
  phy
    0 36.304204 230.563306 -79.126030 -0.339424 -0.894932 -0.289635 0 0
    0 124.214540 255.989784 -78.333935 -0.147130 -0.978113 0.147132 0 0
    0 124.214540 255.989784 -96.174572 -0.247416 0.936786 0.247419 0 0
  phy
    0 -34.271216 225.673679 -95.945015 -0.114888 0.968473 0.221046 0 0
    0 -36.304262 230.563269 -79.126030 -0.202243 -0.896757 0.393606 0 0
    0 -82.424616 177.520654 -95.945015 0.402776 0.913289 0.060619 0 0
  phy
    0 -36.304262 230.563269 -79.126030 -0.202243 -0.896757 0.393606 0 0
    0 -87.314206 179.553727 -79.126030 0.347366 -0.896694 -0.274366 0 0
    0 -82.424616 177.520654 -95.945015 0.402776 0.913289 0.060619 0 0
  phy
    0 -36.304262 230.563269 -79.126030 -0.202243 -0.896757 0.393606 0 0
    0 -124.214550 255.989766 -78.333935 -0.147132 -0.978113 -0.147131 0 0
    0 -87.314206 179.553727 -79.126030 0.347366 -0.896694 -0.274366 0 0
  phy
    0 -87.314206 179.553727 -79.126030 0.347366 -0.896694 -0.274366 0 0
    0 -124.214550 255.989766 -78.333935 -0.147132 -0.978113 -0.147131 0 0
    0 -124.214550 255.989766 -96.174572 -0.247420 0.936786 -0.247418 0 0
  phy
    0 -82.424616 177.520654 -95.945015 0.402776 0.913289 0.060619 0 0
    0 -87.314206 179.553727 -79.126030 0.347366 -0.896694 -0.274366 0 0
    0 -124.214550 255.989766 -96.174572 -0.247420 0.936786 -0.247418 0 0
  phy
    0 -36.304262 230.563269 -79.126030 -0.202243 -0.896757 0.393606 0 0
    0 -34.271216 225.673679 -95.945015 -0.114888 0.968473 0.221046 0 0
    0 -124.214550 255.989766 -96.174572 -0.247420 0.936786 -0.247418 0 0
  phy
    0 -34.271216 225.673679 -95.945015 -0.114888 0.968473 0.221046 0 0
    0 -82.424616 177.520654 -95.945015 0.402776 0.913289 0.060619 0 0
    0 -124.214550 255.989766 -96.174572 -0.247420 0.936786 -0.247418 0 0
  phy
    0 -124.214550 255.989766 -78.333935 -0.147132 -0.978113 -0.147131 0 0
    0 -36.304262 230.563269 -79.126030 -0.202243 -0.896757 0.393606 0 0
    0 -124.214550 255.989766 -96.174572 -0.247420 0.936786 -0.247418 0 0
  phy
    0 36.303490 55.934421 -79.126039 0.202067 -0.896736 -0.393744 0 0
    0 124.214540 30.416170 -78.333945 0.147016 -0.978147 0.147017 0 0
    0 87.314609 106.945901 -79.126030 -0.347106 -0.896707 0.274654 0 0
  phy
    0 36.303490 55.934421 -79.126039 0.202067 -0.896736 -0.393744 0 0
    0 87.314609 106.945901 -79.126030 -0.347106 -0.896707 0.274654 0 0
    0 82.424992 108.978880 -95.945015 -0.402470 0.913444 -0.060317 0 0
  phy
    0 124.214540 30.416170 -78.333945 0.147016 -0.978147 0.147017 0 0
    0 124.214540 30.416170 -96.174582 0.247259 0.936870 0.247261 0 0
    0 87.314609 106.945901 -79.126030 -0.347106 -0.896707 0.274654 0 0
  phy
    0 124.214540 30.416170 -96.174582 0.247259 0.936870 0.247261 0 0
    0 82.424992 108.978880 -95.945015 -0.402470 0.913444 -0.060317 0 0
    0 87.314609 106.945901 -79.126030 -0.347106 -0.896707 0.274654 0 0
  phy
    0 34.270493 60.824038 -95.945024 0.114798 0.968463 -0.221136 0 0
    0 124.214540 30.416170 -96.174582 0.247259 0.936870 0.247261 0 0
    0 36.303490 55.934421 -79.126039 0.202067 -0.896736 -0.393744 0 0
  phy
    0 34.270493 60.824038 -95.945024 0.114798 0.968463 -0.221136 0 0
    0 36.303490 55.934421 -79.126039 0.202067 -0.896736 -0.393744 0 0
    0 82.424992 108.978880 -95.945015 -0.402470 0.913444 -0.060317 0 0
  phy
    0 124.214540 30.416170 -96.174582 0.247259 0.936870 0.247261 0 0
    0 34.270493 60.824038 -95.945024 0.114798 0.968463 -0.221136 0 0
    0 82.424992 108.978880 -95.945015 -0.402470 0.913444 -0.060317 0 0
  phy
    0 36.303490 55.934421 -79.126039 0.202067 -0.896736 -0.393744 0 0
    0 124.214540 30.416170 -96.174582 0.247259 0.936870 0.247261 0 0
    0 124.214540 30.416170 -78.333945 0.147016 -0.978147 0.147017 0 0
  phy
    0 -87.314882 106.945864 -79.126030 -0.347106 -0.896706 -0.274655 0 0
    0 -124.214540 30.416159 -78.333945 0.147016 -0.978147 -0.147017 0 0
    0 -36.303718 55.934515 -79.126039 0.202066 -0.896736 0.393745 0 0
  phy
    0 -36.303718 55.934515 -79.126039 0.202066 -0.896736 0.393745 0 0
    0 -82.425245 108.978842 -95.945015 -0.402471 0.913444 0.060317 0 0
    0 -87.314882 106.945864 -79.126030 -0.347106 -0.896706 -0.274655 0 0
  phy
    0 -87.314882 106.945864 -79.126030 -0.347106 -0.896706 -0.274655 0 0
    0 -124.214540 30.416159 -96.174582 0.247260 0.936870 -0.247261 0 0
    0 -124.214540 30.416159 -78.333945 0.147016 -0.978147 -0.147017 0 0
  phy
    0 -124.214540 30.416159 -96.174582 0.247260 0.936870 -0.247261 0 0
    0 -87.314882 106.945864 -79.126030 -0.347106 -0.896706 -0.274655 0 0
    0 -82.425245 108.978842 -95.945015 -0.402471 0.913444 0.060317 0 0
  phy
    0 -36.303718 55.934515 -79.126039 0.202066 -0.896736 0.393745 0 0
    0 -124.214540 30.416159 -96.174582 0.247260 0.936870 -0.247261 0 0
    0 -34.270709 60.824128 -95.945024 0.114798 0.968463 0.221137 0 0
  phy
    0 -34.270709 60.824128 -95.945024 0.114798 0.968463 0.221137 0 0
    0 -82.425245 108.978842 -95.945015 -0.402471 0.913444 0.060317 0 0
    0 -36.303718 55.934515 -79.126039 0.202066 -0.896736 0.393745 0 0
  phy
    0 -34.270709 60.824128 -95.945024 0.114798 0.968463 0.221137 0 0
    0 -124.214540 30.416159 -96.174582 0.247260 0.936870 -0.247261 0 0
    0 -82.425245 108.978842 -95.945015 -0.402471 0.913444 0.060317 0 0
  phy
    0 -36.303718 55.934515 -79.126039 0.202066 -0.896736 0.393745 0 0
    0 -124.214540 30.416159 -78.333945 0.147016 -0.978147 -0.147017 0 0
    0 -124.214540 30.416159 -96.174582 0.247260 0.936870 -0.247261 0 0
  phy
    0 -82.425255 108.978833 -95.945015 0.292479 0.478756 0.827797 0 0
    0 -87.314882 106.945864 -79.126030 0.117283 -0.697596 0.706827 0 0
    0 -124.214540 30.416159 -78.333945 0.119113 -0.988203 -0.096270 0 0
  phy
    0 -124.214540 30.416159 -78.333945 0.119113 -0.988203 -0.096270 0 0
    0 -124.214540 30.416159 -96.174582 0.053401 0.880366 -0.471279 0 0
    0 -82.425255 108.978833 -95.945015 0.292479 0.478756 0.827797 0 0
  phy
    0 -82.425255 108.978833 -95.945015 0.292479 0.478756 0.827797 0 0
    0 -82.424616 177.520654 -95.945015 -0.109119 0.905289 0.410543 0 0
    0 -87.314882 106.945864 -79.126030 0.117283 -0.697596 0.706827 0 0
  phy
    0 -82.424616 177.520654 -95.945015 -0.109119 0.905289 0.410543 0 0
    0 -82.425255 108.978833 -95.945015 0.292479 0.478756 0.827797 0 0
    0 -124.214540 30.416159 -96.174582 0.053401 0.880366 -0.471279 0 0
  phy
    0 -124.214540 30.416159 -78.333945 0.119113 -0.988203 -0.096270 0 0
    0 -87.314882 106.945864 -79.126030 0.117283 -0.697596 0.706827 0 0
    0 -87.314206 179.553727 -79.126030 -0.051436 -0.972155 0.228626 0 0
  phy
    0 -87.314206 179.553727 -79.126030 -0.051436 -0.972155 0.228626 0 0
    0 -124.214644 255.989935 -78.333898 -0.134168 -0.849188 -0.510763 0 0
    0 -124.214540 30.416159 -78.333945 0.119113 -0.988203 -0.096270 0 0
  phy
    0 -87.314882 106.945864 -79.126030 0.117283 -0.697596 0.706827 0 0
    0 -82.424616 177.520654 -95.945015 -0.109119 0.905289 0.410543 0 0
    0 -87.314206 179.553727 -79.126030 -0.051436 -0.972155 0.228626 0 0
  phy
    0 -82.424616 177.520654 -95.945015 -0.109119 0.905289 0.410543 0 0
    0 -124.214644 255.989935 -78.333898 -0.134168 -0.849188 -0.510763 0 0
    0 -87.314206 179.553727 -79.126030 -0.051436 -0.972155 0.228626 0 0
  phy
    0 -124.214540 30.416159 -96.174582 0.053401 0.880366 -0.471279 0 0
    0 -124.214540 30.416159 -78.333945 0.119113 -0.988203 -0.096270 0 0
    0 -124.214644 255.989935 -78.333898 -0.134168 -0.849188 -0.510763 0 0
  phy
    0 -124.214550 255.989766 -96.174591 -0.076079 0.961923 -0.262520 0 0
    0 -82.424616 177.520654 -95.945015 -0.109119 0.905289 0.410543 0 0
    0 -124.214540 30.416159 -96.174582 0.053401 0.880366 -0.471279 0 0
  phy
    0 -124.214550 255.989766 -96.174591 -0.076079 0.961923 -0.262520 0 0
    0 -124.214644 255.989935 -78.333898 -0.134168 -0.849188 -0.510763 0 0
    0 -82.424616 177.520654 -95.945015 -0.109119 0.905289 0.410543 0 0
  phy
    0 -124.214550 255.989766 -96.174591 -0.076079 0.961923 -0.262520 0 0
    0 -124.214540 30.416159 -96.174582 0.053401 0.880366 -0.471279 0 0
    0 -124.214644 255.989935 -78.333898 -0.134168 -0.849188 -0.510763 0 0
  phy
    0 -36.304316 230.563288 -79.126030 0.314667 -0.948127 -0.045165 0 0
    0 -34.271216 225.673679 -95.945015 0.968942 0.178797 -0.170830 0 0
    0 36.304204 230.563306 -79.126030 0.798645 -0.595540 0.086593 0 0
  phy
    0 36.304204 230.563306 -79.126030 0.798645 -0.595540 0.086593 0 0
    0 -34.271216 225.673679 -95.945015 0.968942 0.178797 -0.170830 0 0
    0 34.271164 225.673698 -95.945015 0.433717 0.895798 0.097135 0 0
  phy
    0 36.304204 230.563306 -79.126030 0.798645 -0.595540 0.086593 0 0
    0 124.214540 255.989784 -78.333935 -0.126515 -0.985698 0.111326 0 0
    0 -36.304316 230.563288 -79.126030 0.314667 -0.948127 -0.045165 0 0
  phy
    0 34.271164 225.673698 -95.945015 0.433717 0.895798 0.097135 0 0
    0 124.214540 255.989784 -78.333935 -0.126515 -0.985698 0.111326 0 0
    0 36.304204 230.563306 -79.126030 0.798645 -0.595540 0.086593 0 0
  phy
    0 -124.214568 255.989766 -78.333931 -0.636764 -0.763177 -0.109963 0 0
    0 -34.271216 225.673679 -95.945015 0.968942 0.178797 -0.170830 0 0
    0 -36.304316 230.563288 -79.126030 0.314667 -0.948127 -0.045165 0 0
  phy
    0 -36.304316 230.563288 -79.126030 0.314667 -0.948127 -0.045165 0 0
    0 124.214540 255.989784 -78.333935 -0.126515 -0.985698 0.111326 0 0
    0 -124.214568 255.989766 -78.333931 -0.636764 -0.763177 -0.109963 0 0
  phy
    0 34.271164 225.673698 -95.945015 0.433717 0.895798 0.097135 0 0
    0 -124.214550 255.989766 -96.174572 -0.275169 0.959877 -0.054026 0 0
    0 124.214540 255.989784 -96.174572 -0.690226 0.721735 0.051831 0 0
  phy
    0 -124.214550 255.989766 -96.174572 -0.275169 0.959877 -0.054026 0 0
    0 34.271164 225.673698 -95.945015 0.433717 0.895798 0.097135 0 0
    0 -34.271216 225.673679 -95.945015 0.968942 0.178797 -0.170830 0 0
  phy
    0 124.214540 255.989784 -96.174572 -0.690226 0.721735 0.051831 0 0
    0 124.214540 255.989784 -78.333935 -0.126515 -0.985698 0.111326 0 0
    0 34.271164 225.673698 -95.945015 0.433717 0.895798 0.097135 0 0
  phy
    0 -124.214550 255.989766 -96.174572 -0.275169 0.959877 -0.054026 0 0
    0 -124.214568 255.989766 -78.333931 -0.636764 -0.763177 -0.109963 0 0
    0 124.214540 255.989784 -96.174572 -0.690226 0.721735 0.051831 0 0
  phy
    0 -124.214550 255.989766 -96.174572 -0.275169 0.959877 -0.054026 0 0
    0 -34.271216 225.673679 -95.945015 0.968942 0.178797 -0.170830 0 0
    0 -124.214568 255.989766 -78.333931 -0.636764 -0.763177 -0.109963 0 0
  phy
    0 124.214540 255.989784 -96.174572 -0.690226 0.721735 0.051831 0 0
    0 -124.214568 255.989766 -78.333931 -0.636764 -0.763177 -0.109963 0 0
    0 124.214540 255.989784 -78.333935 -0.126515 -0.985698 0.111326 0 0
  phy
    0 87.314609 106.945901 -79.126030 0.145098 -0.784227 -0.603270 0 0
    0 87.314769 179.552131 -79.126030 -0.048858 -0.949972 -0.308490 0 0
    0 82.424992 108.978870 -95.945015 0.244103 0.335962 -0.909694 0 0
  phy
    0 87.314609 106.945901 -79.126030 0.145098 -0.784227 -0.603270 0 0
    0 124.214540 30.416180 -78.333926 0.109120 -0.905287 0.410546 0 0
    0 87.314769 179.552131 -79.126030 -0.048858 -0.949972 -0.308490 0 0
  phy
    0 87.314609 106.945901 -79.126030 0.145098 -0.784227 -0.603270 0 0
    0 82.424992 108.978870 -95.945015 0.244103 0.335962 -0.909694 0 0
    0 124.214540 30.416180 -78.333926 0.109120 -0.905287 0.410546 0 0
  phy
    0 124.214540 255.989784 -78.333935 -0.154696 -0.979115 0.131922 0 0
    0 82.425142 177.519152 -95.945015 -0.110141 0.942460 -0.315656 0 0
    0 87.314769 179.552131 -79.126030 -0.048858 -0.949972 -0.308490 0 0
  phy
    0 82.425142 177.519152 -95.945015 -0.110141 0.942460 -0.315656 0 0
    0 124.214540 255.989784 -78.333935 -0.154696 -0.979115 0.131922 0 0
    0 124.214540 255.989784 -96.174582 -0.064663 0.817583 0.572169 0 0
  phy
    0 87.314769 179.552131 -79.126030 -0.048858 -0.949972 -0.308490 0 0
    0 124.214540 30.416180 -78.333926 0.109120 -0.905287 0.410546 0 0
    0 124.214540 255.989784 -78.333935 -0.154696 -0.979115 0.131922 0 0
  phy
    0 124.214540 30.416180 -78.333926 0.109120 -0.905287 0.410546 0 0
    0 124.214540 255.989784 -96.174582 -0.064663 0.817583 0.572169 0 0
    0 124.214540 255.989784 -78.333935 -0.154696 -0.979115 0.131922 0 0
  phy
    0 87.314769 179.552131 -79.126030 -0.048858 -0.949972 -0.308490 0 0
    0 82.425142 177.519152 -95.945015 -0.110141 0.942460 -0.315656 0 0
    0 82.424992 108.978870 -95.945015 0.244103 0.335962 -0.909694 0 0
  phy
    0 82.424992 108.978870 -95.945015 0.244103 0.335962 -0.909694 0 0
    0 82.425142 177.519152 -95.945015 -0.110141 0.942460 -0.315656 0 0
    0 124.214540 30.416170 -96.174582 0.059285 0.977343 0.203188 0 0
  phy
    0 124.214540 30.416170 -96.174582 0.059285 0.977343 0.203188 0 0
    0 82.425142 177.519152 -95.945015 -0.110141 0.942460 -0.315656 0 0
    0 124.214540 255.989784 -96.174582 -0.064663 0.817583 0.572169 0 0
  phy
    0 124.214540 30.416180 -78.333926 0.109120 -0.905287 0.410546 0 0
    0 82.424992 108.978870 -95.945015 0.244103 0.335962 -0.909694 0 0
    0 124.214540 30.416170 -96.174582 0.059285 0.977343 0.203188 0 0
  phy
    0 124.214540 30.416170 -96.174582 0.059285 0.977343 0.203188 0 0
    0 124.214540 255.989784 -96.174582 -0.064663 0.817583 0.572169 0 0
    0 124.214540 30.416180 -78.333926 0.109120 -0.905287 0.410546 0 0
  phy
    0 36.303490 55.934421 -79.126039 -0.724649 -0.679981 0.111845 0 0
    0 34.270491 60.824038 -95.945024 -0.968650 0.179883 0.171343 0 0
    0 -36.303718 55.934515 -79.126039 -0.404914 -0.913392 -0.041951 0 0
  phy
    0 34.270491 60.824038 -95.945024 -0.968650 0.179883 0.171343 0 0
    0 36.303490 55.934421 -79.126039 -0.724649 -0.679981 0.111845 0 0
    0 124.214540 30.416170 -78.333945 0.539643 -0.836577 0.094472 0 0
  phy
    0 -36.303718 55.934515 -79.126039 -0.404914 -0.913392 -0.041951 0 0
    0 124.214540 30.416170 -78.333945 0.539643 -0.836577 0.094472 0 0
    0 36.303490 55.934421 -79.126039 -0.724649 -0.679981 0.111845 0 0
  phy
    0 -36.303718 55.934515 -79.126039 -0.404914 -0.913392 -0.041951 0 0
    0 34.270491 60.824038 -95.945024 -0.968650 0.179883 0.171343 0 0
    0 -34.270709 60.824128 -95.945024 -0.432561 0.896350 -0.097196 0 0
  phy
    0 124.214540 30.416170 -96.174582 0.274401 0.960096 0.054039 0 0
    0 34.270491 60.824038 -95.945024 -0.968650 0.179883 0.171343 0 0
    0 124.214540 30.416170 -78.333945 0.539643 -0.836577 0.094472 0 0
  phy
    0 34.270491 60.824038 -95.945024 -0.968650 0.179883 0.171343 0 0
    0 124.214540 30.416170 -96.174582 0.274401 0.960096 0.054039 0 0
    0 -34.270709 60.824128 -95.945024 -0.432561 0.896350 -0.097196 0 0
  phy
    0 -36.303718 55.934515 -79.126039 -0.404914 -0.913392 -0.041951 0 0
    0 -124.214540 30.416159 -78.333945 0.167592 -0.975781 -0.140585 0 0
    0 124.214540 30.416170 -78.333945 0.539643 -0.836577 0.094472 0 0
  phy
    0 -124.214540 30.416159 -78.333945 0.167592 -0.975781 -0.140585 0 0
    0 -36.303718 55.934515 -79.126039 -0.404914 -0.913392 -0.041951 0 0
    0 -34.270709 60.824128 -95.945024 -0.432561 0.896350 -0.097196 0 0
  phy
    0 124.214540 30.416170 -78.333945 0.539643 -0.836577 0.094472 0 0
    0 -124.214540 30.416159 -96.174582 0.689131 0.722775 -0.051905 0 0
    0 124.214540 30.416170 -96.174582 0.274401 0.960096 0.054039 0 0
  phy
    0 124.214540 30.416170 -96.174582 0.274401 0.960096 0.054039 0 0
    0 -124.214540 30.416159 -96.174582 0.689131 0.722775 -0.051905 0 0
    0 -34.270709 60.824128 -95.945024 -0.432561 0.896350 -0.097196 0 0
  phy
    0 124.214540 30.416170 -78.333945 0.539643 -0.836577 0.094472 0 0
    0 -124.214540 30.416159 -78.333945 0.167592 -0.975781 -0.140585 0 0
    0 -124.214540 30.416159 -96.174582 0.689131 0.722775 -0.051905 0 0
  phy
    0 -124.214540 30.416159 -96.174582 0.689131 0.722775 -0.051905 0 0
    0 -124.214540 30.416159 -78.333945 0.167592 -0.975781 -0.140585 0 0
    0 -34.270709 60.824128 -95.945024 -0.432561 0.896350 -0.097196 0 0
  phy
    0 36.980517 233.765587 62.863456 -0.173755 0.901591 -0.396160 0 0
    0 90.493189 180.252931 62.863451 0.634079 0.721527 0.278105 0 0
    0 36.980517 233.765587 96.689913 -0.278105 -0.721527 -0.634079 0 0
  phy
    0 36.980517 233.765587 62.863456 -0.173755 0.901591 -0.396160 0 0
    0 36.980517 233.765587 96.689913 -0.278105 -0.721527 -0.634079 0 0
    0 132.299990 275.572379 62.863456 -0.565175 0.823772 0.044452 0 0
  phy
    0 90.493189 180.252931 62.863451 0.634079 0.721527 0.278105 0 0
    0 36.980517 233.765587 62.863456 -0.173755 0.901591 -0.396160 0 0
    0 132.299990 275.572379 62.863456 -0.565175 0.823772 0.044452 0 0
  phy
    0 90.493189 180.252931 96.689913 0.396160 -0.901591 0.173754 0 0
    0 132.299990 275.572379 96.689923 -0.044452 -0.823772 0.565175 0 0
    0 36.980517 233.765587 96.689913 -0.278105 -0.721527 -0.634079 0 0
  phy
    0 36.980517 233.765587 96.689913 -0.278105 -0.721527 -0.634079 0 0
    0 90.493189 180.252931 62.863451 0.634079 0.721527 0.278105 0 0
    0 90.493189 180.252931 96.689913 0.396160 -0.901591 0.173754 0 0
  phy
    0 90.493189 180.252931 96.689913 0.396160 -0.901591 0.173754 0 0
    0 90.493189 180.252931 62.863451 0.634079 0.721527 0.278105 0 0
    0 132.299990 275.572379 96.689923 -0.044452 -0.823772 0.565175 0 0
  phy
    0 36.980517 233.765587 96.689913 -0.278105 -0.721527 -0.634079 0 0
    0 132.299990 275.572379 96.689923 -0.044452 -0.823772 0.565175 0 0
    0 132.299990 275.572379 62.863456 -0.565175 0.823772 0.044452 0 0
  phy
    0 90.493189 180.252931 62.863451 0.634079 0.721527 0.278105 0 0
    0 132.299990 275.572379 62.863456 -0.565175 0.823772 0.044452 0 0
    0 132.299990 275.572379 96.689923 -0.044452 -0.823772 0.565175 0 0
  phy
    0 124.214540 30.416170 -96.174582 -0.497225 0.867063 0.031134 0 0
    0 124.214540 30.416170 -87.254263 -0.274969 -0.958983 0.068868 0 0
    0 124.214540 -0.694364 -96.174582 0.275460 0.960694 0.034496 0 0
  phy
    0 124.214540 30.416170 -87.254263 -0.274969 -0.958983 0.068868 0 0
    0 124.214540 -0.694365 -87.254263 0.141892 -0.989723 0.017769 0 0
    0 124.214540 -0.694364 -96.174582 0.275460 0.960694 0.034496 0 0
  phy
    0 124.214540 -0.694364 -96.174582 0.275460 0.960694 0.034496 0 0
    0 -124.214540 -0.694376 -87.254263 0.497225 -0.867063 -0.031134 0 0
    0 -124.214540 -0.694375 -96.174582 0.274969 0.958983 -0.068868 0 0
  phy
    0 124.214540 -0.694364 -96.174582 0.275460 0.960694 0.034496 0 0
    0 124.214540 -0.694365 -87.254263 0.141892 -0.989723 0.017769 0 0
    0 -124.214540 -0.694376 -87.254263 0.497225 -0.867063 -0.031134 0 0
  phy
    0 124.214540 30.416170 -96.174582 -0.497225 0.867063 0.031134 0 0
    0 124.214540 -0.694364 -96.174582 0.275460 0.960694 0.034496 0 0
    0 -124.214540 30.416159 -96.174582 -0.141892 0.989723 -0.017769 0 0
  phy
    0 -124.214540 30.416159 -96.174582 -0.141892 0.989723 -0.017769 0 0
    0 124.214540 -0.694364 -96.174582 0.275460 0.960694 0.034496 0 0
    0 -124.214540 -0.694375 -96.174582 0.274969 0.958983 -0.068868 0 0
  phy
    0 -124.214540 30.416159 -96.174582 -0.141892 0.989723 -0.017769 0 0
    0 -124.214540 -0.694375 -96.174582 0.274969 0.958983 -0.068868 0 0
    0 -124.214540 30.416159 -87.254263 -0.275460 -0.960694 -0.034496 0 0
  phy
    0 -124.214540 30.416159 -87.254263 -0.275460 -0.960694 -0.034496 0 0
    0 -124.214540 -0.694375 -96.174582 0.274969 0.958983 -0.068868 0 0
    0 -124.214540 -0.694376 -87.254263 0.497225 -0.867063 -0.031134 0 0
  phy
    0 -124.214540 -0.694376 -87.254263 0.497225 -0.867063 -0.031134 0 0
    0 124.214540 -0.694365 -87.254263 0.141892 -0.989723 0.017769 0 0
    0 -124.214540 30.416159 -87.254263 -0.275460 -0.960694 -0.034496 0 0
  phy
    0 124.214540 -0.694365 -87.254263 0.141892 -0.989723 0.017769 0 0
    0 124.214540 30.416170 -87.254263 -0.274969 -0.958983 0.068868 0 0
    0 -124.214540 30.416159 -87.254263 -0.275460 -0.960694 -0.034496 0 0
  phy
    0 -124.214540 30.416159 -96.174582 -0.141892 0.989723 -0.017769 0 0
    0 -124.214540 30.416159 -87.254263 -0.275460 -0.960694 -0.034496 0 0
    0 124.214540 30.416170 -96.174582 -0.497225 0.867063 0.031134 0 0
  phy
    0 -124.214540 30.416159 -87.254263 -0.275460 -0.960694 -0.034496 0 0
    0 124.214540 30.416170 -87.254263 -0.274969 -0.958983 0.068868 0 0
    0 124.214540 30.416170 -96.174582 -0.497225 0.867063 0.031134 0 0
  phy
    0 -36.980540 233.765587 62.863456 -0.278105 0.721527 0.634079 0 0
    0 -90.493208 180.252912 96.689913 0.634079 -0.721527 -0.278105 0 0
    0 -90.493208 180.252931 62.863451 0.396160 0.901591 -0.173754 0 0
  phy
    0 -36.980526 233.765587 96.689913 -0.173754 -0.901591 0.396160 0 0
    0 -90.493208 180.252912 96.689913 0.634079 -0.721527 -0.278105 0 0
    0 -36.980540 233.765587 62.863456 -0.278105 0.721527 0.634079 0 0
  phy
    0 -36.980526 233.765587 96.689913 -0.173754 -0.901591 0.396160 0 0
    0 -36.980540 233.765587 62.863456 -0.278105 0.721527 0.634079 0 0
    0 -132.300028 275.572379 96.689923 -0.565175 -0.823772 -0.044452 0 0
  phy
    0 -36.980540 233.765587 62.863456 -0.278105 0.721527 0.634079 0 0
    0 -132.300018 275.572379 62.863456 -0.044452 0.823772 -0.565175 0 0
    0 -132.300028 275.572379 96.689923 -0.565175 -0.823772 -0.044452 0 0
  phy
    0 -36.980540 233.765587 62.863456 -0.278105 0.721527 0.634079 0 0
    0 -90.493208 180.252931 62.863451 0.396160 0.901591 -0.173754 0 0
    0 -132.300018 275.572379 62.863456 -0.044452 0.823772 -0.565175 0 0
  phy
    0 -132.300018 275.572379 62.863456 -0.044452 0.823772 -0.565175 0 0
    0 -90.493208 180.252931 62.863451 0.396160 0.901591 -0.173754 0 0
    0 -90.493208 180.252912 96.689913 0.634079 -0.721527 -0.278105 0 0
  phy
    0 -36.980526 233.765587 96.689913 -0.173754 -0.901591 0.396160 0 0
    0 -132.300028 275.572379 96.689923 -0.565175 -0.823772 -0.044452 0 0
    0 -90.493208 180.252912 96.689913 0.634079 -0.721527 -0.278105 0 0
  phy
    0 -132.300018 275.572379 62.863456 -0.044452 0.823772 -0.565175 0 0
    0 -90.493208 180.252912 96.689913 0.634079 -0.721527 -0.278105 0 0
    0 -132.300028 275.572379 96.689923 -0.565175 -0.823772 -0.044452 0 0
  phy
    0 36.980517 233.765587 96.689913 0.939106 -0.253554 0.231929 0 0
    0 132.299990 275.572379 96.689923 -0.373431 -0.923062 0.092225 0 0
    0 -36.980540 233.765587 96.689913 0.527000 -0.833389 -0.166532 0 0
  phy
    0 132.299990 275.572379 96.689923 -0.373431 -0.923062 0.092225 0 0
    0 -132.300018 275.572379 96.689923 -0.796218 -0.600125 -0.076720 0 0
    0 -36.980540 233.765587 96.689913 0.527000 -0.833389 -0.166532 0 0
  phy
    0 -36.980540 233.765587 96.689913 0.527000 -0.833389 -0.166532 0 0
    0 -132.300018 275.572379 62.863456 -0.214037 0.946382 -0.241971 0 0
    0 -36.980540 233.765587 62.863456 0.500703 0.861331 -0.086058 0 0
  phy
    0 -36.980540 233.765587 96.689913 0.527000 -0.833389 -0.166532 0 0
    0 -132.300018 275.572379 96.689923 -0.796218 -0.600125 -0.076720 0 0
    0 -132.300018 275.572379 62.863456 -0.214037 0.946382 -0.241971 0 0
  phy
    0 -36.980540 233.765587 96.689913 0.527000 -0.833389 -0.166532 0 0
    0 -36.980540 233.765587 62.863456 0.500703 0.861331 -0.086058 0 0
    0 36.980517 233.765587 96.689913 0.939106 -0.253554 0.231929 0 0
  phy
    0 36.980517 233.765587 62.863456 0.859841 0.464306 0.212353 0 0
    0 132.299990 275.572379 62.863456 -0.621551 0.768187 0.153503 0 0
    0 36.980517 233.765587 96.689913 0.939106 -0.253554 0.231929 0 0
  phy
    0 132.299990 275.572379 62.863456 -0.621551 0.768187 0.153503 0 0
    0 132.299990 275.572379 96.689923 -0.373431 -0.923062 0.092225 0 0
    0 36.980517 233.765587 96.689913 0.939106 -0.253554 0.231929 0 0
  phy
    0 36.980517 233.765587 96.689913 0.939106 -0.253554 0.231929 0 0
    0 -36.980540 233.765587 62.863456 0.500703 0.861331 -0.086058 0 0
    0 36.980517 233.765587 62.863456 0.859841 0.464306 0.212353 0 0
  phy
    0 132.299990 275.572379 62.863456 -0.621551 0.768187 0.153503 0 0
    0 36.980517 233.765587 62.863456 0.859841 0.464306 0.212353 0 0
    0 -36.980540 233.765587 62.863456 0.500703 0.861331 -0.086058 0 0
  phy
    0 -132.300018 275.572379 96.689923 -0.796218 -0.600125 -0.076720 0 0
    0 132.299990 275.572379 96.689923 -0.373431 -0.923062 0.092225 0 0
    0 132.299990 275.572379 62.863456 -0.621551 0.768187 0.153503 0 0
  phy
    0 -132.300018 275.572379 96.689923 -0.796218 -0.600125 -0.076720 0 0
    0 132.299990 275.572379 62.863456 -0.621551 0.768187 0.153503 0 0
    0 -132.300018 275.572379 62.863456 -0.214037 0.946382 -0.241971 0 0
  phy
    0 -132.300018 275.572379 62.863456 -0.214037 0.946382 -0.241971 0 0
    0 132.299990 275.572379 62.863456 -0.621551 0.768187 0.153503 0 0
    0 -36.980540 233.765587 62.863456 0.500703 0.861331 -0.086058 0 0
  phy
    0 132.300000 10.972401 62.863447 0.232915 0.944194 0.232915 0 0
    0 132.300000 10.972400 96.689913 0.404611 -0.820110 0.404611 0 0
    0 36.980526 52.779195 62.863447 0.278105 0.721527 -0.634079 0 0
  phy
    0 36.980526 52.779195 62.863447 0.278105 0.721527 -0.634079 0 0
    0 132.300000 10.972400 96.689913 0.404611 -0.820110 0.404611 0 0
    0 36.980526 52.779195 96.689913 0.173754 -0.901591 -0.396160 0 0
  phy
    0 36.980526 52.779195 62.863447 0.278105 0.721527 -0.634079 0 0
    0 36.980526 52.779195 96.689913 0.173754 -0.901591 -0.396160 0 0
    0 90.493189 106.291865 96.689913 -0.565175 -0.823772 -0.044452 0 0
  phy
    0 36.980526 52.779195 62.863447 0.278105 0.721527 -0.634079 0 0
    0 90.493189 106.291865 96.689913 -0.565175 -0.823772 -0.044452 0 0
    0 90.493189 106.291865 62.863447 -0.471266 0.745531 0.471266 0 0
  phy
    0 132.300000 10.972401 62.863447 0.232915 0.944194 0.232915 0 0
    0 36.980526 52.779195 62.863447 0.278105 0.721527 -0.634079 0 0
    0 90.493189 106.291865 62.863447 -0.471266 0.745531 0.471266 0 0
  phy
    0 132.300000 10.972401 62.863447 0.232915 0.944194 0.232915 0 0
    0 90.493189 106.291865 62.863447 -0.471266 0.745531 0.471266 0 0
    0 132.300000 10.972400 96.689913 0.404611 -0.820110 0.404611 0 0
  phy
    0 36.980526 52.779195 96.689913 0.173754 -0.901591 -0.396160 0 0
    0 132.300000 10.972400 96.689913 0.404611 -0.820110 0.404611 0 0
    0 90.493189 106.291865 96.689913 -0.565175 -0.823772 -0.044452 0 0
  phy
    0 132.300000 10.972400 96.689913 0.404611 -0.820110 0.404611 0 0
    0 90.493189 106.291865 62.863447 -0.471266 0.745531 0.471266 0 0
    0 90.493189 106.291865 96.689913 -0.565175 -0.823772 -0.044452 0 0
  phy
    0 132.299990 275.572379 96.689923 -0.092225 -0.923062 0.373431 0 0
    0 90.493189 106.291865 96.689913 0.153503 -0.768187 -0.621551 0 0
    0 132.300000 10.972400 96.689923 0.076720 -0.600126 0.796218 0 0
  phy
    0 132.299990 275.572379 96.689923 -0.092225 -0.923062 0.373431 0 0
    0 90.493189 180.252931 96.689913 -0.286187 -0.312871 -0.905654 0 0
    0 90.493189 106.291865 96.689913 0.153503 -0.768187 -0.621551 0 0
  phy
    0 90.493189 106.291865 96.689913 0.153503 -0.768187 -0.621551 0 0
    0 90.493189 180.252931 96.689913 -0.286187 -0.312871 -0.905654 0 0
    0 90.493189 180.252931 62.863451 -0.086058 0.861331 -0.500703 0 0
  phy
    0 90.493189 106.291865 96.689913 0.153503 -0.768187 -0.621551 0 0
    0 90.493189 180.252931 62.863451 -0.086058 0.861331 -0.500703 0 0
    0 90.493189 106.291865 62.863447 0.212353 0.464306 -0.859841 0 0
  phy
    0 90.493189 180.252931 62.863451 -0.086058 0.861331 -0.500703 0 0
    0 90.493189 180.252931 96.689913 -0.286187 -0.312871 -0.905654 0 0
    0 132.299990 275.572379 62.863456 -0.174895 0.684038 0.708169 0 0
  phy
    0 90.493189 180.252931 96.689913 -0.286187 -0.312871 -0.905654 0 0
    0 132.299990 275.572379 96.689923 -0.092225 -0.923062 0.373431 0 0
    0 132.299990 275.572379 62.863456 -0.174895 0.684038 0.708169 0 0
  phy
    0 90.493189 106.291865 62.863447 0.212353 0.464306 -0.859841 0 0
    0 90.493189 180.252931 62.863451 -0.086058 0.861331 -0.500703 0 0
    0 132.300000 10.972401 62.863437 0.193072 0.966207 0.170784 0 0
  phy
    0 132.300000 10.972401 62.863437 0.193072 0.966207 0.170784 0 0
    0 90.493189 180.252931 62.863451 -0.086058 0.861331 -0.500703 0 0
    0 132.299990 275.572379 62.863456 -0.174895 0.684038 0.708169 0 0
  phy
    0 90.493189 106.291865 96.689913 0.153503 -0.768187 -0.621551 0 0
    0 90.493189 106.291865 62.863447 0.212353 0.464306 -0.859841 0 0
    0 132.300000 10.972401 62.863437 0.193072 0.966207 0.170784 0 0
  phy
    0 132.300000 10.972400 96.689923 0.076720 -0.600126 0.796218 0 0
    0 132.299990 275.572379 62.863456 -0.174895 0.684038 0.708169 0 0
    0 132.299990 275.572379 96.689923 -0.092225 -0.923062 0.373431 0 0
  phy
    0 90.493189 106.291865 96.689913 0.153503 -0.768187 -0.621551 0 0
    0 132.300000 10.972401 62.863437 0.193072 0.966207 0.170784 0 0
    0 132.300000 10.972400 96.689923 0.076720 -0.600126 0.796218 0 0
  phy
    0 132.300000 10.972401 62.863437 0.193072 0.966207 0.170784 0 0
    0 132.299990 275.572379 62.863456 -0.174895 0.684038 0.708169 0 0
    0 132.300000 10.972400 96.689923 0.076720 -0.600126 0.796218 0 0
  phy
    0 132.300000 10.972400 96.689913 -0.839558 -0.542164 0.034655 0 0
    0 -132.300000 10.972388 96.689913 -0.360383 -0.930905 -0.059503 0 0
    0 132.300000 -10.871865 96.689913 0.360383 -0.930905 0.059503 0 0
  phy
    0 -132.300000 10.972388 96.689913 -0.360383 -0.930905 -0.059503 0 0
    0 -132.300000 -10.871877 96.689913 0.839558 -0.542164 -0.034655 0 0
    0 132.300000 -10.871865 96.689913 0.360383 -0.930905 0.059503 0 0
  phy
    0 132.300000 -10.871865 96.689913 0.360383 -0.930905 0.059503 0 0
    0 132.300000 10.972400 79.776668 -0.609104 0.786688 0.100570 0 0
    0 132.300000 10.972400 96.689913 -0.839558 -0.542164 0.034655 0 0
  phy
    0 132.300000 -10.871865 96.689913 0.360383 -0.930905 0.059503 0 0
    0 132.300000 -10.871865 79.776668 0.612013 0.790444 0.025263 0 0
    0 132.300000 10.972400 79.776668 -0.609104 0.786688 0.100570 0 0
  phy
    0 -132.300000 10.972388 96.689913 -0.360383 -0.930905 -0.059503 0 0
    0 132.300000 10.972400 96.689913 -0.839558 -0.542164 0.034655 0 0
    0 -132.300000 10.972388 79.776668 -0.612013 0.790444 -0.025263 0 0
  phy
    0 -132.300000 10.972388 79.776668 -0.612013 0.790444 -0.025263 0 0
    0 132.300000 10.972400 96.689913 -0.839558 -0.542164 0.034655 0 0
    0 132.300000 10.972400 79.776668 -0.609104 0.786688 0.100570 0 0
  phy
    0 -132.300000 -10.871877 96.689913 0.839558 -0.542164 -0.034655 0 0
    0 132.300000 -10.871865 79.776668 0.612013 0.790444 0.025263 0 0
    0 132.300000 -10.871865 96.689913 0.360383 -0.930905 0.059503 0 0
  phy
    0 -132.300000 -10.871877 96.689913 0.839558 -0.542164 -0.034655 0 0
    0 -132.300000 -10.871877 79.776668 0.609104 0.786688 -0.100570 0 0
    0 132.300000 -10.871865 79.776668 0.612013 0.790444 0.025263 0 0
  phy
    0 -132.300000 -10.871877 96.689913 0.839558 -0.542164 -0.034655 0 0
    0 -132.300000 10.972388 96.689913 -0.360383 -0.930905 -0.059503 0 0
    0 -132.300000 -10.871877 79.776668 0.609104 0.786688 -0.100570 0 0
  phy
    0 -132.300000 -10.871877 79.776668 0.609104 0.786688 -0.100570 0 0
    0 -132.300000 10.972388 96.689913 -0.360383 -0.930905 -0.059503 0 0
    0 -132.300000 10.972388 79.776668 -0.612013 0.790444 -0.025263 0 0
  phy
    0 132.300000 10.972400 79.776668 -0.609104 0.786688 0.100570 0 0
    0 132.300000 -10.871865 79.776668 0.612013 0.790444 0.025263 0 0
    0 -132.300000 10.972388 79.776668 -0.612013 0.790444 -0.025263 0 0
  phy
    0 -132.300000 10.972388 79.776668 -0.612013 0.790444 -0.025263 0 0
    0 132.300000 -10.871865 79.776668 0.612013 0.790444 0.025263 0 0
    0 -132.300000 -10.871877 79.776668 0.609104 0.786688 -0.100570 0 0
  phy
    0 -132.300000 10.972389 62.863447 0.044452 0.823772 -0.565175 0 0
    0 -132.300000 10.972383 96.689913 0.565175 -0.823772 -0.044452 0 0
    0 -90.493208 106.291865 96.689913 -0.634079 -0.721527 -0.278105 0 0
  phy
    0 -132.300000 10.972389 62.863447 0.044452 0.823772 -0.565175 0 0
    0 -90.493208 106.291865 96.689913 -0.634079 -0.721527 -0.278105 0 0
    0 -90.493208 106.291865 62.863447 -0.396160 0.901591 -0.173754 0 0
  phy
    0 -36.980533 52.779195 62.863447 0.278105 0.721527 0.634079 0 0
    0 -132.300000 10.972383 96.689913 0.565175 -0.823772 -0.044452 0 0
    0 -132.300000 10.972389 62.863447 0.044452 0.823772 -0.565175 0 0
  phy
    0 -36.980533 52.779195 62.863447 0.278105 0.721527 0.634079 0 0
    0 -36.980531 52.779190 96.689913 0.173754 -0.901591 0.396160 0 0
    0 -132.300000 10.972383 96.689913 0.565175 -0.823772 -0.044452 0 0
  phy
    0 -36.980533 52.779195 62.863447 0.278105 0.721527 0.634079 0 0
    0 -132.300000 10.972389 62.863447 0.044452 0.823772 -0.565175 0 0
    0 -90.493208 106.291865 62.863447 -0.396160 0.901591 -0.173754 0 0
  phy
    0 -36.980533 52.779195 62.863447 0.278105 0.721527 0.634079 0 0
    0 -90.493208 106.291865 62.863447 -0.396160 0.901591 -0.173754 0 0
    0 -90.493208 106.291865 96.689913 -0.634079 -0.721527 -0.278105 0 0
  phy
    0 -36.980533 52.779195 62.863447 0.278105 0.721527 0.634079 0 0
    0 -90.493208 106.291865 96.689913 -0.634079 -0.721527 -0.278105 0 0
    0 -36.980531 52.779190 96.689913 0.173754 -0.901591 0.396160 0 0
  phy
    0 -90.493208 106.291865 96.689913 -0.634079 -0.721527 -0.278105 0 0
    0 -132.300000 10.972383 96.689913 0.565175 -0.823772 -0.044452 0 0
    0 -36.980531 52.779190 96.689913 0.173754 -0.901591 0.396160 0 0
  phy
    0 132.300000 10.972400 96.689913 0.796218 -0.600125 0.076720 0 0
    0 -132.300000 10.972389 62.863447 0.796218 0.600126 -0.076720 0 0
    0 132.300000 10.972401 62.863447 0.170784 0.966207 0.193072 0 0
  phy
    0 132.300000 10.972400 96.689913 0.796218 -0.600125 0.076720 0 0
    0 -132.300000 10.972388 96.689913 0.170784 -0.966207 -0.193072 0 0
    0 -132.300000 10.972389 62.863447 0.796218 0.600126 -0.076720 0 0
  phy
    0 -132.300000 10.972389 62.863447 0.796218 0.600126 -0.076720 0 0
    0 -132.300000 10.972388 96.689913 0.170784 -0.966207 -0.193072 0 0
    0 -36.980533 52.779195 62.863447 -0.527000 0.833390 -0.166532 0 0
  phy
    0 -36.980533 52.779195 62.863447 -0.527000 0.833390 -0.166532 0 0
    0 -132.300000 10.972388 96.689913 0.170784 -0.966207 -0.193072 0 0
    0 -36.980531 52.779195 96.689913 -0.924198 -0.347313 -0.158845 0 0
  phy
    0 132.300000 10.972401 62.863447 0.170784 0.966207 0.193072 0 0
    0 -132.300000 10.972389 62.863447 0.796218 0.600126 -0.076720 0 0
    0 -36.980533 52.779195 62.863447 -0.527000 0.833390 -0.166532 0 0
  phy
    0 132.300000 10.972401 62.863447 0.170784 0.966207 0.193072 0 0
    0 36.980526 52.779195 62.863447 -0.924198 0.347313 0.158845 0 0
    0 36.980526 52.779195 96.689913 -0.527000 -0.833390 0.166532 0 0
  phy
    0 132.300000 10.972401 62.863447 0.170784 0.966207 0.193072 0 0
    0 36.980526 52.779195 96.689913 -0.527000 -0.833390 0.166532 0 0
    0 132.300000 10.972400 96.689913 0.796218 -0.600125 0.076720 0 0
  phy
    0 -36.980531 52.779195 96.689913 -0.924198 -0.347313 -0.158845 0 0
    0 36.980526 52.779195 96.689913 -0.527000 -0.833390 0.166532 0 0
    0 36.980526 52.779195 62.863447 -0.924198 0.347313 0.158845 0 0
  phy
    0 -36.980531 52.779195 96.689913 -0.924198 -0.347313 -0.158845 0 0
    0 36.980526 52.779195 62.863447 -0.924198 0.347313 0.158845 0 0
    0 -36.980533 52.779195 62.863447 -0.527000 0.833390 -0.166532 0 0
  phy
    0 36.980526 52.779195 62.863447 -0.924198 0.347313 0.158845 0 0
    0 132.300000 10.972401 62.863447 0.170784 0.966207 0.193072 0 0
    0 -36.980533 52.779195 62.863447 -0.527000 0.833390 -0.166532 0 0
  phy
    0 -132.300000 10.972388 96.689913 0.170784 -0.966207 -0.193072 0 0
    0 36.980526 52.779195 96.689913 -0.527000 -0.833390 0.166532 0 0
    0 -36.980531 52.779195 96.689913 -0.924198 -0.347313 -0.158845 0 0
  phy
    0 132.300000 10.972400 96.689913 0.796218 -0.600125 0.076720 0 0
    0 36.980526 52.779195 96.689913 -0.527000 -0.833390 0.166532 0 0
    0 -132.300000 10.972388 96.689913 0.170784 -0.966207 -0.193072 0 0
end
