version 1
nodes
0 "cam" -1
end
skeleton
time 0
0  -268.056854 -68.140205 186.292145  1.607451 -0.000009 2.419038
time 1
0  -268.056854 -68.140205 186.292145  1.607451 -0.000009 2.419038
time 2
0  -268.056854 -68.140205 186.292145  1.607451 -0.000009 2.419038
time 3
0  -268.056854 -68.140205 186.292145  1.607451 -0.000009 2.419038
time 4
0  -268.056854 -68.140205 186.292145  1.607451 -0.000009 2.419038
time 5
0  -268.056854 -68.140205 186.292145  1.607451 -0.000009 2.419038
time 6
0  -268.056854 -68.140205 186.292145  1.607451 -0.000009 2.419038
time 7
0  -268.056854 -68.140205 186.292145  1.607451 -0.000009 2.419038
time 8
0  -268.056854 -68.140205 186.292145  1.607451 -0.000009 2.419038
time 9
0  -268.056854 -68.140205 186.292145  1.607451 -0.000009 2.419038
time 10
0  -268.056854 -68.140205 186.292145  1.607451 -0.000009 2.419038
time 11
0  -268.056854 -68.140205 186.292145  1.607451 -0.000009 2.419038
time 12
0  -268.056854 -68.140205 186.292145  1.607451 -0.000009 2.419038
time 13
0  -268.056854 -68.140205 186.292145  1.607451 -0.000009 2.419038
time 14
0  -268.056854 -68.140205 186.292145  1.607451 -0.000009 2.419038
time 15
0  -268.056854 -68.140205 186.292145  1.607451 -0.000009 2.419038
time 16
0  -268.056854 -68.140205 186.292145  1.607451 -0.000009 2.419038
time 17
0  -268.056854 -68.140205 186.292145  1.607451 -0.000009 2.419038
time 18
0  -268.056854 -68.140205 186.292145  1.607451 -0.000009 2.419038
time 19
0  -268.056854 -68.140205 186.292145  1.607451 -0.000009 2.419038
time 20
0  -268.056854 -68.140205 186.292145  1.607451 -0.000009 2.419038
time 21
0  -268.056854 -68.140205 186.292145  1.607451 -0.000009 2.419038
time 22
0  -268.056854 -68.140205 186.292145  1.607451 -0.000009 2.419038
time 23
0  -268.056854 -68.140205 186.292145  1.607451 -0.000009 2.419038
time 24
0  -268.056854 -68.140205 186.292145  1.607451 -0.000009 2.419038
time 25
0  -268.056854 -68.140205 186.292145  1.607451 -0.000009 2.419038
time 26
0  -268.056854 -68.140205 186.292145  1.607451 -0.000009 2.419038
time 27
0  -268.056854 -68.140205 186.292145  1.607451 -0.000009 2.419038
time 28
0  -268.056854 -68.140205 186.292145  1.607451 -0.000009 2.419038
time 29
0  -268.056854 -68.140205 186.292145  1.607451 -0.000009 2.419038
time 30
0  -268.056854 -68.140205 186.292145  1.607451 -0.000009 2.419038
time 31
0  -268.288544 -68.140205 186.292145  1.607451 -0.000009 2.419038
time 32
0  -268.520203 -68.140205 186.292145  1.607451 -0.000009 2.419038
time 33
0  -268.751892 -68.140205 186.292145  1.607451 -0.000009 2.419038
time 34
0  -268.983551 -68.140205 186.292145  1.607451 -0.000009 2.419038
time 35
0  -269.215240 -68.140205 186.292145  1.607451 -0.000009 2.419038
time 36
0  -269.446930 -68.140205 186.292145  1.607451 -0.000009 2.419038
time 37
0  -269.678589 -68.140205 186.292145  1.607451 -0.000009 2.419038
time 38
0  -269.910278 -68.140205 186.292145  1.607451 -0.000009 2.419038
time 39
0  -270.141968 -68.140205 186.292145  1.607451 -0.000009 2.419038
time 40
0  -270.373627 -68.140205 186.292145  1.607451 -0.000009 2.419038
time 41
0  -270.605316 -68.140205 186.292145  1.607451 -0.000009 2.419038
time 42
0  -270.836975 -68.140205 186.292145  1.607451 -0.000009 2.419038
time 43
0  -271.068665 -68.140205 186.292145  1.607451 -0.000009 2.419038
time 44
0  -271.300354 -68.140205 186.292145  1.607451 -0.000009 2.419038
time 45
0  -271.532013 -68.140205 186.292145  1.607451 -0.000009 2.419038
time 46
0  -271.763702 -68.140205 186.292145  1.607451 -0.000009 2.419038
time 47
0  -271.995361 -68.140205 186.292145  1.607451 -0.000009 2.419038
time 48
0  -272.227051 -68.140205 186.292145  1.607451 -0.000009 2.419038
time 49
0  -272.458740 -68.140205 186.292145  1.607451 -0.000009 2.419038
time 50
0  -272.690399 -68.140205 186.292145  1.607451 -0.000009 2.419038
time 51
0  -272.922089 -68.140205 186.292145  1.607451 -0.000009 2.419038
time 52
0  -273.153748 -68.140205 186.292145  1.607451 -0.000009 2.419038
time 53
0  -273.385437 -68.140205 186.292145  1.607451 -0.000009 2.419038
time 54
0  -273.617126 -68.140205 186.292145  1.607451 -0.000009 2.419038
time 55
0  -273.848785 -68.140205 186.292145  1.607451 -0.000009 2.419038
time 56
0  -274.080475 -68.140205 186.292145  1.607451 -0.000009 2.419038
time 57
0  -274.312164 -68.140205 186.292145  1.607451 -0.000009 2.419038
time 58
0  -274.543823 -68.140205 186.292145  1.607451 -0.000009 2.419038
time 59
0  -274.775513 -68.140205 186.292145  1.607451 -0.000009 2.419038
time 60
0  -275.007172 -68.140205 186.292145  1.607451 -0.000009 2.419038
time 61
0  -275.238861 -68.140205 186.292145  1.607451 -0.000009 2.419038
time 62
0  -275.470551 -68.140205 186.292145  1.607451 -0.000009 2.419038
time 63
0  -275.702209 -68.140205 186.292145  1.607451 -0.000009 2.419038
time 64
0  -275.933899 -68.140205 186.292145  1.607451 -0.000009 2.419038
time 65
0  -276.165558 -68.140205 186.292145  1.607451 -0.000009 2.419038
time 66
0  -276.397247 -68.140205 186.292145  1.607451 -0.000009 2.419038
time 67
0  -276.628937 -68.140205 186.292145  1.607451 -0.000009 2.419038
time 68
0  -276.860596 -68.140205 186.292145  1.607451 -0.000009 2.419038
time 69
0  -277.092285 -68.140205 186.292145  1.607451 -0.000009 2.419038
time 70
0  -277.323975 -68.140205 186.292145  1.607451 -0.000009 2.419038
time 71
0  -277.555634 -68.140205 186.292145  1.607451 -0.000009 2.419038
time 72
0  -277.787323 -68.140205 186.292145  1.607451 -0.000009 2.419038
time 73
0  -278.018982 -68.140205 186.292145  1.607451 -0.000009 2.419038
time 74
0  -278.250671 -68.140205 186.292145  1.607451 -0.000009 2.419038
time 75
0  -278.482361 -68.140205 186.292145  1.607451 -0.000009 2.419038
time 76
0  -278.714020 -68.140205 186.292145  1.607451 -0.000009 2.419038
time 77
0  -278.945709 -68.140205 186.292145  1.607451 -0.000009 2.419038
time 78
0  -279.177368 -68.140205 186.292145  1.607451 -0.000009 2.419038
time 79
0  -279.409058 -68.140205 186.292145  1.607451 -0.000009 2.419038
time 80
0  -279.640747 -68.140205 186.292145  1.607451 -0.000009 2.419038
time 81
0  -279.872406 -68.140205 186.292145  1.607451 -0.000009 2.419038
time 82
0  -280.104095 -68.140205 186.292145  1.607451 -0.000009 2.419038
time 83
0  -280.335754 -68.140205 186.292145  1.607451 -0.000009 2.419038
time 84
0  -280.567444 -68.140205 186.292145  1.607451 -0.000009 2.419038
time 85
0  -280.799133 -68.140205 186.292145  1.607451 -0.000009 2.419038
time 86
0  -281.030792 -68.140205 186.292145  1.607451 -0.000009 2.419038
time 87
0  -281.262482 -68.140205 186.292145  1.607451 -0.000009 2.419038
time 88
0  -281.494171 -68.140205 186.292145  1.607451 -0.000009 2.419038
time 89
0  -281.725830 -68.140205 186.292145  1.607451 -0.000009 2.419038
time 90
0  -281.957520 -68.140205 186.292145  1.607451 -0.000009 2.419038
time 91
0  -282.189178 -68.140205 186.292145  1.607451 -0.000009 2.419038
time 92
0  -282.420868 -68.140205 186.292145  1.607451 -0.000009 2.419038
time 93
0  -282.652557 -68.140205 186.292145  1.607451 -0.000009 2.419038
time 94
0  -282.884216 -68.140205 186.292145  1.607451 -0.000009 2.419038
time 95
0  -283.115906 -68.140205 186.292145  1.607451 -0.000009 2.419038
time 96
0  -283.347565 -68.140205 186.292145  1.607451 -0.000009 2.419038
time 97
0  -283.579254 -68.140205 186.292145  1.607451 -0.000009 2.419038
time 98
0  -283.810944 -68.140205 186.292145  1.607451 -0.000009 2.419038
time 99
0  -284.042603 -68.140205 186.292145  1.607451 -0.000009 2.419038
time 100
0  -284.274292 -68.140205 186.292145  1.607451 -0.000009 2.419038
time 101
0  -284.505981 -68.140205 186.292145  1.607451 -0.000009 2.419038
time 102
0  -284.737640 -68.140205 186.292145  1.607451 -0.000009 2.419038
time 103
0  -284.969330 -68.140205 186.292145  1.607451 -0.000009 2.419038
time 104
0  -285.200989 -68.140205 186.292145  1.607451 -0.000009 2.419038
time 105
0  -285.432678 -68.140205 186.292145  1.607451 -0.000009 2.419038
time 106
0  -285.664368 -68.140205 186.292145  1.607451 -0.000009 2.419038
time 107
0  -285.896027 -68.140205 186.292145  1.607451 -0.000009 2.419038
time 108
0  -286.127716 -68.140205 186.292145  1.607451 -0.000009 2.419038
time 109
0  -286.359375 -68.140205 186.292145  1.607451 -0.000009 2.419038
time 110
0  -286.591064 -68.140205 186.292145  1.607451 -0.000009 2.419038
time 111
0  -286.822754 -68.140205 186.292145  1.607451 -0.000009 2.419038
time 112
0  -287.054413 -68.140205 186.292145  1.607451 -0.000009 2.419038
time 113
0  -287.286102 -68.140205 186.292145  1.607451 -0.000009 2.419038
time 114
0  -287.517761 -68.140205 186.292145  1.607451 -0.000009 2.419038
time 115
0  -287.749451 -68.140205 186.292145  1.607451 -0.000009 2.419038
time 116
0  -287.981140 -68.140205 186.292145  1.607451 -0.000009 2.419038
time 117
0  -288.212799 -68.140205 186.292145  1.607451 -0.000009 2.419038
time 118
0  -288.444489 -68.140205 186.292145  1.607451 -0.000009 2.419038
time 119
0  -288.676178 -68.140205 186.292145  1.607451 -0.000009 2.419038
time 120
0  -288.907837 -68.140205 186.292145  1.607451 -0.000009 2.419038
time 121
0  -289.139526 -68.140205 186.292145  1.607451 -0.000009 2.419038
time 122
0  -289.371185 -68.140205 186.292145  1.607451 -0.000009 2.419038
time 123
0  -289.602875 -68.140205 186.292145  1.607451 -0.000009 2.419038
time 124
0  -289.834564 -68.140205 186.292145  1.607451 -0.000009 2.419038
time 125
0  -290.066223 -68.140205 186.292145  1.607451 -0.000009 2.419038
time 126
0  -290.297913 -68.140205 186.292145  1.607451 -0.000009 2.419038
time 127
0  -290.529572 -68.140205 186.292145  1.607451 -0.000009 2.419038
time 128
0  -290.761261 -68.140205 186.292145  1.607451 -0.000009 2.419038
time 129
0  -290.992950 -68.140205 186.292145  1.607451 -0.000009 2.419038
time 130
0  -291.224609 -68.140205 186.292145  1.607451 -0.000009 2.419038
time 131
0  -291.456299 -68.140205 186.292145  1.607451 -0.000009 2.419038
time 132
0  -291.687958 -68.140205 186.292145  1.607451 -0.000009 2.419038
time 133
0  -291.919647 -68.140205 186.292145  1.607451 -0.000009 2.419038
time 134
0  -292.151337 -68.140205 186.292145  1.607451 -0.000009 2.419038
time 135
0  -292.382996 -68.140205 186.292145  1.607451 -0.000009 2.419038
time 136
0  -292.614685 -68.140205 186.292145  1.607451 -0.000009 2.419038
time 137
0  -292.846375 -68.140205 186.292145  1.607451 -0.000009 2.419038
time 138
0  -293.078033 -68.140205 186.292145  1.607451 -0.000009 2.419038
time 139
0  -293.309723 -68.140205 186.292145  1.607451 -0.000009 2.419038
time 140
0  -293.541382 -68.140205 186.292145  1.607451 -0.000009 2.419038
time 141
0  -293.773071 -68.140205 186.292145  1.607451 -0.000009 2.419038
time 142
0  -294.004761 -68.140205 186.292145  1.607451 -0.000009 2.419038
time 143
0  -294.236420 -68.140205 186.292145  1.607451 -0.000009 2.419038
time 144
0  -294.468109 -68.140205 186.292145  1.607451 -0.000009 2.419038
time 145
0  -294.699768 -68.140205 186.292145  1.607451 -0.000009 2.419038
time 146
0  -294.931458 -68.140205 186.292145  1.607451 -0.000009 2.419038
time 147
0  -295.163147 -68.140205 186.292145  1.607451 -0.000009 2.419038
time 148
0  -295.394806 -68.140205 186.292145  1.607451 -0.000009 2.419038
time 149
0  -295.626495 -68.140205 186.292145  1.607451 -0.000009 2.419038
time 150
0  -295.858154 -68.140205 186.292145  1.607451 -0.000009 2.419038
time 151
0  -296.089844 -68.140205 186.292145  1.607451 -0.000009 2.419038
time 152
0  -296.321533 -68.140205 186.292145  1.607451 -0.000009 2.419038
time 153
0  -296.553192 -68.140205 186.292145  1.607451 -0.000009 2.419038
time 154
0  -296.784882 -68.140205 186.292145  1.607451 -0.000009 2.419038
time 155
0  -297.016571 -68.140205 186.292145  1.607451 -0.000009 2.419038
time 156
0  -297.248230 -68.140205 186.292145  1.607451 -0.000009 2.419038
time 157
0  -297.479919 -68.140205 186.292145  1.607451 -0.000009 2.419038
time 158
0  -297.711578 -68.140205 186.292145  1.607451 -0.000009 2.419038
time 159
0  -297.943268 -68.140205 186.292145  1.607451 -0.000009 2.419038
time 160
0  -298.174957 -68.140205 186.292145  1.607451 -0.000009 2.419038
time 161
0  -298.406616 -68.140205 186.292145  1.607451 -0.000009 2.419038
time 162
0  -298.638306 -68.140205 186.292145  1.607451 -0.000009 2.419038
time 163
0  -298.869965 -68.140205 186.292145  1.607451 -0.000009 2.419038
time 164
0  -299.101654 -68.140205 186.292145  1.607451 -0.000009 2.419038
time 165
0  -299.333344 -68.140205 186.292145  1.607451 -0.000009 2.419038
time 166
0  -299.565002 -68.140205 186.292145  1.607451 -0.000009 2.419038
time 167
0  -299.796692 -68.140205 186.292145  1.607451 -0.000009 2.419038
time 168
0  -300.028381 -68.140205 186.292145  1.607451 -0.000009 2.419038
time 169
0  -300.260040 -68.140205 186.292145  1.607451 -0.000009 2.419038
time 170
0  -300.491730 -68.140205 186.292145  1.607451 -0.000009 2.419038
time 171
0  -300.723389 -68.140205 186.292145  1.607451 -0.000009 2.419038
time 172
0  -300.955078 -68.140205 186.292145  1.607451 -0.000009 2.419038
time 173
0  -301.186768 -68.140205 186.292145  1.607451 -0.000009 2.419038
time 174
0  -301.418427 -68.140205 186.292145  1.607451 -0.000009 2.419038
time 175
0  -301.650116 -68.140205 186.292145  1.607451 -0.000009 2.419038
time 176
0  -301.881775 -68.140205 186.292145  1.607451 -0.000009 2.419038
time 177
0  -302.113464 -68.140205 186.292145  1.607451 -0.000009 2.419038
time 178
0  -302.345154 -68.140205 186.292145  1.607451 -0.000009 2.419038
time 179
0  -302.576813 -68.140205 186.292145  1.607451 -0.000009 2.419038
time 180
0  -302.808502 -68.140205 186.292145  1.607451 -0.000009 2.419038
time 181
0  -303.040161 -68.140205 186.292145  1.607451 -0.000009 2.419038
time 182
0  -303.271851 -68.140205 186.292145  1.607451 -0.000009 2.419038
time 183
0  -303.503540 -68.140205 186.292145  1.607451 -0.000009 2.419038
time 184
0  -303.735199 -68.140205 186.292145  1.607451 -0.000009 2.419038
time 185
0  -303.966888 -68.140205 186.292145  1.607451 -0.000009 2.419038
time 186
0  -304.198578 -68.140205 186.292145  1.607451 -0.000009 2.419038
time 187
0  -304.430237 -68.140205 186.292145  1.607451 -0.000009 2.419038
time 188
0  -304.661926 -68.140205 186.292145  1.607451 -0.000009 2.419038
time 189
0  -304.893585 -68.140205 186.292145  1.607451 -0.000009 2.419038
time 190
0  -305.125275 -68.140205 186.292145  1.607451 -0.000009 2.419038
time 191
0  -305.356964 -68.140205 186.292145  1.607451 -0.000009 2.419038
time 192
0  -305.588623 -68.140205 186.292145  1.607451 -0.000009 2.419038
time 193
0  -305.820312 -68.140205 186.292145  1.607451 -0.000009 2.419038
time 194
0  -306.051971 -68.140205 186.292145  1.607451 -0.000009 2.419038
time 195
0  -306.283661 -68.140205 186.292145  1.607451 -0.000009 2.419038
time 196
0  -306.515350 -68.140205 186.292145  1.607451 -0.000009 2.419038
time 197
0  -306.747009 -68.140205 186.292145  1.607451 -0.000009 2.419038
time 198
0  -306.978699 -68.140205 186.292145  1.607451 -0.000009 2.419038
time 199
0  -307.210388 -68.140205 186.292145  1.607451 -0.000009 2.419038
time 200
0  -307.442047 -68.140205 186.292145  1.607451 -0.000009 2.419038
time 201
0  -307.673737 -68.140205 186.292145  1.607451 -0.000009 2.419038
time 202
0  -307.905396 -68.140205 186.292145  1.607451 -0.000009 2.419038
time 203
0  -308.137085 -68.140205 186.292145  1.607451 -0.000009 2.419038
time 204
0  -308.368774 -68.140205 186.292145  1.607451 -0.000009 2.419038
time 205
0  -308.600433 -68.140205 186.292145  1.607451 -0.000009 2.419038
time 206
0  -308.832123 -68.140205 186.292145  1.607451 -0.000009 2.419038
time 207
0  -309.063782 -68.140205 186.292145  1.607451 -0.000009 2.419038
time 208
0  -309.295471 -68.140205 186.292145  1.607451 -0.000009 2.419038
time 209
0  -309.527161 -68.140205 186.292145  1.607451 -0.000009 2.419038
time 210
0  -309.758820 -68.140205 186.292145  1.607451 -0.000009 2.419038
time 211
0  -309.990509 -68.140205 186.292145  1.607451 -0.000009 2.419038
time 212
0  -310.222168 -68.140205 186.292145  1.607451 -0.000009 2.419038
time 213
0  -310.453857 -68.140205 186.292145  1.607451 -0.000009 2.419038
time 214
0  -310.685547 -68.140205 186.292145  1.607451 -0.000009 2.419038
time 215
0  -310.917206 -68.140205 186.292145  1.607451 -0.000009 2.419038
time 216
0  -311.148895 -68.140205 186.292145  1.607451 -0.000009 2.419038
time 217
0  -311.380585 -68.140205 186.292145  1.607451 -0.000009 2.419038
time 218
0  -311.612244 -68.140205 186.292145  1.607451 -0.000009 2.419038
time 219
0  -311.843933 -68.140205 186.292145  1.607451 -0.000009 2.419038
time 220
0  -312.075592 -68.140205 186.292145  1.607451 -0.000009 2.419038
time 221
0  -312.307281 -68.140205 186.292145  1.607451 -0.000009 2.419038
time 222
0  -312.538971 -68.140205 186.292145  1.607451 -0.000009 2.419038
time 223
0  -312.770630 -68.140205 186.292145  1.607451 -0.000009 2.419038
time 224
0  -313.002319 -68.140205 186.292145  1.607451 -0.000009 2.419038
time 225
0  -313.233978 -68.140205 186.292145  1.607451 -0.000009 2.419038
time 226
0  -313.465668 -68.140205 186.292145  1.607451 -0.000009 2.419038
time 227
0  -313.697357 -68.140205 186.292145  1.607451 -0.000009 2.419038
time 228
0  -313.929016 -68.140205 186.292145  1.607451 -0.000009 2.419038
time 229
0  -314.160706 -68.140205 186.292145  1.607451 -0.000009 2.419038
time 230
0  -314.392395 -68.140205 186.292145  1.607451 -0.000009 2.419038
time 231
0  -314.624054 -68.140205 186.292145  1.607451 -0.000009 2.419038
time 232
0  -314.855743 -68.140205 186.292145  1.607451 -0.000009 2.419038
time 233
0  -315.087402 -68.140205 186.292145  1.607451 -0.000009 2.419038
time 234
0  -315.319092 -68.140205 186.292145  1.607451 -0.000009 2.419038
time 235
0  -315.550781 -68.140205 186.292145  1.607451 -0.000009 2.419038
time 236
0  -315.782440 -68.140205 186.292145  1.607451 -0.000009 2.419038
time 237
0  -316.014130 -68.140205 186.292145  1.607451 -0.000009 2.419038
time 238
0  -316.245789 -68.140205 186.292145  1.607451 -0.000009 2.419038
time 239
0  -316.477478 -68.140205 186.292145  1.607451 -0.000009 2.419038
time 240
0  -316.709167 -68.140205 186.292145  1.607451 -0.000009 2.419038
time 241
0  -316.940826 -68.140205 186.292145  1.607451 -0.000009 2.419038
time 242
0  -317.172516 -68.140205 186.292145  1.607451 -0.000009 2.419038
time 243
0  -317.404175 -68.140205 186.292145  1.607451 -0.000009 2.419038
time 244
0  -317.635864 -68.140205 186.292145  1.607451 -0.000009 2.419038
time 245
0  -317.867554 -68.140205 186.292145  1.607451 -0.000009 2.419038
time 246
0  -318.099213 -68.140205 186.292145  1.607451 -0.000009 2.419038
time 247
0  -318.330902 -68.140205 186.292145  1.607451 -0.000009 2.419038
time 248
0  -318.562561 -68.140205 186.292145  1.607451 -0.000009 2.419038
time 249
0  -318.794250 -68.140205 186.292145  1.607451 -0.000009 2.419038
time 250
0  -319.025940 -68.140205 186.292145  1.607451 -0.000009 2.419038
time 251
0  -319.257599 -68.140205 186.292145  1.607451 -0.000009 2.419038
time 252
0  -319.489288 -68.140205 186.292145  1.607451 -0.000009 2.419038
time 253
0  -319.720978 -68.140205 186.292145  1.607451 -0.000009 2.419038
time 254
0  -319.952637 -68.140205 186.292145  1.607451 -0.000009 2.419038
time 255
0  -320.184326 -68.140205 186.292145  1.607451 -0.000009 2.419038
time 256
0  -320.415985 -68.140205 186.292145  1.607451 -0.000009 2.419038
time 257
0  -320.647675 -68.140205 186.292145  1.607451 -0.000009 2.419038
time 258
0  -320.879364 -68.140205 186.292145  1.607451 -0.000009 2.419038
time 259
0  -321.111023 -68.140205 186.292145  1.607451 -0.000009 2.419038
time 260
0  -321.342712 -68.140205 186.292145  1.607451 -0.000009 2.419038
time 261
0  -321.574402 -68.140205 186.292145  1.607451 -0.000009 2.419038
time 262
0  -321.806061 -68.140205 186.292145  1.607451 -0.000009 2.419038
time 263
0  -322.037750 -68.140205 186.292145  1.607451 -0.000009 2.419038
time 264
0  -322.269409 -68.140205 186.292145  1.607451 -0.000009 2.419038
time 265
0  -322.501099 -68.140205 186.292145  1.607451 -0.000009 2.419038
time 266
0  -322.732788 -68.140205 186.292145  1.607451 -0.000009 2.419038
time 267
0  -322.964447 -68.140205 186.292145  1.607451 -0.000009 2.419038
time 268
0  -323.196136 -68.140205 186.292145  1.607451 -0.000009 2.419038
time 269
0  -323.427795 -68.140205 186.292145  1.607451 -0.000009 2.419038
time 270
0  -323.659485 -68.140205 186.292145  1.607451 -0.000009 2.419038
time 271
0  -820.205200 -224.000000 640.000000  1.963576 -0.000027 1.570796
time 272
0  -820.205200 -224.000000 640.000000  1.963576 -0.000027 1.570796
time 273
0  -820.205200 -224.000000 640.000000  1.963576 -0.000027 1.570796
time 274
0  -820.205200 -224.000000 640.000000  1.963576 -0.000027 1.570796
time 275
0  -820.205200 -224.000000 640.000000  1.963576 -0.000027 1.570796
time 276
0  -820.205200 -224.000000 640.000000  1.963576 -0.000027 1.570796
time 277
0  -820.205200 -224.000000 640.000000  1.963576 -0.000027 1.570796
time 278
0  -820.205200 -224.000000 640.000000  1.963576 -0.000027 1.570796
time 279
0  -820.205200 -224.000000 640.000000  1.963576 -0.000027 1.570796
time 280
0  -820.205200 -224.000000 640.000000  1.963576 -0.000027 1.570796
time 281
0  -820.205200 -224.000000 640.000000  1.963576 -0.000027 1.570796
time 282
0  -820.205200 -224.000000 640.000000  1.963576 -0.000027 1.570796
time 283
0  -820.205200 -224.000000 640.000000  1.963576 -0.000027 1.570796
time 284
0  -820.205200 -224.000000 640.000000  1.963576 -0.000027 1.570796
time 285
0  -820.205200 -224.000000 640.000000  1.963576 -0.000027 1.570796
time 286
0  -820.205200 -224.000000 640.000000  1.963576 -0.000027 1.570796
time 287
0  -820.205200 -224.000000 640.000000  1.963576 -0.000027 1.570796
time 288
0  -820.205200 -224.000000 640.000000  1.963576 -0.000027 1.570796
time 289
0  -820.205200 -224.000000 640.000000  1.963576 -0.000027 1.570796
time 290
0  -820.205200 -224.000000 640.000000  1.963576 -0.000027 1.570796
time 291
0  -820.205200 -224.000000 640.000000  1.963576 -0.000027 1.570796
time 292
0  -820.205200 -224.000000 640.000000  1.963576 -0.000027 1.570796
time 293
0  -820.205200 -224.000000 640.000000  1.963576 -0.000027 1.570796
time 294
0  -820.205200 -224.000000 640.000000  1.963576 -0.000027 1.570796
time 295
0  -820.205200 -224.000000 640.000000  1.963576 -0.000027 1.570796
time 296
0  -820.205200 -224.000000 640.000000  1.963576 -0.000027 1.570796
time 297
0  -820.205200 -224.000000 640.000000  1.963576 -0.000027 1.570796
time 298
0  -820.205200 -224.000000 640.000000  1.963576 -0.000027 1.570796
time 299
0  -820.205200 -224.000000 640.000000  1.963576 -0.000027 1.570796
time 300
0  -820.205200 -224.000000 640.000000  1.963576 -0.000027 1.570796
time 301
0  -821.317139 -224.000000 640.000000  1.963576 -0.000027 1.570796
time 302
0  -822.429138 -224.000000 640.000000  1.963576 -0.000027 1.570796
time 303
0  -823.541077 -224.000000 640.000000  1.963576 -0.000027 1.570796
time 304
0  -824.653015 -224.000000 640.000000  1.963576 -0.000027 1.570796
time 305
0  -825.765015 -224.000000 640.000000  1.963576 -0.000027 1.570796
time 306
0  -826.876953 -224.000000 640.000000  1.963576 -0.000027 1.570796
time 307
0  -827.988892 -224.000000 640.000000  1.963576 -0.000027 1.570796
time 308
0  -829.100891 -224.000000 640.000000  1.963576 -0.000027 1.570796
time 309
0  -830.212830 -224.000000 640.000000  1.963576 -0.000027 1.570796
time 310
0  -831.324768 -224.000000 640.000000  1.963576 -0.000027 1.570796
time 311
0  -832.436768 -224.000000 640.000000  1.963576 -0.000027 1.570796
time 312
0  -833.548706 -224.000000 640.000000  1.963576 -0.000027 1.570796
time 313
0  -834.660645 -224.000000 640.000000  1.963576 -0.000027 1.570796
time 314
0  -835.772644 -224.000000 640.000000  1.963576 -0.000027 1.570796
time 315
0  -836.884583 -224.000000 640.000000  1.963576 -0.000027 1.570796
time 316
0  -837.996521 -224.000000 640.000000  1.963576 -0.000027 1.570796
time 317
0  -839.108521 -224.000000 640.000000  1.963576 -0.000027 1.570796
time 318
0  -840.220459 -224.000000 640.000000  1.963576 -0.000027 1.570796
time 319
0  -841.332397 -224.000000 640.000000  1.963576 -0.000027 1.570796
time 320
0  -842.444336 -224.000000 640.000000  1.963576 -0.000027 1.570796
time 321
0  -843.556335 -224.000000 640.000000  1.963576 -0.000027 1.570796
time 322
0  -844.668274 -224.000000 640.000000  1.963576 -0.000027 1.570796
time 323
0  -845.780212 -224.000000 640.000000  1.963576 -0.000027 1.570796
time 324
0  -846.892212 -224.000000 640.000000  1.963576 -0.000027 1.570796
time 325
0  -848.004150 -224.000000 640.000000  1.963576 -0.000027 1.570796
time 326
0  -849.116089 -224.000000 640.000000  1.963576 -0.000027 1.570796
time 327
0  -850.228088 -224.000000 640.000000  1.963576 -0.000027 1.570796
time 328
0  -851.340027 -224.000000 640.000000  1.963576 -0.000027 1.570796
time 329
0  -852.451965 -224.000000 640.000000  1.963576 -0.000027 1.570796
time 330
0  -853.563965 -224.000000 640.000000  1.963576 -0.000027 1.570796
time 331
0  -854.675903 -224.000000 640.000000  1.963576 -0.000027 1.570796
time 332
0  -855.787842 -224.000000 640.000000  1.963576 -0.000027 1.570796
time 333
0  -856.899841 -224.000000 640.000000  1.963576 -0.000027 1.570796
time 334
0  -858.011780 -224.000000 640.000000  1.963576 -0.000027 1.570796
time 335
0  -859.123718 -224.000000 640.000000  1.963576 -0.000027 1.570796
time 336
0  -860.235718 -224.000000 640.000000  1.963576 -0.000027 1.570796
time 337
0  -861.347656 -224.000000 640.000000  1.963576 -0.000027 1.570796
time 338
0  -862.459595 -224.000000 640.000000  1.963576 -0.000027 1.570796
time 339
0  -863.571594 -224.000000 640.000000  1.963576 -0.000027 1.570796
time 340
0  -864.683533 -224.000000 640.000000  1.963576 -0.000027 1.570796
time 341
0  -865.795471 -224.000000 640.000000  1.963576 -0.000027 1.570796
time 342
0  -866.907471 -224.000000 640.000000  1.963576 -0.000027 1.570796
time 343
0  -868.019409 -224.000000 640.000000  1.963576 -0.000027 1.570796
time 344
0  -869.131348 -224.000000 640.000000  1.963576 -0.000027 1.570796
time 345
0  -870.243347 -224.000000 640.000000  1.963576 -0.000027 1.570796
time 346
0  -871.355286 -224.000000 640.000000  1.963576 -0.000027 1.570796
time 347
0  -872.467224 -224.000000 640.000000  1.963576 -0.000027 1.570796
time 348
0  -873.579224 -224.000000 640.000000  1.963576 -0.000027 1.570796
time 349
0  -874.691162 -224.000000 640.000000  1.963576 -0.000027 1.570796
time 350
0  -875.803101 -224.000000 640.000000  1.963576 -0.000027 1.570796
time 351
0  -876.915100 -224.000000 640.000000  1.963576 -0.000027 1.570796
time 352
0  -878.027039 -224.000000 640.000000  1.963576 -0.000027 1.570796
time 353
0  -879.138977 -224.000000 640.000000  1.963576 -0.000027 1.570796
time 354
0  -880.250977 -224.000000 640.000000  1.963576 -0.000027 1.570796
time 355
0  -881.362915 -224.000000 640.000000  1.963576 -0.000027 1.570796
time 356
0  -882.474854 -224.000000 640.000000  1.963576 -0.000027 1.570796
time 357
0  -883.586853 -224.000000 640.000000  1.963576 -0.000027 1.570796
time 358
0  -884.698792 -224.000000 640.000000  1.963576 -0.000027 1.570796
time 359
0  -885.810730 -224.000000 640.000000  1.963576 -0.000027 1.570796
time 360
0  -886.922729 -224.000000 640.000000  1.963576 -0.000027 1.570796
time 361
0  -888.034668 -224.000000 640.000000  1.963576 -0.000027 1.570796
time 362
0  -889.146606 -224.000000 640.000000  1.963576 -0.000027 1.570796
time 363
0  -890.258545 -224.000000 640.000000  1.963576 -0.000027 1.570796
time 364
0  -891.370544 -224.000000 640.000000  1.963576 -0.000027 1.570796
time 365
0  -892.482483 -224.000000 640.000000  1.963576 -0.000027 1.570796
time 366
0  -893.594482 -224.000000 640.000000  1.963576 -0.000027 1.570796
time 367
0  -894.706421 -224.000000 640.000000  1.963576 -0.000027 1.570796
time 368
0  -895.818359 -224.000000 640.000000  1.963576 -0.000027 1.570796
time 369
0  -896.930298 -224.000000 640.000000  1.963576 -0.000027 1.570796
time 370
0  -898.042297 -224.000000 640.000000  1.963576 -0.000027 1.570796
time 371
0  -899.154236 -224.000000 640.000000  1.963576 -0.000027 1.570796
time 372
0  -900.266235 -224.000000 640.000000  1.963576 -0.000027 1.570796
time 373
0  -901.378174 -224.000000 640.000000  1.963576 -0.000027 1.570796
time 374
0  -902.490112 -224.000000 640.000000  1.963576 -0.000027 1.570796
time 375
0  -903.602051 -224.000000 640.000000  1.963576 -0.000027 1.570796
time 376
0  -904.714050 -224.000000 640.000000  1.963576 -0.000027 1.570796
time 377
0  -905.825989 -224.000000 640.000000  1.963576 -0.000027 1.570796
time 378
0  -906.937927 -224.000000 640.000000  1.963576 -0.000027 1.570796
time 379
0  -908.049927 -224.000000 640.000000  1.963576 -0.000027 1.570796
time 380
0  -909.161865 -224.000000 640.000000  1.963576 -0.000027 1.570796
time 381
0  -910.273804 -224.000000 640.000000  1.963576 -0.000027 1.570796
time 382
0  -911.385803 -224.000000 640.000000  1.963576 -0.000027 1.570796
time 383
0  -912.497742 -224.000000 640.000000  1.963576 -0.000027 1.570796
time 384
0  -913.609680 -224.000000 640.000000  1.963576 -0.000027 1.570796
time 385
0  -914.721680 -224.000000 640.000000  1.963576 -0.000027 1.570796
time 386
0  -915.833618 -224.000000 640.000000  1.963576 -0.000027 1.570796
time 387
0  -916.945557 -224.000000 640.000000  1.963576 -0.000027 1.570796
time 388
0  -918.057495 -224.000000 640.000000  1.963576 -0.000027 1.570796
time 389
0  -919.169495 -224.000000 640.000000  1.963576 -0.000027 1.570796
time 390
0  -920.281433 -224.000000 640.000000  1.963576 -0.000027 1.570796
time 391
0  -921.393433 -224.000000 640.000000  1.963576 -0.000027 1.570796
time 392
0  -922.505371 -224.000000 640.000000  1.963576 -0.000027 1.570796
time 393
0  -923.617310 -224.000000 640.000000  1.963576 -0.000027 1.570796
time 394
0  -924.729248 -224.000000 640.000000  1.963576 -0.000027 1.570796
time 395
0  -925.841248 -224.000000 640.000000  1.963576 -0.000027 1.570796
time 396
0  -926.953186 -224.000000 640.000000  1.963576 -0.000027 1.570796
time 397
0  -928.065186 -224.000000 640.000000  1.963576 -0.000027 1.570796
time 398
0  -929.177124 -224.000000 640.000000  1.963576 -0.000027 1.570796
time 399
0  -930.289062 -224.000000 640.000000  1.963576 -0.000027 1.570796
time 400
0  -931.401001 -224.000000 640.000000  1.963576 -0.000027 1.570796
time 401
0  -932.513000 -224.000000 640.000000  1.963576 -0.000027 1.570796
time 402
0  -933.624939 -224.000000 640.000000  1.963576 -0.000027 1.570796
time 403
0  -934.736938 -224.000000 640.000000  1.963576 -0.000027 1.570796
time 404
0  -935.848877 -224.000000 640.000000  1.963576 -0.000027 1.570796
time 405
0  -936.960815 -224.000000 640.000000  1.963576 -0.000027 1.570796
time 406
0  -938.072754 -224.000000 640.000000  1.963576 -0.000027 1.570796
time 407
0  -939.184753 -224.000000 640.000000  1.963576 -0.000027 1.570796
time 408
0  -940.296692 -224.000000 640.000000  1.963576 -0.000027 1.570796
time 409
0  -941.408691 -224.000000 640.000000  1.963576 -0.000027 1.570796
time 410
0  -942.520630 -224.000000 640.000000  1.963576 -0.000027 1.570796
time 411
0  -943.632568 -224.000000 640.000000  1.963576 -0.000027 1.570796
time 412
0  -944.744507 -224.000000 640.000000  1.963576 -0.000027 1.570796
time 413
0  -945.856506 -224.000000 640.000000  1.963576 -0.000027 1.570796
time 414
0  -946.968445 -224.000000 640.000000  1.963576 -0.000027 1.570796
time 415
0  -948.080383 -224.000000 640.000000  1.963576 -0.000027 1.570796
time 416
0  -949.192383 -224.000000 640.000000  1.963576 -0.000027 1.570796
time 417
0  -950.304321 -224.000000 640.000000  1.963576 -0.000027 1.570796
time 418
0  -951.416260 -224.000000 640.000000  1.963576 -0.000027 1.570796
time 419
0  -952.528259 -224.000000 640.000000  1.963576 -0.000027 1.570796
time 420
0  -953.640198 -224.000000 640.000000  1.963576 -0.000027 1.570796
time 421
0  -954.752136 -224.000000 640.000000  1.963580 -0.000027 1.570796
time 422
0  -955.864136 -224.000000 640.000000  1.963591 -0.000027 1.570796
time 423
0  -956.976074 -224.000000 640.000000  1.963610 -0.000027 1.570796
time 424
0  -958.088013 -224.000000 640.000000  1.963637 -0.000027 1.570796
time 425
0  -959.200012 -224.000000 640.000000  1.963671 -0.000027 1.570796
time 426
0  -960.311951 -224.000000 640.000000  1.963713 -0.000027 1.570796
time 427
0  -961.423889 -224.000000 640.000000  1.963762 -0.000027 1.570796
time 428
0  -962.535889 -224.000000 640.000000  1.963820 -0.000027 1.570796
time 429
0  -963.647827 -224.000000 640.000000  1.963884 -0.000027 1.570796
time 430
0  -964.759766 -224.000000 640.000000  1.963956 -0.000027 1.570796
time 431
0  -965.871704 -224.000000 640.000000  1.964036 -0.000027 1.570796
time 432
0  -966.983704 -224.000000 640.000000  1.964124 -0.000027 1.570796
time 433
0  -968.095642 -224.000000 640.000000  1.964218 -0.000027 1.570796
time 434
0  -969.207642 -224.000000 640.000000  1.964321 -0.000027 1.570796
time 435
0  -970.319580 -224.000000 640.000000  1.964431 -0.000027 1.570796
time 436
0  -971.431519 -224.000000 640.000000  1.964548 -0.000027 1.570796
time 437
0  -972.543457 -224.000000 640.000000  1.964673 -0.000027 1.570796
time 438
0  -973.655457 -224.000000 640.000000  1.964805 -0.000027 1.570796
time 439
0  -974.767395 -224.000000 640.000000  1.964945 -0.000027 1.570796
time 440
0  -975.879395 -224.000000 640.000000  1.965092 -0.000027 1.570796
time 441
0  -976.991333 -224.000000 640.000000  1.965247 -0.000027 1.570796
time 442
0  -978.103271 -224.000000 640.000000  1.965408 -0.000027 1.570796
time 443
0  -979.215210 -224.000000 640.000000  1.965577 -0.000027 1.570796
time 444
0  -980.327209 -224.000000 640.000000  1.965754 -0.000027 1.570796
time 445
0  -981.439148 -224.000000 640.000000  1.965937 -0.000027 1.570796
time 446
0  -982.551147 -224.000000 640.000000  1.966128 -0.000027 1.570796
time 447
0  -983.663086 -224.000000 640.000000  1.966326 -0.000027 1.570796
time 448
0  -984.775024 -224.000000 640.000000  1.966532 -0.000027 1.570796
time 449
0  -985.886963 -224.000000 640.000000  1.966744 -0.000027 1.570796
time 450
0  -986.998962 -224.000000 640.000000  1.966963 -0.000027 1.570796
time 451
0  -988.110901 -224.000000 640.000000  1.967190 -0.000027 1.570796
time 452
0  -989.222839 -224.000000 640.000000  1.967423 -0.000027 1.570796
time 453
0  -990.334839 -224.000000 640.000000  1.967664 -0.000027 1.570796
time 454
0  -991.446777 -224.000000 640.000000  1.967911 -0.000027 1.570796
time 455
0  -992.558716 -224.000000 640.000000  1.968165 -0.000027 1.570796
time 456
0  -993.670715 -224.000000 640.000000  1.968426 -0.000027 1.570796
time 457
0  -994.782654 -224.000000 640.000000  1.968694 -0.000027 1.570796
time 458
0  -995.894653 -224.000000 640.000000  1.968969 -0.000027 1.570796
time 459
0  -997.006592 -224.000000 640.000000  1.969250 -0.000027 1.570796
time 460
0  -998.118530 -224.000000 640.000000  1.969538 -0.000027 1.570796
time 461
0  -999.230469 -224.000000 640.000000  1.969833 -0.000027 1.570796
time 462
0  -1000.342407 -224.000000 640.000000  1.970134 -0.000027 1.570796
time 463
0  -1001.454407 -224.000000 640.000000  1.970441 -0.000027 1.570796
time 464
0  -1002.566345 -224.000000 640.000000  1.970755 -0.000027 1.570796
time 465
0  -1003.678345 -224.000000 640.000000  1.971076 -0.000027 1.570796
time 466
0  -1004.790283 -224.000000 640.000000  1.971403 -0.000027 1.570796
time 467
0  -1005.902222 -224.000000 640.000000  1.971736 -0.000027 1.570796
time 468
0  -1007.014221 -224.000000 640.000000  1.972075 -0.000027 1.570796
time 469
0  -1008.126160 -224.000000 640.000000  1.972420 -0.000027 1.570796
time 470
0  -1009.238098 -224.000000 640.000000  1.972772 -0.000027 1.570796
time 471
0  -1010.350098 -224.000000 640.000000  1.973130 -0.000027 1.570796
time 472
0  -1011.462036 -224.000000 640.000000  1.973493 -0.000027 1.570796
time 473
0  -1012.573975 -224.000000 640.000000  1.973863 -0.000027 1.570796
time 474
0  -1013.685913 -224.000000 640.000000  1.974238 -0.000027 1.570796
time 475
0  -1014.797913 -224.000000 640.000000  1.974620 -0.000027 1.570796
time 476
0  -1015.909851 -224.000000 640.000000  1.975006 -0.000027 1.570796
time 477
0  -1017.021851 -224.000000 640.000000  1.975399 -0.000027 1.570796
time 478
0  -1018.133789 -224.000000 640.000000  1.975797 -0.000027 1.570796
time 479
0  -1019.245728 -224.000000 640.000000  1.976201 -0.000027 1.570796
time 480
0  -1020.357666 -224.000000 640.000000  1.976610 -0.000027 1.570796
time 481
0  -1021.469666 -224.000000 640.000000  1.977025 -0.000027 1.570796
time 482
0  -1022.581604 -224.000000 640.000000  1.977445 -0.000027 1.570796
time 483
0  -1023.693604 -224.000000 640.000000  1.977870 -0.000027 1.570796
time 484
0  -1024.805542 -224.000000 640.000000  1.978300 -0.000027 1.570796
time 485
0  -1025.917480 -224.000000 640.000000  1.978736 -0.000027 1.570796
time 486
0  -1027.029419 -224.000000 640.000000  1.979176 -0.000027 1.570796
time 487
0  -1028.141357 -224.000000 640.000000  1.979622 -0.000027 1.570796
time 488
0  -1029.253418 -224.000000 640.000000  1.980072 -0.000027 1.570796
time 489
0  -1030.365356 -224.000000 640.000000  1.980527 -0.000027 1.570796
time 490
0  -1031.477295 -224.000000 640.000000  1.980987 -0.000027 1.570796
time 491
0  -1032.589233 -224.000000 640.000000  1.981451 -0.000027 1.570796
time 492
0  -1033.701172 -224.000000 640.000000  1.981920 -0.000027 1.570796
time 493
0  -1034.813110 -224.000000 640.000000  1.982394 -0.000027 1.570796
time 494
0  -1035.925049 -224.000000 640.000000  1.982872 -0.000027 1.570796
time 495
0  -1037.037109 -224.000000 640.000000  1.983354 -0.000027 1.570796
time 496
0  -1038.149048 -224.000000 640.000000  1.983841 -0.000027 1.570796
time 497
0  -1039.260986 -224.000000 640.000000  1.984331 -0.000027 1.570796
time 498
0  -1040.372925 -224.000000 640.000000  1.984826 -0.000027 1.570796
time 499
0  -1041.484863 -224.000000 640.000000  1.985325 -0.000027 1.570796
time 500
0  -1042.596924 -224.000000 640.000000  1.985827 -0.000027 1.570796
time 501
0  -1043.708862 -224.000000 640.000000  1.986333 -0.000027 1.570796
time 502
0  -1044.820801 -224.000000 640.000000  1.986844 -0.000027 1.570796
time 503
0  -1045.932739 -224.000000 640.000000  1.987357 -0.000027 1.570796
time 504
0  -1047.044678 -224.000000 640.000000  1.987875 -0.000027 1.570796
time 505
0  -1048.156616 -224.000000 640.000000  1.988395 -0.000027 1.570796
time 506
0  -1049.268555 -224.000000 640.000000  1.988920 -0.000027 1.570796
time 507
0  -1050.380615 -224.000000 640.000000  1.989447 -0.000027 1.570796
time 508
0  -1051.492554 -224.000000 640.000000  1.989978 -0.000027 1.570796
time 509
0  -1052.604492 -224.000000 640.000000  1.990511 -0.000027 1.570796
time 510
0  -1053.716431 -224.000000 640.000000  1.991048 -0.000027 1.570796
time 511
0  -1054.828369 -224.000000 640.000000  1.991588 -0.000027 1.570796
time 512
0  -1055.940308 -224.000000 640.000000  1.992130 -0.000027 1.570796
time 513
0  -1057.052368 -224.000000 640.000000  1.992675 -0.000027 1.570796
time 514
0  -1058.164307 -224.000000 640.000000  1.993223 -0.000027 1.570796
time 515
0  -1059.276245 -224.000000 640.000000  1.993774 -0.000027 1.570796
time 516
0  -1060.388184 -224.000000 640.000000  1.994326 -0.000027 1.570796
time 517
0  -1061.500122 -224.000000 640.000000  1.994882 -0.000027 1.570796
time 518
0  -1062.612061 -224.000000 640.000000  1.995439 -0.000027 1.570796
time 519
0  -1063.724121 -224.000000 640.000000  1.995999 -0.000027 1.570796
time 520
0  -1064.836060 -224.000000 640.000000  1.996560 -0.000027 1.570796
time 521
0  -1065.947998 -224.000000 640.000000  1.997124 -0.000027 1.570796
time 522
0  -1067.059937 -224.000000 640.000000  1.997690 -0.000027 1.570796
time 523
0  -1068.171875 -224.000000 640.000000  1.998257 -0.000027 1.570795
time 524
0  -1069.283813 -224.000000 640.000000  1.998826 -0.000027 1.570795
time 525
0  -1070.395874 -224.000000 640.000000  1.999397 -0.000027 1.570795
time 526
0  -1071.507812 -224.000000 640.000000  1.999969 -0.000027 1.570795
time 527
0  -1072.619751 -224.000000 640.000000  2.000542 -0.000027 1.570795
time 528
0  -1073.731689 -224.000000 640.000000  2.001117 -0.000027 1.570795
time 529
0  -1074.843628 -224.000000 640.000000  2.001693 -0.000027 1.570795
time 530
0  -1075.955566 -224.000000 640.000000  2.002270 -0.000027 1.570795
time 531
0  -1077.067627 -224.000000 640.000000  2.002848 -0.000027 1.570795
time 532
0  -1078.179565 -224.000000 640.000000  2.003427 -0.000027 1.570795
time 533
0  -1079.291504 -224.000000 640.000000  2.004006 -0.000027 1.570795
time 534
0  -1080.403442 -224.000000 640.000000  2.004587 -0.000027 1.570795
time 535
0  -1081.515381 -224.000000 640.000000  2.005168 -0.000027 1.570795
time 536
0  -1082.627441 -224.000000 640.000000  2.005749 -0.000027 1.570795
time 537
0  -1083.739258 -224.000000 640.000000  2.006331 -0.000027 1.570795
time 538
0  -1084.851318 -224.000000 640.000000  2.006914 -0.000027 1.570795
time 539
0  -1085.963257 -224.000000 640.000000  2.007496 -0.000027 1.570795
end
