version 1
nodes
0 "cam" -1
end
skeleton
time 0
0  124.568596 196.231049 -64.110611  1.379770 -0.000030 2.275039
time 1
0  124.568596 196.231049 -64.110611  1.379770 -0.000030 2.275039
time 2
0  124.568596 196.231049 -64.110611  1.379770 -0.000030 2.275039
time 3
0  124.568596 196.231049 -64.110611  1.379770 -0.000030 2.275039
time 4
0  124.568596 196.231049 -64.110611  1.379770 -0.000030 2.275039
time 5
0  124.568596 196.231049 -64.110611  1.379770 -0.000030 2.275039
time 6
0  124.568596 196.231049 -64.110611  1.379770 -0.000030 2.275039
time 7
0  124.568596 196.231049 -64.110611  1.379770 -0.000030 2.275039
time 8
0  124.568596 196.231049 -64.110611  1.379770 -0.000030 2.275039
time 9
0  124.568596 196.231049 -64.110611  1.379770 -0.000030 2.275039
time 10
0  124.568596 196.231049 -64.110611  1.379770 -0.000030 2.275039
time 11
0  124.568596 196.231049 -64.110611  1.379770 -0.000030 2.275039
time 12
0  124.568596 196.231049 -64.110611  1.379770 -0.000030 2.275039
time 13
0  124.568596 196.231049 -64.110611  1.379770 -0.000030 2.275039
time 14
0  124.568596 196.231049 -64.110611  1.379770 -0.000030 2.275039
time 15
0  124.568596 196.231049 -64.110611  1.379770 -0.000030 2.275039
time 16
0  124.568596 196.231049 -64.110611  1.379770 -0.000030 2.275039
time 17
0  124.568596 196.231049 -64.110611  1.379770 -0.000030 2.275039
time 18
0  124.568596 196.231049 -64.110611  1.379770 -0.000030 2.275039
time 19
0  124.568596 196.231049 -64.110611  1.379770 -0.000030 2.275039
time 20
0  124.568596 196.231049 -64.110611  1.379770 -0.000030 2.275039
time 21
0  124.568596 196.231049 -64.110611  1.379770 -0.000030 2.275039
time 22
0  124.568596 196.231049 -64.110611  1.379770 -0.000030 2.275039
time 23
0  124.568596 196.231049 -64.110611  1.379770 -0.000030 2.275039
time 24
0  124.568596 196.231049 -64.110611  1.379770 -0.000030 2.275039
time 25
0  124.568596 196.231049 -64.110611  1.379770 -0.000030 2.275039
time 26
0  124.568596 196.231049 -64.110611  1.379770 -0.000030 2.275039
time 27
0  124.568596 196.231049 -64.110611  1.379770 -0.000030 2.275039
time 28
0  124.568596 196.231049 -64.110611  1.379770 -0.000030 2.275039
time 29
0  124.568596 196.231049 -64.110611  1.379770 -0.000030 2.275039
time 30
0  124.568596 196.231049 -64.110611  1.379770 -0.000030 2.275039
time 31
0  124.610023 196.159561 -64.110611  1.379770 -0.000030 2.275039
time 32
0  124.651451 196.088058 -64.110611  1.379770 -0.000030 2.275039
time 33
0  124.692879 196.016571 -64.110611  1.379770 -0.000030 2.275039
time 34
0  124.734306 195.945084 -64.110611  1.379770 -0.000030 2.275039
time 35
0  124.775734 195.873581 -64.110611  1.379770 -0.000030 2.275039
time 36
0  124.817154 195.802094 -64.110611  1.379770 -0.000030 2.275039
time 37
0  124.858582 195.730606 -64.110611  1.379770 -0.000030 2.275039
time 38
0  124.900009 195.659103 -64.110611  1.379770 -0.000030 2.275039
time 39
0  124.941437 195.587616 -64.110611  1.379770 -0.000030 2.275039
time 40
0  124.982864 195.516113 -64.110611  1.379770 -0.000030 2.275039
time 41
0  125.024292 195.444626 -64.110611  1.379770 -0.000030 2.275039
time 42
0  125.065720 195.373138 -64.110611  1.379770 -0.000030 2.275039
time 43
0  125.107147 195.301636 -64.110611  1.379770 -0.000030 2.275039
time 44
0  125.148575 195.230148 -64.110611  1.379770 -0.000030 2.275039
time 45
0  125.190002 195.158661 -64.110611  1.379770 -0.000030 2.275039
time 46
0  125.231430 195.087158 -64.110611  1.379770 -0.000030 2.275039
time 47
0  125.272858 195.015671 -64.110611  1.379770 -0.000030 2.275039
time 48
0  125.314278 194.944183 -64.110611  1.379770 -0.000030 2.275039
time 49
0  125.355705 194.872681 -64.110611  1.379770 -0.000030 2.275039
time 50
0  125.397133 194.801193 -64.110611  1.379770 -0.000030 2.275039
time 51
0  125.438560 194.729706 -64.110611  1.379770 -0.000030 2.275039
time 52
0  125.479988 194.658203 -64.110611  1.379770 -0.000030 2.275039
time 53
0  125.521416 194.586716 -64.110611  1.379770 -0.000030 2.275039
time 54
0  125.562843 194.515228 -64.110611  1.379770 -0.000030 2.275039
time 55
0  125.604271 194.443726 -64.110611  1.379770 -0.000030 2.275039
time 56
0  125.645699 194.372238 -64.110611  1.379770 -0.000030 2.275039
time 57
0  125.687126 194.300735 -64.110611  1.379770 -0.000030 2.275039
time 58
0  125.728554 194.229248 -64.110611  1.379770 -0.000030 2.275039
time 59
0  125.769974 194.157761 -64.110611  1.379770 -0.000030 2.275039
time 60
0  125.811401 194.086258 -64.110611  1.379770 -0.000030 2.275039
time 61
0  125.852829 194.014771 -64.110611  1.379770 -0.000030 2.275039
time 62
0  125.894257 193.943283 -64.110611  1.379770 -0.000030 2.275039
time 63
0  125.935684 193.871780 -64.110611  1.379770 -0.000030 2.275039
time 64
0  125.977112 193.800293 -64.110611  1.379770 -0.000030 2.275039
time 65
0  126.018539 193.728806 -64.110611  1.379770 -0.000030 2.275039
time 66
0  126.059967 193.657303 -64.110611  1.379770 -0.000030 2.275039
time 67
0  126.101395 193.585815 -64.110611  1.379770 -0.000030 2.275039
time 68
0  126.142822 193.514328 -64.110611  1.379770 -0.000030 2.275039
time 69
0  126.184250 193.442825 -64.110611  1.379770 -0.000030 2.275039
time 70
0  126.225677 193.371338 -64.110611  1.379770 -0.000030 2.275039
time 71
0  126.267097 193.299835 -64.110611  1.379770 -0.000030 2.275039
time 72
0  126.308525 193.228348 -64.110611  1.379770 -0.000030 2.275039
time 73
0  126.349953 193.156860 -64.110611  1.379770 -0.000030 2.275039
time 74
0  126.391380 193.085358 -64.110611  1.379770 -0.000030 2.275039
time 75
0  126.432808 193.013870 -64.110611  1.379770 -0.000030 2.275039
time 76
0  126.474236 192.942383 -64.110611  1.379770 -0.000030 2.275039
time 77
0  126.515663 192.870880 -64.110611  1.379770 -0.000030 2.275039
time 78
0  126.557091 192.799393 -64.110611  1.379770 -0.000030 2.275039
time 79
0  126.598518 192.727905 -64.110611  1.379770 -0.000030 2.275039
time 80
0  126.639946 192.656403 -64.110611  1.379770 -0.000030 2.275039
time 81
0  126.681374 192.584915 -64.110611  1.379770 -0.000030 2.275039
time 82
0  126.722794 192.513428 -64.110611  1.379770 -0.000030 2.275039
time 83
0  126.764221 192.441925 -64.110611  1.379770 -0.000030 2.275039
time 84
0  126.805649 192.370438 -64.110611  1.379770 -0.000030 2.275039
time 85
0  126.847076 192.298950 -64.110611  1.379770 -0.000030 2.275039
time 86
0  126.888504 192.227448 -64.110611  1.379770 -0.000030 2.275039
time 87
0  126.929932 192.155960 -64.110611  1.379770 -0.000030 2.275039
time 88
0  126.971359 192.084457 -64.110611  1.379770 -0.000030 2.275039
time 89
0  127.012787 192.012970 -64.110611  1.379770 -0.000030 2.275039
time 90
0  127.054214 191.941483 -64.110611  1.379770 -0.000030 2.275039
time 91
0  127.095642 191.869980 -64.110611  1.379770 -0.000030 2.275034
time 92
0  127.137070 191.798492 -64.110611  1.379770 -0.000030 2.275020
time 93
0  127.178497 191.727005 -64.110611  1.379770 -0.000030 2.274997
time 94
0  127.219917 191.655502 -64.110611  1.379770 -0.000030 2.274965
time 95
0  127.261345 191.584015 -64.110611  1.379770 -0.000030 2.274923
time 96
0  127.302773 191.512527 -64.110611  1.379770 -0.000030 2.274873
time 97
0  127.344200 191.441025 -64.110611  1.379770 -0.000030 2.274812
time 98
0  127.385628 191.369537 -64.110611  1.379770 -0.000030 2.274743
time 99
0  127.427055 191.298050 -64.110611  1.379770 -0.000030 2.274665
time 100
0  127.468483 191.226547 -64.110611  1.379770 -0.000030 2.274577
time 101
0  127.509911 191.155060 -64.110611  1.379770 -0.000030 2.274480
time 102
0  127.551338 191.083557 -64.110611  1.379770 -0.000030 2.274374
time 103
0  127.592766 191.012070 -64.110611  1.379770 -0.000030 2.274259
time 104
0  127.634193 190.940582 -64.110611  1.379770 -0.000030 2.274135
time 105
0  127.675613 190.869080 -64.110611  1.379770 -0.000030 2.274001
time 106
0  127.717041 190.797592 -64.110611  1.379770 -0.000030 2.273858
time 107
0  127.758469 190.726105 -64.110611  1.379770 -0.000030 2.273706
time 108
0  127.799896 190.654602 -64.110611  1.379770 -0.000030 2.273545
time 109
0  127.841324 190.583115 -64.110611  1.379770 -0.000030 2.273375
time 110
0  127.882751 190.511627 -64.110611  1.379770 -0.000030 2.273196
time 111
0  127.924179 190.440125 -64.110611  1.379770 -0.000030 2.273007
time 112
0  127.965607 190.368637 -64.110611  1.379770 -0.000030 2.272810
time 113
0  128.007034 190.297150 -64.110611  1.379770 -0.000030 2.272604
time 114
0  128.048462 190.225647 -64.110611  1.379770 -0.000030 2.272388
time 115
0  128.089890 190.154160 -64.110611  1.379770 -0.000030 2.272163
time 116
0  128.131317 190.082672 -64.110611  1.379770 -0.000030 2.271930
time 117
0  128.172745 190.011169 -64.110611  1.379770 -0.000030 2.271687
time 118
0  128.214172 189.939682 -64.110611  1.379770 -0.000030 2.271435
time 119
0  128.255600 189.868179 -64.110611  1.379770 -0.000030 2.271175
time 120
0  128.297028 189.796692 -64.110611  1.379770 -0.000030 2.270905
time 121
0  128.338455 189.725204 -64.110611  1.379770 -0.000030 2.270627
time 122
0  128.379868 189.653702 -64.110611  1.379770 -0.000030 2.270339
time 123
0  128.421295 189.582214 -64.110611  1.379770 -0.000030 2.270043
time 124
0  128.462723 189.510727 -64.110611  1.379770 -0.000030 2.269738
time 125
0  128.504150 189.439224 -64.110611  1.379770 -0.000030 2.269424
time 126
0  128.545578 189.367737 -64.110611  1.379770 -0.000030 2.269102
time 127
0  128.587006 189.296249 -64.110611  1.379770 -0.000030 2.268770
time 128
0  128.628433 189.224747 -64.110611  1.379770 -0.000030 2.268430
time 129
0  128.669861 189.153259 -64.110611  1.379770 -0.000030 2.268081
time 130
0  128.711288 189.081772 -64.110611  1.379770 -0.000030 2.267723
time 131
0  128.752716 189.010269 -64.110611  1.379770 -0.000030 2.267357
time 132
0  128.794144 188.938782 -64.110611  1.379770 -0.000030 2.266982
time 133
0  128.835571 188.867294 -64.110611  1.379770 -0.000030 2.266598
time 134
0  128.876999 188.795792 -64.110611  1.379770 -0.000030 2.266206
time 135
0  128.918427 188.724304 -64.110611  1.379770 -0.000030 2.265805
time 136
0  128.959854 188.652802 -64.110611  1.379770 -0.000030 2.265395
time 137
0  129.001282 188.581314 -64.110611  1.379770 -0.000030 2.264978
time 138
0  129.042709 188.509827 -64.110611  1.379770 -0.000030 2.264551
time 139
0  129.084137 188.438324 -64.110611  1.379770 -0.000030 2.264117
time 140
0  129.125565 188.366837 -64.110611  1.379770 -0.000030 2.263673
time 141
0  129.166992 188.295349 -64.110611  1.379770 -0.000030 2.263222
time 142
0  129.208420 188.223846 -64.110611  1.379770 -0.000030 2.262762
time 143
0  129.249847 188.152359 -64.110611  1.379770 -0.000030 2.262294
time 144
0  129.291260 188.080872 -64.110611  1.379770 -0.000030 2.261817
time 145
0  129.332687 188.009369 -64.110611  1.379770 -0.000030 2.261333
time 146
0  129.374115 187.937881 -64.110611  1.379770 -0.000030 2.260839
time 147
0  129.415543 187.866394 -64.110611  1.379770 -0.000030 2.260339
time 148
0  129.456970 187.794891 -64.110611  1.379770 -0.000030 2.259829
time 149
0  129.498398 187.723404 -64.110611  1.379770 -0.000030 2.259312
time 150
0  129.539825 187.651901 -64.110611  1.379770 -0.000030 2.258787
time 151
0  129.581253 187.580414 -64.110603  1.379770 -0.000030 2.258254
time 152
0  129.622681 187.508926 -64.110603  1.379770 -0.000030 2.257712
time 153
0  129.664108 187.437424 -64.110603  1.379770 -0.000030 2.257163
time 154
0  129.705536 187.365936 -64.110603  1.379770 -0.000030 2.256606
time 155
0  129.746964 187.294449 -64.110603  1.379770 -0.000030 2.256041
time 156
0  129.788391 187.222946 -64.110603  1.379770 -0.000030 2.255468
time 157
0  129.829819 187.151459 -64.110603  1.379770 -0.000030 2.254888
time 158
0  129.871246 187.079971 -64.110603  1.379770 -0.000030 2.254300
time 159
0  129.912674 187.008469 -64.110603  1.379770 -0.000030 2.253704
time 160
0  129.954102 186.936981 -64.110603  1.379770 -0.000030 2.253101
time 161
0  129.995529 186.865494 -64.110603  1.379770 -0.000030 2.252490
time 162
0  130.036957 186.793991 -64.110603  1.379770 -0.000030 2.251871
time 163
0  130.078384 186.722504 -64.110603  1.379770 -0.000030 2.251245
time 164
0  130.119812 186.651016 -64.110603  1.379770 -0.000030 2.250612
time 165
0  130.161240 186.579514 -64.110603  1.379770 -0.000030 2.249971
time 166
0  130.202667 186.508026 -64.110603  1.379770 -0.000030 2.249323
time 167
0  130.244080 186.436523 -64.110603  1.379770 -0.000030 2.248668
time 168
0  130.285507 186.365036 -64.110603  1.379770 -0.000030 2.248005
time 169
0  130.326935 186.293549 -64.110603  1.379770 -0.000030 2.247335
time 170
0  130.368362 186.222046 -64.110603  1.379770 -0.000030 2.246659
time 171
0  130.409790 186.150558 -64.110603  1.379770 -0.000030 2.245975
time 172
0  130.451218 186.079071 -64.110603  1.379770 -0.000030 2.245283
time 173
0  130.492645 186.007568 -64.110603  1.379770 -0.000030 2.244586
time 174
0  130.534073 185.936081 -64.110603  1.379770 -0.000030 2.243881
time 175
0  130.575500 185.864594 -64.110603  1.379770 -0.000030 2.243169
time 176
0  130.616928 185.793091 -64.110603  1.379770 -0.000030 2.242450
time 177
0  130.658356 185.721603 -64.110603  1.379770 -0.000030 2.241725
time 178
0  130.699783 185.650116 -64.110603  1.379770 -0.000030 2.240993
time 179
0  130.741211 185.578613 -64.110603  1.379770 -0.000030 2.240254
time 180
0  130.782639 185.507126 -64.110603  1.379770 -0.000030 2.239509
time 181
0  130.824066 185.435638 -64.110603  1.379770 -0.000030 2.238757
time 182
0  130.865494 185.364136 -64.110603  1.379770 -0.000030 2.237999
time 183
0  130.906921 185.292648 -64.110603  1.379770 -0.000030 2.237234
time 184
0  130.948349 185.221146 -64.110603  1.379770 -0.000030 2.236463
time 185
0  130.989777 185.149658 -64.110603  1.379770 -0.000030 2.235686
time 186
0  131.031204 185.078171 -64.110603  1.379770 -0.000030 2.234902
time 187
0  131.072632 185.006668 -64.110603  1.379770 -0.000030 2.234113
time 188
0  131.114059 184.935181 -64.110603  1.379770 -0.000030 2.233317
time 189
0  131.155487 184.863693 -64.110603  1.379770 -0.000030 2.232515
time 190
0  131.196899 184.792191 -64.110603  1.379770 -0.000030 2.231707
time 191
0  131.238327 184.720703 -64.110603  1.379770 -0.000030 2.230893
time 192
0  131.279755 184.649216 -64.110603  1.379770 -0.000030 2.230073
time 193
0  131.321182 184.577713 -64.110603  1.379770 -0.000030 2.229247
time 194
0  131.362610 184.506226 -64.110603  1.379770 -0.000030 2.228416
time 195
0  131.404037 184.434738 -64.110603  1.379770 -0.000030 2.227579
time 196
0  131.445465 184.363235 -64.110603  1.379770 -0.000030 2.226737
time 197
0  131.486893 184.291748 -64.110603  1.379770 -0.000030 2.225888
time 198
0  131.528320 184.220261 -64.110603  1.379770 -0.000030 2.225034
time 199
0  131.569748 184.148758 -64.110603  1.379770 -0.000030 2.224175
time 200
0  131.611176 184.077271 -64.110603  1.379770 -0.000030 2.223311
time 201
0  131.652603 184.005768 -64.110603  1.379770 -0.000030 2.222441
time 202
0  131.694031 183.934280 -64.110603  1.379770 -0.000030 2.221566
time 203
0  131.735458 183.862793 -64.110603  1.379770 -0.000030 2.220686
time 204
0  131.776886 183.791290 -64.110603  1.379770 -0.000030 2.219801
time 205
0  131.818314 183.719803 -64.110603  1.379770 -0.000030 2.218910
time 206
0  131.859741 183.648315 -64.110603  1.379770 -0.000030 2.218015
time 207
0  131.901169 183.576813 -64.110603  1.379770 -0.000030 2.217115
time 208
0  131.942596 183.505325 -64.110603  1.379770 -0.000030 2.216210
time 209
0  131.984024 183.433838 -64.110603  1.379770 -0.000030 2.215300
time 210
0  132.025452 183.362335 -64.110603  1.379770 -0.000030 2.214386
time 211
0  132.066879 183.290848 -64.110603  1.379770 -0.000030 2.213467
time 212
0  132.108307 183.219360 -64.110603  1.379770 -0.000030 2.212543
time 213
0  132.149719 183.147858 -64.110603  1.379770 -0.000030 2.211615
time 214
0  132.191147 183.076370 -64.110603  1.379770 -0.000030 2.210682
time 215
0  132.232574 183.004868 -64.110603  1.379770 -0.000030 2.209745
time 216
0  132.274002 182.933380 -64.110603  1.379770 -0.000030 2.208804
time 217
0  132.315430 182.861893 -64.110603  1.379770 -0.000030 2.207859
time 218
0  132.356857 182.790390 -64.110603  1.379770 -0.000030 2.206910
time 219
0  132.398285 182.718903 -64.110603  1.379770 -0.000030 2.205956
time 220
0  132.439713 182.647415 -64.110603  1.379770 -0.000030 2.204999
time 221
0  132.481140 182.575912 -64.110603  1.379770 -0.000030 2.204037
time 222
0  132.522568 182.504425 -64.110603  1.379770 -0.000030 2.203072
time 223
0  132.563995 182.432938 -64.110603  1.379770 -0.000030 2.202103
time 224
0  132.605423 182.361435 -64.110603  1.379770 -0.000030 2.201131
time 225
0  132.646851 182.289948 -64.110603  1.379770 -0.000030 2.200154
time 226
0  132.688278 182.218460 -64.110603  1.379770 -0.000030 2.199175
time 227
0  132.729706 182.146957 -64.110603  1.379770 -0.000030 2.198191
time 228
0  132.771133 182.075470 -64.110603  1.379770 -0.000030 2.197205
time 229
0  132.812561 182.003983 -64.110603  1.379770 -0.000030 2.196215
time 230
0  132.853989 181.932480 -64.110603  1.379770 -0.000030 2.195222
time 231
0  132.895416 181.860992 -64.110603  1.379770 -0.000030 2.194225
time 232
0  132.936844 181.789490 -64.110603  1.379770 -0.000030 2.193226
time 233
0  132.978271 181.718002 -64.110603  1.379770 -0.000030 2.192224
time 234
0  133.019699 181.646515 -64.110603  1.379770 -0.000030 2.191218
time 235
0  133.061127 181.575012 -64.110603  1.379770 -0.000030 2.190210
time 236
0  133.102539 181.503525 -64.110603  1.379770 -0.000030 2.189199
time 237
0  133.143967 181.432037 -64.110603  1.379770 -0.000030 2.188185
time 238
0  133.185394 181.360535 -64.110603  1.379770 -0.000030 2.187169
time 239
0  133.226822 181.289047 -64.110603  1.379770 -0.000030 2.186150
time 240
0  133.268250 181.217560 -64.110603  1.379770 -0.000030 2.185129
time 241
0  133.309677 181.146057 -64.110603  1.379770 -0.000030 2.184105
time 242
0  133.351105 181.074570 -64.110603  1.379770 -0.000030 2.183079
time 243
0  133.392532 181.003082 -64.110603  1.379770 -0.000030 2.182051
time 244
0  133.433960 180.931580 -64.110603  1.379770 -0.000030 2.181020
time 245
0  133.475388 180.860092 -64.110603  1.379770 -0.000030 2.179988
time 246
0  133.516815 180.788589 -64.110603  1.379770 -0.000030 2.178953
time 247
0  133.558243 180.717102 -64.110603  1.379770 -0.000030 2.177917
time 248
0  133.599670 180.645615 -64.110603  1.379770 -0.000030 2.176879
time 249
0  133.641098 180.574112 -64.110603  1.379770 -0.000030 2.175839
time 250
0  133.682526 180.502625 -64.110603  1.379770 -0.000030 2.174797
time 251
0  133.723953 180.431137 -64.110603  1.379770 -0.000030 2.173754
time 252
0  133.765381 180.359634 -64.110603  1.379770 -0.000030 2.172709
time 253
0  133.806808 180.288147 -64.110603  1.379770 -0.000030 2.171663
time 254
0  133.848236 180.216660 -64.110603  1.379770 -0.000030 2.170615
time 255
0  133.889664 180.145157 -64.110603  1.379770 -0.000030 2.169566
time 256
0  133.931091 180.073669 -64.110603  1.379770 -0.000030 2.168516
time 257
0  133.972519 180.002182 -64.110603  1.379770 -0.000030 2.167465
time 258
0  134.013947 179.930679 -64.110603  1.379770 -0.000030 2.166413
time 259
0  134.055359 179.859192 -64.110603  1.379770 -0.000030 2.165359
time 260
0  134.096786 179.787689 -64.110603  1.379770 -0.000030 2.164305
time 261
0  134.138214 179.716202 -64.110603  1.379770 -0.000030 2.163250
time 262
0  134.179642 179.644714 -64.110603  1.379770 -0.000030 2.162194
time 263
0  134.221069 179.573212 -64.110603  1.379770 -0.000030 2.161138
time 264
0  134.262497 179.501724 -64.110603  1.379770 -0.000030 2.160081
time 265
0  134.303925 179.430237 -64.110603  1.379770 -0.000030 2.159024
time 266
0  134.345352 179.358734 -64.110603  1.379770 -0.000030 2.157966
time 267
0  134.386780 179.287247 -64.110603  1.379770 -0.000030 2.156908
time 268
0  134.428207 179.215759 -64.110603  1.379770 -0.000030 2.155850
time 269
0  134.469635 179.144257 -64.110603  1.379770 -0.000030 2.154791
time 270
0  134.511063 179.072769 -64.110603  1.379770 -0.000030 2.153733
time 271
0  -256.000000 197.337067 64.000000  -1.570796 -3.141565 0.000000
time 272
0  -256.000000 197.337067 64.000000  -1.570796 -3.141565 0.000000
time 273
0  -256.000000 197.337067 64.000000  -1.570796 -3.141565 0.000000
time 274
0  -256.000000 197.337067 64.000000  -1.570796 -3.141565 0.000000
time 275
0  -256.000000 197.337067 64.000000  -1.570796 -3.141565 0.000000
time 276
0  -256.000000 197.337067 64.000000  -1.570796 -3.141565 0.000000
time 277
0  -256.000000 197.337067 64.000000  -1.570796 -3.141565 0.000000
time 278
0  -256.000000 197.337067 64.000000  -1.570796 -3.141565 0.000000
time 279
0  -256.000000 197.337067 64.000000  -1.570796 -3.141565 0.000000
time 280
0  -256.000000 197.337067 64.000000  -1.570796 -3.141565 0.000000
time 281
0  -256.000000 197.337067 64.000000  -1.570796 -3.141565 0.000000
time 282
0  -256.000000 197.337067 64.000000  -1.570796 -3.141565 0.000000
time 283
0  -256.000000 197.337067 64.000000  -1.570796 -3.141565 0.000000
time 284
0  -256.000000 197.337067 64.000000  -1.570796 -3.141565 0.000000
time 285
0  -256.000000 197.337067 64.000000  -1.570796 -3.141565 0.000000
time 286
0  -256.000000 197.337067 64.000000  -1.570796 -3.141565 0.000000
time 287
0  -256.000000 197.337067 64.000000  -1.570796 -3.141565 0.000000
time 288
0  -256.000000 197.337067 64.000000  -1.570796 -3.141565 0.000000
time 289
0  -256.000000 197.337067 64.000000  -1.570796 -3.141565 0.000000
time 290
0  -256.000000 197.337067 64.000000  -1.570796 -3.141565 0.000000
time 291
0  -256.000000 197.337067 64.000000  -1.570796 -3.141565 0.000000
time 292
0  -256.000000 197.337067 64.000000  -1.570796 -3.141565 0.000000
time 293
0  -256.000000 197.337067 64.000000  -1.570796 -3.141565 0.000000
time 294
0  -256.000000 197.337067 64.000000  -1.570796 -3.141565 0.000000
time 295
0  -256.000000 197.337067 64.000000  -1.570796 -3.141565 0.000000
time 296
0  -256.000000 197.337067 64.000000  -1.570796 -3.141565 0.000000
time 297
0  -256.000000 197.337067 64.000000  -1.570796 -3.141565 0.000000
time 298
0  -256.000000 197.337067 64.000000  -1.570796 -3.141565 0.000000
time 299
0  -256.000000 197.337067 64.000000  -1.570796 -3.141565 0.000000
time 300
0  -256.000000 197.337067 64.000000  -1.570796 -3.141565 0.000000
time 301
0  -256.000000 196.527466 64.000000  -1.570530 -3.141565 0.000000
time 302
0  -256.000000 195.717850 64.000000  -1.570264 -3.141565 0.000000
time 303
0  -256.000000 194.908249 64.000000  -1.569997 -3.141565 0.000000
time 304
0  -256.000000 194.098633 64.000000  -1.569731 -3.141565 0.000000
time 305
0  -256.000000 193.289032 64.000000  -1.569465 -3.141565 0.000000
time 306
0  -256.000000 192.479416 64.000000  -1.569198 -3.141565 0.000000
time 307
0  -256.000000 191.669815 64.000000  -1.568932 -3.141565 0.000000
time 308
0  -256.000000 190.860199 64.000000  -1.568666 -3.141565 0.000000
time 309
0  -256.000000 190.050598 64.000000  -1.568400 -3.141565 0.000000
time 310
0  -256.000000 189.240997 64.000000  -1.568133 -3.141565 0.000000
time 311
0  -256.000000 188.431381 64.000000  -1.567867 -3.141565 0.000000
time 312
0  -256.000000 187.621780 64.000000  -1.567601 -3.141565 0.000000
time 313
0  -256.000000 186.812164 64.000000  -1.567334 -3.141565 0.000000
time 314
0  -256.000000 186.002563 64.000000  -1.567068 -3.141565 0.000000
time 315
0  -256.000000 185.192947 64.000000  -1.566802 -3.141565 0.000000
time 316
0  -256.000000 184.383347 64.000000  -1.566536 -3.141565 0.000000
time 317
0  -256.000000 183.573746 64.000000  -1.566269 -3.141565 0.000000
time 318
0  -256.000000 182.764130 64.000000  -1.566003 -3.141565 -0.000000
time 319
0  -256.000000 181.954529 64.000000  -1.565737 -3.141565 -0.000000
time 320
0  -256.000000 181.144913 64.000000  -1.565470 -3.141565 -0.000000
time 321
0  -256.000000 180.335312 64.000000  -1.565204 -3.141565 -0.000000
time 322
0  -256.000000 179.525696 64.000000  -1.564938 -3.141565 -0.000000
time 323
0  -256.000000 178.716095 64.000000  -1.564672 -3.141565 -0.000000
time 324
0  -256.000000 177.906494 64.000000  -1.564405 -3.141565 -0.000000
time 325
0  -256.000000 177.096878 64.000000  -1.564139 -3.141565 -0.000000
time 326
0  -256.000000 176.287277 64.000000  -1.563873 -3.141565 -0.000000
time 327
0  -256.000000 175.477661 64.000000  -1.563606 -3.141565 -0.000000
time 328
0  -256.000000 174.668060 64.000000  -1.563340 -3.141565 -0.000000
time 329
0  -256.000000 173.858444 64.000000  -1.563074 -3.141565 -0.000000
time 330
0  -256.000000 173.048843 64.000000  -1.562808 -3.141565 -0.000000
time 331
0  -256.000000 172.239227 64.000000  -1.562541 -3.141565 -0.000000
time 332
0  -256.000000 171.429626 64.000000  -1.562275 -3.141565 -0.000000
time 333
0  -256.000000 170.620026 64.000000  -1.562009 -3.141565 -0.000000
time 334
0  -256.000000 169.810410 64.000000  -1.561742 -3.141565 -0.000000
time 335
0  -256.000000 169.000809 64.000000  -1.561476 -3.141565 -0.000000
time 336
0  -256.000000 168.191193 64.000000  -1.561210 -3.141565 -0.000000
time 337
0  -256.000000 167.381592 64.000000  -1.560943 -3.141565 -0.000000
time 338
0  -256.000000 166.571976 64.000000  -1.560677 -3.141565 -0.000000
time 339
0  -256.000000 165.762375 64.000000  -1.560411 -3.141565 -0.000000
time 340
0  -256.000000 164.952759 64.000000  -1.560145 -3.141565 -0.000000
time 341
0  -256.000000 164.143158 64.000000  -1.559878 -3.141565 -0.000000
time 342
0  -256.000000 163.333557 64.000000  -1.559612 -3.141565 -0.000000
time 343
0  -256.000000 162.523941 64.000000  -1.559346 -3.141565 -0.000000
time 344
0  -256.000000 161.714340 64.000000  -1.559079 -3.141565 -0.000000
time 345
0  -256.000000 160.904724 64.000000  -1.558813 -3.141565 -0.000000
time 346
0  -256.000000 160.095123 64.000000  -1.558547 -3.141565 -0.000000
time 347
0  -256.000000 159.285507 64.000000  -1.558281 -3.141565 -0.000000
time 348
0  -256.000000 158.475906 64.000000  -1.558014 -3.141565 -0.000000
time 349
0  -256.000000 157.666290 64.000000  -1.557748 -3.141565 -0.000000
time 350
0  -256.000000 156.856689 64.000000  -1.557482 -3.141565 -0.000000
time 351
0  -256.000000 156.047089 64.000000  -1.557215 -3.141565 -0.000000
time 352
0  -256.000000 155.237473 64.000000  -1.556949 -3.141565 -0.000000
time 353
0  -256.000000 154.427872 64.000000  -1.556683 -3.141565 -0.000000
time 354
0  -256.000000 153.618256 64.000000  -1.556417 -3.141565 -0.000000
time 355
0  -256.000000 152.808655 64.000000  -1.556150 -3.141565 -0.000000
time 356
0  -256.000000 151.999054 64.000000  -1.555884 -3.141565 -0.000000
time 357
0  -256.000000 151.189438 64.000000  -1.555618 -3.141565 -0.000000
time 358
0  -256.000000 150.379837 64.000000  -1.555351 -3.141565 -0.000000
time 359
0  -256.000000 149.570221 64.000000  -1.555085 -3.141565 -0.000000
time 360
0  -256.000000 148.760620 64.000000  -1.554819 -3.141565 -0.000000
time 361
0  -256.000000 147.951004 64.000000  -1.554552 -3.141565 -0.000000
time 362
0  -256.000000 147.141403 64.000000  -1.554286 -3.141565 -0.000000
time 363
0  -256.000000 146.331787 64.000000  -1.554020 -3.141565 -0.000000
time 364
0  -256.000000 145.522186 64.000000  -1.553754 -3.141565 -0.000000
time 365
0  -256.000000 144.712585 64.000000  -1.553487 -3.141565 -0.000000
time 366
0  -256.000000 143.902969 64.000000  -1.553221 -3.141565 -0.000000
time 367
0  -256.000000 143.093369 64.000000  -1.552955 -3.141565 -0.000000
time 368
0  -256.000000 142.283752 64.000000  -1.552688 -3.141565 -0.000000
time 369
0  -256.000000 141.474152 64.000000  -1.552422 -3.141565 -0.000000
time 370
0  -256.000000 140.664536 64.000000  -1.552156 -3.141565 -0.000000
time 371
0  -256.000000 139.854935 64.000000  -1.551890 -3.141565 -0.000000
time 372
0  -256.000000 139.045319 64.000000  -1.551623 -3.141565 -0.000000
time 373
0  -256.000000 138.235718 64.000000  -1.551357 -3.141565 -0.000000
time 374
0  -256.000000 137.426117 64.000000  -1.551091 -3.141565 -0.000000
time 375
0  -256.000000 136.616501 64.000000  -1.550824 -3.141565 -0.000000
time 376
0  -256.000000 135.806900 64.000000  -1.550558 -3.141565 -0.000000
time 377
0  -256.000000 134.997284 64.000000  -1.550292 -3.141565 -0.000000
time 378
0  -256.000000 134.187683 64.000000  -1.550026 -3.141565 -0.000000
time 379
0  -256.000000 133.378082 64.000000  -1.549759 -3.141565 -0.000000
time 380
0  -256.000000 132.568466 64.000000  -1.549493 -3.141565 -0.000000
time 381
0  -256.000000 131.758850 64.000000  -1.549227 -3.141565 -0.000000
time 382
0  -256.000000 130.949249 64.000000  -1.548960 -3.141565 -0.000000
time 383
0  -256.000000 130.139648 64.000000  -1.548694 -3.141565 -0.000000
time 384
0  -256.000000 129.330032 64.000000  -1.548428 -3.141565 -0.000000
time 385
0  -256.000000 128.520432 64.000000  -1.548162 -3.141565 -0.000000
time 386
0  -256.000000 127.710823 64.000000  -1.547895 -3.141565 -0.000001
time 387
0  -256.000000 126.901207 64.000000  -1.547629 -3.141565 -0.000001
time 388
0  -256.000000 126.091606 64.000000  -1.547363 -3.141565 -0.000001
time 389
0  -256.000000 125.281998 64.000000  -1.547096 -3.141565 -0.000001
time 390
0  -256.000000 124.472397 64.000000  -1.546830 -3.141565 -0.000001
time 391
0  -256.000000 123.662781 64.000000  -1.546564 -3.141565 -0.000001
time 392
0  -256.000000 122.853180 64.000000  -1.546297 -3.141565 -0.000001
time 393
0  -256.000000 122.043571 64.000000  -1.546031 -3.141565 -0.000001
time 394
0  -256.000000 121.233955 64.000000  -1.545765 -3.141565 -0.000001
time 395
0  -256.000000 120.424355 64.000000  -1.545499 -3.141565 -0.000001
time 396
0  -256.000000 119.614746 64.000000  -1.545232 -3.141565 -0.000001
time 397
0  -256.000000 118.805138 64.000000  -1.544966 -3.141565 -0.000001
time 398
0  -256.000000 117.995529 64.000000  -1.544700 -3.141565 -0.000001
time 399
0  -256.000000 117.185928 64.000000  -1.544433 -3.141565 -0.000001
time 400
0  -256.000000 116.376320 64.000000  -1.544167 -3.141565 -0.000001
time 401
0  -256.000000 115.566704 64.000000  -1.543901 -3.141565 -0.000001
time 402
0  -256.000000 114.757103 64.000000  -1.543635 -3.141565 -0.000001
time 403
0  -256.000000 113.947495 64.000000  -1.543368 -3.141565 -0.000001
time 404
0  -256.000000 113.137886 64.000000  -1.543102 -3.141565 -0.000001
time 405
0  -256.000000 112.328278 64.000000  -1.542836 -3.141565 -0.000001
time 406
0  -256.000000 111.518677 64.000000  -1.542569 -3.141565 -0.000001
time 407
0  -256.000000 110.709061 64.000000  -1.542303 -3.141565 -0.000001
time 408
0  -256.000000 109.899452 64.000000  -1.542037 -3.141565 -0.000001
time 409
0  -256.000000 109.089851 64.000000  -1.541770 -3.141565 -0.000001
time 410
0  -256.000000 108.280235 64.000000  -1.541504 -3.141565 -0.000001
time 411
0  -256.000000 107.470634 64.000000  -1.541238 -3.141565 -0.000001
time 412
0  -256.000000 106.661026 64.000000  -1.540972 -3.141565 -0.000001
time 413
0  -256.000000 105.851425 64.000000  -1.540705 -3.141565 -0.000001
time 414
0  -256.000000 105.041809 64.000000  -1.540439 -3.141565 -0.000001
time 415
0  -256.000000 104.232201 64.000000  -1.540173 -3.141565 -0.000001
time 416
0  -256.000000 103.422600 64.000000  -1.539907 -3.141565 -0.000001
time 417
0  -256.000000 102.612984 64.000000  -1.539640 -3.141565 -0.000001
time 418
0  -256.000000 101.803383 64.000000  -1.539374 -3.141565 -0.000001
time 419
0  -256.000000 100.993774 64.000000  -1.539108 -3.141565 -0.000001
time 420
0  -256.000000 100.184166 64.000000  -1.538841 -3.141565 -0.000001
time 421
0  -256.000000 99.374557 64.000000  -1.538575 -3.141565 -0.000001
time 422
0  -256.000000 98.564949 64.000000  -1.538309 -3.141565 -0.000001
time 423
0  -256.000000 97.755348 64.000000  -1.538042 -3.141565 -0.000001
time 424
0  -256.000000 96.945732 64.000000  -1.537776 -3.141565 -0.000001
time 425
0  -256.000000 96.136131 64.000000  -1.537510 -3.141565 -0.000001
time 426
0  -256.000000 95.326523 64.000000  -1.537244 -3.141565 -0.000001
time 427
0  -256.000000 94.516914 64.000000  -1.536977 -3.141565 -0.000001
time 428
0  -256.000000 93.707306 64.000000  -1.536711 -3.141565 -0.000001
time 429
0  -256.000000 92.897697 64.000000  -1.536445 -3.141565 -0.000001
time 430
0  -256.000000 92.088089 64.000000  -1.536178 -3.141565 -0.000001
time 431
0  -256.000000 91.278481 64.000000  -1.535912 -3.141565 -0.000001
time 432
0  -256.000000 90.468880 64.000000  -1.535646 -3.141565 -0.000001
time 433
0  -256.000000 89.659264 64.000000  -1.535380 -3.141565 -0.000001
time 434
0  -256.000000 88.849663 64.000000  -1.535113 -3.141565 -0.000001
time 435
0  -256.000000 88.040054 64.000000  -1.534847 -3.141565 -0.000001
time 436
0  -256.000000 87.230446 64.000000  -1.534581 -3.141565 -0.000001
time 437
0  -256.000000 86.420837 64.000000  -1.534314 -3.141565 -0.000001
time 438
0  -256.000000 85.611229 64.000000  -1.534048 -3.141565 -0.000001
time 439
0  -256.000000 84.801628 64.000000  -1.533782 -3.141565 -0.000001
time 440
0  -256.000000 83.992012 64.000000  -1.533515 -3.141565 -0.000001
time 441
0  -256.000000 83.182411 64.000000  -1.533249 -3.141565 -0.000001
time 442
0  -256.000000 82.372803 64.000000  -1.532983 -3.141565 -0.000001
time 443
0  -256.000000 81.563187 64.000000  -1.532717 -3.141565 -0.000001
time 444
0  -256.000000 80.753586 64.000000  -1.532450 -3.141565 -0.000001
time 445
0  -256.000000 79.943977 64.000000  -1.532184 -3.141565 -0.000001
time 446
0  -256.000000 79.134377 64.000000  -1.531918 -3.141565 -0.000001
time 447
0  -256.000000 78.324760 64.000000  -1.531651 -3.141565 -0.000001
time 448
0  -256.000000 77.515160 64.000000  -1.531385 -3.141565 -0.000001
time 449
0  -256.000000 76.705551 64.000000  -1.531119 -3.141565 -0.000001
time 450
0  -256.000000 75.895935 64.000000  -1.530853 -3.141565 -0.000001
time 451
0  -256.000000 75.086334 64.000000  -1.530586 -3.141565 -0.000001
time 452
0  -256.000000 74.276726 64.000000  -1.530320 -3.141565 -0.000001
time 453
0  -256.000000 73.467117 64.000000  -1.530054 -3.141565 -0.000001
time 454
0  -256.000000 72.657509 64.000000  -1.529787 -3.141565 -0.000001
time 455
0  -256.000000 71.847908 64.000000  -1.529521 -3.141565 -0.000001
time 456
0  -256.000000 71.038292 64.000000  -1.529255 -3.141565 -0.000001
time 457
0  -256.000000 70.228683 64.000000  -1.528988 -3.141565 -0.000001
time 458
0  -256.000000 69.419083 64.000000  -1.528722 -3.141565 -0.000001
time 459
0  -256.000000 68.609467 64.000000  -1.528456 -3.141565 -0.000001
time 460
0  -256.000000 67.799866 64.000000  -1.528190 -3.141565 -0.000001
time 461
0  -256.000000 66.990250 64.000000  -1.527923 -3.141565 -0.000001
time 462
0  -256.000000 66.180649 64.000000  -1.527657 -3.141565 -0.000001
time 463
0  -256.000000 65.371048 64.000000  -1.527391 -3.141565 -0.000001
time 464
0  -256.000000 64.561432 64.000000  -1.527125 -3.141565 -0.000001
time 465
0  -256.000000 63.751831 64.000000  -1.526858 -3.141565 -0.000001
time 466
0  -256.000000 62.942215 64.000000  -1.526592 -3.141565 -0.000001
time 467
0  -256.000000 62.132614 64.000000  -1.526326 -3.141565 -0.000001
time 468
0  -256.000000 61.322998 64.000000  -1.526059 -3.141565 -0.000001
time 469
0  -256.000000 60.513397 64.000000  -1.525793 -3.141565 -0.000001
time 470
0  -256.000000 59.703796 64.000000  -1.525527 -3.141565 -0.000001
time 471
0  -256.000000 58.894180 64.000000  -1.525260 -3.141565 -0.000001
time 472
0  -256.000000 58.084579 64.000000  -1.524994 -3.141565 -0.000001
time 473
0  -256.000000 57.274979 64.000000  -1.524728 -3.141565 -0.000001
time 474
0  -256.000000 56.465347 64.000000  -1.524462 -3.141565 -0.000001
time 475
0  -256.000000 55.655746 64.000000  -1.524195 -3.141565 -0.000001
time 476
0  -256.000000 54.846146 64.000000  -1.523929 -3.141565 -0.000001
time 477
0  -256.000000 54.036545 64.000000  -1.523663 -3.141565 -0.000001
time 478
0  -256.000000 53.226929 64.000000  -1.523396 -3.141565 -0.000001
time 479
0  -256.000000 52.417328 64.000000  -1.523130 -3.141565 -0.000001
time 480
0  -256.000000 51.607727 64.000000  -1.522864 -3.141565 -0.000001
time 481
0  -256.000000 50.798096 64.000000  -1.522598 -3.141565 -0.000001
time 482
0  -256.000000 49.988495 64.000000  -1.522331 -3.141565 -0.000001
time 483
0  -256.000000 49.178894 64.000000  -1.522065 -3.141565 -0.000001
time 484
0  -256.000000 48.369293 64.000000  -1.521799 -3.141565 -0.000001
time 485
0  -256.000000 47.559677 64.000000  -1.521532 -3.141565 -0.000001
time 486
0  -256.000000 46.750076 64.000000  -1.521266 -3.141565 -0.000001
time 487
0  -256.000000 45.940475 64.000000  -1.521000 -3.141565 -0.000001
time 488
0  -256.000000 45.130844 64.000000  -1.520733 -3.141565 -0.000001
time 489
0  -256.000000 44.321243 64.000000  -1.520467 -3.141565 -0.000001
time 490
0  -256.000000 43.511642 64.000000  -1.520201 -3.141565 -0.000001
time 491
0  -256.000000 42.702042 64.000000  -1.519935 -3.141565 -0.000001
time 492
0  -256.000000 41.892426 64.000000  -1.519668 -3.141565 -0.000001
time 493
0  -256.000000 41.082825 64.000000  -1.519402 -3.141565 -0.000001
time 494
0  -256.000000 40.273209 64.000000  -1.519136 -3.141565 -0.000001
time 495
0  -256.000000 39.463593 64.000000  -1.518870 -3.141565 -0.000001
time 496
0  -256.000000 38.653992 64.000000  -1.518603 -3.141565 -0.000001
time 497
0  -256.000000 37.844391 64.000000  -1.518337 -3.141565 -0.000001
time 498
0  -256.000000 37.034790 64.000000  -1.518071 -3.141565 -0.000001
time 499
0  -256.000000 36.225174 64.000000  -1.517804 -3.141565 -0.000001
time 500
0  -256.000000 35.415573 64.000000  -1.517538 -3.141565 -0.000001
time 501
0  -256.000000 34.605957 64.000000  -1.517272 -3.141565 -0.000001
time 502
0  -256.000000 33.796341 64.000000  -1.517005 -3.141565 -0.000001
time 503
0  -256.000000 32.986740 64.000000  -1.516739 -3.141565 -0.000001
time 504
0  -256.000000 32.177139 64.000000  -1.516473 -3.141565 -0.000001
time 505
0  -256.000000 31.367538 64.000000  -1.516207 -3.141565 -0.000001
time 506
0  -256.000000 30.557922 64.000000  -1.515940 -3.141565 -0.000001
time 507
0  -256.000000 29.748306 64.000000  -1.515674 -3.141565 -0.000001
time 508
0  -256.000000 28.938705 64.000000  -1.515408 -3.141565 -0.000001
time 509
0  -256.000000 28.129089 64.000000  -1.515141 -3.141565 -0.000001
time 510
0  -256.000000 27.319489 64.000000  -1.514875 -3.141565 -0.000001
time 511
0  -256.000000 26.509888 64.000000  -1.514609 -3.141565 -0.000001
time 512
0  -256.000000 25.700287 64.000000  -1.514343 -3.141565 -0.000001
time 513
0  -256.000000 24.890671 64.000000  -1.514076 -3.141565 -0.000001
time 514
0  -256.000000 24.081055 64.000000  -1.513810 -3.141565 -0.000001
time 515
0  -256.000000 23.271454 64.000000  -1.513544 -3.141565 -0.000001
time 516
0  -256.000000 22.461838 64.000000  -1.513277 -3.141565 -0.000001
time 517
0  -256.000000 21.652237 64.000000  -1.513011 -3.141565 -0.000001
time 518
0  -256.000000 20.842636 64.000000  -1.512745 -3.141565 -0.000001
time 519
0  -256.000000 20.033035 64.000000  -1.512478 -3.141565 -0.000001
time 520
0  -256.000000 19.223404 64.000000  -1.512212 -3.141565 -0.000001
time 521
0  -256.000000 18.413803 64.000000  -1.511946 -3.141565 -0.000001
time 522
0  -256.000000 17.604202 64.000000  -1.511680 -3.141565 -0.000001
time 523
0  -256.000000 16.794586 64.000000  -1.511413 -3.141565 -0.000002
time 524
0  -256.000000 15.984985 64.000000  -1.511147 -3.141565 -0.000002
time 525
0  -256.000000 15.175385 64.000000  -1.510881 -3.141565 -0.000002
time 526
0  -256.000000 14.365784 64.000000  -1.510614 -3.141565 -0.000002
time 527
0  -256.000000 13.556152 64.000000  -1.510348 -3.141565 -0.000002
time 528
0  -256.000000 12.746552 64.000000  -1.510082 -3.141565 -0.000002
time 529
0  -256.000000 11.936951 64.000000  -1.509816 -3.141565 -0.000002
time 530
0  -256.000000 11.127335 64.000000  -1.509549 -3.141565 -0.000002
time 531
0  -256.000000 10.317734 64.000000  -1.509283 -3.141565 -0.000002
time 532
0  -256.000000 9.508133 64.000000  -1.509017 -3.141565 -0.000002
time 533
0  -256.000000 8.698532 64.000000  -1.508750 -3.141565 -0.000002
time 534
0  -256.000000 7.888901 64.000000  -1.508484 -3.141565 -0.000002
time 535
0  -256.000000 7.079300 64.000000  -1.508218 -3.141565 -0.000002
time 536
0  -256.000000 6.269699 64.000000  -1.507951 -3.141565 -0.000002
time 537
0  -256.000000 5.460083 64.000000  -1.507685 -3.141565 -0.000002
time 538
0  -256.000000 4.650482 64.000000  -1.507419 -3.141565 -0.000002
time 539
0  -256.000000 3.840881 64.000000  -1.507153 -3.141565 -0.000002
end
