version 1
nodes
0 "cam" -1
end
skeleton
time 0
0  519.332825 192.000000 64.000000  1.570796 0.000000 1.570796
time 1
0  519.332825 192.000000 64.000000  1.570796 0.000000 1.570796
time 2
0  519.332825 192.000000 64.000000  1.570796 0.000000 1.570796
time 3
0  519.332825 192.000000 64.000000  1.570796 0.000000 1.570796
time 4
0  519.332825 192.000000 64.000000  1.570796 0.000000 1.570796
time 5
0  519.332825 192.000000 64.000000  1.570796 0.000000 1.570796
time 6
0  519.332825 192.000000 64.000000  1.570796 0.000000 1.570796
time 7
0  519.332825 192.000000 64.000000  1.570796 0.000000 1.570796
time 8
0  519.332825 192.000000 64.000000  1.570796 0.000000 1.570796
time 9
0  519.332825 192.000000 64.000000  1.570796 0.000000 1.570796
time 10
0  519.332825 192.000000 64.000000  1.570796 0.000000 1.570796
time 11
0  519.332825 192.000000 64.000000  1.570796 0.000000 1.570796
time 12
0  519.332825 192.000000 64.000000  1.570796 0.000000 1.570796
time 13
0  519.332825 192.000000 64.000000  1.570796 0.000000 1.570796
time 14
0  519.332825 192.000000 64.000000  1.570796 0.000000 1.570796
time 15
0  519.332825 192.000000 64.000000  1.570796 0.000000 1.570796
time 16
0  519.332825 192.000000 64.000000  1.570796 0.000000 1.570796
time 17
0  519.332825 192.000000 64.000000  1.570796 0.000000 1.570796
time 18
0  519.332825 192.000000 64.000000  1.570796 0.000000 1.570796
time 19
0  519.332825 192.000000 64.000000  1.570796 0.000000 1.570796
time 20
0  519.332825 192.000000 64.000000  1.570796 0.000000 1.570796
time 21
0  519.332825 192.000000 64.000000  1.570796 0.000000 1.570796
time 22
0  519.332825 192.000000 64.000000  1.570796 0.000000 1.570796
time 23
0  519.332825 192.000000 64.000000  1.570796 0.000000 1.570796
time 24
0  519.332825 192.000000 64.000000  1.570796 0.000000 1.570796
time 25
0  519.332825 192.000000 64.000000  1.570796 0.000000 1.570796
time 26
0  519.332825 192.000000 64.000000  1.570796 0.000000 1.570796
time 27
0  519.332825 192.000000 64.000000  1.570796 0.000000 1.570796
time 28
0  519.332825 192.000000 64.000000  1.570796 0.000000 1.570796
time 29
0  519.332825 192.000000 64.000000  1.570796 0.000000 1.570796
time 30
0  519.332825 192.000000 64.000000  1.570796 0.000000 1.570796
time 31
0  519.988037 192.000000 64.000000  1.570932 -0.000000 1.570796
time 32
0  520.643188 192.000000 64.000000  1.571068 0.000000 1.570796
time 33
0  521.298401 192.000000 64.000000  1.571203 -0.000000 1.570796
time 34
0  521.953552 192.000000 64.000000  1.571339 0.000000 1.570796
time 35
0  522.608765 192.000000 64.000000  1.571475 0.000000 1.570796
time 36
0  523.263916 192.000000 64.000000  1.571610 0.000000 1.570796
time 37
0  523.919128 192.000000 64.000000  1.571746 -0.000000 1.570796
time 38
0  524.574280 192.000000 64.000000  1.571881 -0.000000 1.570796
time 39
0  525.229492 192.000000 64.000000  1.572017 -0.000000 1.570796
time 40
0  525.884644 192.000000 64.000000  1.572152 -0.000000 1.570796
time 41
0  526.539856 192.000000 64.000000  1.572287 -0.000000 1.570796
time 42
0  527.195068 192.000000 64.000000  1.572423 0.000000 1.570796
time 43
0  527.850220 192.000000 64.000000  1.572558 -0.000000 1.570796
time 44
0  528.505432 192.000000 64.000000  1.572693 0.000000 1.570796
time 45
0  529.160583 192.000000 64.000000  1.572828 -0.000000 1.570796
time 46
0  529.815796 192.000000 64.000000  1.572962 0.000000 1.570796
time 47
0  530.470947 192.000000 64.000000  1.573097 0.000000 1.570796
time 48
0  531.126160 192.000000 64.000000  1.573231 0.000000 1.570796
time 49
0  531.781311 192.000000 64.000000  1.573366 -0.000000 1.570796
time 50
0  532.436523 192.000000 64.000000  1.573500 -0.000000 1.570796
time 51
0  533.091675 192.000000 64.000000  1.573634 0.000000 1.570796
time 52
0  533.746887 192.000000 64.000000  1.573768 0.000000 1.570796
time 53
0  534.402100 192.000000 64.000000  1.573901 -0.000000 1.570796
time 54
0  535.057251 192.000000 64.000000  1.574035 0.000000 1.570796
time 55
0  535.712463 192.000000 64.000000  1.574168 0.000000 1.570796
time 56
0  536.367615 192.000000 64.000000  1.574301 0.000000 1.570796
time 57
0  537.022827 192.000000 64.000000  1.574434 0.000000 1.570796
time 58
0  537.677979 192.000000 64.000000  1.574567 0.000000 1.570796
time 59
0  538.333191 192.000000 64.000000  1.574699 -0.000000 1.570796
time 60
0  538.988342 192.000000 64.000000  1.574831 0.000000 1.570796
time 61
0  539.643555 192.000000 64.000000  1.574963 0.000000 1.570796
time 62
0  540.298706 192.000000 64.000000  1.575095 0.000000 1.570796
time 63
0  540.953918 192.000000 64.000000  1.575226 -0.000000 1.570796
time 64
0  541.609131 192.000000 64.000000  1.575357 -0.000000 1.570796
time 65
0  542.264282 192.000000 64.000000  1.575488 -0.000000 1.570796
time 66
0  542.919495 192.000000 64.000000  1.575619 0.000000 1.570796
time 67
0  543.574646 192.000000 64.000000  1.575749 0.000000 1.570796
time 68
0  544.229858 192.000000 64.000000  1.575879 -0.000000 1.570796
time 69
0  544.885010 192.000000 64.000000  1.576009 0.000000 1.570796
time 70
0  545.540222 192.000000 64.000000  1.576138 -0.000000 1.570796
time 71
0  546.195374 192.000000 64.000000  1.576267 0.000000 1.570796
time 72
0  546.850586 192.000000 64.000000  1.576396 -0.000000 1.570796
time 73
0  547.505737 192.000000 64.000000  1.576524 0.000000 1.570796
time 74
0  548.160950 192.000000 64.000000  1.576652 0.000000 1.570796
time 75
0  548.816162 192.000000 64.000000  1.576780 0.000000 1.570796
time 76
0  549.471313 192.000000 64.000000  1.576907 -0.000000 1.570796
time 77
0  550.126526 192.000000 64.000000  1.577034 0.000000 1.570796
time 78
0  550.781677 192.000000 64.000000  1.577161 -0.000000 1.570796
time 79
0  551.436890 192.000000 64.000000  1.577287 -0.000000 1.570796
time 80
0  552.092041 192.000000 64.000000  1.577413 -0.000000 1.570796
time 81
0  552.747253 192.000000 64.000000  1.577538 0.000000 1.570796
time 82
0  553.402405 192.000000 64.000000  1.577663 -0.000000 1.570796
time 83
0  554.057617 192.000000 64.000000  1.577788 -0.000000 1.570796
time 84
0  554.712769 192.000000 64.000000  1.577912 -0.000000 1.570796
time 85
0  555.367981 192.000000 64.000000  1.578035 -0.000000 1.570796
time 86
0  556.023193 192.000000 64.000000  1.578159 -0.000000 1.570796
time 87
0  556.678345 192.000000 64.000000  1.578282 -0.000000 1.570796
time 88
0  557.333557 192.000000 64.000000  1.578404 -0.000000 1.570796
time 89
0  557.988708 192.000000 64.000000  1.578526 -0.000000 1.570796
time 90
0  558.643921 192.000000 64.000000  1.578647 0.000000 1.570796
time 91
0  559.299072 192.000000 64.000000  1.578768 0.000000 1.570796
time 92
0  559.954285 192.000000 64.000000  1.578889 -0.000000 1.570796
time 93
0  560.609436 192.000000 64.000000  1.579009 -0.000000 1.570796
time 94
0  561.264648 192.000000 64.000000  1.579128 0.000000 1.570796
time 95
0  561.919800 192.000000 64.000000  1.579247 -0.000000 1.570796
time 96
0  562.575012 192.000000 64.000000  1.579366 0.000000 1.570796
time 97
0  563.230225 192.000000 64.000000  1.579484 -0.000000 1.570796
time 98
0  563.885376 192.000000 64.000000  1.579601 0.000000 1.570796
time 99
0  564.540588 192.000000 64.000000  1.579718 -0.000000 1.570796
time 100
0  565.195740 192.000000 64.000000  1.579834 -0.000000 1.570796
time 101
0  565.850952 192.000000 64.000000  1.579950 -0.000000 1.570796
time 102
0  566.506104 192.000000 64.000000  1.580066 0.000000 1.570796
time 103
0  567.161316 192.000000 64.000000  1.580180 0.000000 1.570796
time 104
0  567.816467 192.000000 64.000000  1.580294 -0.000000 1.570796
time 105
0  568.471680 192.000000 64.000000  1.580408 0.000000 1.570796
time 106
0  569.126831 192.000000 64.000000  1.580521 0.000000 1.570796
time 107
0  569.782043 192.000000 64.000000  1.580633 -0.000000 1.570796
time 108
0  570.437256 192.000000 64.000000  1.580745 -0.000000 1.570796
time 109
0  571.092407 192.000000 64.000000  1.580856 -0.000000 1.570796
time 110
0  571.747620 192.000000 64.000000  1.580967 -0.000000 1.570796
time 111
0  572.402771 192.000000 64.000000  1.581077 0.000000 1.570796
time 112
0  573.057983 192.000000 64.000000  1.581186 0.000000 1.570796
time 113
0  573.713135 192.000000 64.000000  1.581295 -0.000000 1.570796
time 114
0  574.368347 192.000000 64.000000  1.581403 0.000000 1.570796
time 115
0  575.023499 192.000000 64.000000  1.581511 -0.000000 1.570796
time 116
0  575.678711 192.000000 64.000000  1.581617 0.000000 1.570796
time 117
0  576.333862 192.000000 64.000000  1.581724 -0.000000 1.570796
time 118
0  576.989075 192.000000 64.000000  1.581829 -0.000000 1.570796
time 119
0  577.644287 192.000000 64.000000  1.581934 -0.000000 1.570796
time 120
0  578.299438 192.000000 64.000000  1.582038 -0.000000 1.570796
time 121
0  578.954651 192.000000 64.000000  1.582142 0.000000 1.570796
time 122
0  579.609802 192.000000 64.000000  1.582244 0.000000 1.570796
time 123
0  580.265015 192.000000 64.000000  1.582347 0.000000 1.570796
time 124
0  580.920166 192.000000 64.000000  1.582448 -0.000000 1.570796
time 125
0  581.575378 192.000000 64.000000  1.582549 0.000000 1.570796
time 126
0  582.230530 192.000000 64.000000  1.582649 0.000000 1.570796
time 127
0  582.885742 192.000000 64.000000  1.582748 -0.000000 1.570796
time 128
0  583.540894 192.000000 64.000000  1.582846 -0.000000 1.570796
time 129
0  584.196106 192.000000 64.000000  1.582944 -0.000000 1.570796
time 130
0  584.851318 192.000000 64.000000  1.583041 -0.000000 1.570796
time 131
0  585.506470 192.000000 64.000000  1.583138 -0.000000 1.570796
time 132
0  586.161682 192.000000 64.000000  1.583233 -0.000000 1.570796
time 133
0  586.816833 192.000000 64.000000  1.583328 -0.000000 1.570796
time 134
0  587.472046 192.000000 64.000000  1.583422 -0.000000 1.570796
time 135
0  588.127197 192.000000 64.000000  1.583516 -0.000000 1.570796
time 136
0  588.782410 192.000000 64.000000  1.583608 -0.000000 1.570796
time 137
0  589.437561 192.000000 64.000000  1.583700 -0.000000 1.570796
time 138
0  590.092773 192.000000 64.000000  1.583791 0.000000 1.570796
time 139
0  590.747925 192.000000 64.000000  1.583881 -0.000000 1.570796
time 140
0  591.403137 192.000000 64.000000  1.583970 -0.000000 1.570796
time 141
0  592.058350 192.000000 64.000000  1.584059 0.000000 1.570796
time 142
0  592.713501 192.000000 64.000000  1.584147 0.000000 1.570796
time 143
0  593.368713 192.000000 64.000000  1.584234 -0.000000 1.570796
time 144
0  594.023865 192.000000 64.000000  1.584320 0.000000 1.570796
time 145
0  594.679077 192.000000 64.000000  1.584406 -0.000000 1.570796
time 146
0  595.334229 192.000000 64.000000  1.584490 0.000000 1.570796
time 147
0  595.989441 192.000000 64.000000  1.584574 -0.000000 1.570796
time 148
0  596.644592 192.000000 64.000000  1.584657 -0.000000 1.570796
time 149
0  597.299805 192.000000 64.000000  1.584739 -0.000000 1.570796
time 150
0  597.954956 192.000000 64.000000  1.584820 0.000000 1.570796
time 151
0  598.610168 192.000000 64.000000  1.584900 0.000000 1.570796
time 152
0  599.265381 192.000000 64.000000  1.584980 -0.000000 1.570796
time 153
0  599.920532 192.000000 64.000000  1.585058 -0.000000 1.570796
time 154
0  600.575745 192.000000 64.000000  1.585136 0.000000 1.570796
time 155
0  601.230896 192.000000 64.000000  1.585213 -0.000000 1.570796
time 156
0  601.886108 192.000000 64.000000  1.585289 0.000000 1.570796
time 157
0  602.541260 192.000000 64.000000  1.585364 -0.000000 1.570796
time 158
0  603.196472 192.000000 64.000000  1.585439 0.000000 1.570796
time 159
0  603.851624 192.000000 64.000000  1.585512 -0.000000 1.570796
time 160
0  604.506836 192.000000 64.000000  1.585585 -0.000000 1.570796
time 161
0  605.161987 192.000000 64.000000  1.585656 0.000000 1.570796
time 162
0  605.817200 192.000000 64.000000  1.585727 0.000000 1.570796
time 163
0  606.472412 192.000000 64.000000  1.585797 0.000000 1.570796
time 164
0  607.127563 192.000000 64.000000  1.585866 -0.000000 1.570796
time 165
0  607.782776 192.000000 64.000000  1.585934 -0.000000 1.570796
time 166
0  608.437927 192.000000 64.000000  1.586001 0.000000 1.570796
time 167
0  609.093140 192.000000 64.000000  1.586067 -0.000000 1.570796
time 168
0  609.748291 192.000000 64.000000  1.586132 0.000000 1.570796
time 169
0  610.403503 192.000000 64.000000  1.586197 0.000000 1.570796
time 170
0  611.058655 192.000000 64.000000  1.586260 -0.000000 1.570796
time 171
0  611.713867 192.000000 64.000000  1.586323 0.000000 1.570796
time 172
0  612.369019 192.000000 64.000000  1.586384 0.000000 1.570796
time 173
0  613.024231 192.000000 64.000000  1.586445 -0.000000 1.570796
time 174
0  613.679443 192.000000 64.000000  1.586504 -0.000000 1.570796
time 175
0  614.334595 192.000000 64.000000  1.586563 -0.000000 1.570796
time 176
0  614.989807 192.000000 64.000000  1.586621 0.000000 1.570796
time 177
0  615.644958 192.000000 64.000000  1.586677 0.000000 1.570796
time 178
0  616.300171 192.000000 64.000000  1.586733 0.000000 1.570796
time 179
0  616.955322 192.000000 64.000000  1.586788 -0.000000 1.570796
time 180
0  617.610535 192.000000 64.000000  1.586842 -0.000000 1.570796
time 181
0  618.265686 192.000000 64.000000  1.586895 0.000000 1.570796
time 182
0  618.920898 192.000000 64.000000  1.586947 -0.000000 1.570796
time 183
0  619.576050 192.000000 64.000000  1.586998 0.000000 1.570796
time 184
0  620.231262 192.000000 64.000000  1.587048 0.000000 1.570796
time 185
0  620.886475 192.000000 64.000000  1.587097 -0.000000 1.570796
time 186
0  621.541626 192.000000 64.000000  1.587145 0.000000 1.570796
time 187
0  622.196838 192.000000 64.000000  1.587192 0.000000 1.570796
time 188
0  622.851990 192.000000 64.000000  1.587238 -0.000000 1.570796
time 189
0  623.507202 192.000000 64.000000  1.587283 -0.000000 1.570796
time 190
0  624.162354 192.000000 64.000000  1.587327 0.000000 1.570796
time 191
0  624.817566 192.000000 64.000000  1.587370 0.000000 1.570796
time 192
0  625.472717 192.000000 64.000000  1.587412 -0.000000 1.570796
time 193
0  626.127930 192.000000 64.000000  1.587453 0.000000 1.570796
time 194
0  626.783081 192.000000 64.000000  1.587493 0.000000 1.570796
time 195
0  627.438293 192.000000 64.000000  1.587532 0.000000 1.570796
time 196
0  628.093506 192.000000 64.000000  1.587570 0.000000 1.570796
time 197
0  628.748657 192.000000 64.000000  1.587607 0.000000 1.570796
time 198
0  629.403870 192.000000 64.000000  1.587643 -0.000000 1.570796
time 199
0  630.059021 192.000000 64.000000  1.587678 0.000000 1.570796
time 200
0  630.714233 192.000000 64.000000  1.587712 0.000000 1.570796
time 201
0  631.369385 192.000000 64.000000  1.587745 -0.000000 1.570796
time 202
0  632.024597 192.000000 64.000000  1.587777 0.000000 1.570796
time 203
0  632.679749 192.000000 64.000000  1.587808 -0.000000 1.570796
time 204
0  633.334961 192.000000 64.000000  1.587837 -0.000000 1.570796
time 205
0  633.990112 192.000000 64.000000  1.587866 0.000000 1.570796
time 206
0  634.645325 192.000000 64.000000  1.587894 0.000000 1.570796
time 207
0  635.300537 192.000000 64.000000  1.587921 -0.000000 1.570796
time 208
0  635.955688 192.000000 64.000000  1.587947 -0.000000 1.570796
time 209
0  636.610901 192.000000 64.000000  1.587971 -0.000000 1.570796
time 210
0  637.266052 192.000000 64.000000  1.587995 0.000000 1.570796
time 211
0  637.921265 192.000000 64.000000  1.588017 0.000000 1.570796
time 212
0  638.576416 192.000000 64.000000  1.588039 -0.000000 1.570796
time 213
0  639.231628 192.000000 64.000000  1.588059 -0.000000 1.570796
time 214
0  639.886780 192.000000 64.000000  1.588079 -0.000000 1.570796
time 215
0  640.541992 192.000000 64.000000  1.588097 0.000000 1.570796
time 216
0  641.197144 192.000000 64.000000  1.588115 0.000000 1.570796
time 217
0  641.852356 192.000000 64.000000  1.588131 0.000000 1.570796
time 218
0  642.507568 192.000000 64.000000  1.588146 0.000000 1.570796
time 219
0  643.162720 192.000000 64.000000  1.588161 0.000000 1.570796
time 220
0  643.817932 192.000000 64.000000  1.588174 -0.000000 1.570796
time 221
0  644.473083 192.000000 64.000000  1.588186 -0.000000 1.570796
time 222
0  645.128296 192.000000 64.000000  1.588197 0.000000 1.570796
time 223
0  645.783447 192.000000 64.000000  1.588207 0.000000 1.570796
time 224
0  646.438660 192.000000 64.000000  1.588216 -0.000000 1.570796
time 225
0  647.093811 192.000000 64.000000  1.588224 -0.000000 1.570796
time 226
0  647.749023 192.000000 64.000000  1.588231 0.000000 1.570796
time 227
0  648.404175 192.000000 64.000000  1.588236 -0.000000 1.570796
time 228
0  649.059387 192.000000 64.000000  1.588241 0.000000 1.570796
time 229
0  649.714600 192.000000 64.000000  1.588245 0.000000 1.570796
time 230
0  650.369751 192.000000 64.000000  1.588247 -0.000000 1.570796
time 231
0  651.024963 192.000000 64.000000  1.588249 -0.000000 1.570796
time 232
0  651.680115 192.000000 64.000000  1.588250 -0.000000 1.570796
time 233
0  652.335327 192.000000 64.000000  1.588239 -0.000000 1.570796
time 234
0  652.990479 192.000000 64.000000  1.588207 0.000000 1.570796
time 235
0  653.645691 192.000000 64.000000  1.588153 -0.000000 1.570796
time 236
0  654.300903 192.000000 64.000000  1.588078 0.000000 1.570796
time 237
0  654.956055 192.000000 64.000000  1.587981 0.000000 1.570796
time 238
0  655.611206 192.000000 64.000000  1.587864 -0.000000 1.570796
time 239
0  656.266418 192.000000 64.000000  1.587725 0.000000 1.570796
time 240
0  656.921631 192.000000 64.000000  1.587566 0.000000 1.570796
time 241
0  657.576782 192.000000 64.000000  1.587387 -0.000000 1.570796
time 242
0  658.231995 192.000000 64.000000  1.587187 0.000000 1.570796
time 243
0  658.887146 192.000000 64.000000  1.586968 0.000000 1.570796
time 244
0  659.542358 192.000000 64.000000  1.586729 -0.000000 1.570796
time 245
0  660.197510 192.000000 64.000000  1.586472 -0.000000 1.570796
time 246
0  660.852722 192.000000 64.000000  1.586195 0.000000 1.570796
time 247
0  661.507935 192.000000 64.000000  1.585901 0.000000 1.570796
time 248
0  662.163086 192.000000 64.000000  1.585590 0.000000 1.570796
time 249
0  662.818237 192.000000 64.000000  1.585261 0.000000 1.570796
time 250
0  663.473450 192.000000 64.000000  1.584916 0.000000 1.570796
time 251
0  664.128662 192.000000 64.000000  1.584555 0.000000 1.570796
time 252
0  664.783813 192.000000 64.000000  1.584179 0.000000 1.570796
time 253
0  665.439026 192.000000 64.000000  1.583788 -0.000000 1.570796
time 254
0  666.094177 192.000000 64.000000  1.583383 0.000000 1.570796
time 255
0  666.749390 192.000000 64.000000  1.582965 -0.000000 1.570796
time 256
0  667.404541 192.000000 64.000000  1.582535 0.000000 1.570796
time 257
0  668.059753 192.000000 64.000000  1.582092 -0.000000 1.570796
time 258
0  668.714966 192.000000 64.000000  1.581639 -0.000000 1.570796
time 259
0  669.370117 192.000000 64.000000  1.581175 0.000000 1.570796
time 260
0  670.025269 192.000000 64.000000  1.580702 0.000000 1.570796
time 261
0  670.680481 192.000000 64.000000  1.580220 0.000000 1.570796
time 262
0  671.335693 192.000000 64.000000  1.579731 0.000000 1.570796
time 263
0  671.990845 192.000000 64.000000  1.579234 0.000000 1.570796
time 264
0  672.646057 192.000000 64.000000  1.578732 -0.000000 1.570796
time 265
0  673.301270 192.000000 64.000000  1.578224 0.000000 1.570796
time 266
0  673.956421 192.000000 64.000000  1.577711 -0.000000 1.570796
time 267
0  674.611572 192.000000 64.000000  1.577195 0.000000 1.570796
time 268
0  675.266785 192.000000 64.000000  1.576677 0.000000 1.570796
time 269
0  675.921997 192.000000 64.000000  1.576156 -0.000000 1.570796
time 270
0  676.577148 192.000000 64.000000  1.575635 0.000000 1.570796
time 271
0  644.577026 832.000000 640.000000  1.575629 0.000000 1.570796
time 272
0  644.577026 832.000000 640.000000  1.575629 0.000000 1.570796
time 273
0  644.577026 832.000000 640.000000  1.575629 0.000000 1.570796
time 274
0  644.577026 832.000000 640.000000  1.575629 0.000000 1.570796
time 275
0  644.577026 832.000000 640.000000  1.575629 0.000000 1.570796
time 276
0  644.577026 832.000000 640.000000  1.575629 0.000000 1.570796
time 277
0  644.577026 832.000000 640.000000  1.575629 0.000000 1.570796
time 278
0  644.577026 832.000000 640.000000  1.575629 0.000000 1.570796
time 279
0  644.577026 832.000000 640.000000  1.575629 0.000000 1.570796
time 280
0  644.577026 832.000000 640.000000  1.575629 0.000000 1.570796
time 281
0  644.577026 832.000000 640.000000  1.575629 0.000000 1.570796
time 282
0  644.577026 832.000000 640.000000  1.575629 0.000000 1.570796
time 283
0  644.577026 832.000000 640.000000  1.575629 0.000000 1.570796
time 284
0  644.577026 832.000000 640.000000  1.575629 0.000000 1.570796
time 285
0  644.577026 832.000000 640.000000  1.575629 0.000000 1.570796
time 286
0  644.577026 832.000000 640.000000  1.575629 0.000000 1.570796
time 287
0  644.577026 832.000000 640.000000  1.575629 0.000000 1.570796
time 288
0  644.577026 832.000000 640.000000  1.575629 0.000000 1.570796
time 289
0  644.577026 832.000000 640.000000  1.575629 0.000000 1.570796
time 290
0  644.577026 832.000000 640.000000  1.575629 0.000000 1.570796
time 291
0  644.577026 832.000000 640.000000  1.575629 0.000000 1.570796
time 292
0  644.577026 832.000000 640.000000  1.575629 0.000000 1.570796
time 293
0  644.577026 832.000000 640.000000  1.575629 0.000000 1.570796
time 294
0  644.577026 832.000000 640.000000  1.575629 0.000000 1.570796
time 295
0  644.577026 832.000000 640.000000  1.575629 0.000000 1.570796
time 296
0  644.577026 832.000000 640.000000  1.575629 0.000000 1.570796
time 297
0  644.577026 832.000000 640.000000  1.575629 0.000000 1.570796
time 298
0  644.577026 832.000000 640.000000  1.575629 0.000000 1.570796
time 299
0  644.577026 832.000000 640.000000  1.575629 0.000000 1.570796
time 300
0  644.577026 832.000000 640.000000  1.575629 0.000000 1.570796
time 301
0  645.444336 832.000000 640.000000  1.575023 -0.000000 1.570796
time 302
0  646.311646 832.000000 640.000000  1.574418 -0.000000 1.570796
time 303
0  647.179016 832.000000 640.000000  1.573813 0.000000 1.570796
time 304
0  648.046326 832.000000 640.000000  1.573208 -0.000000 1.570796
time 305
0  648.913635 832.000000 640.000000  1.572603 0.000000 1.570796
time 306
0  649.780945 832.000000 640.000000  1.571998 0.000000 1.570796
time 307
0  650.648254 832.000000 640.000000  1.571393 0.000000 1.570796
time 308
0  651.515625 832.000000 640.000000  1.570788 -0.000000 1.570796
time 309
0  652.382935 832.000000 640.000000  1.570184 -0.000000 1.570796
time 310
0  653.250244 832.000000 640.000000  1.569580 -0.000000 1.570796
time 311
0  654.117554 832.000000 640.000000  1.568976 -0.000000 1.570796
time 312
0  654.984863 832.000000 640.000000  1.568372 -0.000000 1.570796
time 313
0  655.852173 832.000000 640.000000  1.567769 -0.000000 1.570796
time 314
0  656.719543 832.000000 640.000000  1.567166 -0.000000 1.570796
time 315
0  657.586853 832.000000 640.000000  1.566564 -0.000000 1.570796
time 316
0  658.454163 832.000000 640.000000  1.565961 -0.000000 1.570796
time 317
0  659.321472 832.000000 640.000000  1.565360 -0.000000 1.570796
time 318
0  660.188782 832.000000 640.000000  1.564758 -0.000000 1.570796
time 319
0  661.056152 832.000000 640.000000  1.564158 -0.000000 1.570796
time 320
0  661.923462 832.000000 640.000000  1.563557 -0.000000 1.570796
time 321
0  662.790771 832.000000 640.000000  1.562957 -0.000000 1.570796
time 322
0  663.658081 832.000000 640.000000  1.562358 -0.000000 1.570796
time 323
0  664.525391 832.000000 640.000000  1.561759 -0.000000 1.570796
time 324
0  665.392761 832.000000 640.000000  1.561161 -0.000000 1.570796
time 325
0  666.260071 832.000000 640.000000  1.560564 -0.000000 1.570796
time 326
0  667.127380 832.000000 640.000000  1.559967 -0.000000 1.570796
time 327
0  667.994690 832.000000 640.000000  1.559371 -0.000000 1.570796
time 328
0  668.862000 832.000000 640.000000  1.558775 -0.000000 1.570796
time 329
0  669.729309 832.000000 640.000000  1.558181 -0.000000 1.570796
time 330
0  670.596680 832.000000 640.000000  1.557587 -0.000000 1.570796
time 331
0  671.463989 832.000000 640.000000  1.556994 -0.000000 1.570796
time 332
0  672.331299 832.000000 640.000000  1.556401 -0.000000 1.570796
time 333
0  673.198608 832.000000 640.000000  1.555810 -0.000000 1.570796
time 334
0  674.065918 832.000000 640.000000  1.555219 -0.000000 1.570796
time 335
0  674.933289 832.000000 640.000000  1.554629 -0.000000 1.570796
time 336
0  675.800598 832.000000 640.000000  1.554040 -0.000000 1.570796
time 337
0  676.667908 832.000000 640.000000  1.553452 -0.000000 1.570796
time 338
0  677.535217 832.000000 640.000000  1.552865 -0.000000 1.570796
time 339
0  678.402527 832.000000 640.000000  1.552279 -0.000000 1.570796
time 340
0  679.269897 832.000000 640.000000  1.551694 -0.000000 1.570796
time 341
0  680.137207 832.000000 640.000000  1.551110 -0.000000 1.570796
time 342
0  681.004517 832.000000 640.000000  1.550527 -0.000000 1.570796
time 343
0  681.871826 832.000000 640.000000  1.549945 -0.000000 1.570796
time 344
0  682.739136 832.000000 640.000000  1.549365 -0.000000 1.570796
time 345
0  683.606445 832.000000 640.000000  1.548785 -0.000000 1.570796
time 346
0  684.473816 832.000000 640.000000  1.548207 -0.000000 1.570796
time 347
0  685.341125 832.000000 640.000000  1.547629 -0.000000 1.570796
time 348
0  686.208435 832.000000 640.000000  1.547053 -0.000000 1.570796
time 349
0  687.075745 832.000000 640.000000  1.546479 -0.000000 1.570796
time 350
0  687.943054 832.000000 640.000000  1.545905 -0.000000 1.570796
time 351
0  688.810425 832.000000 640.000000  1.545333 -0.000000 1.570796
time 352
0  689.677734 832.000000 640.000000  1.544762 -0.000000 1.570796
time 353
0  690.545044 832.000000 640.000000  1.544192 -0.000000 1.570796
time 354
0  691.412354 832.000000 640.000000  1.543624 -0.000000 1.570796
time 355
0  692.279663 832.000000 640.000000  1.543057 -0.000000 1.570796
time 356
0  693.146973 832.000000 640.000000  1.542491 -0.000000 1.570796
time 357
0  694.014343 832.000000 640.000000  1.541927 -0.000000 1.570796
time 358
0  694.881653 832.000000 640.000000  1.541365 -0.000000 1.570796
time 359
0  695.748962 832.000000 640.000000  1.540804 -0.000000 1.570796
time 360
0  696.616272 832.000000 640.000000  1.540244 -0.000000 1.570796
time 361
0  697.483643 832.000000 640.000000  1.539686 -0.000000 1.570796
time 362
0  698.350952 832.000000 640.000000  1.539129 -0.000000 1.570796
time 363
0  699.218262 832.000000 640.000000  1.538575 -0.000000 1.570796
time 364
0  700.085571 832.000000 640.000000  1.538021 -0.000000 1.570796
time 365
0  700.952881 832.000000 640.000000  1.537470 -0.000000 1.570796
time 366
0  701.820190 832.000000 640.000000  1.536919 -0.000000 1.570796
time 367
0  702.687561 832.000000 640.000000  1.536371 -0.000000 1.570796
time 368
0  703.554871 832.000000 640.000000  1.535824 -0.000000 1.570796
time 369
0  704.422180 832.000000 640.000000  1.535279 -0.000000 1.570796
time 370
0  705.289490 832.000000 640.000000  1.534736 0.000000 1.570796
time 371
0  706.156799 832.000000 640.000000  1.534195 -0.000000 1.570796
time 372
0  707.024170 832.000000 640.000000  1.533655 -0.000000 1.570796
time 373
0  707.891479 832.000000 640.000000  1.533117 -0.000000 1.570796
time 374
0  708.758789 832.000000 640.000000  1.532581 -0.000000 1.570796
time 375
0  709.626099 832.000000 640.000000  1.532047 -0.000000 1.570796
time 376
0  710.493408 832.000000 640.000000  1.531514 -0.000000 1.570796
time 377
0  711.360718 832.000000 640.000000  1.530984 -0.000000 1.570796
time 378
0  712.228088 832.000000 640.000000  1.530456 -0.000000 1.570796
time 379
0  713.095398 832.000000 640.000000  1.529929 -0.000000 1.570796
time 380
0  713.962708 832.000000 640.000000  1.529405 -0.000000 1.570796
time 381
0  714.830017 832.000000 640.000000  1.528882 -0.000000 1.570796
time 382
0  715.697327 832.000000 640.000000  1.528361 -0.000000 1.570796
time 383
0  716.564697 832.000000 640.000000  1.527843 -0.000000 1.570796
time 384
0  717.432007 832.000000 640.000000  1.527327 -0.000000 1.570796
time 385
0  718.299316 832.000000 640.000000  1.526812 -0.000000 1.570796
time 386
0  719.166626 832.000000 640.000000  1.526300 -0.000000 1.570796
time 387
0  720.033936 832.000000 640.000000  1.525790 -0.000000 1.570796
time 388
0  720.901245 832.000000 640.000000  1.525282 -0.000000 1.570796
time 389
0  721.768616 832.000000 640.000000  1.524776 -0.000000 1.570796
time 390
0  722.635925 832.000000 640.000000  1.524273 -0.000000 1.570796
time 391
0  723.503235 832.000000 640.000000  1.523771 -0.000000 1.570796
time 392
0  724.370544 832.000000 640.000000  1.523272 -0.000000 1.570796
time 393
0  725.237915 832.000000 640.000000  1.522775 -0.000000 1.570796
time 394
0  726.105225 832.000000 640.000000  1.522281 -0.000000 1.570796
time 395
0  726.972534 832.000000 640.000000  1.521788 -0.000000 1.570796
time 396
0  727.839844 832.000000 640.001038  1.521299 -0.000000 1.570796
time 397
0  728.707153 832.000000 640.004089  1.520811 -0.000000 1.570796
time 398
0  729.574463 832.000000 640.009277  1.520326 -0.000000 1.570796
time 399
0  730.441833 832.000000 640.016418  1.519843 -0.000000 1.570796
time 400
0  731.309143 832.000000 640.025696  1.519362 -0.000000 1.570796
time 401
0  732.176453 832.000000 640.036987  1.518885 -0.000000 1.570796
time 402
0  733.043762 832.000000 640.050293  1.518409 -0.000000 1.570796
time 403
0  733.911072 832.000000 640.065735  1.517936 -0.000000 1.570796
time 404
0  734.778442 832.000000 640.083130  1.517465 -0.000000 1.570796
time 405
0  735.645752 832.000000 640.102661  1.516997 -0.000000 1.570796
time 406
0  736.513062 832.000000 640.124146  1.516532 -0.000000 1.570796
time 407
0  737.380371 832.000000 640.147705  1.516069 -0.000000 1.570796
time 408
0  738.247681 832.000000 640.173340  1.515608 -0.000000 1.570796
time 409
0  739.114990 832.000000 640.200989  1.515151 -0.000000 1.570796
time 410
0  739.982361 832.000000 640.230652  1.514695 -0.000000 1.570796
time 411
0  740.849670 832.000000 640.262329  1.514243 -0.000000 1.570796
time 412
0  741.716980 832.000000 640.296082  1.513793 -0.000000 1.570796
time 413
0  742.584290 832.000000 640.331787  1.513346 -0.000000 1.570796
time 414
0  743.451660 832.000000 640.369568  1.512901 -0.000000 1.570796
time 415
0  744.318970 832.000000 640.409363  1.512459 -0.000000 1.570796
time 416
0  745.186279 832.000000 640.451111  1.512020 -0.000000 1.570796
time 417
0  746.053589 832.000000 640.494873  1.511584 -0.000000 1.570796
time 418
0  746.920898 832.000000 640.540649  1.511150 -0.000000 1.570796
time 419
0  747.788208 832.000000 640.588440  1.510719 -0.000000 1.570796
time 420
0  748.655518 832.000000 640.638184  1.510291 -0.000000 1.570796
time 421
0  749.522888 832.000000 640.689880  1.509866 -0.000000 1.570796
time 422
0  750.390198 832.000000 640.743591  1.509444 -0.000000 1.570796
time 423
0  751.257507 832.000000 640.799255  1.509024 -0.000000 1.570796
time 424
0  752.124817 832.000000 640.856873  1.508608 -0.000000 1.570796
time 425
0  752.992188 832.000000 640.916443  1.508194 -0.000000 1.570796
time 426
0  753.859497 832.000000 640.977966  1.507783 -0.000000 1.570796
time 427
0  754.726807 832.000000 641.041443  1.507375 -0.000000 1.570796
time 428
0  755.594116 832.000000 641.106812  1.506970 -0.000000 1.570796
time 429
0  756.461426 832.000000 641.174133  1.506568 -0.000000 1.570796
time 430
0  757.328735 832.000000 641.243347  1.506169 -0.000000 1.570796
time 431
0  758.196106 832.000000 641.314514  1.505773 -0.000000 1.570796
time 432
0  759.063416 832.000000 641.387512  1.505380 -0.000000 1.570796
time 433
0  759.930725 832.000000 641.462463  1.504990 -0.000000 1.570796
time 434
0  760.798035 832.000000 641.539246  1.504604 -0.000000 1.570796
time 435
0  761.665344 832.000000 641.617920  1.504220 -0.000000 1.570796
time 436
0  762.532715 832.000000 641.698486  1.503839 -0.000000 1.570796
time 437
0  763.400024 832.000000 641.780884  1.503461 -0.000000 1.570796
time 438
0  764.267334 832.000000 641.865112  1.503087 -0.000000 1.570796
time 439
0  765.134644 832.000000 641.951172  1.502715 -0.000000 1.570796
time 440
0  766.001953 832.000000 642.039062  1.502347 -0.000000 1.570796
time 441
0  766.869263 832.000000 642.128784  1.501982 -0.000000 1.570796
time 442
0  767.736633 832.000000 642.220276  1.501620 -0.000000 1.570796
time 443
0  768.603943 832.000000 642.313599  1.501262 -0.000000 1.570796
time 444
0  769.471252 832.000000 642.408630  1.500906 -0.000000 1.570796
time 445
0  770.338562 832.000000 642.505493  1.500554 -0.000000 1.570796
time 446
0  771.205933 832.000000 642.604065  1.500205 -0.000000 1.570796
time 447
0  772.073242 832.000000 642.704407  1.499859 -0.000000 1.570796
time 448
0  772.940552 832.000000 642.806519  1.499517 -0.000000 1.570796
time 449
0  773.807861 832.000000 642.910278  1.499178 -0.000000 1.570796
time 450
0  774.675171 832.000000 643.015808  1.498842 -0.000000 1.570796
time 451
0  775.542480 832.000000 643.123047  1.498509 -0.000000 1.570796
time 452
0  776.409790 832.000000 643.231873  1.498180 -0.000000 1.570796
time 453
0  777.277161 832.000000 643.342468  1.497854 -0.000000 1.570796
time 454
0  778.144470 832.000000 643.454651  1.497532 -0.000000 1.570796
time 455
0  779.011780 832.000000 643.568542  1.497212 -0.000000 1.570796
time 456
0  779.879150 832.000000 643.684021  1.496897 -0.000000 1.570796
time 457
0  780.746460 832.000000 643.801147  1.496584 -0.000000 1.570796
time 458
0  781.613770 832.000000 643.919800  1.496275 -0.000000 1.570796
time 459
0  782.481079 832.000000 644.040100  1.495970 -0.000000 1.570796
time 460
0  783.348389 832.000000 644.161987  1.495668 -0.000000 1.570796
time 461
0  784.215698 832.000000 644.285400  1.495369 -0.000000 1.570796
time 462
0  785.083008 832.000000 644.410400  1.495074 -0.000000 1.570796
time 463
0  785.950378 832.000000 644.536865  1.494782 -0.000000 1.570796
time 464
0  786.817688 832.000000 644.664917  1.494494 -0.000000 1.570796
time 465
0  787.684998 832.000000 644.794434  1.494209 -0.000000 1.570796
time 466
0  788.552368 832.000000 644.925415  1.493928 -0.000000 1.570796
time 467
0  789.419678 832.000000 645.057922  1.493651 -0.000000 1.570796
time 468
0  790.286987 832.000000 645.191833  1.493376 -0.000000 1.570796
time 469
0  791.154297 832.000000 645.327209  1.493106 -0.000000 1.570796
time 470
0  792.021606 832.000000 645.463989  1.492839 -0.000000 1.570796
time 471
0  792.888916 832.000000 645.602173  1.492576 -0.000000 1.570796
time 472
0  793.756226 832.000000 645.741699  1.492316 -0.000000 1.570796
time 473
0  794.623596 832.000000 645.882690  1.492059 -0.000000 1.570796
time 474
0  795.490906 832.000000 646.024963  1.491807 -0.000000 1.570796
time 475
0  796.358215 832.000000 646.168579  1.491558 -0.000000 1.570796
time 476
0  797.225525 832.000000 646.313538  1.491313 -0.000000 1.570796
time 477
0  798.092834 832.000000 646.459839  1.491071 -0.000000 1.570796
time 478
0  798.960205 832.000000 646.607361  1.490833 -0.000000 1.570796
time 479
0  799.827515 832.000000 646.756226  1.490598 -0.000000 1.570796
time 480
0  800.694824 832.000000 646.906250  1.490368 -0.000000 1.570796
time 481
0  801.562134 832.000000 647.057556  1.490141 -0.000000 1.570796
time 482
0  802.429443 832.000000 647.210083  1.489917 -0.000000 1.570796
time 483
0  803.296753 832.000000 647.363770  1.489698 -0.000000 1.570796
time 484
0  804.164124 832.000000 647.518677  1.489482 -0.000000 1.570796
time 485
0  805.031433 832.000000 647.674744  1.489269 -0.000000 1.570796
time 486
0  805.898743 832.000000 647.831909  1.489061 -0.000000 1.570796
time 487
0  806.766052 832.000000 647.990234  1.488856 -0.000000 1.570796
time 488
0  807.633362 832.000000 648.149658  1.488655 -0.000000 1.570796
time 489
0  808.500732 832.000000 648.310181  1.488458 -0.000000 1.570796
time 490
0  809.368042 832.000000 648.471741  1.488265 -0.000000 1.570796
time 491
0  810.235352 832.000000 648.634399  1.488075 -0.000000 1.570796
time 492
0  811.102661 832.000000 648.798035  1.487889 -0.000000 1.570796
time 493
0  811.969971 832.000000 648.962646  1.487707 -0.000000 1.570796
time 494
0  812.837280 832.000000 649.128296  1.487529 -0.000000 1.570796
time 495
0  813.704651 832.000000 649.294922  1.487354 -0.000000 1.570796
time 496
0  814.571960 832.000000 649.462463  1.487183 -0.000000 1.570796
time 497
0  815.439270 832.000000 649.630981  1.487016 -0.000000 1.570796
time 498
0  816.306580 832.000000 649.800354  1.486853 -0.000000 1.570796
time 499
0  817.173950 832.000000 649.970642  1.486694 -0.000000 1.570796
time 500
0  818.041260 832.000000 650.141785  1.486539 -0.000000 1.570796
time 501
0  818.908569 832.000000 650.313782  1.486387 -0.000000 1.570796
time 502
0  819.775879 832.000000 650.486633  1.486240 -0.000000 1.570796
time 503
0  820.643188 832.000000 650.660278  1.486096 -0.000000 1.570796
time 504
0  821.510498 832.000000 650.834717  1.485956 -0.000000 1.570796
time 505
0  822.377808 832.000000 651.009888  1.485820 -0.000000 1.570796
time 506
0  823.245178 832.000000 651.185852  1.485687 -0.000000 1.570796
time 507
0  824.112488 832.000000 651.362488  1.485559 -0.000000 1.570796
time 508
0  824.979797 832.000000 651.539856  1.485435 -0.000000 1.570796
time 509
0  825.847107 832.000000 651.717896  1.485314 -0.000000 1.570796
time 510
0  826.714478 832.000000 651.896606  1.485198 -0.000000 1.570796
time 511
0  827.581787 832.000000 652.075928  1.485085 -0.000000 1.570796
time 512
0  828.449097 832.000000 652.255859  1.484976 -0.000000 1.570796
time 513
0  829.316406 832.000000 652.436462  1.484871 -0.000000 1.570796
time 514
0  830.183716 832.000000 652.617554  1.484770 -0.000000 1.570796
time 515
0  831.051025 832.000000 652.799255  1.484673 -0.000000 1.570796
time 516
0  831.918396 832.000000 652.981506  1.484580 -0.000000 1.570796
time 517
0  832.785706 832.000000 653.164185  1.484491 -0.000000 1.570796
time 518
0  833.653015 832.000000 653.347412  1.484406 -0.000000 1.570796
time 519
0  834.520325 832.000000 653.531128  1.484324 -0.000000 1.570796
time 520
0  835.387695 832.000000 653.715210  1.484247 -0.000000 1.570796
time 521
0  836.255005 832.000000 653.899780  1.484174 -0.000000 1.570796
time 522
0  837.122314 832.000000 654.084717  1.484104 -0.000000 1.570796
time 523
0  837.989624 832.000000 654.270081  1.484039 -0.000000 1.570796
time 524
0  838.856934 832.000000 654.455750  1.483977 -0.000000 1.570796
time 525
0  839.724243 832.000000 654.641785  1.483919 -0.000000 1.570796
time 526
0  840.591553 832.000000 654.828064  1.483866 -0.000000 1.570796
time 527
0  841.458923 832.000000 655.014709  1.483816 -0.000000 1.570796
time 528
0  842.326233 832.000000 655.201599  1.483770 -0.000000 1.570796
time 529
0  843.193542 832.000000 655.388733  1.483729 -0.000000 1.570796
time 530
0  844.060913 832.000000 655.576111  1.483691 -0.000000 1.570796
time 531
0  844.928223 832.000000 655.763672  1.483657 -0.000000 1.570796
time 532
0  845.795532 832.000000 655.951416  1.483627 -0.000000 1.570796
time 533
0  846.662842 832.000000 656.139282  1.483601 -0.000000 1.570796
time 534
0  847.530151 832.000000 656.327332  1.483580 -0.000000 1.570796
time 535
0  848.397461 832.000000 656.515503  1.483562 -0.000000 1.570796
time 536
0  849.264771 832.000000 656.703735  1.483548 -0.000000 1.570796
time 537
0  850.132141 832.000000 656.892029  1.483538 -0.000000 1.570796
time 538
0  850.999451 832.000000 657.080383  1.483532 -0.000000 1.570796
time 539
0  851.866760 832.000000 657.268738  1.483530 -0.000000 1.570796
end
