version 1
nodes
0 "cam" -1
end
skeleton
time 0
0  -284.210266 -290.317047 1341.752197  1.748797 -0.000032 -1.371808
time 1
0  -284.210266 -290.317047 1341.752197  1.748797 -0.000032 -1.371808
time 2
0  -284.210266 -290.317047 1341.752197  1.748797 -0.000032 -1.371808
time 3
0  -284.210266 -290.317047 1341.752197  1.748797 -0.000032 -1.371808
time 4
0  -284.210266 -290.317047 1341.752197  1.748797 -0.000032 -1.371808
time 5
0  -284.210266 -290.317047 1341.752197  1.748797 -0.000032 -1.371808
time 6
0  -284.210266 -290.317047 1341.752197  1.748797 -0.000032 -1.371808
time 7
0  -284.210266 -290.317047 1341.752197  1.748797 -0.000032 -1.371808
time 8
0  -284.210266 -290.317047 1341.752197  1.748797 -0.000032 -1.371808
time 9
0  -284.210266 -290.317047 1341.752197  1.748797 -0.000032 -1.371808
time 10
0  -284.210266 -290.317047 1341.752197  1.748797 -0.000032 -1.371808
time 11
0  -284.210266 -290.317047 1341.752197  1.748797 -0.000032 -1.371808
time 12
0  -284.210266 -290.317047 1341.752197  1.748797 -0.000032 -1.371808
time 13
0  -284.210266 -290.317047 1341.752197  1.748797 -0.000032 -1.371808
time 14
0  -284.210266 -290.317047 1341.752197  1.748797 -0.000032 -1.371808
time 15
0  -284.210266 -290.317047 1341.752197  1.748797 -0.000032 -1.371808
time 16
0  -284.210266 -290.317047 1341.752197  1.748797 -0.000032 -1.371808
time 17
0  -284.210266 -290.317047 1341.752197  1.748797 -0.000032 -1.371808
time 18
0  -284.210266 -290.317047 1341.752197  1.748797 -0.000032 -1.371808
time 19
0  -284.210266 -290.317047 1341.752197  1.748797 -0.000032 -1.371808
time 20
0  -284.210266 -290.317047 1341.752197  1.748797 -0.000032 -1.371808
time 21
0  -284.210266 -290.317047 1341.752197  1.748797 -0.000032 -1.371808
time 22
0  -284.210266 -290.317047 1341.752197  1.748797 -0.000032 -1.371808
time 23
0  -284.210266 -290.317047 1341.752197  1.748797 -0.000032 -1.371808
time 24
0  -284.210266 -290.317047 1341.752197  1.748797 -0.000032 -1.371808
time 25
0  -284.210266 -290.317047 1341.752197  1.748797 -0.000032 -1.371808
time 26
0  -284.210266 -290.317047 1341.752197  1.748797 -0.000032 -1.371808
time 27
0  -284.210266 -290.317047 1341.752197  1.748797 -0.000032 -1.371808
time 28
0  -284.210266 -290.317047 1341.752197  1.748797 -0.000032 -1.371808
time 29
0  -284.210266 -290.317047 1341.752197  1.748797 -0.000032 -1.371808
time 30
0  -284.210266 -290.317047 1341.752197  1.748797 -0.000032 -1.371808
time 31
0  -284.210266 -289.987366 1341.752197  1.748797 -0.000032 -1.372354
time 32
0  -284.210266 -289.657715 1341.752197  1.748797 -0.000032 -1.372901
time 33
0  -284.210266 -289.328033 1341.752197  1.748797 -0.000032 -1.373448
time 34
0  -284.210266 -288.998352 1341.752197  1.748797 -0.000032 -1.373995
time 35
0  -284.210266 -288.668701 1341.752197  1.748797 -0.000032 -1.374541
time 36
0  -284.210266 -288.339020 1341.752197  1.748797 -0.000032 -1.375088
time 37
0  -284.210266 -288.009338 1341.752197  1.748797 -0.000032 -1.375635
time 38
0  -284.210266 -287.679688 1341.752197  1.748797 -0.000032 -1.376182
time 39
0  -284.210266 -287.350006 1341.752197  1.748797 -0.000032 -1.376728
time 40
0  -284.210266 -287.020325 1341.752197  1.748797 -0.000032 -1.377275
time 41
0  -284.210266 -286.690643 1341.752197  1.748797 -0.000032 -1.377822
time 42
0  -284.210266 -286.360992 1341.752197  1.748797 -0.000032 -1.378369
time 43
0  -284.210266 -286.031311 1341.752197  1.748797 -0.000032 -1.378915
time 44
0  -284.210266 -285.701630 1341.752197  1.748797 -0.000032 -1.379462
time 45
0  -284.210266 -285.371979 1341.752197  1.748797 -0.000032 -1.380009
time 46
0  -284.210266 -285.042297 1341.752197  1.748797 -0.000032 -1.380556
time 47
0  -284.210266 -284.712616 1341.752197  1.748797 -0.000032 -1.381102
time 48
0  -284.210266 -284.382965 1341.752197  1.748797 -0.000032 -1.381649
time 49
0  -284.210266 -284.053284 1341.752197  1.748797 -0.000032 -1.382196
time 50
0  -284.210266 -283.723602 1341.752197  1.748797 -0.000032 -1.382743
time 51
0  -284.210266 -283.393951 1341.752197  1.748797 -0.000032 -1.383289
time 52
0  -284.210266 -283.064270 1341.752197  1.748797 -0.000032 -1.383836
time 53
0  -284.210266 -282.734589 1341.752197  1.748797 -0.000032 -1.384383
time 54
0  -284.210266 -282.404938 1341.752197  1.748797 -0.000032 -1.384929
time 55
0  -284.210266 -282.075256 1341.752197  1.748797 -0.000032 -1.385476
time 56
0  -284.210266 -281.745575 1341.752197  1.748797 -0.000032 -1.386023
time 57
0  -284.210266 -281.415924 1341.752197  1.748797 -0.000032 -1.386570
time 58
0  -284.210266 -281.086243 1341.752197  1.748797 -0.000032 -1.387116
time 59
0  -284.210266 -280.756561 1341.752197  1.748797 -0.000032 -1.387663
time 60
0  -284.210266 -280.426880 1341.752197  1.748797 -0.000032 -1.388210
time 61
0  -284.210266 -280.097229 1341.752197  1.748797 -0.000032 -1.388757
time 62
0  -284.210266 -279.767548 1341.752197  1.748797 -0.000032 -1.389303
time 63
0  -284.210266 -279.437866 1341.752197  1.748797 -0.000032 -1.389850
time 64
0  -284.210266 -279.108215 1341.752197  1.748797 -0.000032 -1.390397
time 65
0  -284.210266 -278.778534 1341.752197  1.748797 -0.000032 -1.390944
time 66
0  -284.210266 -278.448853 1341.752197  1.748797 -0.000032 -1.391490
time 67
0  -284.210266 -278.119202 1341.752197  1.748798 -0.000032 -1.392037
time 68
0  -284.210266 -277.789520 1341.752197  1.748798 -0.000032 -1.392584
time 69
0  -284.210266 -277.459839 1341.752197  1.748798 -0.000032 -1.393131
time 70
0  -284.210266 -277.130188 1341.752197  1.748798 -0.000032 -1.393677
time 71
0  -284.210266 -276.800507 1341.752197  1.748798 -0.000032 -1.394224
time 72
0  -284.210266 -276.470825 1341.752197  1.748798 -0.000032 -1.394771
time 73
0  -284.210266 -276.141174 1341.752197  1.748798 -0.000032 -1.395317
time 74
0  -284.210266 -275.811493 1341.752197  1.748798 -0.000032 -1.395864
time 75
0  -284.210266 -275.481812 1341.752197  1.748798 -0.000032 -1.396411
time 76
0  -284.210266 -275.152161 1341.752197  1.748798 -0.000032 -1.396958
time 77
0  -284.210266 -274.822479 1341.752197  1.748798 -0.000032 -1.397504
time 78
0  -284.210266 -274.492798 1341.752197  1.748798 -0.000032 -1.398051
time 79
0  -284.210266 -274.163147 1341.752197  1.748798 -0.000032 -1.398598
time 80
0  -284.210266 -273.833466 1341.752197  1.748798 -0.000032 -1.399145
time 81
0  -284.210266 -273.503784 1341.752197  1.748798 -0.000032 -1.399691
time 82
0  -284.210266 -273.174103 1341.752197  1.748798 -0.000032 -1.400238
time 83
0  -284.210266 -272.844452 1341.752197  1.748798 -0.000032 -1.400785
time 84
0  -284.210266 -272.514771 1341.752197  1.748798 -0.000032 -1.401332
time 85
0  -284.210266 -272.185089 1341.752197  1.748798 -0.000032 -1.401878
time 86
0  -284.210266 -271.855438 1341.752197  1.748798 -0.000032 -1.402425
time 87
0  -284.210266 -271.525757 1341.752197  1.748798 -0.000032 -1.402972
time 88
0  -284.210266 -271.196075 1341.752197  1.748798 -0.000032 -1.403519
time 89
0  -284.210266 -270.866425 1341.752197  1.748798 -0.000032 -1.404065
time 90
0  -284.210266 -270.536743 1341.752197  1.748798 -0.000032 -1.404612
time 91
0  -284.210266 -270.207062 1341.752197  1.748798 -0.000032 -1.405159
time 92
0  -284.210266 -269.877411 1341.752197  1.748798 -0.000032 -1.405705
time 93
0  -284.210266 -269.547729 1341.752197  1.748798 -0.000032 -1.406252
time 94
0  -284.210266 -269.218048 1341.752197  1.748798 -0.000032 -1.406799
time 95
0  -284.210266 -268.888397 1341.752197  1.748798 -0.000032 -1.407346
time 96
0  -284.210266 -268.558716 1341.752197  1.748798 -0.000032 -1.407892
time 97
0  -284.210266 -268.229034 1341.752197  1.748798 -0.000032 -1.408439
time 98
0  -284.210266 -267.899384 1341.752197  1.748798 -0.000032 -1.408986
time 99
0  -284.210266 -267.569702 1341.752197  1.748798 -0.000032 -1.409533
time 100
0  -284.210266 -267.240021 1341.752197  1.748798 -0.000032 -1.410079
time 101
0  -284.210266 -266.910339 1341.752197  1.748798 -0.000032 -1.410626
time 102
0  -284.210266 -266.580688 1341.752197  1.748798 -0.000032 -1.411173
time 103
0  -284.210266 -266.251007 1341.752197  1.748798 -0.000032 -1.411720
time 104
0  -284.210266 -265.921326 1341.752197  1.748798 -0.000032 -1.412266
time 105
0  -284.210266 -265.591675 1341.752197  1.748798 -0.000032 -1.412813
time 106
0  -284.210266 -265.261993 1341.752197  1.748798 -0.000032 -1.413360
time 107
0  -284.210266 -264.932312 1341.752197  1.748798 -0.000032 -1.413907
time 108
0  -284.210266 -264.602661 1341.752197  1.748798 -0.000032 -1.414453
time 109
0  -284.210266 -264.272980 1341.752197  1.748798 -0.000032 -1.415000
time 110
0  -284.210266 -263.943298 1341.752197  1.748798 -0.000032 -1.415547
time 111
0  -284.210266 -263.613647 1341.752197  1.748799 -0.000032 -1.416094
time 112
0  -284.210266 -263.283966 1341.752197  1.748799 -0.000032 -1.416640
time 113
0  -284.210266 -262.954285 1341.752197  1.748799 -0.000032 -1.417187
time 114
0  -284.210266 -262.624634 1341.752197  1.748799 -0.000032 -1.417734
time 115
0  -284.210266 -262.294952 1341.752197  1.748799 -0.000032 -1.418280
time 116
0  -284.210266 -261.965271 1341.752197  1.748799 -0.000032 -1.418827
time 117
0  -284.210266 -261.635620 1341.752197  1.748799 -0.000032 -1.419374
time 118
0  -284.210266 -261.305939 1341.752197  1.748799 -0.000032 -1.419921
time 119
0  -284.210266 -260.976257 1341.752197  1.748799 -0.000032 -1.420467
time 120
0  -284.210266 -260.646606 1341.752197  1.748799 -0.000032 -1.421014
time 121
0  -284.210266 -260.316925 1341.752197  1.748799 -0.000032 -1.421561
time 122
0  -284.210266 -259.987244 1341.752197  1.748799 -0.000032 -1.422108
time 123
0  -284.210266 -259.657562 1341.752197  1.748799 -0.000032 -1.422654
time 124
0  -284.210266 -259.327911 1341.752197  1.748799 -0.000032 -1.423201
time 125
0  -284.210266 -258.998230 1341.752197  1.748799 -0.000032 -1.423748
time 126
0  -284.210266 -258.668549 1341.752197  1.748799 -0.000032 -1.424295
time 127
0  -284.210266 -258.338898 1341.752197  1.748799 -0.000032 -1.424841
time 128
0  -284.210266 -258.009216 1341.752197  1.748799 -0.000032 -1.425388
time 129
0  -284.210266 -257.679535 1341.752197  1.748799 -0.000032 -1.425935
time 130
0  -284.210266 -257.349884 1341.752197  1.748799 -0.000032 -1.426482
time 131
0  -284.210266 -257.020203 1341.752197  1.748799 -0.000032 -1.427028
time 132
0  -284.210266 -256.690521 1341.752197  1.748799 -0.000032 -1.427575
time 133
0  -284.210266 -256.360870 1341.752197  1.748799 -0.000032 -1.428122
time 134
0  -284.210266 -256.031189 1341.752197  1.748799 -0.000032 -1.428668
time 135
0  -284.210266 -255.701508 1341.752197  1.748799 -0.000032 -1.429215
time 136
0  -284.210266 -255.371841 1341.752197  1.748799 -0.000032 -1.429762
time 137
0  -284.210266 -255.042175 1341.752197  1.748799 -0.000032 -1.430309
time 138
0  -284.210266 -254.712494 1341.752197  1.748799 -0.000032 -1.430856
time 139
0  -284.210266 -254.382828 1341.752197  1.748799 -0.000032 -1.431402
time 140
0  -284.210266 -254.053162 1341.752197  1.748799 -0.000032 -1.431949
time 141
0  -284.210266 -253.723480 1341.752197  1.748799 -0.000032 -1.432496
time 142
0  -284.210266 -253.393814 1341.752197  1.748799 -0.000032 -1.433042
time 143
0  -284.210266 -253.064148 1341.752197  1.748799 -0.000032 -1.433589
time 144
0  -284.210266 -252.734467 1341.752197  1.748799 -0.000032 -1.434136
time 145
0  -284.210266 -252.404800 1341.752197  1.748799 -0.000032 -1.434683
time 146
0  -284.210266 -252.075134 1341.752197  1.748799 -0.000032 -1.435229
time 147
0  -284.210266 -251.745453 1341.752197  1.748799 -0.000032 -1.435776
time 148
0  -284.210266 -251.415787 1341.752197  1.748799 -0.000032 -1.436323
time 149
0  -284.210266 -251.086105 1341.752197  1.748799 -0.000032 -1.436870
time 150
0  -284.210266 -250.756439 1341.752197  1.748800 -0.000032 -1.437416
time 151
0  -284.210266 -250.426773 1341.752197  1.748800 -0.000032 -1.437963
time 152
0  -284.210266 -250.097092 1341.752197  1.748800 -0.000032 -1.438510
time 153
0  -284.210266 -249.767426 1341.752197  1.748800 -0.000032 -1.439057
time 154
0  -284.210266 -249.437744 1341.752197  1.748800 -0.000032 -1.439603
time 155
0  -284.210266 -249.108078 1341.752197  1.748800 -0.000032 -1.440150
time 156
0  -284.210266 -248.778412 1341.752197  1.748800 -0.000032 -1.440697
time 157
0  -284.210266 -248.448730 1341.752197  1.748800 -0.000032 -1.441244
time 158
0  -284.210266 -248.119064 1341.752197  1.748800 -0.000032 -1.441790
time 159
0  -284.210266 -247.789398 1341.752197  1.748800 -0.000032 -1.442337
time 160
0  -284.210266 -247.459717 1341.752197  1.748800 -0.000032 -1.442884
time 161
0  -284.210266 -247.130051 1341.752197  1.748800 -0.000032 -1.443431
time 162
0  -284.210266 -246.800385 1341.752197  1.748800 -0.000032 -1.443977
time 163
0  -284.210266 -246.470703 1341.752197  1.748800 -0.000032 -1.444524
time 164
0  -284.210266 -246.141037 1341.752197  1.748800 -0.000032 -1.445071
time 165
0  -284.210266 -245.811371 1341.752197  1.748800 -0.000032 -1.445617
time 166
0  -284.210266 -245.481689 1341.752197  1.748800 -0.000032 -1.446164
time 167
0  -284.210266 -245.152023 1341.752197  1.748800 -0.000032 -1.446711
time 168
0  -284.210266 -244.822357 1341.752197  1.748800 -0.000032 -1.447258
time 169
0  -284.210266 -244.492676 1341.752197  1.748800 -0.000032 -1.447804
time 170
0  -284.210266 -244.162994 1341.752197  1.748800 -0.000032 -1.448351
time 171
0  -284.210266 -243.833328 1341.752197  1.748800 -0.000032 -1.448898
time 172
0  -284.210266 -243.503662 1341.752197  1.748800 -0.000032 -1.449445
time 173
0  -284.210266 -243.173981 1341.752197  1.748800 -0.000032 -1.449991
time 174
0  -284.210266 -242.844315 1341.752197  1.748800 -0.000032 -1.450538
time 175
0  -284.210266 -242.514648 1341.752197  1.748800 -0.000032 -1.451085
time 176
0  -284.210266 -242.184967 1341.752197  1.748800 -0.000032 -1.451632
time 177
0  -284.210266 -241.855301 1341.752197  1.748800 -0.000032 -1.452178
time 178
0  -284.210266 -241.525635 1341.752197  1.748800 -0.000032 -1.452725
time 179
0  -284.210266 -241.195953 1341.752197  1.748800 -0.000032 -1.453272
time 180
0  -284.210266 -240.866287 1341.752197  1.748800 -0.000032 -1.453819
time 181
0  -284.210266 -240.536621 1341.752197  1.748800 -0.000032 -1.454365
time 182
0  -284.210266 -240.206940 1341.752197  1.748800 -0.000032 -1.454912
time 183
0  -284.210266 -239.877274 1341.752197  1.748800 -0.000032 -1.455459
time 184
0  -284.210266 -239.547607 1341.752197  1.748800 -0.000032 -1.456005
time 185
0  -284.210266 -239.217926 1341.752197  1.748800 -0.000032 -1.456552
time 186
0  -284.210266 -238.888260 1341.752197  1.748800 -0.000032 -1.457099
time 187
0  -284.210266 -238.558578 1341.752197  1.748800 -0.000032 -1.457646
time 188
0  -284.210266 -238.228912 1341.752197  1.748800 -0.000032 -1.458192
time 189
0  -284.210266 -237.899246 1341.752197  1.748800 -0.000032 -1.458739
time 190
0  -284.210266 -237.569565 1341.752197  1.748801 -0.000032 -1.459286
time 191
0  -284.210266 -237.239899 1341.752197  1.748801 -0.000032 -1.459833
time 192
0  -284.210266 -236.910233 1341.752197  1.748801 -0.000032 -1.460379
time 193
0  -284.210266 -236.580551 1341.752197  1.748801 -0.000032 -1.460926
time 194
0  -284.210266 -236.250885 1341.752197  1.748801 -0.000032 -1.461473
time 195
0  -284.210266 -235.921204 1341.752197  1.748801 -0.000032 -1.462020
time 196
0  -284.210266 -235.591537 1341.752197  1.748801 -0.000032 -1.462566
time 197
0  -284.210266 -235.261871 1341.752197  1.748801 -0.000032 -1.463113
time 198
0  -284.210266 -234.932190 1341.752197  1.748801 -0.000032 -1.463660
time 199
0  -284.210266 -234.602524 1341.752197  1.748801 -0.000032 -1.464207
time 200
0  -284.210266 -234.272858 1341.752197  1.748801 -0.000032 -1.464753
time 201
0  -284.210266 -233.943176 1341.752197  1.748801 -0.000032 -1.465300
time 202
0  -284.210266 -233.613510 1341.752197  1.748801 -0.000032 -1.465847
time 203
0  -284.210266 -233.283844 1341.752197  1.748801 -0.000032 -1.466394
time 204
0  -284.210266 -232.954163 1341.752197  1.748801 -0.000032 -1.466940
time 205
0  -284.210266 -232.624496 1341.752197  1.748801 -0.000032 -1.467487
time 206
0  -284.210266 -232.294830 1341.752197  1.748801 -0.000032 -1.468034
time 207
0  -284.210266 -231.965149 1341.752197  1.748801 -0.000032 -1.468580
time 208
0  -284.210266 -231.635483 1341.752197  1.748801 -0.000032 -1.469127
time 209
0  -284.210266 -231.305817 1341.752197  1.748801 -0.000032 -1.469674
time 210
0  -284.210266 -230.976135 1341.752197  1.748801 -0.000032 -1.470221
time 211
0  -284.210266 -230.646454 1341.752197  1.748801 -0.000032 -1.470767
time 212
0  -284.210266 -230.316788 1341.752197  1.748801 -0.000032 -1.471314
time 213
0  -284.210266 -229.987122 1341.752197  1.748801 -0.000032 -1.471861
time 214
0  -284.210266 -229.657440 1341.752197  1.748801 -0.000032 -1.472408
time 215
0  -284.210266 -229.327774 1341.752197  1.748801 -0.000032 -1.472954
time 216
0  -284.210266 -228.998108 1341.752197  1.748801 -0.000032 -1.473501
time 217
0  -284.210266 -228.668427 1341.752197  1.748801 -0.000032 -1.474048
time 218
0  -284.210266 -228.338760 1341.752197  1.748801 -0.000032 -1.474595
time 219
0  -284.210266 -228.009094 1341.752197  1.748801 -0.000032 -1.475141
time 220
0  -284.210266 -227.679413 1341.752197  1.748801 -0.000032 -1.475688
time 221
0  -284.210266 -227.349747 1341.752197  1.748801 -0.000032 -1.476235
time 222
0  -284.210266 -227.020081 1341.752197  1.748801 -0.000032 -1.476782
time 223
0  -284.210266 -226.690399 1341.752197  1.748801 -0.000032 -1.477328
time 224
0  -284.210266 -226.360733 1341.752197  1.748801 -0.000032 -1.477875
time 225
0  -284.210266 -226.031067 1341.752197  1.748801 -0.000032 -1.478422
time 226
0  -284.210266 -225.701385 1341.752197  1.748801 -0.000032 -1.478969
time 227
0  -284.210266 -225.371704 1341.752197  1.748801 -0.000032 -1.479515
time 228
0  -284.210266 -225.042053 1341.752197  1.748801 -0.000032 -1.480062
time 229
0  -284.210266 -224.712372 1341.752197  1.748801 -0.000032 -1.480609
time 230
0  -284.210266 -224.382690 1341.752197  1.748801 -0.000032 -1.481156
time 231
0  -284.210266 -224.053040 1341.752197  1.748801 -0.000032 -1.481702
time 232
0  -284.210266 -223.723358 1341.752197  1.748801 -0.000032 -1.482249
time 233
0  -284.210266 -223.393677 1341.752197  1.748801 -0.000032 -1.482796
time 234
0  -284.210266 -223.064011 1341.752197  1.748802 -0.000032 -1.483342
time 235
0  -284.210266 -222.734344 1341.752197  1.748802 -0.000032 -1.483889
time 236
0  -284.210266 -222.404663 1341.752197  1.748802 -0.000032 -1.484436
time 237
0  -284.210266 -222.074997 1341.752197  1.748802 -0.000032 -1.484983
time 238
0  -284.210266 -221.745331 1341.752197  1.748802 -0.000032 -1.485529
time 239
0  -284.210266 -221.415649 1341.752197  1.748802 -0.000032 -1.486076
time 240
0  -284.210266 -221.085983 1341.752197  1.748802 -0.000032 -1.486623
time 241
0  -284.210266 -220.756317 1341.752197  1.748802 -0.000032 -1.487170
time 242
0  -284.210266 -220.426636 1341.752197  1.748802 -0.000032 -1.487716
time 243
0  -284.210266 -220.096970 1341.752197  1.748802 -0.000032 -1.488263
time 244
0  -284.210266 -219.767303 1341.752197  1.748802 -0.000032 -1.488810
time 245
0  -284.210266 -219.437622 1341.752197  1.748802 -0.000032 -1.489357
time 246
0  -284.210266 -219.107941 1341.752197  1.748802 -0.000032 -1.489903
time 247
0  -284.210266 -218.778275 1341.752197  1.748802 -0.000032 -1.490450
time 248
0  -284.210266 -218.448608 1341.752197  1.748802 -0.000032 -1.490997
time 249
0  -284.210266 -218.118927 1341.752197  1.748802 -0.000032 -1.491544
time 250
0  -284.210266 -217.789261 1341.752197  1.748802 -0.000032 -1.492090
time 251
0  -284.210266 -217.459595 1341.752197  1.748802 -0.000032 -1.492637
time 252
0  -284.210266 -217.129913 1341.752197  1.748802 -0.000032 -1.493184
time 253
0  -284.210266 -216.800247 1341.752197  1.748802 -0.000032 -1.493731
time 254
0  -284.210266 -216.470581 1341.752197  1.748802 -0.000032 -1.494277
time 255
0  -284.210266 -216.140900 1341.752197  1.748802 -0.000032 -1.494824
time 256
0  -284.210266 -215.811234 1341.752197  1.748802 -0.000032 -1.495371
time 257
0  -284.210266 -215.481567 1341.752197  1.748802 -0.000032 -1.495917
time 258
0  -284.210266 -215.151886 1341.752197  1.748802 -0.000032 -1.496464
time 259
0  -284.210266 -214.822220 1341.752197  1.748802 -0.000032 -1.497011
time 260
0  -284.210266 -214.492554 1341.752197  1.748802 -0.000032 -1.497558
time 261
0  -284.210266 -214.162872 1341.752197  1.748802 -0.000032 -1.498104
time 262
0  -284.210266 -213.833206 1341.752197  1.748802 -0.000032 -1.498651
time 263
0  -284.210266 -213.503540 1341.752197  1.748802 -0.000032 -1.499198
time 264
0  -284.210266 -213.173859 1341.752197  1.748802 -0.000032 -1.499745
time 265
0  -284.210266 -212.844177 1341.752197  1.748802 -0.000032 -1.500291
time 266
0  -284.210266 -212.514526 1341.752197  1.748802 -0.000032 -1.500838
time 267
0  -284.210266 -212.184845 1341.752197  1.748802 -0.000032 -1.501385
time 268
0  -284.210266 -211.855164 1341.752197  1.748802 -0.000032 -1.501932
time 269
0  -284.210266 -211.525513 1341.752197  1.748802 -0.000032 -1.502478
end
