version 1
nodes
0 "cam" -1
end
skeleton
time 0
0  521.314880 231.952881 108.620735  1.404258 -0.000004 2.322203
time 1
0  521.314880 231.952881 108.620735  1.404258 -0.000004 2.322203
time 2
0  521.314880 231.952881 108.620735  1.404258 -0.000004 2.322203
time 3
0  521.314880 231.952881 108.620735  1.404258 -0.000004 2.322203
time 4
0  521.314880 231.952881 108.620735  1.404258 -0.000004 2.322203
time 5
0  521.314880 231.952881 108.620735  1.404258 -0.000004 2.322203
time 6
0  521.314880 231.952881 108.620735  1.404258 -0.000004 2.322203
time 7
0  521.314880 231.952881 108.620735  1.404258 -0.000004 2.322203
time 8
0  521.314880 231.952881 108.620735  1.404258 -0.000004 2.322203
time 9
0  521.314880 231.952881 108.620735  1.404258 -0.000004 2.322203
time 10
0  521.314880 231.952881 108.620735  1.404258 -0.000004 2.322203
time 11
0  521.314880 231.952881 108.620735  1.404258 -0.000004 2.322203
time 12
0  521.314880 231.952881 108.620735  1.404258 -0.000004 2.322203
time 13
0  521.314880 231.952881 108.620735  1.404258 -0.000004 2.322203
time 14
0  521.314880 231.952881 108.620735  1.404258 -0.000004 2.322203
time 15
0  521.314880 231.952881 108.620735  1.404258 -0.000004 2.322203
time 16
0  521.314880 231.952881 108.620735  1.404258 -0.000004 2.322203
time 17
0  521.314880 231.952881 108.620735  1.404258 -0.000004 2.322203
time 18
0  521.314880 231.952881 108.620735  1.404258 -0.000004 2.322203
time 19
0  521.314880 231.952881 108.620735  1.404258 -0.000004 2.322203
time 20
0  521.314880 231.952881 108.620735  1.404258 -0.000004 2.322203
time 21
0  521.314880 231.952881 108.620735  1.404258 -0.000004 2.322203
time 22
0  521.314880 231.952881 108.620735  1.404258 -0.000004 2.322203
time 23
0  521.314880 231.952881 108.620735  1.404258 -0.000004 2.322203
time 24
0  521.314880 231.952881 108.620735  1.404258 -0.000004 2.322203
time 25
0  521.314880 231.952881 108.620735  1.404258 -0.000004 2.322203
time 26
0  521.314880 231.952881 108.620735  1.404258 -0.000004 2.322203
time 27
0  521.314880 231.952881 108.620735  1.404258 -0.000004 2.322203
time 28
0  521.314880 231.952881 108.620735  1.404258 -0.000004 2.322203
time 29
0  521.314880 231.952881 108.620735  1.404258 -0.000004 2.322203
time 30
0  521.314880 231.952881 108.620735  1.404258 -0.000004 2.322203
time 31
0  520.958252 231.952881 108.620735  1.404258 -0.000004 2.322509
time 32
0  520.601562 231.952881 108.620735  1.404258 -0.000004 2.322814
time 33
0  520.244934 231.952881 108.620735  1.404258 -0.000004 2.323119
time 34
0  519.888245 231.952881 108.620735  1.404258 -0.000004 2.323425
time 35
0  519.531616 231.952881 108.620735  1.404258 -0.000004 2.323730
time 36
0  519.174927 231.952881 108.620735  1.404258 -0.000004 2.324035
time 37
0  518.818298 231.952881 108.620735  1.404258 -0.000004 2.324341
time 38
0  518.461609 231.952881 108.620735  1.404258 -0.000004 2.324646
time 39
0  518.104980 231.952881 108.620735  1.404258 -0.000004 2.324951
time 40
0  517.748291 231.952881 108.620735  1.404258 -0.000004 2.325257
time 41
0  517.391663 231.952881 108.620735  1.404258 -0.000004 2.325562
time 42
0  517.034973 231.952881 108.620735  1.404258 -0.000004 2.325867
time 43
0  516.678345 231.952881 108.620735  1.404258 -0.000004 2.326173
time 44
0  516.321655 231.952881 108.620735  1.404258 -0.000004 2.326478
time 45
0  515.965027 231.952881 108.620735  1.404258 -0.000004 2.326783
time 46
0  515.608337 231.952881 108.620735  1.404258 -0.000004 2.327089
time 47
0  515.251709 231.952881 108.620735  1.404258 -0.000004 2.327394
time 48
0  514.895020 231.952881 108.620735  1.404258 -0.000004 2.327699
time 49
0  514.538391 231.952881 108.620735  1.404258 -0.000004 2.328005
time 50
0  514.181702 231.952881 108.620735  1.404258 -0.000004 2.328310
time 51
0  513.825073 231.952881 108.620735  1.404258 -0.000004 2.328615
time 52
0  513.468384 231.952881 108.620735  1.404258 -0.000004 2.328921
time 53
0  513.111755 231.952881 108.620735  1.404258 -0.000004 2.329226
time 54
0  512.755127 231.952881 108.620735  1.404258 -0.000004 2.329531
time 55
0  512.398438 231.952881 108.620735  1.404258 -0.000004 2.329837
time 56
0  512.041809 231.952881 108.620735  1.404258 -0.000004 2.330142
time 57
0  511.685120 231.952881 108.620735  1.404258 -0.000004 2.330447
time 58
0  511.328461 231.952881 108.620735  1.404258 -0.000004 2.330753
time 59
0  510.971802 231.952881 108.620735  1.404258 -0.000004 2.331058
time 60
0  510.615143 231.952881 108.620735  1.404258 -0.000004 2.331363
time 61
0  510.258484 231.952881 108.620735  1.404258 -0.000004 2.331669
time 62
0  509.901825 231.952881 108.620735  1.404258 -0.000004 2.331974
time 63
0  509.545166 231.952881 108.620735  1.404258 -0.000004 2.332279
time 64
0  509.188507 231.952881 108.620735  1.404258 -0.000004 2.332585
time 65
0  508.831848 231.952881 108.620735  1.404258 -0.000004 2.332890
time 66
0  508.475220 231.952881 108.620735  1.404258 -0.000004 2.333195
time 67
0  508.118561 231.952881 108.620735  1.404258 -0.000004 2.333500
time 68
0  507.761902 231.952881 108.620735  1.404258 -0.000004 2.333806
time 69
0  507.405243 231.952881 108.620735  1.404258 -0.000004 2.334111
time 70
0  507.048584 231.952881 108.620735  1.404258 -0.000004 2.334416
time 71
0  506.691925 231.952881 108.620735  1.404258 -0.000004 2.334722
time 72
0  506.335266 231.952881 108.620735  1.404258 -0.000004 2.335027
time 73
0  505.978607 231.952881 108.620735  1.404258 -0.000004 2.335332
time 74
0  505.621948 231.952881 108.620735  1.404258 -0.000004 2.335638
time 75
0  505.265289 231.952881 108.620735  1.404258 -0.000004 2.335943
time 76
0  504.908630 231.952881 108.620735  1.404258 -0.000004 2.336248
time 77
0  504.551971 231.952881 108.620735  1.404258 -0.000004 2.336554
time 78
0  504.195312 231.952881 108.620735  1.404258 -0.000004 2.336859
time 79
0  503.838654 231.952881 108.620735  1.404258 -0.000004 2.337164
time 80
0  503.481995 231.952881 108.620735  1.404258 -0.000004 2.337470
time 81
0  503.125336 231.952881 108.620735  1.404258 -0.000004 2.337775
time 82
0  502.768677 231.952881 108.620735  1.404258 -0.000004 2.338080
time 83
0  502.412018 231.952881 108.620735  1.404258 -0.000004 2.338386
time 84
0  502.055359 231.952881 108.620735  1.404258 -0.000004 2.338691
time 85
0  501.698700 231.952881 108.620735  1.404258 -0.000004 2.338996
time 86
0  501.342041 231.952881 108.620735  1.404258 -0.000004 2.339302
time 87
0  500.985382 231.952881 108.620735  1.404258 -0.000004 2.339607
time 88
0  500.628723 231.952881 108.620735  1.404258 -0.000004 2.339912
time 89
0  500.272064 231.952881 108.620735  1.404258 -0.000004 2.340218
time 90
0  499.915436 231.952881 108.620735  1.404258 -0.000004 2.340523
time 91
0  499.558777 231.952881 108.620735  1.404258 -0.000004 2.340828
time 92
0  499.202118 231.952881 108.620735  1.404258 -0.000004 2.341134
time 93
0  498.845459 231.952881 108.620735  1.404258 -0.000004 2.341439
time 94
0  498.488800 231.952881 108.620735  1.404258 -0.000004 2.341744
time 95
0  498.132141 231.952881 108.620735  1.404258 -0.000004 2.342050
time 96
0  497.775482 231.952881 108.620735  1.404258 -0.000004 2.342355
time 97
0  497.418823 231.952881 108.620735  1.404258 -0.000004 2.342660
time 98
0  497.062164 231.952881 108.620735  1.404258 -0.000004 2.342966
time 99
0  496.705505 231.952881 108.620735  1.404258 -0.000004 2.343271
time 100
0  496.348846 231.952881 108.620735  1.404258 -0.000004 2.343576
time 101
0  495.992188 231.952881 108.620735  1.404258 -0.000004 2.343882
time 102
0  495.635529 231.952881 108.620735  1.404258 -0.000004 2.344187
time 103
0  495.278870 231.952881 108.620735  1.404258 -0.000004 2.344492
time 104
0  494.922211 231.952881 108.620735  1.404258 -0.000004 2.344798
time 105
0  494.565552 231.952881 108.620735  1.404258 -0.000004 2.345103
time 106
0  494.208893 231.952881 108.620735  1.404258 -0.000004 2.345408
time 107
0  493.852234 231.952881 108.620735  1.404258 -0.000004 2.345714
time 108
0  493.495575 231.952881 108.620735  1.404258 -0.000004 2.346019
time 109
0  493.138916 231.952881 108.620735  1.404258 -0.000004 2.346324
time 110
0  492.782257 231.952881 108.620735  1.404258 -0.000004 2.346630
time 111
0  492.425598 231.952881 108.620735  1.404258 -0.000004 2.346935
time 112
0  492.068939 231.952881 108.620735  1.404258 -0.000004 2.347240
time 113
0  491.712280 231.952881 108.620735  1.404258 -0.000004 2.347546
time 114
0  491.355621 231.952881 108.620735  1.404258 -0.000004 2.347851
time 115
0  490.998993 231.952881 108.620735  1.404258 -0.000004 2.348156
time 116
0  490.642334 231.952881 108.620735  1.404258 -0.000004 2.348461
time 117
0  490.285675 231.952881 108.620735  1.404258 -0.000004 2.348767
time 118
0  489.929016 231.952881 108.620735  1.404258 -0.000004 2.349072
time 119
0  489.572357 231.952881 108.620735  1.404258 -0.000004 2.349377
time 120
0  489.215698 231.952881 108.620735  1.404258 -0.000004 2.349683
time 121
0  488.859039 231.952881 108.620735  1.404258 -0.000004 2.349988
time 122
0  488.502380 231.952881 108.620735  1.404258 -0.000004 2.350293
time 123
0  488.145721 231.952881 108.620735  1.404258 -0.000004 2.350599
time 124
0  487.789062 231.952881 108.620735  1.404258 -0.000004 2.350904
time 125
0  487.432404 231.952881 108.620735  1.404258 -0.000004 2.351209
time 126
0  487.075745 231.952881 108.620735  1.404258 -0.000004 2.351515
time 127
0  486.719086 231.952881 108.620735  1.404258 -0.000004 2.351820
time 128
0  486.362427 231.952881 108.620735  1.404258 -0.000004 2.352125
time 129
0  486.005768 231.952881 108.620735  1.404258 -0.000004 2.352431
time 130
0  485.649109 231.952881 108.620735  1.404258 -0.000004 2.352736
time 131
0  485.292450 231.952881 108.620735  1.404258 -0.000004 2.353041
time 132
0  484.935791 231.952881 108.620735  1.404258 -0.000004 2.353347
time 133
0  484.579132 231.952881 108.620735  1.404258 -0.000004 2.353652
time 134
0  484.222473 231.952881 108.620735  1.404258 -0.000004 2.353957
time 135
0  483.865814 231.952881 108.620735  1.404258 -0.000004 2.354263
time 136
0  483.509155 231.952881 108.620735  1.404258 -0.000004 2.354568
time 137
0  483.152527 231.952881 108.620735  1.404258 -0.000004 2.354873
time 138
0  482.795837 231.952881 108.620735  1.404258 -0.000004 2.355179
time 139
0  482.439209 231.952881 108.620735  1.404258 -0.000004 2.355484
time 140
0  482.082520 231.952881 108.620735  1.404258 -0.000004 2.355789
time 141
0  481.725891 231.952881 108.620735  1.404258 -0.000004 2.356095
time 142
0  481.369232 231.952881 108.620735  1.404258 -0.000004 2.356400
time 143
0  481.012573 231.952881 108.620735  1.404258 -0.000004 2.356705
time 144
0  480.655914 231.952881 108.620735  1.404258 -0.000004 2.357011
time 145
0  480.299255 231.952881 108.620735  1.404258 -0.000004 2.357316
time 146
0  479.942596 231.952881 108.620735  1.404258 -0.000004 2.357621
time 147
0  479.585938 231.952881 108.620735  1.404258 -0.000004 2.357927
time 148
0  479.229279 231.952881 108.620735  1.404258 -0.000004 2.358232
time 149
0  478.872620 231.952881 108.620735  1.404258 -0.000004 2.358537
time 150
0  478.515961 231.952881 108.620735  1.404258 -0.000004 2.358843
time 151
0  478.159302 231.952881 108.620735  1.404258 -0.000004 2.359148
time 152
0  477.802643 231.952881 108.620735  1.404258 -0.000004 2.359453
time 153
0  477.445984 231.952881 108.620735  1.404258 -0.000004 2.359759
time 154
0  477.089325 231.952881 108.620735  1.404258 -0.000004 2.360064
time 155
0  476.732666 231.952881 108.620735  1.404258 -0.000004 2.360369
time 156
0  476.376007 231.952881 108.620735  1.404258 -0.000004 2.360675
time 157
0  476.019348 231.952881 108.620735  1.404258 -0.000004 2.360980
time 158
0  475.662689 231.952881 108.620735  1.404258 -0.000004 2.361285
time 159
0  475.306030 231.952881 108.620735  1.404258 -0.000004 2.361591
time 160
0  474.949402 231.952881 108.620735  1.404258 -0.000004 2.361896
time 161
0  474.592712 231.952881 108.620735  1.404258 -0.000004 2.362201
time 162
0  474.236084 231.952881 108.620735  1.404258 -0.000004 2.362507
time 163
0  473.879395 231.952881 108.620735  1.404258 -0.000004 2.362812
time 164
0  473.522766 231.952881 108.620735  1.404258 -0.000004 2.363117
time 165
0  473.166107 231.952881 108.620735  1.404258 -0.000004 2.363422
time 166
0  472.809448 231.952881 108.620735  1.404258 -0.000004 2.363728
time 167
0  472.452789 231.952881 108.620735  1.404258 -0.000004 2.364033
time 168
0  472.096130 231.952881 108.620735  1.404258 -0.000004 2.364338
time 169
0  471.739471 231.952881 108.620735  1.404258 -0.000004 2.364644
time 170
0  471.382812 231.952881 108.620735  1.404258 -0.000004 2.364949
time 171
0  471.026154 231.952881 108.620735  1.404258 -0.000004 2.365254
time 172
0  470.669495 231.952881 108.620735  1.404258 -0.000004 2.365560
time 173
0  470.312836 231.952881 108.620735  1.404258 -0.000004 2.365865
time 174
0  469.956177 231.952881 108.620735  1.404258 -0.000004 2.366170
time 175
0  469.599518 231.952881 108.620735  1.404258 -0.000004 2.366476
time 176
0  469.242859 231.952881 108.620735  1.404258 -0.000004 2.366781
time 177
0  468.886200 231.952881 108.620735  1.404258 -0.000004 2.367086
time 178
0  468.529541 231.952881 108.620735  1.404258 -0.000004 2.367392
time 179
0  468.172882 231.952881 108.620735  1.404258 -0.000004 2.367697
time 180
0  467.816223 231.952881 108.620735  1.404258 -0.000004 2.368002
time 181
0  467.459564 231.952881 108.620735  1.404258 -0.000004 2.368308
time 182
0  467.102905 231.952881 108.620735  1.404258 -0.000004 2.368613
time 183
0  466.746246 231.952881 108.620735  1.404258 -0.000004 2.368918
time 184
0  466.389587 231.952881 108.620735  1.404258 -0.000004 2.369224
time 185
0  466.032959 231.952881 108.620735  1.404258 -0.000004 2.369529
time 186
0  465.676270 231.952881 108.620735  1.404258 -0.000004 2.369834
time 187
0  465.319641 231.952881 108.620735  1.404258 -0.000004 2.370140
time 188
0  464.962952 231.952881 108.620735  1.404258 -0.000004 2.370445
time 189
0  464.606323 231.952881 108.620735  1.404258 -0.000004 2.370750
time 190
0  464.249664 231.952881 108.620735  1.404258 -0.000004 2.371056
time 191
0  463.893005 231.952881 108.620735  1.404258 -0.000004 2.371361
time 192
0  463.536346 231.952881 108.620735  1.404258 -0.000004 2.371666
time 193
0  463.179688 231.952881 108.620735  1.404258 -0.000004 2.371972
time 194
0  462.823029 231.952881 108.620735  1.404258 -0.000004 2.372277
time 195
0  462.466370 231.952881 108.620735  1.404258 -0.000004 2.372582
time 196
0  462.109711 231.952881 108.620735  1.404258 -0.000004 2.372888
time 197
0  461.753052 231.952881 108.620735  1.404258 -0.000004 2.373193
time 198
0  461.396393 231.952881 108.620735  1.404258 -0.000004 2.373498
time 199
0  461.039734 231.952881 108.620735  1.404258 -0.000004 2.373804
time 200
0  460.683075 231.952881 108.620735  1.404258 -0.000004 2.374109
time 201
0  460.326416 231.952881 108.620735  1.404258 -0.000004 2.374414
time 202
0  459.969757 231.952881 108.620735  1.404258 -0.000004 2.374720
time 203
0  459.613098 231.952881 108.620735  1.404258 -0.000004 2.375025
time 204
0  459.256439 231.952881 108.620735  1.404258 -0.000004 2.375330
time 205
0  458.899780 231.952881 108.620735  1.404258 -0.000004 2.375636
time 206
0  458.543121 231.952881 108.620735  1.404258 -0.000004 2.375941
time 207
0  458.186462 231.952881 108.620735  1.404258 -0.000004 2.376246
time 208
0  457.829834 231.952881 108.620735  1.404258 -0.000004 2.376552
time 209
0  457.473145 231.952881 108.620735  1.404258 -0.000004 2.376857
time 210
0  457.116516 231.952881 108.620735  1.404258 -0.000004 2.377162
time 211
0  456.759827 231.952881 108.620735  1.404258 -0.000004 2.377468
time 212
0  456.403198 231.952881 108.620735  1.404258 -0.000004 2.377773
time 213
0  456.046539 231.952881 108.620735  1.404258 -0.000004 2.378078
time 214
0  455.689880 231.952881 108.620735  1.404258 -0.000004 2.378384
time 215
0  455.333221 231.952881 108.620735  1.404258 -0.000004 2.378689
time 216
0  454.976562 231.952881 108.620735  1.404258 -0.000004 2.378994
time 217
0  454.619904 231.952881 108.620735  1.404258 -0.000004 2.379299
time 218
0  454.263245 231.952881 108.620735  1.404258 -0.000004 2.379605
time 219
0  453.906586 231.952881 108.620735  1.404258 -0.000004 2.379910
time 220
0  453.549927 231.952881 108.620735  1.404258 -0.000004 2.380215
time 221
0  453.193268 231.952881 108.620735  1.404258 -0.000004 2.380521
time 222
0  452.836609 231.952881 108.620735  1.404258 -0.000004 2.380826
time 223
0  452.479950 231.952881 108.620735  1.404258 -0.000004 2.381131
time 224
0  452.123291 231.952881 108.620735  1.404258 -0.000004 2.381437
time 225
0  451.766632 231.952881 108.620735  1.404258 -0.000004 2.381742
time 226
0  451.409973 231.952881 108.620735  1.404258 -0.000004 2.382047
time 227
0  451.053314 231.952881 108.620735  1.404258 -0.000004 2.382353
time 228
0  450.696655 231.952881 108.620735  1.404258 -0.000004 2.382658
time 229
0  450.339996 231.952881 108.620735  1.404258 -0.000004 2.382963
time 230
0  449.983337 231.952881 108.620735  1.404258 -0.000004 2.383269
time 231
0  449.626678 231.952881 108.620735  1.404258 -0.000004 2.383574
time 232
0  449.270020 231.952881 108.620735  1.404258 -0.000004 2.383879
time 233
0  448.913391 231.952881 108.620735  1.404258 -0.000004 2.384185
time 234
0  448.556702 231.952881 108.620735  1.404258 -0.000004 2.384490
time 235
0  448.200073 231.952881 108.620735  1.404258 -0.000004 2.384795
time 236
0  447.843414 231.952881 108.620735  1.404258 -0.000004 2.385101
time 237
0  447.486755 231.952881 108.620735  1.404258 -0.000004 2.385406
time 238
0  447.130066 231.952881 108.620735  1.404258 -0.000004 2.385711
time 239
0  446.773438 231.952881 108.620735  1.404258 -0.000004 2.386017
time 240
0  446.416779 231.952881 108.620735  1.404258 -0.000004 2.386322
time 241
0  446.060120 231.952881 108.620735  1.404258 -0.000004 2.386627
time 242
0  445.703461 231.952881 108.620735  1.404258 -0.000004 2.386933
time 243
0  445.346802 231.952881 108.620735  1.404258 -0.000004 2.387238
time 244
0  444.990143 231.952881 108.620735  1.404258 -0.000004 2.387543
time 245
0  444.633484 231.952881 108.620735  1.404258 -0.000004 2.387849
time 246
0  444.276825 231.952881 108.620735  1.404258 -0.000004 2.388154
time 247
0  443.920166 231.952881 108.620735  1.404258 -0.000004 2.388459
time 248
0  443.563507 231.952881 108.620735  1.404258 -0.000004 2.388765
time 249
0  443.206848 231.952881 108.620735  1.404258 -0.000004 2.389070
time 250
0  442.850189 231.952881 108.620735  1.404258 -0.000004 2.389375
time 251
0  442.493530 231.952881 108.620735  1.404258 -0.000004 2.389681
time 252
0  442.136871 231.952881 108.620735  1.404258 -0.000004 2.389986
time 253
0  441.780212 231.952881 108.620735  1.404258 -0.000004 2.390291
time 254
0  441.423553 231.952881 108.620735  1.404258 -0.000004 2.390597
time 255
0  441.066895 231.952881 108.620735  1.404258 -0.000004 2.390902
time 256
0  440.710266 231.952881 108.620735  1.404258 -0.000004 2.391207
time 257
0  440.353577 231.952881 108.620735  1.404258 -0.000004 2.391513
time 258
0  439.996948 231.952881 108.620735  1.404258 -0.000004 2.391818
time 259
0  439.640289 231.952881 108.620735  1.404258 -0.000004 2.392123
time 260
0  439.283630 231.952881 108.620735  1.404258 -0.000004 2.392429
time 261
0  438.926941 231.952881 108.620735  1.404258 -0.000004 2.392734
time 262
0  438.570312 231.952881 108.620735  1.404258 -0.000004 2.393039
time 263
0  438.213654 231.952881 108.620735  1.404258 -0.000004 2.393345
time 264
0  437.856995 231.952881 108.620735  1.404258 -0.000004 2.393650
time 265
0  437.500336 231.952881 108.620735  1.404258 -0.000004 2.393955
time 266
0  437.143677 231.952881 108.620735  1.404258 -0.000004 2.394260
time 267
0  436.787018 231.952881 108.620735  1.404258 -0.000004 2.394566
time 268
0  436.430359 231.952881 108.620735  1.404258 -0.000004 2.394871
time 269
0  436.073700 231.952881 108.620735  1.404258 -0.000004 2.395176
end
