version 1
nodes
0 "cam" -1
end
skeleton
time 0
0  132.965652 169.511353 37.858803  1.371136 -0.000003 0.603352
time 1
0  132.965652 169.511353 37.858803  1.371136 -0.000003 0.603352
time 2
0  132.965652 169.511353 37.858803  1.371136 -0.000003 0.603352
time 3
0  132.965652 169.511353 37.858803  1.371136 -0.000003 0.603352
time 4
0  132.965652 169.511353 37.858803  1.371136 -0.000003 0.603352
time 5
0  132.965652 169.511353 37.858803  1.371136 -0.000003 0.603352
time 6
0  132.965652 169.511353 37.858803  1.371136 -0.000003 0.603352
time 7
0  132.965652 169.511353 37.858803  1.371136 -0.000003 0.603352
time 8
0  132.965652 169.511353 37.858803  1.371136 -0.000003 0.603352
time 9
0  132.965652 169.511353 37.858803  1.371136 -0.000003 0.603352
time 10
0  132.965652 169.511353 37.858803  1.371136 -0.000003 0.603352
time 11
0  132.965652 169.511353 37.858803  1.371136 -0.000003 0.603352
time 12
0  132.965652 169.511353 37.858803  1.371136 -0.000003 0.603352
time 13
0  132.965652 169.511353 37.858803  1.371136 -0.000003 0.603352
time 14
0  132.965652 169.511353 37.858803  1.371136 -0.000003 0.603352
time 15
0  132.965652 169.511353 37.858803  1.371136 -0.000003 0.603352
time 16
0  132.965652 169.511353 37.858803  1.371136 -0.000003 0.603352
time 17
0  132.965652 169.511353 37.858803  1.371136 -0.000003 0.603352
time 18
0  132.965652 169.511353 37.858803  1.371136 -0.000003 0.603352
time 19
0  132.965652 169.511353 37.858803  1.371136 -0.000003 0.603352
time 20
0  132.965652 169.511353 37.858803  1.371136 -0.000003 0.603352
time 21
0  132.965652 169.511353 37.858803  1.371136 -0.000003 0.603352
time 22
0  132.965652 169.511353 37.858803  1.371136 -0.000003 0.603352
time 23
0  132.965652 169.511353 37.858803  1.371136 -0.000003 0.603352
time 24
0  132.965652 169.511353 37.858803  1.371136 -0.000003 0.603352
time 25
0  132.965652 169.511353 37.858803  1.371136 -0.000003 0.603352
time 26
0  132.965652 169.511353 37.858803  1.371136 -0.000003 0.603352
time 27
0  132.965652 169.511353 37.858803  1.371136 -0.000003 0.603352
time 28
0  132.965652 169.511353 37.858803  1.371136 -0.000003 0.603352
time 29
0  132.965652 169.511353 37.858803  1.371136 -0.000003 0.603352
time 30
0  132.965652 169.511353 37.858803  1.371136 -0.000003 0.603352
time 31
0  132.965652 170.148605 37.858803  1.371144 -0.000003 0.603342
time 32
0  132.965652 170.785858 37.858803  1.371167 -0.000003 0.603314
time 33
0  132.965652 171.423111 37.858803  1.371206 -0.000003 0.603267
time 34
0  132.965652 172.060379 37.858803  1.371260 -0.000003 0.603200
time 35
0  132.965652 172.697632 37.858803  1.371330 -0.000003 0.603115
time 36
0  132.965652 173.334885 37.858803  1.371415 -0.000003 0.603011
time 37
0  132.965652 173.972137 37.858803  1.371515 -0.000003 0.602888
time 38
0  132.965652 174.609390 37.858803  1.371631 -0.000003 0.602747
time 39
0  132.965652 175.246643 37.858803  1.371762 -0.000003 0.602586
time 40
0  132.965652 175.883896 37.858803  1.371909 -0.000003 0.602406
time 41
0  132.965652 176.521149 37.858803  1.372071 -0.000002 0.602208
time 42
0  132.965652 177.158417 37.858803  1.372249 -0.000002 0.601990
time 43
0  132.965652 177.795670 37.858803  1.372442 -0.000002 0.601754
time 44
0  132.965652 178.432922 37.858803  1.372651 -0.000003 0.601499
time 45
0  132.965652 179.070175 37.858803  1.372875 -0.000003 0.601225
time 46
0  132.965652 179.707428 37.858803  1.373114 -0.000003 0.600931
time 47
0  132.965652 180.344681 37.858803  1.373369 -0.000002 0.600619
time 48
0  132.965652 180.981934 37.858803  1.373640 -0.000003 0.600289
time 49
0  132.965652 181.619202 37.858803  1.373926 -0.000003 0.599939
time 50
0  132.965652 182.256454 37.858803  1.374227 -0.000002 0.599570
time 51
0  132.965652 182.893707 37.858803  1.374544 -0.000003 0.599182
time 52
0  132.965652 183.530960 37.858803  1.374876 -0.000002 0.598776
time 53
0  132.965652 184.168213 37.858803  1.375224 -0.000002 0.598351
time 54
0  132.965652 184.805466 37.858803  1.375587 -0.000003 0.597906
time 55
0  132.965652 185.442719 37.858803  1.375966 -0.000003 0.597443
time 56
0  132.965652 186.079987 37.858803  1.376360 -0.000003 0.596961
time 57
0  132.965652 186.717224 37.858803  1.376769 -0.000003 0.596460
time 58
0  132.965652 187.354492 37.858803  1.377194 -0.000003 0.595940
time 59
0  132.965652 187.991745 37.858803  1.377635 -0.000003 0.595401
time 60
0  132.965652 188.628998 37.858803  1.378091 -0.000003 0.594843
time 61
0  132.965652 189.266251 37.858803  1.378562 -0.000003 0.594267
time 62
0  132.965652 189.903503 37.858803  1.379049 -0.000002 0.593671
time 63
0  132.965652 190.540771 37.858803  1.379551 -0.000003 0.593056
time 64
0  132.965652 191.178009 37.858803  1.380069 -0.000002 0.592423
time 65
0  132.965652 191.815277 37.858803  1.380602 -0.000003 0.591771
time 66
0  132.965652 192.452530 37.858803  1.381150 -0.000003 0.591100
time 67
0  132.965652 193.089783 37.858803  1.381714 -0.000003 0.590409
time 68
0  132.965652 193.727036 37.858803  1.382294 -0.000003 0.589700
time 69
0  132.965652 194.364288 37.858803  1.382889 -0.000003 0.588972
time 70
0  132.965652 195.001541 37.858803  1.383499 -0.000003 0.588225
time 71
0  132.965652 195.638794 37.858803  1.384125 -0.000003 0.587460
time 72
0  132.965652 196.276062 37.858803  1.384767 -0.000003 0.586675
time 73
0  132.965652 196.913315 37.858803  1.385423 -0.000003 0.585872
time 74
0  132.965652 197.550568 37.858803  1.386096 -0.000003 0.585049
time 75
0  132.965652 198.187820 37.858803  1.386783 -0.000003 0.584208
time 76
0  132.965652 198.825073 37.858803  1.387486 -0.000003 0.583347
time 77
0  132.965652 199.462326 37.858803  1.388205 -0.000003 0.582468
time 78
0  132.965652 200.099579 37.858803  1.388939 -0.000003 0.581570
time 79
0  132.965652 200.736847 37.858803  1.389689 -0.000003 0.580653
time 80
0  132.965652 201.374100 37.858803  1.390454 -0.000003 0.579717
time 81
0  132.965652 202.011353 37.858803  1.391234 -0.000003 0.578762
time 82
0  132.965652 202.648605 37.858803  1.392030 -0.000003 0.577788
time 83
0  132.965652 203.285858 37.858803  1.392841 -0.000003 0.576796
time 84
0  132.965652 203.923111 37.858803  1.393668 -0.000003 0.575784
time 85
0  132.965652 204.560364 37.858803  1.394510 -0.000003 0.574754
time 86
0  132.965652 205.197632 37.858803  1.395368 -0.000003 0.573704
time 87
0  132.965652 205.834885 37.858803  1.396241 -0.000003 0.572636
time 88
0  132.965652 206.472137 37.858803  1.397130 -0.000003 0.571549
time 89
0  132.965652 207.109390 37.858803  1.398034 -0.000003 0.570443
time 90
0  132.965652 207.746643 37.858803  1.398953 -0.000003 0.569318
time 91
0  132.965652 208.383896 37.858803  1.399888 -0.000003 0.568174
time 92
0  132.965652 209.021149 37.858803  1.400838 -0.000003 0.567011
time 93
0  132.965652 209.658401 37.858803  1.401804 -0.000003 0.565829
time 94
0  132.965652 210.295654 37.858803  1.402786 -0.000003 0.564629
time 95
0  132.965652 210.932922 37.858803  1.403782 -0.000003 0.563409
time 96
0  132.965652 211.570175 37.858803  1.404795 -0.000003 0.562171
time 97
0  132.965652 212.207428 37.858803  1.405822 -0.000003 0.560913
time 98
0  132.965652 212.844681 37.858803  1.406865 -0.000003 0.559637
time 99
0  132.965652 213.481934 37.858803  1.407924 -0.000003 0.558342
time 100
0  132.965652 214.119186 37.858803  1.408998 -0.000003 0.557028
time 101
0  132.965652 214.756439 37.858803  1.410087 -0.000003 0.555695
time 102
0  132.965652 215.393707 37.858803  1.411192 -0.000003 0.554343
time 103
0  132.965652 216.030960 37.858803  1.412313 -0.000003 0.552972
time 104
0  132.965652 216.668213 37.858803  1.413449 -0.000003 0.551582
time 105
0  132.965652 217.305466 37.858803  1.414600 -0.000003 0.550174
time 106
0  132.965652 217.942719 37.858803  1.415767 -0.000003 0.548746
time 107
0  132.965652 218.579971 37.858803  1.416949 -0.000003 0.547300
time 108
0  132.965652 219.217224 37.858803  1.418147 -0.000003 0.545834
time 109
0  132.965652 219.854492 37.858803  1.419360 -0.000003 0.544350
time 110
0  132.965652 220.491745 37.858803  1.420588 -0.000003 0.542847
time 111
0  132.965652 221.128998 37.858803  1.421832 -0.000003 0.541325
time 112
0  132.965652 221.766251 37.858803  1.423092 -0.000003 0.539784
time 113
0  132.965652 222.403503 37.858803  1.424367 -0.000003 0.538224
time 114
0  132.965652 223.040756 37.858803  1.425657 -0.000003 0.536645
time 115
0  132.965652 223.678009 37.858803  1.426963 -0.000003 0.535048
time 116
0  132.965652 224.315262 37.858803  1.428284 -0.000003 0.533431
time 117
0  132.965652 224.952515 37.858803  1.429621 -0.000003 0.531796
time 118
0  132.965652 225.589783 37.858803  1.430973 -0.000003 0.530141
time 119
0  132.965652 226.227036 37.858803  1.432341 -0.000003 0.528468
time 120
0  132.965652 226.864288 37.858803  1.433724 -0.000003 0.526776
time 121
0  132.965652 227.501541 37.858803  1.435122 -0.000003 0.525064
time 122
0  132.965652 228.138794 37.858803  1.436537 -0.000003 0.523334
time 123
0  132.965652 228.776062 37.858803  1.437966 -0.000003 0.521585
time 124
0  132.965652 229.413300 37.858803  1.439411 -0.000003 0.519817
time 125
0  132.965652 230.050568 37.858803  1.440871 -0.000003 0.518031
time 126
0  132.965652 230.687820 37.858803  1.442347 -0.000003 0.516225
time 127
0  132.965652 231.325073 37.858803  1.443838 -0.000003 0.514400
time 128
0  132.965652 231.962326 37.858803  1.445345 -0.000003 0.512557
time 129
0  132.965652 232.599579 37.858803  1.446867 -0.000003 0.510695
time 130
0  132.965652 233.236832 37.858803  1.448405 -0.000003 0.508813
time 131
0  132.965652 233.874084 37.858803  1.449958 -0.000003 0.506913
time 132
0  132.965652 234.511353 37.858803  1.451527 -0.000003 0.504994
time 133
0  132.965652 235.148590 37.858803  1.453111 -0.000003 0.503056
time 134
0  132.965652 235.785858 37.858803  1.454710 -0.000003 0.501099
time 135
0  132.965652 236.423111 37.858803  1.456325 -0.000003 0.499123
time 136
0  132.965652 237.060364 37.858803  1.457955 -0.000003 0.497128
time 137
0  132.965652 237.697617 37.858803  1.459601 -0.000003 0.495115
time 138
0  132.965652 238.334869 37.858803  1.461262 -0.000003 0.493082
time 139
0  132.965652 238.972137 37.858803  1.462939 -0.000003 0.491031
time 140
0  132.965652 239.609375 37.858803  1.464631 -0.000003 0.488960
time 141
0  132.965652 240.246643 37.858803  1.466339 -0.000003 0.486871
time 142
0  132.965652 240.883896 37.858803  1.468062 -0.000003 0.484763
time 143
0  132.965652 241.521149 37.858803  1.469801 -0.000003 0.482636
time 144
0  132.965652 242.158417 37.858803  1.471555 -0.000003 0.480490
time 145
0  132.965652 242.795654 37.858803  1.473324 -0.000003 0.478325
time 146
0  132.965652 243.432922 37.858803  1.475109 -0.000003 0.476141
time 147
0  132.965652 244.070160 37.858803  1.476909 -0.000003 0.473938
time 148
0  132.965652 244.707428 37.858803  1.478725 -0.000003 0.471716
time 149
0  132.965652 245.344681 37.858803  1.480556 -0.000003 0.469476
time 150
0  132.965652 245.981934 37.858803  1.482403 -0.000003 0.467216
time 151
0  132.965652 246.619186 37.858803  1.484250 -0.000003 0.464957
time 152
0  132.965652 247.256439 37.858803  1.486081 -0.000003 0.462716
time 153
0  132.965652 247.893707 37.858803  1.487897 -0.000003 0.460495
time 154
0  132.965652 248.530945 37.858803  1.489697 -0.000003 0.458292
time 155
0  132.965652 249.168213 37.858803  1.491482 -0.000003 0.456108
time 156
0  132.965652 249.805450 37.858803  1.493252 -0.000003 0.453943
time 157
0  132.965652 250.442719 37.858803  1.495006 -0.000003 0.451797
time 158
0  132.965652 251.079971 37.858803  1.496744 -0.000003 0.449670
time 159
0  132.965652 251.717224 37.858803  1.498467 -0.000003 0.447562
time 160
0  132.965652 252.354492 37.858803  1.500175 -0.000003 0.445472
time 161
0  132.965652 252.991730 37.858803  1.501867 -0.000003 0.443402
time 162
0  132.965652 253.628998 37.858803  1.503544 -0.000003 0.441351
time 163
0  132.965652 254.266235 37.858803  1.505205 -0.000003 0.439318
time 164
0  132.965652 254.903503 37.858803  1.506851 -0.000003 0.437304
time 165
0  132.965652 255.540756 37.858803  1.508481 -0.000003 0.435310
time 166
0  132.965652 256.178009 37.858803  1.510096 -0.000003 0.433334
time 167
0  132.965652 256.815277 37.858803  1.511696 -0.000003 0.431377
time 168
0  132.965652 257.452515 37.858803  1.513280 -0.000003 0.429439
time 169
0  132.965652 258.089783 37.858803  1.514848 -0.000003 0.427520
time 170
0  132.965652 258.727020 37.858803  1.516401 -0.000003 0.425619
time 171
0  132.965652 259.364288 37.858803  1.517939 -0.000003 0.423738
time 172
0  132.965652 260.001526 37.858803  1.519461 -0.000003 0.421876
time 173
0  132.965652 260.638794 37.858803  1.520968 -0.000003 0.420032
time 174
0  132.965652 261.276062 37.858803  1.522459 -0.000003 0.418208
time 175
0  132.965652 261.913300 37.858803  1.523935 -0.000003 0.416402
time 176
0  132.965652 262.550568 37.858803  1.525395 -0.000003 0.414615
time 177
0  132.965652 263.187805 37.858803  1.526840 -0.000003 0.412847
time 178
0  132.965652 263.825073 37.858803  1.528270 -0.000003 0.411098
time 179
0  132.965652 264.462311 37.858803  1.529684 -0.000003 0.409368
time 180
0  132.965652 265.099579 37.858803  1.531082 -0.000003 0.407657
time 181
0  132.965652 265.736816 37.858803  1.532465 -0.000003 0.405965
time 182
0  132.965652 266.374084 37.858803  1.533833 -0.000003 0.404292
time 183
0  132.965652 267.011353 37.858803  1.535185 -0.000003 0.402637
time 184
0  132.965652 267.648590 37.858803  1.536522 -0.000003 0.401002
time 185
0  132.965652 268.285858 37.858803  1.537843 -0.000003 0.399385
time 186
0  132.965652 268.923096 37.858803  1.539149 -0.000003 0.397787
time 187
0  132.965652 269.560364 37.858803  1.540439 -0.000003 0.396209
time 188
0  132.965652 270.197632 37.858803  1.541714 -0.000003 0.394649
time 189
0  132.965652 270.834869 37.858803  1.542974 -0.000003 0.393108
time 190
0  132.965652 271.472137 37.858803  1.544218 -0.000003 0.391586
time 191
0  132.965652 272.109375 37.858803  1.545447 -0.000003 0.390082
time 192
0  132.965652 272.746643 37.858803  1.546660 -0.000003 0.388598
time 193
0  132.965652 273.383911 37.858803  1.547857 -0.000003 0.387133
time 194
0  132.965652 274.021149 37.858803  1.549039 -0.000003 0.385686
time 195
0  132.965652 274.658386 37.858803  1.550206 -0.000003 0.384259
time 196
0  132.965652 275.295654 37.858803  1.551358 -0.000003 0.382850
time 197
0  132.965652 275.932922 37.858803  1.552493 -0.000003 0.381461
time 198
0  132.965652 276.570160 37.858803  1.553614 -0.000003 0.380090
time 199
0  132.965652 277.207428 37.858803  1.554719 -0.000003 0.378738
time 200
0  132.965652 277.844666 37.858803  1.555808 -0.000003 0.377405
time 201
0  132.965652 278.481934 37.858803  1.556882 -0.000003 0.376091
time 202
0  132.965652 279.119171 37.858803  1.557941 -0.000003 0.374796
time 203
0  132.965652 279.756439 37.858803  1.558984 -0.000003 0.373519
time 204
0  132.965652 280.393677 37.858803  1.560012 -0.000003 0.372262
time 205
0  132.965652 281.030945 37.858803  1.561024 -0.000003 0.371023
time 206
0  132.965652 281.668213 37.858803  1.562021 -0.000003 0.369804
time 207
0  132.965652 282.305450 37.858803  1.563002 -0.000003 0.368603
time 208
0  132.965652 282.942719 37.858803  1.563968 -0.000003 0.367421
time 209
0  132.965652 283.579956 37.858803  1.564918 -0.000003 0.366259
time 210
0  132.965652 284.217224 37.858803  1.565853 -0.000003 0.365115
time 211
0  132.965652 284.854492 37.858803  1.566773 -0.000003 0.363990
time 212
0  132.965652 285.491730 37.858803  1.567677 -0.000003 0.362884
time 213
0  132.965652 286.128998 37.858803  1.568565 -0.000003 0.361796
time 214
0  132.965652 286.766235 37.858803  1.569438 -0.000003 0.360728
time 215
0  132.965652 287.403503 37.858803  1.570296 -0.000003 0.359679
time 216
0  132.965652 288.040771 37.858803  1.571138 -0.000003 0.358648
time 217
0  132.965652 288.678009 37.858803  1.571965 -0.000003 0.357637
time 218
0  132.965652 289.315247 37.858803  1.572776 -0.000003 0.356644
time 219
0  132.965652 289.952515 37.858803  1.573572 -0.000003 0.355670
time 220
0  132.965652 290.589783 37.858803  1.574353 -0.000003 0.354716
time 221
0  132.965652 291.227020 37.858803  1.575118 -0.000003 0.353780
time 222
0  132.965652 291.864288 37.858803  1.575867 -0.000003 0.352863
time 223
0  132.965652 292.501526 37.858803  1.576601 -0.000003 0.351965
time 224
0  132.965652 293.138794 37.858803  1.577320 -0.000003 0.351085
time 225
0  132.965652 293.776062 37.858803  1.578023 -0.000003 0.350225
time 226
0  132.965652 294.413300 37.858803  1.578711 -0.000003 0.349384
time 227
0  132.965652 295.050537 37.858803  1.579383 -0.000003 0.348561
time 228
0  132.965652 295.687805 37.858803  1.580040 -0.000003 0.347758
time 229
0  132.965652 296.325073 37.858803  1.580681 -0.000003 0.346973
time 230
0  132.965652 296.962311 37.858803  1.581307 -0.000003 0.346207
time 231
0  132.965652 297.599579 37.858803  1.581917 -0.000003 0.345460
time 232
0  132.965652 298.236816 37.858803  1.582512 -0.000003 0.344732
time 233
0  132.965652 298.874084 37.858803  1.583092 -0.000003 0.344023
time 234
0  132.965652 299.511353 37.858803  1.583656 -0.000003 0.343333
time 235
0  132.965652 300.148590 37.858803  1.584204 -0.000003 0.342662
time 236
0  132.965652 300.785828 37.858803  1.584738 -0.000003 0.342010
time 237
0  132.965652 301.423096 37.858803  1.585255 -0.000003 0.341376
time 238
0  132.965652 302.060364 37.858803  1.585757 -0.000003 0.340762
time 239
0  132.965652 302.697632 37.858803  1.586244 -0.000003 0.340166
time 240
0  132.965652 303.334869 37.858803  1.586716 -0.000003 0.339589
time 241
0  132.965652 303.972107 37.858803  1.587172 -0.000003 0.339032
time 242
0  132.965652 304.609375 37.858803  1.587612 -0.000003 0.338493
time 243
0  132.965652 305.246643 37.858803  1.588037 -0.000003 0.337973
time 244
0  132.965652 305.883881 37.858803  1.588446 -0.000003 0.337472
time 245
0  132.965652 306.521149 37.858803  1.588840 -0.000003 0.336990
time 246
0  132.965652 307.158386 37.858803  1.589219 -0.000003 0.336526
time 247
0  132.965652 307.795654 37.858803  1.589582 -0.000003 0.336082
time 248
0  132.965652 308.432922 37.858803  1.589930 -0.000003 0.335657
time 249
0  132.965652 309.070160 37.858803  1.590262 -0.000003 0.335250
time 250
0  132.965652 309.707397 37.858803  1.590579 -0.000003 0.334863
time 251
0  132.965652 310.344666 37.858803  1.590880 -0.000003 0.334494
time 252
0  132.965652 310.981934 37.858803  1.591166 -0.000003 0.334144
time 253
0  132.965652 311.619202 37.858803  1.591437 -0.000003 0.333813
time 254
0  132.965652 312.256439 37.858803  1.591692 -0.000003 0.333501
time 255
0  132.965652 312.893677 37.858803  1.591931 -0.000003 0.333208
time 256
0  132.965652 313.530945 37.858803  1.592155 -0.000003 0.332934
time 257
0  132.965652 314.168213 37.858803  1.592364 -0.000003 0.332679
time 258
0  132.965652 314.805481 37.858803  1.592557 -0.000003 0.332442
time 259
0  132.965652 315.442719 37.858803  1.592735 -0.000003 0.332225
time 260
0  132.965652 316.079956 37.858803  1.592897 -0.000003 0.332026
time 261
0  132.965652 316.717224 37.858803  1.593044 -0.000003 0.331847
time 262
0  132.965652 317.354492 37.858803  1.593175 -0.000003 0.331686
time 263
0  132.965652 317.991730 37.858803  1.593291 -0.000003 0.331544
time 264
0  132.965652 318.628967 37.858803  1.593392 -0.000003 0.331421
time 265
0  132.965652 319.266235 37.858803  1.593477 -0.000003 0.331317
time 266
0  132.965652 319.903503 37.858803  1.593546 -0.000003 0.331232
time 267
0  132.965652 320.540741 37.858803  1.593600 -0.000003 0.331166
time 268
0  132.965652 321.178009 37.858803  1.593639 -0.000003 0.331119
time 269
0  132.965652 321.815247 37.858803  1.593662 -0.000003 0.331090
time 270
0  132.965652 322.452515 37.858803  1.593670 -0.000003 0.331081
time 271
0  132.963959 323.089783 37.858803  1.593670 -0.000003 0.331070
time 272
0  132.958878 323.727020 37.858803  1.593670 -0.000003 0.331038
time 273
0  132.950409 324.364288 37.858803  1.593670 -0.000003 0.330985
time 274
0  132.938553 325.001526 37.858803  1.593670 -0.000003 0.330911
time 275
0  132.923325 325.638794 37.858803  1.593670 -0.000003 0.330815
time 276
0  132.904709 326.276031 37.858803  1.593670 -0.000003 0.330698
time 277
0  132.882721 326.913300 37.858803  1.593670 -0.000003 0.330559
time 278
0  132.857391 327.550568 37.858803  1.593670 -0.000003 0.330400
time 279
0  132.828690 328.187805 37.858803  1.593670 -0.000003 0.330220
time 280
0  132.796631 328.825073 37.858803  1.593670 -0.000003 0.330018
time 281
0  132.761261 329.462311 37.858803  1.593670 -0.000003 0.329795
time 282
0  132.722549 330.099579 37.858803  1.593670 -0.000003 0.329552
time 283
0  132.680511 330.736816 37.858803  1.593670 -0.000003 0.329287
time 284
0  132.635193 331.374084 37.858803  1.593670 -0.000003 0.329002
time 285
0  132.586578 332.011353 37.858803  1.593670 -0.000003 0.328697
time 286
0  132.534683 332.648590 37.858803  1.593670 -0.000003 0.328370
time 287
0  132.479538 333.285858 37.858803  1.593670 -0.000003 0.328023
time 288
0  132.421158 333.923096 37.858803  1.593670 -0.000003 0.327656
time 289
0  132.359543 334.560364 37.858803  1.593670 -0.000003 0.327269
time 290
0  132.294724 335.197601 37.858803  1.593670 -0.000003 0.326861
time 291
0  132.226730 335.834869 37.858803  1.593670 -0.000003 0.326433
time 292
0  132.155563 336.472107 37.858803  1.593670 -0.000003 0.325986
time 293
0  132.081268 337.109375 37.858803  1.593670 -0.000003 0.325518
time 294
0  132.003845 337.746643 37.858803  1.593670 -0.000003 0.325031
time 295
0  131.923325 338.383881 37.858803  1.593670 -0.000003 0.324525
time 296
0  131.839737 339.021149 37.858803  1.593670 -0.000003 0.323999
time 297
0  131.753098 339.658386 37.858803  1.593670 -0.000003 0.323454
time 298
0  131.663437 340.295654 37.858803  1.593670 -0.000003 0.322890
time 299
0  131.570786 340.932892 37.858803  1.593670 -0.000003 0.322307
time 300
0  131.475174 341.570160 37.858803  1.593670 -0.000003 0.321706
time 301
0  131.376633 342.207428 37.858803  1.593670 -0.000003 0.321086
time 302
0  131.275177 342.844666 37.858803  1.593670 -0.000003 0.320448
time 303
0  131.170853 343.481934 37.858803  1.593670 -0.000003 0.319792
time 304
0  131.063690 344.119171 37.858803  1.593670 -0.000003 0.319118
time 305
0  130.953705 344.756439 37.858803  1.593670 -0.000003 0.318426
time 306
0  130.840958 345.393677 37.858803  1.593670 -0.000003 0.317717
time 307
0  130.725464 346.030945 37.858803  1.593670 -0.000003 0.316990
time 308
0  130.607254 346.668213 37.858803  1.593670 -0.000003 0.316247
time 309
0  130.486389 347.305450 37.858803  1.593670 -0.000003 0.315487
time 310
0  130.362885 347.942719 37.858803  1.593670 -0.000003 0.314710
time 311
0  130.236786 348.579956 37.858803  1.593670 -0.000003 0.313917
time 312
0  130.108124 349.217224 37.858803  1.593670 -0.000003 0.313107
time 313
0  129.976944 349.854462 37.858803  1.593670 -0.000003 0.312282
time 314
0  129.843292 350.491730 37.858803  1.593670 -0.000003 0.311442
time 315
0  129.707199 351.128967 37.858803  1.593670 -0.000003 0.310585
time 316
0  129.568710 351.766235 37.858803  1.593670 -0.000003 0.309714
time 317
0  129.427872 352.403503 37.858803  1.593670 -0.000003 0.308829
time 318
0  129.284714 353.040741 37.858803  1.593670 -0.000003 0.307928
time 319
0  129.139282 353.678009 37.858803  1.593670 -0.000003 0.307013
time 320
0  128.991638 354.315247 37.858803  1.593670 -0.000003 0.306085
time 321
0  128.841812 354.952515 37.858803  1.593670 -0.000003 0.305142
time 322
0  128.689865 355.589752 37.858803  1.593670 -0.000003 0.304187
time 323
0  128.535828 356.227020 37.858803  1.593670 -0.000003 0.303218
time 324
0  128.379730 356.864288 37.858803  1.593670 -0.000003 0.302236
time 325
0  128.221664 357.501526 37.858803  1.593670 -0.000003 0.301242
time 326
0  128.061646 358.138794 37.858803  1.593670 -0.000003 0.300235
time 327
0  127.899734 358.776031 37.858803  1.593670 -0.000003 0.299217
time 328
0  127.735977 359.413300 37.858803  1.593670 -0.000003 0.298187
time 329
0  127.570419 360.050537 37.858803  1.593670 -0.000003 0.297145
time 330
0  127.403122 360.687805 37.858803  1.593670 -0.000003 0.296093
time 331
0  127.234131 361.325073 37.858803  1.593670 -0.000003 0.295030
time 332
0  127.063492 361.962311 37.858803  1.593670 -0.000003 0.293957
time 333
0  126.891266 362.599579 37.858803  1.593670 -0.000003 0.292873
time 334
0  126.717499 363.236816 37.858803  1.593670 -0.000003 0.291781
time 335
0  126.542244 363.874084 37.858803  1.593670 -0.000003 0.290678
time 336
0  126.365562 364.511322 37.858803  1.593670 -0.000003 0.289567
time 337
0  126.187500 365.148590 37.858803  1.593670 -0.000003 0.288447
time 338
0  126.008110 365.785828 37.858803  1.593670 -0.000003 0.287319
time 339
0  125.827454 366.423096 37.858803  1.593670 -0.000003 0.286182
time 340
0  125.645584 367.060364 37.858803  1.593670 -0.000003 0.285038
time 341
0  125.462555 367.697601 37.858803  1.593670 -0.000003 0.283887
time 342
0  125.278427 368.334869 37.858803  1.593670 -0.000003 0.282729
time 343
0  125.093246 368.972107 37.858803  1.593670 -0.000003 0.281564
time 344
0  124.907074 369.609375 37.858803  1.593670 -0.000003 0.280393
time 345
0  124.719971 370.246643 37.858803  1.593670 -0.000003 0.279216
time 346
0  124.531990 370.883881 37.858803  1.593670 -0.000003 0.278034
time 347
0  124.343185 371.521149 37.858803  1.593670 -0.000003 0.276846
time 348
0  124.153625 372.158386 37.858803  1.593670 -0.000003 0.275654
time 349
0  123.963348 372.795654 37.858803  1.593670 -0.000003 0.274457
time 350
0  123.772438 373.432892 37.858803  1.593670 -0.000003 0.273256
time 351
0  123.580933 374.070160 37.858803  1.593670 -0.000003 0.272052
time 352
0  123.388901 374.707397 37.858803  1.593670 -0.000003 0.270844
time 353
0  123.196396 375.344666 37.858803  1.593670 -0.000003 0.269633
time 354
0  123.003479 375.981934 37.858803  1.593670 -0.000003 0.268420
time 355
0  122.810204 376.619171 37.858803  1.593670 -0.000003 0.267204
time 356
0  122.616638 377.256439 37.858803  1.593670 -0.000003 0.265986
time 357
0  122.422836 377.893677 37.858803  1.593670 -0.000003 0.264767
time 358
0  122.228851 378.530945 37.858803  1.593670 -0.000003 0.263547
time 359
0  122.034752 379.168182 37.858803  1.593670 -0.000003 0.262326
time 360
0  121.840591 379.805450 37.858803  1.593670 -0.000003 0.261105
time 361
0  121.716980 380.442719 37.858803  1.593670 -0.000003 0.260328
time 362
0  121.593369 381.079956 37.858803  1.593670 -0.000003 0.259550
time 363
0  121.469757 381.717224 37.858803  1.593670 -0.000003 0.258773
time 364
0  121.346146 382.354462 37.858803  1.593670 -0.000003 0.257995
time 365
0  121.222534 382.991730 37.858803  1.593670 -0.000003 0.257218
time 366
0  121.098923 383.628967 37.858803  1.593670 -0.000003 0.256440
time 367
0  120.975311 384.266235 37.858803  1.593670 -0.000003 0.255663
time 368
0  120.851700 384.903503 37.858803  1.593670 -0.000003 0.254885
time 369
0  120.728088 385.540741 37.858803  1.593670 -0.000003 0.254108
time 370
0  120.604477 386.178009 37.858803  1.593670 -0.000003 0.253330
time 371
0  120.480865 386.815247 37.858803  1.593670 -0.000003 0.252552
time 372
0  120.357246 387.452515 37.858803  1.593670 -0.000003 0.251775
time 373
0  120.233635 388.089752 37.858803  1.593670 -0.000003 0.250997
time 374
0  120.110023 388.727020 37.858803  1.593670 -0.000003 0.250220
time 375
0  119.986412 389.364258 37.858803  1.593670 -0.000003 0.249442
time 376
0  119.862801 390.001526 37.858803  1.593670 -0.000003 0.248665
time 377
0  119.739189 390.638794 37.858803  1.593670 -0.000003 0.247887
time 378
0  119.615578 391.276031 37.858803  1.593670 -0.000003 0.247110
time 379
0  119.491966 391.913300 37.858803  1.593670 -0.000003 0.246332
time 380
0  119.368355 392.550537 37.858803  1.593670 -0.000003 0.245555
time 381
0  119.244743 393.187805 37.858803  1.593670 -0.000003 0.244777
time 382
0  119.121132 393.825043 37.858803  1.593670 -0.000003 0.244000
time 383
0  118.997520 394.462311 37.858803  1.593670 -0.000003 0.243222
time 384
0  118.873909 395.099579 37.858803  1.593670 -0.000003 0.242445
time 385
0  118.750298 395.736816 37.858803  1.593670 -0.000003 0.241667
time 386
0  118.626686 396.374084 37.858803  1.593670 -0.000003 0.240890
time 387
0  118.503075 397.011322 37.858803  1.593670 -0.000003 0.240112
time 388
0  118.379463 397.648590 37.858803  1.593670 -0.000003 0.239335
time 389
0  118.255852 398.285828 37.858803  1.593670 -0.000003 0.238557
end
