version 1
nodes
0 "cam" -1
end
skeleton
time 0
0  -1184.873535 128.000000 183.972855  1.570796 -0.000002 -1.570796
time 1
0  -1184.873535 128.000000 183.972855  1.570796 -0.000002 -1.570796
time 2
0  -1184.873535 128.000000 183.972855  1.570796 -0.000002 -1.570796
time 3
0  -1184.873535 128.000000 183.972855  1.570796 -0.000002 -1.570796
time 4
0  -1184.873535 128.000000 183.972855  1.570796 -0.000002 -1.570796
time 5
0  -1184.873535 128.000000 183.972855  1.570796 -0.000002 -1.570796
time 6
0  -1184.873535 128.000000 183.972855  1.570796 -0.000002 -1.570796
time 7
0  -1184.873535 128.000000 183.972855  1.570796 -0.000002 -1.570796
time 8
0  -1184.873535 128.000000 183.972855  1.570796 -0.000002 -1.570796
time 9
0  -1184.873535 128.000000 183.972855  1.570796 -0.000002 -1.570796
time 10
0  -1184.873535 128.000000 183.972855  1.570796 -0.000002 -1.570796
time 11
0  -1184.873535 128.000000 183.972855  1.570796 -0.000002 -1.570796
time 12
0  -1184.873535 128.000000 183.972855  1.570796 -0.000002 -1.570796
time 13
0  -1184.873535 128.000000 183.972855  1.570796 -0.000002 -1.570796
time 14
0  -1184.873535 128.000000 183.972855  1.570796 -0.000002 -1.570796
time 15
0  -1184.873535 128.000000 183.972855  1.570796 -0.000002 -1.570796
time 16
0  -1184.873535 128.000000 183.972855  1.570796 -0.000002 -1.570796
time 17
0  -1184.873535 128.000000 183.972855  1.570796 -0.000002 -1.570796
time 18
0  -1184.873535 128.000000 183.972855  1.570796 -0.000002 -1.570796
time 19
0  -1184.873535 128.000000 183.972855  1.570796 -0.000002 -1.570796
time 20
0  -1184.873535 128.000000 183.972855  1.570796 -0.000002 -1.570796
time 21
0  -1184.873535 128.000000 183.972855  1.570796 -0.000002 -1.570796
time 22
0  -1184.873535 128.000000 183.972855  1.570796 -0.000002 -1.570796
time 23
0  -1184.873535 128.000000 183.972855  1.570796 -0.000002 -1.570796
time 24
0  -1184.873535 128.000000 183.972855  1.570796 -0.000002 -1.570796
time 25
0  -1184.873535 128.000000 183.972855  1.570796 -0.000002 -1.570796
time 26
0  -1184.873535 128.000000 183.972855  1.570796 -0.000002 -1.570796
time 27
0  -1184.873535 128.000000 183.972855  1.570796 -0.000002 -1.570796
time 28
0  -1184.873535 128.000000 183.972855  1.570796 -0.000002 -1.570796
time 29
0  -1184.873535 128.000000 183.972855  1.570796 -0.000002 -1.570796
time 30
0  -1184.873535 128.000000 183.972855  1.570796 -0.000002 -1.570796
time 31
0  -1184.259033 128.000000 183.972855  1.570796 -0.000002 -1.570796
time 32
0  -1183.644653 128.000000 183.972855  1.570796 -0.000002 -1.570796
time 33
0  -1183.030151 128.000000 183.972855  1.570796 -0.000002 -1.570796
time 34
0  -1182.415649 128.000000 183.972855  1.570796 -0.000002 -1.570796
time 35
0  -1181.801270 128.000000 183.972855  1.570796 -0.000002 -1.570796
time 36
0  -1181.186768 128.000000 183.972855  1.570796 -0.000002 -1.570796
time 37
0  -1180.572388 128.000000 183.972855  1.570796 -0.000002 -1.570796
time 38
0  -1179.957886 128.000000 183.972855  1.570796 -0.000002 -1.570796
time 39
0  -1179.343384 128.000000 183.972855  1.570796 -0.000002 -1.570796
time 40
0  -1178.729004 128.000000 183.972855  1.570796 -0.000002 -1.570796
time 41
0  -1178.114502 128.000000 183.972855  1.570796 -0.000002 -1.570796
time 42
0  -1177.500000 128.000000 183.972855  1.570796 -0.000002 -1.570796
time 43
0  -1176.885620 128.000000 183.972855  1.570796 -0.000002 -1.570796
time 44
0  -1176.271118 128.000000 183.972855  1.570796 -0.000002 -1.570796
time 45
0  -1175.656616 128.000000 183.972855  1.570796 -0.000002 -1.570796
time 46
0  -1175.042236 128.000000 183.972855  1.570796 -0.000002 -1.570796
time 47
0  -1174.427734 128.000000 183.972855  1.570796 -0.000002 -1.570796
time 48
0  -1173.813354 128.000000 183.972855  1.570796 -0.000002 -1.570796
time 49
0  -1173.198853 128.000000 183.972855  1.570796 -0.000002 -1.570796
time 50
0  -1172.584351 128.000000 183.972855  1.570796 -0.000002 -1.570796
time 51
0  -1171.969971 128.000000 183.972855  1.570796 -0.000002 -1.570796
time 52
0  -1171.355469 128.000000 183.972855  1.570796 -0.000002 -1.570796
time 53
0  -1170.740967 128.000000 183.972855  1.570796 -0.000002 -1.570796
time 54
0  -1170.126587 128.000000 183.972855  1.570796 -0.000002 -1.570796
time 55
0  -1169.512085 128.000000 183.972855  1.570796 -0.000002 -1.570796
time 56
0  -1168.897583 128.000000 183.972855  1.570796 -0.000002 -1.570796
time 57
0  -1168.283203 128.000000 183.972855  1.570796 -0.000002 -1.570796
time 58
0  -1167.668701 128.000000 183.972855  1.570796 -0.000002 -1.570796
time 59
0  -1167.054321 128.000000 183.972855  1.570796 -0.000002 -1.570796
time 60
0  -1166.439819 128.000000 183.972855  1.570796 -0.000002 -1.570796
time 61
0  -1165.825317 128.000000 183.972855  1.570796 -0.000002 -1.570796
time 62
0  -1165.210938 128.000000 183.972855  1.570796 -0.000002 -1.570796
time 63
0  -1164.596436 128.000000 183.972855  1.570796 -0.000002 -1.570796
time 64
0  -1163.981934 128.000000 183.972855  1.570796 -0.000002 -1.570796
time 65
0  -1163.367554 128.000000 183.972855  1.570796 -0.000002 -1.570796
time 66
0  -1162.753052 128.000000 183.972855  1.570796 -0.000002 -1.570796
time 67
0  -1162.138550 128.000000 183.972855  1.570796 -0.000002 -1.570796
time 68
0  -1161.524170 128.000000 183.972855  1.570796 -0.000002 -1.570796
time 69
0  -1160.909668 128.000000 183.972855  1.570796 -0.000002 -1.570796
time 70
0  -1160.295166 128.000000 183.972855  1.570796 -0.000002 -1.570796
time 71
0  -1159.680786 128.000000 183.972855  1.570796 -0.000002 -1.570796
time 72
0  -1159.066284 128.000000 183.972855  1.570796 -0.000002 -1.570796
time 73
0  -1158.451904 128.000000 183.972855  1.570796 -0.000002 -1.570796
time 74
0  -1157.837402 128.000000 183.972855  1.570796 -0.000002 -1.570796
time 75
0  -1157.222900 128.000000 183.972855  1.570796 -0.000002 -1.570796
time 76
0  -1156.608521 128.000000 183.972855  1.570796 -0.000002 -1.570796
time 77
0  -1155.994019 128.000000 183.972855  1.570796 -0.000002 -1.570796
time 78
0  -1155.379517 128.000000 183.972855  1.570796 -0.000002 -1.570796
time 79
0  -1154.765137 128.000000 183.972855  1.570796 -0.000002 -1.570796
time 80
0  -1154.150635 128.000000 183.972855  1.570796 -0.000002 -1.570796
time 81
0  -1153.536133 128.000000 183.972855  1.570796 -0.000002 -1.570796
time 82
0  -1152.921753 128.000000 183.972855  1.570796 -0.000002 -1.570796
time 83
0  -1152.307251 128.000000 183.972855  1.570796 -0.000002 -1.570796
time 84
0  -1151.692871 128.000000 183.972855  1.570796 -0.000002 -1.570796
time 85
0  -1151.078369 128.000000 183.972855  1.570796 -0.000002 -1.570796
time 86
0  -1150.463867 128.000000 183.972855  1.570796 -0.000002 -1.570796
time 87
0  -1149.849487 128.000000 183.972855  1.570796 -0.000002 -1.570796
time 88
0  -1149.234985 128.000000 183.972855  1.570796 -0.000002 -1.570796
time 89
0  -1148.620483 128.000000 183.972855  1.570796 -0.000002 -1.570796
time 90
0  -1148.006104 128.000000 183.972855  1.570796 -0.000002 -1.570796
time 91
0  -1147.391602 128.000000 183.972855  1.570796 -0.000002 -1.570796
time 92
0  -1146.777100 128.000000 183.972855  1.570796 -0.000002 -1.570796
time 93
0  -1146.162720 128.000000 183.972855  1.570796 -0.000002 -1.570796
time 94
0  -1145.548218 128.000000 183.972855  1.570796 -0.000002 -1.570796
time 95
0  -1144.933838 128.000000 183.972855  1.570796 -0.000002 -1.570796
time 96
0  -1144.319336 128.000000 183.972855  1.570796 -0.000002 -1.570796
time 97
0  -1143.704834 128.000000 183.972855  1.570796 -0.000002 -1.570796
time 98
0  -1143.090454 128.000000 183.972855  1.570796 -0.000002 -1.570796
time 99
0  -1142.475952 128.000000 183.972855  1.570796 -0.000002 -1.570796
time 100
0  -1141.861450 128.000000 183.972855  1.570796 -0.000002 -1.570796
time 101
0  -1141.247070 128.000000 183.972855  1.570796 -0.000002 -1.570796
time 102
0  -1140.632568 128.000000 183.972855  1.570796 -0.000002 -1.570796
time 103
0  -1140.018066 128.000000 183.972855  1.570796 -0.000002 -1.570796
time 104
0  -1139.403687 128.000000 183.972855  1.570796 -0.000002 -1.570796
time 105
0  -1138.789185 128.000000 183.972855  1.570796 -0.000002 -1.570796
time 106
0  -1138.174805 128.000000 183.972855  1.570796 -0.000002 -1.570796
time 107
0  -1137.560303 128.000000 183.972855  1.570796 -0.000002 -1.570796
time 108
0  -1136.945801 128.000000 183.972855  1.570796 -0.000002 -1.570796
time 109
0  -1136.331421 128.000000 183.972855  1.570796 -0.000002 -1.570796
time 110
0  -1135.716919 128.000000 183.972855  1.570796 -0.000002 -1.570796
time 111
0  -1135.102417 128.000000 183.972855  1.570796 -0.000002 -1.570796
time 112
0  -1134.488037 128.000000 183.972855  1.570796 -0.000002 -1.570796
time 113
0  -1133.873535 128.000000 183.972855  1.570796 -0.000002 -1.570796
time 114
0  -1133.259033 128.000000 183.972855  1.570796 -0.000002 -1.570796
time 115
0  -1132.644653 128.000000 183.972855  1.570796 -0.000002 -1.570796
time 116
0  -1132.030151 128.000000 183.972855  1.570796 -0.000002 -1.570796
time 117
0  -1131.415771 128.000000 183.972855  1.570796 -0.000002 -1.570796
time 118
0  -1130.801270 128.000000 183.972855  1.570796 -0.000002 -1.570796
time 119
0  -1130.186768 128.000000 183.972855  1.570796 -0.000002 -1.570796
time 120
0  -1129.572388 128.000000 183.972855  1.570796 -0.000002 -1.570796
time 121
0  -1128.957886 128.000000 183.972855  1.570796 -0.000002 -1.570796
time 122
0  -1128.343384 128.000000 183.972855  1.570796 -0.000002 -1.570796
time 123
0  -1127.729004 128.000000 183.972855  1.570796 -0.000002 -1.570796
time 124
0  -1127.114502 128.000000 183.972855  1.570796 -0.000002 -1.570796
time 125
0  -1126.500000 128.000000 183.972855  1.570796 -0.000002 -1.570796
time 126
0  -1125.885620 128.000000 183.972855  1.570796 -0.000002 -1.570796
time 127
0  -1125.271118 128.000000 183.972855  1.570796 -0.000002 -1.570796
time 128
0  -1124.656738 128.000000 183.972855  1.570796 -0.000002 -1.570796
time 129
0  -1124.042236 128.000000 183.972855  1.570796 -0.000002 -1.570796
time 130
0  -1123.427734 128.000000 183.972855  1.570796 -0.000002 -1.570796
time 131
0  -1122.813354 128.000000 183.972855  1.570796 -0.000002 -1.570796
time 132
0  -1122.198853 128.000000 183.972855  1.570796 -0.000002 -1.570796
time 133
0  -1121.584351 128.000000 183.972855  1.570796 -0.000002 -1.570796
time 134
0  -1120.969971 128.000000 183.972855  1.570796 -0.000002 -1.570796
time 135
0  -1120.355469 128.000000 183.972855  1.570796 -0.000002 -1.570796
time 136
0  -1119.740967 128.000000 183.972855  1.570796 -0.000002 -1.570796
time 137
0  -1119.126587 128.000000 183.972855  1.570796 -0.000002 -1.570796
time 138
0  -1118.512085 128.000000 183.972855  1.570796 -0.000002 -1.570796
time 139
0  -1117.897705 128.000000 183.972855  1.570796 -0.000002 -1.570796
time 140
0  -1117.283203 128.000000 183.972855  1.570796 -0.000002 -1.570796
time 141
0  -1116.668701 128.000000 183.972855  1.570796 -0.000002 -1.570796
time 142
0  -1116.054321 128.000000 183.972855  1.570796 -0.000002 -1.570796
time 143
0  -1115.439819 128.000000 183.972855  1.570796 -0.000002 -1.570796
time 144
0  -1114.825317 128.000000 183.972855  1.570796 -0.000002 -1.570796
time 145
0  -1114.210938 128.000000 183.972855  1.570796 -0.000002 -1.570796
time 146
0  -1113.596436 128.000000 183.972855  1.570796 -0.000002 -1.570796
time 147
0  -1112.981934 128.000000 183.972855  1.570796 -0.000002 -1.570796
time 148
0  -1112.367554 128.000000 183.972855  1.570796 -0.000002 -1.570796
time 149
0  -1111.753052 128.000000 183.972855  1.570796 -0.000002 -1.570796
time 150
0  -1111.138550 128.000000 183.972855  1.570796 -0.000002 -1.570796
time 151
0  -1110.524170 128.000000 183.972855  1.570796 -0.000002 -1.570796
time 152
0  -1109.909668 128.000000 183.972855  1.570796 -0.000002 -1.570796
time 153
0  -1109.295288 128.000000 183.972855  1.570796 -0.000002 -1.570796
time 154
0  -1108.680786 128.000000 183.972855  1.570796 -0.000002 -1.570796
time 155
0  -1108.066284 128.000000 183.972855  1.570796 -0.000002 -1.570796
time 156
0  -1107.451904 128.000000 183.972855  1.570796 -0.000002 -1.570796
time 157
0  -1106.837402 128.000000 183.972855  1.570796 -0.000002 -1.570796
time 158
0  -1106.222900 128.000000 183.972855  1.570796 -0.000002 -1.570796
time 159
0  -1105.608521 128.000000 183.972855  1.570796 -0.000002 -1.570796
time 160
0  -1104.994019 128.000000 183.972855  1.570796 -0.000002 -1.570796
time 161
0  -1104.379517 128.000000 183.972855  1.570796 -0.000002 -1.570796
time 162
0  -1103.765137 128.000000 183.972855  1.570796 -0.000002 -1.570796
time 163
0  -1103.150635 128.000000 183.972855  1.570796 -0.000002 -1.570796
time 164
0  -1102.536255 128.000000 183.972855  1.570796 -0.000002 -1.570796
time 165
0  -1101.921753 128.000000 183.972855  1.570796 -0.000002 -1.570796
time 166
0  -1101.307251 128.000000 183.972855  1.570796 -0.000002 -1.570796
time 167
0  -1100.692871 128.000000 183.972855  1.570796 -0.000002 -1.570796
time 168
0  -1100.078369 128.000000 183.972855  1.570796 -0.000002 -1.570796
time 169
0  -1099.463867 128.000000 183.972855  1.570796 -0.000002 -1.570796
time 170
0  -1098.849487 128.000000 183.972855  1.570796 -0.000002 -1.570796
time 171
0  -1098.234985 128.000000 183.972855  1.570796 -0.000002 -1.570796
time 172
0  -1097.620483 128.000000 183.972855  1.570796 -0.000002 -1.570796
time 173
0  -1097.006104 128.000000 183.972855  1.570796 -0.000002 -1.570796
time 174
0  -1096.391602 128.000000 183.972855  1.570796 -0.000002 -1.570796
time 175
0  -1095.777222 128.000000 183.972855  1.570796 -0.000002 -1.570796
time 176
0  -1095.162720 128.000000 183.972855  1.570796 -0.000002 -1.570796
time 177
0  -1094.548218 128.000000 183.972855  1.570796 -0.000002 -1.570796
time 178
0  -1093.933838 128.000000 183.972855  1.570796 -0.000002 -1.570796
time 179
0  -1093.319336 128.000000 183.972855  1.570796 -0.000002 -1.570796
time 180
0  -1092.704834 128.000000 183.972855  1.570796 -0.000002 -1.570796
time 181
0  -1092.090454 128.000000 183.972855  1.570796 -0.000002 -1.570796
time 182
0  -1091.475952 128.000000 183.972855  1.570796 -0.000002 -1.570796
time 183
0  -1090.861450 128.000000 183.972855  1.570796 -0.000002 -1.570796
time 184
0  -1090.247070 128.000000 183.972855  1.570796 -0.000002 -1.570796
time 185
0  -1089.632568 128.000000 183.972855  1.570796 -0.000002 -1.570796
time 186
0  -1089.018188 128.000000 183.972855  1.570796 -0.000002 -1.570796
time 187
0  -1088.403687 128.000000 183.972855  1.570796 -0.000002 -1.570796
time 188
0  -1087.789185 128.000000 183.972855  1.570796 -0.000002 -1.570796
time 189
0  -1087.174805 128.000000 183.972855  1.570796 -0.000002 -1.570796
time 190
0  -1086.560303 128.000000 183.972855  1.570796 -0.000002 -1.570796
time 191
0  -1085.945801 128.000000 183.972855  1.570796 -0.000002 -1.570796
time 192
0  -1085.331421 128.000000 183.972855  1.570796 -0.000002 -1.570796
time 193
0  -1084.716919 128.000000 183.972855  1.570796 -0.000002 -1.570796
time 194
0  -1084.102417 128.000000 183.972855  1.570796 -0.000002 -1.570796
time 195
0  -1083.488037 128.000000 183.972855  1.570796 -0.000002 -1.570796
time 196
0  -1082.873535 128.000000 183.972855  1.570796 -0.000002 -1.570796
time 197
0  -1082.259155 128.000000 183.972855  1.570796 -0.000002 -1.570796
time 198
0  -1081.644653 128.000000 183.972855  1.570796 -0.000002 -1.570796
time 199
0  -1081.030151 128.000000 183.972855  1.570796 -0.000002 -1.570796
time 200
0  -1080.415771 128.000000 183.972855  1.570796 -0.000002 -1.570796
time 201
0  -1079.801270 128.000000 183.972855  1.570796 -0.000002 -1.570796
time 202
0  -1079.186768 128.000000 183.972855  1.570796 -0.000002 -1.570796
time 203
0  -1078.572388 128.000000 183.972855  1.570796 -0.000002 -1.570796
time 204
0  -1077.957886 128.000000 183.972855  1.570796 -0.000002 -1.570796
time 205
0  -1077.343384 128.000000 183.972855  1.570796 -0.000002 -1.570796
time 206
0  -1076.729004 128.000000 183.972855  1.570796 -0.000002 -1.570796
time 207
0  -1076.114502 128.000000 183.972855  1.570796 -0.000002 -1.570796
time 208
0  -1075.500122 128.000000 183.972855  1.570796 -0.000002 -1.570796
time 209
0  -1074.885620 128.000000 183.972855  1.570796 -0.000002 -1.570796
time 210
0  -1074.271118 128.000000 183.972855  1.570796 -0.000002 -1.570796
time 211
0  -1073.656738 128.000000 183.972855  1.570796 -0.000002 -1.570796
time 212
0  -1073.042236 128.000000 183.972855  1.570796 -0.000002 -1.570796
time 213
0  -1072.427734 128.000000 183.972855  1.570796 -0.000002 -1.570796
time 214
0  -1071.813354 128.000000 183.972855  1.570796 -0.000002 -1.570796
time 215
0  -1071.198853 128.000000 183.972855  1.570796 -0.000002 -1.570796
time 216
0  -1070.584351 128.000000 183.972855  1.570796 -0.000002 -1.570796
time 217
0  -1069.969971 128.000000 183.972855  1.570796 -0.000002 -1.570796
time 218
0  -1069.355469 128.000000 183.972855  1.570796 -0.000002 -1.570796
time 219
0  -1068.741089 128.000000 183.972855  1.570796 -0.000002 -1.570796
time 220
0  -1068.126587 128.000000 183.972855  1.570796 -0.000002 -1.570796
time 221
0  -1067.512085 128.000000 183.972855  1.570796 -0.000002 -1.570796
time 222
0  -1066.897705 128.000000 183.972855  1.570796 -0.000002 -1.570796
time 223
0  -1066.283203 128.000000 183.972855  1.570796 -0.000002 -1.570796
time 224
0  -1065.668701 128.000000 183.972855  1.570796 -0.000002 -1.570796
time 225
0  -1065.054321 128.000000 183.972855  1.570796 -0.000002 -1.570796
time 226
0  -1064.439819 128.000000 183.972855  1.570796 -0.000002 -1.570796
time 227
0  -1063.825317 128.000000 183.972855  1.570796 -0.000002 -1.570796
time 228
0  -1063.210938 128.000000 183.972855  1.570796 -0.000002 -1.570796
time 229
0  -1062.596436 128.000000 183.972855  1.570796 -0.000002 -1.570796
time 230
0  -1061.982056 128.000000 183.972855  1.570796 -0.000002 -1.570796
time 231
0  -1061.367554 128.000000 183.972855  1.570796 -0.000002 -1.570796
time 232
0  -1060.753052 128.000000 183.972855  1.570796 -0.000002 -1.570796
time 233
0  -1060.138672 128.000000 183.972855  1.570796 -0.000002 -1.570796
time 234
0  -1059.524170 128.000000 183.972855  1.570796 -0.000002 -1.570796
time 235
0  -1058.909668 128.000000 183.972855  1.570796 -0.000002 -1.570796
time 236
0  -1058.295288 128.000000 183.972855  1.570796 -0.000002 -1.570796
time 237
0  -1057.680786 128.000000 183.972855  1.570796 -0.000002 -1.570796
time 238
0  -1057.066284 128.000000 183.972855  1.570796 -0.000002 -1.570796
time 239
0  -1056.451904 128.000000 183.972855  1.570796 -0.000002 -1.570796
time 240
0  -1055.837402 128.000000 183.972855  1.570796 -0.000002 -1.570796
time 241
0  -1055.222900 128.000000 183.972855  1.570796 -0.000002 -1.570796
time 242
0  -1054.608521 128.000000 183.972855  1.570796 -0.000002 -1.570796
time 243
0  -1053.994019 128.000000 183.972855  1.570796 -0.000002 -1.570796
time 244
0  -1053.379639 128.000000 183.972855  1.570796 -0.000002 -1.570796
time 245
0  -1052.765137 128.000000 183.972855  1.570796 -0.000002 -1.570796
time 246
0  -1052.150635 128.000000 183.972855  1.570796 -0.000002 -1.570796
time 247
0  -1051.536255 128.000000 183.972855  1.570796 -0.000002 -1.570796
time 248
0  -1050.921753 128.000000 183.972855  1.570796 -0.000002 -1.570796
time 249
0  -1050.307251 128.000000 183.972855  1.570796 -0.000002 -1.570796
time 250
0  -1049.692871 128.000000 183.972855  1.570796 -0.000002 -1.570796
time 251
0  -1049.078369 128.000000 183.972855  1.570796 -0.000002 -1.570796
time 252
0  -1048.463867 128.000000 183.972855  1.570796 -0.000002 -1.570796
time 253
0  -1047.849487 128.000000 183.972855  1.570796 -0.000002 -1.570796
time 254
0  -1047.234985 128.000000 183.972855  1.570796 -0.000002 -1.570796
time 255
0  -1046.620605 128.000000 183.972855  1.570796 -0.000002 -1.570796
time 256
0  -1046.006104 128.000000 183.972855  1.570796 -0.000002 -1.570796
time 257
0  -1045.391602 128.000000 183.972855  1.570796 -0.000002 -1.570796
time 258
0  -1044.777222 128.000000 183.972855  1.570796 -0.000002 -1.570796
time 259
0  -1044.162720 128.000000 183.972855  1.570796 -0.000002 -1.570796
time 260
0  -1043.548218 128.000000 183.972855  1.570796 -0.000002 -1.570796
time 261
0  -1042.933838 128.000000 183.972855  1.570796 -0.000002 -1.570796
time 262
0  -1042.319336 128.000000 183.972855  1.570796 -0.000002 -1.570796
time 263
0  -1041.704834 128.000000 183.972855  1.570796 -0.000002 -1.570796
time 264
0  -1041.090454 128.000000 183.972855  1.570796 -0.000002 -1.570796
time 265
0  -1040.475952 128.000000 183.972855  1.570796 -0.000002 -1.570796
time 266
0  -1039.861572 128.000000 183.972855  1.570796 -0.000002 -1.570796
time 267
0  -1039.247070 128.000000 183.972855  1.570796 -0.000002 -1.570796
time 268
0  -1038.632568 128.000000 183.972855  1.570796 -0.000002 -1.570796
time 269
0  -1038.018188 128.000000 183.972855  1.570796 -0.000002 -1.570796
time 270
0  -1037.403687 128.000000 183.972855  1.570796 -0.000002 -1.570796
time 271
0  608.000000 128.000000 435.278259  0.000000 -0.000002 0.000000
time 272
0  608.000000 128.000000 435.278259  0.000000 -0.000002 0.000000
time 273
0  608.000000 128.000000 435.278259  0.000000 -0.000002 0.000000
time 274
0  608.000000 128.000000 435.278259  0.000000 -0.000002 0.000000
time 275
0  608.000000 128.000000 435.278259  0.000000 -0.000002 0.000000
time 276
0  608.000000 128.000000 435.278259  0.000000 -0.000002 0.000000
time 277
0  608.000000 128.000000 435.278259  0.000000 -0.000002 0.000000
time 278
0  608.000000 128.000000 435.278259  0.000000 -0.000002 0.000000
time 279
0  608.000000 128.000000 435.278259  0.000000 -0.000002 0.000000
time 280
0  608.000000 128.000000 435.278259  0.000000 -0.000002 0.000000
time 281
0  608.000000 128.000000 435.278259  0.000000 -0.000002 0.000000
time 282
0  608.000000 128.000000 435.278259  0.000000 -0.000002 0.000000
time 283
0  608.000000 128.000000 435.278259  0.000000 -0.000002 0.000000
time 284
0  608.000000 128.000000 435.278259  0.000000 -0.000002 0.000000
time 285
0  608.000000 128.000000 435.278259  0.000000 -0.000002 0.000000
time 286
0  608.000000 128.000000 435.278259  0.000000 -0.000002 0.000000
time 287
0  608.000000 128.000000 435.278259  0.000000 -0.000002 0.000000
time 288
0  608.000000 128.000000 435.278259  0.000000 -0.000002 0.000000
time 289
0  608.000000 128.000000 435.278259  0.000000 -0.000002 0.000000
time 290
0  608.000000 128.000000 435.278259  0.000000 -0.000002 0.000000
time 291
0  608.000000 128.000000 435.278259  0.000000 -0.000002 0.000000
time 292
0  608.000000 128.000000 435.278259  0.000000 -0.000002 0.000000
time 293
0  608.000000 128.000000 435.278259  0.000000 -0.000002 0.000000
time 294
0  608.000000 128.000000 435.278259  0.000000 -0.000002 0.000000
time 295
0  608.000000 128.000000 435.278259  0.000000 -0.000002 0.000000
time 296
0  608.000000 128.000000 435.278259  0.000000 -0.000002 0.000000
time 297
0  608.000000 128.000000 435.278259  0.000000 -0.000002 0.000000
time 298
0  608.000000 128.000000 435.278259  0.000000 -0.000002 0.000000
time 299
0  608.000000 128.000000 435.278259  0.000000 -0.000002 0.000000
time 300
0  608.000000 128.000000 435.278259  0.000000 -0.000002 0.000000
time 301
0  608.000000 128.000000 434.736908  0.000000 -0.000002 -0.002144
time 302
0  608.000000 128.000000 434.195526  0.000000 -0.000002 -0.004289
time 303
0  608.000000 128.000000 433.654175  0.000000 -0.000002 -0.006433
time 304
0  608.000000 128.000000 433.112793  0.000000 -0.000002 -0.008577
time 305
0  608.000000 128.000000 432.571442  0.000000 -0.000002 -0.010721
time 306
0  608.000000 128.000000 432.030090  0.000000 -0.000002 -0.012866
time 307
0  608.000000 128.000000 431.488708  0.000000 -0.000002 -0.015010
time 308
0  608.000000 128.000000 430.947357  0.000000 -0.000002 -0.017154
time 309
0  608.000000 128.000000 430.405975  0.000000 -0.000002 -0.019299
time 310
0  608.000000 128.000000 429.864624  0.000000 -0.000002 -0.021443
time 311
0  608.000000 128.000000 429.323273  0.000000 -0.000002 -0.023587
time 312
0  608.000000 128.000000 428.781891  0.000000 -0.000002 -0.025731
time 313
0  608.000000 128.000000 428.240540  0.000000 -0.000002 -0.027876
time 314
0  608.000000 128.000000 427.699158  0.000000 -0.000002 -0.030020
time 315
0  608.000000 128.000000 427.157806  0.000000 -0.000002 -0.032164
time 316
0  608.000000 128.000000 426.616455  0.000000 -0.000002 -0.034308
time 317
0  608.000000 128.000000 426.075073  0.000000 -0.000002 -0.036453
time 318
0  608.000000 128.000000 425.533722  0.000000 -0.000002 -0.038597
time 319
0  608.000000 128.000000 424.992340  0.000000 -0.000002 -0.040741
time 320
0  608.000000 128.000000 424.450989  0.000000 -0.000002 -0.042886
time 321
0  608.000000 128.000000 423.909637  0.000000 -0.000002 -0.045030
time 322
0  608.000000 128.000000 423.368256  0.000000 -0.000002 -0.047174
time 323
0  608.000000 128.000000 422.826904  0.000000 -0.000002 -0.049318
time 324
0  608.000000 128.000000 422.285522  0.000000 -0.000002 -0.051463
time 325
0  608.000000 128.000000 421.744171  0.000000 -0.000002 -0.053607
time 326
0  608.000000 128.000000 421.202820  0.000000 -0.000002 -0.055751
time 327
0  608.000000 128.000000 420.661438  0.000000 -0.000002 -0.057896
time 328
0  608.000000 128.000000 420.120087  0.000000 -0.000002 -0.060040
time 329
0  608.000000 128.000000 419.578735  0.000000 -0.000002 -0.062184
time 330
0  608.000000 128.000000 419.037354  0.000000 -0.000002 -0.064328
time 331
0  608.000000 128.000000 418.496002  0.000000 -0.000002 -0.066473
time 332
0  608.000000 128.000000 417.954620  0.000000 -0.000002 -0.068617
time 333
0  608.000000 128.000000 417.413269  0.000000 -0.000002 -0.070761
time 334
0  608.000000 128.000000 416.871918  0.000000 -0.000002 -0.072905
time 335
0  608.000000 128.000000 416.330536  0.000000 -0.000002 -0.075050
time 336
0  608.000000 128.000000 415.789185  0.000000 -0.000002 -0.077194
time 337
0  608.000000 128.000000 415.247803  0.000000 -0.000002 -0.079338
time 338
0  608.000000 128.000000 414.706451  0.000000 -0.000002 -0.081483
time 339
0  608.000000 128.000000 414.165100  0.000000 -0.000002 -0.083627
time 340
0  608.000000 128.000000 413.623718  0.000000 -0.000002 -0.085771
time 341
0  608.000000 128.000000 413.082367  0.000000 -0.000002 -0.087915
time 342
0  608.000000 128.000000 412.540985  0.000000 -0.000002 -0.090060
time 343
0  608.000000 128.000000 411.999634  0.000000 -0.000002 -0.092204
time 344
0  608.000000 128.000000 411.458282  0.000000 -0.000002 -0.094348
time 345
0  608.000000 128.000000 410.916901  0.000000 -0.000002 -0.096493
time 346
0  608.000000 128.000000 410.375549  0.000000 -0.000002 -0.098637
time 347
0  608.000000 128.000000 409.834167  0.000000 -0.000002 -0.100781
time 348
0  608.000000 128.000000 409.292816  0.000000 -0.000002 -0.102925
time 349
0  608.000000 128.000000 408.751465  0.000000 -0.000002 -0.105070
time 350
0  608.000000 128.000000 408.210083  0.000000 -0.000002 -0.107214
time 351
0  608.000000 128.000000 407.668732  0.000000 -0.000002 -0.109358
time 352
0  608.000000 128.000000 407.127350  0.000000 -0.000002 -0.111503
time 353
0  608.000000 128.000000 406.585999  0.000000 -0.000002 -0.113647
time 354
0  608.000000 128.000000 406.044647  0.000000 -0.000002 -0.115791
time 355
0  608.000000 128.000000 405.503265  0.000000 -0.000002 -0.117935
time 356
0  608.000000 128.000000 404.961914  0.000000 -0.000002 -0.120080
time 357
0  608.000000 128.000000 404.420532  0.000000 -0.000002 -0.122224
time 358
0  608.000000 128.000000 403.879181  0.000000 -0.000002 -0.124368
time 359
0  608.000000 128.000000 403.337830  0.000000 -0.000002 -0.126512
time 360
0  608.000000 128.000000 402.796448  0.000000 -0.000002 -0.128657
time 361
0  608.000000 128.000000 402.255096  0.000000 -0.000002 -0.130801
time 362
0  608.000000 128.000000 401.713745  0.000000 -0.000002 -0.132945
time 363
0  608.000000 128.000000 401.172363  0.000000 -0.000002 -0.135090
time 364
0  608.000000 128.000000 400.631012  0.000000 -0.000002 -0.137234
time 365
0  608.000000 128.000000 400.089630  0.000000 -0.000002 -0.139378
time 366
0  608.000000 128.000000 399.548279  0.000000 -0.000002 -0.141522
time 367
0  608.000000 128.000000 399.006897  0.000000 -0.000002 -0.143667
time 368
0  608.000000 128.000000 398.465546  0.000000 -0.000002 -0.145811
time 369
0  608.000000 128.000000 397.924194  0.000000 -0.000002 -0.147955
time 370
0  608.000000 128.000000 397.382812  0.000000 -0.000002 -0.150100
time 371
0  608.000000 128.000000 396.841461  0.000000 -0.000002 -0.152244
time 372
0  608.000000 128.000000 396.300110  0.000000 -0.000002 -0.154388
time 373
0  608.000000 128.000000 395.758728  0.000000 -0.000002 -0.156532
time 374
0  608.000000 128.000000 395.217377  0.000000 -0.000002 -0.158677
time 375
0  608.000000 128.000000 394.675995  0.000000 -0.000002 -0.160821
time 376
0  608.000000 128.000000 394.134644  0.000000 -0.000002 -0.162965
time 377
0  608.000000 128.000000 393.593262  0.000000 -0.000002 -0.165109
time 378
0  608.000000 128.000000 393.051910  0.000000 -0.000002 -0.167254
time 379
0  608.000000 128.000000 392.510559  0.000000 -0.000002 -0.169398
time 380
0  608.000000 128.000000 391.969177  0.000000 -0.000002 -0.171542
time 381
0  608.000000 128.000000 391.427826  0.000000 -0.000002 -0.173687
time 382
0  608.000000 128.000000 390.886475  0.000000 -0.000002 -0.175831
time 383
0  608.000000 128.000000 390.345093  0.000000 -0.000002 -0.177975
time 384
0  608.000000 128.000000 389.803741  0.000000 -0.000002 -0.180119
time 385
0  608.000000 128.000000 389.262360  0.000000 -0.000002 -0.182264
time 386
0  608.000000 128.000000 388.721008  0.000000 -0.000002 -0.184408
time 387
0  608.000000 128.000000 388.179626  0.000000 -0.000002 -0.186552
time 388
0  608.000000 128.000000 387.638275  0.000000 -0.000002 -0.188697
time 389
0  608.000000 128.000000 387.096924  0.000000 -0.000002 -0.190841
time 390
0  608.000000 128.000000 386.555542  0.000000 -0.000002 -0.192985
time 391
0  608.000000 128.000000 386.014191  0.000000 -0.000002 -0.195129
time 392
0  608.000000 128.000000 385.472839  0.000000 -0.000002 -0.197274
time 393
0  608.000000 128.000000 384.931458  0.000000 -0.000002 -0.199418
time 394
0  608.000000 128.000000 384.390106  0.000000 -0.000002 -0.201562
time 395
0  608.000000 128.000000 383.848724  0.000000 -0.000002 -0.203707
time 396
0  608.000000 128.000000 383.307373  0.000000 -0.000002 -0.205851
time 397
0  608.000000 128.000000 382.766022  0.000000 -0.000002 -0.207995
time 398
0  608.000000 128.000000 382.224640  0.000000 -0.000002 -0.210139
time 399
0  608.000000 128.000000 381.683289  0.000000 -0.000002 -0.212284
time 400
0  608.000000 128.000000 381.141907  0.000000 -0.000002 -0.214428
time 401
0  608.000000 128.000000 380.600555  0.000000 -0.000002 -0.216572
time 402
0  608.000000 128.000000 380.059204  0.000000 -0.000002 -0.218716
time 403
0  608.000000 128.000000 379.517822  0.000000 -0.000002 -0.220861
time 404
0  608.000000 128.000000 378.976471  0.000000 -0.000002 -0.223005
time 405
0  608.000000 128.000000 378.435120  0.000000 -0.000002 -0.225149
time 406
0  608.000000 128.000000 377.893738  0.000000 -0.000002 -0.227294
time 407
0  608.000000 128.000000 377.352386  0.000000 -0.000002 -0.229438
time 408
0  608.000000 128.000000 376.811005  0.000000 -0.000002 -0.231582
time 409
0  608.000000 128.000000 376.269653  0.000000 -0.000002 -0.233726
time 410
0  608.000000 128.000000 375.728271  0.000000 -0.000002 -0.235871
time 411
0  608.000000 128.000000 375.186920  0.000000 -0.000002 -0.238015
time 412
0  608.000000 128.000000 374.645569  0.000000 -0.000002 -0.240159
time 413
0  608.000000 128.000000 374.104187  0.000000 -0.000002 -0.242304
time 414
0  608.000000 128.000000 373.562836  0.000000 -0.000002 -0.244448
time 415
0  608.000000 128.000000 373.021484  0.000000 -0.000002 -0.246592
time 416
0  608.000000 128.000000 372.480103  0.000000 -0.000002 -0.248736
time 417
0  608.000000 128.000000 371.938751  0.000000 -0.000002 -0.250881
time 418
0  608.000000 128.000000 371.397369  0.000000 -0.000002 -0.253025
time 419
0  608.000000 128.000000 370.856018  0.000000 -0.000002 -0.255169
time 420
0  608.000000 128.000000 370.314636  0.000000 -0.000002 -0.257313
time 421
0  608.000000 128.000000 369.773285  0.000000 -0.000002 -0.259458
time 422
0  608.000000 128.000000 369.231934  0.000000 -0.000002 -0.261602
time 423
0  608.000000 128.000000 368.690552  0.000000 -0.000002 -0.263746
time 424
0  608.000000 128.000000 368.149200  0.000000 -0.000002 -0.265891
time 425
0  608.000000 128.000000 367.607849  0.000000 -0.000002 -0.268035
time 426
0  608.000000 128.000000 367.066467  0.000000 -0.000002 -0.270179
time 427
0  608.000000 128.000000 366.525116  0.000000 -0.000002 -0.272323
time 428
0  608.000000 128.000000 365.983734  0.000000 -0.000002 -0.274468
time 429
0  608.000000 128.000000 365.442383  0.000000 -0.000002 -0.276612
time 430
0  608.000000 128.000000 364.901031  0.000000 -0.000002 -0.278756
time 431
0  608.000000 128.000000 364.359650  0.000000 -0.000002 -0.280901
time 432
0  608.000000 128.000000 363.818298  0.000000 -0.000002 -0.283045
time 433
0  608.000000 128.000000 363.276917  0.000000 -0.000002 -0.285189
time 434
0  608.000000 128.000000 362.735565  0.000000 -0.000002 -0.287333
time 435
0  608.000000 128.000000 362.194214  0.000000 -0.000002 -0.289478
time 436
0  608.000000 128.000000 361.652832  0.000000 -0.000002 -0.291622
time 437
0  608.000000 128.000000 361.111481  0.000000 -0.000002 -0.293766
time 438
0  608.000000 128.000000 360.570129  0.000000 -0.000002 -0.295911
time 439
0  608.000000 128.000000 360.028748  0.000000 -0.000002 -0.298055
time 440
0  608.000000 128.000000 359.487366  0.000000 -0.000002 -0.300199
time 441
0  608.000000 128.000000 358.946014  0.000000 -0.000002 -0.302343
time 442
0  608.000000 128.000000 358.404663  0.000000 -0.000002 -0.304488
time 443
0  608.000000 128.000000 357.863281  0.000000 -0.000002 -0.306632
time 444
0  608.000000 128.000000 357.321930  0.000000 -0.000002 -0.308776
time 445
0  608.000000 128.000000 356.780579  0.000000 -0.000002 -0.310920
time 446
0  608.000000 128.000000 356.239197  0.000000 -0.000002 -0.313065
time 447
0  608.000000 128.000000 355.697845  0.000000 -0.000002 -0.315209
time 448
0  608.000000 128.000000 355.156464  0.000000 -0.000002 -0.317353
time 449
0  608.000000 128.000000 354.615112  0.000000 -0.000002 -0.319498
time 450
0  608.000000 128.000000 354.073761  0.000000 -0.000002 -0.321642
time 451
0  608.000000 128.000000 353.532379  0.000000 -0.000002 -0.323786
time 452
0  608.000000 128.000000 352.991028  0.000000 -0.000002 -0.325930
time 453
0  608.000000 128.000000 352.449646  0.000000 -0.000002 -0.328075
time 454
0  608.000000 128.000000 351.908295  0.000000 -0.000002 -0.330219
time 455
0  608.000000 128.000000 351.366943  0.000000 -0.000002 -0.332363
time 456
0  608.000000 128.000000 350.825562  0.000000 -0.000002 -0.334508
time 457
0  608.000000 128.000000 350.284210  0.000000 -0.000002 -0.336652
time 458
0  608.000000 128.000000 349.742859  0.000000 -0.000002 -0.338796
time 459
0  608.000000 128.000000 349.201477  0.000000 -0.000002 -0.340940
time 460
0  608.000000 128.000000 348.660095  0.000000 -0.000002 -0.343085
time 461
0  608.000000 128.000000 348.118744  0.000000 -0.000002 -0.345229
time 462
0  608.000000 128.000000 347.577393  0.000000 -0.000002 -0.347373
time 463
0  608.000000 128.000000 347.036011  0.000000 -0.000002 -0.349517
time 464
0  608.000000 128.000000 346.494659  0.000000 -0.000002 -0.351662
time 465
0  608.000000 128.000000 345.953308  0.000000 -0.000002 -0.353806
time 466
0  608.000000 128.000000 345.411926  0.000000 -0.000002 -0.355950
time 467
0  608.000000 128.000000 344.870575  0.000000 -0.000002 -0.358095
time 468
0  608.000000 128.000000 344.329224  0.000000 -0.000002 -0.360239
time 469
0  608.000000 128.000000 343.787842  0.000000 -0.000002 -0.362383
time 470
0  608.000000 128.000000 343.246490  0.000000 -0.000002 -0.364527
time 471
0  608.000000 128.000000 342.705109  0.000000 -0.000002 -0.366672
time 472
0  608.000000 128.000000 342.163757  0.000000 -0.000002 -0.368816
time 473
0  608.000000 128.000000 341.622375  0.000000 -0.000002 -0.370960
time 474
0  608.000000 128.000000 341.081024  0.000000 -0.000002 -0.373105
time 475
0  608.000000 128.000000 340.539673  0.000000 -0.000002 -0.375249
time 476
0  608.000000 128.000000 339.998291  0.000000 -0.000002 -0.377393
time 477
0  608.000000 128.000000 339.456940  0.000000 -0.000002 -0.379537
time 478
0  608.000000 128.000000 338.915588  0.000000 -0.000002 -0.381682
time 479
0  608.000000 128.000000 338.374207  0.000000 -0.000002 -0.383826
time 480
0  608.000000 128.000000 337.832855  0.000000 -0.000002 -0.385970
time 481
0  608.000000 128.000000 337.291473  0.000000 -0.000002 -0.388115
time 482
0  608.000000 128.000000 336.750122  0.000000 -0.000002 -0.390259
time 483
0  608.000000 128.000000 336.208771  0.000000 -0.000002 -0.392403
time 484
0  608.000000 128.000000 335.667389  0.000000 -0.000002 -0.394547
time 485
0  608.000000 128.000000 335.126038  0.000000 -0.000002 -0.396692
time 486
0  608.000000 128.000000 334.584656  0.000000 -0.000002 -0.398836
time 487
0  608.000000 128.000000 334.043304  0.000000 -0.000002 -0.400980
time 488
0  608.000000 128.000000 333.501953  0.000000 -0.000002 -0.403124
time 489
0  608.000000 128.000000 332.960571  0.000000 -0.000002 -0.405269
time 490
0  608.000000 128.000000 332.419220  0.000000 -0.000002 -0.407413
time 491
0  608.000000 128.000000 331.877869  0.000000 -0.000002 -0.409557
time 492
0  608.000000 128.000000 331.336487  0.000000 -0.000002 -0.411702
time 493
0  608.000000 128.000000 330.795105  0.000000 -0.000002 -0.413846
time 494
0  608.000000 128.000000 330.253754  0.000000 -0.000002 -0.415990
time 495
0  608.000000 128.000000 329.712402  0.000000 -0.000002 -0.418134
time 496
0  608.000000 128.000000 329.171021  0.000000 -0.000002 -0.420279
time 497
0  608.000000 128.000000 328.629669  0.000000 -0.000002 -0.422423
time 498
0  608.000000 128.000000 328.088318  0.000000 -0.000002 -0.424567
time 499
0  608.000000 128.000000 327.546936  0.000000 -0.000002 -0.426712
time 500
0  608.000000 128.000000 327.005585  0.000000 -0.000002 -0.428856
time 501
0  608.000000 128.000000 326.464203  0.000000 -0.000002 -0.431000
time 502
0  608.000000 128.000000 325.922852  0.000000 -0.000002 -0.433144
time 503
0  608.000000 128.000000 325.381500  0.000000 -0.000002 -0.435289
time 504
0  608.000000 128.000000 324.840118  0.000000 -0.000002 -0.437433
time 505
0  608.000000 128.000000 324.298767  0.000000 -0.000002 -0.439577
time 506
0  608.000000 128.000000 323.757385  0.000000 -0.000002 -0.441721
time 507
0  608.000000 128.000000 323.216034  0.000000 -0.000002 -0.443866
time 508
0  608.000000 128.000000 322.674683  0.000000 -0.000002 -0.446010
time 509
0  608.000000 128.000000 322.133301  0.000000 -0.000002 -0.448154
time 510
0  608.000000 128.000000 321.591949  0.000000 -0.000002 -0.450299
time 511
0  608.000000 128.000000 321.050598  0.000000 -0.000002 -0.452443
time 512
0  608.000000 128.000000 320.509216  0.000000 -0.000002 -0.454587
time 513
0  608.000000 128.000000 319.967865  0.000000 -0.000002 -0.456731
time 514
0  608.000000 128.000000 319.426483  0.000000 -0.000002 -0.458876
time 515
0  608.000000 128.000000 318.885132  0.000000 -0.000002 -0.461020
time 516
0  608.000000 128.000000 318.343750  0.000000 -0.000002 -0.463164
time 517
0  608.000000 128.000000 317.802399  0.000000 -0.000002 -0.465309
time 518
0  608.000000 128.000000 317.261047  0.000000 -0.000002 -0.467453
time 519
0  608.000000 128.000000 316.719666  0.000000 -0.000002 -0.469597
time 520
0  608.000000 128.000000 316.178314  0.000000 -0.000002 -0.471741
time 521
0  608.000000 128.000000 315.636963  0.000000 -0.000002 -0.473886
time 522
0  608.000000 128.000000 315.095581  0.000000 -0.000002 -0.476030
time 523
0  608.000000 128.000000 314.554230  0.000000 -0.000002 -0.478174
time 524
0  608.000000 128.000000 314.012878  0.000000 -0.000002 -0.480319
time 525
0  608.000000 128.000000 313.471497  0.000000 -0.000002 -0.482463
time 526
0  608.000000 128.000000 312.930115  0.000000 -0.000002 -0.484607
time 527
0  608.000000 128.000000 312.388763  0.000000 -0.000002 -0.486751
time 528
0  608.000000 128.000000 311.847412  0.000000 -0.000002 -0.488896
time 529
0  608.000000 128.000000 311.306030  0.000000 -0.000002 -0.491040
time 530
0  608.000000 128.000000 310.764679  0.000000 -0.000002 -0.493184
time 531
0  608.000000 128.000000 310.223328  0.000000 -0.000002 -0.495328
time 532
0  608.000000 128.000000 309.681946  0.000000 -0.000002 -0.497473
time 533
0  608.000000 128.000000 309.140594  0.000000 -0.000002 -0.499617
time 534
0  608.000000 128.000000 308.599213  0.000000 -0.000002 -0.501761
time 535
0  608.000000 128.000000 308.057861  0.000000 -0.000002 -0.503906
time 536
0  608.000000 128.000000 307.516510  0.000000 -0.000002 -0.506050
time 537
0  608.000000 128.000000 306.975128  0.000000 -0.000002 -0.508194
time 538
0  608.000000 128.000000 306.433777  0.000000 -0.000002 -0.510338
time 539
0  608.000000 128.000000 305.892395  0.000000 -0.000002 -0.512483
end
