version 1
nodes
0 "cam" -1
end
skeleton
time 0
0  186.121078 -760.805603 505.352325  0.951290 -0.000010 0.788154
time 1
0  186.121078 -760.805603 505.352325  0.951290 -0.000010 0.788154
time 2
0  186.121078 -760.805603 505.352325  0.951290 -0.000010 0.788154
time 3
0  186.121078 -760.805603 505.352325  0.951290 -0.000010 0.788154
time 4
0  186.121078 -760.805603 505.352325  0.951290 -0.000010 0.788154
time 5
0  186.121078 -760.805603 505.352325  0.951290 -0.000010 0.788154
time 6
0  186.121078 -760.805603 505.352325  0.951290 -0.000010 0.788154
time 7
0  186.121078 -760.805603 505.352325  0.951290 -0.000010 0.788154
time 8
0  186.121078 -760.805603 505.352325  0.951290 -0.000010 0.788154
time 9
0  186.121078 -760.805603 505.352325  0.951290 -0.000010 0.788154
time 10
0  186.121078 -760.805603 505.352325  0.951290 -0.000010 0.788154
time 11
0  186.121078 -760.805603 505.352325  0.951290 -0.000010 0.788154
time 12
0  186.121078 -760.805603 505.352325  0.951290 -0.000010 0.788154
time 13
0  186.121078 -760.805603 505.352325  0.951290 -0.000010 0.788154
time 14
0  186.121078 -760.805603 505.352325  0.951290 -0.000010 0.788154
time 15
0  186.121078 -760.805603 505.352325  0.951290 -0.000010 0.788154
time 16
0  186.121078 -760.805603 505.352325  0.951290 -0.000010 0.788154
time 17
0  186.121078 -760.805603 505.352325  0.951290 -0.000010 0.788154
time 18
0  186.121078 -760.805603 505.352325  0.951290 -0.000010 0.788154
time 19
0  186.121078 -760.805603 505.352325  0.951290 -0.000010 0.788154
time 20
0  186.121078 -760.805603 505.352325  0.951290 -0.000010 0.788154
time 21
0  186.121078 -760.805603 505.352325  0.951290 -0.000010 0.788154
time 22
0  186.121078 -760.805603 505.352325  0.951290 -0.000010 0.788154
time 23
0  186.121078 -760.805603 505.352325  0.951290 -0.000010 0.788154
time 24
0  186.121078 -760.805603 505.352325  0.951290 -0.000010 0.788154
time 25
0  186.121078 -760.805603 505.352325  0.951290 -0.000010 0.788154
time 26
0  186.121078 -760.805603 505.352325  0.951290 -0.000010 0.788154
time 27
0  186.121078 -760.805603 505.352325  0.951290 -0.000010 0.788154
time 28
0  186.121078 -760.805603 505.352325  0.951290 -0.000010 0.788154
time 29
0  186.121078 -760.805603 505.352325  0.951290 -0.000010 0.788154
time 30
0  186.121078 -760.805603 505.352325  0.951290 -0.000010 0.788154
time 31
0  185.552399 -760.240051 504.998444  0.951290 -0.000010 0.788154
time 32
0  184.983704 -759.674500 504.644531  0.951290 -0.000010 0.788154
time 33
0  184.415024 -759.108887 504.290649  0.951290 -0.000010 0.788154
time 34
0  183.846329 -758.543335 503.936768  0.951290 -0.000010 0.788154
time 35
0  183.277649 -757.977783 503.582886  0.951290 -0.000010 0.788154
time 36
0  182.708969 -757.412231 503.228973  0.951290 -0.000010 0.788154
time 37
0  182.140274 -756.846619 502.875092  0.951290 -0.000010 0.788154
time 38
0  181.571594 -756.281067 502.521210  0.951290 -0.000010 0.788154
time 39
0  181.002914 -755.715515 502.167328  0.951290 -0.000010 0.788154
time 40
0  180.434219 -755.149963 501.813416  0.951290 -0.000010 0.788154
time 41
0  179.865540 -754.584351 501.459534  0.951290 -0.000010 0.788154
time 42
0  179.296844 -754.018799 501.105652  0.951290 -0.000010 0.788154
time 43
0  178.728165 -753.453247 500.751770  0.951290 -0.000010 0.788154
time 44
0  178.159485 -752.887695 500.397858  0.951290 -0.000010 0.788154
time 45
0  177.590790 -752.322144 500.043976  0.951290 -0.000010 0.788154
time 46
0  177.022110 -751.756531 499.690094  0.951290 -0.000010 0.788154
time 47
0  176.453415 -751.190979 499.336212  0.951290 -0.000010 0.788154
time 48
0  175.884735 -750.625427 498.982300  0.951290 -0.000010 0.788154
time 49
0  175.316055 -750.059875 498.628418  0.951290 -0.000010 0.788154
time 50
0  174.747360 -749.494263 498.274536  0.951290 -0.000010 0.788154
time 51
0  174.178680 -748.928711 497.920654  0.951290 -0.000010 0.788154
time 52
0  173.610001 -748.363159 497.566742  0.951290 -0.000010 0.788154
time 53
0  173.041306 -747.797607 497.212860  0.951290 -0.000010 0.788154
time 54
0  172.472626 -747.232056 496.858978  0.951290 -0.000010 0.788154
time 55
0  171.903931 -746.666443 496.505096  0.951290 -0.000010 0.788154
time 56
0  171.335251 -746.100891 496.151184  0.951290 -0.000010 0.788154
time 57
0  170.766571 -745.535339 495.797302  0.951290 -0.000010 0.788154
time 58
0  170.197876 -744.969788 495.443420  0.951290 -0.000010 0.788154
time 59
0  169.629196 -744.404175 495.089539  0.951290 -0.000010 0.788154
time 60
0  169.060516 -743.838623 494.735626  0.951290 -0.000010 0.788154
time 61
0  168.491821 -743.273071 494.381744  0.951290 -0.000010 0.788154
time 62
0  167.923141 -742.707520 494.027863  0.951290 -0.000010 0.788154
time 63
0  167.354446 -742.141907 493.673981  0.951290 -0.000010 0.788154
time 64
0  166.785767 -741.576355 493.320068  0.951290 -0.000010 0.788154
time 65
0  166.217087 -741.010803 492.966187  0.951290 -0.000010 0.788154
time 66
0  165.648392 -740.445251 492.612305  0.951290 -0.000010 0.788154
time 67
0  165.079712 -739.879700 492.258423  0.951290 -0.000010 0.788154
time 68
0  164.511017 -739.314087 491.904510  0.951290 -0.000010 0.788154
time 69
0  163.942337 -738.748535 491.550629  0.951290 -0.000010 0.788154
time 70
0  163.373657 -738.182983 491.196747  0.951290 -0.000010 0.788154
time 71
0  162.804962 -737.617432 490.842865  0.951290 -0.000010 0.788154
time 72
0  162.236282 -737.051819 490.488953  0.951290 -0.000010 0.788154
time 73
0  161.667603 -736.486267 490.135071  0.951290 -0.000010 0.788154
time 74
0  161.098907 -735.920715 489.781189  0.951290 -0.000010 0.788154
time 75
0  160.530228 -735.355164 489.427307  0.951290 -0.000010 0.788154
time 76
0  159.961533 -734.789551 489.073395  0.951290 -0.000010 0.788154
time 77
0  159.392853 -734.223999 488.719513  0.951290 -0.000010 0.788154
time 78
0  158.824173 -733.658447 488.365631  0.951290 -0.000010 0.788154
time 79
0  158.255478 -733.092896 488.011749  0.951290 -0.000010 0.788154
time 80
0  157.686798 -732.527344 487.657837  0.951290 -0.000010 0.788154
time 81
0  157.118103 -731.961731 487.303955  0.951290 -0.000010 0.788154
time 82
0  156.549423 -731.396179 486.950073  0.951290 -0.000010 0.788154
time 83
0  155.980743 -730.830627 486.596191  0.951290 -0.000010 0.788154
time 84
0  155.412048 -730.265076 486.242279  0.951290 -0.000010 0.788154
time 85
0  154.843369 -729.699463 485.888397  0.951290 -0.000010 0.788154
time 86
0  154.274689 -729.133911 485.534515  0.951290 -0.000010 0.788154
time 87
0  153.705994 -728.568359 485.180634  0.951290 -0.000010 0.788154
time 88
0  153.137314 -728.002808 484.826721  0.951290 -0.000010 0.788154
time 89
0  152.568634 -727.437195 484.472839  0.951290 -0.000010 0.788154
time 90
0  151.999939 -726.871643 484.118958  0.951290 -0.000010 0.788154
time 91
0  151.431259 -726.306091 483.765045  0.951290 -0.000010 0.788154
time 92
0  150.862564 -725.740540 483.411163  0.951290 -0.000010 0.788154
time 93
0  150.293884 -725.174988 483.057281  0.951290 -0.000010 0.788154
time 94
0  149.725189 -724.609375 482.703400  0.951290 -0.000010 0.788154
time 95
0  149.156509 -724.043823 482.349487  0.951290 -0.000010 0.788154
time 96
0  148.587830 -723.478271 481.995605  0.951290 -0.000010 0.788154
time 97
0  148.019135 -722.912720 481.641724  0.951290 -0.000010 0.788154
time 98
0  147.450455 -722.347107 481.287842  0.951290 -0.000010 0.788154
time 99
0  146.881775 -721.781555 480.933929  0.951290 -0.000010 0.788154
time 100
0  146.313080 -721.216003 480.580048  0.951290 -0.000010 0.788154
time 101
0  145.744400 -720.650452 480.226166  0.951290 -0.000010 0.788154
time 102
0  145.175705 -720.084839 479.872284  0.951290 -0.000010 0.788154
time 103
0  144.607025 -719.519287 479.518372  0.951290 -0.000010 0.788154
time 104
0  144.038330 -718.953735 479.164490  0.951290 -0.000010 0.788154
time 105
0  143.469650 -718.388184 478.810608  0.951290 -0.000010 0.788154
time 106
0  142.900970 -717.822632 478.456726  0.951290 -0.000010 0.788154
time 107
0  142.332275 -717.257019 478.102814  0.951290 -0.000010 0.788154
time 108
0  141.763596 -716.691467 477.748932  0.951290 -0.000010 0.788154
time 109
0  141.194916 -716.125916 477.395050  0.951290 -0.000010 0.788154
time 110
0  140.626221 -715.560364 477.041168  0.951290 -0.000010 0.788154
time 111
0  140.057541 -714.994751 476.687256  0.951290 -0.000010 0.788154
time 112
0  139.488861 -714.429199 476.333374  0.951290 -0.000010 0.788154
time 113
0  138.920166 -713.863647 475.979492  0.951290 -0.000010 0.788154
time 114
0  138.351486 -713.298096 475.625610  0.951290 -0.000010 0.788154
time 115
0  137.782806 -712.732544 475.271698  0.951290 -0.000010 0.788154
time 116
0  137.214111 -712.166931 474.917816  0.951290 -0.000010 0.788154
time 117
0  136.645432 -711.601379 474.563934  0.951290 -0.000010 0.788154
time 118
0  136.076752 -711.035828 474.210052  0.951290 -0.000010 0.788154
time 119
0  135.508057 -710.470276 473.856140  0.951290 -0.000010 0.788154
time 120
0  134.939362 -709.904663 473.502258  0.951290 -0.000010 0.788154
time 121
0  134.370682 -709.339111 473.148376  0.951290 -0.000010 0.788154
time 122
0  133.802002 -708.773560 472.794495  0.951290 -0.000010 0.788154
time 123
0  133.233307 -708.208008 472.440582  0.951290 -0.000010 0.788154
time 124
0  132.664627 -707.642395 472.086700  0.951290 -0.000010 0.788154
time 125
0  132.095947 -707.076843 471.732819  0.951290 -0.000010 0.788154
time 126
0  131.527252 -706.511292 471.378937  0.951290 -0.000010 0.788154
time 127
0  130.958572 -705.945740 471.025024  0.951290 -0.000010 0.788154
time 128
0  130.389893 -705.380188 470.671143  0.951290 -0.000010 0.788154
time 129
0  129.821198 -704.814575 470.317261  0.951290 -0.000010 0.788154
time 130
0  129.252502 -704.249023 469.963379  0.951290 -0.000010 0.788154
time 131
0  128.683823 -703.683472 469.609467  0.951290 -0.000010 0.788154
time 132
0  128.115143 -703.117920 469.255585  0.951290 -0.000010 0.788154
time 133
0  127.546455 -702.552307 468.901703  0.951290 -0.000010 0.788154
time 134
0  126.977768 -701.986755 468.547821  0.951290 -0.000010 0.788154
time 135
0  126.409088 -701.421204 468.193909  0.951290 -0.000010 0.788154
time 136
0  125.840393 -700.855652 467.840027  0.951290 -0.000010 0.788154
time 137
0  125.271713 -700.290039 467.486145  0.951290 -0.000010 0.788154
time 138
0  124.703033 -699.724487 467.132263  0.951290 -0.000010 0.788154
time 139
0  124.134338 -699.158936 466.778351  0.951290 -0.000010 0.788154
time 140
0  123.565659 -698.593384 466.424469  0.951290 -0.000010 0.788154
time 141
0  122.996971 -698.027832 466.070587  0.951290 -0.000010 0.788154
time 142
0  122.428284 -697.462219 465.716675  0.951290 -0.000010 0.788154
time 143
0  121.859596 -696.896667 465.362793  0.951290 -0.000010 0.788154
time 144
0  121.290916 -696.331116 465.008911  0.951290 -0.000010 0.788154
time 145
0  120.722229 -695.765564 464.655029  0.951290 -0.000010 0.788154
time 146
0  120.153542 -695.199951 464.301147  0.951290 -0.000010 0.788154
time 147
0  119.584854 -694.634399 463.947235  0.951290 -0.000010 0.788154
time 148
0  119.016174 -694.068848 463.593353  0.951290 -0.000010 0.788154
time 149
0  118.447487 -693.503296 463.239471  0.951290 -0.000010 0.788154
time 150
0  117.878799 -692.937744 462.885559  0.951290 -0.000010 0.788154
time 151
0  117.310120 -692.372131 462.531677  0.951290 -0.000010 0.788154
time 152
0  116.741432 -691.806580 462.177795  0.951290 -0.000010 0.788154
time 153
0  116.172737 -691.241028 461.823914  0.951290 -0.000010 0.788154
time 154
0  115.604057 -690.675476 461.470032  0.951290 -0.000010 0.788154
time 155
0  115.035370 -690.109863 461.116119  0.951290 -0.000010 0.788154
time 156
0  114.466682 -689.544312 460.762238  0.951290 -0.000010 0.788154
time 157
0  113.898003 -688.978760 460.408356  0.951290 -0.000010 0.788154
time 158
0  113.329315 -688.413208 460.054443  0.951290 -0.000010 0.788154
time 159
0  112.760628 -687.847595 459.700562  0.951290 -0.000010 0.788154
time 160
0  112.191948 -687.282043 459.346680  0.951290 -0.000010 0.788154
time 161
0  111.623260 -686.716492 458.992798  0.951290 -0.000010 0.788154
time 162
0  111.054573 -686.150940 458.638885  0.951290 -0.000010 0.788154
time 163
0  110.485893 -685.585327 458.285004  0.951290 -0.000010 0.788154
time 164
0  109.917198 -685.019775 457.931122  0.951290 -0.000010 0.788154
time 165
0  109.348511 -684.454224 457.577240  0.951290 -0.000010 0.788154
time 166
0  108.779823 -683.888672 457.223328  0.951290 -0.000010 0.788154
time 167
0  108.211143 -683.323120 456.869446  0.951290 -0.000010 0.788154
time 168
0  107.642456 -682.757507 456.515564  0.951290 -0.000010 0.788154
time 169
0  107.073769 -682.191956 456.161682  0.951290 -0.000010 0.788154
time 170
0  106.505089 -681.626404 455.807770  0.951290 -0.000010 0.788154
time 171
0  105.936401 -681.060852 455.453888  0.951290 -0.000010 0.788154
time 172
0  105.367714 -680.495239 455.100006  0.951290 -0.000010 0.788154
time 173
0  104.799034 -679.929688 454.746124  0.951290 -0.000010 0.788154
time 174
0  104.230339 -679.364136 454.392212  0.951290 -0.000010 0.788154
time 175
0  103.661652 -678.798584 454.038330  0.951290 -0.000010 0.788154
time 176
0  103.092972 -678.233032 453.684448  0.951290 -0.000010 0.788154
time 177
0  102.524284 -677.667419 453.330566  0.951290 -0.000010 0.788154
time 178
0  101.955597 -677.101868 452.976654  0.951290 -0.000010 0.788154
time 179
0  101.386917 -676.536316 452.622772  0.951290 -0.000010 0.788154
time 180
0  100.818230 -675.970764 452.268890  0.951290 -0.000010 0.788154
time 181
0  100.249542 -675.405151 451.915009  0.951290 -0.000010 0.788154
time 182
0  99.680862 -674.839600 451.561096  0.951290 -0.000010 0.788154
time 183
0  99.112175 -674.274048 451.207214  0.951290 -0.000010 0.788154
time 184
0  98.543488 -673.708496 450.853333  0.951290 -0.000010 0.788154
time 185
0  97.974800 -673.142944 450.499451  0.951290 -0.000010 0.788154
time 186
0  97.406113 -672.577332 450.145538  0.951290 -0.000010 0.788154
time 187
0  96.837425 -672.011780 449.791656  0.951290 -0.000010 0.788154
time 188
0  96.268745 -671.446228 449.437775  0.951290 -0.000010 0.788154
time 189
0  95.700058 -670.880676 449.083893  0.951290 -0.000010 0.788154
time 190
0  95.131371 -670.315063 448.729980  0.951290 -0.000010 0.788154
time 191
0  94.562691 -669.749512 448.376099  0.951290 -0.000010 0.788154
time 192
0  93.994003 -669.183960 448.022217  0.951290 -0.000010 0.788154
time 193
0  93.425316 -668.618408 447.668335  0.951290 -0.000010 0.788154
time 194
0  92.856636 -668.052795 447.314423  0.951290 -0.000010 0.788154
time 195
0  92.287949 -667.487244 446.960541  0.951290 -0.000010 0.788154
time 196
0  91.719254 -666.921692 446.606659  0.951290 -0.000010 0.788154
time 197
0  91.150574 -666.356140 446.252777  0.951290 -0.000010 0.788154
time 198
0  90.581886 -665.790527 445.898865  0.951290 -0.000010 0.788154
time 199
0  90.013199 -665.224976 445.544983  0.951290 -0.000010 0.788154
time 200
0  89.444519 -664.659424 445.191101  0.951290 -0.000010 0.788154
time 201
0  88.875832 -664.093872 444.837219  0.951290 -0.000010 0.788154
time 202
0  88.307144 -663.528320 444.483307  0.951290 -0.000010 0.788154
time 203
0  87.738464 -662.962708 444.129425  0.951290 -0.000010 0.788154
time 204
0  87.169777 -662.397156 443.775543  0.951290 -0.000010 0.788154
time 205
0  86.601089 -661.831604 443.421631  0.951290 -0.000010 0.788154
time 206
0  86.032410 -661.266052 443.067749  0.951290 -0.000010 0.788154
time 207
0  85.463715 -660.700439 442.713867  0.951290 -0.000010 0.788154
time 208
0  84.895027 -660.134888 442.359985  0.951290 -0.000010 0.788154
time 209
0  84.326347 -659.569336 442.006104  0.951290 -0.000010 0.788154
time 210
0  83.757660 -659.003784 441.652191  0.951290 -0.000010 0.788154
time 211
0  83.188972 -658.438232 441.298309  0.951290 -0.000010 0.788154
time 212
0  82.620293 -657.872620 440.944427  0.951290 -0.000010 0.788154
time 213
0  82.051605 -657.307068 440.590515  0.951290 -0.000010 0.788154
time 214
0  81.482918 -656.741516 440.236633  0.951290 -0.000010 0.788154
time 215
0  80.914238 -656.175964 439.882751  0.951290 -0.000010 0.788154
time 216
0  80.345551 -655.610352 439.528870  0.951290 -0.000010 0.788154
time 217
0  79.776855 -655.044800 439.174988  0.951290 -0.000010 0.788154
time 218
0  79.208168 -654.479248 438.821075  0.951290 -0.000010 0.788154
time 219
0  78.639488 -653.913696 438.467194  0.951290 -0.000010 0.788154
time 220
0  78.070801 -653.348083 438.113312  0.951290 -0.000010 0.788154
time 221
0  77.502113 -652.782532 437.759399  0.951290 -0.000010 0.788154
time 222
0  76.933434 -652.216980 437.405518  0.951290 -0.000010 0.788154
time 223
0  76.364746 -651.651428 437.051636  0.951290 -0.000010 0.788154
time 224
0  75.796059 -651.085876 436.697754  0.951290 -0.000010 0.788154
time 225
0  75.227379 -650.520264 436.343872  0.951290 -0.000010 0.788154
time 226
0  74.658691 -649.954712 435.989960  0.951290 -0.000010 0.788154
time 227
0  74.090004 -649.389160 435.636078  0.951290 -0.000010 0.788154
time 228
0  73.521317 -648.823608 435.282166  0.951290 -0.000010 0.788154
time 229
0  72.952629 -648.257996 434.928284  0.951290 -0.000010 0.788154
time 230
0  72.383942 -647.692444 434.574402  0.951290 -0.000010 0.788154
time 231
0  71.815262 -647.126892 434.220520  0.951290 -0.000010 0.788154
time 232
0  71.246574 -646.561340 433.866638  0.951290 -0.000010 0.788154
time 233
0  70.677887 -645.995728 433.512756  0.951290 -0.000010 0.788154
time 234
0  70.109207 -645.430176 433.158844  0.951290 -0.000010 0.788154
time 235
0  69.540520 -644.864624 432.804962  0.951290 -0.000010 0.788154
time 236
0  68.971832 -644.299072 432.451080  0.951290 -0.000010 0.788154
time 237
0  68.403152 -643.733521 432.097168  0.951290 -0.000010 0.788154
time 238
0  67.834457 -643.167908 431.743286  0.951290 -0.000010 0.788154
time 239
0  67.265770 -642.602356 431.389404  0.951290 -0.000010 0.788154
time 240
0  66.697090 -642.036804 431.035522  0.951290 -0.000010 0.788154
time 241
0  66.128403 -641.471252 430.681641  0.951290 -0.000010 0.788154
time 242
0  65.559715 -640.905640 430.327728  0.951290 -0.000010 0.788154
time 243
0  64.991035 -640.340088 429.973846  0.951290 -0.000010 0.788154
time 244
0  64.422348 -639.774536 429.619934  0.951290 -0.000010 0.788154
time 245
0  63.853661 -639.208984 429.266052  0.951290 -0.000010 0.788154
time 246
0  63.284981 -638.643433 428.912170  0.951290 -0.000010 0.788154
time 247
0  62.716293 -638.077820 428.558289  0.951290 -0.000010 0.788154
time 248
0  62.147606 -637.512268 428.204407  0.951290 -0.000010 0.788154
time 249
0  61.578918 -636.946716 427.850494  0.951290 -0.000010 0.788154
time 250
0  61.010231 -636.381165 427.496613  0.951290 -0.000010 0.788154
time 251
0  60.441544 -635.815552 427.142731  0.951290 -0.000010 0.788154
time 252
0  59.872864 -635.250000 426.788818  0.951290 -0.000010 0.788154
time 253
0  59.304176 -634.684448 426.434937  0.951290 -0.000010 0.788154
time 254
0  58.735489 -634.118896 426.081055  0.951290 -0.000010 0.788154
time 255
0  58.166809 -633.553284 425.727173  0.951290 -0.000010 0.788154
time 256
0  57.598114 -632.987732 425.373291  0.951290 -0.000010 0.788154
time 257
0  57.029434 -632.422180 425.019409  0.951290 -0.000010 0.788154
time 258
0  56.460754 -631.856628 424.665497  0.951290 -0.000010 0.788154
time 259
0  55.892059 -631.291016 424.311615  0.951290 -0.000010 0.788154
time 260
0  55.323380 -630.725464 423.957703  0.951290 -0.000010 0.788154
time 261
0  54.754684 -630.159912 423.603821  0.951290 -0.000010 0.788154
time 262
0  54.186005 -629.594360 423.249939  0.951290 -0.000010 0.788154
time 263
0  53.617325 -629.028809 422.896057  0.951290 -0.000010 0.788154
time 264
0  53.048630 -628.463257 422.542175  0.951290 -0.000010 0.788154
time 265
0  52.479950 -627.897644 422.188263  0.951290 -0.000010 0.788154
time 266
0  51.911270 -627.332092 421.834381  0.951290 -0.000010 0.788154
time 267
0  51.342575 -626.766541 421.480499  0.951290 -0.000010 0.788154
time 268
0  50.773895 -626.200928 421.126587  0.951290 -0.000010 0.788154
time 269
0  50.205215 -625.635376 420.772705  0.951290 -0.000010 0.788154
end
