version 1
nodes
0 "blender_implicit" -1
1 "cam" -1
end
skeleton
time 0
0  0 0 0  0 0 0
1  -567.945374 656.738586 8.640248  1.696991 -0.000003 0.347680
time 1
0  0 0 0  0 0 0
1  -567.945374 656.738586 8.640248  1.696991 -0.000003 0.347680
time 2
0  0 0 0  0 0 0
1  -568.048706 657.101501 8.640248  1.696994 -0.000003 0.347679
time 3
0  0 0 0  0 0 0
1  -568.152039 657.464417 8.640248  1.697002 -0.000003 0.347677
time 4
0  0 0 0  0 0 0
1  -568.255432 657.827332 8.640248  1.697016 -0.000003 0.347673
time 5
0  0 0 0  0 0 0
1  -568.358826 658.190369 8.640248  1.697035 -0.000003 0.347668
time 6
0  0 0 0  0 0 0
1  -568.462219 658.553467 8.640248  1.697061 -0.000003 0.347661
time 7
0  0 0 0  0 0 0
1  -568.565674 658.916626 8.640248  1.697092 -0.000003 0.347652
time 8
0  0 0 0  0 0 0
1  -568.669128 659.279907 8.640248  1.697129 -0.000003 0.347642
time 9
0  0 0 0  0 0 0
1  -568.772644 659.643433 8.640248  1.697173 -0.000003 0.347630
time 10
0  0 0 0  0 0 0
1  -568.876282 660.007080 8.640248  1.697222 -0.000003 0.347616
time 11
0  0 0 0  0 0 0
1  -568.979919 660.370972 8.640248  1.697278 -0.000003 0.347600
time 12
0  0 0 0  0 0 0
1  -569.083618 660.735107 8.640248  1.697340 -0.000003 0.347582
time 13
0  0 0 0  0 0 0
1  -569.187439 661.099365 8.640248  1.697409 -0.000003 0.347563
time 14
0  0 0 0  0 0 0
1  -569.291382 661.464050 8.640248  1.697484 -0.000003 0.347541
time 15
0  0 0 0  0 0 0
1  -569.395325 661.828918 8.640248  1.697566 -0.000003 0.347517
time 16
0  0 0 0  0 0 0
1  -569.499329 662.194092 8.640248  1.697655 -0.000003 0.347491
time 17
0  0 0 0  0 0 0
1  -569.603577 662.559631 8.640248  1.697751 -0.000003 0.347463
time 18
0  0 0 0  0 0 0
1  -569.707886 662.925476 8.640248  1.697853 -0.000003 0.347433
time 19
0  0 0 0  0 0 0
1  -569.812256 663.291687 8.640248  1.697963 -0.000003 0.347400
time 20
0  0 0 0  0 0 0
1  -569.916748 663.658386 8.640248  1.698081 -0.000003 0.347365
time 21
0  0 0 0  0 0 0
1  -570.021423 664.025452 8.640248  1.698205 -0.000003 0.347328
time 22
0  0 0 0  0 0 0
1  -570.126221 664.392944 8.640248  1.698338 -0.000003 0.347288
time 23
0  0 0 0  0 0 0
1  -570.231262 664.760986 8.640248  1.698478 -0.000003 0.347246
time 24
0  0 0 0  0 0 0
1  -570.336365 665.129395 8.640248  1.698626 -0.000003 0.347202
time 25
0  0 0 0  0 0 0
1  -570.441589 665.498413 8.640248  1.698781 -0.000003 0.347154
time 26
0  0 0 0  0 0 0
1  -570.546997 665.867920 8.640248  1.698945 -0.000003 0.347105
time 27
0  0 0 0  0 0 0
1  -570.652649 666.237976 8.640248  1.699118 -0.000003 0.347052
time 28
0  0 0 0  0 0 0
1  -570.758362 666.608582 8.640248  1.699298 -0.000003 0.346997
time 29
0  0 0 0  0 0 0
1  -570.864380 666.979797 8.640248  1.699487 -0.000003 0.346939
time 30
0  0 0 0  0 0 0
1  -570.970581 667.351624 8.640248  1.699685 -0.000003 0.346878
time 31
0  0 0 0  0 0 0
1  -571.076904 667.724121 8.640248  1.699892 -0.000003 0.346815
time 32
0  0 0 0  0 0 0
1  -571.183472 668.097229 8.640248  1.700108 -0.000003 0.346748
time 33
0  0 0 0  0 0 0
1  -571.290283 668.471069 8.640248  1.700333 -0.000003 0.346679
time 34
0  0 0 0  0 0 0
1  -571.397278 668.845642 8.640248  1.700567 -0.000003 0.346606
time 35
0  0 0 0  0 0 0
1  -571.504578 669.220947 8.640248  1.700812 -0.000003 0.346531
time 36
0  0 0 0  0 0 0
1  -571.612061 669.596985 8.640248  1.701065 -0.000003 0.346452
time 37
0  0 0 0  0 0 0
1  -571.719849 669.973755 8.640248  1.701329 -0.000003 0.346371
time 38
0  0 0 0  0 0 0
1  -571.827820 670.351379 8.640248  1.701603 -0.000003 0.346286
time 39
0  0 0 0  0 0 0
1  -571.936035 670.729797 8.640248  1.701887 -0.000003 0.346197
time 40
0  0 0 0  0 0 0
1  -572.044495 671.108948 8.640248  1.702181 -0.000003 0.346106
time 41
0  0 0 0  0 0 0
1  -572.153381 671.489075 8.640248  1.702486 -0.000003 0.346011
time 42
0  0 0 0  0 0 0
1  -572.262451 671.870117 8.640248  1.702803 -0.000003 0.345913
time 43
0  0 0 0  0 0 0
1  -572.371765 672.252014 8.640248  1.703130 -0.000003 0.345811
time 44
0  0 0 0  0 0 0
1  -572.481384 672.634827 8.640248  1.703468 -0.000003 0.345706
time 45
0  0 0 0  0 0 0
1  -572.591309 673.018616 8.640248  1.703818 -0.000003 0.345597
time 46
0  0 0 0  0 0 0
1  -572.701538 673.403381 8.640248  1.704180 -0.000003 0.345485
time 47
0  0 0 0  0 0 0
1  -572.812134 673.789124 8.640248  1.704554 -0.000003 0.345369
time 48
0  0 0 0  0 0 0
1  -572.923035 674.175903 8.640248  1.704940 -0.000003 0.345249
time 49
0  0 0 0  0 0 0
1  -573.034241 674.563721 8.640248  1.705338 -0.000003 0.345126
time 50
0  0 0 0  0 0 0
1  -573.145752 674.952576 8.640248  1.705749 -0.000003 0.344999
time 51
0  0 0 0  0 0 0
1  -573.257629 675.342468 8.640248  1.706173 -0.000003 0.344868
time 52
0  0 0 0  0 0 0
1  -573.369873 675.733521 8.640248  1.706610 -0.000003 0.344733
time 53
0  0 0 0  0 0 0
1  -573.482544 676.125671 8.640248  1.707060 -0.000003 0.344594
time 54
0  0 0 0  0 0 0
1  -573.595459 676.519043 8.640248  1.707524 -0.000003 0.344451
time 55
0  0 0 0  0 0 0
1  -573.708801 676.913513 8.640248  1.708002 -0.000003 0.344305
time 56
0  0 0 0  0 0 0
1  -573.822449 677.309204 8.640248  1.708494 -0.000003 0.344154
time 57
0  0 0 0  0 0 0
1  -573.936523 677.706177 8.640248  1.709000 -0.000003 0.343999
time 58
0  0 0 0  0 0 0
1  -574.051025 678.104248 8.640248  1.709521 -0.000003 0.343839
time 59
0  0 0 0  0 0 0
1  -574.165894 678.503723 8.640248  1.710057 -0.000003 0.343676
time 60
0  0 0 0  0 0 0
1  -574.281189 678.904419 8.640248  1.710608 -0.000003 0.343508
time 61
0  0 0 0  0 0 0
1  -574.396851 679.306335 8.640248  1.711175 -0.000003 0.343336
time 62
0  0 0 0  0 0 0
1  -574.512939 679.709595 8.640248  1.711757 -0.000003 0.343160
time 63
0  0 0 0  0 0 0
1  -574.629456 680.114319 8.640248  1.712355 -0.000003 0.342979
time 64
0  0 0 0  0 0 0
1  -574.746399 680.520325 8.640248  1.712969 -0.000003 0.342794
time 65
0  0 0 0  0 0 0
1  -574.863831 680.927795 8.640248  1.713600 -0.000003 0.342604
time 66
0  0 0 0  0 0 0
1  -574.981750 681.336670 8.640248  1.714247 -0.000003 0.342409
time 67
0  0 0 0  0 0 0
1  -575.099976 681.746887 8.640248  1.714912 -0.000003 0.342210
time 68
0  0 0 0  0 0 0
1  -575.218750 682.158691 8.640248  1.715593 -0.000003 0.342006
time 69
0  0 0 0  0 0 0
1  -575.337952 682.571960 8.640248  1.716292 -0.000003 0.341798
time 70
0  0 0 0  0 0 0
1  -575.457642 682.986633 8.640248  1.717009 -0.000003 0.341585
time 71
0  0 0 0  0 0 0
1  -575.577820 683.402893 8.640248  1.717743 -0.000003 0.341367
time 72
0  0 0 0  0 0 0
1  -575.698547 683.820679 8.640248  1.718496 -0.000003 0.341144
time 73
0  0 0 0  0 0 0
1  -575.819702 684.239990 8.640248  1.719266 -0.000003 0.340916
time 74
0  0 0 0  0 0 0
1  -575.941345 684.660950 8.640248  1.720055 -0.000003 0.340683
time 75
0  0 0 0  0 0 0
1  -576.063538 685.083557 8.640248  1.720863 -0.000003 0.340445
time 76
0  0 0 0  0 0 0
1  -576.186218 685.507751 8.640248  1.721689 -0.000003 0.340203
time 77
0  0 0 0  0 0 0
1  -576.309448 685.933594 8.640248  1.722535 -0.000003 0.339954
time 78
0  0 0 0  0 0 0
1  -576.433228 686.361145 8.640248  1.723399 -0.000003 0.339701
time 79
0  0 0 0  0 0 0
1  -576.557556 686.790344 8.640248  1.724282 -0.000003 0.339443
time 80
0  0 0 0  0 0 0
1  -576.682312 687.221313 8.640248  1.725184 -0.000003 0.339179
time 81
0  0 0 0  0 0 0
1  -576.807739 687.654053 8.640248  1.726106 -0.000004 0.338911
time 82
0  0 0 0  0 0 0
1  -576.933655 688.088562 8.640248  1.727046 -0.000004 0.338636
time 83
0  0 0 0  0 0 0
1  -577.060181 688.524841 8.640248  1.728006 -0.000004 0.338357
time 84
0  0 0 0  0 0 0
1  -577.187317 688.962830 8.640248  1.728984 -0.000004 0.338071
time 85
0  0 0 0  0 0 0
1  -577.314941 689.402771 8.640248  1.729981 -0.000004 0.337781
time 86
0  0 0 0  0 0 0
1  -577.443176 689.844543 8.640248  1.730997 -0.000004 0.337485
time 87
0  0 0 0  0 0 0
1  -577.572021 690.288208 8.640248  1.732031 -0.000004 0.337183
time 88
0  0 0 0  0 0 0
1  -577.701416 690.733765 8.640248  1.733084 -0.000004 0.336875
time 89
0  0 0 0  0 0 0
1  -577.831482 691.181213 8.640248  1.734154 -0.000004 0.336562
time 90
0  0 0 0  0 0 0
1  -577.962158 691.630676 8.640248  1.735242 -0.000004 0.336243
time 91
0  0 0 0  0 0 0
1  -578.093445 692.082031 8.640248  1.736347 -0.000004 0.335918
time 92
0  0 0 0  0 0 0
1  -578.225342 692.535400 8.640248  1.737468 -0.000004 0.335588
time 93
0  0 0 0  0 0 0
1  -578.357910 692.990845 8.640248  1.738605 -0.000004 0.335251
time 94
0  0 0 0  0 0 0
1  -578.491089 693.448181 8.640248  1.739758 -0.000004 0.334909
time 95
0  0 0 0  0 0 0
1  -578.624878 693.907654 8.640248  1.740926 -0.000004 0.334561
time 96
0  0 0 0  0 0 0
1  -578.759399 694.369202 8.640248  1.742108 -0.000004 0.334206
time 97
0  0 0 0  0 0 0
1  -578.894592 694.832825 8.640248  1.743303 -0.000004 0.333846
time 98
0  0 0 0  0 0 0
1  -579.030396 695.298645 8.640249  1.744511 -0.000004 0.333479
time 99
0  0 0 0  0 0 0
1  -579.166870 695.766541 8.640249  1.745731 -0.000004 0.333106
time 100
0  0 0 0  0 0 0
1  -579.304016 696.236633 8.640249  1.746961 -0.000004 0.332727
time 101
0  0 0 0  0 0 0
1  -579.441895 696.708923 8.640249  1.748202 -0.000004 0.332341
time 102
0  0 0 0  0 0 0
1  -579.580505 697.183411 8.640249  1.749452 -0.000004 0.331950
time 103
0  0 0 0  0 0 0
1  -579.719788 697.660095 8.640249  1.750710 -0.000004 0.331552
time 104
0  0 0 0  0 0 0
1  -579.859741 698.139099 8.640249  1.751975 -0.000004 0.331147
time 105
0  0 0 0  0 0 0
1  -580.000427 698.620300 8.640249  1.753245 -0.000004 0.330736
time 106
0  0 0 0  0 0 0
1  -580.141907 699.103821 8.640249  1.754521 -0.000004 0.330318
time 107
0  0 0 0  0 0 0
1  -580.283997 699.589661 8.640249  1.755801 -0.000004 0.329894
time 108
0  0 0 0  0 0 0
1  -580.426941 700.077942 8.640249  1.757083 -0.000004 0.329463
time 109
0  0 0 0  0 0 0
1  -580.570618 700.568481 8.640249  1.758367 -0.000004 0.329026
time 110
0  0 0 0  0 0 0
1  -580.714966 701.061462 8.640249  1.759652 -0.000004 0.328582
time 111
0  0 0 0  0 0 0
1  -580.860107 701.556824 8.640249  1.760936 -0.000004 0.328131
time 112
0  0 0 0  0 0 0
1  -581.006104 702.054565 8.640249  1.762219 -0.000004 0.327673
time 113
0  0 0 0  0 0 0
1  -581.152771 702.554871 8.640249  1.763499 -0.000004 0.327208
time 114
0  0 0 0  0 0 0
1  -581.300232 703.057556 8.640249  1.764776 -0.000004 0.326736
time 115
0  0 0 0  0 0 0
1  -581.448547 703.562805 8.640249  1.766048 -0.000004 0.326258
time 116
0  0 0 0  0 0 0
1  -581.597595 704.070557 8.640249  1.767315 -0.000004 0.325772
time 117
0  0 0 0  0 0 0
1  -581.747498 704.580811 8.640249  1.768575 -0.000004 0.325279
time 118
0  0 0 0  0 0 0
1  -581.898132 705.093689 8.640249  1.769829 -0.000004 0.324779
time 119
0  0 0 0  0 0 0
1  -582.049622 705.609131 8.640249  1.771074 -0.000004 0.324272
time 120
0  0 0 0  0 0 0
1  -582.201904 706.127197 8.640249  1.772311 -0.000004 0.323758
time 121
0  0 0 0  0 0 0
1  -582.355103 706.647827 8.640249  1.773538 -0.000004 0.323236
time 122
0  0 0 0  0 0 0
1  -582.509094 707.171143 8.640249  1.774755 -0.000004 0.322708
time 123
0  0 0 0  0 0 0
1  -582.663940 707.697144 8.640249  1.775962 -0.000004 0.322171
time 124
0  0 0 0  0 0 0
1  -582.819580 708.225891 8.640249  1.777157 -0.000004 0.321628
time 125
0  0 0 0  0 0 0
1  -582.976135 708.757263 8.640249  1.778340 -0.000004 0.321076
time 126
0  0 0 0  0 0 0
1  -583.133484 709.291382 8.640249  1.779511 -0.000004 0.320518
time 127
0  0 0 0  0 0 0
1  -583.291870 709.828308 8.640249  1.780670 -0.000004 0.319952
time 128
0  0 0 0  0 0 0
1  -583.450989 710.368042 8.640249  1.781815 -0.000004 0.319378
time 129
0  0 0 0  0 0 0
1  -583.611023 710.910522 8.640249  1.782948 -0.000004 0.318796
time 130
0  0 0 0  0 0 0
1  -583.771973 711.455811 8.640249  1.784066 -0.000004 0.318207
time 131
0  0 0 0  0 0 0
1  -583.933777 712.004028 8.640249  1.785170 -0.000004 0.317610
time 132
0  0 0 0  0 0 0
1  -584.096558 712.555054 8.640249  1.786261 -0.000004 0.317005
time 133
0  0 0 0  0 0 0
1  -584.260254 713.109009 8.640249  1.787337 -0.000004 0.316393
time 134
0  0 0 0  0 0 0
1  -584.424805 713.665894 8.640249  1.788398 -0.000004 0.315772
time 135
0  0 0 0  0 0 0
1  -584.590271 714.225708 8.640249  1.789445 -0.000004 0.315144
time 136
0  0 0 0  0 0 0
1  -584.756714 714.788513 8.640249  1.790477 -0.000004 0.314507
time 137
0  0 0 0  0 0 0
1  -584.924072 715.354248 8.640249  1.791495 -0.000004 0.313863
time 138
0  0 0 0  0 0 0
1  -585.092407 715.922974 8.640249  1.792497 -0.000004 0.313210
time 139
0  0 0 0  0 0 0
1  -585.261719 716.494751 8.640249  1.793485 -0.000004 0.312549
time 140
0  0 0 0  0 0 0
1  -585.432007 717.069580 8.640249  1.794458 -0.000004 0.311880
time 141
0  0 0 0  0 0 0
1  -585.603210 717.647522 8.640249  1.795417 -0.000004 0.311203
time 142
0  0 0 0  0 0 0
1  -585.775391 718.228516 8.640249  1.796360 -0.000004 0.310517
time 143
0  0 0 0  0 0 0
1  -585.948547 718.812683 8.640249  1.797289 -0.000004 0.309823
time 144
0  0 0 0  0 0 0
1  -586.122742 719.399902 8.640249  1.798204 -0.000004 0.309121
time 145
0  0 0 0  0 0 0
1  -586.297913 719.990356 8.640249  1.799104 -0.000004 0.308410
time 146
0  0 0 0  0 0 0
1  -586.474060 720.583923 8.640249  1.799990 -0.000004 0.307691
time 147
0  0 0 0  0 0 0
1  -586.651306 721.180725 8.640249  1.800861 -0.000004 0.306963
time 148
0  0 0 0  0 0 0
1  -586.829468 721.780762 8.640249  1.801718 -0.000004 0.306228
time 149
0  0 0 0  0 0 0
1  -587.008728 722.384094 8.640249  1.802561 -0.000004 0.305487
time 150
0  0 0 0  0 0 0
1  -587.188965 722.990540 8.640249  1.803390 -0.000004 0.304738
time 151
0  0 0 0  0 0 0
1  -587.370300 723.600464 8.640249  1.804205 -0.000004 0.303983
time 152
0  0 0 0  0 0 0
1  -587.552612 724.213623 8.640249  1.805006 -0.000004 0.303223
time 153
0  0 0 0  0 0 0
1  -587.735962 724.830078 8.640249  1.805793 -0.000004 0.302457
time 154
0  0 0 0  0 0 0
1  -587.920410 725.450012 8.640249  1.806566 -0.000004 0.301687
time 155
0  0 0 0  0 0 0
1  -588.105957 726.073242 8.640249  1.807326 -0.000004 0.300913
time 156
0  0 0 0  0 0 0
1  -588.292542 726.699890 8.640249  1.808072 -0.000004 0.300134
time 157
0  0 0 0  0 0 0
1  -588.480286 727.329895 8.640249  1.808804 -0.000004 0.299353
time 158
0  0 0 0  0 0 0
1  -588.669006 727.963440 8.640249  1.809523 -0.000004 0.298568
time 159
0  0 0 0  0 0 0
1  -588.858887 728.600464 8.640249  1.810228 -0.000004 0.297781
time 160
0  0 0 0  0 0 0
1  -589.049866 729.240845 8.640249  1.810920 -0.000004 0.296993
time 161
0  0 0 0  0 0 0
1  -589.241943 729.884888 8.640249  1.811599 -0.000004 0.296203
time 162
0  0 0 0  0 0 0
1  -589.435120 730.532410 8.640249  1.812264 -0.000004 0.295411
time 163
0  0 0 0  0 0 0
1  -589.629395 731.183472 8.640249  1.812916 -0.000004 0.294620
time 164
0  0 0 0  0 0 0
1  -589.824890 731.838135 8.640249  1.813555 -0.000004 0.293828
time 165
0  0 0 0  0 0 0
1  -590.021484 732.496399 8.640249  1.814181 -0.000004 0.293037
time 166
0  0 0 0  0 0 0
1  -590.219238 733.158325 8.640250  1.814794 -0.000004 0.292247
time 167
0  0 0 0  0 0 0
1  -590.418091 733.823853 8.640250  1.815394 -0.000004 0.291458
time 168
0  0 0 0  0 0 0
1  -590.618042 734.492798 8.640250  1.815981 -0.000004 0.290671
time 169
0  0 0 0  0 0 0
1  -590.819092 735.165100 8.640250  1.816556 -0.000004 0.289886
time 170
0  0 0 0  0 0 0
1  -591.021118 735.840515 8.640250  1.817117 -0.000004 0.289104
time 171
0  0 0 0  0 0 0
1  -591.224060 736.518982 8.640250  1.817666 -0.000004 0.288326
time 172
0  0 0 0  0 0 0
1  -591.427917 737.200134 8.640250  1.818203 -0.000004 0.287551
time 173
0  0 0 0  0 0 0
1  -591.632568 737.883911 8.640250  1.818727 -0.000004 0.286780
time 174
0  0 0 0  0 0 0
1  -591.838013 738.570190 8.640250  1.819239 -0.000004 0.286014
time 175
0  0 0 0  0 0 0
1  -592.044189 739.258667 8.640250  1.819738 -0.000004 0.285254
time 176
0  0 0 0  0 0 0
1  -592.251099 739.949280 8.640250  1.820225 -0.000004 0.284499
time 177
0  0 0 0  0 0 0
1  -592.458557 740.641846 8.640250  1.820699 -0.000004 0.283750
time 178
0  0 0 0  0 0 0
1  -592.666748 741.336060 8.640250  1.821162 -0.000004 0.283007
time 179
0  0 0 0  0 0 0
1  -592.875305 742.031738 8.640250  1.821612 -0.000004 0.282272
time 180
0  0 0 0  0 0 0
1  -593.084351 742.728882 8.640250  1.822051 -0.000004 0.281544
time 181
0  0 0 0  0 0 0
1  -593.293823 743.427246 8.640250  1.822477 -0.000004 0.280824
time 182
0  0 0 0  0 0 0
1  -593.503662 744.126465 8.640250  1.822892 -0.000004 0.280113
time 183
0  0 0 0  0 0 0
1  -593.713745 744.826599 8.640250  1.823295 -0.000004 0.279410
time 184
0  0 0 0  0 0 0
1  -593.924194 745.527344 8.640250  1.823686 -0.000004 0.278717
time 185
0  0 0 0  0 0 0
1  -594.134827 746.228455 8.640250  1.824065 -0.000004 0.278034
time 186
0  0 0 0  0 0 0
1  -594.345459 746.929810 8.640250  1.824433 -0.000004 0.277362
time 187
0  0 0 0  0 0 0
1  -594.556213 747.631287 8.640250  1.824789 -0.000004 0.276699
time 188
0  0 0 0  0 0 0
1  -594.767090 748.332520 8.640250  1.825134 -0.000004 0.276049
time 189
0  0 0 0  0 0 0
1  -594.977905 749.033508 8.640250  1.825467 -0.000004 0.275410
time 190
0  0 0 0  0 0 0
1  -595.188660 749.733948 8.640250  1.825789 -0.000004 0.274783
time 191
0  0 0 0  0 0 0
1  -595.399292 750.433655 8.640250  1.826100 -0.000004 0.274169
time 192
0  0 0 0  0 0 0
1  -595.609680 751.132507 8.640250  1.826399 -0.000004 0.273569
time 193
0  0 0 0  0 0 0
1  -595.819824 751.830322 8.640250  1.826687 -0.000004 0.272981
time 194
0  0 0 0  0 0 0
1  -596.029724 752.526733 8.640250  1.826965 -0.000004 0.272408
time 195
0  0 0 0  0 0 0
1  -596.239258 753.221741 8.640250  1.827231 -0.000004 0.271850
time 196
0  0 0 0  0 0 0
1  -596.448364 753.915100 8.640250  1.827487 -0.000004 0.271307
time 197
0  0 0 0  0 0 0
1  -596.656982 754.606628 8.640250  1.827731 -0.000004 0.270779
time 198
0  0 0 0  0 0 0
1  -596.865173 755.296082 8.640250  1.827965 -0.000004 0.270267
time 199
0  0 0 0  0 0 0
1  -597.072815 755.983337 8.640250  1.828188 -0.000004 0.269772
time 200
0  0 0 0  0 0 0
1  -597.279663 756.668152 8.640250  1.828400 -0.000004 0.269293
time 201
0  0 0 0  0 0 0
1  -597.485962 757.350403 8.640250  1.828602 -0.000004 0.268832
time 202
0  0 0 0  0 0 0
1  -597.691589 758.029846 8.640250  1.828793 -0.000004 0.268389
time 203
0  0 0 0  0 0 0
1  -597.896301 758.706299 8.640250  1.828974 -0.000004 0.267965
time 204
0  0 0 0  0 0 0
1  -598.100220 759.379578 8.640250  1.829145 -0.000004 0.267559
time 205
0  0 0 0  0 0 0
1  -598.303284 760.049561 8.640250  1.829305 -0.000004 0.267172
time 206
0  0 0 0  0 0 0
1  -598.505371 760.715881 8.640250  1.829455 -0.000004 0.266805
time 207
0  0 0 0  0 0 0
1  -598.706421 761.378601 8.640250  1.829594 -0.000004 0.266459
time 208
0  0 0 0  0 0 0
1  -598.906494 762.037354 8.640250  1.829724 -0.000004 0.266133
time 209
0  0 0 0  0 0 0
1  -599.105286 762.692139 8.640250  1.829844 -0.000004 0.265828
time 210
0  0 0 0  0 0 0
1  -599.303101 763.342529 8.640250  1.829953 -0.000004 0.265545
time 211
0  0 0 0  0 0 0
1  -599.499634 763.988525 8.640250  1.830053 -0.000004 0.265285
time 212
0  0 0 0  0 0 0
1  -599.694885 764.629822 8.640250  1.830143 -0.000004 0.265046
time 213
0  0 0 0  0 0 0
1  -599.888855 765.266479 8.640250  1.830223 -0.000004 0.264831
time 214
0  0 0 0  0 0 0
1  -600.081360 765.898010 8.640250  1.830294 -0.000004 0.264640
time 215
0  0 0 0  0 0 0
1  -600.272522 766.524414 8.640250  1.830355 -0.000004 0.264472
time 216
0  0 0 0  0 0 0
1  -600.462097 767.145508 8.640250  1.830406 -0.000004 0.264329
time 217
0  0 0 0  0 0 0
1  -600.650208 767.761047 8.640250  1.830448 -0.000004 0.264211
time 218
0  0 0 0  0 0 0
1  -600.836731 768.371033 8.640250  1.830480 -0.000004 0.264118
time 219
0  0 0 0  0 0 0
1  -601.021606 768.975098 8.640250  1.830503 -0.000004 0.264051
time 220
0  0 0 0  0 0 0
1  -601.204834 769.573181 8.640250  1.830517 -0.000004 0.264011
time 221
0  0 0 0  0 0 0
1  -601.386292 770.165100 8.640250  1.830522 -0.000004 0.263997
time 222
0  0 0 0  0 0 0
1  -601.565857 770.750671 8.640250  1.830522 -0.000004 0.263997
time 223
0  0 0 0  0 0 0
1  -601.743774 771.329773 8.640250  1.830522 -0.000004 0.263997
time 224
0  0 0 0  0 0 0
1  -601.919617 771.902222 8.640250  1.830522 -0.000004 0.263997
time 225
0  0 0 0  0 0 0
1  -602.093628 772.467773 8.640250  1.830522 -0.000004 0.263997
time 226
0  0 0 0  0 0 0
1  -602.265564 773.026428 8.640250  1.830522 -0.000004 0.263997
time 227
0  0 0 0  0 0 0
1  -602.435425 773.577942 8.640250  1.830522 -0.000004 0.263997
time 228
0  0 0 0  0 0 0
1  -602.603271 774.122253 8.640250  1.830522 -0.000004 0.263997
time 229
0  0 0 0  0 0 0
1  -602.768921 774.659058 8.640250  1.830522 -0.000004 0.263997
time 230
0  0 0 0  0 0 0
1  -602.932434 775.188232 8.640250  1.830522 -0.000004 0.263997
time 231
0  0 0 0  0 0 0
1  -603.093628 775.709839 8.640250  1.830522 -0.000004 0.263997
time 232
0  0 0 0  0 0 0
1  -603.252563 776.223450 8.640250  1.830522 -0.000004 0.263997
time 233
0  0 0 0  0 0 0
1  -603.409119 776.729187 8.640250  1.830522 -0.000004 0.263997
time 234
0  0 0 0  0 0 0
1  -603.563293 777.226685 8.640250  1.830522 -0.000004 0.263997
time 235
0  0 0 0  0 0 0
1  -603.715027 777.715942 8.640250  1.830522 -0.000004 0.263997
time 236
0  0 0 0  0 0 0
1  -603.864258 778.196777 8.640250  1.830522 -0.000004 0.263997
time 237
0  0 0 0  0 0 0
1  -604.010986 778.669067 8.640250  1.830522 -0.000004 0.263997
time 238
0  0 0 0  0 0 0
1  -604.155212 779.132751 8.640250  1.830522 -0.000004 0.263997
time 239
0  0 0 0  0 0 0
1  -604.296631 779.587524 8.640250  1.830522 -0.000004 0.263997
time 240
0  0 0 0  0 0 0
1  -604.435547 780.033325 8.640250  1.830522 -0.000004 0.263997
time 241
0  0 0 0  0 0 0
1  -604.571655 780.470215 8.640250  1.830522 -0.000004 0.263997
time 242
0  0 0 0  0 0 0
1  -604.705017 780.897888 8.640250  1.830522 -0.000004 0.263997
time 243
0  0 0 0  0 0 0
1  -604.835510 781.316345 8.640250  1.830522 -0.000004 0.263997
time 244
0  0 0 0  0 0 0
1  -604.963196 781.725281 8.640250  1.830522 -0.000004 0.263997
time 245
0  0 0 0  0 0 0
1  -605.088013 782.124695 8.640250  1.830522 -0.000004 0.263997
time 246
0  0 0 0  0 0 0
1  -605.209778 782.514648 8.640250  1.830522 -0.000004 0.263997
time 247
0  0 0 0  0 0 0
1  -605.328674 782.894775 8.640250  1.830522 -0.000004 0.263997
time 248
0  0 0 0  0 0 0
1  -605.444458 783.264954 8.640250  1.830522 -0.000004 0.263997
time 249
0  0 0 0  0 0 0
1  -605.557129 783.625244 8.640250  1.830522 -0.000004 0.263997
time 250
0  0 0 0  0 0 0
1  -605.666809 783.975586 8.640250  1.830522 -0.000004 0.263997
time 251
0  0 0 0  0 0 0
1  -605.773254 784.315735 8.640250  1.830522 -0.000004 0.263997
time 252
0  0 0 0  0 0 0
1  -605.876465 784.645630 8.640250  1.830522 -0.000004 0.263997
time 253
0  0 0 0  0 0 0
1  -605.976501 784.965271 8.640250  1.830522 -0.000004 0.263997
time 254
0  0 0 0  0 0 0
1  -606.073242 785.274353 8.640250  1.830522 -0.000004 0.263997
time 255
0  0 0 0  0 0 0
1  -606.166565 785.572998 8.640250  1.830522 -0.000004 0.263997
time 256
0  0 0 0  0 0 0
1  -606.256653 785.861084 8.640250  1.830522 -0.000004 0.263997
time 257
0  0 0 0  0 0 0
1  -606.343201 786.138428 8.640250  1.830522 -0.000004 0.263997
time 258
0  0 0 0  0 0 0
1  -606.426392 786.405090 8.640250  1.830522 -0.000004 0.263997
end
