version 1
nodes
0 "cam" -1
end
skeleton
time 0
0  43.029945 -480.904175 234.687531  -0.802857 -3.141578 -0.489150
time 1
0  43.029945 -480.904175 234.687531  -0.802857 -3.141578 -0.489150
time 2
0  43.029945 -480.904175 234.687531  -0.802857 -3.141578 -0.489150
time 3
0  43.029945 -480.904175 234.687531  -0.802857 -3.141578 -0.489150
time 4
0  43.029945 -480.904175 234.687531  -0.802857 -3.141578 -0.489150
time 5
0  43.029945 -480.904175 234.687531  -0.802857 -3.141578 -0.489150
time 6
0  43.029945 -480.904175 234.687531  -0.802857 -3.141578 -0.489150
time 7
0  43.029945 -480.904175 234.687531  -0.802857 -3.141578 -0.489150
time 8
0  43.029945 -480.904175 234.687531  -0.802857 -3.141578 -0.489150
time 9
0  43.029945 -480.904175 234.687531  -0.802857 -3.141578 -0.489150
time 10
0  43.029945 -480.904175 234.687531  -0.802857 -3.141578 -0.489150
time 11
0  43.029945 -480.904175 234.687531  -0.802857 -3.141578 -0.489150
time 12
0  43.029945 -480.904175 234.687531  -0.802857 -3.141578 -0.489150
time 13
0  43.029945 -480.904175 234.687531  -0.802857 -3.141578 -0.489150
time 14
0  43.029945 -480.904175 234.687531  -0.802857 -3.141578 -0.489150
time 15
0  43.029945 -480.904175 234.687531  -0.802857 -3.141578 -0.489150
time 16
0  43.029945 -480.904175 234.687531  -0.802857 -3.141578 -0.489150
time 17
0  43.029945 -480.904175 234.687531  -0.802857 -3.141578 -0.489150
time 18
0  43.029945 -480.904175 234.687531  -0.802857 -3.141578 -0.489150
time 19
0  43.029945 -480.904175 234.687531  -0.802857 -3.141578 -0.489150
time 20
0  43.029945 -480.904175 234.687531  -0.802857 -3.141578 -0.489150
time 21
0  43.029945 -480.904175 234.687531  -0.802857 -3.141578 -0.489150
time 22
0  43.029945 -480.904175 234.687531  -0.802857 -3.141578 -0.489150
time 23
0  43.029945 -480.904175 234.687531  -0.802857 -3.141578 -0.489150
time 24
0  43.029945 -480.904175 234.687531  -0.802857 -3.141578 -0.489150
time 25
0  43.029945 -480.904175 234.687531  -0.802857 -3.141578 -0.489150
time 26
0  43.029945 -480.904175 234.687531  -0.802857 -3.141578 -0.489150
time 27
0  43.029945 -480.904175 234.687531  -0.802857 -3.141578 -0.489150
time 28
0  43.029945 -480.904175 234.687531  -0.802857 -3.141578 -0.489150
time 29
0  43.029945 -480.904175 234.687531  -0.802857 -3.141578 -0.489150
time 30
0  43.029945 -480.904175 234.687531  -0.802857 -3.141578 -0.489150
time 31
0  42.741806 -480.904175 234.687531  -0.802842 -3.141578 -0.488202
time 32
0  42.453667 -480.904175 234.687531  -0.802827 -3.141578 -0.487252
time 33
0  42.165524 -480.904175 234.687531  -0.802812 -3.141578 -0.486304
time 34
0  41.877384 -480.904175 234.687531  -0.802798 -3.141578 -0.485354
time 35
0  41.589245 -480.904175 234.687531  -0.802783 -3.141578 -0.484406
time 36
0  41.301105 -480.904175 234.687531  -0.802768 -3.141578 -0.483458
time 37
0  41.012966 -480.904175 234.687531  -0.802754 -3.141578 -0.482508
time 38
0  40.724827 -480.904175 234.687531  -0.802739 -3.141578 -0.481560
time 39
0  40.436684 -480.904175 234.687531  -0.802724 -3.141578 -0.480611
time 40
0  40.148544 -480.904175 234.687531  -0.802710 -3.141578 -0.479663
time 41
0  39.860405 -480.904175 234.687531  -0.802695 -3.141578 -0.478715
time 42
0  39.572266 -480.904175 234.687531  -0.802680 -3.141578 -0.477765
time 43
0  39.284126 -480.904175 234.687531  -0.802665 -3.141578 -0.476817
time 44
0  38.995987 -480.904175 234.687531  -0.802651 -3.141578 -0.475867
time 45
0  38.707844 -480.904175 234.687531  -0.802636 -3.141578 -0.474919
time 46
0  38.419704 -480.904175 234.687531  -0.802621 -3.141578 -0.473971
time 47
0  38.131565 -480.904175 234.687531  -0.802607 -3.141578 -0.473021
time 48
0  37.843426 -480.904175 234.687531  -0.802592 -3.141578 -0.472073
time 49
0  37.555283 -480.904175 234.687531  -0.802577 -3.141578 -0.471123
time 50
0  37.267143 -480.904175 234.687531  -0.802562 -3.141578 -0.470175
time 51
0  36.979004 -480.904175 234.687531  -0.802548 -3.141578 -0.469228
time 52
0  36.690865 -480.904175 234.687531  -0.802533 -3.141578 -0.468278
time 53
0  36.402725 -480.904175 234.687531  -0.802518 -3.141578 -0.467330
time 54
0  36.114586 -480.904175 234.687531  -0.802504 -3.141578 -0.466380
time 55
0  35.826447 -480.904175 234.687531  -0.802489 -3.141578 -0.465432
time 56
0  35.538303 -480.904175 234.687531  -0.802474 -3.141578 -0.464482
time 57
0  35.250164 -480.904175 234.687531  -0.802460 -3.141578 -0.463534
time 58
0  34.962025 -480.904175 234.687531  -0.802445 -3.141578 -0.462586
time 59
0  34.673885 -480.904175 234.687531  -0.802430 -3.141578 -0.461636
time 60
0  34.385742 -480.904175 234.687531  -0.802415 -3.141578 -0.460688
time 61
0  34.097603 -480.904175 234.687531  -0.802401 -3.141578 -0.459738
time 62
0  33.809464 -480.904175 234.687531  -0.802386 -3.141578 -0.458790
time 63
0  33.521324 -480.904175 234.687531  -0.802371 -3.141578 -0.457843
time 64
0  33.233185 -480.904175 234.687531  -0.802357 -3.141578 -0.456893
time 65
0  32.945045 -480.904175 234.687531  -0.802342 -3.141578 -0.455945
time 66
0  32.656902 -480.904175 234.687531  -0.802327 -3.141578 -0.454995
time 67
0  32.368763 -480.904175 234.687531  -0.802313 -3.141578 -0.454047
time 68
0  32.080624 -480.904175 234.687531  -0.802298 -3.141578 -0.453099
time 69
0  31.792484 -480.904175 234.687531  -0.802283 -3.141578 -0.452149
time 70
0  31.504343 -480.904175 234.687531  -0.802268 -3.141578 -0.451201
time 71
0  31.216204 -480.904175 234.687531  -0.802254 -3.141578 -0.450251
time 72
0  30.928062 -480.904175 234.687531  -0.802239 -3.141578 -0.449303
time 73
0  30.639923 -480.904175 234.687531  -0.802224 -3.141578 -0.448355
time 74
0  30.351784 -480.904175 234.687531  -0.802209 -3.141578 -0.447406
time 75
0  30.063644 -480.904175 234.687531  -0.802195 -3.141578 -0.446458
time 76
0  29.775503 -480.904175 234.687531  -0.802180 -3.141578 -0.445508
time 77
0  29.487362 -480.904175 234.687531  -0.802165 -3.141578 -0.444560
time 78
0  29.199223 -480.904175 234.687531  -0.802151 -3.141578 -0.443612
time 79
0  28.911083 -480.904175 234.687531  -0.802136 -3.141578 -0.442662
time 80
0  28.622944 -480.904175 234.687531  -0.802121 -3.141578 -0.441714
time 81
0  28.334803 -480.904175 234.687531  -0.802106 -3.141578 -0.440764
time 82
0  28.046663 -480.904175 234.687531  -0.802092 -3.141578 -0.439816
time 83
0  27.758522 -480.904175 234.687531  -0.802077 -3.141578 -0.438868
time 84
0  27.470383 -480.904175 234.687531  -0.802062 -3.141578 -0.437918
time 85
0  27.182243 -480.904175 234.687531  -0.802048 -3.141578 -0.436970
time 86
0  26.894104 -480.904175 234.687531  -0.802033 -3.141578 -0.436021
time 87
0  26.605963 -480.904175 234.687531  -0.802018 -3.141578 -0.435073
time 88
0  26.317823 -480.904175 234.687531  -0.802004 -3.141578 -0.434125
time 89
0  26.029682 -480.904175 234.687531  -0.801989 -3.141578 -0.433175
time 90
0  25.741543 -480.904175 234.687531  -0.801974 -3.141578 -0.432227
time 91
0  25.453403 -480.904175 234.687531  -0.801959 -3.141578 -0.431277
time 92
0  25.165262 -480.904175 234.687531  -0.801945 -3.141578 -0.430329
time 93
0  24.877123 -480.904175 234.687531  -0.801930 -3.141578 -0.429381
time 94
0  24.588984 -480.904175 234.687531  -0.801915 -3.141578 -0.428431
time 95
0  24.300842 -480.904175 234.687531  -0.801901 -3.141578 -0.427483
time 96
0  24.012703 -480.904175 234.687531  -0.801886 -3.141578 -0.426533
time 97
0  23.724562 -480.904175 234.687531  -0.801871 -3.141578 -0.425585
time 98
0  23.436422 -480.904175 234.687531  -0.801857 -3.141578 -0.424638
time 99
0  23.148283 -480.904175 234.687531  -0.801842 -3.141578 -0.423688
time 100
0  22.860142 -480.904175 234.687531  -0.801827 -3.141578 -0.422740
time 101
0  22.572002 -480.904175 234.687531  -0.801812 -3.141578 -0.421790
time 102
0  22.283861 -480.904175 234.687531  -0.801798 -3.141578 -0.420842
time 103
0  21.995724 -480.904175 234.687531  -0.801783 -3.141578 -0.419892
time 104
0  21.707582 -480.904175 234.687531  -0.801768 -3.141578 -0.418944
time 105
0  21.419441 -480.904175 234.687531  -0.801754 -3.141578 -0.417996
time 106
0  21.131302 -480.904175 234.687531  -0.801739 -3.141578 -0.417046
time 107
0  20.843161 -480.904175 234.687531  -0.801724 -3.141578 -0.416098
time 108
0  20.555023 -480.904175 234.687531  -0.801710 -3.141578 -0.415148
time 109
0  20.266882 -480.904175 234.687531  -0.801695 -3.141578 -0.414201
time 110
0  19.978741 -480.904175 234.687531  -0.801680 -3.141578 -0.413253
time 111
0  19.690601 -480.904175 234.687531  -0.801665 -3.141578 -0.412303
time 112
0  19.402462 -480.904175 234.687531  -0.801651 -3.141578 -0.411355
time 113
0  19.114323 -480.904175 234.687531  -0.801636 -3.141578 -0.410405
time 114
0  18.826181 -480.904175 234.687531  -0.801621 -3.141578 -0.409457
time 115
0  18.538042 -480.904175 234.687531  -0.801607 -3.141578 -0.408509
time 116
0  18.249903 -480.904175 234.687531  -0.801592 -3.141578 -0.407559
time 117
0  17.961761 -480.904175 234.687531  -0.801577 -3.141578 -0.406611
time 118
0  17.673622 -480.904175 234.687531  -0.801563 -3.141578 -0.405661
time 119
0  17.385481 -480.904175 234.687531  -0.801548 -3.141578 -0.404713
time 120
0  17.097342 -480.904175 234.687531  -0.801533 -3.141578 -0.403765
time 121
0  16.809202 -480.904175 234.687531  -0.801518 -3.141578 -0.402816
time 122
0  16.521061 -480.904175 234.687531  -0.801503 -3.141578 -0.401868
time 123
0  16.232922 -480.904175 234.687531  -0.801489 -3.141578 -0.400918
time 124
0  15.944780 -480.904175 234.687531  -0.801474 -3.141578 -0.399970
time 125
0  15.656643 -480.904175 234.687531  -0.801459 -3.141578 -0.399022
time 126
0  15.368502 -480.904175 234.687531  -0.801445 -3.141578 -0.398072
time 127
0  15.080360 -480.904175 234.687531  -0.801430 -3.141578 -0.397124
time 128
0  14.792221 -480.904175 234.687531  -0.801415 -3.141578 -0.396174
time 129
0  14.504080 -480.904175 234.687531  -0.801401 -3.141578 -0.395226
time 130
0  14.215942 -480.904175 234.687531  -0.801386 -3.141578 -0.394278
time 131
0  13.927801 -480.904175 234.687531  -0.801371 -3.141578 -0.393328
time 132
0  13.639660 -480.904175 234.687531  -0.801356 -3.141578 -0.392380
time 133
0  13.351521 -480.904175 234.687531  -0.801342 -3.141578 -0.391431
time 134
0  13.063381 -480.904175 234.687531  -0.801327 -3.141578 -0.390483
time 135
0  12.775242 -480.904175 234.687531  -0.801312 -3.141578 -0.389535
time 136
0  12.487101 -480.904175 234.687531  -0.801298 -3.141578 -0.388585
time 137
0  12.198959 -480.904175 234.687531  -0.801283 -3.141578 -0.387637
time 138
0  11.910822 -480.904175 234.687531  -0.801268 -3.141578 -0.386687
time 139
0  11.622681 -480.904175 234.687531  -0.801254 -3.141578 -0.385739
time 140
0  11.334541 -480.904175 234.687531  -0.801239 -3.141578 -0.384791
time 141
0  11.046400 -480.904175 234.687531  -0.801224 -3.141578 -0.383841
time 142
0  10.758263 -480.904175 234.687531  -0.801209 -3.141578 -0.382893
time 143
0  10.470119 -480.904175 234.687531  -0.801195 -3.141578 -0.381943
time 144
0  10.181980 -480.904175 234.687531  -0.801180 -3.141578 -0.380995
time 145
0  9.893841 -480.904175 234.687531  -0.801165 -3.141578 -0.380048
time 146
0  9.605701 -480.904175 234.687531  -0.801151 -3.141578 -0.379098
time 147
0  9.317562 -480.904175 234.687531  -0.801136 -3.141578 -0.378150
time 148
0  9.029419 -480.904175 234.687531  -0.801121 -3.141578 -0.377200
time 149
0  8.741283 -480.904175 234.687531  -0.801107 -3.141578 -0.376252
time 150
0  8.453140 -480.904175 234.687531  -0.801092 -3.141578 -0.375304
time 151
0  8.165001 -480.904175 234.687531  -0.801077 -3.141578 -0.374354
time 152
0  7.876862 -480.904175 234.687531  -0.801062 -3.141578 -0.373406
time 153
0  7.588718 -480.904175 234.687531  -0.801048 -3.141578 -0.372456
time 154
0  7.300579 -480.904175 234.687531  -0.801033 -3.141578 -0.371508
time 155
0  7.012440 -480.904175 234.687531  -0.801018 -3.141578 -0.370558
time 156
0  6.724300 -480.904175 234.687531  -0.801004 -3.141578 -0.369611
time 157
0  6.436157 -480.904175 234.687531  -0.800989 -3.141578 -0.368663
time 158
0  6.148022 -480.904175 234.687531  -0.800974 -3.141578 -0.367713
time 159
0  5.859882 -480.904175 234.687531  -0.800959 -3.141578 -0.366765
time 160
0  5.571739 -480.904175 234.687531  -0.800945 -3.141578 -0.365815
time 161
0  5.283600 -480.904175 234.687531  -0.800930 -3.141578 -0.364867
time 162
0  4.995461 -480.904175 234.687531  -0.800915 -3.141578 -0.363919
time 163
0  4.707321 -480.904175 234.687531  -0.800901 -3.141578 -0.362969
time 164
0  4.419178 -480.904175 234.687531  -0.800886 -3.141578 -0.362021
time 165
0  4.131039 -480.904175 234.687531  -0.800871 -3.141578 -0.361071
time 166
0  3.842899 -480.904175 234.687531  -0.800857 -3.141578 -0.360123
time 167
0  3.554760 -480.904175 234.687531  -0.800842 -3.141578 -0.359175
time 168
0  3.266621 -480.904175 234.687531  -0.800827 -3.141578 -0.358226
time 169
0  2.978481 -480.904175 234.687531  -0.800812 -3.141578 -0.357278
time 170
0  2.690338 -480.904175 234.687531  -0.800798 -3.141578 -0.356328
time 171
0  2.402199 -480.904175 234.687531  -0.800783 -3.141578 -0.355380
time 172
0  2.114059 -480.904175 234.687531  -0.800768 -3.141578 -0.354432
time 173
0  1.825920 -480.904175 234.687531  -0.800753 -3.141578 -0.353482
time 174
0  1.537777 -480.904175 234.687531  -0.800739 -3.141578 -0.352534
time 175
0  1.249638 -480.904175 234.687531  -0.800724 -3.141578 -0.351584
time 176
0  0.961502 -480.904175 234.687531  -0.800709 -3.141578 -0.350636
time 177
0  0.673359 -480.904175 234.687531  -0.800695 -3.141578 -0.349688
time 178
0  0.385220 -480.904175 234.687531  -0.800680 -3.141578 -0.348738
time 179
0  0.097080 -480.904175 234.687531  -0.800665 -3.141578 -0.347790
time 180
0  -0.191063 -480.904175 234.687531  -0.800651 -3.141578 -0.346841
time 181
0  -0.479202 -480.904175 234.687531  -0.800636 -3.141578 -0.345893
time 182
0  -0.767342 -480.904175 234.687531  -0.800621 -3.141578 -0.344945
time 183
0  -1.055481 -480.904175 234.687531  -0.800606 -3.141578 -0.343995
time 184
0  -1.343624 -480.904175 234.687531  -0.800592 -3.141578 -0.343047
time 185
0  -1.631760 -480.904175 234.687531  -0.800577 -3.141578 -0.342097
time 186
0  -1.919899 -480.904175 234.687531  -0.800562 -3.141578 -0.341149
time 187
0  -2.208042 -480.904175 234.687531  -0.800548 -3.141578 -0.340201
time 188
0  -2.496181 -480.904175 234.687531  -0.800533 -3.141578 -0.339251
time 189
0  -2.784321 -480.904175 234.687531  -0.800518 -3.141578 -0.338303
time 190
0  -3.072464 -480.904175 234.687531  -0.800504 -3.141578 -0.337353
time 191
0  -3.360603 -480.904175 234.687531  -0.800489 -3.141578 -0.336405
time 192
0  -3.648743 -480.904175 234.687531  -0.800474 -3.141578 -0.335458
time 193
0  -3.936878 -480.904175 234.687531  -0.800460 -3.141578 -0.334508
time 194
0  -4.225021 -480.904175 234.687531  -0.800445 -3.141578 -0.333560
time 195
0  -4.513161 -480.904175 234.687531  -0.800430 -3.141578 -0.332610
time 196
0  -4.801300 -480.904175 234.687531  -0.800415 -3.141578 -0.331662
time 197
0  -5.089443 -480.904175 234.687531  -0.800401 -3.141578 -0.330714
time 198
0  -5.377583 -480.904175 234.687531  -0.800386 -3.141578 -0.329764
time 199
0  -5.665722 -480.904175 234.687531  -0.800371 -3.141578 -0.328816
time 200
0  -5.953861 -480.904175 234.687531  -0.800357 -3.141578 -0.327866
time 201
0  -6.242004 -480.904175 234.687531  -0.800342 -3.141578 -0.326918
time 202
0  -6.530140 -480.904175 234.687531  -0.800327 -3.141578 -0.325968
time 203
0  -6.818279 -480.904175 234.687531  -0.800312 -3.141578 -0.325021
time 204
0  -7.106422 -480.904175 234.687531  -0.800298 -3.141578 -0.324073
time 205
0  -7.394562 -480.904175 234.687531  -0.800283 -3.141578 -0.323123
time 206
0  -7.682701 -480.904175 234.687531  -0.800268 -3.141578 -0.322175
time 207
0  -7.970844 -480.904175 234.687531  -0.800254 -3.141578 -0.321225
time 208
0  -8.258984 -480.904175 234.687531  -0.800239 -3.141578 -0.320277
time 209
0  -8.547123 -480.904175 234.687531  -0.800224 -3.141578 -0.319329
time 210
0  -8.835262 -480.904175 234.687531  -0.800209 -3.141578 -0.318379
time 211
0  -9.123402 -480.904175 234.687531  -0.800195 -3.141578 -0.317431
time 212
0  -9.411541 -480.904175 234.687531  -0.800180 -3.141578 -0.316481
time 213
0  -9.699680 -480.904175 234.687531  -0.800165 -3.141578 -0.315533
time 214
0  -9.987823 -480.904175 234.687531  -0.800151 -3.141578 -0.314585
time 215
0  -10.275963 -480.904175 234.687531  -0.800136 -3.141578 -0.313636
time 216
0  -10.564102 -480.904175 234.687531  -0.800121 -3.141578 -0.312688
time 217
0  -10.852245 -480.904175 234.687531  -0.800106 -3.141578 -0.311738
time 218
0  -11.140385 -480.904175 234.687531  -0.800092 -3.141578 -0.310790
time 219
0  -11.428524 -480.904175 234.687531  -0.800077 -3.141578 -0.309842
time 220
0  -11.716660 -480.904175 234.687531  -0.800062 -3.141578 -0.308892
time 221
0  -12.004803 -480.904175 234.687531  -0.800048 -3.141578 -0.307944
time 222
0  -12.292942 -480.904175 234.687531  -0.800033 -3.141578 -0.306994
time 223
0  -12.581081 -480.904175 234.687531  -0.800018 -3.141578 -0.306046
time 224
0  -12.869225 -480.904175 234.687531  -0.800003 -3.141578 -0.305098
time 225
0  -13.157364 -480.904175 234.687531  -0.799989 -3.141578 -0.304148
time 226
0  -13.445503 -480.904175 234.687531  -0.799974 -3.141578 -0.303200
time 227
0  -13.733643 -480.904175 234.687531  -0.799959 -3.141578 -0.302251
time 228
0  -14.021786 -480.904175 234.687531  -0.799945 -3.141578 -0.301303
time 229
0  -14.309921 -480.904175 234.687531  -0.799930 -3.141578 -0.300355
time 230
0  -14.598061 -480.904175 234.687531  -0.799915 -3.141578 -0.299405
time 231
0  -14.886204 -480.904175 234.687531  -0.799901 -3.141578 -0.298457
time 232
0  -15.174343 -480.904175 234.687531  -0.799886 -3.141578 -0.297507
time 233
0  -15.462482 -480.904175 234.687531  -0.799871 -3.141578 -0.296559
time 234
0  -15.750626 -480.904175 234.687531  -0.799857 -3.141578 -0.295611
time 235
0  -16.038765 -480.904175 234.687531  -0.799842 -3.141578 -0.294661
time 236
0  -16.326904 -480.904175 234.687531  -0.799827 -3.141578 -0.293713
time 237
0  -16.615040 -480.904175 234.687531  -0.799812 -3.141578 -0.292763
time 238
0  -16.903183 -480.904175 234.687531  -0.799798 -3.141578 -0.291815
time 239
0  -17.191322 -480.904175 234.687531  -0.799783 -3.141578 -0.290867
time 240
0  -17.479462 -480.904175 234.687531  -0.799768 -3.141578 -0.289918
time 241
0  -17.767605 -480.904175 234.687531  -0.799754 -3.141578 -0.288969
time 242
0  -18.055744 -480.904175 234.687531  -0.799739 -3.141578 -0.288021
time 243
0  -18.343884 -480.904175 234.687531  -0.799724 -3.141578 -0.287072
time 244
0  -18.632027 -480.904175 234.687531  -0.799709 -3.141578 -0.286123
time 245
0  -18.920166 -480.904175 234.687531  -0.799695 -3.141578 -0.285174
time 246
0  -19.208302 -480.904175 234.687531  -0.799680 -3.141578 -0.284225
time 247
0  -19.496441 -480.904175 234.687531  -0.799665 -3.141578 -0.283277
time 248
0  -19.784584 -480.904175 234.687531  -0.799651 -3.141578 -0.282328
time 249
0  -20.072723 -480.904175 234.687531  -0.799636 -3.141578 -0.281379
time 250
0  -20.360863 -480.904175 234.687531  -0.799621 -3.141578 -0.280430
time 251
0  -20.649006 -480.904175 234.687531  -0.799607 -3.141578 -0.279482
time 252
0  -20.937145 -480.904175 234.687531  -0.799592 -3.141578 -0.278534
time 253
0  -21.225281 -480.904175 234.687531  -0.799577 -3.141578 -0.277585
time 254
0  -21.513420 -480.904175 234.687531  -0.799562 -3.141578 -0.276636
time 255
0  -21.801567 -480.904175 234.687531  -0.799548 -3.141578 -0.275687
time 256
0  -22.089706 -480.904175 234.687531  -0.799533 -3.141578 -0.274738
time 257
0  -22.377846 -480.904175 234.687531  -0.799518 -3.141578 -0.273789
time 258
0  -22.665985 -480.904175 234.687531  -0.799503 -3.141578 -0.272841
time 259
0  -22.954124 -480.904175 234.687531  -0.799489 -3.141578 -0.271892
time 260
0  -23.242264 -480.904175 234.687531  -0.799474 -3.141578 -0.270943
time 261
0  -23.530403 -480.904175 234.687531  -0.799459 -3.141578 -0.269994
time 262
0  -23.818542 -480.904175 234.687531  -0.799445 -3.141578 -0.269046
time 263
0  -24.106682 -480.904175 234.687531  -0.799430 -3.141578 -0.268098
time 264
0  -24.394821 -480.904175 234.687531  -0.799415 -3.141578 -0.267149
time 265
0  -24.682968 -480.904175 234.687531  -0.799401 -3.141578 -0.266200
time 266
0  -24.971107 -480.904175 234.687531  -0.799386 -3.141578 -0.265251
time 267
0  -25.259247 -480.904175 234.687531  -0.799371 -3.141578 -0.264302
time 268
0  -25.547379 -480.904175 234.687531  -0.799356 -3.141578 -0.263354
time 269
0  -25.835526 -480.904175 234.687531  -0.799342 -3.141578 -0.262405
end
