version 1
nodes
0 "blender_implicit" -1
1 "cam" -1
end
skeleton
time 0
0  0 0 0  0 0 0
1  -709.920776 1279.973022 525.192383  1.745290 -0.000404 -0.664041
time 1
0  0 0 0  0 0 0
1  -709.920776 1279.973022 525.192383  1.745290 -0.000404 -0.664041
time 2
0  0 0 0  0 0 0
1  -709.920776 1279.973022 525.192383  1.745290 -0.000404 -0.664041
time 3
0  0 0 0  0 0 0
1  -709.920776 1279.973022 525.192383  1.745290 -0.000404 -0.664041
time 4
0  0 0 0  0 0 0
1  -709.920776 1279.973022 525.192383  1.745290 -0.000404 -0.664041
time 5
0  0 0 0  0 0 0
1  -709.920776 1279.973022 525.192383  1.745290 -0.000404 -0.664041
time 6
0  0 0 0  0 0 0
1  -709.920776 1279.973022 525.192383  1.745290 -0.000404 -0.664041
time 7
0  0 0 0  0 0 0
1  -709.920776 1279.973022 525.192383  1.745290 -0.000404 -0.664041
time 8
0  0 0 0  0 0 0
1  -709.920776 1279.973022 525.192383  1.745290 -0.000404 -0.664041
time 9
0  0 0 0  0 0 0
1  -709.920776 1279.973022 525.192383  1.745290 -0.000404 -0.664041
time 10
0  0 0 0  0 0 0
1  -709.920776 1279.973022 525.192383  1.745290 -0.000404 -0.664041
time 11
0  0 0 0  0 0 0
1  -709.920776 1279.973022 525.192383  1.745290 -0.000404 -0.664041
time 12
0  0 0 0  0 0 0
1  -709.920776 1279.973022 525.192383  1.745290 -0.000404 -0.664041
time 13
0  0 0 0  0 0 0
1  -709.920776 1279.973022 525.192383  1.745290 -0.000404 -0.664041
time 14
0  0 0 0  0 0 0
1  -709.920776 1279.973022 525.192383  1.745290 -0.000404 -0.664041
time 15
0  0 0 0  0 0 0
1  -709.920776 1279.973022 525.192383  1.745290 -0.000404 -0.664041
time 16
0  0 0 0  0 0 0
1  -709.920776 1279.973022 525.192383  1.745290 -0.000404 -0.664041
time 17
0  0 0 0  0 0 0
1  -709.920776 1279.973022 525.192383  1.745290 -0.000404 -0.664041
time 18
0  0 0 0  0 0 0
1  -709.920776 1279.973022 525.192383  1.745290 -0.000404 -0.664041
time 19
0  0 0 0  0 0 0
1  -709.920776 1279.973022 525.192383  1.745290 -0.000404 -0.664041
time 20
0  0 0 0  0 0 0
1  -709.920776 1279.973022 525.192383  1.745290 -0.000404 -0.664041
time 21
0  0 0 0  0 0 0
1  -709.920776 1279.973022 525.192383  1.745290 -0.000404 -0.664041
time 22
0  0 0 0  0 0 0
1  -709.920776 1279.973022 525.192383  1.745290 -0.000404 -0.664041
time 23
0  0 0 0  0 0 0
1  -709.920776 1279.973022 525.192383  1.745290 -0.000404 -0.664041
time 24
0  0 0 0  0 0 0
1  -709.920776 1279.973022 525.192383  1.745290 -0.000404 -0.664041
time 25
0  0 0 0  0 0 0
1  -709.920776 1279.973022 525.192383  1.745290 -0.000404 -0.664041
time 26
0  0 0 0  0 0 0
1  -709.920776 1279.973022 525.192383  1.745290 -0.000404 -0.664041
time 27
0  0 0 0  0 0 0
1  -709.920776 1279.973022 525.192383  1.745290 -0.000404 -0.664041
time 28
0  0 0 0  0 0 0
1  -709.920776 1279.973022 525.192383  1.745290 -0.000404 -0.664041
time 29
0  0 0 0  0 0 0
1  -709.920776 1279.973022 525.192383  1.745290 -0.000404 -0.664041
time 30
0  0 0 0  0 0 0
1  -709.920776 1279.973022 525.192383  1.745290 -0.000404 -0.664041
time 31
0  0 0 0  0 0 0
1  -709.920776 1279.973022 525.192383  1.745290 -0.000404 -0.664041
time 32
0  0 0 0  0 0 0
1  -709.920776 1279.973022 525.192383  1.745290 -0.000404 -0.664041
time 33
0  0 0 0  0 0 0
1  -709.920776 1279.973022 525.192383  1.745290 -0.000404 -0.664041
time 34
0  0 0 0  0 0 0
1  -709.920776 1279.973022 525.192383  1.745290 -0.000404 -0.664041
time 35
0  0 0 0  0 0 0
1  -709.920776 1279.973022 525.192383  1.745290 -0.000404 -0.664041
time 36
0  0 0 0  0 0 0
1  -709.920776 1279.973022 525.192383  1.745290 -0.000404 -0.664041
time 37
0  0 0 0  0 0 0
1  -709.920776 1279.973022 525.192383  1.745290 -0.000404 -0.664041
time 38
0  0 0 0  0 0 0
1  -709.920776 1279.973022 525.192383  1.745290 -0.000404 -0.664041
time 39
0  0 0 0  0 0 0
1  -709.920776 1279.973022 525.192383  1.745290 -0.000404 -0.664041
time 40
0  0 0 0  0 0 0
1  -709.920776 1279.973022 525.192383  1.745290 -0.000404 -0.664041
time 41
0  0 0 0  0 0 0
1  -709.920776 1279.973022 525.192383  1.745290 -0.000404 -0.664041
time 42
0  0 0 0  0 0 0
1  -709.920776 1279.973022 525.192383  1.745290 -0.000404 -0.664041
time 43
0  0 0 0  0 0 0
1  -709.920776 1279.973022 525.192383  1.745290 -0.000404 -0.664041
time 44
0  0 0 0  0 0 0
1  -709.920776 1279.973022 525.192383  1.745290 -0.000404 -0.664041
time 45
0  0 0 0  0 0 0
1  -709.920776 1279.973022 525.192383  1.745290 -0.000404 -0.664041
time 46
0  0 0 0  0 0 0
1  -709.920776 1279.973022 525.192383  1.745290 -0.000404 -0.664041
time 47
0  0 0 0  0 0 0
1  -709.920776 1279.973022 525.192383  1.745290 -0.000404 -0.664041
time 48
0  0 0 0  0 0 0
1  -709.920776 1279.973022 525.192383  1.745290 -0.000404 -0.664041
time 49
0  0 0 0  0 0 0
1  -709.920776 1279.973022 525.192383  1.745290 -0.000404 -0.664041
time 50
0  0 0 0  0 0 0
1  -709.920776 1279.973022 525.192383  1.745290 -0.000404 -0.664041
time 51
0  0 0 0  0 0 0
1  -709.920776 1279.973022 525.192383  1.745290 -0.000404 -0.664041
time 52
0  0 0 0  0 0 0
1  -709.920776 1279.973022 525.192383  1.745290 -0.000404 -0.664041
time 53
0  0 0 0  0 0 0
1  -709.920776 1279.973022 525.192383  1.745290 -0.000404 -0.664041
time 54
0  0 0 0  0 0 0
1  -709.920776 1279.973022 525.192383  1.745290 -0.000404 -0.664041
time 55
0  0 0 0  0 0 0
1  -709.920776 1279.973022 525.192383  1.745290 -0.000404 -0.664041
time 56
0  0 0 0  0 0 0
1  -709.920776 1279.973022 525.192383  1.745290 -0.000404 -0.664041
time 57
0  0 0 0  0 0 0
1  -709.920776 1279.973022 525.192383  1.745290 -0.000404 -0.664041
time 58
0  0 0 0  0 0 0
1  -709.920776 1279.973022 525.192383  1.745290 -0.000404 -0.664041
time 59
0  0 0 0  0 0 0
1  -709.920776 1279.973022 525.192383  1.745290 -0.000404 -0.664041
time 60
0  0 0 0  0 0 0
1  -709.920776 1279.973022 525.192383  1.745290 -0.000404 -0.664041
time 61
0  0 0 0  0 0 0
1  -709.920776 1279.973022 525.192383  1.745290 -0.000404 -0.664041
time 62
0  0 0 0  0 0 0
1  -709.920776 1279.973022 525.192383  1.745290 -0.000404 -0.664041
time 63
0  0 0 0  0 0 0
1  -709.920776 1279.973022 525.192383  1.745290 -0.000404 -0.664041
time 64
0  0 0 0  0 0 0
1  -709.920776 1279.973022 525.192383  1.745290 -0.000404 -0.664041
time 65
0  0 0 0  0 0 0
1  -709.920776 1279.973022 525.192383  1.745290 -0.000404 -0.664041
time 66
0  0 0 0  0 0 0
1  -709.920776 1279.973022 525.192383  1.745290 -0.000404 -0.664041
time 67
0  0 0 0  0 0 0
1  -709.920776 1279.973022 525.192383  1.745290 -0.000404 -0.664041
time 68
0  0 0 0  0 0 0
1  -709.920776 1279.973022 525.192383  1.745290 -0.000404 -0.664041
time 69
0  0 0 0  0 0 0
1  -709.920776 1279.973022 525.192383  1.745290 -0.000404 -0.664041
time 70
0  0 0 0  0 0 0
1  -709.920776 1279.973022 525.192383  1.745290 -0.000404 -0.664041
time 71
0  0 0 0  0 0 0
1  -709.920776 1279.973022 525.192383  1.745290 -0.000404 -0.664041
time 72
0  0 0 0  0 0 0
1  -709.920776 1279.973022 525.192383  1.745290 -0.000404 -0.664041
time 73
0  0 0 0  0 0 0
1  -709.920776 1279.973022 525.192383  1.745290 -0.000404 -0.664041
time 74
0  0 0 0  0 0 0
1  -709.920776 1279.973022 525.192383  1.745290 -0.000404 -0.664041
time 75
0  0 0 0  0 0 0
1  -709.920776 1279.973022 525.192383  1.745290 -0.000404 -0.664041
time 76
0  0 0 0  0 0 0
1  -709.920776 1279.973022 525.192383  1.745290 -0.000404 -0.664041
time 77
0  0 0 0  0 0 0
1  -709.920776 1279.973022 525.192383  1.745290 -0.000404 -0.664041
time 78
0  0 0 0  0 0 0
1  -709.920776 1279.973022 525.192383  1.745290 -0.000404 -0.664041
time 79
0  0 0 0  0 0 0
1  -709.920776 1279.973022 525.192383  1.745290 -0.000404 -0.664041
time 80
0  0 0 0  0 0 0
1  -709.920776 1279.973022 525.192383  1.745290 -0.000404 -0.664041
time 81
0  0 0 0  0 0 0
1  -709.920776 1279.973022 525.192383  1.745290 -0.000404 -0.664041
time 82
0  0 0 0  0 0 0
1  -709.920776 1279.973022 525.192383  1.745290 -0.000404 -0.664041
time 83
0  0 0 0  0 0 0
1  -709.920776 1279.973022 525.192383  1.745290 -0.000404 -0.664041
time 84
0  0 0 0  0 0 0
1  -709.920776 1279.973022 525.192383  1.745290 -0.000404 -0.664041
time 85
0  0 0 0  0 0 0
1  -709.920776 1279.973022 525.192383  1.745290 -0.000404 -0.664041
time 86
0  0 0 0  0 0 0
1  -709.920776 1279.973022 525.192383  1.745290 -0.000404 -0.664041
time 87
0  0 0 0  0 0 0
1  -709.920776 1279.973022 525.192383  1.745290 -0.000404 -0.664041
time 88
0  0 0 0  0 0 0
1  -709.920776 1279.973022 525.192383  1.745290 -0.000404 -0.664041
time 89
0  0 0 0  0 0 0
1  -709.920776 1279.973022 525.192383  1.745290 -0.000404 -0.664041
time 90
0  0 0 0  0 0 0
1  -709.920776 1279.973022 525.192383  1.745290 -0.000404 -0.664041
time 91
0  0 0 0  0 0 0
1  -709.920776 1279.973022 525.192383  1.745290 -0.000404 -0.664041
time 92
0  0 0 0  0 0 0
1  -709.920776 1279.973022 525.192383  1.745290 -0.000404 -0.664041
time 93
0  0 0 0  0 0 0
1  -709.920776 1279.973022 525.192383  1.745290 -0.000404 -0.664041
time 94
0  0 0 0  0 0 0
1  -709.920776 1279.973022 525.192383  1.745290 -0.000404 -0.664041
time 95
0  0 0 0  0 0 0
1  -709.920776 1279.973022 525.192383  1.745290 -0.000404 -0.664041
time 96
0  0 0 0  0 0 0
1  -709.920776 1279.973022 525.192383  1.745290 -0.000404 -0.664041
time 97
0  0 0 0  0 0 0
1  -709.920776 1279.973022 525.192383  1.745290 -0.000404 -0.664041
time 98
0  0 0 0  0 0 0
1  -709.920776 1279.973022 525.192383  1.745290 -0.000404 -0.664041
time 99
0  0 0 0  0 0 0
1  -709.920776 1279.973022 525.192383  1.745290 -0.000404 -0.664041
time 100
0  0 0 0  0 0 0
1  -709.920776 1279.973022 525.192383  1.745290 -0.000404 -0.664041
time 101
0  0 0 0  0 0 0
1  -709.920776 1279.973022 525.192383  1.745290 -0.000404 -0.664041
time 102
0  0 0 0  0 0 0
1  -709.920776 1279.973022 525.192383  1.745290 -0.000404 -0.664041
time 103
0  0 0 0  0 0 0
1  -709.920776 1279.973022 525.192383  1.745290 -0.000404 -0.664041
time 104
0  0 0 0  0 0 0
1  -709.920776 1279.973022 525.192383  1.745290 -0.000404 -0.664041
time 105
0  0 0 0  0 0 0
1  -709.920776 1279.973022 525.192383  1.745290 -0.000404 -0.664041
time 106
0  0 0 0  0 0 0
1  -709.920776 1279.973022 525.192383  1.745290 -0.000404 -0.664041
time 107
0  0 0 0  0 0 0
1  -709.920776 1279.973022 525.192383  1.745290 -0.000404 -0.664041
time 108
0  0 0 0  0 0 0
1  -709.920776 1279.973022 525.192383  1.745290 -0.000404 -0.664041
time 109
0  0 0 0  0 0 0
1  -709.920776 1279.973022 525.192383  1.745290 -0.000404 -0.664041
time 110
0  0 0 0  0 0 0
1  -709.920776 1279.973022 525.192383  1.745290 -0.000404 -0.664041
time 111
0  0 0 0  0 0 0
1  -709.920776 1279.973022 525.192383  1.745290 -0.000404 -0.664041
time 112
0  0 0 0  0 0 0
1  -709.920776 1279.973022 525.192383  1.745290 -0.000404 -0.664041
time 113
0  0 0 0  0 0 0
1  -709.920776 1279.973022 525.192383  1.745290 -0.000404 -0.664041
time 114
0  0 0 0  0 0 0
1  -709.920776 1279.973022 525.192383  1.745290 -0.000404 -0.664041
time 115
0  0 0 0  0 0 0
1  -709.920776 1279.973022 525.192383  1.745290 -0.000404 -0.664041
time 116
0  0 0 0  0 0 0
1  -709.920776 1279.973022 525.192383  1.745290 -0.000404 -0.664041
time 117
0  0 0 0  0 0 0
1  -709.920776 1279.973022 525.192383  1.745290 -0.000404 -0.664041
time 118
0  0 0 0  0 0 0
1  -709.920776 1279.973022 525.192383  1.745290 -0.000404 -0.664041
time 119
0  0 0 0  0 0 0
1  -709.920776 1279.973022 525.192383  1.745290 -0.000404 -0.664041
time 120
0  0 0 0  0 0 0
1  -709.920776 1279.973022 525.192383  1.745290 -0.000404 -0.664041
time 121
0  0 0 0  0 0 0
1  -709.920776 1279.973022 525.192383  1.745290 -0.000404 -0.664041
time 122
0  0 0 0  0 0 0
1  -709.920776 1279.973022 525.192383  1.745290 -0.000404 -0.664041
time 123
0  0 0 0  0 0 0
1  -709.920776 1279.973022 525.192383  1.745290 -0.000404 -0.664041
time 124
0  0 0 0  0 0 0
1  -709.920776 1279.973022 525.192383  1.745290 -0.000404 -0.664041
time 125
0  0 0 0  0 0 0
1  -709.920776 1279.973022 525.192383  1.745290 -0.000404 -0.664041
time 126
0  0 0 0  0 0 0
1  -709.920776 1279.973022 525.192383  1.745290 -0.000404 -0.664041
time 127
0  0 0 0  0 0 0
1  -709.920776 1279.973022 525.192383  1.745290 -0.000404 -0.664041
time 128
0  0 0 0  0 0 0
1  -709.920776 1279.973022 525.192383  1.745290 -0.000404 -0.664041
time 129
0  0 0 0  0 0 0
1  -709.920776 1279.973022 525.192383  1.745290 -0.000404 -0.664041
time 130
0  0 0 0  0 0 0
1  -709.920776 1279.973022 525.192383  1.745290 -0.000404 -0.664041
time 131
0  0 0 0  0 0 0
1  -709.920776 1279.973022 525.192383  1.745290 -0.000404 -0.664041
time 132
0  0 0 0  0 0 0
1  -709.920776 1279.973022 525.192383  1.745290 -0.000404 -0.664041
time 133
0  0 0 0  0 0 0
1  -709.920776 1279.973022 525.192383  1.745290 -0.000404 -0.664041
time 134
0  0 0 0  0 0 0
1  -709.920776 1279.973022 525.192383  1.745290 -0.000404 -0.664041
time 135
0  0 0 0  0 0 0
1  -709.920776 1279.973022 525.192383  1.745290 -0.000404 -0.664041
time 136
0  0 0 0  0 0 0
1  -709.920776 1279.973022 525.192383  1.745290 -0.000404 -0.664041
time 137
0  0 0 0  0 0 0
1  -709.920776 1279.973022 525.192383  1.745290 -0.000404 -0.664041
time 138
0  0 0 0  0 0 0
1  -709.920776 1279.973022 525.192383  1.745290 -0.000404 -0.664041
time 139
0  0 0 0  0 0 0
1  -709.920776 1279.973022 525.192383  1.745290 -0.000404 -0.664041
time 140
0  0 0 0  0 0 0
1  -709.920776 1279.973022 525.192383  1.745290 -0.000404 -0.664041
time 141
0  0 0 0  0 0 0
1  -709.920776 1279.973022 525.192383  1.745290 -0.000404 -0.664041
time 142
0  0 0 0  0 0 0
1  -709.920776 1279.973022 525.192383  1.745290 -0.000404 -0.664041
time 143
0  0 0 0  0 0 0
1  -709.920776 1279.973022 525.192383  1.745290 -0.000404 -0.664041
time 144
0  0 0 0  0 0 0
1  -709.920776 1279.973022 525.192383  1.745290 -0.000404 -0.664041
time 145
0  0 0 0  0 0 0
1  -709.920776 1279.973022 525.192383  1.745290 -0.000404 -0.664041
time 146
0  0 0 0  0 0 0
1  -709.920776 1279.973022 525.192383  1.745290 -0.000404 -0.664041
time 147
0  0 0 0  0 0 0
1  -709.920776 1279.973022 525.192383  1.745290 -0.000404 -0.664041
time 148
0  0 0 0  0 0 0
1  -709.920776 1279.973022 525.192383  1.745290 -0.000404 -0.664041
time 149
0  0 0 0  0 0 0
1  -709.920776 1279.973022 525.192383  1.745290 -0.000404 -0.664041
time 150
0  0 0 0  0 0 0
1  -709.920776 1279.973022 525.192383  1.745290 -0.000404 -0.664041
time 151
0  0 0 0  0 0 0
1  -709.920776 1279.973022 525.192383  1.745290 -0.000404 -0.664041
time 152
0  0 0 0  0 0 0
1  -709.920776 1279.973022 525.192383  1.745290 -0.000404 -0.664041
time 153
0  0 0 0  0 0 0
1  -709.920776 1279.973022 525.192383  1.745290 -0.000404 -0.664041
time 154
0  0 0 0  0 0 0
1  -709.920776 1279.973022 525.192383  1.745290 -0.000404 -0.664041
time 155
0  0 0 0  0 0 0
1  -709.920776 1279.973022 525.192383  1.745290 -0.000404 -0.664041
time 156
0  0 0 0  0 0 0
1  -709.920776 1279.973022 525.192383  1.745290 -0.000404 -0.664041
time 157
0  0 0 0  0 0 0
1  -709.919861 1279.972900 525.192383  1.745290 -0.000404 -0.664024
time 158
0  0 0 0  0 0 0
1  -709.917297 1279.971924 525.192383  1.745290 -0.000404 -0.663976
time 159
0  0 0 0  0 0 0
1  -709.913147 1279.970581 525.192505  1.745290 -0.000404 -0.663895
time 160
0  0 0 0  0 0 0
1  -709.907227 1279.968750 525.192627  1.745290 -0.000404 -0.663784
time 161
0  0 0 0  0 0 0
1  -709.899719 1279.966431 525.192810  1.745290 -0.000403 -0.663643
time 162
0  0 0 0  0 0 0
1  -709.890625 1279.963623 525.192993  1.745290 -0.000403 -0.663472
time 163
0  0 0 0  0 0 0
1  -709.879944 1279.960205 525.193237  1.745290 -0.000402 -0.663272
time 164
0  0 0 0  0 0 0
1  -709.867615 1279.956299 525.193542  1.745290 -0.000401 -0.663045
time 165
0  0 0 0  0 0 0
1  -709.853760 1279.951904 525.193848  1.745290 -0.000401 -0.662789
time 166
0  0 0 0  0 0 0
1  -709.838379 1279.946899 525.194214  1.745290 -0.000400 -0.662507
time 167
0  0 0 0  0 0 0
1  -709.821472 1279.941406 525.194580  1.745290 -0.000399 -0.662198
time 168
0  0 0 0  0 0 0
1  -709.803101 1279.935425 525.195007  1.745290 -0.000398 -0.661865
time 169
0  0 0 0  0 0 0
1  -709.783142 1279.928955 525.195496  1.745290 -0.000397 -0.661506
time 170
0  0 0 0  0 0 0
1  -709.761780 1279.922119 525.196045  1.745290 -0.000396 -0.661123
time 171
0  0 0 0  0 0 0
1  -709.738953 1279.914795 525.196594  1.745290 -0.000395 -0.660717
time 172
0  0 0 0  0 0 0
1  -709.714600 1279.906860 525.197144  1.745290 -0.000394 -0.660288
time 173
0  0 0 0  0 0 0
1  -709.688904 1279.898315 525.197754  1.745290 -0.000392 -0.659837
time 174
0  0 0 0  0 0 0
1  -709.661804 1279.889404 525.198425  1.745290 -0.000391 -0.659365
time 175
0  0 0 0  0 0 0
1  -709.633240 1279.880249 525.199036  1.745290 -0.000389 -0.658871
time 176
0  0 0 0  0 0 0
1  -709.603333 1279.870361 525.199707  1.745290 -0.000388 -0.658358
time 177
0  0 0 0  0 0 0
1  -709.572021 1279.860107 525.200439  1.745290 -0.000386 -0.657825
time 178
0  0 0 0  0 0 0
1  -709.539429 1279.849243 525.201233  1.745290 -0.000385 -0.657274
time 179
0  0 0 0  0 0 0
1  -709.505432 1279.838135 525.202026  1.745290 -0.000383 -0.656704
time 180
0  0 0 0  0 0 0
1  -709.470093 1279.826416 525.202942  1.745290 -0.000382 -0.656118
time 181
0  0 0 0  0 0 0
1  -709.433411 1279.814331 525.203796  1.745290 -0.000380 -0.655514
time 182
0  0 0 0  0 0 0
1  -709.395508 1279.801636 525.204712  1.745290 -0.000378 -0.654895
time 183
0  0 0 0  0 0 0
1  -709.356323 1279.788696 525.205627  1.745290 -0.000376 -0.654260
time 184
0  0 0 0  0 0 0
1  -709.315796 1279.775269 525.206543  1.745290 -0.000374 -0.653610
time 185
0  0 0 0  0 0 0
1  -709.274048 1279.761230 525.207581  1.745290 -0.000372 -0.652947
time 186
0  0 0 0  0 0 0
1  -709.231079 1279.746948 525.208618  1.745290 -0.000370 -0.652270
time 187
0  0 0 0  0 0 0
1  -709.186829 1279.732056 525.209656  1.745289 -0.000368 -0.651581
time 188
0  0 0 0  0 0 0
1  -709.141357 1279.716919 525.210815  1.745289 -0.000366 -0.650879
time 189
0  0 0 0  0 0 0
1  -709.094727 1279.701294 525.211975  1.745289 -0.000364 -0.650167
time 190
0  0 0 0  0 0 0
1  -709.046814 1279.685181 525.213135  1.745289 -0.000362 -0.649443
time 191
0  0 0 0  0 0 0
1  -708.997864 1279.668579 525.214233  1.745289 -0.000360 -0.648710
time 192
0  0 0 0  0 0 0
1  -708.947571 1279.651733 525.215454  1.745289 -0.000358 -0.647968
time 193
0  0 0 0  0 0 0
1  -708.896179 1279.634399 525.216675  1.745289 -0.000356 -0.647217
time 194
0  0 0 0  0 0 0
1  -708.843689 1279.616699 525.217957  1.745288 -0.000354 -0.646458
time 195
0  0 0 0  0 0 0
1  -708.789917 1279.598389 525.219360  1.745288 -0.000352 -0.645692
time 196
0  0 0 0  0 0 0
1  -708.735107 1279.579956 525.220703  1.745288 -0.000349 -0.644919
time 197
0  0 0 0  0 0 0
1  -708.679138 1279.560913 525.222046  1.745288 -0.000347 -0.644140
time 198
0  0 0 0  0 0 0
1  -708.622192 1279.541504 525.223389  1.745288 -0.000345 -0.643357
time 199
0  0 0 0  0 0 0
1  -708.564026 1279.521729 525.224792  1.745288 -0.000343 -0.642569
time 200
0  0 0 0  0 0 0
1  -708.504761 1279.501587 525.226257  1.745288 -0.000341 -0.641777
time 201
0  0 0 0  0 0 0
1  -708.444397 1279.481079 525.227783  1.745288 -0.000338 -0.640981
time 202
0  0 0 0  0 0 0
1  -708.383118 1279.459961 525.229309  1.745288 -0.000336 -0.640184
time 203
0  0 0 0  0 0 0
1  -708.320618 1279.438721 525.230835  1.745289 -0.000334 -0.639384
time 204
0  0 0 0  0 0 0
1  -708.257080 1279.416870 525.232422  1.745289 -0.000332 -0.638583
time 205
0  0 0 0  0 0 0
1  -708.192627 1279.394897 525.233948  1.745289 -0.000330 -0.637779
time 206
0  0 0 0  0 0 0
1  -708.127075 1279.372437 525.235535  1.745290 -0.000328 -0.636974
time 207
0  0 0 0  0 0 0
1  -708.060486 1279.349487 525.237183  1.745290 -0.000326 -0.636168
time 208
0  0 0 0  0 0 0
1  -707.992859 1279.326416 525.238953  1.745291 -0.000324 -0.635359
time 209
0  0 0 0  0 0 0
1  -707.924255 1279.302856 525.240601  1.745291 -0.000322 -0.634550
time 210
0  0 0 0  0 0 0
1  -707.854675 1279.278931 525.242371  1.745292 -0.000320 -0.633738
time 211
0  0 0 0  0 0 0
1  -707.784119 1279.254517 525.244080  1.745292 -0.000318 -0.632925
time 212
0  0 0 0  0 0 0
1  -707.712585 1279.229980 525.245789  1.745293 -0.000316 -0.632110
time 213
0  0 0 0  0 0 0
1  -707.640076 1279.204956 525.247620  1.745294 -0.000314 -0.631293
time 214
0  0 0 0  0 0 0
1  -707.566650 1279.179688 525.249451  1.745295 -0.000312 -0.630476
time 215
0  0 0 0  0 0 0
1  -707.492249 1279.154053 525.251282  1.745295 -0.000311 -0.629656
time 216
0  0 0 0  0 0 0
1  -707.416870 1279.128052 525.253235  1.745296 -0.000309 -0.628835
time 217
0  0 0 0  0 0 0
1  -707.340637 1279.101685 525.255127  1.745297 -0.000307 -0.628013
time 218
0  0 0 0  0 0 0
1  -707.263428 1279.074829 525.257019  1.745298 -0.000305 -0.627189
time 219
0  0 0 0  0 0 0
1  -707.185303 1279.047974 525.258972  1.745299 -0.000303 -0.626364
time 220
0  0 0 0  0 0 0
1  -707.106384 1279.020508 525.260864  1.745300 -0.000302 -0.625537
time 221
0  0 0 0  0 0 0
1  -707.026489 1278.992920 525.262878  1.745301 -0.000300 -0.624709
time 222
0  0 0 0  0 0 0
1  -706.945679 1278.964966 525.264893  1.745303 -0.000298 -0.623880
time 223
0  0 0 0  0 0 0
1  -706.863953 1278.936646 525.266907  1.745304 -0.000296 -0.623049
time 224
0  0 0 0  0 0 0
1  -706.781372 1278.907959 525.269043  1.745305 -0.000295 -0.622217
time 225
0  0 0 0  0 0 0
1  -706.697937 1278.879150 525.271118  1.745306 -0.000293 -0.621384
time 226
0  0 0 0  0 0 0
1  -706.613708 1278.849854 525.273254  1.745307 -0.000291 -0.620550
time 227
0  0 0 0  0 0 0
1  -706.528564 1278.820190 525.275391  1.745309 -0.000290 -0.619714
time 228
0  0 0 0  0 0 0
1  -706.442627 1278.790405 525.277527  1.745310 -0.000288 -0.618877
time 229
0  0 0 0  0 0 0
1  -706.355713 1278.760376 525.279602  1.745311 -0.000286 -0.618039
time 230
0  0 0 0  0 0 0
1  -706.268066 1278.729858 525.281799  1.745313 -0.000285 -0.617200
time 231
0  0 0 0  0 0 0
1  -706.179688 1278.699219 525.283997  1.745314 -0.000283 -0.616360
time 232
0  0 0 0  0 0 0
1  -706.090393 1278.668213 525.286255  1.745315 -0.000282 -0.615519
time 233
0  0 0 0  0 0 0
1  -706.000305 1278.636841 525.288513  1.745317 -0.000280 -0.614676
time 234
0  0 0 0  0 0 0
1  -705.909363 1278.605225 525.290833  1.745318 -0.000278 -0.613833
time 235
0  0 0 0  0 0 0
1  -705.817749 1278.573364 525.293152  1.745320 -0.000277 -0.612988
time 236
0  0 0 0  0 0 0
1  -705.725281 1278.541138 525.295471  1.745321 -0.000275 -0.612143
time 237
0  0 0 0  0 0 0
1  -705.632019 1278.508789 525.297791  1.745323 -0.000274 -0.611296
time 238
0  0 0 0  0 0 0
1  -705.538025 1278.476196 525.300110  1.745324 -0.000272 -0.610449
time 239
0  0 0 0  0 0 0
1  -705.443176 1278.443237 525.302429  1.745326 -0.000271 -0.609601
time 240
0  0 0 0  0 0 0
1  -705.347717 1278.409912 525.304810  1.745327 -0.000269 -0.608751
time 241
0  0 0 0  0 0 0
1  -705.251404 1278.376587 525.307251  1.745329 -0.000268 -0.607901
time 242
0  0 0 0  0 0 0
1  -705.154358 1278.342896 525.309692  1.745330 -0.000266 -0.607050
time 243
0  0 0 0  0 0 0
1  -705.056580 1278.308838 525.312134  1.745332 -0.000265 -0.606199
time 244
0  0 0 0  0 0 0
1  -704.958008 1278.274780 525.314636  1.745333 -0.000263 -0.605346
time 245
0  0 0 0  0 0 0
1  -704.858704 1278.240112 525.317139  1.745335 -0.000262 -0.604493
time 246
0  0 0 0  0 0 0
1  -704.758728 1278.205566 525.319641  1.745336 -0.000261 -0.603639
time 247
0  0 0 0  0 0 0
1  -704.658142 1278.170532 525.322144  1.745338 -0.000259 -0.602784
time 248
0  0 0 0  0 0 0
1  -704.556702 1278.135376 525.324646  1.745339 -0.000258 -0.601928
time 249
0  0 0 0  0 0 0
1  -704.454590 1278.100098 525.327148  1.745341 -0.000256 -0.601072
time 250
0  0 0 0  0 0 0
1  -704.351807 1278.064331 525.329712  1.745342 -0.000255 -0.600215
time 251
0  0 0 0  0 0 0
1  -704.248352 1278.028442 525.332275  1.745344 -0.000254 -0.599358
time 252
0  0 0 0  0 0 0
1  -704.144165 1277.992554 525.334900  1.745346 -0.000252 -0.598500
time 253
0  0 0 0  0 0 0
1  -704.039307 1277.956177 525.337524  1.745347 -0.000251 -0.597641
time 254
0  0 0 0  0 0 0
1  -703.933777 1277.919556 525.340210  1.745349 -0.000249 -0.596782
time 255
0  0 0 0  0 0 0
1  -703.827576 1277.882812 525.342834  1.745350 -0.000248 -0.595922
time 256
0  0 0 0  0 0 0
1  -703.720703 1277.845947 525.345520  1.745352 -0.000247 -0.595062
time 257
0  0 0 0  0 0 0
1  -703.613220 1277.808960 525.348145  1.745353 -0.000245 -0.594201
time 258
0  0 0 0  0 0 0
1  -703.504944 1277.771606 525.350830  1.745355 -0.000244 -0.593340
time 259
0  0 0 0  0 0 0
1  -703.396240 1277.734009 525.353577  1.745356 -0.000243 -0.592479
time 260
0  0 0 0  0 0 0
1  -703.286743 1277.696289 525.356201  1.745358 -0.000241 -0.591617
time 261
0  0 0 0  0 0 0
1  -703.176697 1277.658447 525.358948  1.745359 -0.000240 -0.590754
time 262
0  0 0 0  0 0 0
1  -703.065979 1277.620361 525.361694  1.745360 -0.000239 -0.589892
time 263
0  0 0 0  0 0 0
1  -702.954590 1277.582031 525.364441  1.745362 -0.000237 -0.589029
time 264
0  0 0 0  0 0 0
1  -702.842651 1277.543579 525.367188  1.745363 -0.000236 -0.588165
time 265
0  0 0 0  0 0 0
1  -702.730103 1277.504883 525.370056  1.745365 -0.000235 -0.587302
time 266
0  0 0 0  0 0 0
1  -702.616882 1277.466064 525.372864  1.745366 -0.000233 -0.586438
time 267
0  0 0 0  0 0 0
1  -702.503174 1277.426880 525.375671  1.745368 -0.000232 -0.585574
time 268
0  0 0 0  0 0 0
1  -702.388794 1277.387817 525.378479  1.745369 -0.000231 -0.584710
time 269
0  0 0 0  0 0 0
1  -702.273804 1277.348389 525.381287  1.745370 -0.000229 -0.583845
time 270
0  0 0 0  0 0 0
1  -702.158264 1277.309082 525.384155  1.745371 -0.000228 -0.582980
time 271
0  0 0 0  0 0 0
1  -702.042114 1277.269409 525.386963  1.745373 -0.000227 -0.582116
time 272
0  0 0 0  0 0 0
1  -701.925354 1277.229614 525.389832  1.745374 -0.000226 -0.581251
time 273
0  0 0 0  0 0 0
1  -701.808105 1277.189453 525.392700  1.745375 -0.000224 -0.580386
time 274
0  0 0 0  0 0 0
1  -701.690247 1277.149414 525.395569  1.745376 -0.000223 -0.579521
time 275
0  0 0 0  0 0 0
1  -701.571838 1277.109253 525.398499  1.745378 -0.000222 -0.578656
time 276
0  0 0 0  0 0 0
1  -701.452881 1277.068848 525.401367  1.745379 -0.000220 -0.577791
time 277
0  0 0 0  0 0 0
1  -701.333374 1277.028198 525.404358  1.745380 -0.000219 -0.576926
time 278
0  0 0 0  0 0 0
1  -701.213318 1276.987549 525.407288  1.745381 -0.000218 -0.576061
time 279
0  0 0 0  0 0 0
1  -701.092712 1276.946777 525.410217  1.745382 -0.000217 -0.575196
time 280
0  0 0 0  0 0 0
1  -700.971558 1276.905762 525.413147  1.745383 -0.000215 -0.574331
time 281
0  0 0 0  0 0 0
1  -700.849854 1276.864746 525.416138  1.745384 -0.000214 -0.573466
time 282
0  0 0 0  0 0 0
1  -700.727661 1276.823608 525.419006  1.745385 -0.000213 -0.572602
time 283
0  0 0 0  0 0 0
1  -700.604919 1276.782227 525.421997  1.745386 -0.000211 -0.571737
time 284
0  0 0 0  0 0 0
1  -700.481689 1276.740845 525.424988  1.745387 -0.000210 -0.570873
time 285
0  0 0 0  0 0 0
1  -700.357910 1276.699463 525.427979  1.745388 -0.000209 -0.570009
time 286
0  0 0 0  0 0 0
1  -700.233704 1276.657593 525.430969  1.745389 -0.000207 -0.569145
time 287
0  0 0 0  0 0 0
1  -700.108887 1276.615967 525.433960  1.745390 -0.000206 -0.568282
time 288
0  0 0 0  0 0 0
1  -699.983643 1276.574219 525.437073  1.745391 -0.000205 -0.567418
time 289
0  0 0 0  0 0 0
1  -699.857849 1276.532104 525.440063  1.745392 -0.000204 -0.566556
time 290
0  0 0 0  0 0 0
1  -699.731567 1276.490234 525.443115  1.745393 -0.000202 -0.565693
time 291
0  0 0 0  0 0 0
1  -699.604858 1276.447876 525.446106  1.745394 -0.000201 -0.564831
time 292
0  0 0 0  0 0 0
1  -699.477661 1276.405640 525.449158  1.745394 -0.000200 -0.563969
time 293
0  0 0 0  0 0 0
1  -699.349915 1276.363525 525.452209  1.745395 -0.000198 -0.563108
time 294
0  0 0 0  0 0 0
1  -699.221802 1276.321045 525.455200  1.745396 -0.000197 -0.562247
time 295
0  0 0 0  0 0 0
1  -699.093140 1276.278687 525.458252  1.745396 -0.000196 -0.561386
time 296
0  0 0 0  0 0 0
1  -698.964050 1276.236084 525.461304  1.745397 -0.000195 -0.560526
time 297
0  0 0 0  0 0 0
1  -698.834473 1276.193359 525.464417  1.745397 -0.000193 -0.559667
time 298
0  0 0 0  0 0 0
1  -698.704468 1276.150757 525.467468  1.745398 -0.000192 -0.558808
time 299
0  0 0 0  0 0 0
1  -698.573975 1276.107910 525.470581  1.745399 -0.000190 -0.557949
time 300
0  0 0 0  0 0 0
1  -698.443115 1276.065063 525.473694  1.745399 -0.000189 -0.557092
time 301
0  0 0 0  0 0 0
1  -698.311707 1276.022339 525.476746  1.745399 -0.000188 -0.556234
time 302
0  0 0 0  0 0 0
1  -698.179932 1275.979248 525.479858  1.745400 -0.000187 -0.555378
time 303
0  0 0 0  0 0 0
1  -698.047791 1275.936401 525.482971  1.745400 -0.000185 -0.554522
time 304
0  0 0 0  0 0 0
1  -697.915100 1275.893311 525.486023  1.745401 -0.000184 -0.553667
time 305
0  0 0 0  0 0 0
1  -697.782043 1275.850098 525.489075  1.745401 -0.000183 -0.552812
time 306
0  0 0 0  0 0 0
1  -697.648560 1275.807129 525.492188  1.745401 -0.000181 -0.551959
time 307
0  0 0 0  0 0 0
1  -697.514648 1275.764038 525.495300  1.745402 -0.000180 -0.551106
time 308
0  0 0 0  0 0 0
1  -697.380310 1275.720703 525.498413  1.745402 -0.000179 -0.550253
time 309
0  0 0 0  0 0 0
1  -697.245667 1275.677368 525.501526  1.745402 -0.000177 -0.549402
time 310
0  0 0 0  0 0 0
1  -697.110474 1275.634277 525.504639  1.745402 -0.000176 -0.548551
time 311
0  0 0 0  0 0 0
1  -696.974976 1275.590820 525.507812  1.745402 -0.000174 -0.547702
time 312
0  0 0 0  0 0 0
1  -696.839050 1275.547607 525.510925  1.745402 -0.000173 -0.546853
time 313
0  0 0 0  0 0 0
1  -696.702759 1275.504272 525.514038  1.745402 -0.000172 -0.546005
time 314
0  0 0 0  0 0 0
1  -696.566040 1275.460938 525.517151  1.745402 -0.000170 -0.545158
time 315
0  0 0 0  0 0 0
1  -696.428955 1275.417603 525.520325  1.745403 -0.000169 -0.544312
time 316
0  0 0 0  0 0 0
1  -696.291565 1275.374146 525.523376  1.745402 -0.000168 -0.543467
time 317
0  0 0 0  0 0 0
1  -696.153748 1275.330688 525.526489  1.745402 -0.000166 -0.542623
time 318
0  0 0 0  0 0 0
1  -696.015564 1275.287354 525.529602  1.745402 -0.000165 -0.541780
time 319
0  0 0 0  0 0 0
1  -695.877075 1275.244141 525.532715  1.745402 -0.000164 -0.540938
time 320
0  0 0 0  0 0 0
1  -695.738098 1275.200684 525.535828  1.745402 -0.000162 -0.540097
time 321
0  0 0 0  0 0 0
1  -695.598877 1275.157349 525.539001  1.745402 -0.000161 -0.539257
time 322
0  0 0 0  0 0 0
1  -695.459167 1275.114014 525.542175  1.745402 -0.000159 -0.538419
time 323
0  0 0 0  0 0 0
1  -695.319214 1275.070557 525.545288  1.745401 -0.000158 -0.537581
time 324
0  0 0 0  0 0 0
1  -695.178955 1275.027222 525.548401  1.745401 -0.000157 -0.536745
time 325
0  0 0 0  0 0 0
1  -695.038269 1274.983887 525.551514  1.745401 -0.000155 -0.535910
time 326
0  0 0 0  0 0 0
1  -694.897278 1274.940674 525.554626  1.745400 -0.000154 -0.535076
time 327
0  0 0 0  0 0 0
1  -694.755981 1274.897461 525.557678  1.745400 -0.000152 -0.534243
time 328
0  0 0 0  0 0 0
1  -694.614380 1274.854126 525.560791  1.745399 -0.000151 -0.533412
time 329
0  0 0 0  0 0 0
1  -694.472412 1274.810913 525.563843  1.745399 -0.000150 -0.532582
time 330
0  0 0 0  0 0 0
1  -694.330200 1274.767822 525.566956  1.745399 -0.000148 -0.531753
end
