version 1
nodes
0 "blender_implicit" -1
1 "cam" -1
end
skeleton
time 0
0  0 0 0  0 0 0
1  -328.635925 -433.077057 283.425507  1.820328 0.000002 -2.109748
time 1
0  0 0 0  0 0 0
1  -328.635925 -433.077057 283.425507  1.820328 0.000002 -2.109748
time 2
0  0 0 0  0 0 0
1  -328.559448 -433.044373 283.425507  1.820332 0.000002 -2.109757
time 3
0  0 0 0  0 0 0
1  -328.445618 -432.998932 283.425507  1.820343 0.000002 -2.109784
time 4
0  0 0 0  0 0 0
1  -328.302155 -432.943451 283.425507  1.820363 0.000002 -2.109831
time 5
0  0 0 0  0 0 0
1  -328.134644 -432.879791 283.425507  1.820390 0.000002 -2.109894
time 6
0  0 0 0  0 0 0
1  -327.946869 -432.809357 283.425507  1.820426 0.000002 -2.109975
time 7
0  0 0 0  0 0 0
1  -327.741943 -432.733246 283.425507  1.820470 0.000002 -2.110073
time 8
0  0 0 0  0 0 0
1  -327.522125 -432.652222 283.425507  1.820523 0.000002 -2.110187
time 9
0  0 0 0  0 0 0
1  -327.289337 -432.566895 283.425507  1.820585 0.000002 -2.110318
time 10
0  0 0 0  0 0 0
1  -327.045044 -432.477753 283.425507  1.820655 0.000002 -2.110463
time 11
0  0 0 0  0 0 0
1  -326.790497 -432.385193 283.425507  1.820735 0.000002 -2.110625
time 12
0  0 0 0  0 0 0
1  -326.526703 -432.289642 283.425507  1.820823 0.000002 -2.110801
time 13
0  0 0 0  0 0 0
1  -326.254639 -432.191376 283.425507  1.820922 0.000002 -2.110993
time 14
0  0 0 0  0 0 0
1  -325.974976 -432.090576 283.425507  1.821029 0.000002 -2.111198
time 15
0  0 0 0  0 0 0
1  -325.688354 -431.987427 283.425507  1.821147 0.000002 -2.111417
time 16
0  0 0 0  0 0 0
1  -325.395355 -431.882202 283.425507  1.821274 0.000002 -2.111651
time 17
0  0 0 0  0 0 0
1  -325.096527 -431.775055 283.425507  1.821412 0.000002 -2.111896
time 18
0  0 0 0  0 0 0
1  -324.792236 -431.666077 283.425507  1.821560 0.000002 -2.112155
time 19
0  0 0 0  0 0 0
1  -324.482880 -431.555420 283.425507  1.821718 0.000002 -2.112426
time 20
0  0 0 0  0 0 0
1  -324.168854 -431.443207 283.425507  1.821887 0.000002 -2.112709
time 21
0  0 0 0  0 0 0
1  -323.850403 -431.329529 283.425507  1.822067 0.000002 -2.113003
time 22
0  0 0 0  0 0 0
1  -323.527832 -431.214478 283.425507  1.822258 0.000002 -2.113308
time 23
0  0 0 0  0 0 0
1  -323.201416 -431.098114 283.425507  1.822459 0.000002 -2.113625
time 24
0  0 0 0  0 0 0
1  -322.871368 -430.980591 283.425507  1.822672 0.000002 -2.113951
time 25
0  0 0 0  0 0 0
1  -322.537903 -430.861847 283.425507  1.822897 0.000002 -2.114289
time 26
0  0 0 0  0 0 0
1  -322.201202 -430.741974 283.425507  1.823133 0.000002 -2.114634
time 27
0  0 0 0  0 0 0
1  -321.861420 -430.621094 283.425507  1.823381 0.000002 -2.114991
time 28
0  0 0 0  0 0 0
1  -321.518829 -430.499329 283.425507  1.823641 0.000002 -2.115355
time 29
0  0 0 0  0 0 0
1  -321.173370 -430.376495 283.425507  1.823913 0.000002 -2.115729
time 30
0  0 0 0  0 0 0
1  -320.825378 -430.252838 283.425507  1.824198 0.000002 -2.116110
time 31
0  0 0 0  0 0 0
1  -320.474945 -430.128296 283.425507  1.824495 0.000002 -2.116498
time 32
0  0 0 0  0 0 0
1  -320.122070 -430.002930 283.425507  1.824804 0.000002 -2.116894
time 33
0  0 0 0  0 0 0
1  -319.767029 -429.876801 283.425507  1.825127 0.000002 -2.117298
time 34
0  0 0 0  0 0 0
1  -319.409790 -429.749969 283.425507  1.825462 0.000002 -2.117709
time 35
0  0 0 0  0 0 0
1  -319.050507 -429.622375 283.425507  1.825810 0.000002 -2.118125
time 36
0  0 0 0  0 0 0
1  -318.689270 -429.494080 283.425507  1.826172 0.000002 -2.118546
time 37
0  0 0 0  0 0 0
1  -318.326141 -429.365173 283.425507  1.826547 0.000002 -2.118974
time 38
0  0 0 0  0 0 0
1  -317.961243 -429.235596 283.425507  1.826936 0.000002 -2.119406
time 39
0  0 0 0  0 0 0
1  -317.594635 -429.105438 283.425507  1.827339 0.000002 -2.119843
time 40
0  0 0 0  0 0 0
1  -317.226349 -428.974640 283.425507  1.827756 0.000002 -2.120285
time 41
0  0 0 0  0 0 0
1  -316.856506 -428.843323 283.425507  1.828187 0.000002 -2.120730
time 42
0  0 0 0  0 0 0
1  -316.485138 -428.711426 283.425507  1.828632 0.000002 -2.121179
time 43
0  0 0 0  0 0 0
1  -316.112335 -428.579010 283.425507  1.829092 0.000002 -2.121632
time 44
0  0 0 0  0 0 0
1  -315.738129 -428.446106 283.425507  1.829567 0.000002 -2.122087
time 45
0  0 0 0  0 0 0
1  -315.362549 -428.312683 283.425507  1.830056 0.000002 -2.122544
time 46
0  0 0 0  0 0 0
1  -314.985718 -428.178772 283.425507  1.830560 0.000002 -2.123004
time 47
0  0 0 0  0 0 0
1  -314.607605 -428.044403 283.425507  1.831080 0.000002 -2.123464
time 48
0  0 0 0  0 0 0
1  -314.228333 -427.909607 283.425507  1.831615 0.000002 -2.123927
time 49
0  0 0 0  0 0 0
1  -313.847839 -427.774384 283.425507  1.832165 0.000002 -2.124389
time 50
0  0 0 0  0 0 0
1  -313.466278 -427.638733 283.425507  1.832731 0.000002 -2.124852
time 51
0  0 0 0  0 0 0
1  -313.083649 -427.502625 283.425507  1.833313 0.000002 -2.125316
time 52
0  0 0 0  0 0 0
1  -312.699982 -427.366211 283.425507  1.833911 0.000002 -2.125779
time 53
0  0 0 0  0 0 0
1  -312.315308 -427.229370 283.425507  1.834526 0.000002 -2.126242
time 54
0  0 0 0  0 0 0
1  -311.929688 -427.092133 283.425507  1.835156 0.000002 -2.126703
time 55
0  0 0 0  0 0 0
1  -311.543121 -426.954559 283.425507  1.835803 0.000002 -2.127163
time 56
0  0 0 0  0 0 0
1  -311.155670 -426.816620 283.425507  1.836467 0.000002 -2.127622
time 57
0  0 0 0  0 0 0
1  -310.767365 -426.678375 283.425507  1.837148 0.000002 -2.128078
time 58
0  0 0 0  0 0 0
1  -310.378204 -426.539764 283.425507  1.837846 0.000002 -2.128532
time 59
0  0 0 0  0 0 0
1  -309.988251 -426.400757 283.425507  1.838561 0.000002 -2.128982
time 60
0  0 0 0  0 0 0
1  -309.597534 -426.261536 283.425507  1.839293 0.000002 -2.129430
time 61
0  0 0 0  0 0 0
1  -309.206055 -426.122009 283.425507  1.840043 0.000002 -2.129873
time 62
0  0 0 0  0 0 0
1  -308.813843 -425.982147 283.425507  1.840811 0.000002 -2.130313
time 63
0  0 0 0  0 0 0
1  -308.420929 -425.841949 283.425507  1.841596 0.000002 -2.130747
time 64
0  0 0 0  0 0 0
1  -308.027374 -425.701538 283.425507  1.842400 0.000002 -2.131177
time 65
0  0 0 0  0 0 0
1  -307.633148 -425.560852 283.425507  1.843221 0.000002 -2.131603
time 66
0  0 0 0  0 0 0
1  -307.238281 -425.419861 283.425507  1.844060 0.000002 -2.132025
time 67
0  0 0 0  0 0 0
1  -306.842804 -425.278625 283.425507  1.844915 0.000002 -2.132440
time 68
0  0 0 0  0 0 0
1  -306.446777 -425.137054 283.425507  1.845787 0.000002 -2.132853
time 69
0  0 0 0  0 0 0
1  -306.050140 -424.995331 283.425507  1.846675 0.000002 -2.133260
time 70
0  0 0 0  0 0 0
1  -305.652954 -424.853333 283.425507  1.847579 0.000002 -2.133666
time 71
0  0 0 0  0 0 0
1  -305.255280 -424.711090 283.425507  1.848498 0.000002 -2.134067
time 72
0  0 0 0  0 0 0
1  -304.857025 -424.568604 283.425507  1.849432 0.000002 -2.134463
time 73
0  0 0 0  0 0 0
1  -304.458344 -424.425842 283.425507  1.850380 0.000002 -2.134858
time 74
0  0 0 0  0 0 0
1  -304.059174 -424.282928 283.425507  1.851343 0.000002 -2.135247
time 75
0  0 0 0  0 0 0
1  -303.659546 -424.139740 283.425507  1.852320 0.000002 -2.135635
time 76
0  0 0 0  0 0 0
1  -303.259460 -423.996460 283.425507  1.853310 0.000002 -2.136018
time 77
0  0 0 0  0 0 0
1  -302.858978 -423.852814 283.425507  1.854312 0.000002 -2.136401
time 78
0  0 0 0  0 0 0
1  -302.458069 -423.709045 283.425507  1.855328 0.000002 -2.136780
time 79
0  0 0 0  0 0 0
1  -302.056763 -423.565063 283.425507  1.856355 0.000002 -2.137157
time 80
0  0 0 0  0 0 0
1  -301.655090 -423.420898 283.425507  1.857395 0.000002 -2.137533
time 81
0  0 0 0  0 0 0
1  -301.253052 -423.276520 283.425507  1.858446 0.000002 -2.137905
time 82
0  0 0 0  0 0 0
1  -300.850616 -423.131989 283.425507  1.859508 0.000002 -2.138276
time 83
0  0 0 0  0 0 0
1  -300.447906 -422.987213 283.425507  1.860580 0.000002 -2.138645
time 84
0  0 0 0  0 0 0
1  -300.044861 -422.842316 283.425507  1.861663 0.000002 -2.139012
time 85
0  0 0 0  0 0 0
1  -299.641479 -422.697205 283.425507  1.862756 0.000002 -2.139378
time 86
0  0 0 0  0 0 0
1  -299.237823 -422.551971 283.425507  1.863858 0.000002 -2.139743
time 87
0  0 0 0  0 0 0
1  -298.833893 -422.406586 283.425507  1.864969 0.000002 -2.140107
time 88
0  0 0 0  0 0 0
1  -298.429657 -422.260956 283.425507  1.866089 0.000002 -2.140469
time 89
0  0 0 0  0 0 0
1  -298.025177 -422.115234 283.425507  1.867217 0.000002 -2.140832
time 90
0  0 0 0  0 0 0
1  -297.620453 -421.969269 283.425507  1.868353 0.000002 -2.141192
time 91
0  0 0 0  0 0 0
1  -297.215485 -421.823212 283.425507  1.869497 0.000002 -2.141554
time 92
0  0 0 0  0 0 0
1  -296.810303 -421.676971 283.425507  1.870647 0.000002 -2.141914
time 93
0  0 0 0  0 0 0
1  -296.404846 -421.530579 283.425507  1.871805 0.000002 -2.142275
time 94
0  0 0 0  0 0 0
1  -295.999237 -421.384094 283.425507  1.872968 0.000002 -2.142636
time 95
0  0 0 0  0 0 0
1  -295.593414 -421.237457 283.425507  1.874138 0.000002 -2.142996
time 96
0  0 0 0  0 0 0
1  -295.187439 -421.090607 283.425507  1.875313 0.000002 -2.143358
time 97
0  0 0 0  0 0 0
1  -294.781219 -420.943695 283.425507  1.876494 0.000002 -2.143720
time 98
0  0 0 0  0 0 0
1  -294.374908 -420.796631 283.425507  1.877679 0.000002 -2.144084
time 99
0  0 0 0  0 0 0
1  -293.968414 -420.649384 283.425507  1.878869 0.000002 -2.144447
time 100
0  0 0 0  0 0 0
1  -293.561768 -420.502075 283.425507  1.880062 0.000002 -2.144811
time 101
0  0 0 0  0 0 0
1  -293.155029 -420.354645 283.425507  1.881259 0.000002 -2.145178
time 102
0  0 0 0  0 0 0
1  -292.748108 -420.207062 283.425507  1.882460 0.000002 -2.145545
time 103
0  0 0 0  0 0 0
1  -292.341125 -420.059357 283.425507  1.883663 0.000002 -2.145914
time 104
0  0 0 0  0 0 0
1  -291.933960 -419.911560 283.425507  1.884868 0.000002 -2.146284
time 105
0  0 0 0  0 0 0
1  -291.526733 -419.763611 283.425507  1.886076 0.000002 -2.146657
time 106
0  0 0 0  0 0 0
1  -291.119446 -419.615601 283.425507  1.887285 0.000002 -2.147031
time 107
0  0 0 0  0 0 0
1  -290.712036 -419.467438 283.425507  1.888496 0.000002 -2.147408
time 108
0  0 0 0  0 0 0
1  -290.304596 -419.319153 283.425507  1.889707 0.000002 -2.147788
time 109
0  0 0 0  0 0 0
1  -289.897064 -419.170776 283.425507  1.890919 0.000002 -2.148168
time 110
0  0 0 0  0 0 0
1  -289.489471 -419.022308 283.425507  1.892131 0.000002 -2.148554
time 111
0  0 0 0  0 0 0
1  -289.081848 -418.873749 283.425507  1.893343 0.000002 -2.148940
time 112
0  0 0 0  0 0 0
1  -288.674194 -418.725067 283.425507  1.894554 0.000002 -2.149331
time 113
0  0 0 0  0 0 0
1  -288.266449 -418.576294 283.425507  1.895764 0.000002 -2.149725
time 114
0  0 0 0  0 0 0
1  -287.858734 -418.427429 283.425507  1.896972 0.000002 -2.150122
time 115
0  0 0 0  0 0 0
1  -287.450989 -418.278412 283.425507  1.898178 0.000002 -2.150523
time 116
0  0 0 0  0 0 0
1  -287.043213 -418.129333 283.425507  1.899383 0.000002 -2.150927
time 117
0  0 0 0  0 0 0
1  -286.635468 -417.980255 283.425507  1.900584 0.000002 -2.151335
time 118
0  0 0 0  0 0 0
1  -286.227753 -417.830994 283.425507  1.901783 0.000002 -2.151747
time 119
0  0 0 0  0 0 0
1  -285.820007 -417.681641 283.425507  1.902978 0.000002 -2.152163
time 120
0  0 0 0  0 0 0
1  -285.412292 -417.532257 283.425507  1.904169 0.000002 -2.152585
time 121
0  0 0 0  0 0 0
1  -285.004608 -417.382721 283.425507  1.905356 0.000002 -2.153009
time 122
0  0 0 0  0 0 0
1  -284.596985 -417.233185 283.425507  1.906539 0.000002 -2.153439
time 123
0  0 0 0  0 0 0
1  -284.189392 -417.083496 283.425507  1.907716 0.000002 -2.153874
time 124
0  0 0 0  0 0 0
1  -283.781799 -416.933777 283.425507  1.908888 0.000002 -2.154315
time 125
0  0 0 0  0 0 0
1  -283.374298 -416.783966 283.425507  1.910054 0.000002 -2.154758
time 126
0  0 0 0  0 0 0
1  -282.966888 -416.634094 283.425507  1.911214 0.000002 -2.155209
time 127
0  0 0 0  0 0 0
1  -282.559540 -416.484131 283.425507  1.912368 0.000002 -2.155666
time 128
0  0 0 0  0 0 0
1  -282.152283 -416.334106 283.425507  1.913514 0.000002 -2.156127
time 129
0  0 0 0  0 0 0
1  -281.745087 -416.183990 283.425507  1.914654 0.000002 -2.156595
time 130
0  0 0 0  0 0 0
1  -281.338013 -416.033844 283.425507  1.915785 0.000002 -2.157068
time 131
0  0 0 0  0 0 0
1  -280.931000 -415.883575 283.425507  1.916909 0.000002 -2.157548
time 132
0  0 0 0  0 0 0
1  -280.524109 -415.733337 283.425507  1.918023 0.000002 -2.158034
time 133
0  0 0 0  0 0 0
1  -280.117340 -415.582947 283.425507  1.919129 0.000002 -2.158527
time 134
0  0 0 0  0 0 0
1  -279.710693 -415.432556 283.425507  1.920226 0.000002 -2.159027
time 135
0  0 0 0  0 0 0
1  -279.304138 -415.282043 283.425507  1.921313 0.000002 -2.159532
time 136
0  0 0 0  0 0 0
1  -278.897797 -415.131531 283.425507  1.922390 0.000002 -2.160045
time 137
0  0 0 0  0 0 0
1  -278.491516 -414.980927 283.425507  1.923456 0.000002 -2.160566
time 138
0  0 0 0  0 0 0
1  -278.085419 -414.830261 283.425507  1.924511 0.000002 -2.161093
time 139
0  0 0 0  0 0 0
1  -277.679443 -414.679565 283.425507  1.925556 0.000002 -2.161628
time 140
0  0 0 0  0 0 0
1  -277.273651 -414.528809 283.425507  1.926588 0.000002 -2.162171
time 141
0  0 0 0  0 0 0
1  -276.868042 -414.378021 283.425507  1.927609 0.000002 -2.162722
time 142
0  0 0 0  0 0 0
1  -276.462616 -414.227112 283.425507  1.928617 0.000002 -2.163280
time 143
0  0 0 0  0 0 0
1  -276.057312 -414.076233 283.425507  1.929612 0.000002 -2.163848
time 144
0  0 0 0  0 0 0
1  -275.652252 -413.925262 283.425507  1.930594 0.000002 -2.164423
time 145
0  0 0 0  0 0 0
1  -275.247345 -413.774261 283.425507  1.931563 0.000002 -2.165006
time 146
0  0 0 0  0 0 0
1  -274.842682 -413.623230 283.425507  1.932517 0.000002 -2.165598
time 147
0  0 0 0  0 0 0
1  -274.438202 -413.472168 283.425507  1.933457 0.000002 -2.166200
time 148
0  0 0 0  0 0 0
1  -274.033905 -413.321014 283.425507  1.934383 0.000002 -2.166810
time 149
0  0 0 0  0 0 0
1  -273.629913 -413.169861 283.425507  1.935293 0.000002 -2.167429
time 150
0  0 0 0  0 0 0
1  -273.226044 -413.018646 283.425507  1.936187 0.000002 -2.168058
time 151
0  0 0 0  0 0 0
1  -272.822479 -412.867401 283.425507  1.937066 0.000002 -2.168696
time 152
0  0 0 0  0 0 0
1  -272.419128 -412.716156 283.425507  1.937928 0.000002 -2.169344
time 153
0  0 0 0  0 0 0
1  -272.015991 -412.564789 283.425507  1.938774 0.000002 -2.170001
time 154
0  0 0 0  0 0 0
1  -271.613159 -412.413452 283.425507  1.939602 0.000002 -2.170668
time 155
0  0 0 0  0 0 0
1  -271.210571 -412.262054 283.425507  1.940413 0.000002 -2.171346
time 156
0  0 0 0  0 0 0
1  -270.808258 -412.110657 283.425507  1.941206 0.000002 -2.172035
time 157
0  0 0 0  0 0 0
1  -270.406219 -411.959229 283.425507  1.941981 0.000002 -2.172733
time 158
0  0 0 0  0 0 0
1  -270.004425 -411.807739 283.425507  1.942737 0.000002 -2.173442
time 159
0  0 0 0  0 0 0
1  -269.602966 -411.656342 283.425507  1.943474 0.000002 -2.174163
time 160
0  0 0 0  0 0 0
1  -269.201782 -411.504761 283.425507  1.944191 0.000002 -2.174893
time 161
0  0 0 0  0 0 0
1  -268.800903 -411.353210 283.425507  1.944889 0.000002 -2.175635
time 162
0  0 0 0  0 0 0
1  -268.400299 -411.201660 283.425507  1.945566 0.000002 -2.176389
time 163
0  0 0 0  0 0 0
1  -268.000061 -411.050049 283.425507  1.946223 0.000002 -2.177153
time 164
0  0 0 0  0 0 0
1  -267.600098 -410.898407 283.425507  1.946859 0.000002 -2.177930
time 165
0  0 0 0  0 0 0
1  -267.200470 -410.746765 283.425507  1.947473 0.000002 -2.178717
time 166
0  0 0 0  0 0 0
1  -266.801178 -410.595123 283.425507  1.948065 0.000002 -2.179518
time 167
0  0 0 0  0 0 0
1  -266.402252 -410.443451 283.425507  1.948636 0.000002 -2.180330
time 168
0  0 0 0  0 0 0
1  -266.003662 -410.291779 283.425507  1.949183 0.000002 -2.181155
time 169
0  0 0 0  0 0 0
1  -265.605377 -410.140076 283.425507  1.949708 0.000002 -2.181992
time 170
0  0 0 0  0 0 0
1  -265.207520 -409.988342 283.425507  1.950210 0.000002 -2.182840
time 171
0  0 0 0  0 0 0
1  -264.810028 -409.836670 283.425507  1.950691 0.000002 -2.183701
time 172
0  0 0 0  0 0 0
1  -264.412903 -409.684937 283.425507  1.951149 0.000002 -2.184571
time 173
0  0 0 0  0 0 0
1  -264.016174 -409.533203 283.425507  1.951587 0.000002 -2.185451
time 174
0  0 0 0  0 0 0
1  -263.619812 -409.381439 283.425507  1.952004 0.000002 -2.186341
time 175
0  0 0 0  0 0 0
1  -263.223846 -409.229675 283.425507  1.952400 0.000002 -2.187239
time 176
0  0 0 0  0 0 0
1  -262.828308 -409.077881 283.425507  1.952777 0.000002 -2.188145
time 177
0  0 0 0  0 0 0
1  -262.433197 -408.926147 283.425507  1.953135 0.000002 -2.189059
time 178
0  0 0 0  0 0 0
1  -262.038483 -408.774384 283.425507  1.953474 0.000002 -2.189979
time 179
0  0 0 0  0 0 0
1  -261.644165 -408.622589 283.425507  1.953794 0.000002 -2.190905
time 180
0  0 0 0  0 0 0
1  -261.250366 -408.470856 283.425507  1.954097 0.000002 -2.191837
time 181
0  0 0 0  0 0 0
1  -260.856964 -408.319092 283.425507  1.954383 0.000002 -2.192773
time 182
0  0 0 0  0 0 0
1  -260.463989 -408.167328 283.425507  1.954651 0.000002 -2.193714
time 183
0  0 0 0  0 0 0
1  -260.071533 -408.015503 283.425507  1.954903 0.000002 -2.194658
time 184
0  0 0 0  0 0 0
1  -259.679535 -407.863770 283.425507  1.955139 0.000002 -2.195606
time 185
0  0 0 0  0 0 0
1  -259.287964 -407.712036 283.425507  1.955360 0.000002 -2.196554
time 186
0  0 0 0  0 0 0
1  -258.896912 -407.560242 283.425507  1.955565 0.000002 -2.197506
time 187
0  0 0 0  0 0 0
1  -258.506378 -407.408508 283.425507  1.955756 0.000002 -2.198457
time 188
0  0 0 0  0 0 0
1  -258.116333 -407.256805 283.425507  1.955933 0.000002 -2.199409
time 189
0  0 0 0  0 0 0
1  -257.726776 -407.105103 283.425507  1.956096 0.000002 -2.200361
time 190
0  0 0 0  0 0 0
1  -257.337769 -406.953369 283.425507  1.956246 0.000002 -2.201312
time 191
0  0 0 0  0 0 0
1  -256.949249 -406.801697 283.425507  1.956383 0.000002 -2.202261
time 192
0  0 0 0  0 0 0
1  -256.561279 -406.650024 283.425507  1.956508 0.000002 -2.203207
time 193
0  0 0 0  0 0 0
1  -256.173859 -406.498383 283.425507  1.956622 0.000002 -2.204150
time 194
0  0 0 0  0 0 0
1  -255.787018 -406.346741 283.425507  1.956724 0.000002 -2.205091
time 195
0  0 0 0  0 0 0
1  -255.400711 -406.195129 283.425507  1.956815 0.000002 -2.206028
time 196
0  0 0 0  0 0 0
1  -255.014984 -406.043518 283.425507  1.956895 0.000002 -2.206958
time 197
0  0 0 0  0 0 0
1  -254.629852 -405.891937 283.425507  1.956966 0.000002 -2.207884
time 198
0  0 0 0  0 0 0
1  -254.245300 -405.740356 283.425507  1.957028 0.000002 -2.208804
time 199
0  0 0 0  0 0 0
1  -253.861328 -405.588867 283.425507  1.957080 0.000002 -2.209718
time 200
0  0 0 0  0 0 0
1  -253.477997 -405.437378 283.425507  1.957124 0.000002 -2.210624
time 201
0  0 0 0  0 0 0
1  -253.095291 -405.285919 283.425507  1.957160 0.000002 -2.211521
time 202
0  0 0 0  0 0 0
1  -252.713196 -405.134430 283.425507  1.957188 0.000002 -2.212409
time 203
0  0 0 0  0 0 0
1  -252.331787 -404.983032 283.425507  1.957209 0.000002 -2.213289
time 204
0  0 0 0  0 0 0
1  -251.950974 -404.831696 283.425507  1.957224 0.000002 -2.214158
time 205
0  0 0 0  0 0 0
1  -251.570847 -404.680359 283.425507  1.957232 0.000002 -2.215018
time 206
0  0 0 0  0 0 0
1  -251.191376 -404.529053 283.425507  1.957235 0.000002 -2.215866
time 207
0  0 0 0  0 0 0
1  -250.812622 -404.377747 283.425507  1.957235 0.000002 -2.216701
time 208
0  0 0 0  0 0 0
1  -250.434540 -404.226593 283.425507  1.957235 0.000002 -2.217525
time 209
0  0 0 0  0 0 0
1  -250.057175 -404.075439 283.425507  1.957235 0.000002 -2.218334
time 210
0  0 0 0  0 0 0
1  -249.680511 -403.924225 283.425507  1.957235 0.000002 -2.219130
time 211
0  0 0 0  0 0 0
1  -249.304611 -403.773163 283.425507  1.957235 0.000002 -2.219914
time 212
0  0 0 0  0 0 0
1  -248.929413 -403.622101 283.425507  1.957235 0.000002 -2.220681
time 213
0  0 0 0  0 0 0
1  -248.554993 -403.471130 283.425507  1.957235 0.000002 -2.221432
time 214
0  0 0 0  0 0 0
1  -248.181290 -403.320160 283.425507  1.957235 0.000002 -2.222167
time 215
0  0 0 0  0 0 0
1  -247.808411 -403.169312 283.425507  1.957235 0.000002 -2.222884
time 216
0  0 0 0  0 0 0
1  -247.436340 -403.018463 283.425507  1.957235 0.000002 -2.223585
time 217
0  0 0 0  0 0 0
1  -247.065018 -402.867645 283.425507  1.957235 0.000002 -2.224268
time 218
0  0 0 0  0 0 0
1  -246.694534 -402.716888 283.425507  1.957235 0.000002 -2.224930
time 219
0  0 0 0  0 0 0
1  -246.324890 -402.566254 283.425507  1.957235 0.000002 -2.225573
time 220
0  0 0 0  0 0 0
1  -245.956070 -402.415649 283.425507  1.957235 0.000002 -2.226197
time 221
0  0 0 0  0 0 0
1  -245.588104 -402.265076 283.425507  1.957235 0.000002 -2.226800
time 222
0  0 0 0  0 0 0
1  -245.221039 -402.114624 283.425507  1.957235 0.000002 -2.227381
time 223
0  0 0 0  0 0 0
1  -244.854828 -401.964233 283.425507  1.957235 0.000002 -2.227940
time 224
0  0 0 0  0 0 0
1  -244.489548 -401.813904 283.425507  1.957235 0.000002 -2.228476
time 225
0  0 0 0  0 0 0
1  -244.125183 -401.663635 283.425507  1.957235 0.000002 -2.228989
time 226
0  0 0 0  0 0 0
1  -243.761703 -401.513428 283.425507  1.957235 0.000002 -2.229478
time 227
0  0 0 0  0 0 0
1  -243.399185 -401.363312 283.425507  1.957235 0.000002 -2.229942
time 228
0  0 0 0  0 0 0
1  -243.037659 -401.213257 283.425507  1.957235 0.000002 -2.230381
time 229
0  0 0 0  0 0 0
1  -242.677094 -401.063354 283.425507  1.957235 0.000002 -2.230794
time 230
0  0 0 0  0 0 0
1  -242.317505 -400.913483 283.425507  1.957235 0.000002 -2.231181
time 231
0  0 0 0  0 0 0
1  -241.958954 -400.763702 283.425507  1.957235 0.000002 -2.231539
time 232
0  0 0 0  0 0 0
1  -241.601425 -400.614014 283.425507  1.957235 0.000002 -2.231870
time 233
0  0 0 0  0 0 0
1  -241.244934 -400.464447 283.425507  1.957235 0.000002 -2.232173
time 234
0  0 0 0  0 0 0
1  -240.889526 -400.314941 283.425507  1.957235 0.000002 -2.232447
time 235
0  0 0 0  0 0 0
1  -240.535156 -400.165497 283.425507  1.957235 0.000002 -2.232692
time 236
0  0 0 0  0 0 0
1  -240.181915 -400.016205 283.425507  1.957235 0.000002 -2.232904
time 237
0  0 0 0  0 0 0
1  -239.829834 -399.867035 283.425507  1.957235 0.000002 -2.233086
time 238
0  0 0 0  0 0 0
1  -239.478851 -399.717957 283.425507  1.957235 0.000002 -2.233237
time 239
0  0 0 0  0 0 0
1  -239.129013 -399.568970 283.425507  1.957235 0.000002 -2.233355
time 240
0  0 0 0  0 0 0
1  -238.780380 -399.420074 283.425507  1.957235 0.000002 -2.233441
time 241
0  0 0 0  0 0 0
1  -238.432983 -399.271301 283.425507  1.957235 0.000002 -2.233493
time 242
0  0 0 0  0 0 0
1  -238.086777 -399.122711 283.425507  1.957235 0.000002 -2.233510
time 243
0  0 0 0  0 0 0
1  -237.741806 -398.974152 283.425507  1.957235 0.000002 -2.233510
time 244
0  0 0 0  0 0 0
1  -237.398148 -398.825806 283.425507  1.957235 0.000002 -2.233510
time 245
0  0 0 0  0 0 0
1  -237.055725 -398.677551 283.425507  1.957235 0.000002 -2.233510
time 246
0  0 0 0  0 0 0
1  -236.714676 -398.529419 283.425507  1.957235 0.000002 -2.233510
time 247
0  0 0 0  0 0 0
1  -236.374954 -398.381409 283.425507  1.957235 0.000002 -2.233510
time 248
0  0 0 0  0 0 0
1  -236.036606 -398.233612 283.425507  1.957235 0.000002 -2.233510
time 249
0  0 0 0  0 0 0
1  -235.699646 -398.085938 283.425507  1.957235 0.000002 -2.233510
time 250
0  0 0 0  0 0 0
1  -235.364105 -397.938385 283.425507  1.957235 0.000002 -2.233510
time 251
0  0 0 0  0 0 0
1  -235.030029 -397.790955 283.425507  1.957235 0.000002 -2.233510
time 252
0  0 0 0  0 0 0
1  -234.697433 -397.643768 283.425507  1.957235 0.000002 -2.233510
time 253
0  0 0 0  0 0 0
1  -234.366348 -397.496643 283.425507  1.957235 0.000002 -2.233510
time 254
0  0 0 0  0 0 0
1  -234.036804 -397.349731 283.425507  1.957235 0.000002 -2.233510
time 255
0  0 0 0  0 0 0
1  -233.708817 -397.203003 283.425507  1.957235 0.000002 -2.233510
time 256
0  0 0 0  0 0 0
1  -233.382416 -397.056488 283.425507  1.957235 0.000002 -2.233510
time 257
0  0 0 0  0 0 0
1  -233.057693 -396.910095 283.425507  1.957235 0.000002 -2.233510
time 258
0  0 0 0  0 0 0
1  -232.734589 -396.763947 283.425507  1.957235 0.000002 -2.233510
time 259
0  0 0 0  0 0 0
1  -232.413239 -396.617950 283.425507  1.957235 0.000002 -2.233510
time 260
0  0 0 0  0 0 0
1  -232.093628 -396.472168 283.425507  1.957235 0.000002 -2.233510
time 261
0  0 0 0  0 0 0
1  -231.775757 -396.326599 283.425507  1.957235 0.000002 -2.233510
time 262
0  0 0 0  0 0 0
1  -231.459763 -396.181213 283.425507  1.957235 0.000002 -2.233510
time 263
0  0 0 0  0 0 0
1  -231.145569 -396.036102 283.425507  1.957235 0.000002 -2.233510
time 264
0  0 0 0  0 0 0
1  -230.833313 -395.891205 283.425507  1.957235 0.000002 -2.233510
time 265
0  0 0 0  0 0 0
1  -230.522964 -395.746521 283.425507  1.957235 0.000002 -2.233510
time 266
0  0 0 0  0 0 0
1  -230.214645 -395.602112 283.425507  1.957235 0.000002 -2.233510
time 267
0  0 0 0  0 0 0
1  -229.908295 -395.457947 283.425507  1.957235 0.000002 -2.233510
time 268
0  0 0 0  0 0 0
1  -229.604095 -395.313965 283.425507  1.957235 0.000002 -2.233510
time 269
0  0 0 0  0 0 0
1  -229.302002 -395.170349 283.425507  1.957235 0.000002 -2.233510
time 270
0  0 0 0  0 0 0
1  -229.002090 -395.026978 283.425507  1.957235 0.000002 -2.233510
time 271
0  0 0 0  0 0 0
1  -228.704407 -394.883881 283.425507  1.957235 0.000002 -2.233510
time 272
0  0 0 0  0 0 0
1  -228.408981 -394.741089 283.425507  1.957235 0.000002 -2.233510
time 273
0  0 0 0  0 0 0
1  -228.115936 -394.598633 283.425507  1.957235 0.000002 -2.233510
time 274
0  0 0 0  0 0 0
1  -227.825256 -394.456421 283.425507  1.957235 0.000002 -2.233510
time 275
0  0 0 0  0 0 0
1  -227.537064 -394.314606 283.425507  1.957235 0.000002 -2.233510
time 276
0  0 0 0  0 0 0
1  -227.251434 -394.173126 283.425507  1.957235 0.000002 -2.233510
time 277
0  0 0 0  0 0 0
1  -226.968353 -394.032013 283.425507  1.957235 0.000002 -2.233510
time 278
0  0 0 0  0 0 0
1  -226.687973 -393.891235 283.425507  1.957235 0.000002 -2.233510
time 279
0  0 0 0  0 0 0
1  -226.410339 -393.750824 283.425507  1.957235 0.000002 -2.233510
time 280
0  0 0 0  0 0 0
1  -226.135498 -393.610870 283.425507  1.957235 0.000002 -2.233510
time 281
0  0 0 0  0 0 0
1  -225.863602 -393.471344 283.425507  1.957235 0.000002 -2.233510
time 282
0  0 0 0  0 0 0
1  -225.594620 -393.332184 283.425507  1.957235 0.000002 -2.233510
time 283
0  0 0 0  0 0 0
1  -225.328735 -393.193481 283.425507  1.957235 0.000002 -2.233510
time 284
0  0 0 0  0 0 0
1  -225.065994 -393.055298 283.425507  1.957235 0.000002 -2.233510
time 285
0  0 0 0  0 0 0
1  -224.806503 -392.917572 283.425507  1.957235 0.000002 -2.233510
time 286
0  0 0 0  0 0 0
1  -224.550385 -392.780365 283.425507  1.957235 0.000002 -2.233510
time 287
0  0 0 0  0 0 0
1  -224.297714 -392.643707 283.425507  1.957235 0.000002 -2.233510
time 288
0  0 0 0  0 0 0
1  -224.048584 -392.507660 283.425507  1.957235 0.000002 -2.233510
time 289
0  0 0 0  0 0 0
1  -223.803192 -392.372101 283.425507  1.957235 0.000002 -2.233510
time 290
0  0 0 0  0 0 0
1  -223.561600 -392.237244 283.425507  1.957235 0.000002 -2.233510
time 291
0  0 0 0  0 0 0
1  -223.323914 -392.103058 283.425507  1.957235 0.000002 -2.233510
time 292
0  0 0 0  0 0 0
1  -223.090317 -391.969543 283.425507  1.957235 0.000002 -2.233510
time 293
0  0 0 0  0 0 0
1  -222.860901 -391.836700 283.425507  1.957235 0.000002 -2.233510
time 294
0  0 0 0  0 0 0
1  -222.635895 -391.704712 283.425507  1.957235 0.000002 -2.233510
time 295
0  0 0 0  0 0 0
1  -222.415451 -391.573425 283.425507  1.957235 0.000002 -2.233510
time 296
0  0 0 0  0 0 0
1  -222.199631 -391.443115 283.425507  1.957235 0.000002 -2.233510
time 297
0  0 0 0  0 0 0
1  -221.988770 -391.313660 283.425507  1.957235 0.000002 -2.233510
time 298
0  0 0 0  0 0 0
1  -221.782928 -391.185181 283.425507  1.957235 0.000002 -2.233510
time 299
0  0 0 0  0 0 0
1  -221.582413 -391.057831 283.425507  1.957235 0.000002 -2.233510
end
