version 1
nodes
0 "blender_implicit" -1
1 "Scene_Root" -1
2 "Root1" 1
3 "LR_Rot1" 2
4 "UD_Rot1" 3
end
skeleton
time 0
0  0 0 0  0 0 0
1  0.000000 0.000000 0.000000  1.570796 -0.000000 1.570796
2  0.000000 3.923015 1.984754  -0.000000 -0.000000 -0.000000
3  0.000009 7.601521 19.752451  0.000000 0.000000 -0.000003
4  9.009780 -25.800514 -0.324414  1.447938 -0.000006 -0.000051
end
triangles
  phy
0  7.189150 24.780891 3.856318  -0.548875 0.584601 0.597476  0.000000 0.000000 1 1 1.000000
0  7.189149 19.711508 3.856318  -0.641376 0.683225 -0.349057  0.000000 0.000000 1 1 1.000000
0  2.009361 24.780893 3.856319  -0.636499 -0.339116 0.692726  0.000000 0.000000 1 1 1.000000
  phy
0  2.009361 24.780893 3.856319  -0.636499 -0.339116 0.692726  0.000000 0.000000 1 1 1.000000
0  7.189149 19.711508 3.856318  -0.641376 0.683225 -0.349057  0.000000 0.000000 1 1 1.000000
0  2.009360 19.711510 3.856319  -0.312035 -0.664549 -0.678976  0.000000 0.000000 1 1 1.000000
  phy
0  2.009361 24.780893 3.856319  -0.636499 -0.339116 0.692726  0.000000 0.000000 1 1 1.000000
0  7.189152 24.780891 9.373819  0.312036 0.664540 0.678985  0.000000 0.000000 1 1 1.000000
0  7.189150 24.780891 3.856318  -0.548875 0.584601 0.597476  0.000000 0.000000 1 1 1.000000
  phy
0  2.009361 24.780893 3.856319  -0.636499 -0.339116 0.692726  0.000000 0.000000 1 1 1.000000
0  2.009363 24.780893 9.373820  0.641371 -0.683229 0.349057  0.000000 0.000000 1 1 1.000000
0  7.189152 24.780891 9.373819  0.312036 0.664540 0.678985  0.000000 0.000000 1 1 1.000000
  phy
0  7.189150 24.780891 3.856318  -0.548875 0.584601 0.597476  0.000000 0.000000 1 1 1.000000
0  7.189152 24.780891 9.373819  0.312036 0.664540 0.678985  0.000000 0.000000 1 1 1.000000
0  7.189149 19.711508 3.856318  -0.641376 0.683225 -0.349057  0.000000 0.000000 1 1 1.000000
  phy
0  7.189152 24.780891 9.373819  0.312036 0.664540 0.678985  0.000000 0.000000 1 1 1.000000
0  7.189151 19.711506 9.373819  0.636470 0.339007 -0.692806  0.000000 0.000000 1 1 1.000000
0  7.189149 19.711508 3.856318  -0.641376 0.683225 -0.349057  0.000000 0.000000 1 1 1.000000
  phy
0  2.009361 24.780893 3.856319  -0.636499 -0.339116 0.692726  0.000000 0.000000 1 1 1.000000
0  2.009360 19.711510 3.856319  -0.312035 -0.664549 -0.678976  0.000000 0.000000 1 1 1.000000
0  2.009363 24.780893 9.373820  0.641371 -0.683229 0.349057  0.000000 0.000000 1 1 1.000000
  phy
0  2.009363 24.780893 9.373820  0.641371 -0.683229 0.349057  0.000000 0.000000 1 1 1.000000
0  2.009360 19.711510 3.856319  -0.312035 -0.664549 -0.678976  0.000000 0.000000 1 1 1.000000
0  2.009362 19.711508 9.373820  0.548876 -0.584601 -0.597476  0.000000 0.000000 1 1 1.000000
  phy
0  2.009363 24.780893 9.373820  0.641371 -0.683229 0.349057  0.000000 0.000000 1 1 1.000000
0  7.189151 19.711506 9.373819  0.636470 0.339007 -0.692806  0.000000 0.000000 1 1 1.000000
0  7.189152 24.780891 9.373819  0.312036 0.664540 0.678985  0.000000 0.000000 1 1 1.000000
  phy
0  2.009363 24.780893 9.373820  0.641371 -0.683229 0.349057  0.000000 0.000000 1 1 1.000000
0  2.009362 19.711508 9.373820  0.548876 -0.584601 -0.597476  0.000000 0.000000 1 1 1.000000
0  7.189151 19.711506 9.373819  0.636470 0.339007 -0.692806  0.000000 0.000000 1 1 1.000000
  phy
0  2.009360 19.711510 3.856319  -0.312035 -0.664549 -0.678976  0.000000 0.000000 1 1 1.000000
0  7.189149 19.711508 3.856318  -0.641376 0.683225 -0.349057  0.000000 0.000000 1 1 1.000000
0  7.189151 19.711506 9.373819  0.636470 0.339007 -0.692806  0.000000 0.000000 1 1 1.000000
  phy
0  2.009362 19.711508 9.373820  0.548876 -0.584601 -0.597476  0.000000 0.000000 1 1 1.000000
0  2.009360 19.711510 3.856319  -0.312035 -0.664549 -0.678976  0.000000 0.000000 1 1 1.000000
0  7.189151 19.711506 9.373819  0.636470 0.339007 -0.692806  0.000000 0.000000 1 1 1.000000
  phy
0  -18.126169 11.085378 -3.997879  -0.652782 -0.204649 -0.729379  0.000000 0.000000 1 1 1.000000
0  -10.094762 11.085379 -3.997882  -0.276652 0.262154 -0.924521  0.000000 0.000000 1 1 1.000000
0  -18.126165 11.085377 3.607385  0.184940 -0.528655 -0.828445  0.000000 0.000000 1 1 1.000000
  phy
0  -18.126165 11.085377 3.607385  0.184940 -0.528655 -0.828445  0.000000 0.000000 1 1 1.000000
0  -10.094762 11.085379 -3.997882  -0.276652 0.262154 -0.924521  0.000000 0.000000 1 1 1.000000
0  -10.094759 11.085378 3.607382  0.492109 0.466000 -0.735305  0.000000 0.000000 1 1 1.000000
  phy
0  -6.003003 17.957298 -7.872537  -0.768896 0.509853 -0.385810  0.000000 0.000000 1 1 1.000000
0  -10.094759 11.085378 3.607382  0.492109 0.466000 -0.735305  0.000000 0.000000 1 1 1.000000
0  -10.094762 11.085379 -3.997882  -0.276652 0.262154 -0.924521  0.000000 0.000000 1 1 1.000000
  phy
0  -6.003003 17.957298 -7.872537  -0.768896 0.509853 -0.385810  0.000000 0.000000 1 1 1.000000
0  -6.002998 17.957296 7.482037  0.694766 0.658008 -0.290390  0.000000 0.000000 1 1 1.000000
0  -10.094759 11.085378 3.607382  0.492109 0.466000 -0.735305  0.000000 0.000000 1 1 1.000000
  phy
0  -18.126165 11.085377 3.607385  0.184940 -0.528655 -0.828445  0.000000 0.000000 1 1 1.000000
0  -10.094759 11.085378 3.607382  0.492109 0.466000 -0.735305  0.000000 0.000000 1 1 1.000000
0  -22.217922 17.957298 7.482042  0.605007 -0.706456 -0.367268  0.000000 0.000000 1 1 1.000000
  phy
0  -10.094759 11.085378 3.607382  0.492109 0.466000 -0.735305  0.000000 0.000000 1 1 1.000000
0  -6.002998 17.957296 7.482037  0.694766 0.658008 -0.290390  0.000000 0.000000 1 1 1.000000
0  -22.217922 17.957298 7.482042  0.605007 -0.706456 -0.367268  0.000000 0.000000 1 1 1.000000
  phy
0  -10.094762 11.085379 -3.997882  -0.276652 0.262154 -0.924521  0.000000 0.000000 1 1 1.000000
0  -18.126169 11.085378 -3.997879  -0.652782 -0.204649 -0.729379  0.000000 0.000000 1 1 1.000000
0  -6.003003 17.957298 -7.872537  -0.768896 0.509853 -0.385810  0.000000 0.000000 1 1 1.000000
  phy
0  -6.003003 17.957298 -7.872537  -0.768896 0.509853 -0.385810  0.000000 0.000000 1 1 1.000000
0  -18.126169 11.085378 -3.997879  -0.652782 -0.204649 -0.729379  0.000000 0.000000 1 1 1.000000
0  -22.217928 17.957296 -7.872532  -0.585441 -0.688503 -0.428045  0.000000 0.000000 1 1 1.000000
  phy
0  -22.217928 17.957296 -7.872532  -0.585441 -0.688503 -0.428045  0.000000 0.000000 1 1 1.000000
0  -18.126169 11.085378 -3.997879  -0.652782 -0.204649 -0.729379  0.000000 0.000000 1 1 1.000000
0  -18.126165 11.085377 3.607385  0.184940 -0.528655 -0.828445  0.000000 0.000000 1 1 1.000000
  phy
0  -5.679307 25.148087 -8.179056  -0.474096 0.880473 0.000046  0.000000 0.000000 1 1 1.000000
0  -6.002996 32.338875 7.482038  0.631201 0.759396 0.157806  0.000000 0.000000 1 1 1.000000
0  -5.679302 25.148087 7.788554  0.726067 0.687624 0.000020  0.000000 0.000000 1 1 1.000000
  phy
0  -6.003001 32.338879 -7.872537  -0.837408 0.525292 0.151048  0.000000 0.000000 1 1 1.000000
0  -6.002996 32.338875 7.482038  0.631201 0.759396 0.157806  0.000000 0.000000 1 1 1.000000
0  -5.679307 25.148087 -8.179056  -0.474096 0.880473 0.000046  0.000000 0.000000 1 1 1.000000
  phy
0  -5.679302 25.148087 7.788554  0.726067 0.687624 0.000020  0.000000 0.000000 1 1 1.000000
0  -6.002998 17.957296 7.482037  0.694766 0.658008 -0.290390  0.000000 0.000000 1 1 1.000000
0  -5.679307 25.148087 -8.179056  -0.474096 0.880473 0.000046  0.000000 0.000000 1 1 1.000000
  phy
0  -5.679307 25.148087 -8.179056  -0.474096 0.880473 0.000046  0.000000 0.000000 1 1 1.000000
0  -6.002998 17.957296 7.482037  0.694766 0.658008 -0.290390  0.000000 0.000000 1 1 1.000000
0  -6.003003 17.957298 -7.872537  -0.768896 0.509853 -0.385810  0.000000 0.000000 1 1 1.000000
  phy
0  -5.679307 25.148087 -8.179056  -0.474096 0.880473 0.000046  0.000000 0.000000 1 1 1.000000
0  -22.541622 25.148088 -8.179051  -0.813526 -0.581467 -0.008425  0.000000 0.000000 1 1 1.000000
0  -6.003001 32.338879 -7.872537  -0.837408 0.525292 0.151048  0.000000 0.000000 1 1 1.000000
  phy
0  -22.541622 25.148088 -8.179051  -0.813526 -0.581467 -0.008425  0.000000 0.000000 1 1 1.000000
0  -5.679307 25.148087 -8.179056  -0.474096 0.880473 0.000046  0.000000 0.000000 1 1 1.000000
0  -6.003003 17.957298 -7.872537  -0.768896 0.509853 -0.385810  0.000000 0.000000 1 1 1.000000
  phy
0  -5.679302 25.148087 7.788554  0.726067 0.687624 0.000020  0.000000 0.000000 1 1 1.000000
0  -6.002996 32.338875 7.482038  0.631201 0.759396 0.157806  0.000000 0.000000 1 1 1.000000
0  -22.541618 25.148088 7.788559  0.813482 -0.581528 0.008539  0.000000 0.000000 1 1 1.000000
  phy
0  -22.541618 25.148088 7.788559  0.813482 -0.581528 0.008539  0.000000 0.000000 1 1 1.000000
0  -6.002998 17.957296 7.482037  0.694766 0.658008 -0.290390  0.000000 0.000000 1 1 1.000000
0  -5.679302 25.148087 7.788554  0.726067 0.687624 0.000020  0.000000 0.000000 1 1 1.000000
  phy
0  -22.541618 25.148088 7.788559  0.813482 -0.581528 0.008539  0.000000 0.000000 1 1 1.000000
0  -22.541622 25.148088 -8.179051  -0.813526 -0.581467 -0.008425  0.000000 0.000000 1 1 1.000000
0  -22.217922 17.957298 7.482042  0.605007 -0.706456 -0.367268  0.000000 0.000000 1 1 1.000000
  phy
0  -22.217922 17.957298 7.482042  0.605007 -0.706456 -0.367268  0.000000 0.000000 1 1 1.000000
0  -22.541622 25.148088 -8.179051  -0.813526 -0.581467 -0.008425  0.000000 0.000000 1 1 1.000000
0  -22.217928 17.957296 -7.872532  -0.585441 -0.688503 -0.428045  0.000000 0.000000 1 1 1.000000
  phy
0  -6.003001 32.338879 -7.872537  -0.837408 0.525292 0.151048  0.000000 0.000000 1 1 1.000000
0  -22.541622 25.148088 -8.179051  -0.813526 -0.581467 -0.008425  0.000000 0.000000 1 1 1.000000
0  -22.217928 32.338879 -7.872532  -0.691036 -0.701389 0.174708  0.000000 0.000000 1 1 1.000000
  phy
0  -22.541622 25.148088 -8.179051  -0.813526 -0.581467 -0.008425  0.000000 0.000000 1 1 1.000000
0  -22.541618 25.148088 7.788559  0.813482 -0.581528 0.008539  0.000000 0.000000 1 1 1.000000
0  -22.217928 32.338879 -7.872532  -0.691036 -0.701389 0.174708  0.000000 0.000000 1 1 1.000000
  phy
0  -22.541622 25.148088 -8.179051  -0.813526 -0.581467 -0.008425  0.000000 0.000000 1 1 1.000000
0  -6.003003 17.957298 -7.872537  -0.768896 0.509853 -0.385810  0.000000 0.000000 1 1 1.000000
0  -22.217928 17.957296 -7.872532  -0.585441 -0.688503 -0.428045  0.000000 0.000000 1 1 1.000000
  phy
0  -6.003001 32.338879 -7.872537  -0.837408 0.525292 0.151048  0.000000 0.000000 1 1 1.000000
0  -7.622083 39.825787 -6.339361  -0.559586 0.529828 0.637295  0.000000 0.000000 1 1 1.000000
0  -6.002996 32.338875 7.482038  0.631201 0.759396 0.157806  0.000000 0.000000 1 1 1.000000
  phy
0  -6.003001 32.338879 -7.872537  -0.837408 0.525292 0.151048  0.000000 0.000000 1 1 1.000000
0  -22.217928 32.338879 -7.872532  -0.691036 -0.701389 0.174708  0.000000 0.000000 1 1 1.000000
0  -7.622083 39.825787 -6.339361  -0.559586 0.529828 0.637295  0.000000 0.000000 1 1 1.000000
  phy
0  -22.217928 32.338879 -7.872532  -0.691036 -0.701389 0.174708  0.000000 0.000000 1 1 1.000000
0  -22.541618 25.148088 7.788559  0.813482 -0.581528 0.008539  0.000000 0.000000 1 1 1.000000
0  -22.217922 32.338879 7.482043  0.709777 -0.672211 0.210590  0.000000 0.000000 1 1 1.000000
  phy
0  -6.002996 32.338875 7.482038  0.631201 0.759396 0.157806  0.000000 0.000000 1 1 1.000000
0  -22.217922 32.338879 7.482043  0.709777 -0.672211 0.210590  0.000000 0.000000 1 1 1.000000
0  -22.541618 25.148088 7.788559  0.813482 -0.581528 0.008539  0.000000 0.000000 1 1 1.000000
  phy
0  -22.217922 17.957298 7.482042  0.605007 -0.706456 -0.367268  0.000000 0.000000 1 1 1.000000
0  -6.002998 17.957296 7.482037  0.694766 0.658008 -0.290390  0.000000 0.000000 1 1 1.000000
0  -22.541618 25.148088 7.788559  0.813482 -0.581528 0.008539  0.000000 0.000000 1 1 1.000000
  phy
0  -6.002996 32.338875 7.482038  0.631201 0.759396 0.157806  0.000000 0.000000 1 1 1.000000
0  -7.622079 39.825787 5.948862  0.484634 0.204009 0.850594  0.000000 0.000000 1 1 1.000000
0  -22.217922 32.338879 7.482043  0.709777 -0.672211 0.210590  0.000000 0.000000 1 1 1.000000
  phy
0  -6.002996 32.338875 7.482038  0.631201 0.759396 0.157806  0.000000 0.000000 1 1 1.000000
0  -7.622083 39.825787 -6.339361  -0.559586 0.529828 0.637295  0.000000 0.000000 1 1 1.000000
0  -7.622079 39.825787 5.948862  0.484634 0.204009 0.850594  0.000000 0.000000 1 1 1.000000
  phy
0  -22.217922 17.957298 7.482042  0.605007 -0.706456 -0.367268  0.000000 0.000000 1 1 1.000000
0  -22.217928 17.957296 -7.872532  -0.585441 -0.688503 -0.428045  0.000000 0.000000 1 1 1.000000
0  -18.126165 11.085377 3.607385  0.184940 -0.528655 -0.828445  0.000000 0.000000 1 1 1.000000
  phy
0  -22.217928 32.338879 -7.872532  -0.691036 -0.701389 0.174708  0.000000 0.000000 1 1 1.000000
0  -22.217922 32.338879 7.482043  0.709777 -0.672211 0.210590  0.000000 0.000000 1 1 1.000000
0  -20.598843 39.825790 -6.339355  -0.217663 -0.463440 0.858980  0.000000 0.000000 1 1 1.000000
  phy
0  -22.217928 32.338879 -7.872532  -0.691036 -0.701389 0.174708  0.000000 0.000000 1 1 1.000000
0  -20.598843 39.825790 -6.339355  -0.217663 -0.463440 0.858980  0.000000 0.000000 1 1 1.000000
0  -7.622083 39.825787 -6.339361  -0.559586 0.529828 0.637295  0.000000 0.000000 1 1 1.000000
  phy
0  -20.598839 39.825790 5.948866  0.404763 -0.383263 0.830226  0.000000 0.000000 1 1 1.000000
0  -7.622079 39.825787 5.948862  0.484634 0.204009 0.850594  0.000000 0.000000 1 1 1.000000
0  -20.598843 39.825790 -6.339355  -0.217663 -0.463440 0.858980  0.000000 0.000000 1 1 1.000000
  phy
0  -7.622079 39.825787 5.948862  0.484634 0.204009 0.850594  0.000000 0.000000 1 1 1.000000
0  -7.622083 39.825787 -6.339361  -0.559586 0.529828 0.637295  0.000000 0.000000 1 1 1.000000
0  -20.598843 39.825790 -6.339355  -0.217663 -0.463440 0.858980  0.000000 0.000000 1 1 1.000000
  phy
0  -22.217922 32.338879 7.482043  0.709777 -0.672211 0.210590  0.000000 0.000000 1 1 1.000000
0  -7.622079 39.825787 5.948862  0.484634 0.204009 0.850594  0.000000 0.000000 1 1 1.000000
0  -20.598839 39.825790 5.948866  0.404763 -0.383263 0.830226  0.000000 0.000000 1 1 1.000000
  phy
0  -22.217922 32.338879 7.482043  0.709777 -0.672211 0.210590  0.000000 0.000000 1 1 1.000000
0  -20.598839 39.825790 5.948866  0.404763 -0.383263 0.830226  0.000000 0.000000 1 1 1.000000
0  -20.598843 39.825790 -6.339355  -0.217663 -0.463440 0.858980  0.000000 0.000000 1 1 1.000000
  phy
0  -16.621794 24.780895 10.024762  0.876426 -0.167672 0.451403  0.000000 0.000000 1 1 1.000000
0  -16.621794 19.711512 10.024762  0.876405 -0.167607 -0.451467  0.000000 0.000000 1 1 1.000000
0  -2.959124 24.780893 10.024758  0.885803 0.084594 0.456285  0.000000 0.000000 1 1 1.000000
  phy
0  -16.621794 19.711512 10.024762  0.876405 -0.167607 -0.451467  0.000000 0.000000 1 1 1.000000
0  -2.959125 19.711510 10.024758  0.841685 0.321867 -0.433554  0.000000 0.000000 1 1 1.000000
0  -2.959124 24.780893 10.024758  0.885803 0.084594 0.456285  0.000000 0.000000 1 1 1.000000
  phy
0  -2.959124 24.780893 10.024758  0.885803 0.084594 0.456285  0.000000 0.000000 1 1 1.000000
0  -16.621796 24.780895 7.413537  -0.673093 -0.257222 0.693385  0.000000 0.000000 1 1 1.000000
0  -16.621794 24.780895 10.024762  0.876426 -0.167672 0.451403  0.000000 0.000000 1 1 1.000000
  phy
0  -2.959124 24.780893 10.024758  0.885803 0.084594 0.456285  0.000000 0.000000 1 1 1.000000
0  -2.959125 24.780893 7.413533  -0.952222 0.181993 0.245257  0.000000 0.000000 1 1 1.000000
0  -16.621796 24.780895 7.413537  -0.673093 -0.257222 0.693385  0.000000 0.000000 1 1 1.000000
  phy
0  -2.959125 19.711510 10.024758  0.841685 0.321867 -0.433554  0.000000 0.000000 1 1 1.000000
0  -2.959125 24.780893 7.413533  -0.952222 0.181993 0.245257  0.000000 0.000000 1 1 1.000000
0  -2.959124 24.780893 10.024758  0.885803 0.084594 0.456285  0.000000 0.000000 1 1 1.000000
  phy
0  -2.959125 19.711510 10.024758  0.841685 0.321867 -0.433554  0.000000 0.000000 1 1 1.000000
0  -2.959126 19.711510 7.413533  -0.690388 0.131882 -0.711317  0.000000 0.000000 1 1 1.000000
0  -2.959125 24.780893 7.413533  -0.952222 0.181993 0.245257  0.000000 0.000000 1 1 1.000000
  phy
0  -16.621794 24.780895 10.024762  0.876426 -0.167672 0.451403  0.000000 0.000000 1 1 1.000000
0  -16.621796 24.780895 7.413537  -0.673093 -0.257222 0.693385  0.000000 0.000000 1 1 1.000000
0  -16.621794 19.711512 10.024762  0.876405 -0.167607 -0.451467  0.000000 0.000000 1 1 1.000000
  phy
0  -16.621794 19.711512 10.024762  0.876405 -0.167607 -0.451467  0.000000 0.000000 1 1 1.000000
0  -16.621796 24.780895 7.413537  -0.673093 -0.257222 0.693385  0.000000 0.000000 1 1 1.000000
0  -16.621794 19.711512 7.413537  -0.964316 -0.092060 -0.248232  0.000000 0.000000 1 1 1.000000
  phy
0  -2.959125 19.711510 10.024758  0.841685 0.321867 -0.433554  0.000000 0.000000 1 1 1.000000
0  -16.621794 19.711512 10.024762  0.876405 -0.167607 -0.451467  0.000000 0.000000 1 1 1.000000
0  -2.959126 19.711510 7.413533  -0.690388 0.131882 -0.711317  0.000000 0.000000 1 1 1.000000
  phy
0  -2.959126 19.711510 7.413533  -0.690388 0.131882 -0.711317  0.000000 0.000000 1 1 1.000000
0  -16.621794 19.711512 10.024762  0.876405 -0.167607 -0.451467  0.000000 0.000000 1 1 1.000000
0  -16.621794 19.711512 7.413537  -0.964316 -0.092060 -0.248232  0.000000 0.000000 1 1 1.000000
  phy
0  -2.959126 19.711510 7.413533  -0.690388 0.131882 -0.711317  0.000000 0.000000 1 1 1.000000
0  -16.621794 19.711512 7.413537  -0.964316 -0.092060 -0.248232  0.000000 0.000000 1 1 1.000000
0  -2.959125 24.780893 7.413533  -0.952222 0.181993 0.245257  0.000000 0.000000 1 1 1.000000
  phy
0  -2.959125 24.780893 7.413533  -0.952222 0.181993 0.245257  0.000000 0.000000 1 1 1.000000
0  -16.621794 19.711512 7.413537  -0.964316 -0.092060 -0.248232  0.000000 0.000000 1 1 1.000000
0  -16.621796 24.780895 7.413537  -0.673093 -0.257222 0.693385  0.000000 0.000000 1 1 1.000000
  phy
0  2.418302 24.780893 2.967725  -0.619606 -0.000021 0.784913  0.000000 0.000000 1 1 1.000000
0  2.418301 19.711510 2.967725  -0.844791 0.000021 -0.535096  0.000000 0.000000 1 1 1.000000
0  -3.610623 24.780893 9.389728  -0.000006 -0.859527 0.511091  0.000000 0.000000 1 1 1.000000
  phy
0  -3.610623 24.780893 9.389728  -0.000006 -0.859527 0.511091  0.000000 0.000000 1 1 1.000000
0  2.418301 19.711510 2.967725  -0.844791 0.000021 -0.535096  0.000000 0.000000 1 1 1.000000
0  -3.610624 19.711508 9.389728  0.000084 -0.643503 -0.765444  0.000000 0.000000 1 1 1.000000
  phy
0  2.418302 24.780893 2.967725  -0.619606 -0.000021 0.784913  0.000000 0.000000 1 1 1.000000
0  2.418304 24.780893 9.389726  0.374208 0.797023 0.474050  0.000000 0.000000 1 1 1.000000
0  2.418301 19.711510 2.967725  -0.844791 0.000021 -0.535096  0.000000 0.000000 1 1 1.000000
  phy
0  2.418304 24.780893 9.389726  0.374208 0.797023 0.474050  0.000000 0.000000 1 1 1.000000
0  2.418303 19.711508 9.389726  0.770496 0.410255 -0.487880  0.000000 0.000000 1 1 1.000000
0  2.418301 19.711510 2.967725  -0.844791 0.000021 -0.535096  0.000000 0.000000 1 1 1.000000
  phy
0  2.418301 19.711510 2.967725  -0.844791 0.000021 -0.535096  0.000000 0.000000 1 1 1.000000
0  2.418303 19.711508 9.389726  0.770496 0.410255 -0.487880  0.000000 0.000000 1 1 1.000000
0  -3.610624 19.711508 9.389728  0.000084 -0.643503 -0.765444  0.000000 0.000000 1 1 1.000000
  phy
0  2.418303 19.711508 9.389726  0.770496 0.410255 -0.487880  0.000000 0.000000 1 1 1.000000
0  -3.610623 24.780893 9.389728  -0.000006 -0.859527 0.511091  0.000000 0.000000 1 1 1.000000
0  -3.610624 19.711508 9.389728  0.000084 -0.643503 -0.765444  0.000000 0.000000 1 1 1.000000
  phy
0  2.418303 19.711508 9.389726  0.770496 0.410255 -0.487880  0.000000 0.000000 1 1 1.000000
0  2.418304 24.780893 9.389726  0.374208 0.797023 0.474050  0.000000 0.000000 1 1 1.000000
0  -3.610623 24.780893 9.389728  -0.000006 -0.859527 0.511091  0.000000 0.000000 1 1 1.000000
  phy
0  -3.610623 24.780893 9.389728  -0.000006 -0.859527 0.511091  0.000000 0.000000 1 1 1.000000
0  2.418304 24.780893 9.389726  0.374208 0.797023 0.474050  0.000000 0.000000 1 1 1.000000
0  2.418302 24.780893 2.967725  -0.619606 -0.000021 0.784913  0.000000 0.000000 1 1 1.000000
  phy
0  1.557255 25.213585 -4.000000  -0.585452 -0.292786 0.755991  0.000000 0.000000 1 1 1.000000
0  1.557255 19.018520 -4.000000  -0.292834 -0.585453 -0.755972  0.000000 0.000000 1 1 1.000000
0  1.557257 25.213585 4.000000  0.642954 -0.643515 0.415330  0.000000 0.000000 1 1 1.000000
  phy
0  1.557257 25.213585 4.000000  0.642954 -0.643515 0.415330  0.000000 0.000000 1 1 1.000000
0  1.557255 19.018520 -4.000000  -0.292834 -0.585453 -0.755972  0.000000 0.000000 1 1 1.000000
0  1.557257 19.018520 4.000000  0.522219 -0.522045 -0.674356  0.000000 0.000000 1 1 1.000000
  phy
0  1.557257 19.018520 4.000000  0.522219 -0.522045 -0.674356  0.000000 0.000000 1 1 1.000000
0  1.557255 19.018520 -4.000000  -0.292834 -0.585453 -0.755972  0.000000 0.000000 1 1 1.000000
0  9.557257 19.018518 3.999998  0.522076 0.522211 -0.674339  0.000000 0.000000 1 1 1.000000
  phy
0  9.557257 19.018518 3.999998  0.522076 0.522211 -0.674339  0.000000 0.000000 1 1 1.000000
0  1.557255 19.018520 -4.000000  -0.292834 -0.585453 -0.755972  0.000000 0.000000 1 1 1.000000
0  9.557255 19.018518 -4.000002  -0.774546 0.387381 -0.500014  0.000000 0.000000 1 1 1.000000
  phy
0  1.557257 19.018520 4.000000  0.522219 -0.522045 -0.674356  0.000000 0.000000 1 1 1.000000
0  9.557257 19.018518 3.999998  0.522076 0.522211 -0.674339  0.000000 0.000000 1 1 1.000000
0  1.557257 25.213585 4.000000  0.642954 -0.643515 0.415330  0.000000 0.000000 1 1 1.000000
  phy
0  9.557257 19.018518 3.999998  0.522076 0.522211 -0.674339  0.000000 0.000000 1 1 1.000000
0  9.557258 25.213585 3.999998  0.339581 0.339641 0.877114  0.000000 0.000000 1 1 1.000000
0  1.557257 25.213585 4.000000  0.642954 -0.643515 0.415330  0.000000 0.000000 1 1 1.000000
  phy
0  1.557255 19.018520 -4.000000  -0.292834 -0.585453 -0.755972  0.000000 0.000000 1 1 1.000000
0  1.557255 25.213585 -4.000000  -0.585452 -0.292786 0.755991  0.000000 0.000000 1 1 1.000000
0  9.557255 19.018518 -4.000002  -0.774546 0.387381 -0.500014  0.000000 0.000000 1 1 1.000000
  phy
0  9.557255 19.018518 -4.000002  -0.774546 0.387381 -0.500014  0.000000 0.000000 1 1 1.000000
0  1.557255 25.213585 -4.000000  -0.585452 -0.292786 0.755991  0.000000 0.000000 1 1 1.000000
0  9.557256 25.213585 -4.000002  -0.387200 0.774620 0.500041  0.000000 0.000000 1 1 1.000000
  phy
0  9.557258 25.213585 3.999998  0.339581 0.339641 0.877114  0.000000 0.000000 1 1 1.000000
0  9.557257 19.018518 3.999998  0.522076 0.522211 -0.674339  0.000000 0.000000 1 1 1.000000
0  9.557256 25.213585 -4.000002  -0.387200 0.774620 0.500041  0.000000 0.000000 1 1 1.000000
  phy
0  9.557257 19.018518 3.999998  0.522076 0.522211 -0.674339  0.000000 0.000000 1 1 1.000000
0  9.557255 19.018518 -4.000002  -0.774546 0.387381 -0.500014  0.000000 0.000000 1 1 1.000000
0  9.557256 25.213585 -4.000002  -0.387200 0.774620 0.500041  0.000000 0.000000 1 1 1.000000
  phy
0  1.557255 25.213585 -4.000000  -0.585452 -0.292786 0.755991  0.000000 0.000000 1 1 1.000000
0  9.557258 25.213585 3.999998  0.339581 0.339641 0.877114  0.000000 0.000000 1 1 1.000000
0  9.557256 25.213585 -4.000002  -0.387200 0.774620 0.500041  0.000000 0.000000 1 1 1.000000
  phy
0  1.557257 25.213585 4.000000  0.642954 -0.643515 0.415330  0.000000 0.000000 1 1 1.000000
0  9.557258 25.213585 3.999998  0.339581 0.339641 0.877114  0.000000 0.000000 1 1 1.000000
0  1.557255 25.213585 -4.000000  -0.585452 -0.292786 0.755991  0.000000 0.000000 1 1 1.000000
  phy
0  7.712685 17.627790 5.223472  0.311735 -0.885837 -0.343676  0.000000 0.000000 1 1 1.000000
0  15.452697 17.627790 5.223469  0.485813 0.690549 -0.535843  0.000000 0.000000 1 1 1.000000
0  7.712687 27.601936 5.223472  0.606213 -0.430777 0.668533  0.000000 0.000000 1 1 1.000000
  phy
0  15.452697 17.627790 5.223469  0.485813 0.690549 -0.535843  0.000000 0.000000 1 1 1.000000
0  15.452698 27.601940 5.223469  0.485968 0.690418 0.535871  0.000000 0.000000 1 1 1.000000
0  7.712687 27.601936 5.223472  0.606213 -0.430777 0.668533  0.000000 0.000000 1 1 1.000000
  phy
0  7.712687 27.601936 5.223472  0.606213 -0.430777 0.668533  0.000000 0.000000 1 1 1.000000
0  7.712683 27.601936 -5.776085  -0.311673 -0.885869 0.343651  0.000000 0.000000 1 1 1.000000
0  7.712685 17.627790 5.223472  0.311735 -0.885837 -0.343676  0.000000 0.000000 1 1 1.000000
  phy
0  7.712685 17.627790 5.223472  0.311735 -0.885837 -0.343676  0.000000 0.000000 1 1 1.000000
0  7.712683 27.601936 -5.776085  -0.311673 -0.885869 0.343651  0.000000 0.000000 1 1 1.000000
0  7.712682 17.627790 -5.776086  -0.606215 -0.430864 -0.668476  0.000000 0.000000 1 1 1.000000
  phy
0  7.712685 17.627790 5.223472  0.311735 -0.885837 -0.343676  0.000000 0.000000 1 1 1.000000
0  7.712682 17.627790 -5.776086  -0.606215 -0.430864 -0.668476  0.000000 0.000000 1 1 1.000000
0  15.452697 17.627790 5.223469  0.485813 0.690549 -0.535843  0.000000 0.000000 1 1 1.000000
  phy
0  15.452697 17.627790 5.223469  0.485813 0.690549 -0.535843  0.000000 0.000000 1 1 1.000000
0  7.712682 17.627790 -5.776086  -0.606215 -0.430864 -0.668476  0.000000 0.000000 1 1 1.000000
0  15.452693 17.627790 -5.776089  -0.485930 0.690552 -0.535733  0.000000 0.000000 1 1 1.000000
  phy
0  7.712687 27.601936 5.223472  0.606213 -0.430777 0.668533  0.000000 0.000000 1 1 1.000000
0  15.452694 27.601940 -5.776088  -0.485877 0.690494 0.535855  0.000000 0.000000 1 1 1.000000
0  7.712683 27.601936 -5.776085  -0.311673 -0.885869 0.343651  0.000000 0.000000 1 1 1.000000
  phy
0  7.712683 27.601936 -5.776085  -0.311673 -0.885869 0.343651  0.000000 0.000000 1 1 1.000000
0  15.452694 27.601940 -5.776088  -0.485877 0.690494 0.535855  0.000000 0.000000 1 1 1.000000
0  7.712682 17.627790 -5.776086  -0.606215 -0.430864 -0.668476  0.000000 0.000000 1 1 1.000000
  phy
0  15.452694 27.601940 -5.776088  -0.485877 0.690494 0.535855  0.000000 0.000000 1 1 1.000000
0  15.452697 17.627790 5.223469  0.485813 0.690549 -0.535843  0.000000 0.000000 1 1 1.000000
0  15.452693 17.627790 -5.776089  -0.485930 0.690552 -0.535733  0.000000 0.000000 1 1 1.000000
  phy
0  15.452694 27.601940 -5.776088  -0.485877 0.690494 0.535855  0.000000 0.000000 1 1 1.000000
0  15.452698 27.601940 5.223469  0.485968 0.690418 0.535871  0.000000 0.000000 1 1 1.000000
0  15.452697 17.627790 5.223469  0.485813 0.690549 -0.535843  0.000000 0.000000 1 1 1.000000
  phy
0  15.452694 27.601940 -5.776088  -0.485877 0.690494 0.535855  0.000000 0.000000 1 1 1.000000
0  15.452693 17.627790 -5.776089  -0.485930 0.690552 -0.535733  0.000000 0.000000 1 1 1.000000
0  7.712682 17.627790 -5.776086  -0.606215 -0.430864 -0.668476  0.000000 0.000000 1 1 1.000000
  phy
0  15.452698 27.601940 5.223469  0.485968 0.690418 0.535871  0.000000 0.000000 1 1 1.000000
0  15.452694 27.601940 -5.776088  -0.485877 0.690494 0.535855  0.000000 0.000000 1 1 1.000000
0  7.712687 27.601936 5.223472  0.606213 -0.430777 0.668533  0.000000 0.000000 1 1 1.000000
  phy
0  9.147417 14.701566 5.223471  0.280531 -0.731197 -0.621815  0.000000 0.000000 1 1 1.000000
0  8.983406 18.347097 5.223471  0.271597 -0.542673 0.794822  0.000000 0.000000 1 1 1.000000
0  8.983402 18.347097 -5.776087  -0.349089 -0.528435 0.773882  0.000000 0.000000 1 1 1.000000
  phy
0  9.147413 14.701566 -5.776087  -0.199265 -0.746500 -0.634848  0.000000 0.000000 1 1 1.000000
0  9.147417 14.701566 5.223471  0.280531 -0.731197 -0.621815  0.000000 0.000000 1 1 1.000000
0  8.983402 18.347097 -5.776087  -0.349089 -0.528435 0.773882  0.000000 0.000000 1 1 1.000000
  phy
0  9.147417 14.701566 5.223471  0.280531 -0.731197 -0.621815  0.000000 0.000000 1 1 1.000000
0  14.485999 18.347097 5.223470  0.280578 0.731184 0.621809  0.000000 0.000000 1 1 1.000000
0  8.983406 18.347097 5.223471  0.271597 -0.542673 0.794822  0.000000 0.000000 1 1 1.000000
  phy
0  9.147417 14.701566 5.223471  0.280531 -0.731197 -0.621815  0.000000 0.000000 1 1 1.000000
0  14.321985 12.069145 5.223470  0.420110 0.511746 -0.749415  0.000000 0.000000 1 1 1.000000
0  14.485999 18.347097 5.223470  0.280578 0.731184 0.621809  0.000000 0.000000 1 1 1.000000
  phy
0  9.147417 14.701566 5.223471  0.280531 -0.731197 -0.621815  0.000000 0.000000 1 1 1.000000
0  9.147413 14.701566 -5.776087  -0.199265 -0.746500 -0.634848  0.000000 0.000000 1 1 1.000000
0  14.321981 12.069145 -5.776088  -0.349024 0.528415 -0.773925  0.000000 0.000000 1 1 1.000000
  phy
0  9.147417 14.701566 5.223471  0.280531 -0.731197 -0.621815  0.000000 0.000000 1 1 1.000000
0  14.321981 12.069145 -5.776088  -0.349024 0.528415 -0.773925  0.000000 0.000000 1 1 1.000000
0  14.321985 12.069145 5.223470  0.420110 0.511746 -0.749415  0.000000 0.000000 1 1 1.000000
  phy
0  14.485999 18.347097 5.223470  0.280578 0.731184 0.621809  0.000000 0.000000 1 1 1.000000
0  8.983402 18.347097 -5.776087  -0.349089 -0.528435 0.773882  0.000000 0.000000 1 1 1.000000
0  8.983406 18.347097 5.223471  0.271597 -0.542673 0.794822  0.000000 0.000000 1 1 1.000000
  phy
0  14.321981 12.069145 -5.776088  -0.349024 0.528415 -0.773925  0.000000 0.000000 1 1 1.000000
0  9.147413 14.701566 -5.776087  -0.199265 -0.746500 -0.634848  0.000000 0.000000 1 1 1.000000
0  8.983402 18.347097 -5.776087  -0.349089 -0.528435 0.773882  0.000000 0.000000 1 1 1.000000
  phy
0  14.321981 12.069145 -5.776088  -0.349024 0.528415 -0.773925  0.000000 0.000000 1 1 1.000000
0  14.485995 18.347097 -5.776089  -0.356206 0.711873 0.605272  0.000000 0.000000 1 1 1.000000
0  14.485999 18.347097 5.223470  0.280578 0.731184 0.621809  0.000000 0.000000 1 1 1.000000
  phy
0  14.485999 18.347097 5.223470  0.280578 0.731184 0.621809  0.000000 0.000000 1 1 1.000000
0  14.321985 12.069145 5.223470  0.420110 0.511746 -0.749415  0.000000 0.000000 1 1 1.000000
0  14.321981 12.069145 -5.776088  -0.349024 0.528415 -0.773925  0.000000 0.000000 1 1 1.000000
  phy
0  14.485995 18.347097 -5.776089  -0.356206 0.711873 0.605272  0.000000 0.000000 1 1 1.000000
0  8.983402 18.347097 -5.776087  -0.349089 -0.528435 0.773882  0.000000 0.000000 1 1 1.000000
0  14.485999 18.347097 5.223470  0.280578 0.731184 0.621809  0.000000 0.000000 1 1 1.000000
  phy
0  14.485995 18.347097 -5.776089  -0.356206 0.711873 0.605272  0.000000 0.000000 1 1 1.000000
0  14.321981 12.069145 -5.776088  -0.349024 0.528415 -0.773925  0.000000 0.000000 1 1 1.000000
0  8.983402 18.347097 -5.776087  -0.349089 -0.528435 0.773882  0.000000 0.000000 1 1 1.000000
  phy
0  6.261631 4.355444 5.223471  0.172772 0.412095 -0.894610  0.000000 0.000000 1 1 1.000000
0  1.456241 6.390767 5.223474  0.434371 -0.776854 0.455872  0.000000 0.000000 1 1 1.000000
0  1.456237 6.390768 -5.776084  -0.639269 -0.760957 -0.110819  0.000000 0.000000 1 1 1.000000
  phy
0  6.261631 4.355444 5.223471  0.172772 0.412095 -0.894610  0.000000 0.000000 1 1 1.000000
0  1.456237 6.390768 -5.776084  -0.639269 -0.760957 -0.110819  0.000000 0.000000 1 1 1.000000
0  6.261627 4.355445 -5.776087  -0.331032 0.394832 -0.857045  0.000000 0.000000 1 1 1.000000
  phy
0  1.456237 6.390768 -5.776084  -0.639269 -0.760957 -0.110819  0.000000 0.000000 1 1 1.000000
0  1.456241 6.390767 5.223474  0.434371 -0.776854 0.455872  0.000000 0.000000 1 1 1.000000
0  9.275803 14.604098 -5.776087  -0.187038 -0.411030 0.892228  0.000000 0.000000 1 1 1.000000
  phy
0  1.456241 6.390767 5.223474  0.434371 -0.776854 0.455872  0.000000 0.000000 1 1 1.000000
0  9.275806 14.604098 5.223471  0.355885 -0.390998 0.848803  0.000000 0.000000 1 1 1.000000
0  9.275803 14.604098 -5.776087  -0.187038 -0.411030 0.892228  0.000000 0.000000 1 1 1.000000
  phy
0  1.456241 6.390767 5.223474  0.434371 -0.776854 0.455872  0.000000 0.000000 1 1 1.000000
0  6.261631 4.355444 5.223471  0.172772 0.412095 -0.894610  0.000000 0.000000 1 1 1.000000
0  14.269601 12.293134 5.223470  0.630167 0.766994 0.120870  0.000000 0.000000 1 1 1.000000
  phy
0  1.456241 6.390767 5.223474  0.434371 -0.776854 0.455872  0.000000 0.000000 1 1 1.000000
0  14.269601 12.293134 5.223470  0.630167 0.766994 0.120870  0.000000 0.000000 1 1 1.000000
0  9.275806 14.604098 5.223471  0.355885 -0.390998 0.848803  0.000000 0.000000 1 1 1.000000
  phy
0  6.261627 4.355445 -5.776087  -0.331032 0.394832 -0.857045  0.000000 0.000000 1 1 1.000000
0  1.456237 6.390768 -5.776084  -0.639269 -0.760957 -0.110819  0.000000 0.000000 1 1 1.000000
0  14.269597 12.293134 -5.776089  -0.436643 0.769389 -0.466244  0.000000 0.000000 1 1 1.000000
  phy
0  6.261627 4.355445 -5.776087  -0.331032 0.394832 -0.857045  0.000000 0.000000 1 1 1.000000
0  14.269597 12.293134 -5.776089  -0.436643 0.769389 -0.466244  0.000000 0.000000 1 1 1.000000
0  6.261631 4.355444 5.223471  0.172772 0.412095 -0.894610  0.000000 0.000000 1 1 1.000000
  phy
0  14.269597 12.293134 -5.776089  -0.436643 0.769389 -0.466244  0.000000 0.000000 1 1 1.000000
0  9.275803 14.604098 -5.776087  -0.187038 -0.411030 0.892228  0.000000 0.000000 1 1 1.000000
0  14.269601 12.293134 5.223470  0.630167 0.766994 0.120870  0.000000 0.000000 1 1 1.000000
  phy
0  9.275803 14.604098 -5.776087  -0.187038 -0.411030 0.892228  0.000000 0.000000 1 1 1.000000
0  9.275806 14.604098 5.223471  0.355885 -0.390998 0.848803  0.000000 0.000000 1 1 1.000000
0  14.269601 12.293134 5.223470  0.630167 0.766994 0.120870  0.000000 0.000000 1 1 1.000000
  phy
0  14.269597 12.293134 -5.776089  -0.436643 0.769389 -0.466244  0.000000 0.000000 1 1 1.000000
0  1.456237 6.390768 -5.776084  -0.639269 -0.760957 -0.110819  0.000000 0.000000 1 1 1.000000
0  9.275803 14.604098 -5.776087  -0.187038 -0.411030 0.892228  0.000000 0.000000 1 1 1.000000
  phy
0  14.269597 12.293134 -5.776089  -0.436643 0.769389 -0.466244  0.000000 0.000000 1 1 1.000000
0  14.269601 12.293134 5.223470  0.630167 0.766994 0.120870  0.000000 0.000000 1 1 1.000000
0  6.261631 4.355444 5.223471  0.172772 0.412095 -0.894610  0.000000 0.000000 1 1 1.000000
  phy
0  -3.000549 4.890429 2.981319  0.334756 -0.821718 0.461214  0.000000 0.000000 1 1 1.000000
0  -3.000551 4.890429 -3.533929  -0.372567 -0.775738 0.509337  0.000000 0.000000 1 1 1.000000
0  -3.153353 -0.109636 2.981319  0.479888 -0.852690 -0.206464  0.000000 0.000000 1 1 1.000000
  phy
0  -3.000551 4.890429 -3.533929  -0.372567 -0.775738 0.509337  0.000000 0.000000 1 1 1.000000
0  -3.153355 -0.109636 -3.533929  -0.205473 -0.684628 -0.699332  0.000000 0.000000 1 1 1.000000
0  -3.153353 -0.109636 2.981319  0.479888 -0.852690 -0.206464  0.000000 0.000000 1 1 1.000000
  phy
0  -3.000549 4.890429 2.981319  0.334756 -0.821718 0.461214  0.000000 0.000000 1 1 1.000000
0  1.518564 6.585250 5.223474  0.695892 -0.183947 0.694189  0.000000 0.000000 1 1 1.000000
0  -3.000551 4.890429 -3.533929  -0.372567 -0.775738 0.509337  0.000000 0.000000 1 1 1.000000
  phy
0  1.518564 6.585250 5.223474  0.695892 -0.183947 0.694189  0.000000 0.000000 1 1 1.000000
0  1.518561 6.585250 -5.776085  -0.574881 0.051361 0.816624  0.000000 0.000000 1 1 1.000000
0  -3.000551 4.890429 -3.533929  -0.372567 -0.775738 0.509337  0.000000 0.000000 1 1 1.000000
  phy
0  -3.153355 -0.109636 -3.533929  -0.205473 -0.684628 -0.699332  0.000000 0.000000 1 1 1.000000
0  -3.000551 4.890429 -3.533929  -0.372567 -0.775738 0.509337  0.000000 0.000000 1 1 1.000000
0  1.260585 -1.856258 -5.776085  -0.522665 -0.248362 -0.815560  0.000000 0.000000 1 1 1.000000
  phy
0  1.260585 -1.856258 -5.776085  -0.522665 -0.248362 -0.815560  0.000000 0.000000 1 1 1.000000
0  -3.000551 4.890429 -3.533929  -0.372567 -0.775738 0.509337  0.000000 0.000000 1 1 1.000000
0  1.518561 6.585250 -5.776085  -0.574881 0.051361 0.816624  0.000000 0.000000 1 1 1.000000
  phy
0  6.575331 4.415542 5.223472  0.195132 0.713322 0.673124  0.000000 0.000000 1 1 1.000000
0  6.479234 -1.861908 5.223471  0.387468 0.703323 -0.595991  0.000000 0.000000 1 1 1.000000
0  6.575328 4.415542 -5.776087  -0.184147 0.933253 0.308428  0.000000 0.000000 1 1 1.000000
  phy
0  6.575328 4.415542 -5.776087  -0.184147 0.933253 0.308428  0.000000 0.000000 1 1 1.000000
0  6.479234 -1.861908 5.223471  0.387468 0.703323 -0.595991  0.000000 0.000000 1 1 1.000000
0  6.479231 -1.861908 -5.776087  -0.643466 0.584042 -0.494819  0.000000 0.000000 1 1 1.000000
  phy
0  6.575328 4.415542 -5.776087  -0.184147 0.933253 0.308428  0.000000 0.000000 1 1 1.000000
0  1.518561 6.585250 -5.776085  -0.574881 0.051361 0.816624  0.000000 0.000000 1 1 1.000000
0  6.575331 4.415542 5.223472  0.195132 0.713322 0.673124  0.000000 0.000000 1 1 1.000000
  phy
0  6.575328 4.415542 -5.776087  -0.184147 0.933253 0.308428  0.000000 0.000000 1 1 1.000000
0  6.479231 -1.861908 -5.776087  -0.643466 0.584042 -0.494819  0.000000 0.000000 1 1 1.000000
0  1.518561 6.585250 -5.776085  -0.574881 0.051361 0.816624  0.000000 0.000000 1 1 1.000000
  phy
0  -3.000549 4.890429 2.981319  0.334756 -0.821718 0.461214  0.000000 0.000000 1 1 1.000000
0  -3.153353 -0.109636 2.981319  0.479888 -0.852690 -0.206464  0.000000 0.000000 1 1 1.000000
0  1.518564 6.585250 5.223474  0.695892 -0.183947 0.694189  0.000000 0.000000 1 1 1.000000
  phy
0  6.575331 4.415542 5.223472  0.195132 0.713322 0.673124  0.000000 0.000000 1 1 1.000000
0  1.518561 6.585250 -5.776085  -0.574881 0.051361 0.816624  0.000000 0.000000 1 1 1.000000
0  1.518564 6.585250 5.223474  0.695892 -0.183947 0.694189  0.000000 0.000000 1 1 1.000000
  phy
0  1.518564 6.585250 5.223474  0.695892 -0.183947 0.694189  0.000000 0.000000 1 1 1.000000
0  6.479234 -1.861908 5.223471  0.387468 0.703323 -0.595991  0.000000 0.000000 1 1 1.000000
0  6.575331 4.415542 5.223472  0.195132 0.713322 0.673124  0.000000 0.000000 1 1 1.000000
  phy
0  1.260588 -1.856258 5.223473  0.496421 -0.300948 -0.814246  0.000000 0.000000 1 1 1.000000
0  -3.153355 -0.109636 -3.533929  -0.205473 -0.684628 -0.699332  0.000000 0.000000 1 1 1.000000
0  1.260585 -1.856258 -5.776085  -0.522665 -0.248362 -0.815560  0.000000 0.000000 1 1 1.000000
  phy
0  -3.153355 -0.109636 -3.533929  -0.205473 -0.684628 -0.699332  0.000000 0.000000 1 1 1.000000
0  1.260588 -1.856258 5.223473  0.496421 -0.300948 -0.814246  0.000000 0.000000 1 1 1.000000
0  -3.153353 -0.109636 2.981319  0.479888 -0.852690 -0.206464  0.000000 0.000000 1 1 1.000000
  phy
0  1.518564 6.585250 5.223474  0.695892 -0.183947 0.694189  0.000000 0.000000 1 1 1.000000
0  -3.153353 -0.109636 2.981319  0.479888 -0.852690 -0.206464  0.000000 0.000000 1 1 1.000000
0  1.260588 -1.856258 5.223473  0.496421 -0.300948 -0.814246  0.000000 0.000000 1 1 1.000000
  phy
0  1.260588 -1.856258 5.223473  0.496421 -0.300948 -0.814246  0.000000 0.000000 1 1 1.000000
0  6.479234 -1.861908 5.223471  0.387468 0.703323 -0.595991  0.000000 0.000000 1 1 1.000000
0  1.518564 6.585250 5.223474  0.695892 -0.183947 0.694189  0.000000 0.000000 1 1 1.000000
  phy
0  1.260588 -1.856258 5.223473  0.496421 -0.300948 -0.814246  0.000000 0.000000 1 1 1.000000
0  1.260585 -1.856258 -5.776085  -0.522665 -0.248362 -0.815560  0.000000 0.000000 1 1 1.000000
0  6.479234 -1.861908 5.223471  0.387468 0.703323 -0.595991  0.000000 0.000000 1 1 1.000000
  phy
0  6.479231 -1.861908 -5.776087  -0.643466 0.584042 -0.494819  0.000000 0.000000 1 1 1.000000
0  1.260585 -1.856258 -5.776085  -0.522665 -0.248362 -0.815560  0.000000 0.000000 1 1 1.000000
0  1.518561 6.585250 -5.776085  -0.574881 0.051361 0.816624  0.000000 0.000000 1 1 1.000000
  phy
0  1.260585 -1.856258 -5.776085  -0.522665 -0.248362 -0.815560  0.000000 0.000000 1 1 1.000000
0  6.479231 -1.861908 -5.776087  -0.643466 0.584042 -0.494819  0.000000 0.000000 1 1 1.000000
0  6.479234 -1.861908 5.223471  0.387468 0.703323 -0.595991  0.000000 0.000000 1 1 1.000000
end
