// Created by Crowbar 0.74
version 1
nodes
  0 "static_prop" -1
end
skeleton
  time 0
    0 0.000000 0.000000 0.000000 0.000000 0.000000 0.000000
end
triangles
bts_stool
  0 -9.648500 5.725200 4.143200 -0.642008 -0.755510 0.130502 0.465800 0.700700 1 0 1.000000
  0 -2.670600 0.002000 5.340700 -0.642008 -0.755510 0.130502 0.797500 0.662300 1 0 1.000000
  0 -2.282200 0.002000 7.252300 -0.642008 -0.755510 0.130502 0.832600 0.695000 1 0 1.000000
bts_stool
  0 2.110199 10.372500 3.166400 0.069200 0.996194 -0.053000 0.271800 0.846600 1 0 1.000000
  0 2.575599 10.020800 3.753400 0.462805 0.641008 0.612307 0.229900 0.819100 1 0 1.000000
  0 2.575599 10.020800 2.579300 0.228989 0.704766 -0.671468 0.271800 0.819100 1 0 1.000000
bts_stool
  0 2.110199 10.372500 3.166400 0.069200 0.996194 -0.053000 0.271800 0.846600 1 0 1.000000
  0 1.896999 9.716200 4.116200 0.063300 0.194800 0.978798 0.229900 0.846600 1 0 1.000000
  0 2.575599 10.020800 3.753400 0.462805 0.641008 0.612307 0.229900 0.819100 1 0 1.000000
bts_stool
  0 -9.023300 -6.206300 4.116200 -0.165700 -0.120400 0.978799 0.271800 0.846600 1 0 1.000000
  0 -8.848000 -5.397501 4.116200 0.165700 0.120400 0.978799 0.229900 0.819100 1 0 1.000000
  0 -9.751300 -6.053801 3.753400 -0.701875 -0.509982 0.497282 0.271800 0.819100 1 0 1.000000
bts_stool
  0 -9.023300 -6.206300 4.116200 -0.165700 -0.120400 0.978799 0.271800 0.846600 1 0 1.000000
  0 -8.119900 -5.549901 3.753400 0.701875 0.509982 0.497282 0.229900 0.846600 1 0 1.000000
  0 -8.848000 -5.397501 4.116200 0.165700 0.120400 0.978799 0.229900 0.819100 1 0 1.000000
bts_stool
  0 -8.119900 -5.549901 3.753400 0.701875 0.509982 0.497282 0.271800 0.846600 1 0 1.000000
  0 -8.289600 -4.991800 3.166400 0.804291 0.584394 0.107699 0.229900 0.819100 1 0 1.000000
  0 -8.848000 -5.397501 4.116200 0.165700 0.120400 0.978799 0.271800 0.819100 1 0 1.000000
bts_stool
  0 -8.119900 -5.549901 3.753400 0.701875 0.509982 0.497282 0.271800 0.846600 1 0 1.000000
  0 -8.119900 -5.549901 2.579300 0.599482 0.435587 -0.671480 0.229900 0.846600 1 0 1.000000
  0 -8.289600 -4.991800 3.166400 0.804291 0.584394 0.107699 0.229900 0.819100 1 0 1.000000
bts_stool
  0 -8.119900 -5.549901 2.579300 0.599482 0.435587 -0.671480 0.271800 0.846600 1 0 1.000000
  0 -8.848000 -5.397501 2.216500 0.331383 0.240788 -0.912253 0.229900 0.819100 1 0 1.000000
  0 -8.289600 -4.991800 3.166400 0.804291 0.584394 0.107699 0.271800 0.819100 1 0 1.000000
bts_stool
  0 -8.119900 -5.549901 2.579300 0.599482 0.435587 -0.671480 0.271800 0.846600 1 0 1.000000
  0 -9.023300 -6.206300 2.216500 -0.331383 -0.240788 -0.912253 0.229900 0.846600 1 0 1.000000
  0 -8.848000 -5.397501 2.216500 0.331383 0.240788 -0.912253 0.229900 0.819100 1 0 1.000000
bts_stool
  0 -9.581600 -6.611900 3.166400 -0.804291 -0.584394 0.107699 0.271800 0.846600 1 0 1.000000
  0 -9.751300 -6.053801 3.753400 -0.701875 -0.509982 0.497282 0.229900 0.819100 1 0 1.000000
  0 -9.751300 -6.053801 2.579300 -0.599482 -0.435587 -0.671480 0.271800 0.819100 1 0 1.000000
bts_stool
  0 -9.581600 -6.611900 3.166400 -0.804291 -0.584394 0.107699 0.271800 0.846600 1 0 1.000000
  0 -9.023300 -6.206300 4.116200 -0.165700 -0.120400 0.978799 0.229900 0.846600 1 0 1.000000
  0 -9.751300 -6.053801 3.753400 -0.701875 -0.509982 0.497282 0.229900 0.819100 1 0 1.000000
bts_stool
  0 -9.023300 -6.206300 2.216500 -0.331383 -0.240788 -0.912253 0.271800 0.846600 1 0 1.000000
  0 -9.751300 -6.053801 2.579300 -0.599482 -0.435587 -0.671480 0.229900 0.819100 1 0 1.000000
  0 -8.848000 -5.397501 2.216500 0.331383 0.240788 -0.912253 0.271800 0.819100 1 0 1.000000
bts_stool
  0 -9.023300 -6.206300 2.216500 -0.331383 -0.240788 -0.912253 0.271800 0.846600 1 0 1.000000
  0 -9.581600 -6.611900 3.166400 -0.804291 -0.584394 0.107699 0.229900 0.846600 1 0 1.000000
  0 -9.751300 -6.053801 2.579300 -0.599482 -0.435587 -0.671480 0.229900 0.819100 1 0 1.000000
bts_stool
  0 2.076200 -8.522200 3.753400 -0.074903 0.829528 0.553419 0.271800 0.846600 1 0 1.000000
  0 1.551900 -8.692500 2.579300 -0.268103 0.825110 -0.497306 0.229900 0.819100 1 0 1.000000
  0 1.551900 -8.692500 3.753400 -0.228989 0.704766 0.671468 0.271800 0.819100 1 0 1.000000
bts_stool
  0 2.076200 -8.522200 3.753400 -0.074903 0.829528 0.553419 0.271800 0.846600 1 0 1.000000
  0 2.230500 -8.997100 2.216500 0.265286 0.387779 -0.882752 0.229900 0.846600 1 0 1.000000
  0 1.551900 -8.692500 2.579300 -0.268103 0.825110 -0.497306 0.229900 0.819100 1 0 1.000000
bts_stool
  0 1.696200 2.702900 32.329899 0.906313 0.000000 -0.422606 0.810500 0.544700 1 0 1.000000
  0 1.176400 -2.148700 31.215000 0.906313 0.000000 -0.422606 0.761700 0.634900 1 0 1.000000
  0 1.176400 2.183100 31.215000 0.906313 0.000000 -0.422606 0.762000 0.553900 1 0 1.000000
bts_stool
  0 1.176400 -2.148700 31.215000 0.906313 0.000000 -0.422606 0.761700 0.634900 1 0 1.000000
  0 1.696200 2.702900 32.329899 0.906313 0.000000 -0.422606 0.810500 0.544700 1 0 1.000000
  0 1.696200 -2.668600 32.329899 0.906313 0.000000 -0.422606 0.808200 0.644500 1 0 1.000000
bts_stool
  0 1.176400 2.183100 31.215000 0.000000 0.906313 -0.422606 0.762000 0.553900 1 0 1.000000
  0 -3.675200 2.702900 32.329899 0.000000 0.906313 -0.422606 0.581400 0.533000 1 0 1.000000
  0 1.696200 2.702900 32.329899 0.000000 0.906313 -0.422606 0.781400 0.533000 1 0 1.000000
bts_stool
  0 -3.675200 2.702900 32.329899 0.000000 0.906313 -0.422606 0.581400 0.533000 1 0 1.000000
  0 1.176400 2.183100 31.215000 0.000000 0.906313 -0.422606 0.762000 0.553900 1 0 1.000000
  0 -3.155400 2.183100 31.215000 0.000000 0.906313 -0.422606 0.600700 0.553900 1 0 1.000000
bts_stool
  0 -3.155400 -2.148700 31.215000 0.000000 -0.906313 -0.422606 0.600700 0.635000 1 0 1.000000
  0 1.696200 -2.668600 32.329899 0.000000 -0.906313 -0.422606 0.780800 0.655900 1 0 1.000000
  0 -3.675200 -2.668600 32.329899 0.000000 -0.906313 -0.422606 0.580800 0.655900 1 0 1.000000
bts_stool
  0 1.696200 -2.668600 32.329899 0.000000 -0.906313 -0.422606 0.780800 0.655900 1 0 1.000000
  0 -3.155400 -2.148700 31.215000 0.000000 -0.906313 -0.422606 0.600700 0.635000 1 0 1.000000
  0 1.176400 -2.148700 31.215000 0.000000 -0.906313 -0.422606 0.761700 0.634900 1 0 1.000000
bts_stool
  0 -3.675200 -2.668600 32.329899 -0.906313 0.000000 -0.422606 0.554600 0.644500 1 0 1.000000
  0 -3.155400 2.183100 31.215000 -0.906313 0.000000 -0.422606 0.600700 0.553900 1 0 1.000000
  0 -3.155400 -2.148700 31.215000 -0.906313 0.000000 -0.422606 0.600700 0.635000 1 0 1.000000
bts_stool
  0 -3.155400 2.183100 31.215000 -0.906313 0.000000 -0.422606 0.600700 0.553900 1 0 1.000000
  0 -3.675200 -2.668600 32.329899 -0.906313 0.000000 -0.422606 0.554600 0.644500 1 0 1.000000
  0 -3.675200 2.702900 32.329899 -0.906313 0.000000 -0.422606 0.554600 0.545800 1 0 1.000000
bts_stool
  0 2.882900 10.583000 2.669100 0.266905 0.821914 0.503209 0.399400 0.717200 1 0 1.000000
  0 1.797500 10.033000 4.143200 0.266905 0.821914 0.503209 0.465800 0.700700 1 0 1.000000
  0 2.715899 9.734800 4.143200 0.266905 0.821914 0.503209 0.465200 0.719100 1 0 1.000000
bts_stool
  0 1.797500 10.033000 4.143200 0.266905 0.821914 0.503209 0.465800 0.700700 1 0 1.000000
  0 2.882900 10.583000 2.669100 0.266905 0.821914 0.503209 0.399400 0.717200 1 0 1.000000
  0 2.160800 10.817500 2.669100 0.266905 0.821914 0.503209 0.398400 0.702600 1 0 1.000000
bts_stool
  0 10.290000 -0.384000 2.669100 0.864177 0.000100 0.503187 0.399400 0.717200 1 0 1.000000
  0 9.431500 0.478300 4.143200 0.864177 0.000100 0.503187 0.465800 0.700700 1 0 1.000000
  0 9.431700 -0.487200 4.143200 0.864177 0.000100 0.503187 0.465200 0.719100 1 0 1.000000
bts_stool
  0 9.431500 0.478300 4.143200 0.864177 0.000100 0.503187 0.465800 0.700700 1 0 1.000000
  0 10.290000 -0.384000 2.669100 0.864177 0.000100 0.503187 0.399400 0.717200 1 0 1.000000
  0 10.289800 0.375300 2.669100 0.864177 0.000200 0.503187 0.398400 0.702600 1 0 1.000000
bts_stool
  0 2.148700 -10.817500 2.669100 0.267205 -0.821816 0.503210 0.399400 0.717200 1 0 1.000000
  0 2.703501 -9.734600 4.143200 0.267205 -0.821816 0.503210 0.465800 0.700700 1 0 1.000000
  0 1.785300 -10.033100 4.143200 0.267205 -0.821816 0.503210 0.465200 0.719100 1 0 1.000000
bts_stool
  0 2.703501 -9.734600 4.143200 0.267205 -0.821816 0.503210 0.465800 0.700700 1 0 1.000000
  0 2.148700 -10.817500 2.669100 0.267205 -0.821816 0.503210 0.399400 0.717200 1 0 1.000000
  0 2.870700 -10.582700 2.669100 0.267205 -0.821816 0.503210 0.398400 0.702600 1 0 1.000000
bts_stool
  0 -9.836200 6.927400 2.669100 -0.699181 0.507886 0.503187 0.399400 0.717200 1 0 1.000000
  0 -9.648500 5.725200 4.143200 -0.699181 0.507886 0.503187 0.465800 0.700700 1 0 1.000000
  0 -9.081100 6.506400 4.143200 -0.699181 0.507886 0.503187 0.465200 0.719100 1 0 1.000000
bts_stool
  0 -9.648500 5.725200 4.143200 -0.699181 0.507886 0.503187 0.465800 0.700700 1 0 1.000000
  0 -9.836200 6.927400 2.669100 -0.699181 0.507886 0.503187 0.399400 0.717200 1 0 1.000000
  0 -10.282300 6.313099 2.669100 -0.699268 0.507777 0.503177 0.398400 0.702600 1 0 1.000000
bts_stool
  0 -10.290000 -6.298800 2.669100 -0.699059 -0.508070 0.503171 0.399400 0.717200 1 0 1.000000
  0 -9.088600 -6.491800 4.143200 -0.699059 -0.508070 0.503171 0.465800 0.700700 1 0 1.000000
  0 -9.656300 -5.710801 4.143200 -0.699059 -0.508070 0.503171 0.465200 0.719100 1 0 1.000000
bts_stool
  0 -9.088600 -6.491800 4.143200 -0.699059 -0.508070 0.503171 0.465800 0.700700 1 0 1.000000
  0 -10.290000 -6.298800 2.669100 -0.699059 -0.508070 0.503171 0.399400 0.717200 1 0 1.000000
  0 -9.843500 -6.912900 2.669100 -0.699008 -0.508106 0.503206 0.398400 0.702600 1 0 1.000000
bts_stool
  0 -8.848000 5.359200 4.116200 0.159607 -0.344715 0.925039 0.271800 0.846600 1 0 1.000000
  0 -7.965600 5.399499 3.166400 0.804291 -0.584394 0.107699 0.229900 0.819100 1 0 1.000000
  0 -8.523900 5.805099 4.116200 0.165700 -0.120400 0.978799 0.271800 0.819100 1 0 1.000000
bts_stool
  0 -8.848000 5.359200 4.116200 0.159607 -0.344715 0.925039 0.271800 0.846600 1 0 1.000000
  0 -8.444000 5.065599 2.579300 0.388799 -0.742399 -0.545599 0.229900 0.846600 1 0 1.000000
  0 -7.965600 5.399499 3.166400 0.804291 -0.584394 0.107699 0.229900 0.819100 1 0 1.000000
bts_stool
  0 2.800100 4.184500 18.623100 0.038301 -0.255606 -0.966022 0.000000 0.000000 1 0 1.000000
  0 -4.806500 4.768900 18.890400 -0.062098 0.861069 -0.504682 0.000000 0.000000 1 0 1.000000
  0 2.390600 4.599700 19.320999 0.035699 0.218094 0.975274 0.000000 0.000000 1 0 1.000000
bts_stool
  0 -4.806500 4.768900 18.890400 -0.062098 0.861069 -0.504682 0.000000 0.000000 1 0 1.000000
  0 2.800100 4.184500 18.623100 0.038301 -0.255606 -0.966022 0.000000 0.000000 1 0 1.000000
  0 -4.397000 4.102200 19.052401 -0.062800 -0.856804 0.511803 0.000000 0.000000 1 0 1.000000
bts_stool
  0 0.112300 0.779100 7.252300 0.316498 0.000000 0.948593 0.832600 0.695000 1 0 1.000000
  0 9.431700 -0.487200 4.143200 0.316498 0.000000 0.948593 0.465200 0.719100 1 0 1.000000
  0 9.431500 0.478300 4.143200 0.316498 0.000000 0.948593 0.465800 0.700700 1 0 1.000000
bts_stool
  0 9.431700 -0.487200 4.143200 0.316498 0.000000 0.948593 0.465200 0.719100 1 0 1.000000
  0 0.112300 0.779100 7.252300 0.316498 0.000000 0.948593 0.832600 0.695000 1 0 1.000000
  0 0.111200 -0.775600 7.252300 0.316408 -0.000200 0.948623 0.832800 0.724600 1 0 1.000000
bts_stool
  0 -2.282200 0.002000 7.252300 -0.256008 0.185906 0.948630 0.832600 0.695000 1 0 1.000000
  0 -9.081100 6.506400 4.143200 -0.256008 0.185906 0.948630 0.465200 0.719100 1 0 1.000000
  0 -9.648500 5.725200 4.143200 -0.256008 0.185906 0.948630 0.465800 0.700700 1 0 1.000000
bts_stool
  0 -9.081100 6.506400 4.143200 -0.256008 0.185906 0.948630 0.465200 0.719100 1 0 1.000000
  0 -2.282200 0.002000 7.252300 -0.256008 0.185906 0.948630 0.832600 0.695000 1 0 1.000000
  0 -1.368000 1.260300 7.252300 -0.255915 0.185911 0.948654 0.832800 0.724600 1 0 1.000000
bts_stool
  0 9.757000 -0.511900 30.463100 -0.196808 0.000000 -0.980442 0.527300 0.651900 1 0 1.000000
  0 1.072800 0.406700 32.206299 -0.189304 0.000000 -0.981919 0.307000 0.670200 1 0 1.000000
  0 9.757000 0.520900 30.463100 -0.196808 0.000000 -0.980442 0.306400 0.654000 1 0 1.000000
bts_stool
  0 1.072800 0.406700 32.206299 -0.189304 0.000000 -0.981919 0.307000 0.670200 1 0 1.000000
  0 9.757000 -0.511900 30.463100 -0.196808 0.000000 -0.980442 0.527300 0.651900 1 0 1.000000
  0 1.072800 -0.397600 32.206299 -0.189304 0.000000 -0.981919 0.527500 0.668100 1 0 1.000000
bts_stool
  0 1.072800 0.406700 32.206299 0.196808 0.000000 0.980442 0.527300 0.624100 1 0 1.000000
  0 9.757000 -0.511900 30.463100 0.196808 0.000000 0.980442 0.180700 0.645800 1 0 1.000000
  0 9.757000 0.520900 30.463100 0.196808 0.000000 0.980442 0.180700 0.629900 1 0 1.000000
bts_stool
  0 9.757000 -0.511900 30.463100 0.196808 0.000000 0.980442 0.180700 0.645800 1 0 1.000000
  0 1.072800 0.406700 32.206299 0.196808 0.000000 0.980442 0.527300 0.624100 1 0 1.000000
  0 1.072800 -0.397600 32.206299 0.196808 0.000000 0.980442 0.527300 0.651900 1 0 1.000000
bts_stool
  0 2.715899 9.734800 4.143200 0.097803 0.300908 0.948625 0.465200 0.719100 1 0 1.000000
  0 -1.368000 1.260300 7.252300 0.097803 0.300908 0.948625 0.832600 0.695000 1 0 1.000000
  0 0.112300 0.779100 7.252300 0.097803 0.300908 0.948625 0.832800 0.724600 1 0 1.000000
bts_stool
  0 -1.368000 1.260300 7.252300 0.097803 0.300908 0.948625 0.832600 0.695000 1 0 1.000000
  0 2.715899 9.734800 4.143200 0.097803 0.300908 0.948625 0.465200 0.719100 1 0 1.000000
  0 1.797500 10.033000 4.143200 0.097703 0.300911 0.948634 0.465800 0.700700 1 0 1.000000
bts_stool
  0 2.076200 8.483800 3.753400 0.951066 -0.308989 0.000000 0.302800 0.841500 1 0 1.000000
  0 2.575599 10.020800 2.579300 0.951066 -0.308989 0.000000 0.376100 0.812400 1 0 1.000000
  0 2.575599 10.020800 3.753400 0.951066 -0.308989 0.000000 0.376100 0.841500 1 0 1.000000
bts_stool
  0 2.076200 8.483800 3.753400 0.951066 -0.308989 0.000000 0.302800 0.841500 1 0 1.000000
  0 2.230500 8.958800 2.216500 0.951066 -0.308989 0.000000 0.325500 0.803400 1 0 1.000000
  0 2.575599 10.020800 2.579300 0.951066 -0.308989 0.000000 0.376100 0.812400 1 0 1.000000
bts_stool
  0 1.896999 9.716200 4.116200 -0.951066 0.308989 0.000000 0.353400 0.850500 1 0 1.000000
  0 1.706200 9.129100 2.216500 -0.951066 0.308989 0.000000 0.325500 0.803400 1 0 1.000000
  0 1.551900 8.654200 3.753400 -0.951066 0.308989 0.000000 0.302800 0.841500 1 0 1.000000
bts_stool
  0 2.110199 10.372500 3.166400 -0.951066 0.308989 0.000000 0.384700 0.827000 1 0 1.000000
  0 1.706200 9.129100 2.216500 -0.951066 0.308989 0.000000 0.325500 0.803400 1 0 1.000000
  0 1.896999 9.716200 4.116200 -0.951066 0.308989 0.000000 0.353400 0.850500 1 0 1.000000
bts_stool
  0 2.734400 6.489000 35.466202 0.470696 0.696194 0.541995 0.401100 0.332900 1 0 1.000000
  0 5.971200 0.064000 35.936501 0.154798 0.010600 0.987889 0.528000 0.221100 1 0 1.000000
  0 5.497900 3.787700 35.592999 0.887628 0.340511 0.310110 0.497400 0.283500 1 0 1.000000
bts_stool
  0 -0.980000 7.484200 35.466202 0.073299 0.829689 0.553393 0.271400 0.349800 1 0 1.000000
  0 5.971200 0.064000 35.936501 0.154798 0.010600 0.987889 0.528000 0.221100 1 0 1.000000
  0 2.734400 6.489000 35.466202 0.470696 0.696194 0.541995 0.401100 0.332900 1 0 1.000000
bts_stool
  0 -4.694400 6.489000 35.466202 -0.349914 0.751030 0.559923 0.143100 0.332900 1 0 1.000000
  0 5.971200 0.064000 35.936501 0.154798 0.010600 0.987889 0.528000 0.221100 1 0 1.000000
  0 -0.980000 7.484200 35.466202 0.073299 0.829689 0.553393 0.271400 0.349800 1 0 1.000000
bts_stool
  0 -7.413500 3.769900 35.466202 -0.677271 0.474380 0.562376 0.048200 0.285800 1 0 1.000000
  0 5.971200 0.064000 35.936501 0.154798 0.010600 0.987889 0.528000 0.221100 1 0 1.000000
  0 -4.694400 6.489000 35.466202 -0.349914 0.751030 0.559923 0.143100 0.332900 1 0 1.000000
bts_stool
  0 -8.408700 0.055500 35.466202 -0.823269 0.071897 0.563079 0.011400 0.221100 1 0 1.000000
  0 5.971200 0.064000 35.936501 0.154798 0.010600 0.987889 0.528000 0.221100 1 0 1.000000
  0 -7.413500 3.769900 35.466202 -0.677271 0.474380 0.562376 0.048200 0.285800 1 0 1.000000
bts_stool
  0 -7.413500 -3.658900 35.466202 -0.749121 -0.350010 0.562415 0.048200 0.157100 1 0 1.000000
  0 5.971200 0.064000 35.936501 0.154798 0.010600 0.987889 0.528000 0.221100 1 0 1.000000
  0 -8.408700 0.055500 35.466202 -0.823269 0.071897 0.563079 0.011400 0.221100 1 0 1.000000
bts_stool
  0 -4.694399 -6.378000 35.466202 -0.473891 -0.679587 0.559989 0.143100 0.110800 1 0 1.000000
  0 5.971200 0.064000 35.936501 0.154798 0.010600 0.987889 0.528000 0.221100 1 0 1.000000
  0 -7.413500 -3.658900 35.466202 -0.749121 -0.350010 0.562415 0.048200 0.157100 1 0 1.000000
bts_stool
  0 -0.980000 -7.373200 35.466202 -0.068398 -0.829979 0.553586 0.272800 0.093900 1 0 1.000000
  0 5.971200 0.064000 35.936501 0.154798 0.010600 0.987889 0.528000 0.221100 1 0 1.000000
  0 -4.694399 -6.378000 35.466202 -0.473891 -0.679587 0.559989 0.143100 0.110800 1 0 1.000000
bts_stool
  0 2.734400 -6.378000 35.466202 0.369595 -0.761689 0.532193 0.402400 0.110800 1 0 1.000000
  0 5.971200 0.064000 35.936501 0.154798 0.010600 0.987889 0.528000 0.221100 1 0 1.000000
  0 -0.980000 -7.373200 35.466202 -0.068398 -0.829979 0.553586 0.272800 0.093900 1 0 1.000000
bts_stool
  0 5.971200 0.064000 35.936501 0.154798 0.010600 0.987889 0.528000 0.221100 1 0 1.000000
  0 2.734400 -6.378000 35.466202 0.369595 -0.761689 0.532193 0.402400 0.110800 1 0 1.000000
  0 5.453500 -3.658900 35.466202 0.790724 -0.526516 0.312309 0.497400 0.157100 1 0 1.000000
bts_stool
  0 2.746600 6.510200 32.896301 0.447909 0.809116 -0.380407 0.879400 0.132200 1 0 1.000000
  0 5.474700 3.782100 32.896301 0.805526 0.478215 -0.349911 0.879400 0.203600 1 0 1.000000
  0 2.269400 5.816100 32.097198 0.185207 0.403515 -0.896032 0.845400 0.135100 1 0 1.000000
bts_stool
  0 5.889000 0.055500 32.196499 0.186607 0.013901 -0.982336 0.845400 0.278000 1 0 1.000000
  0 5.497900 3.787700 35.592999 0.811993 0.372197 0.449596 0.975600 0.203600 1 0 1.000000
  0 5.971200 0.064000 35.936501 0.154798 0.010600 0.987889 0.999500 0.277400 1 0 1.000000
bts_stool
  0 5.497900 3.787700 35.592999 0.811993 0.372197 0.449596 0.975600 0.203600 1 0 1.000000
  0 5.889000 0.055500 32.196499 0.186607 0.013901 -0.982336 0.845400 0.278000 1 0 1.000000
  0 5.474700 3.782100 32.896301 0.805526 0.478215 -0.349911 0.879400 0.203600 1 0 1.000000
bts_stool
  0 5.474700 3.782100 32.896301 0.805526 0.478215 -0.349911 0.879400 0.203600 1 0 1.000000
  0 2.734400 6.489000 35.466202 0.511701 0.751402 0.416601 0.975600 0.132200 1 0 1.000000
  0 5.497900 3.787700 35.592999 0.811993 0.372197 0.449596 0.975600 0.203600 1 0 1.000000
bts_stool
  0 2.734400 6.489000 35.466202 0.511701 0.751402 0.416601 0.975600 0.132200 1 0 1.000000
  0 5.474700 3.782100 32.896301 0.805526 0.478215 -0.349911 0.879400 0.203600 1 0 1.000000
  0 2.746600 6.510200 32.896301 0.447909 0.809116 -0.380407 0.879400 0.132200 1 0 1.000000
bts_stool
  0 2.746600 6.510200 32.896301 0.447909 0.809116 -0.380407 0.879400 0.132200 1 0 1.000000
  0 -0.980000 7.484200 35.466202 0.073299 0.829689 0.553393 0.975600 0.060700 1 0 1.000000
  0 2.734400 6.489000 35.466202 0.511701 0.751402 0.416601 0.975600 0.132200 1 0 1.000000
bts_stool
  0 -0.980000 7.484200 35.466202 0.073299 0.829689 0.553393 0.975600 0.060700 1 0 1.000000
  0 2.746600 6.510200 32.896301 0.447909 0.809116 -0.380407 0.879400 0.132200 1 0 1.000000
  0 -0.980000 7.508800 32.896301 -0.102002 0.794216 -0.599012 0.879400 0.060700 1 0 1.000000
bts_stool
  0 2.269400 5.816100 32.097198 0.185207 0.403515 -0.896032 0.845400 0.128200 1 0 1.000000
  0 -0.980000 7.508800 32.896301 -0.102002 0.794216 -0.599012 0.879400 0.060700 1 0 1.000000
  0 2.746600 6.510200 32.896301 0.447909 0.809116 -0.380407 0.879400 0.132200 1 0 1.000000
bts_stool
  0 -0.980000 7.508800 32.896301 -0.102002 0.794216 -0.599012 0.879400 0.918800 1 0 1.000000
  0 -4.694400 6.489000 35.466202 -0.349914 0.751030 0.559923 0.975600 0.847300 1 0 1.000000
  0 -0.980000 7.484200 35.466202 0.073299 0.829689 0.553393 0.975500 0.918900 1 0 1.000000
bts_stool
  0 -4.694400 6.489000 35.466202 -0.349914 0.751030 0.559923 0.975600 0.847300 1 0 1.000000
  0 -0.980000 7.508800 32.896301 -0.102002 0.794216 -0.599012 0.879400 0.918800 1 0 1.000000
  0 -4.706601 6.510200 32.896301 -0.467215 0.781325 -0.413813 0.879400 0.844700 1 0 1.000000
bts_stool
  0 -4.706601 6.510200 32.896301 -0.467215 0.781325 -0.413813 0.879400 0.844700 1 0 1.000000
  0 -7.413500 3.769900 35.466202 -0.677271 0.474380 0.562376 0.975500 0.775900 1 0 1.000000
  0 -4.694400 6.489000 35.466202 -0.349914 0.751030 0.559923 0.975600 0.847300 1 0 1.000000
bts_stool
  0 -7.413500 3.769900 35.466202 -0.677271 0.474380 0.562376 0.975500 0.775900 1 0 1.000000
  0 -4.706601 6.510200 32.896301 -0.467215 0.781325 -0.413813 0.879400 0.844700 1 0 1.000000
  0 -7.434700 3.782100 32.896301 -0.789590 0.436895 -0.430895 0.879400 0.775900 1 0 1.000000
bts_stool
  0 -7.434700 3.782100 32.896301 -0.789590 0.436895 -0.430895 0.879400 0.775900 1 0 1.000000
  0 -8.408700 0.055500 35.466202 -0.823269 0.071897 0.563079 0.975500 0.704500 1 0 1.000000
  0 -7.413500 3.769900 35.466202 -0.677271 0.474380 0.562376 0.975500 0.775900 1 0 1.000000
bts_stool
  0 -8.408700 0.055500 35.466202 -0.823269 0.071897 0.563079 0.975500 0.704500 1 0 1.000000
  0 -7.434700 3.782100 32.896301 -0.789590 0.436895 -0.430895 0.879400 0.775900 1 0 1.000000
  0 -8.433300 0.055500 32.896301 -0.898792 -0.018200 -0.437996 0.879400 0.704400 1 0 1.000000
bts_stool
  0 -8.433300 0.055500 32.896301 -0.898792 -0.018200 -0.437996 0.879400 0.704400 1 0 1.000000
  0 -7.413500 -3.658900 35.466202 -0.749121 -0.350010 0.562415 0.975600 0.632900 1 0 1.000000
  0 -8.408700 0.055500 35.466202 -0.823269 0.071897 0.563079 0.975500 0.704500 1 0 1.000000
bts_stool
  0 -7.413500 -3.658900 35.466202 -0.749121 -0.350010 0.562415 0.975600 0.632900 1 0 1.000000
  0 -8.433300 0.055500 32.896301 -0.898792 -0.018200 -0.437996 0.879400 0.704400 1 0 1.000000
  0 -7.434700 -3.671100 32.896301 -0.770312 -0.466808 -0.434407 0.879400 0.632900 1 0 1.000000
bts_stool
  0 -7.434700 -3.671100 32.896301 -0.770312 -0.466808 -0.434407 0.879400 0.632900 1 0 1.000000
  0 -4.694399 -6.378000 35.466202 -0.473891 -0.679587 0.559989 0.975600 0.561400 1 0 1.000000
  0 -7.413500 -3.658900 35.466202 -0.749121 -0.350010 0.562415 0.975600 0.632900 1 0 1.000000
bts_stool
  0 -4.694399 -6.378000 35.466202 -0.473891 -0.679587 0.559989 0.975600 0.561400 1 0 1.000000
  0 -7.434700 -3.671100 32.896301 -0.770312 -0.466808 -0.434407 0.879400 0.632900 1 0 1.000000
  0 -4.706600 -6.399200 32.896301 -0.437195 -0.790891 -0.428195 0.879400 0.561400 1 0 1.000000
bts_stool
  0 -4.706600 -6.399200 32.896301 -0.437195 -0.790891 -0.428195 0.879400 0.561400 1 0 1.000000
  0 -0.980000 -7.373200 35.466202 -0.068398 -0.829979 0.553586 0.975600 0.489800 1 0 1.000000
  0 -4.694399 -6.378000 35.466202 -0.473891 -0.679587 0.559989 0.975600 0.561400 1 0 1.000000
bts_stool
  0 -0.980000 -7.373200 35.466202 -0.068398 -0.829979 0.553586 0.975600 0.489800 1 0 1.000000
  0 -4.706600 -6.399200 32.896301 -0.437195 -0.790891 -0.428195 0.879400 0.561400 1 0 1.000000
  0 -0.980000 -7.397800 32.896301 0.013800 -0.909806 -0.414803 0.879400 0.489800 1 0 1.000000
bts_stool
  0 -0.980000 -7.397800 32.896301 0.013800 -0.909806 -0.414803 0.879400 0.489800 1 0 1.000000
  0 2.734400 -6.378000 35.466202 0.387991 -0.836481 0.386991 0.975600 0.418400 1 0 1.000000
  0 -0.980000 -7.373200 35.466202 -0.068398 -0.829979 0.553586 0.975600 0.489800 1 0 1.000000
bts_stool
  0 2.734400 -6.378000 35.466202 0.387991 -0.836481 0.386991 0.975600 0.418400 1 0 1.000000
  0 -0.980000 -7.397800 32.896301 0.013800 -0.909806 -0.414803 0.879400 0.489800 1 0 1.000000
  0 2.746600 -6.399200 32.896301 0.474305 -0.793308 -0.381704 0.879400 0.418400 1 0 1.000000
bts_stool
  0 2.746600 -6.399200 32.896301 0.474305 -0.793308 -0.381704 0.879400 0.418400 1 0 1.000000
  0 5.453500 -3.658900 35.466202 0.753296 -0.529497 0.390098 0.975600 0.346900 1 0 1.000000
  0 2.734400 -6.378000 35.466202 0.387991 -0.836481 0.386991 0.975600 0.418400 1 0 1.000000
bts_stool
  0 5.453500 -3.658900 35.466202 0.753296 -0.529497 0.390098 0.975600 0.346900 1 0 1.000000
  0 2.746600 -6.399200 32.896301 0.474305 -0.793308 -0.381704 0.879400 0.418400 1 0 1.000000
  0 5.474700 -3.671100 32.896301 0.817602 -0.457501 -0.349601 0.879400 0.346900 1 0 1.000000
bts_stool
  0 5.474700 -3.671100 32.896301 0.817602 -0.457501 -0.349601 0.879400 0.346900 1 0 1.000000
  0 5.971200 0.064000 35.936501 0.154798 0.010600 0.987889 0.999500 0.277400 1 0 1.000000
  0 5.453500 -3.658900 35.466202 0.753296 -0.529497 0.390098 0.975600 0.346900 1 0 1.000000
bts_stool
  0 5.971200 0.064000 35.936501 0.154798 0.010600 0.987889 0.999500 0.277400 1 0 1.000000
  0 5.474700 -3.671100 32.896301 0.817602 -0.457501 -0.349601 0.879400 0.346900 1 0 1.000000
  0 5.889000 0.055500 32.196499 0.186607 0.013901 -0.982336 0.845400 0.278000 1 0 1.000000
bts_stool
  0 1.706200 9.129100 2.216500 -0.282191 0.013000 -0.959270 0.271800 0.846600 1 0 1.000000
  0 2.575599 10.020800 2.579300 0.228989 0.704766 -0.671468 0.229900 0.819100 1 0 1.000000
  0 2.230500 8.958800 2.216500 -0.220199 -0.677596 -0.701695 0.271800 0.819100 1 0 1.000000
bts_stool
  0 1.706200 9.129100 2.216500 -0.282191 0.013000 -0.959270 0.271800 0.846600 1 0 1.000000
  0 2.110199 10.372500 3.166400 0.069200 0.996194 -0.053000 0.229900 0.846600 1 0 1.000000
  0 2.575599 10.020800 2.579300 0.228989 0.704766 -0.671468 0.229900 0.819100 1 0 1.000000
bts_stool
  0 1.551900 8.654200 3.753400 -0.305584 -0.940452 0.148892 0.271800 0.846600 1 0 1.000000
  0 2.230500 8.958800 2.216500 -0.220199 -0.677596 -0.701695 0.229900 0.819100 1 0 1.000000
  0 2.076200 8.483800 3.753400 0.066099 -0.677992 0.732091 0.271800 0.819100 1 0 1.000000
bts_stool
  0 1.551900 8.654200 3.753400 -0.305584 -0.940452 0.148892 0.271800 0.846600 1 0 1.000000
  0 1.706200 9.129100 2.216500 -0.282191 0.013000 -0.959270 0.229900 0.846600 1 0 1.000000
  0 2.230500 8.958800 2.216500 -0.220199 -0.677596 -0.701695 0.229900 0.819100 1 0 1.000000
bts_stool
  0 1.896999 9.716200 4.116200 0.063300 0.194800 0.978798 0.271800 0.846600 1 0 1.000000
  0 2.076200 8.483800 3.753400 0.066099 -0.677992 0.732091 0.229900 0.819100 1 0 1.000000
  0 2.575599 10.020800 3.753400 0.462805 0.641008 0.612307 0.271800 0.819100 1 0 1.000000
bts_stool
  0 1.896999 9.716200 4.116200 0.063300 0.194800 0.978798 0.271800 0.846600 1 0 1.000000
  0 1.551900 8.654200 3.753400 -0.305584 -0.940452 0.148892 0.229900 0.846600 1 0 1.000000
  0 2.076200 8.483800 3.753400 0.066099 -0.677992 0.732091 0.229900 0.819100 1 0 1.000000
bts_stool
  0 7.863000 -0.294800 3.166400 0.000000 -1.000000 0.000000 0.294200 0.827000 1 0 1.000000
  0 9.669700 -0.294800 3.753400 0.000000 -1.000000 0.000000 0.376100 0.841500 1 0 1.000000
  0 8.553100 -0.294800 4.116200 0.000000 -1.000000 0.000000 0.325500 0.850500 1 0 1.000000
bts_stool
  0 7.863000 -0.294800 3.166400 0.000000 -1.000000 0.000000 0.294200 0.827000 1 0 1.000000
  0 9.669700 -0.294800 2.579300 0.000000 -1.000000 0.000000 0.376100 0.812400 1 0 1.000000
  0 9.669700 -0.294800 3.753400 0.000000 -1.000000 0.000000 0.376100 0.841500 1 0 1.000000
bts_stool
  0 7.863000 -0.294800 3.166400 0.000000 -1.000000 0.000000 0.294200 0.827000 1 0 1.000000
  0 8.553100 -0.294800 2.216500 0.000000 -1.000000 0.000000 0.325500 0.803400 1 0 1.000000
  0 9.669700 -0.294800 2.579300 0.000000 -1.000000 0.000000 0.376100 0.812400 1 0 1.000000
bts_stool
  0 9.669700 0.256500 2.579300 0.000000 1.000000 0.000000 0.376100 0.812400 1 0 1.000000
  0 8.553100 0.256500 4.116200 0.000000 1.000000 0.000000 0.325500 0.850500 1 0 1.000000
  0 9.669700 0.256500 3.753400 0.000000 1.000000 0.000000 0.376100 0.841500 1 0 1.000000
bts_stool
  0 8.553100 0.256500 2.216500 0.000000 1.000000 0.000000 0.325500 0.803400 1 0 1.000000
  0 8.553100 0.256500 4.116200 0.000000 1.000000 0.000000 0.325500 0.850500 1 0 1.000000
  0 9.669700 0.256500 2.579300 0.000000 1.000000 0.000000 0.376100 0.812400 1 0 1.000000
bts_stool
  0 7.863000 0.256500 3.166400 0.000000 1.000000 0.000000 0.294200 0.827000 1 0 1.000000
  0 8.553100 0.256500 4.116200 0.000000 1.000000 0.000000 0.325500 0.850500 1 0 1.000000
  0 8.553100 0.256500 2.216500 0.000000 1.000000 0.000000 0.325500 0.803400 1 0 1.000000
bts_stool
  0 8.553100 0.256500 4.116200 -0.076498 0.000000 0.997070 0.271800 0.846600 1 0 1.000000
  0 7.863000 0.256500 3.166400 -0.971899 0.000000 0.235400 0.229900 0.846600 1 0 1.000000
  0 8.553100 -0.294800 4.116200 -0.524198 0.000000 0.851596 0.271800 0.819100 1 0 1.000000
bts_stool
  0 7.863000 0.256500 3.166400 -0.971899 0.000000 0.235400 0.229900 0.846600 1 0 1.000000
  0 7.863000 -0.294800 3.166400 -0.971899 0.000000 -0.235400 0.229900 0.819100 1 0 1.000000
  0 8.553100 -0.294800 4.116200 -0.524198 0.000000 0.851596 0.271800 0.819100 1 0 1.000000
bts_stool
  0 2.230500 -8.997100 2.216500 0.265286 0.387779 -0.882752 0.271800 0.846600 1 0 1.000000
  0 1.897000 -9.754500 2.216500 0.218412 -0.371321 -0.902450 0.229900 0.819100 1 0 1.000000
  0 1.551900 -8.692500 2.579300 -0.268103 0.825110 -0.497306 0.271800 0.819100 1 0 1.000000
bts_stool
  0 2.230500 -8.997100 2.216500 0.265286 0.387779 -0.882752 0.271800 0.846600 1 0 1.000000
  0 2.634501 -10.240500 3.166400 0.514692 -0.804587 -0.296195 0.229900 0.846600 1 0 1.000000
  0 1.897000 -9.754500 2.216500 0.218412 -0.371321 -0.902450 0.271800 0.819100 1 0 1.000000
bts_stool
  0 2.634501 -10.240500 3.166400 0.514692 -0.804587 -0.296195 0.229900 0.846600 1 0 1.000000
  0 2.110200 -10.410800 3.166400 0.300311 -0.924335 0.235409 0.229900 0.819100 1 0 1.000000
  0 1.897000 -9.754500 2.216500 0.218412 -0.371321 -0.902450 0.271800 0.819100 1 0 1.000000
bts_stool
  0 -9.751300 6.015500 3.753400 -0.587803 -0.809004 0.000000 0.376100 0.841500 1 0 1.000000
  0 -8.444000 5.065599 2.579300 -0.587803 -0.809004 0.000000 0.302800 0.812400 1 0 1.000000
  0 -8.848000 5.359200 4.116200 -0.587803 -0.809004 0.000000 0.325500 0.850500 1 0 1.000000
bts_stool
  0 -9.751300 6.015500 2.579300 -0.587803 -0.809004 0.000000 0.376100 0.812400 1 0 1.000000
  0 -8.444000 5.065599 2.579300 -0.587803 -0.809004 0.000000 0.302800 0.812400 1 0 1.000000
  0 -9.751300 6.015500 3.753400 -0.587803 -0.809004 0.000000 0.376100 0.841500 1 0 1.000000
bts_stool
  0 -7.965600 5.399499 3.166400 0.587803 0.809004 0.000000 0.294200 0.827000 1 0 1.000000
  0 -9.427300 6.461500 3.753400 0.587803 0.809004 0.000000 0.376100 0.841500 1 0 1.000000
  0 -8.523900 5.805099 4.116200 0.587803 0.809004 0.000000 0.325500 0.850500 1 0 1.000000
bts_stool
  0 -7.965600 5.399499 3.166400 0.587803 0.809004 0.000000 0.294200 0.827000 1 0 1.000000
  0 -9.427300 6.461500 2.579300 0.587803 0.809004 0.000000 0.376100 0.812400 1 0 1.000000
  0 -9.427300 6.461500 3.753400 0.587803 0.809004 0.000000 0.376100 0.841500 1 0 1.000000
bts_stool
  0 -7.965600 5.399499 3.166400 0.587803 0.809004 0.000000 0.294200 0.827000 1 0 1.000000
  0 -8.523900 5.805099 2.216500 0.587803 0.809004 0.000000 0.325500 0.803400 1 0 1.000000
  0 -9.427300 6.461500 2.579300 0.587803 0.809004 0.000000 0.376100 0.812400 1 0 1.000000
bts_stool
  0 2.421300 -9.584100 4.116200 0.951066 0.308989 0.000000 0.353400 0.850500 1 0 1.000000
  0 2.230500 -8.997100 2.216500 0.951066 0.308989 0.000000 0.325500 0.803400 1 0 1.000000
  0 2.076200 -8.522200 3.753400 0.951066 0.308989 0.000000 0.302800 0.841500 1 0 1.000000
bts_stool
  0 2.634501 -10.240500 3.166400 0.951066 0.308989 0.000000 0.384700 0.827000 1 0 1.000000
  0 2.230500 -8.997100 2.216500 0.951066 0.308989 0.000000 0.325500 0.803400 1 0 1.000000
  0 2.421300 -9.584100 4.116200 0.951066 0.308989 0.000000 0.353400 0.850500 1 0 1.000000
bts_stool
  0 1.176400 2.183100 31.215000 0.000000 0.000000 -1.000000 0.762000 0.553900 1 0 1.000000
  0 -3.155400 -2.148700 31.215000 0.000000 0.000000 -1.000000 0.600700 0.635000 1 0 1.000000
  0 -3.155400 2.183100 31.215000 0.000000 0.000000 -1.000000 0.600700 0.553900 1 0 1.000000
bts_stool
  0 -3.155400 -2.148700 31.215000 0.000000 0.000000 -1.000000 0.600700 0.635000 1 0 1.000000
  0 1.176400 2.183100 31.215000 0.000000 0.000000 -1.000000 0.762000 0.553900 1 0 1.000000
  0 1.176400 -2.148700 31.215000 0.000000 0.000000 -1.000000 0.761700 0.634900 1 0 1.000000
bts_stool
  0 -9.656300 -5.710801 4.143200 -0.255915 -0.185911 0.948654 0.465200 0.719100 1 0 1.000000
  0 -1.368000 -1.256300 7.252300 -0.255915 -0.185911 0.948654 0.832600 0.695000 1 0 1.000000
  0 -2.282200 0.002000 7.252300 -0.255915 -0.185911 0.948654 0.832800 0.724600 1 0 1.000000
bts_stool
  0 -1.368000 -1.256300 7.252300 -0.255915 -0.185911 0.948654 0.832600 0.695000 1 0 1.000000
  0 -9.656300 -5.710801 4.143200 -0.255915 -0.185911 0.948654 0.465200 0.719100 1 0 1.000000
  0 -9.088600 -6.491800 4.143200 -0.255910 -0.186007 0.948637 0.465800 0.700700 1 0 1.000000
bts_stool
  0 1.785300 -10.033100 4.143200 0.097803 -0.300908 0.948625 0.465200 0.719100 1 0 1.000000
  0 0.111200 -0.775600 7.252300 0.097803 -0.300908 0.948625 0.832600 0.695000 1 0 1.000000
  0 -1.368000 -1.256300 7.252300 0.097803 -0.300908 0.948625 0.832800 0.724600 1 0 1.000000
bts_stool
  0 0.111200 -0.775600 7.252300 0.097803 -0.300908 0.948625 0.832600 0.695000 1 0 1.000000
  0 1.785300 -10.033100 4.143200 0.097803 -0.300908 0.948625 0.465200 0.719100 1 0 1.000000
  0 2.703501 -9.734600 4.143200 0.097803 -0.300908 0.948625 0.465800 0.700700 1 0 1.000000
bts_stool
  0 -9.023300 -6.206300 2.216500 0.587803 -0.809004 0.000000 0.353400 0.803400 1 0 1.000000
  0 -9.023300 -6.206300 4.116200 0.587803 -0.809004 0.000000 0.353400 0.850500 1 0 1.000000
  0 -9.581600 -6.611900 3.166400 0.587803 -0.809004 0.000000 0.384700 0.827000 1 0 1.000000
bts_stool
  0 -8.119900 -5.549901 2.579300 0.587803 -0.809004 0.000000 0.302800 0.812400 1 0 1.000000
  0 -9.023300 -6.206300 4.116200 0.587803 -0.809004 0.000000 0.353400 0.850500 1 0 1.000000
  0 -9.023300 -6.206300 2.216500 0.587803 -0.809004 0.000000 0.353400 0.803400 1 0 1.000000
bts_stool
  0 -8.119900 -5.549901 3.753400 0.587803 -0.809004 0.000000 0.302800 0.841500 1 0 1.000000
  0 -9.023300 -6.206300 4.116200 0.587803 -0.809004 0.000000 0.353400 0.850500 1 0 1.000000
  0 -8.119900 -5.549901 2.579300 0.587803 -0.809004 0.000000 0.302800 0.812400 1 0 1.000000
bts_stool
  0 0.424700 -1.003600 5.340700 0.967597 0.252499 0.000000 0.797500 0.662300 1 0 1.000000
  0 2.703501 -9.734600 4.143200 0.967597 0.252499 0.000000 0.465800 0.700700 1 0 1.000000
  0 2.870700 -10.582700 2.669100 0.981100 0.193500 0.000000 0.417900 0.679400 1 0 1.000000
bts_stool
  0 3.787600 3.853500 19.700300 1.000000 0.000000 0.000000 0.342600 0.923200 1 0 1.000000
  0 3.787600 4.351000 19.968901 0.150907 -0.910742 -0.384418 0.345000 0.935200 1 0 1.000000
  0 2.390600 4.599700 19.320999 0.035699 0.218094 0.975274 0.291300 0.935200 1 0 1.000000
bts_stool
  0 2.800100 4.184500 18.623100 0.038301 -0.255606 -0.966022 0.290200 0.923300 1 0 1.000000
  0 2.390600 4.599700 19.320999 0.035699 0.218094 0.975274 0.291300 0.935200 1 0 1.000000
  0 3.787600 3.853500 19.700300 1.000000 0.000000 0.000000 0.342600 0.923200 1 0 1.000000
bts_stool
  0 2.390600 4.599700 19.320999 0.035699 0.218094 0.975274 0.291300 0.935200 1 0 1.000000
  0 2.800100 4.184500 18.623100 0.038301 -0.255606 -0.966022 0.290200 0.923300 1 0 1.000000
  0 3.787600 3.853500 19.700300 1.000000 0.000000 0.000000 0.342600 0.923200 1 0 1.000000
bts_stool
  0 2.390600 4.599700 19.320999 0.035699 0.218094 0.975274 0.291300 0.935200 1 0 1.000000
  0 -4.397000 4.102200 19.052401 -0.062800 -0.856804 0.511803 0.007400 0.923300 1 0 1.000000
  0 2.800100 4.184500 18.623100 0.038301 -0.255606 -0.966022 0.290200 0.923300 1 0 1.000000
bts_stool
  0 -4.397000 4.102200 19.052401 -0.062800 -0.856804 0.511803 0.007400 0.923300 1 0 1.000000
  0 2.390600 4.599700 19.320999 0.035699 0.218094 0.975274 0.291300 0.935200 1 0 1.000000
  0 -4.806500 4.768900 18.890400 -0.062098 0.861069 -0.504682 0.007400 0.935200 1 0 1.000000
bts_stool
  0 3.787600 4.351000 19.968901 0.150907 -0.910742 -0.384418 0.345000 0.935200 1 0 1.000000
  0 3.787600 3.853500 19.700300 1.000000 0.000000 0.000000 0.342600 0.923200 1 0 1.000000
  0 2.390600 4.599700 19.320999 0.035699 0.218094 0.975274 0.291300 0.935200 1 0 1.000000
bts_stool
  0 3.787600 3.853500 19.700300 1.000000 0.000000 0.000000 0.342600 0.923200 1 0 1.000000
  0 3.787600 4.351000 19.968901 0.150907 -0.910742 -0.384418 0.345000 0.935200 1 0 1.000000
  0 2.973100 -0.084000 30.155399 0.150907 -0.910742 -0.384418 0.758900 0.924800 1 0 1.000000
bts_stool
  0 3.787600 4.351000 19.968901 0.150907 -0.910742 -0.384418 0.345000 0.935200 1 0 1.000000
  0 3.787600 3.853500 19.700300 1.000000 0.000000 0.000000 0.342600 0.923200 1 0 1.000000
  0 2.973100 -0.084000 30.155399 0.150907 -0.910742 -0.384418 0.758900 0.924800 1 0 1.000000
bts_stool
  0 2.873000 -0.206900 32.338501 0.998878 -0.005800 0.046999 0.832500 0.924600 1 0 1.000000
  0 2.973100 -0.084000 30.155399 0.150907 -0.910742 -0.384418 0.758900 0.924800 1 0 1.000000
  0 3.787600 4.351000 19.968901 0.150907 -0.910742 -0.384418 0.345000 0.935200 1 0 1.000000
bts_stool
  0 2.973100 -0.084000 30.155399 0.150907 -0.910742 -0.384418 0.758900 0.924800 1 0 1.000000
  0 2.357400 0.340400 32.299301 -0.929892 -0.304197 -0.206798 0.836100 0.936200 1 0 1.000000
  0 3.787600 4.351000 19.968901 0.150907 -0.910742 -0.384418 0.345000 0.935200 1 0 1.000000
bts_stool
  0 -1.488400 -1.625200 5.340700 0.539235 -0.842155 0.000000 0.797500 0.662300 1 0 1.000000
  0 -9.088600 -6.491800 4.143200 0.539235 -0.842155 0.000000 0.465800 0.700700 1 0 1.000000
  0 -9.843500 -6.912900 2.669100 0.487196 -0.873293 0.000000 0.417900 0.679400 1 0 1.000000
bts_stool
  0 -1.290800 1.044400 22.916401 -0.349387 0.936966 0.004800 0.602100 0.359300 1 0 1.000000
  0 0.115000 0.777400 22.501301 0.784000 0.620700 0.008700 0.549200 0.351700 1 0 1.000000
  0 0.112300 0.779100 7.252300 0.648127 0.761532 0.000000 0.549300 0.070900 1 0 1.000000
bts_stool
  0 0.112300 0.779100 7.252300 0.648127 0.761532 0.000000 0.549300 0.070900 1 0 1.000000
  0 -1.368000 1.260300 7.252300 -0.524125 0.851641 0.000500 0.603200 0.070900 1 0 1.000000
  0 -1.290800 1.044400 22.916401 -0.349387 0.936966 0.004800 0.602100 0.359300 1 0 1.000000
bts_stool
  0 -2.048100 0.002000 22.916401 -0.999972 0.000000 0.007500 0.663000 0.359300 1 0 1.000000
  0 -1.290800 1.044400 22.916401 -0.349387 0.936966 0.004800 0.602100 0.359300 1 0 1.000000
  0 -1.368000 1.260300 7.252300 -0.524125 0.851641 0.000500 0.603200 0.070900 1 0 1.000000
bts_stool
  0 -1.368000 1.260300 7.252300 -0.524125 0.851641 0.000500 0.603200 0.070900 1 0 1.000000
  0 -2.282200 0.002000 7.252300 -0.971898 -0.235400 0.000700 0.663000 0.070900 1 0 1.000000
  0 -2.048100 0.002000 22.916401 -0.999972 0.000000 0.007500 0.663000 0.359300 1 0 1.000000
bts_stool
  0 -1.290800 -1.040300 22.916401 -0.347889 -0.937470 0.011100 0.723900 0.359300 1 0 1.000000
  0 -2.048100 0.002000 22.916401 -0.999972 0.000000 0.007500 0.663000 0.359300 1 0 1.000000
  0 -2.282200 0.002000 7.252300 -0.971898 -0.235400 0.000700 0.663000 0.070900 1 0 1.000000
bts_stool
  0 -2.282200 0.002000 7.252300 -0.971898 -0.235400 0.000700 0.663000 0.070900 1 0 1.000000
  0 -1.368000 -1.256300 7.252300 -0.076498 -0.997070 0.000300 0.722800 0.070900 1 0 1.000000
  0 -1.290800 -1.040300 22.916401 -0.347889 -0.937470 0.011100 0.723900 0.359300 1 0 1.000000
bts_stool
  0 0.115000 -0.773300 22.501301 0.784779 -0.619584 0.015400 0.776800 0.351700 1 0 1.000000
  0 -1.290800 -1.040300 22.916401 -0.347889 -0.937470 0.011100 0.723900 0.359300 1 0 1.000000
  0 -1.368000 -1.256300 7.252300 -0.076498 -0.997070 0.000300 0.722800 0.070900 1 0 1.000000
bts_stool
  0 -1.368000 -1.256300 7.252300 -0.076498 -0.997070 0.000300 0.722800 0.070900 1 0 1.000000
  0 0.111200 -0.775600 7.252300 0.924529 -0.381112 -0.000100 0.776700 0.070900 1 0 1.000000
  0 0.115000 -0.773300 22.501301 0.784779 -0.619584 0.015400 0.776800 0.351700 1 0 1.000000
bts_stool
  0 -1.290800 1.044400 31.241301 -0.076498 0.997070 0.000000 0.602100 0.512600 1 0 1.000000
  0 -0.065500 0.646200 31.241301 0.924649 0.380820 0.000000 0.548800 0.512600 1 0 1.000000
  0 0.115000 0.777400 22.501301 0.784000 0.620700 0.008700 0.549200 0.351700 1 0 1.000000
bts_stool
  0 0.115000 0.777400 22.501301 0.784000 0.620700 0.008700 0.549200 0.351700 1 0 1.000000
  0 -1.290800 1.044400 22.916401 -0.349387 0.936966 0.004800 0.602100 0.359300 1 0 1.000000
  0 -1.290800 1.044400 31.241301 -0.076498 0.997070 0.000000 0.602100 0.512600 1 0 1.000000
bts_stool
  0 -2.048100 0.002000 31.241301 -0.971899 0.235400 0.000000 0.663000 0.512600 1 0 1.000000
  0 -1.290800 1.044400 31.241301 -0.076498 0.997070 0.000000 0.602100 0.512600 1 0 1.000000
  0 -1.290800 1.044400 22.916401 -0.349387 0.936966 0.004800 0.602100 0.359300 1 0 1.000000
bts_stool
  0 -1.290800 1.044400 22.916401 -0.349387 0.936966 0.004800 0.602100 0.359300 1 0 1.000000
  0 -2.048100 0.002000 22.916401 -0.999972 0.000000 0.007500 0.663000 0.359300 1 0 1.000000
  0 -2.048100 0.002000 31.241301 -0.971899 0.235400 0.000000 0.663000 0.512600 1 0 1.000000
bts_stool
  0 -1.290800 -1.040300 31.241301 -0.524198 -0.851596 0.000000 0.723900 0.512600 1 0 1.000000
  0 -2.048100 0.002000 31.241301 -0.971899 0.235400 0.000000 0.663000 0.512600 1 0 1.000000
  0 -2.048100 0.002000 22.916401 -0.999972 0.000000 0.007500 0.663000 0.359300 1 0 1.000000
bts_stool
  0 -2.048100 0.002000 22.916401 -0.999972 0.000000 0.007500 0.663000 0.359300 1 0 1.000000
  0 -1.290800 -1.040300 22.916401 -0.347889 -0.937470 0.011100 0.723900 0.359300 1 0 1.000000
  0 -1.290800 -1.040300 31.241301 -0.524198 -0.851596 0.000000 0.723900 0.512600 1 0 1.000000
bts_stool
  0 -0.065500 -0.642100 31.241301 0.647913 -0.761715 0.000000 0.777200 0.512600 1 0 1.000000
  0 -1.290800 -1.040300 31.241301 -0.524198 -0.851596 0.000000 0.723900 0.512600 1 0 1.000000
  0 -1.290800 -1.040300 22.916401 -0.347889 -0.937470 0.011100 0.723900 0.359300 1 0 1.000000
bts_stool
  0 -1.290800 -1.040300 22.916401 -0.347889 -0.937470 0.011100 0.723900 0.359300 1 0 1.000000
  0 0.115000 -0.773300 22.501301 0.784779 -0.619584 0.015400 0.776800 0.351700 1 0 1.000000
  0 -0.065500 -0.642100 31.241301 0.647913 -0.761715 0.000000 0.777200 0.512600 1 0 1.000000
bts_stool
  0 -0.065500 0.646200 31.241301 0.924649 0.380820 0.000000 0.827200 0.512600 1 0 1.000000
  0 -0.065500 -0.642100 31.241301 0.647913 -0.761715 0.000000 0.777200 0.512600 1 0 1.000000
  0 0.115000 -0.773300 22.501301 0.784779 -0.619584 0.015400 0.776800 0.351700 1 0 1.000000
bts_stool
  0 0.115000 -0.773300 22.501301 0.784779 -0.619584 0.015400 0.776800 0.351700 1 0 1.000000
  0 0.115000 0.777400 22.501301 0.784000 0.620700 0.008700 0.827700 0.351700 1 0 1.000000
  0 -0.065500 0.646200 31.241301 0.924649 0.380820 0.000000 0.827200 0.512600 1 0 1.000000
bts_stool
  0 0.115000 0.777400 22.501301 0.784000 0.620700 0.008700 0.827700 0.351700 1 0 1.000000
  0 0.115000 -0.773300 22.501301 0.784779 -0.619584 0.015400 0.776800 0.351700 1 0 1.000000
  0 0.111200 -0.775600 7.252300 0.924529 -0.381112 -0.000100 0.776700 0.070900 1 0 1.000000
bts_stool
  0 0.111200 -0.775600 7.252300 0.924529 -0.381112 -0.000100 0.776700 0.070900 1 0 1.000000
  0 0.112300 0.779100 7.252300 0.648127 0.761532 0.000000 0.827800 0.070900 1 0 1.000000
  0 0.115000 0.777400 22.501301 0.784000 0.620700 0.008700 0.827700 0.351700 1 0 1.000000
bts_stool
  0 0.424500 1.007700 5.340700 0.058699 0.998276 0.000000 0.797500 0.662300 1 0 1.000000
  0 9.431500 0.478300 4.143200 0.058699 0.998276 0.000000 0.465800 0.700700 1 0 1.000000
  0 10.289800 0.375300 2.669100 0.119196 0.992871 0.000000 0.417900 0.679400 1 0 1.000000
bts_stool
  0 2.746600 -6.399200 32.896301 0.498407 -0.706810 -0.502007 0.404300 0.375300 1 0 1.000000
  0 5.889000 0.055500 32.196499 0.186607 0.013901 -0.982336 0.523900 0.481600 1 0 1.000000
  0 5.474700 -3.671100 32.896301 0.886632 -0.356413 -0.294710 0.493100 0.420500 1 0 1.000000
bts_stool
  0 -0.980000 -7.397800 32.896301 0.074000 -0.842495 -0.533597 0.277900 0.360100 1 0 1.000000
  0 5.889000 0.055500 32.196499 0.186607 0.013901 -0.982336 0.523900 0.481600 1 0 1.000000
  0 2.746600 -6.399200 32.896301 0.498407 -0.706810 -0.502007 0.404300 0.375300 1 0 1.000000
bts_stool
  0 -4.706600 -6.399200 32.896301 -0.355111 -0.760724 -0.543317 0.150200 0.375300 1 0 1.000000
  0 5.889000 0.055500 32.196499 0.186607 0.013901 -0.982336 0.523900 0.481600 1 0 1.000000
  0 -0.980000 -7.397800 32.896301 0.074000 -0.842495 -0.533597 0.277900 0.360100 1 0 1.000000
bts_stool
  0 -7.434700 -3.671100 32.896301 -0.686028 -0.479720 -0.547023 0.060100 0.422000 1 0 1.000000
  0 5.889000 0.055500 32.196499 0.186607 0.013901 -0.982336 0.523900 0.481600 1 0 1.000000
  0 -4.706600 -6.399200 32.896301 -0.355111 -0.760724 -0.543317 0.150200 0.375300 1 0 1.000000
bts_stool
  0 -8.433300 0.055500 32.896301 -0.833351 -0.072004 -0.548034 0.025200 0.482400 1 0 1.000000
  0 5.889000 0.055500 32.196499 0.186607 0.013901 -0.982336 0.523900 0.481600 1 0 1.000000
  0 -7.434700 -3.671100 32.896301 -0.686028 -0.479720 -0.547023 0.060100 0.422000 1 0 1.000000
bts_stool
  0 -7.434700 3.782100 32.896301 -0.757981 0.355191 -0.547086 0.061400 0.546700 1 0 1.000000
  0 5.889000 0.055500 32.196499 0.186607 0.013901 -0.982336 0.523900 0.481600 1 0 1.000000
  0 -8.433300 0.055500 32.896301 -0.833351 -0.072004 -0.548034 0.025200 0.482400 1 0 1.000000
bts_stool
  0 -4.706601 6.510200 32.896301 -0.478898 0.689397 -0.543497 0.150200 0.591900 1 0 1.000000
  0 5.889000 0.055500 32.196499 0.186607 0.013901 -0.982336 0.523900 0.481600 1 0 1.000000
  0 -7.434700 3.782100 32.896301 -0.757981 0.355191 -0.547086 0.061400 0.546700 1 0 1.000000
bts_stool
  0 -0.980000 7.508800 32.896301 -0.102002 0.794216 -0.599012 0.275200 0.607900 1 0 1.000000
  0 5.889000 0.055500 32.196499 0.186607 0.013901 -0.982336 0.523900 0.481600 1 0 1.000000
  0 -4.706601 6.510200 32.896301 -0.478898 0.689397 -0.543497 0.150200 0.591900 1 0 1.000000
bts_stool
  0 2.269400 5.816100 32.097198 0.185207 0.403515 -0.896032 0.401600 0.590300 1 0 1.000000
  0 5.889000 0.055500 32.196499 0.186607 0.013901 -0.982336 0.523900 0.481600 1 0 1.000000
  0 -0.980000 7.508800 32.896301 -0.102002 0.794216 -0.599012 0.275200 0.607900 1 0 1.000000
bts_stool
  0 5.474700 3.782100 32.896301 0.761166 0.523476 -0.382883 0.491700 0.545900 1 0 1.000000
  0 5.889000 0.055500 32.196499 0.186607 0.013901 -0.982336 0.523900 0.481600 1 0 1.000000
  0 2.269400 5.816100 32.097198 0.185207 0.403515 -0.896032 0.401600 0.590300 1 0 1.000000
bts_stool
  0 -1.488400 1.629300 5.340700 -0.931318 0.364207 0.000000 0.797500 0.662300 1 0 1.000000
  0 1.797500 10.033000 4.143200 -0.931318 0.364207 0.000000 0.465800 0.700700 1 0 1.000000
  0 2.160800 10.817500 2.669100 -0.907426 0.420212 0.000000 0.417900 0.679400 1 0 1.000000
bts_stool
  0 -9.751300 -6.053801 2.579300 -0.587803 0.809004 0.000000 0.376100 0.812400 1 0 1.000000
  0 -8.289600 -4.991800 3.166400 -0.587803 0.809004 0.000000 0.294200 0.827000 1 0 1.000000
  0 -8.848000 -5.397501 2.216500 -0.587803 0.809004 0.000000 0.325500 0.803400 1 0 1.000000
bts_stool
  0 -9.751300 -6.053801 2.579300 -0.587803 0.809004 0.000000 0.376100 0.812400 1 0 1.000000
  0 -8.848000 -5.397501 4.116200 -0.587803 0.809004 0.000000 0.325500 0.850500 1 0 1.000000
  0 -8.289600 -4.991800 3.166400 -0.587803 0.809004 0.000000 0.294200 0.827000 1 0 1.000000
bts_stool
  0 -9.751300 -6.053801 2.579300 -0.587803 0.809004 0.000000 0.376100 0.812400 1 0 1.000000
  0 -9.751300 -6.053801 3.753400 -0.587803 0.809004 0.000000 0.376100 0.841500 1 0 1.000000
  0 -8.848000 -5.397501 4.116200 -0.587803 0.809004 0.000000 0.325500 0.850500 1 0 1.000000
bts_stool
  0 -2.670600 0.002000 5.340700 -0.634185 -0.773181 0.000000 0.797500 0.662300 1 0 1.000000
  0 -9.648500 5.725200 4.143200 -0.634185 -0.773181 0.000000 0.465800 0.700700 1 0 1.000000
  0 -10.282300 6.313099 2.669100 -0.680006 -0.733206 0.000000 0.417900 0.679400 1 0 1.000000
bts_stool
  0 1.551900 -8.692500 3.753400 -0.951066 -0.308989 0.000000 0.302800 0.841500 1 0 1.000000
  0 2.110200 -10.410800 3.166400 -0.951066 -0.308989 0.000000 0.384700 0.827000 1 0 1.000000
  0 1.897000 -9.754500 4.116200 -0.951066 -0.308989 0.000000 0.353400 0.850500 1 0 1.000000
bts_stool
  0 1.551900 -8.692500 3.753400 -0.951066 -0.308989 0.000000 0.302800 0.841500 1 0 1.000000
  0 1.897000 -9.754500 2.216500 -0.951066 -0.308989 0.000000 0.353400 0.803400 1 0 1.000000
  0 2.110200 -10.410800 3.166400 -0.951066 -0.308989 0.000000 0.384700 0.827000 1 0 1.000000
bts_stool
  0 1.551900 -8.692500 3.753400 -0.951066 -0.308989 0.000000 0.302800 0.841500 1 0 1.000000
  0 1.551900 -8.692500 2.579300 -0.951066 -0.308989 0.000000 0.302800 0.812400 1 0 1.000000
  0 1.897000 -9.754500 2.216500 -0.951066 -0.308989 0.000000 0.353400 0.803400 1 0 1.000000
bts_stool
  0 -8.444000 5.065599 2.579300 0.388799 -0.742399 -0.545599 0.271800 0.846600 1 0 1.000000
  0 -8.523900 5.805099 2.216500 0.099204 -0.187007 -0.977337 0.229900 0.819100 1 0 1.000000
  0 -7.965600 5.399499 3.166400 0.804291 -0.584394 0.107699 0.271800 0.819100 1 0 1.000000
bts_stool
  0 -8.444000 5.065599 2.579300 0.388799 -0.742399 -0.545599 0.271800 0.846600 1 0 1.000000
  0 -9.751300 6.015500 2.579300 -0.605684 0.142296 -0.782879 0.229900 0.846600 1 0 1.000000
  0 -8.523900 5.805099 2.216500 0.099204 -0.187007 -0.977337 0.271800 0.819100 1 0 1.000000
bts_stool
  0 -9.751300 6.015500 2.579300 -0.605684 0.142296 -0.782879 0.229900 0.846600 1 0 1.000000
  0 -9.427300 6.461500 2.579300 -0.748035 0.543526 -0.380818 0.229900 0.819100 1 0 1.000000
  0 -8.523900 5.805099 2.216500 0.099204 -0.187007 -0.977337 0.271800 0.819100 1 0 1.000000
bts_stool
  0 -2.670600 0.002000 5.340700 0.000000 0.000000 -1.000000 0.000000 0.000000 1 0 1.000000
  0 0.424700 -1.003600 5.340700 0.000000 0.000000 -1.000000 0.000000 0.000000 1 0 1.000000
  0 -1.488400 -1.625200 5.340700 0.000000 0.000000 -1.000000 0.000000 0.000000 1 0 1.000000
bts_stool
  0 -2.670600 0.002000 5.340700 0.000000 0.000000 -1.000000 0.000000 0.000000 1 0 1.000000
  0 0.424500 1.007700 5.340700 0.000000 0.000000 -1.000000 0.000000 0.000000 1 0 1.000000
  0 0.424700 -1.003600 5.340700 0.000000 0.000000 -1.000000 0.000000 0.000000 1 0 1.000000
bts_stool
  0 -2.670600 0.002000 5.340700 0.000000 0.000000 -1.000000 0.000000 0.000000 1 0 1.000000
  0 -1.488400 1.629300 5.340700 0.000000 0.000000 -1.000000 0.000000 0.000000 1 0 1.000000
  0 0.424500 1.007700 5.340700 0.000000 0.000000 -1.000000 0.000000 0.000000 1 0 1.000000
bts_stool
  0 -4.397000 4.102200 19.052401 -0.062800 -0.856804 0.511803 0.291300 0.935200 1 0 1.000000
  0 -4.806500 4.768900 18.890400 -0.062098 0.861069 -0.504682 0.290200 0.923300 1 0 1.000000
  0 -5.647100 4.350999 19.968901 -0.079599 0.473692 -0.877086 0.342600 0.923200 1 0 1.000000
bts_stool
  0 -4.806500 4.768900 18.890400 -0.062098 0.861069 -0.504682 0.290200 0.923300 1 0 1.000000
  0 -4.397000 4.102200 19.052401 -0.062800 -0.856804 0.511803 0.291300 0.935200 1 0 1.000000
  0 -5.647100 4.350999 19.968901 -0.079599 0.473692 -0.877086 0.342600 0.923200 1 0 1.000000
bts_stool
  0 -5.647100 3.853500 19.700300 0.408618 -0.810836 -0.419018 0.345000 0.935200 1 0 1.000000
  0 -5.647100 4.350999 19.968901 -0.079599 0.473692 -0.877086 0.342600 0.923200 1 0 1.000000
  0 -4.397000 4.102200 19.052401 -0.062800 -0.856804 0.511803 0.291300 0.935200 1 0 1.000000
bts_stool
  0 -5.647100 4.350999 19.968901 -0.079599 0.473692 -0.877086 0.342600 0.923200 1 0 1.000000
  0 -5.647100 3.853500 19.700300 0.408618 -0.810836 -0.419018 0.345000 0.935200 1 0 1.000000
  0 -4.397000 4.102200 19.052401 -0.062800 -0.856804 0.511803 0.291300 0.935200 1 0 1.000000
bts_stool
  0 -5.647100 3.853500 19.700300 0.408618 -0.810836 -0.419018 0.345000 0.935200 1 0 1.000000
  0 -5.647100 4.350999 19.968901 -0.079599 0.473692 -0.877086 0.342600 0.923200 1 0 1.000000
  0 -4.361700 0.340400 32.299301 0.982368 -0.185694 -0.021699 0.832500 0.924600 1 0 1.000000
bts_stool
  0 -5.647100 4.350999 19.968901 -0.079599 0.473692 -0.877086 0.342600 0.923200 1 0 1.000000
  0 -5.647100 3.853500 19.700300 0.408618 -0.810836 -0.419018 0.345000 0.935200 1 0 1.000000
  0 -4.877300 -0.206900 32.338501 -0.580805 -0.813906 -0.014900 0.836100 0.936200 1 0 1.000000
bts_stool
  0 -4.461800 -0.077000 30.117500 0.627114 -0.773617 -0.090802 0.756700 0.936100 1 0 1.000000
  0 -4.877300 -0.206900 32.338501 -0.580805 -0.813906 -0.014900 0.836100 0.936200 1 0 1.000000
  0 -5.647100 3.853500 19.700300 0.408618 -0.810836 -0.419018 0.345000 0.935200 1 0 1.000000
bts_stool
  0 -4.361700 0.340400 32.299301 0.982368 -0.185694 -0.021699 0.832500 0.924600 1 0 1.000000
  0 -4.877300 -0.206900 32.338501 -0.580805 -0.813906 -0.014900 0.836100 0.936200 1 0 1.000000
  0 -4.461800 -0.077000 30.117500 0.627114 -0.773617 -0.090802 0.756700 0.936100 1 0 1.000000
bts_stool
  0 -4.361700 0.340400 32.299301 0.982368 -0.185694 -0.021699 0.832500 0.924600 1 0 1.000000
  0 -4.461800 -0.077000 30.117500 0.627114 -0.773617 -0.090802 0.756700 0.936100 1 0 1.000000
  0 -5.647100 3.853500 19.700300 0.408618 -0.810836 -0.419018 0.345000 0.935200 1 0 1.000000
bts_stool
  0 0.424700 -1.003600 5.340700 -0.068500 0.210901 -0.975104 0.016200 0.729000 1 0 1.000000
  0 2.870700 -10.582700 2.669100 -0.080802 0.248607 -0.965228 0.399400 0.717200 1 0 1.000000
  0 -1.488400 -1.625200 5.340700 -0.068500 0.210901 -0.975104 0.016200 0.690600 1 0 1.000000
bts_stool
  0 2.870700 -10.582700 2.669100 -0.080802 0.248607 -0.965228 0.399400 0.717200 1 0 1.000000
  0 2.148700 -10.817500 2.669100 -0.080802 0.248607 -0.965228 0.398400 0.702600 1 0 1.000000
  0 -1.488400 -1.625200 5.340700 -0.068500 0.210901 -0.975104 0.016200 0.690600 1 0 1.000000
bts_stool
  0 -2.670600 0.002000 5.340700 0.179399 -0.130399 -0.975096 0.016200 0.729000 1 0 1.000000
  0 -10.282300 6.313099 2.669100 0.211411 -0.153608 -0.965251 0.399400 0.717200 1 0 1.000000
  0 -1.488400 1.629300 5.340700 0.179399 -0.130399 -0.975096 0.016200 0.690600 1 0 1.000000
bts_stool
  0 -10.282300 6.313099 2.669100 0.211411 -0.153608 -0.965251 0.399400 0.717200 1 0 1.000000
  0 -9.836200 6.927400 2.669100 0.211391 -0.153593 -0.965258 0.398400 0.702600 1 0 1.000000
  0 -1.488400 1.629300 5.340700 0.179399 -0.130399 -0.975096 0.016200 0.690600 1 0 1.000000
bts_stool
  0 0.424500 1.007700 5.340700 -0.221798 0.000000 -0.975092 0.016200 0.729000 1 0 1.000000
  0 10.289800 0.375300 2.669100 -0.261408 0.000000 -0.965228 0.399400 0.717200 1 0 1.000000
  0 0.424700 -1.003600 5.340700 -0.221798 0.000000 -0.975092 0.016200 0.690600 1 0 1.000000
bts_stool
  0 10.289800 0.375300 2.669100 -0.261408 0.000000 -0.965228 0.399400 0.717200 1 0 1.000000
  0 10.290000 -0.384000 2.669100 -0.261408 0.000000 -0.965228 0.398400 0.702600 1 0 1.000000
  0 0.424700 -1.003600 5.340700 -0.221798 0.000000 -0.975092 0.016200 0.690600 1 0 1.000000
bts_stool
  0 -2.048100 0.002000 31.241301 0.000000 0.000000 1.000000 0.250000 0.999500 1 0 1.000000
  0 -0.065500 0.646200 31.241301 0.000000 0.000000 1.000000 0.843800 0.999500 1 0 1.000000
  0 -1.290800 1.044400 31.241301 0.000000 0.000000 1.000000 0.030500 0.999500 1 0 1.000000
bts_stool
  0 -2.048100 0.002000 31.241301 0.000000 0.000000 1.000000 0.250000 0.999500 1 0 1.000000
  0 -0.065500 -0.642100 31.241301 0.000000 0.000000 1.000000 0.656200 0.999500 1 0 1.000000
  0 -0.065500 0.646200 31.241301 0.000000 0.000000 1.000000 0.843800 0.999500 1 0 1.000000
bts_stool
  0 -2.048100 0.002000 31.241301 0.000000 0.000000 1.000000 0.250000 0.999500 1 0 1.000000
  0 -1.290800 -1.040300 31.241301 0.000000 0.000000 1.000000 0.469500 0.999500 1 0 1.000000
  0 -0.065500 -0.642100 31.241301 0.000000 0.000000 1.000000 0.656200 0.999500 1 0 1.000000
bts_stool
  0 2.873000 -0.206900 32.338501 -0.170103 -0.089902 0.981317 0.662700 0.751800 1 0 1.000000
  0 2.357400 0.340400 32.299301 -0.170103 -0.089902 0.981317 0.661200 0.761400 1 0 1.000000
  0 2.973100 -0.084000 30.155399 -0.723393 -0.686693 -0.071799 0.583300 0.749900 1 0 1.000000
bts_stool
  0 2.357400 0.340400 32.299301 -0.170103 -0.089902 0.981317 0.661200 0.761400 1 0 1.000000
  0 2.873000 -0.206900 32.338501 -0.170103 -0.089902 0.981317 0.583300 0.749900 1 0 1.000000
  0 3.787600 4.351000 19.968901 0.684586 0.666086 0.296094 0.172400 0.737500 1 0 1.000000
bts_stool
  0 0.112300 0.779100 7.252300 0.960230 -0.279209 0.000000 0.832800 0.724600 1 0 1.000000
  0 2.882900 10.583000 2.669100 0.981138 -0.193307 0.000000 0.417400 0.740200 1 0 1.000000
  0 2.715899 9.734800 4.143200 0.960230 -0.279209 0.000000 0.465200 0.719100 1 0 1.000000
bts_stool
  0 2.882900 10.583000 2.669100 0.981138 -0.193307 0.000000 0.417400 0.740200 1 0 1.000000
  0 0.112300 0.779100 7.252300 0.966008 -0.222802 0.131101 0.832800 0.724600 1 0 1.000000
  0 0.424500 1.007700 5.340700 0.966008 -0.222802 0.131101 0.796800 0.757000 1 0 1.000000
bts_stool
  0 0.111200 -0.775600 7.252300 0.030901 -0.999522 0.000000 0.832800 0.724600 1 0 1.000000
  0 10.290000 -0.384000 2.669100 0.119406 -0.992845 0.000000 0.417400 0.740200 1 0 1.000000
  0 9.431700 -0.487200 4.143200 0.030901 -0.999522 0.000000 0.465200 0.719100 1 0 1.000000
bts_stool
  0 10.290000 -0.384000 2.669100 0.119406 -0.992845 0.000000 0.417400 0.740200 1 0 1.000000
  0 0.111200 -0.775600 7.252300 0.086598 -0.987473 0.131896 0.832800 0.724600 1 0 1.000000
  0 0.424700 -1.003600 5.340700 0.086598 -0.987473 0.131896 0.796800 0.757000 1 0 1.000000
bts_stool
  0 -1.368000 -1.256300 7.252300 -0.941109 -0.338103 0.000000 0.832800 0.724600 1 0 1.000000
  0 2.148700 -10.817500 2.669100 -0.907350 -0.420377 0.000000 0.417400 0.740200 1 0 1.000000
  0 1.785300 -10.033100 4.143200 -0.941109 -0.338103 0.000000 0.465200 0.719100 1 0 1.000000
bts_stool
  0 2.148700 -10.817500 2.669100 -0.907350 -0.420377 0.000000 0.417400 0.740200 1 0 1.000000
  0 -1.368000 -1.256300 7.252300 -0.912351 -0.387479 0.132193 0.832800 0.724600 1 0 1.000000
  0 -1.488400 -1.625200 5.340700 -0.912351 -0.387479 0.132193 0.796800 0.757000 1 0 1.000000
bts_stool
  0 -1.368000 1.260300 7.252300 0.562384 0.826876 0.000000 0.832800 0.724600 1 0 1.000000
  0 -9.836200 6.927400 2.669100 0.487001 0.873401 0.000000 0.417400 0.740200 1 0 1.000000
  0 -9.081100 6.506400 4.143200 0.562384 0.826876 0.000000 0.465200 0.719100 1 0 1.000000
bts_stool
  0 -9.836200 6.927400 2.669100 0.487001 0.873401 0.000000 0.417400 0.740200 1 0 1.000000
  0 -1.368000 1.260300 7.252300 0.510309 0.849815 0.131902 0.832800 0.724600 1 0 1.000000
  0 -1.488400 1.629300 5.340700 0.510309 0.849815 0.131902 0.796800 0.757000 1 0 1.000000
bts_stool
  0 -2.282200 0.002000 7.252300 -0.612423 0.790530 0.000000 0.832800 0.724600 1 0 1.000000
  0 -10.290000 -6.298800 2.669100 -0.680163 0.733060 0.000000 0.417400 0.740200 1 0 1.000000
  0 -9.656300 -5.710801 4.143200 -0.612423 0.790530 0.000000 0.465200 0.719100 1 0 1.000000
bts_stool
  0 -10.290000 -6.298800 2.669100 -0.680163 0.733060 0.000000 0.417400 0.740200 1 0 1.000000
  0 -2.282200 0.002000 7.252300 -0.650400 0.748000 0.132200 0.832800 0.724600 1 0 1.000000
  0 -2.670600 0.002000 5.340700 -0.650400 0.748000 0.132200 0.796800 0.757000 1 0 1.000000
bts_stool
  0 -5.647100 4.350999 19.968901 -0.686502 0.667402 0.288601 0.172400 0.912700 1 0 1.000000
  0 -4.877300 -0.206900 32.338501 -0.686502 0.667402 0.288601 0.662700 0.895700 1 0 1.000000
  0 -4.361700 0.340400 32.299301 -0.686502 0.667402 0.288601 0.661200 0.886200 1 0 1.000000
bts_stool
  0 9.669700 0.256500 2.579300 0.647912 0.000000 -0.761715 0.271800 0.846600 1 0 1.000000
  0 9.669700 0.256500 3.753400 0.924649 0.000000 0.380820 0.229900 0.846600 1 0 1.000000
  0 9.669700 -0.294800 2.579300 0.924649 0.000000 -0.380820 0.271800 0.819100 1 0 1.000000
bts_stool
  0 9.669700 0.256500 3.753400 0.924649 0.000000 0.380820 0.229900 0.846600 1 0 1.000000
  0 9.669700 -0.294800 3.753400 0.647912 0.000000 0.761715 0.229900 0.819100 1 0 1.000000
  0 9.669700 -0.294800 2.579300 0.924649 0.000000 -0.380820 0.271800 0.819100 1 0 1.000000
bts_stool
  0 9.669700 0.256500 3.753400 0.924649 0.000000 0.380820 0.271800 0.846600 1 0 1.000000
  0 8.553100 0.256500 4.116200 -0.076498 0.000000 0.997070 0.229900 0.846600 1 0 1.000000
  0 9.669700 -0.294800 3.753400 0.647912 0.000000 0.761715 0.271800 0.819100 1 0 1.000000
bts_stool
  0 8.553100 0.256500 4.116200 -0.076498 0.000000 0.997070 0.229900 0.846600 1 0 1.000000
  0 8.553100 -0.294800 4.116200 -0.524198 0.000000 0.851596 0.229900 0.819100 1 0 1.000000
  0 9.669700 -0.294800 3.753400 0.647912 0.000000 0.761715 0.271800 0.819100 1 0 1.000000
bts_stool
  0 -9.751300 6.015500 2.579300 -0.605684 0.142296 -0.782879 0.271800 0.846600 1 0 1.000000
  0 -9.751300 6.015500 3.753400 -0.748035 0.543526 0.380818 0.229900 0.846600 1 0 1.000000
  0 -9.427300 6.461500 2.579300 -0.748035 0.543526 -0.380818 0.271800 0.819100 1 0 1.000000
bts_stool
  0 -9.751300 6.015500 3.753400 -0.748035 0.543526 0.380818 0.229900 0.846600 1 0 1.000000
  0 -9.427300 6.461500 3.753400 -0.524205 0.380804 0.761707 0.229900 0.819100 1 0 1.000000
  0 -9.427300 6.461500 2.579300 -0.748035 0.543526 -0.380818 0.271800 0.819100 1 0 1.000000
bts_stool
  0 -9.751300 6.015500 3.753400 -0.748035 0.543526 0.380818 0.271800 0.846600 1 0 1.000000
  0 -8.848000 5.359200 4.116200 0.159607 -0.344715 0.925039 0.229900 0.846600 1 0 1.000000
  0 -9.427300 6.461500 3.753400 -0.524205 0.380804 0.761707 0.271800 0.819100 1 0 1.000000
bts_stool
  0 -8.848000 5.359200 4.116200 0.159607 -0.344715 0.925039 0.229900 0.846600 1 0 1.000000
  0 -8.523900 5.805099 4.116200 0.165700 -0.120400 0.978799 0.229900 0.819100 1 0 1.000000
  0 -9.427300 6.461500 3.753400 -0.524205 0.380804 0.761707 0.271800 0.819100 1 0 1.000000
bts_stool
  0 2.634501 -10.240500 3.166400 0.514692 -0.804587 -0.296195 0.271800 0.846600 1 0 1.000000
  0 2.421300 -9.584100 4.116200 0.162003 -0.498508 0.851613 0.229900 0.846600 1 0 1.000000
  0 2.110200 -10.410800 3.166400 0.300311 -0.924335 0.235409 0.271800 0.819100 1 0 1.000000
bts_stool
  0 2.421300 -9.584100 4.116200 0.162003 -0.498508 0.851613 0.229900 0.846600 1 0 1.000000
  0 1.897000 -9.754500 4.116200 0.023599 -0.072698 0.997075 0.229900 0.819100 1 0 1.000000
  0 2.110200 -10.410800 3.166400 0.300311 -0.924335 0.235409 0.271800 0.819100 1 0 1.000000
bts_stool
  0 7.863000 0.256500 3.166400 -0.971899 0.000000 0.235400 0.271800 0.846600 1 0 1.000000
  0 8.553100 0.256500 2.216500 -0.524198 0.000000 -0.851596 0.229900 0.846600 1 0 1.000000
  0 7.863000 -0.294800 3.166400 -0.971899 0.000000 -0.235400 0.271800 0.819100 1 0 1.000000
bts_stool
  0 8.553100 0.256500 2.216500 -0.524198 0.000000 -0.851596 0.229900 0.846600 1 0 1.000000
  0 8.553100 -0.294800 2.216500 -0.076498 0.000000 -0.997070 0.229900 0.819100 1 0 1.000000
  0 7.863000 -0.294800 3.166400 -0.971899 0.000000 -0.235400 0.271800 0.819100 1 0 1.000000
bts_stool
  0 2.421300 -9.584100 4.116200 0.162003 -0.498508 0.851613 0.271800 0.846600 1 0 1.000000
  0 2.076200 -8.522200 3.753400 -0.074903 0.829528 0.553419 0.229900 0.846600 1 0 1.000000
  0 1.897000 -9.754500 4.116200 0.023599 -0.072698 0.997075 0.271800 0.819100 1 0 1.000000
bts_stool
  0 2.076200 -8.522200 3.753400 -0.074903 0.829528 0.553419 0.229900 0.846600 1 0 1.000000
  0 1.551900 -8.692500 3.753400 -0.228989 0.704766 0.671468 0.229900 0.819100 1 0 1.000000
  0 1.897000 -9.754500 4.116200 0.023599 -0.072698 0.997075 0.271800 0.819100 1 0 1.000000
bts_stool
  0 8.553100 0.256500 2.216500 -0.524198 0.000000 -0.851596 0.271800 0.846600 1 0 1.000000
  0 9.669700 0.256500 2.579300 0.647912 0.000000 -0.761715 0.229900 0.846600 1 0 1.000000
  0 8.553100 -0.294800 2.216500 -0.076498 0.000000 -0.997070 0.271800 0.819100 1 0 1.000000
bts_stool
  0 9.669700 0.256500 2.579300 0.647912 0.000000 -0.761715 0.229900 0.846600 1 0 1.000000
  0 9.669700 -0.294800 2.579300 0.924649 0.000000 -0.380820 0.229900 0.819100 1 0 1.000000
  0 8.553100 -0.294800 2.216500 -0.076498 0.000000 -0.997070 0.271800 0.819100 1 0 1.000000
bts_stool
  0 9.431500 0.478300 4.143200 0.075497 0.988557 0.130594 0.465800 0.700700 1 0 1.000000
  0 0.424500 1.007700 5.340700 0.075497 0.988557 0.130594 0.797500 0.662300 1 0 1.000000
  0 0.112300 0.779100 7.252300 0.075497 0.988557 0.130594 0.832600 0.695000 1 0 1.000000
bts_stool
  0 -1.488400 -1.625200 5.340700 0.179399 0.130399 -0.975096 0.016200 0.729000 1 0 1.000000
  0 -9.843500 -6.912900 2.669100 0.211391 0.153593 -0.965258 0.399400 0.717200 1 0 1.000000
  0 -2.670600 0.002000 5.340700 0.179399 0.130399 -0.975096 0.016200 0.690600 1 0 1.000000
bts_stool
  0 -9.843500 -6.912900 2.669100 0.211391 0.153593 -0.965258 0.399400 0.717200 1 0 1.000000
  0 -10.290000 -6.298800 2.669100 0.211391 0.153593 -0.965258 0.398400 0.702600 1 0 1.000000
  0 -2.670600 0.002000 5.340700 0.179399 0.130399 -0.975096 0.016200 0.690600 1 0 1.000000
bts_stool
  0 -1.488400 1.629300 5.340700 -0.068500 -0.210901 -0.975104 0.016200 0.729000 1 0 1.000000
  0 2.160800 10.817500 2.669100 -0.080802 -0.248607 -0.965228 0.399400 0.717200 1 0 1.000000
  0 0.424500 1.007700 5.340700 -0.068500 -0.210901 -0.975104 0.016200 0.690600 1 0 1.000000
bts_stool
  0 2.160800 10.817500 2.669100 -0.080802 -0.248607 -0.965228 0.399400 0.717200 1 0 1.000000
  0 2.882900 10.583000 2.669100 -0.080703 -0.248609 -0.965236 0.398400 0.702600 1 0 1.000000
  0 0.424500 1.007700 5.340700 -0.068500 -0.210901 -0.975104 0.016200 0.690600 1 0 1.000000
bts_stool
  0 -9.088600 -6.491800 4.143200 0.519993 -0.844189 0.130198 0.465800 0.700700 1 0 1.000000
  0 -1.488400 -1.625200 5.340700 0.519993 -0.844189 0.130198 0.797500 0.662300 1 0 1.000000
  0 -1.368000 -1.256300 7.252300 0.519993 -0.844189 0.130198 0.832600 0.695000 1 0 1.000000
bts_stool
  0 2.703501 -9.734600 4.143200 0.963568 0.233692 0.130096 0.465800 0.700700 1 0 1.000000
  0 0.424700 -1.003600 5.340700 0.963568 0.233692 0.130096 0.797500 0.662300 1 0 1.000000
  0 0.111200 -0.775600 7.252300 0.963568 0.233692 0.130096 0.832600 0.695000 1 0 1.000000
bts_stool
  0 1.797500 10.033000 4.143200 -0.916927 0.377111 0.130504 0.465800 0.700700 1 0 1.000000
  0 -1.488400 1.629300 5.340700 -0.916927 0.377111 0.130504 0.797500 0.662300 1 0 1.000000
  0 -1.368000 1.260300 7.252300 -0.916927 0.377111 0.130504 0.832600 0.695000 1 0 1.000000
end
