// Created by Crowbar 0.74
version 1
nodes
  0 "static_prop" -1
end
skeleton
  time 0
    0 0.000000 0.000000 0.000000 0.000000 0.000000 0.000000
end
triangles
  phy
    0 -4.877800 6.785400 35.845001 -0.269674 -0.934202 -0.233543 0 0
    0 2.701100 6.785400 35.845001 -0.260166 -0.961349 0.090124 0 0
    0 -4.877800 6.785400 33.002998 -0.337092 0.934202 -0.116771 0 0
  phy
    0 -4.877800 6.785400 33.002998 -0.337092 0.934202 -0.116771 0 0
    0 2.701100 6.785400 35.845001 -0.260166 -0.961349 0.090124 0 0
    0 2.701100 6.785400 33.002998 -0.168825 0.974742 0.146207 0 0
  phy
    0 -4.877799 -6.341600 35.845001 0.177216 -0.982255 -0.061389 0 0
    0 -4.877800 6.785400 35.845001 -0.269674 -0.934202 -0.233543 0 0
    0 -8.667300 0.221900 35.845001 0.142373 -0.657612 -0.739781 0 0
  phy
    0 -4.877799 -6.341600 35.845001 0.177216 -0.982255 -0.061389 0 0
    0 2.701100 6.785400 35.845001 -0.260166 -0.961349 0.090124 0 0
    0 -4.877800 6.785400 35.845001 -0.269674 -0.934202 -0.233543 0 0
  phy
    0 -4.877799 -6.341600 35.845001 0.177216 -0.982255 -0.061389 0 0
    0 6.490500 0.221900 35.845001 -0.067418 -0.934202 0.350317 0 0
    0 2.701100 6.785400 35.845001 -0.260166 -0.961349 0.090124 0 0
  phy
    0 -4.877799 -6.341600 35.845001 0.177216 -0.982255 -0.061389 0 0
    0 2.701100 -6.341600 35.845001 0.569486 -0.657608 0.493191 0 0
    0 6.490500 0.221900 35.845001 -0.067418 -0.934202 0.350317 0 0
  phy
    0 6.490500 0.221900 35.845001 -0.067418 -0.934202 0.350317 0 0
    0 2.701100 6.785400 33.002998 -0.168825 0.974742 0.146207 0 0
    0 2.701100 6.785400 35.845001 -0.260166 -0.961349 0.090124 0 0
  phy
    0 -4.877799 -6.341600 35.845001 0.177216 -0.982255 -0.061389 0 0
    0 2.701100 -6.341600 33.002998 0.337093 0.934202 0.116772 0 0
    0 2.701100 -6.341600 35.845001 0.569486 -0.657608 0.493191 0 0
  phy
    0 -4.877799 -6.341600 35.845001 0.177216 -0.982255 -0.061389 0 0
    0 -4.877799 -6.341600 33.002998 0.168826 0.974742 -0.146207 0 0
    0 2.701100 -6.341600 33.002998 0.337093 0.934202 0.116772 0 0
  phy
    0 6.490500 0.221900 33.002998 0.142371 0.657602 0.739790 0 0
    0 6.490500 0.221900 35.845001 -0.067418 -0.934202 0.350317 0 0
    0 2.701100 -6.341600 35.845001 0.569486 -0.657608 0.493191 0 0
  phy
    0 2.701100 -6.341600 35.845001 0.569486 -0.657608 0.493191 0 0
    0 2.701100 -6.341600 33.002998 0.337093 0.934202 0.116772 0 0
    0 6.490500 0.221900 33.002998 0.142371 0.657602 0.739790 0 0
  phy
    0 6.490500 0.221900 33.002998 0.142371 0.657602 0.739790 0 0
    0 2.701100 -6.341600 33.002998 0.337093 0.934202 0.116772 0 0
    0 2.701100 6.785400 33.002998 -0.168825 0.974742 0.146207 0 0
  phy
    0 2.701100 6.785400 33.002998 -0.168825 0.974742 0.146207 0 0
    0 2.701100 -6.341600 33.002998 0.337093 0.934202 0.116772 0 0
    0 -4.877799 -6.341600 33.002998 0.168826 0.974742 -0.146207 0 0
  phy
    0 2.701100 6.785400 33.002998 -0.168825 0.974742 0.146207 0 0
    0 -4.877799 -6.341600 33.002998 0.168826 0.974742 -0.146207 0 0
    0 -4.877800 6.785400 33.002998 -0.337092 0.934202 -0.116771 0 0
  phy
    0 -4.877800 6.785400 33.002998 -0.337092 0.934202 -0.116771 0 0
    0 -4.877799 -6.341600 33.002998 0.168826 0.974742 -0.146207 0 0
    0 -8.667300 0.221900 33.002998 -0.142373 0.657612 -0.739781 0 0
  phy
    0 6.490500 0.221900 33.002998 0.142371 0.657602 0.739790 0 0
    0 2.701100 6.785400 33.002998 -0.168825 0.974742 0.146207 0 0
    0 6.490500 0.221900 35.845001 -0.067418 -0.934202 0.350317 0 0
  phy
    0 -8.667300 0.221900 33.002998 -0.142373 0.657612 -0.739781 0 0
    0 -4.877799 -6.341600 33.002998 0.168826 0.974742 -0.146207 0 0
    0 -8.667300 0.221900 35.845001 0.142373 -0.657612 -0.739781 0 0
  phy
    0 -8.667300 0.221900 35.845001 0.142373 -0.657612 -0.739781 0 0
    0 -4.877799 -6.341600 33.002998 0.168826 0.974742 -0.146207 0 0
    0 -4.877799 -6.341600 35.845001 0.177216 -0.982255 -0.061389 0 0
  phy
    0 -8.667300 0.221900 35.845001 0.142373 -0.657612 -0.739781 0 0
    0 -4.877800 6.785400 35.845001 -0.269674 -0.934202 -0.233543 0 0
    0 -8.667300 0.221900 33.002998 -0.142373 0.657612 -0.739781 0 0
  phy
    0 -8.667300 0.221900 33.002998 -0.142373 0.657612 -0.739781 0 0
    0 -4.877800 6.785400 35.845001 -0.269674 -0.934202 -0.233543 0 0
    0 -4.877800 6.785400 33.002998 -0.337092 0.934202 -0.116771 0 0
  phy
    0 -1.594100 1.212600 6.055700 -0.995962 0.027098 -0.085588 0 0
    0 -1.419958 1.297885 33.681810 -0.779611 -0.053860 -0.623944 0 0
    0 0.040634 0.741087 33.645599 -0.376900 -0.013675 0.926153 0 0
  phy
    0 -1.594100 1.212600 6.055700 -0.995962 0.027098 -0.085588 0 0
    0 0.040634 0.741087 33.645599 -0.376900 -0.013675 0.926153 0 0
    0 -0.133500 0.655800 6.019600 -0.375165 0.090853 0.922495 0 0
  phy
    0 -1.419958 1.297885 33.681810 -0.779611 -0.053860 -0.623944 0 0
    0 -1.594100 1.212600 6.055700 -0.995962 0.027098 -0.085588 0 0
    0 -2.286301 -0.208400 6.097878 0.376750 0.034914 -0.925657 0 0
  phy
    0 -1.419958 1.297885 33.681810 -0.779611 -0.053860 -0.623944 0 0
    0 -2.286301 -0.208400 6.097878 0.376750 0.034914 -0.925657 0 0
    0 -2.112200 -0.123200 33.723998 0.376323 -0.049607 -0.925160 0 0
  phy
    0 -1.594100 1.212600 6.055700 -0.995962 0.027098 -0.085588 0 0
    0 -0.133500 0.655800 6.019600 -0.375165 0.090853 0.922495 0 0
    0 -2.286301 -0.208400 6.097878 0.376750 0.034914 -0.925657 0 0
  phy
    0 -0.133500 0.655800 6.019600 -0.375165 0.090853 0.922495 0 0
    0 0.040634 0.741087 33.645599 -0.376900 -0.013675 0.926153 0 0
    0 -0.736000 -0.896100 6.061000 0.752171 0.029681 0.658299 0 0
  phy
    0 0.040634 0.741087 33.645599 -0.376900 -0.013675 0.926153 0 0
    0 -0.561900 -0.810900 33.686999 0.997310 -0.054294 0.049249 0 0
    0 -0.736000 -0.896100 6.061000 0.752171 0.029681 0.658299 0 0
  phy
    0 -2.286301 -0.208400 6.097878 0.376750 0.034914 -0.925657 0 0
    0 -0.133500 0.655800 6.019600 -0.375165 0.090853 0.922495 0 0
    0 -0.736000 -0.896100 6.061000 0.752171 0.029681 0.658299 0 0
  phy
    0 0.040634 0.741087 33.645599 -0.376900 -0.013675 0.926153 0 0
    0 -1.419958 1.297885 33.681810 -0.779611 -0.053860 -0.623944 0 0
    0 -0.561900 -0.810900 33.686999 0.997310 -0.054294 0.049249 0 0
  phy
    0 -2.286301 -0.208400 6.097878 0.376750 0.034914 -0.925657 0 0
    0 -0.561900 -0.810900 33.686999 0.997310 -0.054294 0.049249 0 0
    0 -2.112200 -0.123200 33.723998 0.376323 -0.049607 -0.925160 0 0
  phy
    0 -2.286301 -0.208400 6.097878 0.376750 0.034914 -0.925657 0 0
    0 -0.736000 -0.896100 6.061000 0.752171 0.029681 0.658299 0 0
    0 -0.561900 -0.810900 33.686999 0.997310 -0.054294 0.049249 0 0
  phy
    0 -0.561900 -0.810900 33.686999 0.997310 -0.054294 0.049249 0 0
    0 -1.419958 1.297885 33.681810 -0.779611 -0.053860 -0.623944 0 0
    0 -2.112200 -0.123200 33.723998 0.376323 -0.049607 -0.925160 0 0
  phy
    0 2.870700 -10.582699 2.705115 0.688982 -0.390117 0.610830 0 0
    0 2.703500 -9.734600 2.307500 -0.381306 0.838142 0.390030 0 0
    0 2.703500 -9.734600 3.933900 0.027138 -0.605138 0.795658 0 0
  phy
    0 2.870700 -10.582699 2.705115 0.688982 -0.390117 0.610830 0 0
    0 2.870700 -10.582699 2.174200 0.227559 0.747699 0.623830 0 0
    0 2.703500 -9.734600 2.307500 -0.381306 0.838142 0.390030 0 0
  phy
    0 1.785300 -10.033100 3.933900 0.492254 -0.347676 -0.798002 0 0
    0 2.148701 -10.817500 2.174188 0.831997 0.310753 -0.459580 0 0
    0 2.870700 -10.582699 2.705115 0.688982 -0.390117 0.610830 0 0
  phy
    0 2.870700 -10.582699 2.705115 0.688982 -0.390117 0.610830 0 0
    0 2.703500 -9.734600 3.933900 0.027138 -0.605138 0.795658 0 0
    0 1.785300 -10.033100 3.933900 0.492254 -0.347676 -0.798002 0 0
  phy
    0 2.870700 -10.582699 2.705115 0.688982 -0.390117 0.610830 0 0
    0 2.148701 -10.817500 2.174188 0.831997 0.310753 -0.459580 0 0
    0 2.870700 -10.582699 2.174200 0.227559 0.747699 0.623830 0 0
  phy
    0 2.703500 -9.734600 2.307500 -0.381306 0.838142 0.390030 0 0
    0 2.870700 -10.582699 2.174200 0.227559 0.747699 0.623830 0 0
    0 2.148701 -10.817500 2.174188 0.831997 0.310753 -0.459580 0 0
  phy
    0 2.703500 -9.734600 3.933900 0.027138 -0.605138 0.795658 0 0
    0 -1.368024 -1.256210 7.252392 0.372374 -0.813065 -0.447507 0 0
    0 1.785300 -10.033100 3.933900 0.492254 -0.347676 -0.798002 0 0
  phy
    0 2.703500 -9.734600 3.933900 0.027138 -0.605138 0.795658 0 0
    0 0.111200 -0.775600 7.252300 -0.239697 -0.680769 0.692170 0 0
    0 -1.368024 -1.256210 7.252392 0.372374 -0.813065 -0.447507 0 0
  phy
    0 1.785300 -10.033100 3.933900 0.492254 -0.347676 -0.798002 0 0
    0 1.785198 -10.032836 2.307544 0.160216 0.507407 -0.846681 0 0
    0 2.148701 -10.817500 2.174188 0.831997 0.310753 -0.459580 0 0
  phy
    0 1.785198 -10.032836 2.307544 0.160216 0.507407 -0.846681 0 0
    0 1.785300 -10.033100 3.933900 0.492254 -0.347676 -0.798002 0 0
    0 -1.488400 -1.625200 5.340700 -0.077484 0.600002 -0.796237 0 0
  phy
    0 1.785300 -10.033100 3.933900 0.492254 -0.347676 -0.798002 0 0
    0 -1.368024 -1.256210 7.252392 0.372374 -0.813065 -0.447507 0 0
    0 -1.488400 -1.625200 5.340700 -0.077484 0.600002 -0.796237 0 0
  phy
    0 2.703500 -9.734600 2.307500 -0.381306 0.838142 0.390030 0 0
    0 1.785198 -10.032836 2.307544 0.160216 0.507407 -0.846681 0 0
    0 -1.488400 -1.625200 5.340700 -0.077484 0.600002 -0.796237 0 0
  phy
    0 2.703500 -9.734600 2.307500 -0.381306 0.838142 0.390030 0 0
    0 -1.488400 -1.625200 5.340700 -0.077484 0.600002 -0.796237 0 0
    0 0.424700 -1.003600 5.340700 -0.469944 0.454866 0.756472 0 0
  phy
    0 1.785198 -10.032836 2.307544 0.160216 0.507407 -0.846681 0 0
    0 2.703500 -9.734600 2.307500 -0.381306 0.838142 0.390030 0 0
    0 2.148701 -10.817500 2.174188 0.831997 0.310753 -0.459580 0 0
  phy
    0 2.703500 -9.734600 2.307500 -0.381306 0.838142 0.390030 0 0
    0 0.424700 -1.003600 5.340700 -0.469944 0.454866 0.756472 0 0
    0 2.703500 -9.734600 3.933900 0.027138 -0.605138 0.795658 0 0
  phy
    0 0.424700 -1.003600 5.340700 -0.469944 0.454866 0.756472 0 0
    0 0.111200 -0.775600 7.252300 -0.239697 -0.680769 0.692170 0 0
    0 2.703500 -9.734600 3.933900 0.027138 -0.605138 0.795658 0 0
  phy
    0 -1.488400 -1.625200 5.340700 -0.077484 0.600002 -0.796237 0 0
    0 -1.368024 -1.256210 7.252392 0.372374 -0.813065 -0.447507 0 0
    0 0.111200 -0.775600 7.252300 -0.239697 -0.680769 0.692170 0 0
  phy
    0 0.424700 -1.003600 5.340700 -0.469944 0.454866 0.756472 0 0
    0 -1.488400 -1.625200 5.340700 -0.077484 0.600002 -0.796237 0 0
    0 0.111200 -0.775600 7.252300 -0.239697 -0.680769 0.692170 0 0
  phy
    0 10.408499 -0.181688 2.704857 0.367755 -0.390128 0.844131 0 0
    0 10.408399 -0.181700 2.174181 0.290900 0.945625 0.145500 0 0
    0 10.408201 0.577612 2.174200 -0.705539 0.000037 0.708671 0 0
  phy
    0 9.550000 0.680600 2.307500 -0.478203 0.843312 -0.245246 0 0
    0 10.408201 0.577612 2.174200 -0.705539 0.000037 0.708671 0 0
    0 10.408399 -0.181700 2.174181 0.290900 0.945625 0.145500 0 0
  phy
    0 9.550000 0.680600 3.933900 -0.910797 -0.347481 0.222950 0 0
    0 10.408499 -0.181688 2.704857 0.367755 -0.390128 0.844131 0 0
    0 10.408201 0.577612 2.174200 -0.705539 0.000037 0.708671 0 0
  phy
    0 9.550000 0.680600 3.933900 -0.910797 -0.347481 0.222950 0 0
    0 10.408201 0.577612 2.174200 -0.705539 0.000037 0.708671 0 0
    0 9.550000 0.680600 2.307500 -0.478203 0.843312 -0.245246 0 0
  phy
    0 9.550000 0.680600 3.933900 -0.910797 -0.347481 0.222950 0 0
    0 9.550100 -0.284900 3.933900 0.748531 -0.605393 0.270556 0 0
    0 10.408499 -0.181688 2.704857 0.367755 -0.390128 0.844131 0 0
  phy
    0 9.550000 0.680600 3.933900 -0.910797 -0.347481 0.222950 0 0
    0 9.550000 0.680600 2.307500 -0.478203 0.843312 -0.245246 0 0
    0 0.542100 1.211300 5.340700 -0.842238 0.456153 -0.287332 0 0
  phy
    0 0.228400 0.983700 7.252300 -0.540623 -0.812865 0.216743 0 0
    0 9.550000 0.680600 3.933900 -0.910797 -0.347481 0.222950 0 0
    0 0.542100 1.211300 5.340700 -0.842238 0.456153 -0.287332 0 0
  phy
    0 9.550000 0.680600 3.933900 -0.910797 -0.347481 0.222950 0 0
    0 0.228400 0.983700 7.252300 -0.540623 -0.812865 0.216743 0 0
    0 9.550100 -0.284900 3.933900 0.748531 -0.605393 0.270556 0 0
  phy
    0 10.408499 -0.181688 2.704857 0.367755 -0.390128 0.844131 0 0
    0 9.550100 -0.284900 3.933900 0.748531 -0.605393 0.270556 0 0
    0 9.550100 -0.284900 2.307500 0.861350 0.497209 -0.104210 0 0
  phy
    0 9.550100 -0.284900 2.307500 0.861350 0.497209 -0.104210 0 0
    0 10.408399 -0.181700 2.174181 0.290900 0.945625 0.145500 0 0
    0 10.408499 -0.181688 2.704857 0.367755 -0.390128 0.844131 0 0
  phy
    0 9.550100 -0.284900 3.933900 0.748531 -0.605393 0.270556 0 0
    0 0.542100 -0.800200 5.340700 0.753594 0.604896 -0.257288 0 0
    0 9.550100 -0.284900 2.307500 0.861350 0.497209 -0.104210 0 0
  phy
    0 9.550100 -0.284900 2.307500 0.861350 0.497209 -0.104210 0 0
    0 9.550000 0.680600 2.307500 -0.478203 0.843312 -0.245246 0 0
    0 10.408399 -0.181700 2.174181 0.290900 0.945625 0.145500 0 0
  phy
    0 9.550000 0.680600 2.307500 -0.478203 0.843312 -0.245246 0 0
    0 9.550100 -0.284900 2.307500 0.861350 0.497209 -0.104210 0 0
    0 0.542100 -0.800200 5.340700 0.753594 0.604896 -0.257288 0 0
  phy
    0 0.228400 -0.571700 7.252300 0.732270 -0.680842 -0.015299 0 0
    0 0.542100 -0.800200 5.340700 0.753594 0.604896 -0.257288 0 0
    0 9.550100 -0.284900 3.933900 0.748531 -0.605393 0.270556 0 0
  phy
    0 9.550100 -0.284900 3.933900 0.748531 -0.605393 0.270556 0 0
    0 0.228400 0.983700 7.252300 -0.540623 -0.812865 0.216743 0 0
    0 0.228400 -0.571700 7.252300 0.732270 -0.680842 -0.015299 0 0
  phy
    0 9.550000 0.680600 2.307500 -0.478203 0.843312 -0.245246 0 0
    0 0.542100 -0.800200 5.340700 0.753594 0.604896 -0.257288 0 0
    0 0.542100 1.211300 5.340700 -0.842238 0.456153 -0.287332 0 0
  phy
    0 0.228400 -0.571700 7.252300 0.732270 -0.680842 -0.015299 0 0
    0 0.228400 0.983700 7.252300 -0.540623 -0.812865 0.216743 0 0
    0 0.542100 1.211300 5.340700 -0.842238 0.456153 -0.287332 0 0
  phy
    0 0.542100 -0.800200 5.340700 0.753594 0.604896 -0.257288 0 0
    0 0.228400 -0.571700 7.252300 0.732270 -0.680842 -0.015299 0 0
    0 0.542100 1.211300 5.340700 -0.842238 0.456153 -0.287332 0 0
  phy
    0 1.760200 10.410401 2.307500 -0.160405 0.521972 -0.837744 0 0
    0 1.760200 10.410401 3.933900 -0.465248 -0.338230 -0.818013 0 0
    0 2.123399 11.194900 2.705027 -0.877505 -0.408162 -0.251771 0 0
  phy
    0 1.760200 10.410401 2.307500 -0.160405 0.521972 -0.837744 0 0
    0 2.123399 11.194900 2.705027 -0.877505 -0.408162 -0.251771 0 0
    0 2.123399 11.194900 2.174200 -0.784944 0.592625 -0.180716 0 0
  phy
    0 2.123399 11.194900 2.174200 -0.784944 0.592625 -0.180716 0 0
    0 2.123399 11.194900 2.705027 -0.877505 -0.408162 -0.251771 0 0
    0 2.845599 10.960399 2.705000 -0.466212 -0.234865 0.852927 0 0
  phy
    0 2.123399 11.194900 2.174200 -0.784944 0.592625 -0.180716 0 0
    0 2.845599 10.960399 2.705000 -0.466212 -0.234865 0.852927 0 0
    0 2.845599 10.960399 2.174197 -0.048522 0.945593 0.321712 0 0
  phy
    0 2.123399 11.194900 2.174200 -0.784944 0.592625 -0.180716 0 0
    0 2.845599 10.960399 2.174197 -0.048522 0.945593 0.321712 0 0
    0 1.760200 10.410401 2.307500 -0.160405 0.521972 -0.837744 0 0
  phy
    0 2.845599 10.960399 2.174197 -0.048522 0.945593 0.321712 0 0
    0 2.845599 10.960399 2.705000 -0.466212 -0.234865 0.852927 0 0
    0 2.678500 10.112200 2.307500 0.385590 0.832704 0.397397 0 0
  phy
    0 2.845599 10.960399 2.705000 -0.466212 -0.234865 0.852927 0 0
    0 2.678500 10.112200 3.933900 -0.045551 -0.611091 0.790249 0 0
    0 2.678500 10.112200 2.307500 0.385590 0.832704 0.397397 0 0
  phy
    0 2.845599 10.960399 2.174197 -0.048522 0.945593 0.321712 0 0
    0 2.678500 10.112200 2.307500 0.385590 0.832704 0.397397 0 0
    0 1.760200 10.410401 2.307500 -0.160405 0.521972 -0.837744 0 0
  phy
    0 2.678500 10.112200 3.933900 -0.045551 -0.611091 0.790249 0 0
    0 2.845599 10.960399 2.705000 -0.466212 -0.234865 0.852927 0 0
    0 2.123399 11.194900 2.705027 -0.877505 -0.408162 -0.251771 0 0
  phy
    0 1.760200 10.410401 2.307500 -0.160405 0.521972 -0.837744 0 0
    0 2.678500 10.112200 2.307500 0.385590 0.832704 0.397397 0 0
    0 -1.528288 2.006921 5.340780 0.076332 0.600291 -0.796131 0 0
  phy
    0 -1.528288 2.006921 5.340780 0.076332 0.600291 -0.796131 0 0
    0 2.678500 10.112200 2.307500 0.385590 0.832704 0.397397 0 0
    0 0.384900 1.385900 5.340700 0.471202 0.454639 0.755826 0 0
  phy
    0 2.678500 10.112200 3.933900 -0.045551 -0.611091 0.790249 0 0
    0 0.384900 1.385900 5.340700 0.471202 0.454639 0.755826 0 0
    0 2.678500 10.112200 2.307500 0.385590 0.832704 0.397397 0 0
  phy
    0 1.760200 10.410401 3.933900 -0.465248 -0.338230 -0.818013 0 0
    0 1.760200 10.410401 2.307500 -0.160405 0.521972 -0.837744 0 0
    0 -1.528288 2.006921 5.340780 0.076332 0.600291 -0.796131 0 0
  phy
    0 -1.408512 1.638768 7.252312 -0.373200 -0.812851 -0.447207 0 0
    0 1.760200 10.410401 3.933900 -0.465248 -0.338230 -0.818013 0 0
    0 -1.528288 2.006921 5.340780 0.076332 0.600291 -0.796131 0 0
  phy
    0 1.760200 10.410401 3.933900 -0.465248 -0.338230 -0.818013 0 0
    0 -1.408512 1.638768 7.252312 -0.373200 -0.812851 -0.447207 0 0
    0 2.678500 10.112200 3.933900 -0.045551 -0.611091 0.790249 0 0
  phy
    0 1.760200 10.410401 3.933900 -0.465248 -0.338230 -0.818013 0 0
    0 2.678500 10.112200 3.933900 -0.045551 -0.611091 0.790249 0 0
    0 2.123399 11.194900 2.705027 -0.877505 -0.408162 -0.251771 0 0
  phy
    0 -1.408512 1.638768 7.252312 -0.373200 -0.812851 -0.447207 0 0
    0 0.070700 1.158200 7.252300 0.240846 -0.680814 0.691726 0 0
    0 2.678500 10.112200 3.933900 -0.045551 -0.611091 0.790249 0 0
  phy
    0 2.678500 10.112200 3.933900 -0.045551 -0.611091 0.790249 0 0
    0 0.070700 1.158200 7.252300 0.240846 -0.680814 0.691726 0 0
    0 0.384900 1.385900 5.340700 0.471202 0.454639 0.755826 0 0
  phy
    0 -1.528288 2.006921 5.340780 0.076332 0.600291 -0.796131 0 0
    0 0.070700 1.158200 7.252300 0.240846 -0.680814 0.691726 0 0
    0 -1.408512 1.638768 7.252312 -0.373200 -0.812851 -0.447207 0 0
  phy
    0 0.384900 1.385900 5.340700 0.471202 0.454639 0.755826 0 0
    0 0.070700 1.158200 7.252300 0.240846 -0.680814 0.691726 0 0
    0 -1.528288 2.006921 5.340780 0.076332 0.600291 -0.796131 0 0
  phy
    0 -9.333200 6.789800 3.933900 -0.773017 -0.607382 0.183118 0 0
    0 -10.534399 6.596499 2.174197 -0.198050 -0.236709 -0.951181 0 0
    0 -9.900600 6.008600 3.933900 0.623969 -0.337298 -0.704906 0 0
  phy
    0 -10.534399 6.596499 2.174197 -0.198050 -0.236709 -0.951181 0 0
    0 -9.333200 6.789800 3.933900 -0.773017 -0.607382 0.183118 0 0
    0 -10.088200 7.210800 2.174200 -0.910121 0.401654 -0.101756 0 0
  phy
    0 -9.900600 6.008600 2.307500 0.531034 0.843307 -0.082683 0 0
    0 -9.900600 6.008600 3.933900 0.623969 -0.337298 -0.704906 0 0
    0 -10.534399 6.596499 2.174197 -0.198050 -0.236709 -0.951181 0 0
  phy
    0 -9.900600 6.008600 2.307500 0.531034 0.843307 -0.082683 0 0
    0 -10.534399 6.596499 2.174197 -0.198050 -0.236709 -0.951181 0 0
    0 -10.088200 7.210800 2.174200 -0.910121 0.401654 -0.101756 0 0
  phy
    0 -9.332971 6.789672 2.307540 -0.627278 0.507412 0.590810 0 0
    0 -9.333200 6.789800 3.933900 -0.773017 -0.607382 0.183118 0 0
    0 -1.742700 1.911900 5.340700 -0.405330 0.600007 0.689710 0 0
  phy
    0 -9.333200 6.789800 3.933900 -0.773017 -0.607382 0.183118 0 0
    0 -1.623196 1.542697 7.252301 -0.662097 -0.687602 0.298047 0 0
    0 -1.742700 1.911900 5.340700 -0.405330 0.600007 0.689710 0 0
  phy
    0 -9.333200 6.789800 3.933900 -0.773017 -0.607382 0.183118 0 0
    0 -9.332971 6.789672 2.307540 -0.627278 0.507412 0.590810 0 0
    0 -10.088200 7.210800 2.174200 -0.910121 0.401654 -0.101756 0 0
  phy
    0 -9.900600 6.008600 3.933900 0.623969 -0.337298 -0.704906 0 0
    0 -2.537400 0.284400 7.252300 0.397157 -0.822259 -0.407622 0 0
    0 -9.333200 6.789800 3.933900 -0.773017 -0.607382 0.183118 0 0
  phy
    0 -9.333200 6.789800 3.933900 -0.773017 -0.607382 0.183118 0 0
    0 -2.537400 0.284400 7.252300 0.397157 -0.822259 -0.407622 0 0
    0 -1.623196 1.542697 7.252301 -0.662097 -0.687602 0.298047 0 0
  phy
    0 -9.900600 6.008600 2.307500 0.531034 0.843307 -0.082683 0 0
    0 -9.332971 6.789672 2.307540 -0.627278 0.507412 0.590810 0 0
    0 -1.742700 1.911900 5.340700 -0.405330 0.600007 0.689710 0 0
  phy
    0 -9.900600 6.008600 2.307500 0.531034 0.843307 -0.082683 0 0
    0 -1.742700 1.911900 5.340700 -0.405330 0.600007 0.689710 0 0
    0 -2.925000 0.284600 5.340700 0.824841 0.454853 -0.335777 0 0
  phy
    0 -9.332971 6.789672 2.307540 -0.627278 0.507412 0.590810 0 0
    0 -9.900600 6.008600 2.307500 0.531034 0.843307 -0.082683 0 0
    0 -10.088200 7.210800 2.174200 -0.910121 0.401654 -0.101756 0 0
  phy
    0 -9.900600 6.008600 2.307500 0.531034 0.843307 -0.082683 0 0
    0 -2.925000 0.284600 5.340700 0.824841 0.454853 -0.335777 0 0
    0 -9.900600 6.008600 3.933900 0.623969 -0.337298 -0.704906 0 0
  phy
    0 -2.925000 0.284600 5.340700 0.824841 0.454853 -0.335777 0 0
    0 -2.537400 0.284400 7.252300 0.397157 -0.822259 -0.407622 0 0
    0 -9.900600 6.008600 3.933900 0.623969 -0.337298 -0.704906 0 0
  phy
    0 -1.623196 1.542697 7.252301 -0.662097 -0.687602 0.298047 0 0
    0 -2.537400 0.284400 7.252300 0.397157 -0.822259 -0.407622 0 0
    0 -1.742700 1.911900 5.340700 -0.405330 0.600007 0.689710 0 0
  phy
    0 -1.742700 1.911900 5.340700 -0.405330 0.600007 0.689710 0 0
    0 -2.537400 0.284400 7.252300 0.397157 -0.822259 -0.407622 0 0
    0 -2.925000 0.284600 5.340700 0.824841 0.454853 -0.335777 0 0
  phy
    0 -10.518900 -6.248600 2.705000 -0.232050 -0.260002 -0.937311 0 0
    0 -9.885144 -5.660549 2.307512 -0.758094 0.497230 -0.421967 0 0
    0 -10.518900 -6.248600 2.174190 0.001417 0.885152 -0.465300 0 0
  phy
    0 -9.885144 -5.660549 2.307512 -0.758094 0.497230 -0.421967 0 0
    0 -10.518900 -6.248600 2.705000 -0.232050 -0.260002 -0.937311 0 0
    0 -9.885199 -5.660600 3.933900 -0.612724 -0.352661 -0.707248 0 0
  phy
    0 -9.885144 -5.660549 2.307512 -0.758094 0.497230 -0.421967 0 0
    0 -9.885199 -5.660600 3.933900 -0.612724 -0.352661 -0.707248 0 0
    0 -2.900500 0.051000 5.340700 -0.760904 0.604892 -0.234798 0 0
  phy
    0 -10.518900 -6.248600 2.174190 0.001417 0.885152 -0.465300 0 0
    0 -9.885144 -5.660549 2.307512 -0.758094 0.497230 -0.421967 0 0
    0 -9.317600 -6.441700 2.307500 0.253100 0.838146 0.483168 0 0
  phy
    0 -9.317600 -6.441700 2.307500 0.253100 0.838146 0.483168 0 0
    0 -9.885144 -5.660549 2.307512 -0.758094 0.497230 -0.421967 0 0
    0 -2.900500 0.051000 5.340700 -0.760904 0.604892 -0.234798 0 0
  phy
    0 -10.072500 -6.862801 2.174200 0.663556 0.747752 -0.023683 0 0
    0 -10.518900 -6.248600 2.174190 0.001417 0.885152 -0.465300 0 0
    0 -9.317600 -6.441700 2.307500 0.253100 0.838146 0.483168 0 0
  phy
    0 -10.518900 -6.248600 2.174190 0.001417 0.885152 -0.465300 0 0
    0 -10.072500 -6.862801 2.174200 0.663556 0.747752 -0.023683 0 0
    0 -10.072500 -6.862801 2.705094 0.849678 -0.375645 -0.370052 0 0
  phy
    0 -9.317600 -6.441700 2.307500 0.253100 0.838146 0.483168 0 0
    0 -10.072500 -6.862801 2.705094 0.849678 -0.375645 -0.370052 0 0
    0 -10.072500 -6.862801 2.174200 0.663556 0.747752 -0.023683 0 0
  phy
    0 -10.518900 -6.248600 2.705000 -0.232050 -0.260002 -0.937311 0 0
    0 -10.518900 -6.248600 2.174190 0.001417 0.885152 -0.465300 0 0
    0 -10.072500 -6.862801 2.705094 0.849678 -0.375645 -0.370052 0 0
  phy
    0 -9.885199 -5.660600 3.933900 -0.612724 -0.352661 -0.707248 0 0
    0 -10.518900 -6.248600 2.705000 -0.232050 -0.260002 -0.937311 0 0
    0 -10.072500 -6.862801 2.705094 0.849678 -0.375645 -0.370052 0 0
  phy
    0 -9.885199 -5.660600 3.933900 -0.612724 -0.352661 -0.707248 0 0
    0 -9.317600 -6.441700 3.933900 0.765101 -0.605138 0.220064 0 0
    0 -2.512390 0.050500 7.252350 -0.397705 -0.822374 -0.406856 0 0
  phy
    0 -9.317600 -6.441700 3.933900 0.765101 -0.605138 0.220064 0 0
    0 -1.598140 -1.207760 7.252325 0.662740 -0.687412 0.297052 0 0
    0 -2.512390 0.050500 7.252350 -0.397705 -0.822374 -0.406856 0 0
  phy
    0 -9.317600 -6.441700 2.307500 0.253100 0.838146 0.483168 0 0
    0 -1.718100 -1.576300 5.340700 0.512495 0.456147 0.727515 0 0
    0 -9.317600 -6.441700 3.933900 0.765101 -0.605138 0.220064 0 0
  phy
    0 -9.317600 -6.441700 3.933900 0.765101 -0.605138 0.220064 0 0
    0 -10.072500 -6.862801 2.705094 0.849678 -0.375645 -0.370052 0 0
    0 -9.317600 -6.441700 2.307500 0.253100 0.838146 0.483168 0 0
  phy
    0 -1.718100 -1.576300 5.340700 0.512495 0.456147 0.727515 0 0
    0 -1.598140 -1.207760 7.252325 0.662740 -0.687412 0.297052 0 0
    0 -9.317600 -6.441700 3.933900 0.765101 -0.605138 0.220064 0 0
  phy
    0 -9.317600 -6.441700 3.933900 0.765101 -0.605138 0.220064 0 0
    0 -9.885199 -5.660600 3.933900 -0.612724 -0.352661 -0.707248 0 0
    0 -10.072500 -6.862801 2.705094 0.849678 -0.375645 -0.370052 0 0
  phy
    0 -2.512390 0.050500 7.252350 -0.397705 -0.822374 -0.406856 0 0
    0 -1.598140 -1.207760 7.252325 0.662740 -0.687412 0.297052 0 0
    0 -1.718100 -1.576300 5.340700 0.512495 0.456147 0.727515 0 0
  phy
    0 -1.718100 -1.576300 5.340700 0.512495 0.456147 0.727515 0 0
    0 -2.900500 0.051000 5.340700 -0.760904 0.604892 -0.234798 0 0
    0 -2.512390 0.050500 7.252350 -0.397705 -0.822374 -0.406856 0 0
  phy
    0 -9.885199 -5.660600 3.933900 -0.612724 -0.352661 -0.707248 0 0
    0 -2.512390 0.050500 7.252350 -0.397705 -0.822374 -0.406856 0 0
    0 -2.900500 0.051000 5.340700 -0.760904 0.604892 -0.234798 0 0
  phy
    0 -1.718100 -1.576300 5.340700 0.512495 0.456147 0.727515 0 0
    0 -9.317600 -6.441700 2.307500 0.253100 0.838146 0.483168 0 0
    0 -2.900500 0.051000 5.340700 -0.760904 0.604892 -0.234798 0 0
end
