// Created by Crowbar 0.74
version 1
nodes
  0 "static_prop" -1
end
skeleton
  time 0
    0 0.000000 0.000000 0.000000 0.000000 0.000000 0.000000
end
triangles
  phy
    0 -8.938192 -7.453746 1.244196 -0.002896 -0.991942 -0.126656 0 0
    0 6.351604 -9.586404 1.244196 0.065924 -0.997807 0.005975 0 0
    0 -7.721872 6.157467 1.244198 -0.013014 -0.992470 -0.121796 0 0
  phy
    0 -7.721872 6.157467 1.244198 -0.013014 -0.992470 -0.121796 0 0
    0 6.351604 -9.586404 1.244196 0.065924 -0.997807 0.005975 0 0
    0 7.207428 6.157468 1.244198 -0.027984 -0.980564 0.194196 0 0
  phy
    0 7.207428 6.157468 1.244198 -0.027984 -0.980564 0.194196 0 0
    0 6.725695 6.783311 1.244198 -0.957416 -0.285862 0.040454 0 0
    0 -7.721872 6.157467 1.244198 -0.013014 -0.992470 -0.121796 0 0
  phy
    0 -7.721872 6.157467 1.244198 -0.013014 -0.992470 -0.121796 0 0
    0 6.725695 6.783311 1.244198 -0.957416 -0.285862 0.040454 0 0
    0 -7.240137 6.783310 1.244198 -0.956343 -0.281070 -0.080050 0 0
  phy
    0 -7.721872 6.157467 1.244198 -0.013014 -0.992470 -0.121796 0 0
    0 -9.384212 -7.453749 -0.850691 -0.002675 0.993466 -0.114094 0 0
    0 -8.938192 -7.453746 1.244196 -0.002896 -0.991942 -0.126656 0 0
  phy
    0 -9.384212 -7.453749 -0.850691 -0.002675 0.993466 -0.114094 0 0
    0 -7.721872 6.157467 1.244198 -0.013014 -0.992470 -0.121796 0 0
    0 -8.106590 6.157468 -0.850688 -0.150666 0.012225 -0.988509 0 0
  phy
    0 -7.721872 6.157467 1.244198 -0.013014 -0.992470 -0.121796 0 0
    0 -7.240137 6.783310 1.244198 -0.956343 -0.281070 -0.080050 0 0
    0 -8.106590 6.157468 -0.850688 -0.150666 0.012225 -0.988509 0 0
  phy
    0 -9.384212 -7.453749 -0.850691 -0.002675 0.993466 -0.114094 0 0
    0 7.575147 6.157469 -0.850688 -0.021750 0.993060 0.115583 0 0
    0 9.384215 -7.453747 -0.850691 -0.013189 0.973717 0.227378 0 0
  phy
    0 8.467138 -8.851912 -0.850691 0.219028 0.965286 0.142302 0 0
    0 -9.384212 -7.453749 -0.850691 -0.002675 0.993466 -0.114094 0 0
    0 9.384215 -7.453747 -0.850691 -0.013189 0.973717 0.227378 0 0
  phy
    0 -9.384212 -7.453749 -0.850691 -0.002675 0.993466 -0.114094 0 0
    0 8.467138 -8.851912 -0.850691 0.219028 0.965286 0.142302 0 0
    0 6.676187 -9.586406 -0.850691 0.799240 0.600642 0.021075 0 0
  phy
    0 7.575147 6.157469 -0.850688 -0.021750 0.993060 0.115583 0 0
    0 -9.384212 -7.453749 -0.850691 -0.002675 0.993466 -0.114094 0 0
    0 7.069131 6.783311 -0.850688 -0.139212 0.990246 0.005741 0 0
  phy
    0 -9.384212 -7.453749 -0.850691 -0.002675 0.993466 -0.114094 0 0
    0 -7.600575 6.783310 -0.850688 -0.273477 0.961860 -0.005873 0 0
    0 7.069131 6.783311 -0.850688 -0.139212 0.990246 0.005741 0 0
  phy
    0 -6.676184 -9.586406 -0.850691 0.725270 0.687565 -0.035178 0 0
    0 -9.384212 -7.453749 -0.850691 -0.002675 0.993466 -0.114094 0 0
    0 6.676187 -9.586406 -0.850691 0.799240 0.600642 0.021075 0 0
  phy
    0 -7.600575 6.783310 -0.850688 -0.273477 0.961860 -0.005873 0 0
    0 -9.384212 -7.453749 -0.850691 -0.002675 0.993466 -0.114094 0 0
    0 -8.106590 6.157468 -0.850688 -0.150666 0.012225 -0.988509 0 0
  phy
    0 -9.384212 -7.453749 -0.850691 -0.002675 0.993466 -0.114094 0 0
    0 -8.065118 -8.851912 1.244196 0.672013 -0.295864 -0.678869 0 0
    0 -8.938192 -7.453746 1.244196 -0.002896 -0.991942 -0.126656 0 0
  phy
    0 -8.065118 -8.851912 1.244196 0.672013 -0.295864 -0.678869 0 0
    0 -9.384212 -7.453749 -0.850691 -0.002675 0.993466 -0.114094 0 0
    0 -8.467136 -8.851912 -0.850689 0.836672 0.067055 -0.543584 0 0
  phy
    0 -9.384212 -7.453749 -0.850691 -0.002675 0.993466 -0.114094 0 0
    0 -6.676184 -9.586406 -0.850691 0.725270 0.687565 -0.035178 0 0
    0 -8.467136 -8.851912 -0.850689 0.836672 0.067055 -0.543584 0 0
  phy
    0 -8.065118 -8.851912 1.244196 0.672013 -0.295864 -0.678869 0 0
    0 -6.360101 -9.586404 1.244196 0.902563 -0.428214 -0.044853 0 0
    0 -8.938192 -7.453746 1.244196 -0.002896 -0.991942 -0.126656 0 0
  phy
    0 -8.467136 -8.851912 -0.850689 0.836672 0.067055 -0.543584 0 0
    0 -6.360101 -9.586404 1.244196 0.902563 -0.428214 -0.044853 0 0
    0 -8.065118 -8.851912 1.244196 0.672013 -0.295864 -0.678869 0 0
  phy
    0 7.575147 6.157469 -0.850688 -0.021750 0.993060 0.115583 0 0
    0 6.725695 6.783311 1.244198 -0.957416 -0.285862 0.040454 0 0
    0 7.207428 6.157468 1.244198 -0.027984 -0.980564 0.194196 0 0
  phy
    0 7.069131 6.783311 -0.850688 -0.139212 0.990246 0.005741 0 0
    0 6.725695 6.783311 1.244198 -0.957416 -0.285862 0.040454 0 0
    0 7.575147 6.157469 -0.850688 -0.021750 0.993060 0.115583 0 0
  phy
    0 7.575147 6.157469 -0.850688 -0.021750 0.993060 0.115583 0 0
    0 7.207428 6.157468 1.244198 -0.027984 -0.980564 0.194196 0 0
    0 9.384215 -7.453747 -0.850691 -0.013189 0.973717 0.227378 0 0
  phy
    0 7.207428 6.157468 1.244198 -0.027984 -0.980564 0.194196 0 0
    0 6.351604 -9.586404 1.244196 0.065924 -0.997807 0.005975 0 0
    0 8.929695 -7.453745 1.244196 -0.031293 -0.832531 0.553095 0 0
  phy
    0 6.351604 -9.586404 1.244196 0.065924 -0.997807 0.005975 0 0
    0 8.056621 -8.851912 1.244196 0.671464 -0.298374 0.678314 0 0
    0 8.929695 -7.453745 1.244196 -0.031293 -0.832531 0.553095 0 0
  phy
    0 9.384215 -7.453747 -0.850691 -0.013189 0.973717 0.227378 0 0
    0 7.207428 6.157468 1.244198 -0.027984 -0.980564 0.194196 0 0
    0 8.929695 -7.453745 1.244196 -0.031293 -0.832531 0.553095 0 0
  phy
    0 8.929695 -7.453745 1.244196 -0.031293 -0.832531 0.553095 0 0
    0 8.056621 -8.851912 1.244196 0.671464 -0.298374 0.678314 0 0
    0 9.384215 -7.453747 -0.850691 -0.013189 0.973717 0.227378 0 0
  phy
    0 8.467138 -8.851912 -0.850691 0.219028 0.965286 0.142302 0 0
    0 8.056621 -8.851912 1.244196 0.671464 -0.298374 0.678314 0 0
    0 6.351604 -9.586404 1.244196 0.065924 -0.997807 0.005975 0 0
  phy
    0 6.351604 -9.586404 1.244196 0.065924 -0.997807 0.005975 0 0
    0 6.676187 -9.586406 -0.850691 0.799240 0.600642 0.021075 0 0
    0 8.467138 -8.851912 -0.850691 0.219028 0.965286 0.142302 0 0
  phy
    0 9.384215 -7.453747 -0.850691 -0.013189 0.973717 0.227378 0 0
    0 8.056621 -8.851912 1.244196 0.671464 -0.298374 0.678314 0 0
    0 8.467138 -8.851912 -0.850691 0.219028 0.965286 0.142302 0 0
  phy
    0 -7.600575 6.783310 -0.850688 -0.273477 0.961860 -0.005873 0 0
    0 -7.240137 6.783310 1.244198 -0.956343 -0.281070 -0.080050 0 0
    0 6.725695 6.783311 1.244198 -0.957416 -0.285862 0.040454 0 0
  phy
    0 7.069131 6.783311 -0.850688 -0.139212 0.990246 0.005741 0 0
    0 -7.600575 6.783310 -0.850688 -0.273477 0.961860 -0.005873 0 0
    0 6.725695 6.783311 1.244198 -0.957416 -0.285862 0.040454 0 0
  phy
    0 -7.240137 6.783310 1.244198 -0.956343 -0.281070 -0.080050 0 0
    0 -7.600575 6.783310 -0.850688 -0.273477 0.961860 -0.005873 0 0
    0 -8.106590 6.157468 -0.850688 -0.150666 0.012225 -0.988509 0 0
  phy
    0 -8.938192 -7.453746 1.244196 -0.002896 -0.991942 -0.126656 0 0
    0 -6.360101 -9.586404 1.244196 0.902563 -0.428214 -0.044853 0 0
    0 6.351604 -9.586404 1.244196 0.065924 -0.997807 0.005975 0 0
  phy
    0 -6.360101 -9.586404 1.244196 0.902563 -0.428214 -0.044853 0 0
    0 6.676187 -9.586406 -0.850691 0.799240 0.600642 0.021075 0 0
    0 6.351604 -9.586404 1.244196 0.065924 -0.997807 0.005975 0 0
  phy
    0 -6.676184 -9.586406 -0.850691 0.725270 0.687565 -0.035178 0 0
    0 -6.360101 -9.586404 1.244196 0.902563 -0.428214 -0.044853 0 0
    0 -8.467136 -8.851912 -0.850689 0.836672 0.067055 -0.543584 0 0
  phy
    0 -6.676184 -9.586406 -0.850691 0.725270 0.687565 -0.035178 0 0
    0 6.676187 -9.586406 -0.850691 0.799240 0.600642 0.021075 0 0
    0 -6.360101 -9.586404 1.244196 0.902563 -0.428214 -0.044853 0 0
  phy
    0 -8.001776 7.439442 18.594999 -0.887615 -0.163902 -0.430437 0 0
    0 -7.420124 7.280026 12.197030 -0.702832 0.691949 -0.165024 0 0
    0 -8.334011 7.207705 13.811202 0.114429 0.149551 -0.982110 0 0
  phy
    0 -8.334012 7.353753 17.629091 0.483364 -0.126834 -0.866183 0 0
    0 -8.001776 7.439442 18.594999 -0.887615 -0.163902 -0.430437 0 0
    0 -8.334011 7.207705 13.811202 0.114429 0.149551 -0.982110 0 0
  phy
    0 -7.420124 7.280026 12.197030 -0.702832 0.691949 -0.165024 0 0
    0 -8.001776 7.439442 18.594999 -0.887615 -0.163902 -0.430437 0 0
    0 -7.420124 7.548769 19.222318 -0.956992 -0.275030 -0.092325 0 0
  phy
    0 -7.114649 6.300258 18.463300 0.981264 -0.170839 -0.089074 0 0
    0 -6.591205 6.399534 19.051042 0.367688 -0.929194 -0.037478 0 0
    0 -8.001776 7.439442 18.594999 -0.887615 -0.163902 -0.430437 0 0
  phy
    0 -6.591205 6.399534 19.051042 0.367688 -0.929194 -0.037478 0 0
    0 -7.420124 7.548769 19.222318 -0.956992 -0.275030 -0.092325 0 0
    0 -8.001776 7.439442 18.594999 -0.887615 -0.163902 -0.430437 0 0
  phy
    0 -8.001776 7.439442 18.594999 -0.887615 -0.163902 -0.430437 0 0
    0 -8.334012 7.353753 17.629091 0.483364 -0.126834 -0.866183 0 0
    0 -7.114649 6.300258 18.463300 0.981264 -0.170839 -0.089074 0 0
  phy
    0 -7.420124 7.280026 12.197030 -0.702832 0.691949 -0.165024 0 0
    0 3.242582 7.647763 12.170627 -0.993714 0.100942 0.048401 0 0
    0 6.766231 7.280026 12.197030 -0.534801 0.839255 0.098183 0 0
  phy
    0 3.242582 7.647763 12.170627 -0.993714 0.100942 0.048401 0 0
    0 -7.420124 7.280026 12.197030 -0.702832 0.691949 -0.165024 0 0
    0 -3.896474 7.647763 12.170627 -0.997070 0.059216 -0.048419 0 0
  phy
    0 -7.420124 7.280026 12.197030 -0.702832 0.691949 -0.165024 0 0
    0 -7.114649 6.093952 13.070200 0.991462 0.087210 -0.096937 0 0
    0 -8.334011 7.207705 13.811202 0.114429 0.149551 -0.982110 0 0
  phy
    0 -7.114649 6.093952 13.070200 0.991462 0.087210 -0.096937 0 0
    0 -7.420124 7.280026 12.197030 -0.702832 0.691949 -0.165024 0 0
    0 -6.591205 6.147838 12.471462 0.592173 0.805644 -0.016394 0 0
  phy
    0 -7.420124 7.280026 12.197030 -0.702832 0.691949 -0.165024 0 0
    0 -7.420124 7.548769 19.222318 -0.956992 -0.275030 -0.092325 0 0
    0 -3.896474 7.647763 12.170627 -0.997070 0.059216 -0.048419 0 0
  phy
    0 -6.591205 6.147838 12.471462 0.592173 0.805644 -0.016394 0 0
    0 -7.420124 7.280026 12.197030 -0.702832 0.691949 -0.165024 0 0
    0 6.766231 7.280026 12.197030 -0.534801 0.839255 0.098183 0 0
  phy
    0 -7.114649 6.300258 18.463300 0.981264 -0.170839 -0.089074 0 0
    0 -8.334012 7.353753 17.629091 0.483364 -0.126834 -0.866183 0 0
    0 -7.411910 6.219073 17.555872 0.993831 -0.098048 -0.051823 0 0
  phy
    0 -8.334012 7.353753 17.629091 0.483364 -0.126834 -0.866183 0 0
    0 -8.334011 7.207705 13.811202 0.114429 0.149551 -0.982110 0 0
    0 -7.553240 6.128487 16.471414 0.996437 -0.037557 -0.075517 0 0
  phy
    0 -8.334012 7.353753 17.629091 0.483364 -0.126834 -0.866183 0 0
    0 -7.553240 6.128487 16.471414 0.996437 -0.037557 -0.075517 0 0
    0 -7.411910 6.219073 17.555872 0.993831 -0.098048 -0.051823 0 0
  phy
    0 6.766231 7.548769 19.222318 -0.893637 -0.439877 0.088999 0 0
    0 7.368577 7.435518 18.571765 -0.517542 -0.171640 0.838266 0 0
    0 6.766231 7.280026 12.197030 -0.534801 0.839255 0.098183 0 0
  phy
    0 3.242582 7.647763 12.170627 -0.993714 0.100942 0.048401 0 0
    0 6.766231 7.548769 19.222318 -0.893637 -0.439877 0.088999 0 0
    0 6.766231 7.280026 12.197030 -0.534801 0.839255 0.098183 0 0
  phy
    0 6.766231 7.548769 19.222318 -0.893637 -0.439877 0.088999 0 0
    0 -7.420124 7.548769 19.222318 -0.956992 -0.275030 -0.092325 0 0
    0 -6.591205 6.399534 19.051042 0.367688 -0.929194 -0.037478 0 0
  phy
    0 -6.591205 6.399534 19.051042 0.367688 -0.929194 -0.037478 0 0
    0 6.175445 6.399533 19.051042 0.706450 -0.705836 0.052181 0 0
    0 6.766231 7.548769 19.222318 -0.893637 -0.439877 0.088999 0 0
  phy
    0 6.766231 7.548769 19.222318 -0.893637 -0.439877 0.088999 0 0
    0 3.242582 7.647763 12.170627 -0.993714 0.100942 0.048401 0 0
    0 -0.326946 8.039614 19.187074 -0.999901 -0.014037 0.000000 0 0
  phy
    0 6.766231 7.548769 19.222318 -0.893637 -0.439877 0.088999 0 0
    0 -0.326946 8.039614 19.187074 -0.999901 -0.014037 0.000000 0 0
    0 -7.420124 7.548769 19.222318 -0.956992 -0.275030 -0.092325 0 0
  phy
    0 6.766231 7.548769 19.222318 -0.893637 -0.439877 0.088999 0 0
    0 6.175445 6.399533 19.051042 0.706450 -0.705836 0.052181 0 0
    0 7.368577 7.435518 18.571765 -0.517542 -0.171640 0.838266 0 0
  phy
    0 6.997249 6.082898 13.948438 0.998836 -0.017775 0.044849 0 0
    0 6.698890 6.093952 13.070200 0.991106 0.097201 0.090893 0 0
    0 7.679966 7.207771 13.812363 0.317643 0.018852 0.948023 0 0
  phy
    0 6.698890 6.093952 13.070200 0.991106 0.097201 0.090893 0 0
    0 7.347885 7.219161 12.836568 -0.677342 0.373008 0.634093 0 0
    0 7.679966 7.207771 13.812363 0.317643 0.018852 0.948023 0 0
  phy
    0 7.679966 7.207771 13.812363 0.317643 0.018852 0.948023 0 0
    0 7.347885 7.219161 12.836568 -0.677342 0.373008 0.634093 0 0
    0 7.368577 7.435518 18.571765 -0.517542 -0.171640 0.838266 0 0
  phy
    0 7.368577 7.435518 18.571765 -0.517542 -0.171640 0.838266 0 0
    0 6.996150 6.219073 17.555872 0.990317 -0.061978 0.124224 0 0
    0 7.679966 7.207771 13.812363 0.317643 0.018852 0.948023 0 0
  phy
    0 6.996150 6.219073 17.555872 0.990317 -0.061978 0.124224 0 0
    0 6.997249 6.082898 13.948438 0.998836 -0.017775 0.044849 0 0
    0 7.679966 7.207771 13.812363 0.317643 0.018852 0.948023 0 0
  phy
    0 6.698890 6.093952 13.070200 0.991106 0.097201 0.090893 0 0
    0 6.175445 6.147840 12.471462 0.593989 0.801707 0.066652 0 0
    0 7.347885 7.219161 12.836568 -0.677342 0.373008 0.634093 0 0
  phy
    0 6.175445 6.147840 12.471462 0.593989 0.801707 0.066652 0 0
    0 6.766231 7.280026 12.197030 -0.534801 0.839255 0.098183 0 0
    0 7.347885 7.219161 12.836568 -0.677342 0.373008 0.634093 0 0
  phy
    0 7.368577 7.435518 18.571765 -0.517542 -0.171640 0.838266 0 0
    0 7.347885 7.219161 12.836568 -0.677342 0.373008 0.634093 0 0
    0 6.766231 7.280026 12.197030 -0.534801 0.839255 0.098183 0 0
  phy
    0 6.698890 6.093952 13.070200 0.991106 0.097201 0.090893 0 0
    0 6.997249 6.082898 13.948438 0.998836 -0.017775 0.044849 0 0
    0 -7.114649 6.093952 13.070200 0.991462 0.087210 -0.096937 0 0
  phy
    0 -7.114649 6.093952 13.070200 0.991462 0.087210 -0.096937 0 0
    0 6.997249 6.082898 13.948438 0.998836 -0.017775 0.044849 0 0
    0 -7.410532 6.083005 13.940026 0.997319 -0.000690 -0.073176 0 0
  phy
    0 -8.334011 7.207705 13.811202 0.114429 0.149551 -0.982110 0 0
    0 -7.114649 6.093952 13.070200 0.991462 0.087210 -0.096937 0 0
    0 -7.410532 6.083005 13.940026 0.997319 -0.000690 -0.073176 0 0
  phy
    0 -7.114649 6.093952 13.070200 0.991462 0.087210 -0.096937 0 0
    0 -6.591205 6.147838 12.471462 0.592173 0.805644 -0.016394 0 0
    0 6.698890 6.093952 13.070200 0.991106 0.097201 0.090893 0 0
  phy
    0 -7.553240 6.128487 16.471414 0.996437 -0.037557 -0.075517 0 0
    0 -8.334011 7.207705 13.811202 0.114429 0.149551 -0.982110 0 0
    0 -7.410532 6.083005 13.940026 0.997319 -0.000690 -0.073176 0 0
  phy
    0 7.368577 7.435518 18.571765 -0.517542 -0.171640 0.838266 0 0
    0 6.175445 6.399533 19.051042 0.706450 -0.705836 0.052181 0 0
    0 6.698890 6.300258 18.463300 0.989827 -0.134043 0.047698 0 0
  phy
    0 6.698890 6.300258 18.463300 0.989827 -0.134043 0.047698 0 0
    0 6.996150 6.219073 17.555872 0.990317 -0.061978 0.124224 0 0
    0 7.368577 7.435518 18.571765 -0.517542 -0.171640 0.838266 0 0
  phy
    0 -7.114649 6.300258 18.463300 0.981264 -0.170839 -0.089074 0 0
    0 -7.411910 6.219073 17.555872 0.993831 -0.098048 -0.051823 0 0
    0 6.698890 6.300258 18.463300 0.989827 -0.134043 0.047698 0 0
  phy
    0 6.698890 6.300258 18.463300 0.989827 -0.134043 0.047698 0 0
    0 6.175445 6.399533 19.051042 0.706450 -0.705836 0.052181 0 0
    0 -7.114649 6.300258 18.463300 0.981264 -0.170839 -0.089074 0 0
  phy
    0 -7.114649 6.300258 18.463300 0.981264 -0.170839 -0.089074 0 0
    0 6.175445 6.399533 19.051042 0.706450 -0.705836 0.052181 0 0
    0 -6.591205 6.399534 19.051042 0.367688 -0.929194 -0.037478 0 0
  phy
    0 6.698890 6.093952 13.070200 0.991106 0.097201 0.090893 0 0
    0 -6.591205 6.147838 12.471462 0.592173 0.805644 -0.016394 0 0
    0 6.175445 6.147840 12.471462 0.593989 0.801707 0.066652 0 0
  phy
    0 6.996150 6.219073 17.555872 0.990317 -0.061978 0.124224 0 0
    0 -7.411910 6.219073 17.555872 0.993831 -0.098048 -0.051823 0 0
    0 -7.553240 6.128487 16.471414 0.996437 -0.037557 -0.075517 0 0
  phy
    0 -7.553240 6.128487 16.471414 0.996437 -0.037557 -0.075517 0 0
    0 6.997249 6.082898 13.948438 0.998836 -0.017775 0.044849 0 0
    0 6.996150 6.219073 17.555872 0.990317 -0.061978 0.124224 0 0
  phy
    0 -7.410532 6.083005 13.940026 0.997319 -0.000690 -0.073176 0 0
    0 6.997249 6.082898 13.948438 0.998836 -0.017775 0.044849 0 0
    0 -7.553240 6.128487 16.471414 0.996437 -0.037557 -0.075517 0 0
  phy
    0 6.698890 6.300258 18.463300 0.989827 -0.134043 0.047698 0 0
    0 -7.411910 6.219073 17.555872 0.993831 -0.098048 -0.051823 0 0
    0 6.996150 6.219073 17.555872 0.990317 -0.061978 0.124224 0 0
  phy
    0 6.175445 6.147840 12.471462 0.593989 0.801707 0.066652 0 0
    0 -6.591205 6.147838 12.471462 0.592173 0.805644 -0.016394 0 0
    0 6.766231 7.280026 12.197030 -0.534801 0.839255 0.098183 0 0
  phy
    0 3.242582 7.647763 12.170627 -0.993714 0.100942 0.048401 0 0
    0 -3.896474 7.647763 12.170627 -0.997070 0.059216 -0.048419 0 0
    0 -0.326946 8.039614 19.187074 -0.999901 -0.014037 0.000000 0 0
  phy
    0 -3.896474 7.647763 12.170627 -0.997070 0.059216 -0.048419 0 0
    0 -7.420124 7.548769 19.222318 -0.956992 -0.275030 -0.092325 0 0
    0 -0.326946 8.039614 19.187074 -0.999901 -0.014037 0.000000 0 0
  phy
    0 7.699902 7.350742 17.626247 0.998786 -0.049184 0.002608 0 0
    0 7.699893 7.204862 13.812715 0.999462 -0.031927 0.007498 0 0
    0 7.347885 7.439442 18.594999 0.991474 -0.129791 0.011585 0 0
  phy
    0 7.347885 7.439442 18.594999 0.991474 -0.129791 0.011585 0 0
    0 7.699893 7.204862 13.812715 0.999462 -0.031927 0.007498 0 0
    0 6.766231 7.548769 19.222318 -0.991946 -0.080940 0.097430 0 0
  phy
    0 6.766231 7.548769 19.222318 -0.991946 -0.080940 0.097430 0 0
    0 7.699893 7.204862 13.812715 0.999462 -0.031927 0.007498 0 0
    0 7.347891 7.219160 12.836568 0.997991 0.058762 0.023697 0 0
  phy
    0 -8.353793 7.350742 17.626247 0.998388 -0.056647 -0.003605 0 0
    0 7.699902 7.350742 17.626247 0.998786 -0.049184 0.002608 0 0
    0 7.347885 7.439442 18.594999 0.991474 -0.129791 0.011585 0 0
  phy
    0 7.347885 7.439442 18.594999 0.991474 -0.129791 0.011585 0 0
    0 -7.420124 7.548769 19.222318 -0.975197 -0.170083 -0.141642 0 0
    0 -8.353793 7.350742 17.626247 0.998388 -0.056647 -0.003605 0 0
  phy
    0 6.766231 7.548769 19.222318 -0.991946 -0.080940 0.097430 0 0
    0 -7.420124 7.548769 19.222318 -0.975197 -0.170083 -0.141642 0 0
    0 7.347885 7.439442 18.594999 0.991474 -0.129791 0.011585 0 0
  phy
    0 6.766231 7.280026 12.197030 -0.880982 0.449953 0.146333 0 0
    0 -7.420124 7.280026 12.197030 -0.739333 0.626689 -0.246266 0 0
    0 -3.896474 7.647763 12.170627 -0.993714 0.100942 -0.048401 0 0
  phy
    0 6.766231 7.280026 12.197030 -0.880982 0.449953 0.146333 0 0
    0 -3.896474 7.647763 12.170627 -0.993714 0.100942 -0.048401 0 0
    0 3.242582 7.647763 12.170627 -0.997070 0.059216 0.048419 0 0
  phy
    0 6.766231 7.280026 12.197030 -0.880982 0.449953 0.146333 0 0
    0 7.347891 7.219160 12.836568 0.997991 0.058762 0.023697 0 0
    0 -7.420124 7.280026 12.197030 -0.739333 0.626689 -0.246266 0 0
  phy
    0 6.766231 7.548769 19.222318 -0.991946 -0.080940 0.097430 0 0
    0 6.766231 7.280026 12.197030 -0.880982 0.449953 0.146333 0 0
    0 3.242582 7.647763 12.170627 -0.997070 0.059216 0.048419 0 0
  phy
    0 6.766231 7.280026 12.197030 -0.880982 0.449953 0.146333 0 0
    0 6.766231 7.548769 19.222318 -0.991946 -0.080940 0.097430 0 0
    0 7.347891 7.219160 12.836568 0.997991 0.058762 0.023697 0 0
  phy
    0 -7.420124 7.280026 12.197030 -0.739333 0.626689 -0.246266 0 0
    0 -8.001783 7.219160 12.836568 0.995296 0.078840 -0.056305 0 0
    0 -7.420124 7.548769 19.222318 -0.975197 -0.170083 -0.141642 0 0
  phy
    0 -3.896474 7.647763 12.170627 -0.993714 0.100942 -0.048401 0 0
    0 -7.420124 7.280026 12.197030 -0.739333 0.626689 -0.246266 0 0
    0 -7.420124 7.548769 19.222318 -0.975197 -0.170083 -0.141642 0 0
  phy
    0 -7.420124 7.280026 12.197030 -0.739333 0.626689 -0.246266 0 0
    0 7.347891 7.219160 12.836568 0.997991 0.058762 0.023697 0 0
    0 -8.001783 7.219160 12.836568 0.995296 0.078840 -0.056305 0 0
  phy
    0 -7.420124 7.548769 19.222318 -0.975197 -0.170083 -0.141642 0 0
    0 -8.001783 7.219160 12.836568 0.995296 0.078840 -0.056305 0 0
    0 -8.353784 7.204862 13.812715 0.999754 -0.019282 -0.010938 0 0
  phy
    0 7.347891 7.219160 12.836568 0.997991 0.058762 0.023697 0 0
    0 -8.353784 7.204862 13.812715 0.999754 -0.019282 -0.010938 0 0
    0 -8.001783 7.219160 12.836568 0.995296 0.078840 -0.056305 0 0
  phy
    0 -8.353784 7.204862 13.812715 0.999754 -0.019282 -0.010938 0 0
    0 7.699893 7.204862 13.812715 0.999462 -0.031927 0.007498 0 0
    0 -8.353793 7.350742 17.626247 0.998388 -0.056647 -0.003605 0 0
  phy
    0 7.699893 7.204862 13.812715 0.999462 -0.031927 0.007498 0 0
    0 7.699902 7.350742 17.626247 0.998786 -0.049184 0.002608 0 0
    0 -8.353793 7.350742 17.626247 0.998388 -0.056647 -0.003605 0 0
  phy
    0 7.699893 7.204862 13.812715 0.999462 -0.031927 0.007498 0 0
    0 -8.353784 7.204862 13.812715 0.999754 -0.019282 -0.010938 0 0
    0 7.347891 7.219160 12.836568 0.997991 0.058762 0.023697 0 0
  phy
    0 -8.353793 7.350742 17.626247 0.998388 -0.056647 -0.003605 0 0
    0 -7.420124 7.548769 19.222318 -0.975197 -0.170083 -0.141642 0 0
    0 -8.353784 7.204862 13.812715 0.999754 -0.019282 -0.010938 0 0
  phy
    0 6.766231 7.548769 19.222318 -0.991946 -0.080940 0.097430 0 0
    0 3.242582 7.647763 12.170627 -0.997070 0.059216 0.048419 0 0
    0 -0.326946 8.039614 19.187074 -0.999901 -0.014037 0.000000 0 0
  phy
    0 6.766231 7.548769 19.222318 -0.991946 -0.080940 0.097430 0 0
    0 -0.326946 8.039614 19.187074 -0.999901 -0.014037 0.000000 0 0
    0 -7.420124 7.548769 19.222318 -0.975197 -0.170083 -0.141642 0 0
  phy
    0 -3.896474 7.647763 12.170627 -0.993714 0.100942 -0.048401 0 0
    0 -7.420124 7.548769 19.222318 -0.975197 -0.170083 -0.141642 0 0
    0 -0.326946 8.039614 19.187074 -0.999901 -0.014037 0.000000 0 0
  phy
    0 3.242582 7.647763 12.170627 -0.997070 0.059216 0.048419 0 0
    0 -3.896474 7.647763 12.170627 -0.993714 0.100942 -0.048401 0 0
    0 -0.326946 8.039614 19.187074 -0.999901 -0.014037 0.000000 0 0
  phy
    0 4.546507 8.482146 18.875483 0.987385 -0.151852 0.044856 0 0
    0 5.775125 8.332980 16.755043 0.061269 -0.137240 0.988641 0 0
    0 9.057409 8.922623 -19.274781 -0.970102 0.147311 0.192878 0 0
  phy
    0 -0.287637 8.674243 19.203674 -0.999933 -0.011545 0.000000 0 0
    0 4.546507 8.482146 18.875483 0.987385 -0.151852 0.044856 0 0
    0 9.057409 8.922623 -19.274781 -0.970102 0.147311 0.192878 0 0
  phy
    0 4.546507 8.482146 18.875483 0.987385 -0.151852 0.044856 0 0
    0 -0.287637 8.674243 19.203674 -0.999933 -0.011545 0.000000 0 0
    0 -5.142473 8.482148 18.875483 0.469518 -0.761463 -0.446907 0 0
  phy
    0 4.546507 8.482146 18.875483 0.987385 -0.151852 0.044856 0 0
    0 6.656291 6.728752 -2.957133 0.998929 0.003993 0.046093 0 0
    0 5.775125 8.332980 16.755043 0.061269 -0.137240 0.988641 0 0
  phy
    0 -5.142473 8.482148 18.875483 0.469518 -0.761463 -0.446907 0 0
    0 -7.252254 6.728754 -2.957129 0.999417 0.023782 -0.024480 0 0
    0 4.546507 8.482146 18.875483 0.987385 -0.151852 0.044856 0 0
  phy
    0 -7.252254 6.728754 -2.957129 0.999417 0.023782 -0.024480 0 0
    0 6.656291 6.728752 -2.957133 0.998929 0.003993 0.046093 0 0
    0 4.546507 8.482146 18.875483 0.987385 -0.151852 0.044856 0 0
  phy
    0 -7.658167 7.403586 0.271534 0.362376 -0.071033 -0.929321 0 0
    0 -7.252254 6.728754 -2.957129 0.999417 0.023782 -0.024480 0 0
    0 -6.371088 8.332981 16.755037 -0.032755 -0.132067 -0.990699 0 0
  phy
    0 -7.658167 7.403586 0.271534 0.362376 -0.071033 -0.929321 0 0
    0 -6.371088 8.332981 16.755037 -0.032755 -0.132067 -0.990699 0 0
    0 -9.354969 8.922620 -19.274734 -0.991544 0.044672 -0.121843 0 0
  phy
    0 -7.252254 6.728754 -2.957129 0.999417 0.023782 -0.024480 0 0
    0 -7.658167 7.403586 0.271534 0.362376 -0.071033 -0.929321 0 0
    0 -9.354969 8.922620 -19.274734 -0.991544 0.044672 -0.121843 0 0
  phy
    0 -6.371088 8.332981 16.755037 -0.032755 -0.132067 -0.990699 0 0
    0 -7.252254 6.728754 -2.957129 0.999417 0.023782 -0.024480 0 0
    0 -5.142473 8.482148 18.875483 0.469518 -0.761463 -0.446907 0 0
  phy
    0 -6.371088 8.332981 16.755037 -0.032755 -0.132067 -0.990699 0 0
    0 -5.142473 8.482148 18.875483 0.469518 -0.761463 -0.446907 0 0
    0 -9.354969 8.922620 -19.274734 -0.991544 0.044672 -0.121843 0 0
  phy
    0 -9.354969 8.922620 -19.274734 -0.991544 0.044672 -0.121843 0 0
    0 -5.142473 8.482148 18.875483 0.469518 -0.761463 -0.446907 0 0
    0 -0.287637 8.674243 19.203674 -0.999933 -0.011545 0.000000 0 0
  phy
    0 5.775125 8.332980 16.755043 0.061269 -0.137240 0.988641 0 0
    0 6.656291 6.728752 -2.957133 0.998929 0.003993 0.046093 0 0
    0 7.062201 7.403586 0.271532 0.427599 -0.075068 0.900846 0 0
  phy
    0 7.062201 7.403586 0.271532 0.427599 -0.075068 0.900846 0 0
    0 9.057409 8.922623 -19.274781 -0.970102 0.147311 0.192878 0 0
    0 5.775125 8.332980 16.755043 0.061269 -0.137240 0.988641 0 0
  phy
    0 6.656291 6.728752 -2.957133 0.998929 0.003993 0.046093 0 0
    0 9.057409 8.922623 -19.274781 -0.970102 0.147311 0.192878 0 0
    0 7.062201 7.403586 0.271532 0.427599 -0.075068 0.900846 0 0
  phy
    0 -9.354969 8.922620 -19.274734 -0.991544 0.044672 -0.121843 0 0
    0 9.057409 8.922623 -19.274781 -0.970102 0.147311 0.192878 0 0
    0 -7.252254 6.728754 -2.957129 0.999417 0.023782 -0.024480 0 0
  phy
    0 -7.252254 6.728754 -2.957129 0.999417 0.023782 -0.024480 0 0
    0 9.057409 8.922623 -19.274781 -0.970102 0.147311 0.192878 0 0
    0 6.656291 6.728752 -2.957133 0.998929 0.003993 0.046093 0 0
  phy
    0 -9.354969 8.922620 -19.274734 -0.991544 0.044672 -0.121843 0 0
    0 -0.287637 8.674243 19.203674 -0.999933 -0.011545 0.000000 0 0
    0 9.057409 8.922623 -19.274781 -0.970102 0.147311 0.192878 0 0
  phy
    0 -5.467023 7.723797 17.700055 0.871760 -0.121651 -0.474591 0 0
    0 -6.588464 6.064966 -2.957129 0.999385 0.025531 -0.024038 0 0
    0 -4.810395 7.774911 18.354186 0.993608 -0.111267 -0.019033 0 0
  phy
    0 -4.810395 7.774911 18.354186 0.993608 -0.111267 -0.019033 0 0
    0 -6.588464 6.064966 -2.957129 0.999385 0.025531 -0.024038 0 0
    0 -3.913859 7.794153 18.594009 0.991210 -0.132295 -0.000646 0 0
  phy
    0 -4.810395 7.774911 18.354186 0.993608 -0.111267 -0.019033 0 0
    0 -5.142473 8.482148 18.875483 -0.996242 -0.044293 -0.074432 0 0
    0 -5.467023 7.723797 17.700055 0.871760 -0.121651 -0.474591 0 0
  phy
    0 -3.913859 7.794153 18.594009 0.991210 -0.132295 -0.000646 0 0
    0 -5.142473 8.482148 18.875483 -0.996242 -0.044293 -0.074432 0 0
    0 -4.810395 7.774911 18.354186 0.993608 -0.111267 -0.019033 0 0
  phy
    0 4.871058 7.723797 17.700055 0.871760 -0.121651 0.474590 0 0
    0 4.546507 8.482146 18.875483 -0.996374 -0.041720 0.074155 0 0
    0 4.214429 7.774910 18.354186 0.994765 -0.102170 0.001701 0 0
  phy
    0 4.871058 7.723797 17.700055 0.871760 -0.121651 0.474590 0 0
    0 5.775125 8.332980 16.755043 -0.047922 -0.123617 0.991172 0 0
    0 4.546507 8.482146 18.875483 -0.996374 -0.041720 0.074155 0 0
  phy
    0 6.398412 6.739799 0.271532 0.761153 -0.094651 0.641629 0 0
    0 5.775125 8.332980 16.755043 -0.047922 -0.123617 0.991172 0 0
    0 4.871058 7.723797 17.700055 0.871760 -0.121651 0.474590 0 0
  phy
    0 4.871058 7.723797 17.700055 0.871760 -0.121651 0.474590 0 0
    0 5.992500 6.064964 -2.957132 0.997817 0.005699 0.065791 0 0
    0 6.398412 6.739799 0.271532 0.761153 -0.094651 0.641629 0 0
  phy
    0 4.214429 7.774910 18.354186 0.994765 -0.102170 0.001701 0 0
    0 5.992500 6.064964 -2.957132 0.997817 0.005699 0.065791 0 0
    0 4.871058 7.723797 17.700055 0.871760 -0.121651 0.474590 0 0
  phy
    0 -5.467023 7.723797 17.700055 0.871760 -0.121651 -0.474591 0 0
    0 -6.371088 8.332981 16.755037 -0.121819 -0.118601 -0.985441 0 0
    0 -6.994379 6.739799 0.271534 0.761153 -0.094651 -0.641628 0 0
  phy
    0 -6.994379 6.739799 0.271534 0.761153 -0.094651 -0.641628 0 0
    0 -6.588464 6.064966 -2.957129 0.999385 0.025531 -0.024038 0 0
    0 -5.467023 7.723797 17.700055 0.871760 -0.121651 -0.474591 0 0
  phy
    0 -5.467023 7.723797 17.700055 0.871760 -0.121651 -0.474591 0 0
    0 -5.142473 8.482148 18.875483 -0.996242 -0.044293 -0.074432 0 0
    0 -6.371088 8.332981 16.755037 -0.121819 -0.118601 -0.985441 0 0
  phy
    0 -3.913859 7.794153 18.594009 0.991210 -0.132295 -0.000646 0 0
    0 -6.588464 6.064966 -2.957129 0.999385 0.025531 -0.024038 0 0
    0 4.214429 7.774910 18.354186 0.994765 -0.102170 0.001701 0 0
  phy
    0 -6.588464 6.064966 -2.957129 0.999385 0.025531 -0.024038 0 0
    0 5.992500 6.064964 -2.957132 0.997817 0.005699 0.065791 0 0
    0 4.214429 7.774910 18.354186 0.994765 -0.102170 0.001701 0 0
  phy
    0 4.214429 7.774910 18.354186 0.994765 -0.102170 0.001701 0 0
    0 -0.287637 8.674243 19.203674 -0.999729 -0.023278 0.000151 0 0
    0 -3.913859 7.794153 18.594009 0.991210 -0.132295 -0.000646 0 0
  phy
    0 4.546507 8.482146 18.875483 -0.996374 -0.041720 0.074155 0 0
    0 -0.287637 8.674243 19.203674 -0.999729 -0.023278 0.000151 0 0
    0 4.214429 7.774910 18.354186 0.994765 -0.102170 0.001701 0 0
  phy
    0 -6.994379 6.739799 0.271534 0.761153 -0.094651 -0.641628 0 0
    0 -6.371088 8.332981 16.755037 -0.121819 -0.118601 -0.985441 0 0
    0 -7.658158 7.403572 0.271500 0.379175 -0.070994 -0.922598 0 0
  phy
    0 -7.658158 7.403572 0.271500 0.379175 -0.070994 -0.922598 0 0
    0 -6.588464 6.064966 -2.957129 0.999385 0.025531 -0.024038 0 0
    0 -6.994379 6.739799 0.271534 0.761153 -0.094651 -0.641628 0 0
  phy
    0 -8.691179 8.258830 -19.274734 0.984500 0.160377 -0.070984 0 0
    0 -6.588464 6.064966 -2.957129 0.999385 0.025531 -0.024038 0 0
    0 -7.252254 6.728754 -2.957129 0.664062 -0.010455 -0.747605 0 0
  phy
    0 -7.252254 6.728754 -2.957129 0.664062 -0.010455 -0.747605 0 0
    0 -9.354983 8.922632 -19.274894 -0.995402 0.011982 -0.095032 0 0
    0 -8.691179 8.258830 -19.274734 0.984500 0.160377 -0.070984 0 0
  phy
    0 -7.252254 6.728754 -2.957129 0.664062 -0.010455 -0.747605 0 0
    0 -6.588464 6.064966 -2.957129 0.999385 0.025531 -0.024038 0 0
    0 -7.658158 7.403572 0.271500 0.379175 -0.070994 -0.922598 0 0
  phy
    0 -7.252254 6.728754 -2.957129 0.664062 -0.010455 -0.747605 0 0
    0 -7.658158 7.403572 0.271500 0.379175 -0.070994 -0.922598 0 0
    0 -9.354983 8.922632 -19.274894 -0.995402 0.011982 -0.095032 0 0
  phy
    0 -3.913859 7.794153 18.594009 0.991210 -0.132295 -0.000646 0 0
    0 -0.287637 8.674243 19.203674 -0.999729 -0.023278 0.000151 0 0
    0 -5.142473 8.482148 18.875483 -0.996242 -0.044293 -0.074432 0 0
  phy
    0 -7.658158 7.403572 0.271500 0.379175 -0.070994 -0.922598 0 0
    0 -6.371088 8.332981 16.755037 -0.121819 -0.118601 -0.985441 0 0
    0 -9.354983 8.922632 -19.274894 -0.995402 0.011982 -0.095032 0 0
  phy
    0 -6.371088 8.332981 16.755037 -0.121819 -0.118601 -0.985441 0 0
    0 -5.142473 8.482148 18.875483 -0.996242 -0.044293 -0.074432 0 0
    0 -9.354983 8.922632 -19.274894 -0.995402 0.011982 -0.095032 0 0
  phy
    0 -5.142473 8.482148 18.875483 -0.996242 -0.044293 -0.074432 0 0
    0 -0.287637 8.674243 19.203674 -0.999729 -0.023278 0.000151 0 0
    0 -9.354983 8.922632 -19.274894 -0.995402 0.011982 -0.095032 0 0
  phy
    0 7.062193 7.403575 0.271507 0.437235 -0.074573 0.896250 0 0
    0 5.775125 8.332980 16.755043 -0.047922 -0.123617 0.991172 0 0
    0 6.398412 6.739799 0.271532 0.761153 -0.094651 0.641629 0 0
  phy
    0 6.398412 6.739799 0.271532 0.761153 -0.094651 0.641629 0 0
    0 5.992500 6.064964 -2.957132 0.997817 0.005699 0.065791 0 0
    0 7.062193 7.403575 0.271507 0.437235 -0.074573 0.896250 0 0
  phy
    0 6.656291 6.728753 -2.957131 0.660544 -0.025260 0.750362 0 0
    0 9.057392 8.922605 -19.274722 -0.994038 -0.001545 0.109025 0 0
    0 7.062193 7.403575 0.271507 0.437235 -0.074573 0.896250 0 0
  phy
    0 7.062193 7.403575 0.271507 0.437235 -0.074573 0.896250 0 0
    0 5.992500 6.064964 -2.957132 0.997817 0.005699 0.065791 0 0
    0 6.656291 6.728753 -2.957131 0.660544 -0.025260 0.750362 0 0
  phy
    0 6.656291 6.728753 -2.957131 0.660544 -0.025260 0.750362 0 0
    0 5.992500 6.064964 -2.957132 0.997817 0.005699 0.065791 0 0
    0 9.057392 8.922605 -19.274722 -0.994038 -0.001545 0.109025 0 0
  phy
    0 8.393611 8.258827 -19.274722 0.984154 0.176003 0.021539 0 0
    0 -6.588464 6.064966 -2.957129 0.999385 0.025531 -0.024038 0 0
    0 -8.691179 8.258830 -19.274734 0.984500 0.160377 -0.070984 0 0
  phy
    0 8.393611 8.258827 -19.274722 0.984154 0.176003 0.021539 0 0
    0 -8.691179 8.258830 -19.274734 0.984500 0.160377 -0.070984 0 0
    0 -9.354983 8.922632 -19.274894 -0.995402 0.011982 -0.095032 0 0
  phy
    0 4.546507 8.482146 18.875483 -0.996374 -0.041720 0.074155 0 0
    0 5.775125 8.332980 16.755043 -0.047922 -0.123617 0.991172 0 0
    0 9.057392 8.922605 -19.274722 -0.994038 -0.001545 0.109025 0 0
  phy
    0 4.546507 8.482146 18.875483 -0.996374 -0.041720 0.074155 0 0
    0 9.057392 8.922605 -19.274722 -0.994038 -0.001545 0.109025 0 0
    0 -0.287637 8.674243 19.203674 -0.999729 -0.023278 0.000151 0 0
  phy
    0 7.062193 7.403575 0.271507 0.437235 -0.074573 0.896250 0 0
    0 9.057392 8.922605 -19.274722 -0.994038 -0.001545 0.109025 0 0
    0 5.775125 8.332980 16.755043 -0.047922 -0.123617 0.991172 0 0
  phy
    0 8.393611 8.258827 -19.274722 0.984154 0.176003 0.021539 0 0
    0 5.992500 6.064964 -2.957132 0.997817 0.005699 0.065791 0 0
    0 -6.588464 6.064966 -2.957129 0.999385 0.025531 -0.024038 0 0
  phy
    0 9.057392 8.922605 -19.274722 -0.994038 -0.001545 0.109025 0 0
    0 5.992500 6.064964 -2.957132 0.997817 0.005699 0.065791 0 0
    0 8.393611 8.258827 -19.274722 0.984154 0.176003 0.021539 0 0
  phy
    0 9.057392 8.922605 -19.274722 -0.994038 -0.001545 0.109025 0 0
    0 8.393611 8.258827 -19.274722 0.984154 0.176003 0.021539 0 0
    0 -9.354983 8.922632 -19.274894 -0.995402 0.011982 -0.095032 0 0
  phy
    0 -0.287637 8.674243 19.203674 -0.999729 -0.023278 0.000151 0 0
    0 9.057392 8.922605 -19.274722 -0.994038 -0.001545 0.109025 0 0
    0 -9.354983 8.922632 -19.274894 -0.995402 0.011982 -0.095032 0 0
  phy
    0 -4.892166 8.359500 17.317101 -0.776292 -0.072777 -0.626158 0 0
    0 -4.478685 8.391941 17.729307 -0.997995 -0.038014 -0.050601 0 0
    0 -8.027389 8.922620 -19.274734 -0.999043 0.013609 -0.041573 0 0
  phy
    0 -4.478685 8.391941 17.729307 -0.997995 -0.038014 -0.050601 0 0
    0 -0.287637 8.570081 17.880184 -0.999683 -0.025196 0.000176 0 0
    0 -8.027389 8.922620 -19.274734 -0.999043 0.013609 -0.041573 0 0
  phy
    0 -4.478685 8.391941 17.729307 -0.997995 -0.038014 -0.050601 0 0
    0 -3.913859 7.794153 18.594009 0.994751 -0.102322 -0.000449 0 0
    0 -0.287637 8.570081 17.880184 -0.999683 -0.025196 0.000176 0 0
  phy
    0 -4.478685 8.391941 17.729307 -0.997995 -0.038014 -0.050601 0 0
    0 -4.810762 7.774962 18.354820 0.991921 -0.123290 -0.029885 0 0
    0 -3.913859 7.794153 18.594009 0.994751 -0.102322 -0.000449 0 0
  phy
    0 -4.810762 7.774962 18.354820 0.991921 -0.123290 -0.029885 0 0
    0 -4.478685 8.391941 17.729307 -0.997995 -0.038014 -0.050601 0 0
    0 -4.892166 8.359500 17.317101 -0.776292 -0.072777 -0.626158 0 0
  phy
    0 -4.810762 7.774962 18.354820 0.991921 -0.123290 -0.029885 0 0
    0 -6.588464 6.064966 -2.957129 0.998320 0.047742 -0.032831 0 0
    0 -3.913859 7.794153 18.594009 0.994751 -0.102322 -0.000449 0 0
  phy
    0 -5.467023 7.723797 17.700055 0.018178 -0.116983 -0.992968 0 0
    0 -6.588464 6.064966 -2.957129 0.998320 0.047742 -0.032831 0 0
    0 -4.810762 7.774962 18.354820 0.991921 -0.123290 -0.029885 0 0
  phy
    0 -4.810762 7.774962 18.354820 0.991921 -0.123290 -0.029885 0 0
    0 -4.892166 8.359500 17.317101 -0.776292 -0.072777 -0.626158 0 0
    0 -5.467023 7.723797 17.700055 0.018178 -0.116983 -0.992968 0 0
  phy
    0 4.214803 7.774961 18.354817 0.990601 -0.136642 0.006235 0 0
    0 -0.287637 8.570081 17.880184 -0.999683 -0.025196 0.000176 0 0
    0 -3.913859 7.794153 18.594009 0.994751 -0.102322 -0.000449 0 0
  phy
    0 4.214803 7.774961 18.354817 0.990601 -0.136642 0.006235 0 0
    0 3.882720 8.391941 17.729309 -0.998123 -0.035128 0.050169 0 0
    0 -0.287637 8.570081 17.880184 -0.999683 -0.025196 0.000176 0 0
  phy
    0 -3.913859 7.794153 18.594009 0.994751 -0.102322 -0.000449 0 0
    0 5.992500 6.064964 -2.957132 0.999117 -0.016266 0.038727 0 0
    0 4.214803 7.774961 18.354817 0.990601 -0.136642 0.006235 0 0
  phy
    0 4.214803 7.774961 18.354817 0.990601 -0.136642 0.006235 0 0
    0 5.992500 6.064964 -2.957132 0.999117 -0.016266 0.038727 0 0
    0 4.870714 7.722610 17.702362 0.082550 -0.122641 0.989012 0 0
  phy
    0 3.882720 8.391941 17.729309 -0.998123 -0.035128 0.050169 0 0
    0 4.214803 7.774961 18.354817 0.990601 -0.136642 0.006235 0 0
    0 4.296199 8.359500 17.317101 -0.775668 -0.077796 0.626328 0 0
  phy
    0 4.296199 8.359500 17.317101 -0.775668 -0.077796 0.626328 0 0
    0 4.214803 7.774961 18.354817 0.990601 -0.136642 0.006235 0 0
    0 4.870714 7.722610 17.702362 0.082550 -0.122641 0.989012 0 0
  phy
    0 -8.691179 8.258830 -19.274734 0.900775 0.145118 -0.409323 0 0
    0 -6.994379 6.739799 0.271534 0.327057 -0.077394 -0.941830 0 0
    0 -5.467023 7.723797 17.700055 0.018178 -0.116983 -0.992968 0 0
  phy
    0 -6.994379 6.739799 0.271534 0.327057 -0.077394 -0.941830 0 0
    0 -8.691179 8.258830 -19.274734 0.900775 0.145118 -0.409323 0 0
    0 -6.588464 6.064966 -2.957129 0.998320 0.047742 -0.032831 0 0
  phy
    0 -6.994379 6.739799 0.271534 0.327057 -0.077394 -0.941830 0 0
    0 -6.588464 6.064966 -2.957129 0.998320 0.047742 -0.032831 0 0
    0 -5.467023 7.723797 17.700055 0.018178 -0.116983 -0.992968 0 0
  phy
    0 -6.588464 6.064966 -2.957129 0.998320 0.047742 -0.032831 0 0
    0 5.992500 6.064964 -2.957132 0.999117 -0.016266 0.038727 0 0
    0 -3.913859 7.794153 18.594009 0.994751 -0.102322 -0.000449 0 0
  phy
    0 -4.892166 8.359500 17.317101 -0.776292 -0.072777 -0.626158 0 0
    0 -8.691179 8.258830 -19.274734 0.900775 0.145118 -0.409323 0 0
    0 -5.467023 7.723797 17.700055 0.018178 -0.116983 -0.992968 0 0
  phy
    0 -8.691179 8.258830 -19.274734 0.900775 0.145118 -0.409323 0 0
    0 -4.892166 8.359500 17.317101 -0.776292 -0.072777 -0.626158 0 0
    0 -8.027389 8.922620 -19.274734 -0.999043 0.013609 -0.041573 0 0
  phy
    0 8.393613 8.258827 -19.274722 0.958802 0.161034 0.234023 0 0
    0 -6.588464 6.064966 -2.957129 0.998320 0.047742 -0.032831 0 0
    0 -8.691179 8.258830 -19.274734 0.900775 0.145118 -0.409323 0 0
  phy
    0 8.393613 8.258827 -19.274722 0.958802 0.161034 0.234023 0 0
    0 -8.691179 8.258830 -19.274734 0.900775 0.145118 -0.409323 0 0
    0 -8.027389 8.922620 -19.274734 -0.999043 0.013609 -0.041573 0 0
  phy
    0 3.882720 8.391941 17.729309 -0.998123 -0.035128 0.050169 0 0
    0 4.296199 8.359500 17.317101 -0.775668 -0.077796 0.626328 0 0
    0 7.729825 8.922619 -19.274724 -0.999132 -0.001274 0.041627 0 0
  phy
    0 3.882720 8.391941 17.729309 -0.998123 -0.035128 0.050169 0 0
    0 7.729825 8.922619 -19.274724 -0.999132 -0.001274 0.041627 0 0
    0 -0.287637 8.570081 17.880184 -0.999683 -0.025196 0.000176 0 0
  phy
    0 8.393613 8.258827 -19.274722 0.958802 0.161034 0.234023 0 0
    0 4.870714 7.722610 17.702362 0.082550 -0.122641 0.989012 0 0
    0 6.398412 6.739799 0.271532 0.395642 -0.081417 0.914789 0 0
  phy
    0 6.398412 6.739799 0.271532 0.395642 -0.081417 0.914789 0 0
    0 5.992500 6.064964 -2.957132 0.999117 -0.016266 0.038727 0 0
    0 8.393613 8.258827 -19.274722 0.958802 0.161034 0.234023 0 0
  phy
    0 4.870714 7.722610 17.702362 0.082550 -0.122641 0.989012 0 0
    0 5.992500 6.064964 -2.957132 0.999117 -0.016266 0.038727 0 0
    0 6.398412 6.739799 0.271532 0.395642 -0.081417 0.914789 0 0
  phy
    0 4.296199 8.359500 17.317101 -0.775668 -0.077796 0.626328 0 0
    0 4.870714 7.722610 17.702362 0.082550 -0.122641 0.989012 0 0
    0 8.393613 8.258827 -19.274722 0.958802 0.161034 0.234023 0 0
  phy
    0 8.393613 8.258827 -19.274722 0.958802 0.161034 0.234023 0 0
    0 7.729825 8.922619 -19.274724 -0.999132 -0.001274 0.041627 0 0
    0 4.296199 8.359500 17.317101 -0.775668 -0.077796 0.626328 0 0
  phy
    0 8.393613 8.258827 -19.274722 0.958802 0.161034 0.234023 0 0
    0 5.992500 6.064964 -2.957132 0.999117 -0.016266 0.038727 0 0
    0 -6.588464 6.064966 -2.957129 0.998320 0.047742 -0.032831 0 0
  phy
    0 7.729825 8.922619 -19.274724 -0.999132 -0.001274 0.041627 0 0
    0 8.393613 8.258827 -19.274722 0.958802 0.161034 0.234023 0 0
    0 -8.027389 8.922620 -19.274734 -0.999043 0.013609 -0.041573 0 0
  phy
    0 -0.287637 8.570081 17.880184 -0.999683 -0.025196 0.000176 0 0
    0 7.729825 8.922619 -19.274724 -0.999132 -0.001274 0.041627 0 0
    0 -8.027389 8.922620 -19.274734 -0.999043 0.013609 -0.041573 0 0
  phy
    0 -8.938192 -7.453746 1.244196 0.344646 -0.326529 -0.880113 0 0
    0 -8.065118 -8.851912 1.244196 0.626675 -0.533143 -0.568364 0 0
    0 -8.001776 7.439442 18.594999 0.359780 -0.484404 -0.797440 0 0
  phy
    0 -8.332093 7.350742 17.626247 -0.127772 -0.049101 -0.990587 0 0
    0 -8.938192 -7.453746 1.244196 0.344646 -0.326529 -0.880113 0 0
    0 -8.001776 7.439442 18.594999 0.359780 -0.484404 -0.797440 0 0
  phy
    0 -8.065118 -8.851912 1.244196 0.626675 -0.533143 -0.568364 0 0
    0 -8.938192 -7.453746 1.244196 0.344646 -0.326529 -0.880113 0 0
    0 -9.384212 -7.453749 -0.850691 0.006953 -0.026226 -0.999632 0 0
  phy
    0 -9.384212 -7.453749 -0.850691 0.006953 -0.026226 -0.999632 0 0
    0 -8.938192 -7.453746 1.244196 0.344646 -0.326529 -0.880113 0 0
    0 -8.332093 7.350742 17.626247 -0.127772 -0.049101 -0.990587 0 0
  phy
    0 -8.345445 -9.586421 -19.274734 0.861310 0.506444 -0.040732 0 0
    0 6.676187 -9.586406 -0.850691 0.999696 -0.002081 0.024557 0 0
    0 -6.676184 -9.586406 -0.850691 0.998994 -0.004319 -0.044629 0 0
  phy
    0 -8.345445 -9.586421 -19.274734 0.861310 0.506444 -0.040732 0 0
    0 8.089784 -9.586421 -19.274731 0.996260 0.033114 0.079813 0 0
    0 6.676187 -9.586406 -0.850691 0.999696 -0.002081 0.024557 0 0
  phy
    0 6.676187 -9.586406 -0.850691 0.999696 -0.002081 0.024557 0 0
    0 6.351604 -9.586404 1.244196 0.808786 -0.586672 0.041009 0 0
    0 -6.676184 -9.586406 -0.850691 0.998994 -0.004319 -0.044629 0 0
  phy
    0 6.676187 -9.586406 -0.850691 0.999696 -0.002081 0.024557 0 0
    0 8.467137 -8.851912 -0.850689 0.790554 -0.034685 0.611410 0 0
    0 6.351604 -9.586404 1.244196 0.808786 -0.586672 0.041009 0 0
  phy
    0 6.676187 -9.586406 -0.850691 0.999696 -0.002081 0.024557 0 0
    0 8.089784 -9.586421 -19.274731 0.996260 0.033114 0.079813 0 0
    0 8.467137 -8.851912 -0.850689 0.790554 -0.034685 0.611410 0 0
  phy
    0 -8.065118 -8.851912 1.244196 0.626675 -0.533143 -0.568364 0 0
    0 -6.591205 6.399534 19.051042 0.706698 -0.705278 -0.056213 0 0
    0 -7.114649 6.300258 18.463300 0.579813 -0.546615 -0.604176 0 0
  phy
    0 -8.065118 -8.851912 1.244196 0.626675 -0.533143 -0.568364 0 0
    0 -6.360101 -9.586404 1.244196 0.765642 -0.642824 -0.023880 0 0
    0 -6.591205 6.399534 19.051042 0.706698 -0.705278 -0.056213 0 0
  phy
    0 -8.467136 -8.851912 -0.850689 0.790330 -0.042063 -0.611236 0 0
    0 -8.065118 -8.851912 1.244196 0.626675 -0.533143 -0.568364 0 0
    0 -9.384212 -7.453749 -0.850691 0.006953 -0.026226 -0.999632 0 0
  phy
    0 -8.065118 -8.851912 1.244196 0.626675 -0.533143 -0.568364 0 0
    0 -7.114649 6.300258 18.463300 0.579813 -0.546615 -0.604176 0 0
    0 -8.001776 7.439442 18.594999 0.359780 -0.484404 -0.797440 0 0
  phy
    0 -8.467136 -8.851912 -0.850689 0.790330 -0.042063 -0.611236 0 0
    0 -6.360101 -9.586404 1.244196 0.765642 -0.642824 -0.023880 0 0
    0 -8.065118 -8.851912 1.244196 0.626675 -0.533143 -0.568364 0 0
  phy
    0 8.467137 -8.851912 -0.850689 0.790554 -0.034685 0.611410 0 0
    0 8.056621 -8.851912 1.244196 0.610056 -0.533273 0.586047 0 0
    0 6.351604 -9.586404 1.244196 0.808786 -0.586672 0.041009 0 0
  phy
    0 6.351604 -9.586404 1.244196 0.808786 -0.586672 0.041009 0 0
    0 -6.360101 -9.586404 1.244196 0.765642 -0.642824 -0.023880 0 0
    0 -6.676184 -9.586406 -0.850691 0.998994 -0.004319 -0.044629 0 0
  phy
    0 6.351604 -9.586404 1.244196 0.808786 -0.586672 0.041009 0 0
    0 8.056621 -8.851912 1.244196 0.610056 -0.533273 0.586047 0 0
    0 6.175445 6.399533 19.051042 0.733484 -0.678952 0.032033 0 0
  phy
    0 6.175445 6.399533 19.051042 0.733484 -0.678952 0.032033 0 0
    0 -6.360101 -9.586404 1.244196 0.765642 -0.642824 -0.023880 0 0
    0 6.351604 -9.586404 1.244196 0.808786 -0.586672 0.041009 0 0
  phy
    0 6.698890 6.300258 18.463300 0.526980 -0.522192 0.670528 0 0
    0 7.347885 7.439442 18.594999 0.307691 -0.470307 0.827126 0 0
    0 6.175445 6.399533 19.051042 0.733484 -0.678952 0.032033 0 0
  phy
    0 7.347885 7.439442 18.594999 0.307691 -0.470307 0.827126 0 0
    0 6.766231 7.548769 19.222318 0.015794 -0.999343 0.032606 0 0
    0 6.175445 6.399533 19.051042 0.733484 -0.678952 0.032033 0 0
  phy
    0 6.175445 6.399533 19.051042 0.733484 -0.678952 0.032033 0 0
    0 6.766231 7.548769 19.222318 0.015794 -0.999343 0.032606 0 0
    0 -6.591205 6.399534 19.051042 0.706698 -0.705278 -0.056213 0 0
  phy
    0 -6.591205 6.399534 19.051042 0.706698 -0.705278 -0.056213 0 0
    0 -6.360101 -9.586404 1.244196 0.765642 -0.642824 -0.023880 0 0
    0 6.175445 6.399533 19.051042 0.733484 -0.678952 0.032033 0 0
  phy
    0 6.175445 6.399533 19.051042 0.733484 -0.678952 0.032033 0 0
    0 8.056621 -8.851912 1.244196 0.610056 -0.533273 0.586047 0 0
    0 6.698890 6.300258 18.463300 0.526980 -0.522192 0.670528 0 0
  phy
    0 8.929695 -7.453745 1.244196 0.323035 -0.339900 0.883242 0 0
    0 7.678201 7.350742 17.626247 -0.153577 -0.058883 0.986381 0 0
    0 7.347885 7.439442 18.594999 0.307691 -0.470307 0.827126 0 0
  phy
    0 8.929695 -7.453745 1.244196 0.323035 -0.339900 0.883242 0 0
    0 9.384215 -7.453747 -0.850691 -0.013295 -0.027792 0.999525 0 0
    0 7.678201 7.350742 17.626247 -0.153577 -0.058883 0.986381 0 0
  phy
    0 7.347885 7.439442 18.594999 0.307691 -0.470307 0.827126 0 0
    0 8.056621 -8.851912 1.244196 0.610056 -0.533273 0.586047 0 0
    0 8.929695 -7.453745 1.244196 0.323035 -0.339900 0.883242 0 0
  phy
    0 8.056621 -8.851912 1.244196 0.610056 -0.533273 0.586047 0 0
    0 9.384215 -7.453747 -0.850691 -0.013295 -0.027792 0.999525 0 0
    0 8.929695 -7.453745 1.244196 0.323035 -0.339900 0.883242 0 0
  phy
    0 -8.467136 -8.851912 -0.850689 0.790330 -0.042063 -0.611236 0 0
    0 -9.384212 -7.453749 -0.850691 0.006953 -0.026226 -0.999632 0 0
    0 -9.357846 -8.779656 -19.274734 0.096232 0.044923 -0.994345 0 0
  phy
    0 -9.357846 -8.779656 -19.274734 0.096232 0.044923 -0.994345 0 0
    0 -8.345445 -9.586421 -19.274734 0.861310 0.506444 -0.040732 0 0
    0 -8.467136 -8.851912 -0.850689 0.790330 -0.042063 -0.611236 0 0
  phy
    0 -8.467136 -8.851912 -0.850689 0.790330 -0.042063 -0.611236 0 0
    0 -8.345445 -9.586421 -19.274734 0.861310 0.506444 -0.040732 0 0
    0 -6.676184 -9.586406 -0.850691 0.998994 -0.004319 -0.044629 0 0
  phy
    0 -6.676184 -9.586406 -0.850691 0.998994 -0.004319 -0.044629 0 0
    0 -6.360101 -9.586404 1.244196 0.765642 -0.642824 -0.023880 0 0
    0 -8.467136 -8.851912 -0.850689 0.790330 -0.042063 -0.611236 0 0
  phy
    0 -7.420124 7.548769 19.222318 -0.034073 -0.998391 -0.045324 0 0
    0 -5.142473 8.482148 18.875483 -0.996423 -0.040276 -0.074289 0 0
    0 -8.001776 7.439442 18.594999 0.359780 -0.484404 -0.797440 0 0
  phy
    0 -7.420124 7.548769 19.222318 -0.034073 -0.998391 -0.045324 0 0
    0 -8.001776 7.439442 18.594999 0.359780 -0.484404 -0.797440 0 0
    0 -6.591205 6.399534 19.051042 0.706698 -0.705278 -0.056213 0 0
  phy
    0 -6.591205 6.399534 19.051042 0.706698 -0.705278 -0.056213 0 0
    0 6.766231 7.548769 19.222318 0.015794 -0.999343 0.032606 0 0
    0 -7.420124 7.548769 19.222318 -0.034073 -0.998391 -0.045324 0 0
  phy
    0 -7.420124 7.548769 19.222318 -0.034073 -0.998391 -0.045324 0 0
    0 6.766231 7.548769 19.222318 0.015794 -0.999343 0.032606 0 0
    0 -0.287637 8.674243 19.203674 -0.999486 -0.032068 0.000000 0 0
  phy
    0 -7.420124 7.548769 19.222318 -0.034073 -0.998391 -0.045324 0 0
    0 -0.287637 8.674243 19.203674 -0.999486 -0.032068 0.000000 0 0
    0 -5.142473 8.482148 18.875483 -0.996423 -0.040276 -0.074289 0 0
  phy
    0 -6.371088 8.332981 16.755037 -0.935103 -0.049164 -0.350950 0 0
    0 -8.332093 7.350742 17.626247 -0.127772 -0.049101 -0.990587 0 0
    0 -8.001776 7.439442 18.594999 0.359780 -0.484404 -0.797440 0 0
  phy
    0 -8.332093 7.350742 17.626247 -0.127772 -0.049101 -0.990587 0 0
    0 -6.371088 8.332981 16.755037 -0.935103 -0.049164 -0.350950 0 0
    0 -9.354969 8.922620 -19.274734 -0.666427 0.415761 -0.618884 0 0
  phy
    0 -5.142473 8.482148 18.875483 -0.996423 -0.040276 -0.074289 0 0
    0 -6.371088 8.332981 16.755037 -0.935103 -0.049164 -0.350950 0 0
    0 -8.001776 7.439442 18.594999 0.359780 -0.484404 -0.797440 0 0
  phy
    0 -6.371088 8.332981 16.755037 -0.935103 -0.049164 -0.350950 0 0
    0 -5.142473 8.482148 18.875483 -0.996423 -0.040276 -0.074289 0 0
    0 -9.354969 8.922620 -19.274734 -0.666427 0.415761 -0.618884 0 0
  phy
    0 8.089784 -9.586421 -19.274731 0.996260 0.033114 0.079813 0 0
    0 9.102169 -8.779663 -19.274731 0.045583 0.875271 0.481480 0 0
    0 8.467137 -8.851912 -0.850689 0.790554 -0.034685 0.611410 0 0
  phy
    0 8.467137 -8.851912 -0.850689 0.790554 -0.034685 0.611410 0 0
    0 9.384215 -7.453747 -0.850691 -0.013295 -0.027792 0.999525 0 0
    0 8.056621 -8.851912 1.244196 0.610056 -0.533273 0.586047 0 0
  phy
    0 8.467137 -8.851912 -0.850689 0.790554 -0.034685 0.611410 0 0
    0 9.102169 -8.779663 -19.274731 0.045583 0.875271 0.481480 0 0
    0 9.384215 -7.453747 -0.850691 -0.013295 -0.027792 0.999525 0 0
  phy
    0 9.102169 -8.779663 -19.274731 0.045583 0.875271 0.481480 0 0
    0 8.089784 -9.586421 -19.274731 0.996260 0.033114 0.079813 0 0
    0 -8.345445 -9.586421 -19.274734 0.861310 0.506444 -0.040732 0 0
  phy
    0 6.698890 6.300258 18.463300 0.526980 -0.522192 0.670528 0 0
    0 8.056621 -8.851912 1.244196 0.610056 -0.533273 0.586047 0 0
    0 7.347885 7.439442 18.594999 0.307691 -0.470307 0.827126 0 0
  phy
    0 4.546507 8.482146 18.875483 -0.996353 -0.041004 0.074835 0 0
    0 7.347885 7.439442 18.594999 0.307691 -0.470307 0.827126 0 0
    0 5.775125 8.332980 16.755043 -0.932302 -0.052667 0.357827 0 0
  phy
    0 7.347885 7.439442 18.594999 0.307691 -0.470307 0.827126 0 0
    0 4.546507 8.482146 18.875483 -0.996353 -0.041004 0.074835 0 0
    0 6.766231 7.548769 19.222318 0.015794 -0.999343 0.032606 0 0
  phy
    0 7.347885 7.439442 18.594999 0.307691 -0.470307 0.827126 0 0
    0 7.678201 7.350742 17.626247 -0.153577 -0.058883 0.986381 0 0
    0 5.775125 8.332980 16.755043 -0.932302 -0.052667 0.357827 0 0
  phy
    0 -9.384212 -7.453749 -0.850691 0.006953 -0.026226 -0.999632 0 0
    0 -8.332093 7.350742 17.626247 -0.127772 -0.049101 -0.990587 0 0
    0 -9.354969 8.922620 -19.274734 -0.666427 0.415761 -0.618884 0 0
  phy
    0 -9.357846 -8.779656 -19.274734 0.096232 0.044923 -0.994345 0 0
    0 -9.384212 -7.453749 -0.850691 0.006953 -0.026226 -0.999632 0 0
    0 -9.354969 8.922620 -19.274734 -0.666427 0.415761 -0.618884 0 0
  phy
    0 -6.591205 6.399534 19.051042 0.706698 -0.705278 -0.056213 0 0
    0 -8.001776 7.439442 18.594999 0.359780 -0.484404 -0.797440 0 0
    0 -7.114649 6.300258 18.463300 0.579813 -0.546615 -0.604176 0 0
  phy
    0 -5.142473 8.482148 18.875483 -0.996423 -0.040276 -0.074289 0 0
    0 -0.287637 8.674243 19.203674 -0.999486 -0.032068 0.000000 0 0
    0 -9.354969 8.922620 -19.274734 -0.666427 0.415761 -0.618884 0 0
  phy
    0 -0.287637 8.674243 19.203674 -0.999486 -0.032068 0.000000 0 0
    0 4.546507 8.482146 18.875483 -0.996353 -0.041004 0.074835 0 0
    0 9.057403 8.922619 -19.274722 -0.722009 0.204942 0.660835 0 0
  phy
    0 4.546507 8.482146 18.875483 -0.996353 -0.041004 0.074835 0 0
    0 5.775125 8.332980 16.755043 -0.932302 -0.052667 0.357827 0 0
    0 9.057403 8.922619 -19.274722 -0.722009 0.204942 0.660835 0 0
  phy
    0 -0.287637 8.674243 19.203674 -0.999486 -0.032068 0.000000 0 0
    0 6.766231 7.548769 19.222318 0.015794 -0.999343 0.032606 0 0
    0 4.546507 8.482146 18.875483 -0.996353 -0.041004 0.074835 0 0
  phy
    0 5.775125 8.332980 16.755043 -0.932302 -0.052667 0.357827 0 0
    0 7.678201 7.350742 17.626247 -0.153577 -0.058883 0.986381 0 0
    0 9.057403 8.922619 -19.274722 -0.722009 0.204942 0.660835 0 0
  phy
    0 9.384215 -7.453747 -0.850691 -0.013295 -0.027792 0.999525 0 0
    0 9.057403 8.922619 -19.274722 -0.722009 0.204942 0.660835 0 0
    0 7.678201 7.350742 17.626247 -0.153577 -0.058883 0.986381 0 0
  phy
    0 -0.287637 8.674243 19.203674 -0.999486 -0.032068 0.000000 0 0
    0 9.057403 8.922619 -19.274722 -0.722009 0.204942 0.660835 0 0
    0 -9.354969 8.922620 -19.274734 -0.666427 0.415761 -0.618884 0 0
  phy
    0 9.102169 -8.779663 -19.274731 0.045583 0.875271 0.481480 0 0
    0 9.057403 8.922619 -19.274722 -0.722009 0.204942 0.660835 0 0
    0 9.384215 -7.453747 -0.850691 -0.013295 -0.027792 0.999525 0 0
  phy
    0 -8.345445 -9.586421 -19.274734 0.861310 0.506444 -0.040732 0 0
    0 -9.357846 -8.779656 -19.274734 0.096232 0.044923 -0.994345 0 0
    0 -9.354969 8.922620 -19.274734 -0.666427 0.415761 -0.618884 0 0
  phy
    0 9.057403 8.922619 -19.274722 -0.722009 0.204942 0.660835 0 0
    0 9.102169 -8.779663 -19.274731 0.045583 0.875271 0.481480 0 0
    0 -9.354969 8.922620 -19.274734 -0.666427 0.415761 -0.618884 0 0
  phy
    0 9.102169 -8.779663 -19.274731 0.045583 0.875271 0.481480 0 0
    0 -8.345445 -9.586421 -19.274734 0.861310 0.506444 -0.040732 0 0
    0 -9.354969 8.922620 -19.274734 -0.666427 0.415761 -0.618884 0 0
end
