// Created by Crowbar 0.74
version 1
nodes
  0 "Root" -1
  1 "Button" 0
end
skeleton
  time 0
    0 0.000000 0.000000 0.000000 1.570796 0.000000 0.000000
    1 0.000000 41.874077 0.000000 0.542823 0.000000 0.000000
end
triangles
  phy
    0 3.110475 -5.349485 39.241412 0.872063 -0.108814 0.477142 0 0
    0 3.110474 5.349481 45.694211 -0.814550 -0.225613 0.534423 0 0
    0 -3.110475 -5.349485 39.241412 0.873323 -0.260798 -0.411450 0 0
  phy
    0 -3.110475 -5.349485 39.241412 0.873323 -0.260798 -0.411450 0 0
    0 3.110474 5.349481 45.694211 -0.814550 -0.225613 0.534423 0 0
    0 -6.199000 -0.000002 42.467812 0.260864 -0.143011 -0.954724 0 0
  phy
    0 -3.110475 -5.349485 39.241412 0.873323 -0.260798 -0.411450 0 0
    0 -3.099500 -5.368492 0.006170 0.854966 0.115068 -0.505759 0 0
    0 3.110475 -5.349485 39.241412 0.872063 -0.108814 0.477142 0 0
  phy
    0 -3.110475 -5.349485 39.241412 0.873323 -0.260798 -0.411450 0 0
    0 -6.199000 -0.000002 42.467812 0.260864 -0.143011 -0.954724 0 0
    0 -3.099500 -5.368492 0.006170 0.854966 0.115068 -0.505759 0 0
  phy
    0 3.099500 -5.368492 0.006170 0.863355 0.078475 0.498458 0 0
    0 6.199000 0.000000 0.006170 -0.021610 0.179790 0.983468 0 0
    0 3.110475 -5.349485 39.241412 0.872063 -0.108814 0.477142 0 0
  phy
    0 6.199000 0.000000 0.006170 -0.021610 0.179790 0.983468 0 0
    0 6.199000 -0.000002 42.467812 0.043712 -0.072476 0.996412 0 0
    0 3.110475 -5.349485 39.241412 0.872063 -0.108814 0.477142 0 0
  phy
    0 6.199000 -0.000002 42.467812 0.043712 -0.072476 0.996412 0 0
    0 6.199000 0.000000 0.006170 -0.021610 0.179790 0.983468 0 0
    0 3.110474 5.349481 45.694211 -0.814550 -0.225613 0.534423 0 0
  phy
    0 6.199000 0.000000 0.006170 -0.021610 0.179790 0.983468 0 0
    0 3.099500 5.368492 0.006170 -0.848668 0.199207 0.489979 0 0
    0 3.110474 5.349481 45.694211 -0.814550 -0.225613 0.534423 0 0
  phy
    0 6.199000 -0.000002 42.467812 0.043712 -0.072476 0.996412 0 0
    0 3.110474 5.349481 45.694211 -0.814550 -0.225613 0.534423 0 0
    0 3.110475 -5.349485 39.241412 0.872063 -0.108814 0.477142 0 0
  phy
    0 6.199000 0.000000 0.006170 -0.021610 0.179790 0.983468 0 0
    0 3.099500 -5.368492 0.006170 0.863355 0.078475 0.498458 0 0
    0 -3.099500 -5.368492 0.006170 0.854966 0.115068 -0.505759 0 0
  phy
    0 6.199000 0.000000 0.006170 -0.021610 0.179790 0.983468 0 0
    0 -3.099500 -5.368492 0.006170 0.854966 0.115068 -0.505759 0 0
    0 -6.199000 0.000000 0.006170 -0.192404 0.226828 -0.954741 0 0
  phy
    0 6.199000 0.000000 0.006170 -0.021610 0.179790 0.983468 0 0
    0 -6.199000 0.000000 0.006170 -0.192404 0.226828 -0.954741 0 0
    0 3.099500 5.368492 0.006170 -0.848668 0.199207 0.489979 0 0
  phy
    0 3.099500 5.368492 0.006170 -0.848668 0.199207 0.489979 0 0
    0 -6.199000 0.000000 0.006170 -0.192404 0.226828 -0.954741 0 0
    0 -3.099500 5.368492 0.006170 -0.944139 0.043999 -0.326597 0 0
  phy
    0 3.110475 -5.349485 39.241412 0.872063 -0.108814 0.477142 0 0
    0 -3.099500 -5.368492 0.006170 0.854966 0.115068 -0.505759 0 0
    0 3.099500 -5.368492 0.006170 0.863355 0.078475 0.498458 0 0
  phy
    0 -6.199000 -0.000002 42.467812 0.260864 -0.143011 -0.954724 0 0
    0 -3.110475 5.349481 45.694211 -0.749933 -0.046648 -0.659867 0 0
    0 -6.199000 0.000000 0.006170 -0.192404 0.226828 -0.954741 0 0
  phy
    0 -6.199000 0.000000 0.006170 -0.192404 0.226828 -0.954741 0 0
    0 -3.110475 5.349481 45.694211 -0.749933 -0.046648 -0.659867 0 0
    0 -3.099500 5.368492 0.006170 -0.944139 0.043999 -0.326597 0 0
  phy
    0 -6.199000 -0.000002 42.467812 0.260864 -0.143011 -0.954724 0 0
    0 3.110474 5.349481 45.694211 -0.814550 -0.225613 0.534423 0 0
    0 -3.110475 5.349481 45.694211 -0.749933 -0.046648 -0.659867 0 0
  phy
    0 -3.110475 5.349481 45.694211 -0.749933 -0.046648 -0.659867 0 0
    0 3.110474 5.349481 45.694211 -0.814550 -0.225613 0.534423 0 0
    0 -3.099500 5.368492 0.006170 -0.944139 0.043999 -0.326597 0 0
  phy
    0 -6.199000 -0.000002 42.467812 0.260864 -0.143011 -0.954724 0 0
    0 -6.199000 0.000000 0.006170 -0.192404 0.226828 -0.954741 0 0
    0 -3.099500 -5.368492 0.006170 0.854966 0.115068 -0.505759 0 0
  phy
    0 3.110474 5.349481 45.694211 -0.814550 -0.225613 0.534423 0 0
    0 3.099500 5.368492 0.006170 -0.848668 0.199207 0.489979 0 0
    0 -3.099500 5.368492 0.006170 -0.944139 0.043999 -0.326597 0 0
  phy
    0 6.436998 0.000000 2.718157 -0.017780 -0.994040 0.107553 0 0
    0 6.046307 6.046306 1.356521 -0.502896 -0.702987 0.502896 0 0
    0 4.551646 4.551646 2.718158 -0.227910 -0.946633 0.227910 0 0
  phy
    0 6.436998 0.000000 2.718157 -0.017780 -0.994040 0.107553 0 0
    0 8.550770 0.000000 1.356519 -0.014287 -0.596251 0.802671 0 0
    0 6.046307 6.046306 1.356521 -0.502896 -0.702987 0.502896 0 0
  phy
    0 6.046307 6.046306 1.356521 -0.502896 -0.702987 0.502896 0 0
    0 8.550770 0.000000 1.356519 -0.014287 -0.596251 0.802671 0 0
    0 6.046306 6.046307 -0.005118 -0.060526 0.996330 0.060526 0 0
  phy
    0 8.550770 0.000000 1.356519 -0.014287 -0.596251 0.802671 0 0
    0 8.550770 0.000000 -0.005119 0.086931 0.772031 0.629612 0 0
    0 6.046306 6.046307 -0.005118 -0.060526 0.996330 0.060526 0 0
  phy
    0 8.550770 0.000000 1.356519 -0.014287 -0.596251 0.802671 0 0
    0 4.551646 -4.551646 2.718157 0.138187 -0.980719 0.138187 0 0
    0 6.046307 -6.046307 1.356519 0.628009 -0.459574 0.628009 0 0
  phy
    0 6.436998 0.000000 2.718157 -0.017780 -0.994040 0.107553 0 0
    0 4.551646 -4.551646 2.718157 0.138187 -0.980719 0.138187 0 0
    0 8.550770 0.000000 1.356519 -0.014287 -0.596251 0.802671 0 0
  phy
    0 6.046307 -6.046307 1.356519 0.628009 -0.459574 0.628009 0 0
    0 8.550770 0.000000 -0.005119 0.086931 0.772031 0.629612 0 0
    0 8.550770 0.000000 1.356519 -0.014287 -0.596251 0.802671 0 0
  phy
    0 -6.046307 6.046306 -0.005118 -0.214582 0.952843 -0.214582 0 0
    0 0.000000 8.550770 -0.005118 -0.477653 0.878548 0.000000 0 0
    0 6.046306 6.046307 -0.005118 -0.060526 0.996330 0.060526 0 0
  phy
    0 -6.046307 6.046306 -0.005118 -0.214582 0.952843 -0.214582 0 0
    0 6.046306 6.046307 -0.005118 -0.060526 0.996330 0.060526 0 0
    0 -8.550770 0.000000 -0.005119 0.000000 0.995677 -0.092878 0 0
  phy
    0 -8.550770 0.000000 -0.005119 0.000000 0.995677 -0.092878 0 0
    0 6.046306 6.046307 -0.005118 -0.060526 0.996330 0.060526 0 0
    0 -6.046306 -6.046307 -0.005120 0.082619 0.993151 -0.082619 0 0
  phy
    0 -6.046306 -6.046307 -0.005120 0.082619 0.993151 -0.082619 0 0
    0 6.046306 6.046307 -0.005118 -0.060526 0.996330 0.060526 0 0
    0 6.046307 -6.046306 -0.005120 0.056123 0.996845 0.056123 0 0
  phy
    0 -6.046306 -6.046307 -0.005120 0.082619 0.993151 -0.082619 0 0
    0 6.046307 -6.046306 -0.005120 0.056123 0.996845 0.056123 0 0
    0 0.000000 -8.550770 -0.005120 0.629612 0.772031 0.086931 0 0
  phy
    0 6.046307 -6.046306 -0.005120 0.056123 0.996845 0.056123 0 0
    0 6.046306 6.046307 -0.005118 -0.060526 0.996330 0.060526 0 0
    0 8.550770 0.000000 -0.005119 0.086931 0.772031 0.629612 0 0
  phy
    0 6.046307 -6.046307 1.356519 0.628009 -0.459574 0.628009 0 0
    0 0.000000 -8.550770 -0.005120 0.629612 0.772031 0.086931 0 0
    0 6.046307 -6.046306 -0.005120 0.056123 0.996845 0.056123 0 0
  phy
    0 6.046307 -6.046306 -0.005120 0.056123 0.996845 0.056123 0 0
    0 8.550770 0.000000 -0.005119 0.086931 0.772031 0.629612 0 0
    0 6.046307 -6.046307 1.356519 0.628009 -0.459574 0.628009 0 0
  phy
    0 4.551646 4.551646 2.718158 -0.227910 -0.946633 0.227910 0 0
    0 0.000000 6.436999 2.718158 -0.136905 -0.990326 0.022632 0 0
    0 6.436998 0.000000 2.718157 -0.017780 -0.994040 0.107553 0 0
  phy
    0 6.046307 6.046306 1.356521 -0.502896 -0.702987 0.502896 0 0
    0 0.000000 6.436999 2.718158 -0.136905 -0.990326 0.022632 0 0
    0 4.551646 4.551646 2.718158 -0.227910 -0.946633 0.227910 0 0
  phy
    0 -6.046307 6.046306 -0.005118 -0.214582 0.952843 -0.214582 0 0
    0 -8.550770 0.000000 -0.005119 0.000000 0.995677 -0.092878 0 0
    0 -8.550770 0.000000 1.356519 0.000000 -0.586998 -0.809588 0 0
  phy
    0 -6.046308 6.046306 1.356521 -0.558587 -0.613157 -0.558587 0 0
    0 -6.046307 6.046306 -0.005118 -0.214582 0.952843 -0.214582 0 0
    0 -8.550770 0.000000 1.356519 0.000000 -0.586998 -0.809588 0 0
  phy
    0 -6.046307 6.046306 -0.005118 -0.214582 0.952843 -0.214582 0 0
    0 0.000000 8.550770 1.356520 -0.844369 -0.534342 -0.038990 0 0
    0 0.000000 8.550770 -0.005118 -0.477653 0.878548 0.000000 0 0
  phy
    0 0.000000 8.550770 1.356520 -0.844369 -0.534342 -0.038990 0 0
    0 -6.046307 6.046306 -0.005118 -0.214582 0.952843 -0.214582 0 0
    0 -6.046308 6.046306 1.356521 -0.558587 -0.613157 -0.558587 0 0
  phy
    0 6.046307 -6.046307 1.356519 0.628009 -0.459574 0.628009 0 0
    0 0.000000 -8.550770 1.356519 0.802671 -0.596251 -0.014287 0 0
    0 0.000000 -8.550770 -0.005120 0.629612 0.772031 0.086931 0 0
  phy
    0 4.551646 -4.551646 2.718157 0.138187 -0.980719 0.138187 0 0
    0 0.000000 -8.550770 1.356519 0.802671 -0.596251 -0.014287 0 0
    0 6.046307 -6.046307 1.356519 0.628009 -0.459574 0.628009 0 0
  phy
    0 0.000000 -6.437000 2.718157 0.221806 -0.974401 -0.036668 0 0
    0 4.551646 -4.551646 2.718157 0.138187 -0.980719 0.138187 0 0
    0 -6.436998 0.000000 2.718157 0.000000 -0.998629 -0.052346 0 0
  phy
    0 4.551646 -4.551646 2.718157 0.138187 -0.980719 0.138187 0 0
    0 6.436998 0.000000 2.718157 -0.017780 -0.994040 0.107553 0 0
    0 -6.436998 0.000000 2.718157 0.000000 -0.998629 -0.052346 0 0
  phy
    0 -6.436998 0.000000 2.718157 0.000000 -0.998629 -0.052346 0 0
    0 -4.551646 -4.551646 2.718157 0.227804 -0.920302 -0.318041 0 0
    0 0.000000 -6.437000 2.718157 0.221806 -0.974401 -0.036668 0 0
  phy
    0 6.436998 0.000000 2.718157 -0.017780 -0.994040 0.107553 0 0
    0 0.000000 6.436999 2.718158 -0.136905 -0.990326 0.022632 0 0
    0 -6.436998 0.000000 2.718157 0.000000 -0.998629 -0.052346 0 0
  phy
    0 -6.436998 0.000000 2.718157 0.000000 -0.998629 -0.052346 0 0
    0 0.000000 6.436999 2.718158 -0.136905 -0.990326 0.022632 0 0
    0 -4.551646 4.551646 2.718158 -0.298546 -0.906499 -0.298546 0 0
  phy
    0 -4.551646 4.551646 2.718158 -0.298546 -0.906499 -0.298546 0 0
    0 -8.550770 0.000000 1.356519 0.000000 -0.586998 -0.809588 0 0
    0 -6.436998 0.000000 2.718157 0.000000 -0.998629 -0.052346 0 0
  phy
    0 -6.436998 0.000000 2.718157 0.000000 -0.998629 -0.052346 0 0
    0 -8.550770 0.000000 1.356519 0.000000 -0.586998 -0.809588 0 0
    0 -4.551646 -4.551646 2.718157 0.227804 -0.920302 -0.318041 0 0
  phy
    0 0.000000 -6.437000 2.718157 0.221806 -0.974401 -0.036668 0 0
    0 -4.551646 -4.551646 2.718157 0.227804 -0.920302 -0.318041 0 0
    0 -6.046306 -6.046307 1.356520 0.559648 -0.667812 -0.490735 0 0
  phy
    0 -6.046306 -6.046307 1.356520 0.559648 -0.667812 -0.490735 0 0
    0 0.000000 -8.550770 1.356519 0.802671 -0.596251 -0.014287 0 0
    0 0.000000 -6.437000 2.718157 0.221806 -0.974401 -0.036668 0 0
  phy
    0 0.000000 -6.437000 2.718157 0.221806 -0.974401 -0.036668 0 0
    0 0.000000 -8.550770 1.356519 0.802671 -0.596251 -0.014287 0 0
    0 4.551646 -4.551646 2.718157 0.138187 -0.980719 0.138187 0 0
  phy
    0 -8.550770 0.000000 -0.005119 0.000000 0.995677 -0.092878 0 0
    0 -6.046306 -6.046307 -0.005120 0.082619 0.993151 -0.082619 0 0
    0 -8.550770 0.000000 1.356519 0.000000 -0.586998 -0.809588 0 0
  phy
    0 -6.046306 -6.046307 -0.005120 0.082619 0.993151 -0.082619 0 0
    0 0.000000 -8.550770 1.356519 0.802671 -0.596251 -0.014287 0 0
    0 -6.046306 -6.046307 1.356520 0.559648 -0.667812 -0.490735 0 0
  phy
    0 -6.046306 -6.046307 -0.005120 0.082619 0.993151 -0.082619 0 0
    0 -6.046306 -6.046307 1.356520 0.559648 -0.667812 -0.490735 0 0
    0 -8.550770 0.000000 1.356519 0.000000 -0.586998 -0.809588 0 0
  phy
    0 -4.551646 -4.551646 2.718157 0.227804 -0.920302 -0.318041 0 0
    0 -8.550770 0.000000 1.356519 0.000000 -0.586998 -0.809588 0 0
    0 -6.046306 -6.046307 1.356520 0.559648 -0.667812 -0.490735 0 0
  phy
    0 0.000000 -8.550770 -0.005120 0.629612 0.772031 0.086931 0 0
    0 0.000000 -8.550770 1.356519 0.802671 -0.596251 -0.014287 0 0
    0 -6.046306 -6.046307 -0.005120 0.082619 0.993151 -0.082619 0 0
  phy
    0 -6.046308 6.046306 1.356521 -0.558587 -0.613157 -0.558587 0 0
    0 -4.551646 4.551646 2.718158 -0.298546 -0.906499 -0.298546 0 0
    0 0.000000 8.550770 1.356520 -0.844369 -0.534342 -0.038990 0 0
  phy
    0 -4.551646 4.551646 2.718158 -0.298546 -0.906499 -0.298546 0 0
    0 0.000000 6.436999 2.718158 -0.136905 -0.990326 0.022632 0 0
    0 0.000000 8.550770 1.356520 -0.844369 -0.534342 -0.038990 0 0
  phy
    0 -6.046308 6.046306 1.356521 -0.558587 -0.613157 -0.558587 0 0
    0 -8.550770 0.000000 1.356519 0.000000 -0.586998 -0.809588 0 0
    0 -4.551646 4.551646 2.718158 -0.298546 -0.906499 -0.298546 0 0
  phy
    0 6.046306 6.046307 -0.005118 -0.060526 0.996330 0.060526 0 0
    0 0.000000 8.550770 1.356520 -0.844369 -0.534342 -0.038990 0 0
    0 6.046307 6.046306 1.356521 -0.502896 -0.702987 0.502896 0 0
  phy
    0 0.000000 8.550770 1.356520 -0.844369 -0.534342 -0.038990 0 0
    0 6.046306 6.046307 -0.005118 -0.060526 0.996330 0.060526 0 0
    0 0.000000 8.550770 -0.005118 -0.477653 0.878548 0.000000 0 0
  phy
    0 0.000000 8.550770 1.356520 -0.844369 -0.534342 -0.038990 0 0
    0 0.000000 6.436999 2.718158 -0.136905 -0.990326 0.022632 0 0
    0 6.046307 6.046306 1.356521 -0.502896 -0.702987 0.502896 0 0
end
