// Created by Crowbar 0.74
version 1
nodes
  0 "door_root" -1
  1 "door_left" 0
  2 "door_right" 0
end
skeleton
  time 0
    0 0.000000 0.000000 0.000000 1.570792 -0.000005 -3.141588
    1 -67.997864 0.000000 0.000000 0.000000 0.000000 0.000000
    2 67.997864 0.000000 0.000000 0.000000 0.000000 0.000000
  time 1
    0 0.000000 0.000000 0.000000 1.570792 -0.000005 -3.141588
    1 -67.255654 0.000000 0.000000 0.000000 0.000000 0.000000
    2 67.255654 0.000000 0.000000 0.000000 0.000000 0.000000
  time 2
    0 0.000000 0.000000 0.000000 1.570792 -0.000005 -3.141588
    1 -65.181371 0.000000 0.000000 0.000000 0.000000 0.000000
    2 65.181371 0.000000 0.000000 0.000000 0.000000 0.000000
  time 3
    0 0.000000 0.000000 0.000000 1.570792 -0.000005 -3.141588
    1 -61.966430 0.000000 0.000000 0.000000 0.000000 0.000000
    2 61.966430 0.000000 0.000000 0.000000 0.000000 0.000000
  time 4
    0 0.000000 0.000000 0.000000 1.570792 -0.000005 -3.141588
    1 -57.813959 0.000000 0.000000 0.000000 0.000000 0.000000
    2 57.813959 0.000000 0.000000 0.000000 0.000000 0.000000
  time 5
    0 0.000000 0.000000 0.000000 1.570792 -0.000005 -3.141588
    1 -52.962249 0.000000 0.000000 0.000000 0.000000 0.000000
    2 52.962249 0.000000 0.000000 0.000000 0.000000 0.000000
  time 6
    0 0.000000 0.000000 0.000000 1.570792 -0.000005 -3.141588
    1 -47.583178 0.000000 0.000000 0.000000 0.000000 0.000000
    2 47.583178 0.000000 0.000000 0.000000 0.000000 0.000000
  time 7
    0 0.000000 0.000000 0.000000 1.570792 -0.000005 -3.141588
    1 -41.879879 0.000000 0.000000 0.000000 0.000000 0.000000
    2 41.879879 0.000000 0.000000 0.000000 0.000000 0.000000
  time 8
    0 0.000000 0.000000 0.000000 1.570792 -0.000005 -3.141588
    1 -36.102359 0.000000 0.000000 0.000000 0.000000 0.000000
    2 36.102359 0.000000 0.000000 0.000000 0.000000 0.000000
  time 9
    0 0.000000 0.000000 0.000000 1.570792 -0.000005 -3.141588
    1 -30.414685 0.000000 0.000000 0.000000 0.000000 0.000000
    2 30.414685 0.000000 0.000000 0.000000 0.000000 0.000000
  time 10
    0 0.000000 0.000000 0.000000 1.570792 -0.000005 -3.141588
    1 -25.023896 0.000000 0.000000 0.000000 0.000000 0.000000
    2 25.023896 0.000000 0.000000 0.000000 0.000000 0.000000
  time 11
    0 0.000000 0.000000 0.000000 1.570792 -0.000005 -3.141588
    1 -20.172185 0.000000 0.000000 0.000000 0.000000 0.000000
    2 20.172185 0.000000 0.000000 0.000000 0.000000 0.000000
  time 12
    0 0.000000 0.000000 0.000000 1.570792 -0.000005 -3.141588
    1 -16.031434 0.000000 0.000000 0.000000 0.000000 0.000000
    2 16.031434 0.000000 0.000000 0.000000 0.000000 0.000000
  time 13
    0 0.000000 0.000000 0.000000 1.570792 -0.000005 -3.141588
    1 -12.812586 0.000000 0.000000 0.000000 0.000000 0.000000
    2 12.812586 0.000000 0.000000 0.000000 0.000000 0.000000
  time 14
    0 0.000000 0.000000 0.000000 1.570792 -0.000005 -3.141588
    1 -10.738304 0.000000 0.000000 0.000000 0.000000 0.000000
    2 10.738304 0.000000 0.000000 0.000000 0.000000 0.000000
  time 15
    0 0.000000 0.000000 0.000000 1.570792 -0.000005 -3.141588
    1 -10.000000 0.000000 0.000000 0.000000 0.000000 0.000000
    2 10.000000 0.000000 0.000000 0.000000 0.000000 0.000000
end
