// Created by Crowbar 0.74
version 1
nodes
  0 "static_prop" -1
end
skeleton
  time 0
    0 0.000000 0.000000 0.000000 0.000000 0.000000 0.000000
end
triangles
  phy
    0 -2.127009 0.000003 -60.620561 0.000000 0.603544 0.797330 0 0
    0 -2.726304 1.727943 -60.620561 -0.519804 0.460223 0.719722 0 0
    0 4.547390 0.000002 -46.396974 0.000000 0.322990 0.946402 0 0
  phy
    0 -2.726304 1.727943 -60.620561 -0.519804 0.460223 0.719722 0 0
    0 3.440037 3.192820 -46.396969 -0.504695 0.248607 0.826727 0 0
    0 4.547390 0.000002 -46.396974 0.000000 0.322990 0.946402 0 0
  phy
    0 -2.726304 1.727943 -60.620561 -0.519804 0.460223 0.719722 0 0
    0 -4.432955 3.192820 -60.620561 -0.825148 0.396389 0.402500 0 0
    0 0.286558 5.899559 -46.396974 -0.846119 0.193945 0.496456 0 0
  phy
    0 -2.726304 1.727943 -60.620561 -0.519804 0.460223 0.719722 0 0
    0 0.286558 5.899559 -46.396974 -0.846119 0.193945 0.496456 0 0
    0 3.440037 3.192820 -46.396969 -0.504695 0.248607 0.826727 0 0
  phy
    0 -2.726304 1.727943 -60.620561 -0.519804 0.460223 0.719722 0 0
    0 -2.127009 0.000003 -60.620561 0.000000 0.603544 0.797330 0 0
    0 -10.000000 0.000003 -65.615224 0.000000 1.000000 0.000000 0 0
  phy
    0 -4.432955 3.192820 -60.620561 -0.825148 0.396389 0.402500 0 0
    0 -2.726304 1.727943 -60.620561 -0.519804 0.460223 0.719722 0 0
    0 -10.000000 0.000003 -65.615224 0.000000 1.000000 0.000000 0 0
  phy
    0 9.007081 -4.515326 0.000000 0.543275 0.010471 0.839490 0 0
    0 7.560254 -4.171616 -25.109860 0.646361 0.105781 0.755663 0 0
    0 9.007083 0.000001 -25.109851 0.000000 0.122954 0.992412 0 0
  phy
    0 9.007083 0.000001 -25.109851 0.000000 0.122954 0.992412 0 0
    0 10.573117 0.000000 0.000000 0.064934 -0.011677 0.997821 0 0
    0 9.007081 -4.515326 0.000000 0.543275 0.010471 0.839490 0 0
  phy
    0 9.007081 -4.515326 0.000000 0.543275 0.010471 0.839490 0 0
    0 10.573117 0.000000 0.000000 0.064934 -0.011677 0.997821 0 0
    0 7.560254 -4.171617 25.109860 0.583028 -0.091691 0.807262 0 0
  phy
    0 9.007081 -4.515326 0.000000 0.543275 0.010471 0.839490 0 0
    0 4.547391 -8.343232 -0.000005 0.838271 0.000000 0.545253 0 0
    0 7.560254 -4.171616 -25.109860 0.646361 0.105781 0.755663 0 0
  phy
    0 7.560254 -4.171617 25.109860 0.583028 -0.091691 0.807262 0 0
    0 4.547391 -8.343232 -0.000005 0.838271 0.000000 0.545253 0 0
    0 9.007081 -4.515326 0.000000 0.543275 0.010471 0.839490 0 0
  phy
    0 9.007081 4.515326 0.000000 -0.512661 0.000000 0.858591 0 0
    0 10.573117 0.000000 0.000000 0.064934 -0.011677 0.997821 0 0
    0 9.007083 0.000001 -25.109851 0.000000 0.122954 0.992412 0 0
  phy
    0 7.560254 4.171619 -25.109860 -0.646361 0.105781 0.755663 0 0
    0 9.007081 4.515326 0.000000 -0.512661 0.000000 0.858591 0 0
    0 9.007083 0.000001 -25.109851 0.000000 0.122954 0.992412 0 0
  phy
    0 7.560254 -4.171616 -25.109860 0.646361 0.105781 0.755663 0 0
    0 3.440037 -3.192815 -46.396974 0.524731 0.257397 0.811421 0 0
    0 9.007083 0.000001 -25.109851 0.000000 0.122954 0.992412 0 0
  phy
    0 3.440037 -3.192815 -46.396974 0.524731 0.257397 0.811421 0 0
    0 4.547390 0.000002 -46.396974 0.000000 0.322990 0.946402 0 0
    0 9.007083 0.000001 -25.109851 0.000000 0.122954 0.992412 0 0
  phy
    0 3.440037 3.192820 -46.396969 -0.504695 0.248607 0.826727 0 0
    0 7.560254 4.171619 -25.109860 -0.646361 0.105781 0.755663 0 0
    0 9.007083 0.000001 -25.109851 0.000000 0.122954 0.992412 0 0
  phy
    0 9.007083 0.000001 -25.109851 0.000000 0.122954 0.992412 0 0
    0 4.547390 0.000002 -46.396974 0.000000 0.322990 0.946402 0 0
    0 3.440037 3.192820 -46.396969 -0.504695 0.248607 0.826727 0 0
  phy
    0 4.547390 0.000002 -46.396974 0.000000 0.322990 0.946402 0 0
    0 -2.726305 -1.727938 -60.620561 0.423332 0.504503 0.752507 0 0
    0 -2.127009 0.000003 -60.620561 0.000000 0.603544 0.797330 0 0
  phy
    0 4.547390 0.000002 -46.396974 0.000000 0.322990 0.946402 0 0
    0 3.440037 -3.192815 -46.396974 0.524731 0.257397 0.811421 0 0
    0 -2.726305 -1.727938 -60.620561 0.423332 0.504503 0.752507 0 0
  phy
    0 -2.127009 0.000003 -60.620561 0.000000 0.603544 0.797330 0 0
    0 -2.726305 -1.727938 -60.620561 0.423332 0.504503 0.752507 0 0
    0 -10.000000 0.000003 -65.615224 0.000000 1.000000 0.000000 0 0
  phy
    0 -2.726305 -1.727938 -60.620561 0.423332 0.504503 0.752507 0 0
    0 -4.432954 -3.192815 -60.620561 0.750858 0.424094 0.506317 0 0
    0 -10.000000 0.000003 -65.615224 0.000000 1.000000 0.000000 0 0
  phy
    0 -4.432954 -3.192815 -60.620561 0.750858 0.424094 0.506317 0 0
    0 -6.987137 -4.171615 -60.620561 0.916341 0.336055 0.217686 0 0
    0 -10.000000 0.000003 -65.615224 0.000000 1.000000 0.000000 0 0
  phy
    0 -2.726305 -1.727938 -60.620561 0.423332 0.504503 0.752507 0 0
    0 3.440037 -3.192815 -46.396974 0.524731 0.257397 0.811421 0 0
    0 -4.432954 -3.192815 -60.620561 0.750858 0.424094 0.506317 0 0
  phy
    0 3.440037 -3.192815 -46.396974 0.524731 0.257397 0.811421 0 0
    0 0.286558 -5.899555 -46.396974 0.856089 0.191807 0.479919 0 0
    0 -4.432954 -3.192815 -60.620561 0.750858 0.424094 0.506317 0 0
  phy
    0 -4.432954 -3.192815 -60.620561 0.750858 0.424094 0.506317 0 0
    0 0.286558 -5.899555 -46.396974 0.856089 0.191807 0.479919 0 0
    0 -6.987137 -4.171615 -60.620561 0.916341 0.336055 0.217686 0 0
  phy
    0 4.547391 -8.343232 -0.000005 0.838271 0.000000 0.545253 0 0
    0 3.440036 -7.708143 25.109860 0.870792 -0.087551 0.483793 0 0
    0 -2.127008 -10.900960 0.000000 0.968746 0.005175 0.248001 0 0
  phy
    0 3.440036 -7.708143 25.109860 0.870792 -0.087551 0.483793 0 0
    0 -2.726304 -10.071175 25.109860 0.974674 -0.080414 0.208672 0 0
    0 -2.127008 -10.900960 0.000000 0.968746 0.005175 0.248001 0 0
  phy
    0 7.560254 -4.171617 25.109860 0.583028 -0.091691 0.807262 0 0
    0 3.440037 -3.192820 46.396974 0.567450 -0.246348 0.785693 0 0
    0 3.440036 -7.708143 25.109860 0.870792 -0.087551 0.483793 0 0
  phy
    0 3.440037 -3.192820 46.396974 0.567450 -0.246348 0.785693 0 0
    0 0.286558 -5.899559 46.396974 0.873520 -0.190724 0.447869 0 0
    0 3.440036 -7.708143 25.109860 0.870792 -0.087551 0.483793 0 0
  phy
    0 3.440036 -7.708143 25.109860 0.870792 -0.087551 0.483793 0 0
    0 4.547391 -8.343232 -0.000005 0.838271 0.000000 0.545253 0 0
    0 7.560254 -4.171617 25.109860 0.583028 -0.091691 0.807262 0 0
  phy
    0 3.440036 -7.708143 25.109860 0.870792 -0.087551 0.483793 0 0
    0 0.286558 -5.899559 46.396974 0.873520 -0.190724 0.447869 0 0
    0 -2.726304 -10.071175 25.109860 0.974674 -0.080414 0.208672 0 0
  phy
    0 7.560254 4.171619 -25.109860 -0.646361 0.105781 0.755663 0 0
    0 3.440037 3.192820 -46.396969 -0.504695 0.248607 0.826727 0 0
    0 0.286558 5.899559 -46.396974 -0.846119 0.193945 0.496456 0 0
  phy
    0 7.560254 -4.171616 -25.109860 0.646361 0.105781 0.755663 0 0
    0 4.547391 -8.343232 -0.000005 0.838271 0.000000 0.545253 0 0
    0 3.440037 -7.708141 -25.109855 0.883005 0.078523 0.462749 0 0
  phy
    0 3.440037 -7.708141 -25.109855 0.883005 0.078523 0.462749 0 0
    0 0.286558 -5.899555 -46.396974 0.856089 0.191807 0.479919 0 0
    0 7.560254 -4.171616 -25.109860 0.646361 0.105781 0.755663 0 0
  phy
    0 7.560254 -4.171616 -25.109860 0.646361 0.105781 0.755663 0 0
    0 0.286558 -5.899555 -46.396974 0.856089 0.191807 0.479919 0 0
    0 3.440037 -3.192815 -46.396974 0.524731 0.257397 0.811421 0 0
  phy
    0 7.560254 -4.171617 25.109860 0.583028 -0.091691 0.807262 0 0
    0 10.573117 0.000000 0.000000 0.064934 -0.011677 0.997821 0 0
    0 9.007083 0.000000 25.109853 -0.061120 -0.133395 0.989176 0 0
  phy
    0 7.560254 -4.171617 25.109860 0.583028 -0.091691 0.807262 0 0
    0 9.007083 0.000000 25.109853 -0.061120 -0.133395 0.989176 0 0
    0 3.440037 -3.192820 46.396974 0.567450 -0.246348 0.785693 0 0
  phy
    0 3.440039 3.192816 46.396969 -0.524731 -0.257397 0.811421 0 0
    0 -2.726305 1.727938 60.620561 -0.423332 -0.504503 0.752507 0 0
    0 4.547390 -0.000002 46.396974 -0.032202 -0.312160 0.949484 0 0
  phy
    0 -2.726305 1.727938 60.620561 -0.423332 -0.504503 0.752507 0 0
    0 -2.127009 -0.000003 60.620561 0.117797 -0.535372 0.836362 0 0
    0 4.547390 -0.000002 46.396974 -0.032202 -0.312160 0.949484 0 0
  phy
    0 -2.127009 -0.000003 60.620561 0.117797 -0.535372 0.836362 0 0
    0 -10.000000 -0.000003 65.615224 0.000000 -1.000000 0.000000 0 0
    0 -2.726304 -1.727942 60.620561 0.487714 -0.553281 0.675289 0 0
  phy
    0 -2.726305 1.727938 60.620561 -0.423332 -0.504503 0.752507 0 0
    0 -10.000000 -0.000003 65.615224 0.000000 -1.000000 0.000000 0 0
    0 -2.127009 -0.000003 60.620561 0.117797 -0.535372 0.836362 0 0
  phy
    0 -2.127009 -0.000003 60.620561 0.117797 -0.535372 0.836362 0 0
    0 -2.726304 -1.727942 60.620561 0.487714 -0.553281 0.675289 0 0
    0 3.440037 -3.192820 46.396974 0.567450 -0.246348 0.785693 0 0
  phy
    0 3.440037 -3.192820 46.396974 0.567450 -0.246348 0.785693 0 0
    0 4.547390 -0.000002 46.396974 -0.032202 -0.312160 0.949484 0 0
    0 -2.127009 -0.000003 60.620561 0.117797 -0.535372 0.836362 0 0
  phy
    0 -2.726304 -1.727942 60.620561 0.487714 -0.553281 0.675289 0 0
    0 -10.000000 -0.000003 65.615224 0.000000 -1.000000 0.000000 0 0
    0 -4.432955 -3.192820 60.620561 0.801020 -0.383819 0.459402 0 0
  phy
    0 -4.432955 -3.192820 60.620561 0.801020 -0.383819 0.459402 0 0
    0 -10.000000 -0.000003 65.615224 0.000000 -1.000000 0.000000 0 0
    0 -6.987136 -4.171620 60.620561 0.919763 -0.353653 0.170194 0 0
  phy
    0 3.440037 -3.192820 46.396974 0.567450 -0.246348 0.785693 0 0
    0 -2.726304 -1.727942 60.620561 0.487714 -0.553281 0.675289 0 0
    0 -4.432955 -3.192820 60.620561 0.801020 -0.383819 0.459402 0 0
  phy
    0 -4.432955 -3.192820 60.620561 0.801020 -0.383819 0.459402 0 0
    0 0.286558 -5.899559 46.396974 0.873520 -0.190724 0.447869 0 0
    0 3.440037 -3.192820 46.396974 0.567450 -0.246348 0.785693 0 0
  phy
    0 -4.432955 -3.192820 60.620561 0.801020 -0.383819 0.459402 0 0
    0 -6.987136 -4.171620 60.620561 0.919763 -0.353653 0.170194 0 0
    0 -4.432950 -7.708144 46.396974 0.951216 -0.195711 0.238504 0 0
  phy
    0 -4.432950 -7.708144 46.396974 0.951216 -0.195711 0.238504 0 0
    0 0.286558 -5.899559 46.396974 0.873520 -0.190724 0.447869 0 0
    0 -4.432955 -3.192820 60.620561 0.801020 -0.383819 0.459402 0 0
  phy
    0 -10.000000 -10.900961 25.109860 0.246211 -0.018339 -0.969043 0 0
    0 -10.000000 -11.799114 0.000000 0.252603 -0.002855 -0.967566 0 0
    0 -2.726304 -10.071175 25.109860 0.974674 -0.080414 0.208672 0 0
  phy
    0 -10.000000 -11.799114 0.000000 0.252603 -0.002855 -0.967566 0 0
    0 -2.127008 -10.900960 0.000000 0.968746 0.005175 0.248001 0 0
    0 -2.726304 -10.071175 25.109860 0.974674 -0.080414 0.208672 0 0
  phy
    0 -2.127008 -10.900960 0.000000 0.968746 0.005175 0.248001 0 0
    0 -2.726304 -10.071173 -25.109860 0.964762 0.085961 0.248687 0 0
    0 3.440037 -7.708141 -25.109855 0.883005 0.078523 0.462749 0 0
  phy
    0 3.440037 -7.708141 -25.109855 0.883005 0.078523 0.462749 0 0
    0 4.547391 -8.343232 -0.000005 0.838271 0.000000 0.545253 0 0
    0 -2.127008 -10.900960 0.000000 0.968746 0.005175 0.248001 0 0
  phy
    0 -10.000000 -10.900959 -25.109860 0.571693 0.040622 -0.819461 0 0
    0 -2.726304 -10.071173 -25.109860 0.964762 0.085961 0.248687 0 0
    0 -2.127008 -10.900960 0.000000 0.968746 0.005175 0.248001 0 0
  phy
    0 -2.127008 -10.900960 0.000000 0.968746 0.005175 0.248001 0 0
    0 -10.000000 -11.799114 0.000000 0.252603 -0.002855 -0.967566 0 0
    0 -10.000000 -10.900959 -25.109860 0.571693 0.040622 -0.819461 0 0
  phy
    0 9.007081 4.515326 0.000000 -0.512661 0.000000 0.858591 0 0
    0 7.560254 4.171619 -25.109860 -0.646361 0.105781 0.755663 0 0
    0 4.547390 8.343232 0.000004 -0.838271 0.000000 0.545253 0 0
  phy
    0 4.547390 8.343232 0.000004 -0.838271 0.000000 0.545253 0 0
    0 7.560254 4.171619 -25.109860 -0.646361 0.105781 0.755663 0 0
    0 3.440036 7.708143 -25.109860 -0.883005 0.078523 0.462749 0 0
  phy
    0 3.440036 7.708143 -25.109860 -0.883005 0.078523 0.462749 0 0
    0 7.560254 4.171619 -25.109860 -0.646361 0.105781 0.755663 0 0
    0 0.286558 5.899559 -46.396974 -0.846119 0.193945 0.496456 0 0
  phy
    0 3.440039 3.192816 46.396969 -0.524731 -0.257397 0.811421 0 0
    0 7.560254 4.171616 25.109860 -0.646362 -0.105781 0.755663 0 0
    0 0.286558 5.899555 46.396974 -0.824445 -0.201356 0.528910 0 0
  phy
    0 7.560254 4.171616 25.109860 -0.646362 -0.105781 0.755663 0 0
    0 3.440036 7.708141 25.109858 -0.889345 -0.085417 0.449187 0 0
    0 0.286558 5.899555 46.396974 -0.824445 -0.201356 0.528910 0 0
  phy
    0 3.440039 3.192816 46.396969 -0.524731 -0.257397 0.811421 0 0
    0 9.007083 0.000000 25.109853 -0.061120 -0.133395 0.989176 0 0
    0 7.560254 4.171616 25.109860 -0.646362 -0.105781 0.755663 0 0
  phy
    0 3.440036 7.708141 25.109858 -0.889345 -0.085417 0.449187 0 0
    0 7.560254 4.171616 25.109860 -0.646362 -0.105781 0.755663 0 0
    0 4.547390 8.343232 0.000004 -0.838271 0.000000 0.545253 0 0
  phy
    0 7.560254 4.171616 25.109860 -0.646362 -0.105781 0.755663 0 0
    0 9.007081 4.515326 0.000000 -0.512661 0.000000 0.858591 0 0
    0 4.547390 8.343232 0.000004 -0.838271 0.000000 0.545253 0 0
  phy
    0 9.007083 0.000000 25.109853 -0.061120 -0.133395 0.989176 0 0
    0 9.007081 4.515326 0.000000 -0.512661 0.000000 0.858591 0 0
    0 7.560254 4.171616 25.109860 -0.646362 -0.105781 0.755663 0 0
  phy
    0 -2.726305 1.727938 60.620561 -0.423332 -0.504503 0.752507 0 0
    0 3.440039 3.192816 46.396969 -0.524731 -0.257397 0.811421 0 0
    0 -4.432955 3.192815 60.620561 -0.801020 -0.383819 0.459402 0 0
  phy
    0 -4.432955 3.192815 60.620561 -0.801020 -0.383819 0.459402 0 0
    0 3.440039 3.192816 46.396969 -0.524731 -0.257397 0.811421 0 0
    0 0.286558 5.899555 46.396974 -0.824445 -0.201356 0.528910 0 0
  phy
    0 3.440039 3.192816 46.396969 -0.524731 -0.257397 0.811421 0 0
    0 4.547390 -0.000002 46.396974 -0.032202 -0.312160 0.949484 0 0
    0 9.007083 0.000000 25.109853 -0.061120 -0.133395 0.989176 0 0
  phy
    0 -10.000000 -10.900959 -25.109860 0.571693 0.040622 -0.819461 0 0
    0 -4.432953 -7.708141 -46.396969 0.966707 0.166723 0.194116 0 0
    0 -2.726304 -10.071173 -25.109860 0.964762 0.085961 0.248687 0 0
  phy
    0 -10.000000 -10.900959 -25.109860 0.571693 0.040622 -0.819461 0 0
    0 -10.000000 -8.343232 -46.396969 0.227359 0.044501 -0.972794 0 0
    0 -4.432953 -7.708141 -46.396969 0.966707 0.166723 0.194116 0 0
  phy
    0 -4.432953 -7.708141 -46.396969 0.966707 0.166723 0.194116 0 0
    0 0.286558 -5.899555 -46.396974 0.856089 0.191807 0.479919 0 0
    0 -2.726304 -10.071173 -25.109860 0.964762 0.085961 0.248687 0 0
  phy
    0 -4.432953 -7.708141 -46.396969 0.966707 0.166723 0.194116 0 0
    0 -10.000000 -8.343232 -46.396969 0.227359 0.044501 -0.972794 0 0
    0 -6.987137 -4.171615 -60.620561 0.916341 0.336055 0.217686 0 0
  phy
    0 -6.987137 -4.171615 -60.620561 0.916341 0.336055 0.217686 0 0
    0 0.286558 -5.899555 -46.396974 0.856089 0.191807 0.479919 0 0
    0 -4.432953 -7.708141 -46.396969 0.966707 0.166723 0.194116 0 0
  phy
    0 -10.000000 -10.900959 -25.109860 0.571693 0.040622 -0.819461 0 0
    0 -10.000000 -11.799114 0.000000 0.252603 -0.002855 -0.967566 0 0
    0 -10.000000 10.900961 -25.109860 -0.232476 0.020075 -0.972395 0 0
  phy
    0 -10.000000 -10.900959 -25.109860 0.571693 0.040622 -0.819461 0 0
    0 -10.000000 10.900961 -25.109860 -0.232476 0.020075 -0.972395 0 0
    0 -10.000000 -8.343232 -46.396969 0.227359 0.044501 -0.972794 0 0
  phy
    0 -10.000000 -8.343232 -46.396969 0.227359 0.044501 -0.972794 0 0
    0 -10.000000 10.900961 -25.109860 -0.232476 0.020075 -0.972395 0 0
    0 -10.000000 8.343235 -46.396974 -0.327007 0.064006 -0.942852 0 0
  phy
    0 -10.000000 -8.343232 -46.396969 0.227359 0.044501 -0.972794 0 0
    0 -10.000000 8.343235 -46.396974 -0.327007 0.064006 -0.942852 0 0
    0 -10.000000 -4.515323 -60.620561 0.141505 0.061432 -0.988030 0 0
  phy
    0 -10.000000 -4.515323 -60.620561 0.141505 0.061432 -0.988030 0 0
    0 -10.000000 8.343235 -46.396974 -0.327007 0.064006 -0.942852 0 0
    0 -10.000000 4.515327 -60.620561 -0.324412 0.140837 -0.935372 0 0
  phy
    0 -10.000000 10.900961 -25.109860 -0.232476 0.020075 -0.972395 0 0
    0 -10.000000 -11.799114 0.000000 0.252603 -0.002855 -0.967566 0 0
    0 -10.000000 11.799114 0.000000 -0.569355 0.000000 -0.822092 0 0
  phy
    0 -10.000000 11.799114 0.000000 -0.569355 0.000000 -0.822092 0 0
    0 -10.000000 -11.799114 0.000000 0.252603 -0.002855 -0.967566 0 0
    0 -10.000000 10.900959 25.109860 -0.281794 -0.024334 -0.959166 0 0
  phy
    0 -10.000000 10.900959 25.109860 -0.281794 -0.024334 -0.959166 0 0
    0 -10.000000 -11.799114 0.000000 0.252603 -0.002855 -0.967566 0 0
    0 -10.000000 -10.900961 25.109860 0.246211 -0.018339 -0.969043 0 0
  phy
    0 -10.000000 10.900959 25.109860 -0.281794 -0.024334 -0.959166 0 0
    0 -10.000000 -10.900961 25.109860 0.246211 -0.018339 -0.969043 0 0
    0 -10.000000 8.343231 46.396974 -0.227359 -0.044501 -0.972794 0 0
  phy
    0 -10.000000 8.343231 46.396974 -0.227359 -0.044501 -0.972794 0 0
    0 -10.000000 -10.900961 25.109860 0.246211 -0.018339 -0.969043 0 0
    0 -10.000000 -8.343235 46.396974 0.503161 -0.083592 -0.860140 0 0
  phy
    0 -10.000000 8.343231 46.396974 -0.227359 -0.044501 -0.972794 0 0
    0 -10.000000 -8.343235 46.396974 0.503161 -0.083592 -0.860140 0 0
    0 -10.000000 4.515323 60.620561 -0.141505 -0.061432 -0.988030 0 0
  phy
    0 -10.000000 4.515323 60.620561 -0.141505 -0.061432 -0.988030 0 0
    0 -10.000000 -8.343235 46.396974 0.503161 -0.083592 -0.860140 0 0
    0 -10.000000 -4.515328 60.620561 0.324412 -0.140837 -0.935372 0 0
  phy
    0 -10.000000 -4.515323 -60.620561 0.141505 0.061432 -0.988030 0 0
    0 -10.000000 4.515327 -60.620561 -0.324412 0.140837 -0.935372 0 0
    0 -10.000000 0.000003 -65.615224 0.000000 1.000000 0.000000 0 0
  phy
    0 -6.987137 -4.171615 -60.620561 0.916341 0.336055 0.217686 0 0
    0 -10.000000 -8.343232 -46.396969 0.227359 0.044501 -0.972794 0 0
    0 -10.000000 -4.515323 -60.620561 0.141505 0.061432 -0.988030 0 0
  phy
    0 -10.000000 -4.515323 -60.620561 0.141505 0.061432 -0.988030 0 0
    0 -10.000000 0.000003 -65.615224 0.000000 1.000000 0.000000 0 0
    0 -6.987137 -4.171615 -60.620561 0.916341 0.336055 0.217686 0 0
  phy
    0 -2.726304 -10.071173 -25.109860 0.964762 0.085961 0.248687 0 0
    0 0.286558 -5.899555 -46.396974 0.856089 0.191807 0.479919 0 0
    0 3.440037 -7.708141 -25.109855 0.883005 0.078523 0.462749 0 0
  phy
    0 -6.987135 4.171619 -60.620561 -0.919763 0.353653 0.170194 0 0
    0 -4.432955 3.192820 -60.620561 -0.825148 0.396389 0.402500 0 0
    0 -10.000000 0.000003 -65.615224 0.000000 1.000000 0.000000 0 0
  phy
    0 -4.432950 7.708144 -46.396964 -0.962989 0.175198 0.204838 0 0
    0 -4.432955 3.192820 -60.620561 -0.825148 0.396389 0.402500 0 0
    0 -6.987135 4.171619 -60.620561 -0.919763 0.353653 0.170194 0 0
  phy
    0 -4.432955 3.192820 -60.620561 -0.825148 0.396389 0.402500 0 0
    0 -4.432950 7.708144 -46.396964 -0.962989 0.175198 0.204838 0 0
    0 0.286558 5.899559 -46.396974 -0.846119 0.193945 0.496456 0 0
  phy
    0 -4.432950 7.708144 -46.396964 -0.962989 0.175198 0.204838 0 0
    0 -10.000000 8.343235 -46.396974 -0.327007 0.064006 -0.942852 0 0
    0 -10.000000 10.900961 -25.109860 -0.232476 0.020075 -0.972395 0 0
  phy
    0 -4.432950 7.708144 -46.396964 -0.962989 0.175198 0.204838 0 0
    0 -10.000000 10.900961 -25.109860 -0.232476 0.020075 -0.972395 0 0
    0 -2.726305 10.071175 -25.109860 -0.972415 0.075520 0.220692 0 0
  phy
    0 -4.432950 7.708144 -46.396964 -0.962989 0.175198 0.204838 0 0
    0 -2.726305 10.071175 -25.109860 -0.972415 0.075520 0.220692 0 0
    0 0.286558 5.899559 -46.396974 -0.846119 0.193945 0.496456 0 0
  phy
    0 -4.432950 7.708144 -46.396964 -0.962989 0.175198 0.204838 0 0
    0 -6.987135 4.171619 -60.620561 -0.919763 0.353653 0.170194 0 0
    0 -10.000000 8.343235 -46.396974 -0.327007 0.064006 -0.942852 0 0
  phy
    0 -6.987135 4.171619 -60.620561 -0.919763 0.353653 0.170194 0 0
    0 -10.000000 4.515327 -60.620561 -0.324412 0.140837 -0.935372 0 0
    0 -10.000000 8.343235 -46.396974 -0.327007 0.064006 -0.942852 0 0
  phy
    0 -10.000000 4.515327 -60.620561 -0.324412 0.140837 -0.935372 0 0
    0 -6.987135 4.171619 -60.620561 -0.919763 0.353653 0.170194 0 0
    0 -10.000000 0.000003 -65.615224 0.000000 1.000000 0.000000 0 0
  phy
    0 9.007083 0.000000 25.109853 -0.061120 -0.133395 0.989176 0 0
    0 4.547390 -0.000002 46.396974 -0.032202 -0.312160 0.949484 0 0
    0 3.440037 -3.192820 46.396974 0.567450 -0.246348 0.785693 0 0
  phy
    0 -6.987137 4.171614 60.620561 -0.919763 -0.353653 0.170194 0 0
    0 -4.432951 7.708141 46.396969 -0.957600 -0.166870 0.234856 0 0
    0 -10.000000 8.343231 46.396974 -0.227359 -0.044501 -0.972794 0 0
  phy
    0 -6.987137 4.171614 60.620561 -0.919763 -0.353653 0.170194 0 0
    0 -10.000000 8.343231 46.396974 -0.227359 -0.044501 -0.972794 0 0
    0 -10.000000 4.515323 60.620561 -0.141505 -0.061432 -0.988030 0 0
  phy
    0 -6.987137 4.171614 60.620561 -0.919763 -0.353653 0.170194 0 0
    0 -10.000000 4.515323 60.620561 -0.141505 -0.061432 -0.988030 0 0
    0 -10.000000 -0.000003 65.615224 0.000000 -1.000000 0.000000 0 0
  phy
    0 -6.987137 4.171614 60.620561 -0.919763 -0.353653 0.170194 0 0
    0 -10.000000 -0.000003 65.615224 0.000000 -1.000000 0.000000 0 0
    0 -4.432955 3.192815 60.620561 -0.801020 -0.383819 0.459402 0 0
  phy
    0 -4.432951 7.708141 46.396969 -0.957600 -0.166870 0.234856 0 0
    0 -6.987137 4.171614 60.620561 -0.919763 -0.353653 0.170194 0 0
    0 -4.432955 3.192815 60.620561 -0.801020 -0.383819 0.459402 0 0
  phy
    0 -4.432950 -7.708144 46.396974 0.951216 -0.195711 0.238504 0 0
    0 -10.000000 -8.343235 46.396974 0.503161 -0.083592 -0.860140 0 0
    0 -2.726304 -10.071175 25.109860 0.974674 -0.080414 0.208672 0 0
  phy
    0 -2.726304 -10.071175 25.109860 0.974674 -0.080414 0.208672 0 0
    0 0.286558 -5.899559 46.396974 0.873520 -0.190724 0.447869 0 0
    0 -4.432950 -7.708144 46.396974 0.951216 -0.195711 0.238504 0 0
  phy
    0 -6.987136 -4.171620 60.620561 0.919763 -0.353653 0.170194 0 0
    0 -10.000000 -8.343235 46.396974 0.503161 -0.083592 -0.860140 0 0
    0 -4.432950 -7.708144 46.396974 0.951216 -0.195711 0.238504 0 0
  phy
    0 -10.000000 4.515323 60.620561 -0.141505 -0.061432 -0.988030 0 0
    0 -10.000000 -4.515328 60.620561 0.324412 -0.140837 -0.935372 0 0
    0 -10.000000 -0.000003 65.615224 0.000000 -1.000000 0.000000 0 0
  phy
    0 -10.000000 -4.515328 60.620561 0.324412 -0.140837 -0.935372 0 0
    0 -10.000000 -8.343235 46.396974 0.503161 -0.083592 -0.860140 0 0
    0 -6.987136 -4.171620 60.620561 0.919763 -0.353653 0.170194 0 0
  phy
    0 -6.987136 -4.171620 60.620561 0.919763 -0.353653 0.170194 0 0
    0 -10.000000 -0.000003 65.615224 0.000000 -1.000000 0.000000 0 0
    0 -10.000000 -4.515328 60.620561 0.324412 -0.140837 -0.935372 0 0
  phy
    0 -2.726304 -10.071175 25.109860 0.974674 -0.080414 0.208672 0 0
    0 -10.000000 -8.343235 46.396974 0.503161 -0.083592 -0.860140 0 0
    0 -10.000000 -10.900961 25.109860 0.246211 -0.018339 -0.969043 0 0
  phy
    0 -2.726305 10.071173 25.109860 -0.976797 -0.068205 0.203015 0 0
    0 -2.127009 10.900960 0.000000 -0.962734 0.000000 0.270452 0 0
    0 -10.000000 11.799114 0.000000 -0.569355 0.000000 -0.822092 0 0
  phy
    0 -2.726305 10.071173 25.109860 -0.976797 -0.068205 0.203015 0 0
    0 -10.000000 11.799114 0.000000 -0.569355 0.000000 -0.822092 0 0
    0 -10.000000 10.900959 25.109860 -0.281794 -0.024334 -0.959166 0 0
  phy
    0 -10.000000 10.900961 -25.109860 -0.232476 0.020075 -0.972395 0 0
    0 -10.000000 11.799114 0.000000 -0.569355 0.000000 -0.822092 0 0
    0 -2.726305 10.071175 -25.109860 -0.972415 0.075520 0.220692 0 0
  phy
    0 -2.726305 10.071175 -25.109860 -0.972415 0.075520 0.220692 0 0
    0 -10.000000 11.799114 0.000000 -0.569355 0.000000 -0.822092 0 0
    0 -2.127009 10.900960 0.000000 -0.962734 0.000000 0.270452 0 0
  phy
    0 -2.127009 10.900960 0.000000 -0.962734 0.000000 0.270452 0 0
    0 4.547390 8.343232 0.000004 -0.838271 0.000000 0.545253 0 0
    0 3.440036 7.708143 -25.109860 -0.883005 0.078523 0.462749 0 0
  phy
    0 -2.127009 10.900960 0.000000 -0.962734 0.000000 0.270452 0 0
    0 3.440036 7.708143 -25.109860 -0.883005 0.078523 0.462749 0 0
    0 -2.726305 10.071175 -25.109860 -0.972415 0.075520 0.220692 0 0
  phy
    0 3.440036 7.708141 25.109858 -0.889345 -0.085417 0.449187 0 0
    0 -2.127009 10.900960 0.000000 -0.962734 0.000000 0.270452 0 0
    0 -2.726305 10.071173 25.109860 -0.976797 -0.068205 0.203015 0 0
  phy
    0 -2.127009 10.900960 0.000000 -0.962734 0.000000 0.270452 0 0
    0 3.440036 7.708141 25.109858 -0.889345 -0.085417 0.449187 0 0
    0 4.547390 8.343232 0.000004 -0.838271 0.000000 0.545253 0 0
  phy
    0 -2.726305 10.071175 -25.109860 -0.972415 0.075520 0.220692 0 0
    0 3.440036 7.708143 -25.109860 -0.883005 0.078523 0.462749 0 0
    0 0.286558 5.899559 -46.396974 -0.846119 0.193945 0.496456 0 0
  phy
    0 -4.432951 7.708141 46.396969 -0.957600 -0.166870 0.234856 0 0
    0 3.440036 7.708141 25.109858 -0.889345 -0.085417 0.449187 0 0
    0 -2.726305 10.071173 25.109860 -0.976797 -0.068205 0.203015 0 0
  phy
    0 3.440036 7.708141 25.109858 -0.889345 -0.085417 0.449187 0 0
    0 -4.432951 7.708141 46.396969 -0.957600 -0.166870 0.234856 0 0
    0 0.286558 5.899555 46.396974 -0.824445 -0.201356 0.528910 0 0
  phy
    0 -10.000000 10.900959 25.109860 -0.281794 -0.024334 -0.959166 0 0
    0 -4.432951 7.708141 46.396969 -0.957600 -0.166870 0.234856 0 0
    0 -2.726305 10.071173 25.109860 -0.976797 -0.068205 0.203015 0 0
  phy
    0 -4.432951 7.708141 46.396969 -0.957600 -0.166870 0.234856 0 0
    0 -10.000000 10.900959 25.109860 -0.281794 -0.024334 -0.959166 0 0
    0 -10.000000 8.343231 46.396974 -0.227359 -0.044501 -0.972794 0 0
  phy
    0 -4.432955 3.192815 60.620561 -0.801020 -0.383819 0.459402 0 0
    0 -10.000000 -0.000003 65.615224 0.000000 -1.000000 0.000000 0 0
    0 -2.726305 1.727938 60.620561 -0.423332 -0.504503 0.752507 0 0
  phy
    0 9.007083 0.000000 25.109853 -0.061120 -0.133395 0.989176 0 0
    0 10.573117 0.000000 0.000000 0.064934 -0.011677 0.997821 0 0
    0 9.007081 4.515326 0.000000 -0.512661 0.000000 0.858591 0 0
  phy
    0 -4.432951 7.708141 46.396969 -0.957600 -0.166870 0.234856 0 0
    0 -4.432955 3.192815 60.620561 -0.801020 -0.383819 0.459402 0 0
    0 0.286558 5.899555 46.396974 -0.824445 -0.201356 0.528910 0 0
end
