// Created by Crowbar 0.74
version 1
nodes
  0 "Scene_Root" -1
  1 "Root" 0
  2 "Door_Left" 1
  3 "Door_Right" 1
end
skeleton
  time 0
    0 0.000000 0.000000 0.000000 1.570796 0.000000 0.000000
    1 0.000000 0.000000 0.000000 0.000000 0.000000 0.000000
    2 0.000000 45.053329 0.000000 0.000000 0.680678 0.000000
    3 0.000000 54.462692 0.000000 0.000000 -0.680678 0.000000
end
triangles
Round_elevator_sheet_1
  2 86.168831 -0.000004 104.238022 0.000000 -1.000000 0.000000 0.523282 0.234682 1 2 1.000000
  2 93.400002 0.000000 -0.071609 0.000000 -1.000000 0.000000 0.292894 0.217137 1 2 1.000000
  2 93.400002 -0.000005 104.238022 0.000000 -1.000000 0.000000 0.523282 0.217137 1 2 1.000000
Round_elevator_sheet_1
  2 86.168831 -0.000004 104.238022 0.000000 -1.000000 0.000000 0.523282 0.234682 1 2 1.000000
  2 86.168831 0.000001 -0.071609 0.000000 -1.000000 0.000000 0.292894 0.234682 1 2 1.000000
  2 93.400002 0.000000 -0.071609 0.000000 -1.000000 0.000000 0.292894 0.217137 1 2 1.000000
Round_elevator_sheet_1
  3 14.610981 92.250092 104.117599 0.156434 0.987688 0.000000 0.272539 0.268676 1 3 1.000000
  3 0.000000 93.400002 -0.192038 0.078459 0.996917 0.000000 0.042558 0.234733 1 3 1.000000
  3 -0.000001 93.399994 104.117599 0.078459 0.996917 0.000000 0.272539 0.234733 1 3 1.000000
Round_elevator_sheet_1
  3 14.610981 92.250092 104.117599 0.156434 0.987688 0.000000 0.272539 0.268676 1 3 1.000000
  3 14.610982 92.250092 -0.192038 0.156434 0.987688 0.000000 0.042558 0.268676 1 3 1.000000
  3 0.000000 93.400002 -0.192038 0.078459 0.996917 0.000000 0.042558 0.234733 1 3 1.000000
Round_elevator_sheet_1
  3 28.862186 88.828674 104.117599 0.309017 0.951056 0.000000 0.272539 0.304265 1 3 1.000000
  3 14.610982 92.250092 -0.192038 0.156434 0.987688 0.000000 0.042558 0.268676 1 3 1.000000
  3 14.610981 92.250092 104.117599 0.156434 0.987688 0.000000 0.272539 0.268676 1 3 1.000000
Round_elevator_sheet_1
  3 28.862186 88.828674 104.117599 0.309017 0.951056 0.000000 0.272539 0.304265 1 3 1.000000
  3 28.862186 88.828682 -0.192041 0.309017 0.951056 0.000000 0.042558 0.304265 1 3 1.000000
  3 14.610982 92.250092 -0.192038 0.156434 0.987688 0.000000 0.042558 0.268676 1 3 1.000000
Round_elevator_sheet_1
  3 42.402714 83.220001 104.117592 0.453990 0.891007 0.000000 0.272539 0.340288 1 3 1.000000
  3 28.862186 88.828682 -0.192041 0.309017 0.951056 0.000000 0.042558 0.304265 1 3 1.000000
  3 28.862186 88.828674 104.117599 0.309017 0.951056 0.000000 0.272539 0.304265 1 3 1.000000
Round_elevator_sheet_1
  3 42.402714 83.220001 104.117592 0.453990 0.891007 0.000000 0.272539 0.340288 1 3 1.000000
  3 42.402714 83.220009 -0.192039 0.453990 0.891007 0.000000 0.042558 0.340288 1 3 1.000000
  3 28.862186 88.828682 -0.192041 0.309017 0.951056 0.000000 0.042558 0.304265 1 3 1.000000
Round_elevator_sheet_1
  3 54.899147 75.562180 104.117592 0.587785 0.809017 0.000000 0.272539 0.375696 1 3 1.000000
  3 42.402714 83.220009 -0.192039 0.453990 0.891007 0.000000 0.042558 0.340288 1 3 1.000000
  3 42.402714 83.220001 104.117592 0.453990 0.891007 0.000000 0.272539 0.340288 1 3 1.000000
Round_elevator_sheet_1
  3 54.899147 75.562180 104.117592 0.587785 0.809017 0.000000 0.272539 0.375696 1 3 1.000000
  3 54.899143 75.562187 -0.192040 0.587785 0.809017 0.000000 0.042558 0.375696 1 3 1.000000
  3 42.402714 83.220009 -0.192039 0.453990 0.891007 0.000000 0.042558 0.340288 1 3 1.000000
Round_elevator_sheet_1
  3 65.375290 66.614700 104.117592 0.649448 0.760406 0.000000 0.272539 0.407816 1 3 1.000000
  3 54.899143 75.562187 -0.192040 0.587785 0.809017 0.000000 0.042558 0.375696 1 3 1.000000
  3 54.899147 75.562180 104.117592 0.587785 0.809017 0.000000 0.272539 0.375696 1 3 1.000000
Round_elevator_sheet_1
  3 65.375290 66.614700 104.117592 0.649448 0.760406 0.000000 0.272539 0.407816 1 3 1.000000
  3 65.375290 66.614708 -0.192041 0.649448 0.760406 0.000000 0.042558 0.407816 1 3 1.000000
  3 54.899143 75.562187 -0.192040 0.587785 0.809017 0.000000 0.042558 0.375696 1 3 1.000000
Round_elevator_sheet_1
  2 75.562187 54.899143 104.238022 0.809017 0.587785 0.000000 0.523282 0.458587 1 2 1.000000
  2 66.614708 65.375290 -0.071607 0.760406 0.649448 0.000000 0.292894 0.426485 1 2 1.000000
  2 66.614708 65.375282 104.238022 0.760406 0.649448 0.000000 0.523282 0.426485 1 2 1.000000
Round_elevator_sheet_1
  2 75.562187 54.899143 104.238022 0.809017 0.587785 0.000000 0.523282 0.458587 1 2 1.000000
  2 75.562187 54.899147 -0.071608 0.809017 0.587785 0.000000 0.292894 0.458587 1 2 1.000000
  2 66.614708 65.375290 -0.071607 0.760406 0.649448 0.000000 0.292894 0.426485 1 2 1.000000
Round_elevator_sheet_1
  2 83.220009 42.402710 104.238022 0.891006 0.453991 0.000000 0.523282 0.494054 1 2 1.000000
  2 75.562187 54.899147 -0.071608 0.809017 0.587785 0.000000 0.292894 0.458587 1 2 1.000000
  2 75.562187 54.899143 104.238022 0.809017 0.587785 0.000000 0.523282 0.458587 1 2 1.000000
Round_elevator_sheet_1
  2 83.220009 42.402710 104.238022 0.891006 0.453991 0.000000 0.523282 0.494054 1 2 1.000000
  2 83.220009 42.402714 -0.071608 0.891006 0.453991 0.000000 0.292894 0.494054 1 2 1.000000
  2 75.562187 54.899147 -0.071608 0.809017 0.587785 0.000000 0.292894 0.458587 1 2 1.000000
Round_elevator_sheet_1
  2 88.828682 28.862183 104.238022 0.951056 0.309017 0.000000 0.523282 0.529962 1 2 1.000000
  2 83.220009 42.402714 -0.071608 0.891006 0.453991 0.000000 0.292894 0.494054 1 2 1.000000
  2 83.220009 42.402710 104.238022 0.891006 0.453991 0.000000 0.523282 0.494054 1 2 1.000000
Round_elevator_sheet_1
  2 88.828682 28.862183 104.238022 0.951056 0.309017 0.000000 0.523282 0.529962 1 2 1.000000
  2 88.828682 28.862186 -0.071607 0.951056 0.309017 0.000000 0.292894 0.529962 1 2 1.000000
  2 83.220009 42.402714 -0.071608 0.891006 0.453991 0.000000 0.292894 0.494054 1 2 1.000000
Round_elevator_sheet_1
  2 92.250092 14.610977 104.238022 0.987688 0.156434 0.000000 0.523282 0.565430 1 2 1.000000
  2 88.828682 28.862186 -0.071607 0.951056 0.309017 0.000000 0.292894 0.529962 1 2 1.000000
  2 88.828682 28.862183 104.238022 0.951056 0.309017 0.000000 0.523282 0.529962 1 2 1.000000
Round_elevator_sheet_1
  2 92.250092 14.610977 104.238022 0.987688 0.156434 0.000000 0.523282 0.565430 1 2 1.000000
  2 92.250092 14.610982 -0.071610 0.987688 0.156434 0.000000 0.292894 0.565430 1 2 1.000000
  2 88.828682 28.862186 -0.071607 0.951056 0.309017 0.000000 0.292894 0.529962 1 2 1.000000
Round_elevator_sheet_1
  2 93.400002 -0.000005 104.238022 0.996917 0.078459 0.000000 0.523282 0.599581 1 2 1.000000
  2 92.250092 14.610982 -0.071610 0.987688 0.156434 0.000000 0.292894 0.565430 1 2 1.000000
  2 92.250092 14.610977 104.238022 0.987688 0.156434 0.000000 0.523282 0.565430 1 2 1.000000
Round_elevator_sheet_1
  2 93.400002 -0.000005 104.238022 0.996917 0.078459 0.000000 0.523282 0.599581 1 2 1.000000
  2 93.400002 0.000000 -0.071609 0.996917 0.078459 0.000000 0.292894 0.599581 1 2 1.000000
  2 92.250092 14.610982 -0.071610 0.987688 0.156434 0.000000 0.292894 0.565430 1 2 1.000000
Round_elevator_sheet_1
  3 65.375290 66.614708 -0.192041 0.999229 0.039260 0.000000 0.042558 0.407816 1 3 1.000000
  3 65.422150 65.422142 104.117592 0.999229 0.039260 0.000000 0.272539 0.410447 1 3 1.000000
  3 65.422150 65.422150 -0.192041 0.999229 0.039260 0.000000 0.042558 0.410447 1 3 1.000000
Round_elevator_sheet_1
  3 65.375290 66.614708 -0.192041 0.999229 0.039260 0.000000 0.042558 0.407816 1 3 1.000000
  3 65.375290 66.614700 104.117592 0.999229 0.039260 0.000000 0.272539 0.407816 1 3 1.000000
  3 65.422150 65.422142 104.117592 0.999229 0.039260 0.000000 0.272539 0.410447 1 3 1.000000
Round_elevator_sheet_1
  3 61.505188 61.505188 -0.192040 0.039260 -0.999229 0.000000 0.042558 0.423794 1 3 1.000000
  3 60.312626 61.458324 104.117592 0.039260 -0.999229 0.000000 0.272539 0.426604 1 3 1.000000
  3 60.312626 61.458332 -0.192040 0.039260 -0.999229 0.000000 0.042558 0.426604 1 3 1.000000
Round_elevator_sheet_1
  3 61.505188 61.505188 -0.192040 0.039260 -0.999229 0.000000 0.042558 0.423794 1 3 1.000000
  3 61.505188 61.505184 104.117592 0.039260 -0.999229 0.000000 0.272539 0.423794 1 3 1.000000
  3 60.312626 61.458324 104.117592 0.039260 -0.999229 0.000000 0.272539 0.426604 1 3 1.000000
Round_elevator_sheet_1
  3 65.422150 65.422150 -0.192041 0.707107 -0.707107 0.000000 0.042558 0.410447 1 3 1.000000
  3 61.505188 61.505184 104.117592 0.707107 -0.707107 0.000000 0.272539 0.423794 1 3 1.000000
  3 61.505188 61.505188 -0.192040 0.707107 -0.707107 0.000000 0.042558 0.423794 1 3 1.000000
Round_elevator_sheet_1
  3 65.422150 65.422150 -0.192041 0.707107 -0.707107 0.000000 0.042558 0.410447 1 3 1.000000
  3 65.422150 65.422142 104.117592 0.707107 -0.707107 0.000000 0.272539 0.410447 1 3 1.000000
  3 61.505188 61.505184 104.117592 0.707107 -0.707107 0.000000 0.272539 0.423794 1 3 1.000000
Round_elevator_sheet_1
  3 0.000001 86.168831 -0.192040 -1.000000 0.000000 0.000000 0.042558 0.217156 1 3 1.000000
  3 -0.000001 93.399994 104.117599 -1.000000 0.000000 0.000000 0.272539 0.234733 1 3 1.000000
  3 0.000000 93.400002 -0.192038 -1.000000 0.000000 0.000000 0.042558 0.234733 1 3 1.000000
Round_elevator_sheet_1
  3 0.000001 86.168831 -0.192040 -1.000000 0.000000 0.000000 0.042558 0.217156 1 3 1.000000
  3 0.000002 86.168823 104.117592 -1.000000 0.000000 0.000000 0.272539 0.217156 1 3 1.000000
  3 -0.000001 93.399994 104.117599 -1.000000 0.000000 0.000000 0.272539 0.234733 1 3 1.000000
Round_elevator_sheet_1
  2 65.422150 65.422150 -0.071607 0.039260 0.999229 0.000000 0.292894 0.423849 1 2 1.000000
  2 66.614708 65.375282 104.238022 0.039260 0.999229 0.000000 0.523282 0.426485 1 2 1.000000
  2 66.614708 65.375290 -0.071607 0.039260 0.999229 0.000000 0.292894 0.426485 1 2 1.000000
Round_elevator_sheet_1
  2 65.422150 65.422150 -0.071607 0.039260 0.999229 0.000000 0.292894 0.423849 1 2 1.000000
  2 65.422150 65.422142 104.238022 0.039260 0.999229 0.000000 0.523282 0.423849 1 2 1.000000
  2 66.614708 65.375282 104.238022 0.039260 0.999229 0.000000 0.523282 0.426485 1 2 1.000000
Round_elevator_sheet_1
  2 61.458332 60.312626 -0.071606 -0.999229 0.039260 0.000000 0.292894 0.407775 1 2 1.000000
  2 61.505188 61.505184 104.238022 -0.999229 0.039260 0.000000 0.523282 0.410410 1 2 1.000000
  2 61.505188 61.505188 -0.071606 -0.999229 0.039260 0.000000 0.292894 0.410410 1 2 1.000000
Round_elevator_sheet_1
  2 61.458332 60.312626 -0.071606 -0.999229 0.039260 0.000000 0.292894 0.407775 1 2 1.000000
  2 61.458332 60.312622 104.238022 -0.999229 0.039260 0.000000 0.523282 0.407775 1 2 1.000000
  2 61.505188 61.505184 104.238022 -0.999229 0.039260 0.000000 0.523282 0.410410 1 2 1.000000
Round_elevator_sheet_1
  2 65.422150 65.422142 104.238022 -0.707107 0.707107 0.000000 0.523282 0.423849 1 2 1.000000
  2 61.505188 61.505188 -0.071606 -0.707107 0.707107 0.000000 0.292894 0.410410 1 2 1.000000
  2 61.505188 61.505184 104.238022 -0.707107 0.707107 0.000000 0.523282 0.410410 1 2 1.000000
Round_elevator_sheet_1
  2 65.422150 65.422142 104.238022 -0.707107 0.707107 0.000000 0.523282 0.423849 1 2 1.000000
  2 65.422150 65.422150 -0.071607 -0.707107 0.707107 0.000000 0.292894 0.423849 1 2 1.000000
  2 61.505188 61.505188 -0.071606 -0.707107 0.707107 0.000000 0.292894 0.410410 1 2 1.000000
Round_elevator_sheet_1
  3 0.000001 86.168831 -0.192040 -0.078459 -0.996917 0.000000 0.042558 0.599504 1 3 1.000000
  3 13.479776 85.107941 104.117592 -0.156434 -0.987688 0.000000 0.272539 0.565559 1 3 1.000000
  3 0.000002 86.168823 104.117592 -0.078459 -0.996917 0.000000 0.272539 0.599504 1 3 1.000000
Round_elevator_sheet_1
  3 0.000001 86.168831 -0.192040 -0.078459 -0.996917 0.000000 0.042558 0.599504 1 3 1.000000
  3 13.479774 85.107948 -0.192040 -0.156434 -0.987688 0.000000 0.042558 0.565559 1 3 1.000000
  3 13.479776 85.107941 104.117592 -0.156434 -0.987688 0.000000 0.272539 0.565559 1 3 1.000000
Round_elevator_sheet_1
  3 26.627632 81.951416 104.117592 -0.309017 -0.951056 0.000000 0.272539 0.529970 1 3 1.000000
  3 13.479776 85.107941 104.117592 -0.156434 -0.987688 0.000000 0.272539 0.565559 1 3 1.000000
  3 13.479774 85.107948 -0.192040 -0.156434 -0.987688 0.000000 0.042558 0.565559 1 3 1.000000
Round_elevator_sheet_1
  3 26.627632 81.951416 104.117592 -0.309017 -0.951056 0.000000 0.272539 0.529970 1 3 1.000000
  3 13.479774 85.107948 -0.192040 -0.156434 -0.987688 0.000000 0.042558 0.565559 1 3 1.000000
  3 26.627632 81.951424 -0.192039 -0.309017 -0.951056 0.000000 0.042558 0.529970 1 3 1.000000
Round_elevator_sheet_1
  3 26.627632 81.951424 -0.192039 -0.309017 -0.951056 0.000000 0.042558 0.529970 1 3 1.000000
  3 39.119831 76.776978 104.117592 -0.453990 -0.891007 0.000000 0.272539 0.494128 1 3 1.000000
  3 26.627632 81.951416 104.117592 -0.309017 -0.951056 0.000000 0.272539 0.529970 1 3 1.000000
Round_elevator_sheet_1
  3 26.627632 81.951424 -0.192039 -0.309017 -0.951056 0.000000 0.042558 0.529970 1 3 1.000000
  3 39.119835 76.776993 -0.192041 -0.453990 -0.891007 0.000000 0.042558 0.494128 1 3 1.000000
  3 39.119831 76.776978 104.117592 -0.453990 -0.891007 0.000000 0.272539 0.494128 1 3 1.000000
Round_elevator_sheet_1
  3 50.648766 69.712036 104.117592 -0.587785 -0.809017 0.000000 0.272539 0.458541 1 3 1.000000
  3 39.119831 76.776978 104.117592 -0.453990 -0.891007 0.000000 0.272539 0.494128 1 3 1.000000
  3 39.119835 76.776993 -0.192041 -0.453990 -0.891007 0.000000 0.042558 0.494128 1 3 1.000000
Round_elevator_sheet_1
  3 50.648766 69.712036 104.117592 -0.587785 -0.809017 0.000000 0.272539 0.458541 1 3 1.000000
  3 39.119835 76.776993 -0.192041 -0.453990 -0.891007 0.000000 0.042558 0.494128 1 3 1.000000
  3 50.648766 69.712044 -0.192038 -0.587785 -0.809017 0.000000 0.042558 0.458541 1 3 1.000000
Round_elevator_sheet_1
  3 50.648766 69.712044 -0.192038 -0.587785 -0.809017 0.000000 0.042558 0.458541 1 3 1.000000
  3 60.312626 61.458324 104.117592 -0.649448 -0.760406 0.000000 0.272539 0.426604 1 3 1.000000
  3 50.648766 69.712036 104.117592 -0.587785 -0.809017 0.000000 0.272539 0.458541 1 3 1.000000
Round_elevator_sheet_1
  3 50.648766 69.712044 -0.192038 -0.587785 -0.809017 0.000000 0.042558 0.458541 1 3 1.000000
  3 60.312626 61.458332 -0.192040 -0.649448 -0.760406 0.000000 0.042558 0.426604 1 3 1.000000
  3 60.312626 61.458324 104.117592 -0.649448 -0.760406 0.000000 0.272539 0.426604 1 3 1.000000
Round_elevator_sheet_1
  2 69.712044 50.648762 104.238022 -0.809017 -0.587785 0.000000 0.523282 0.375676 1 2 1.000000
  2 61.458332 60.312622 104.238022 -0.760406 -0.649448 0.000000 0.523282 0.407775 1 2 1.000000
  2 61.458332 60.312626 -0.071606 -0.760406 -0.649448 0.000000 0.292894 0.407775 1 2 1.000000
Round_elevator_sheet_1
  2 69.712044 50.648762 104.238022 -0.809017 -0.587785 0.000000 0.523282 0.375676 1 2 1.000000
  2 61.458332 60.312626 -0.071606 -0.760406 -0.649448 0.000000 0.292894 0.407775 1 2 1.000000
  2 69.712044 50.648766 -0.071606 -0.809017 -0.587785 0.000000 0.292894 0.375676 1 2 1.000000
Round_elevator_sheet_1
  2 69.712044 50.648766 -0.071606 -0.809017 -0.587785 0.000000 0.292894 0.375676 1 2 1.000000
  2 76.776993 39.119831 104.238022 -0.891007 -0.453990 0.000000 0.523282 0.340209 1 2 1.000000
  2 69.712044 50.648762 104.238022 -0.809017 -0.587785 0.000000 0.523282 0.375676 1 2 1.000000
Round_elevator_sheet_1
  2 69.712044 50.648766 -0.071606 -0.809017 -0.587785 0.000000 0.292894 0.375676 1 2 1.000000
  2 76.776993 39.119835 -0.071607 -0.891007 -0.453990 0.000000 0.292894 0.340209 1 2 1.000000
  2 76.776993 39.119831 104.238022 -0.891007 -0.453990 0.000000 0.523282 0.340209 1 2 1.000000
Round_elevator_sheet_1
  2 81.951424 26.627628 104.238022 -0.951056 -0.309017 0.000000 0.523282 0.304301 1 2 1.000000
  2 76.776993 39.119831 104.238022 -0.891007 -0.453990 0.000000 0.523282 0.340209 1 2 1.000000
  2 76.776993 39.119835 -0.071607 -0.891007 -0.453990 0.000000 0.292894 0.340209 1 2 1.000000
Round_elevator_sheet_1
  2 81.951424 26.627628 104.238022 -0.951056 -0.309017 0.000000 0.523282 0.304301 1 2 1.000000
  2 76.776993 39.119835 -0.071607 -0.891007 -0.453990 0.000000 0.292894 0.340209 1 2 1.000000
  2 81.951424 26.627632 -0.071610 -0.951056 -0.309017 0.000000 0.292894 0.304301 1 2 1.000000
Round_elevator_sheet_1
  2 81.951424 26.627632 -0.071610 -0.951056 -0.309017 0.000000 0.292894 0.304301 1 2 1.000000
  2 85.107948 13.479770 104.238022 -0.987688 -0.156434 0.000000 0.523282 0.268833 1 2 1.000000
  2 81.951424 26.627628 104.238022 -0.951056 -0.309017 0.000000 0.523282 0.304301 1 2 1.000000
Round_elevator_sheet_1
  2 81.951424 26.627632 -0.071610 -0.951056 -0.309017 0.000000 0.292894 0.304301 1 2 1.000000
  2 85.107948 13.479774 -0.071610 -0.987688 -0.156434 0.000000 0.292894 0.268833 1 2 1.000000
  2 85.107948 13.479770 104.238022 -0.987688 -0.156434 0.000000 0.523282 0.268833 1 2 1.000000
Round_elevator_sheet_1
  2 86.168831 -0.000004 104.238022 -0.996917 -0.078459 0.000000 0.523282 0.234682 1 2 1.000000
  2 85.107948 13.479770 104.238022 -0.987688 -0.156434 0.000000 0.523282 0.268833 1 2 1.000000
  2 85.107948 13.479774 -0.071610 -0.987688 -0.156434 0.000000 0.292894 0.268833 1 2 1.000000
Round_elevator_sheet_1
  2 86.168831 -0.000004 104.238022 -0.996917 -0.078459 0.000000 0.523282 0.234682 1 2 1.000000
  2 85.107948 13.479774 -0.071610 -0.987688 -0.156434 0.000000 0.292894 0.268833 1 2 1.000000
  2 86.168831 0.000001 -0.071609 -0.996917 -0.078459 0.000000 0.292894 0.234682 1 2 1.000000
end
