// Created by Crowbar 0.74
version 1
nodes
  0 "weapon_bone" -1
end
skeleton
  time 0
    0 0.000000 0.000000 0.000000 0.000000 0.000000 0.000000
end
triangles
  phy
    0 0.319930 2.179691 1.642552 0.662213 -0.462292 0.589712 0 0
    0 1.247159 2.048245 -0.639754 0.687491 0.000000 0.726193 0 0
    0 0.920828 3.295220 1.943730 0.266528 -0.684289 0.678757 0 0
  phy
    0 0.319930 2.179691 1.642552 0.662213 -0.462292 0.589712 0 0
    0 -0.687014 1.403467 1.284887 0.924955 -0.245159 0.290441 0 0
    0 1.247159 2.048245 -0.639754 0.687491 0.000000 0.726193 0 0
  phy
    0 0.319930 2.179691 1.642552 0.662213 -0.462292 0.589712 0 0
    0 0.920828 3.295220 1.943730 0.266528 -0.684289 0.678757 0 0
    0 -0.014959 2.749332 1.974513 0.340023 -0.938422 0.061228 0 0
  phy
    0 -0.014959 2.749332 1.974513 0.340023 -0.938422 0.061228 0 0
    0 -0.687014 1.403467 1.284887 0.924955 -0.245159 0.290441 0 0
    0 0.319930 2.179691 1.642552 0.662213 -0.462292 0.589712 0 0
  phy
    0 -1.331501 2.178864 1.723403 0.389867 -0.890566 -0.234299 0 0
    0 -0.687014 1.403467 1.284887 0.924955 -0.245159 0.290441 0 0
    0 -0.014959 2.749332 1.974513 0.340023 -0.938422 0.061228 0 0
  phy
    0 -0.014959 2.749332 1.974513 0.340023 -0.938422 0.061228 0 0
    0 -0.450849 5.118423 2.678075 0.209617 -0.977551 0.021344 0 0
    0 -1.331501 2.178864 1.723403 0.389867 -0.890566 -0.234299 0 0
  phy
    0 0.920828 3.295220 1.943730 0.266528 -0.684289 0.678757 0 0
    0 -0.450849 5.118423 2.678075 0.209617 -0.977551 0.021344 0 0
    0 -0.014959 2.749332 1.974513 0.340023 -0.938422 0.061228 0 0
  phy
    0 -0.014959 2.749332 -2.978483 0.340022 0.938422 0.061228 0 0
    0 -0.450849 5.118423 -3.682044 0.209617 0.977551 0.021344 0 0
    0 0.920828 3.295220 -2.947700 0.260290 0.690379 0.675000 0 0
  phy
    0 -0.014959 2.749332 -2.978483 0.340022 0.938422 0.061228 0 0
    0 0.920828 3.295220 -2.947700 0.260290 0.690379 0.675000 0 0
    0 0.319930 2.179692 -2.646523 0.655044 0.501407 0.565250 0 0
  phy
    0 -0.014959 2.749332 -2.978483 0.340022 0.938422 0.061228 0 0
    0 -0.687014 1.403468 -2.288857 0.933852 0.217365 0.284030 0 0
    0 -1.331501 2.178864 -2.727374 0.389867 0.890566 -0.234299 0 0
  phy
    0 -0.687014 1.403468 -2.288857 0.933852 0.217365 0.284030 0 0
    0 -0.014959 2.749332 -2.978483 0.340022 0.938422 0.061228 0 0
    0 0.319930 2.179692 -2.646523 0.655044 0.501407 0.565250 0 0
  phy
    0 -0.450849 5.118423 -3.682044 0.209617 0.977551 0.021344 0 0
    0 -0.014959 2.749332 -2.978483 0.340022 0.938422 0.061228 0 0
    0 -1.331501 2.178864 -2.727374 0.389867 0.890566 -0.234299 0 0
  phy
    0 2.110841 15.132985 4.504168 0.200394 -0.856799 0.475118 0 0
    0 0.920828 3.295220 1.943730 0.266528 -0.684289 0.678757 0 0
    0 1.900419 3.978202 0.114370 0.155134 -0.250139 0.955701 0 0
  phy
    0 1.900419 3.978202 0.114370 0.155134 -0.250139 0.955701 0 0
    0 3.187181 22.478510 5.195427 0.018226 -0.149012 0.988667 0 0
    0 2.110841 15.132985 4.504168 0.200394 -0.856799 0.475118 0 0
  phy
    0 1.900419 3.978202 0.114370 0.155134 -0.250139 0.955701 0 0
    0 1.900419 3.978202 -1.118340 0.153513 0.250520 0.955863 0 0
    0 3.448744 15.586378 -0.501984 0.069386 0.000000 0.997590 0 0
  phy
    0 3.448744 15.586378 -0.501984 0.069386 0.000000 0.997590 0 0
    0 3.187181 22.478510 5.195427 0.018226 -0.149012 0.988667 0 0
    0 1.900419 3.978202 0.114370 0.155134 -0.250139 0.955701 0 0
  phy
    0 0.920828 3.295220 1.943730 0.266528 -0.684289 0.678757 0 0
    0 1.247159 2.048245 -0.639754 0.687491 0.000000 0.726193 0 0
    0 1.900419 3.978202 0.114370 0.155134 -0.250139 0.955701 0 0
  phy
    0 1.247159 2.048245 -0.639754 0.687491 0.000000 0.726193 0 0
    0 1.900419 3.978202 -1.118340 0.153513 0.250520 0.955863 0 0
    0 1.900419 3.978202 0.114370 0.155134 -0.250139 0.955701 0 0
  phy
    0 -1.331501 2.178864 1.723403 0.389867 -0.890566 -0.234299 0 0
    0 -2.664166 1.992211 0.810794 0.442309 -0.589038 -0.676311 0 0
    0 -1.807310 1.074166 0.592388 0.962367 -0.271702 -0.005216 0 0
  phy
    0 -1.807310 1.074166 0.592388 0.962367 -0.271702 -0.005216 0 0
    0 -0.687014 1.403467 1.284887 0.924955 -0.245159 0.290441 0 0
    0 -1.331501 2.178864 1.723403 0.389867 -0.890566 -0.234299 0 0
  phy
    0 -2.213409 4.644415 2.321861 0.166150 -0.950919 -0.261050 0 0
    0 -2.664166 1.992211 0.810794 0.442309 -0.589038 -0.676311 0 0
    0 -1.331501 2.178864 1.723403 0.389867 -0.890566 -0.234299 0 0
  phy
    0 -1.331501 2.178864 1.723403 0.389867 -0.890566 -0.234299 0 0
    0 -0.450849 5.118423 2.678075 0.209617 -0.977551 0.021344 0 0
    0 -2.213409 4.644415 2.321861 0.166150 -0.950919 -0.261050 0 0
  phy
    0 2.110841 15.132985 4.504168 0.200394 -0.856799 0.475118 0 0
    0 3.187181 22.478510 5.195427 0.018226 -0.149012 0.988667 0 0
    0 2.658634 22.119042 5.480939 -0.069615 -0.888873 -0.452834 0 0
  phy
    0 2.110841 15.132985 4.504168 0.200394 -0.856799 0.475118 0 0
    0 -0.450849 5.118423 2.678075 0.209617 -0.977551 0.021344 0 0
    0 0.920828 3.295220 1.943730 0.266528 -0.684289 0.678757 0 0
  phy
    0 -2.213409 4.644415 2.321861 0.166150 -0.950919 -0.261050 0 0
    0 -0.450849 5.118423 2.678075 0.209617 -0.977551 0.021344 0 0
    0 2.110841 15.132985 4.504168 0.200394 -0.856799 0.475118 0 0
  phy
    0 2.110841 15.132985 4.504168 0.200394 -0.856799 0.475118 0 0
    0 2.658634 22.119042 5.480939 -0.069615 -0.888873 -0.452834 0 0
    0 -2.213409 4.644415 2.321861 0.166150 -0.950919 -0.261050 0 0
  phy
    0 -3.114746 2.134139 -0.587082 0.419613 0.000000 -0.907703 0 0
    0 -2.664166 1.992211 -1.814765 0.448549 0.599358 -0.663004 0 0
    0 -2.279875 1.007578 -0.415200 0.742249 0.000000 -0.670124 0 0
  phy
    0 -1.807309 1.074167 -1.596359 0.896540 0.400684 -0.188862 0 0
    0 -2.279875 1.007578 -0.415200 0.742249 0.000000 -0.670124 0 0
    0 -2.664166 1.992211 -1.814765 0.448549 0.599358 -0.663004 0 0
  phy
    0 -2.664166 1.992211 -1.814765 0.448549 0.599358 -0.663004 0 0
    0 -3.114746 2.134139 -0.587082 0.419613 0.000000 -0.907703 0 0
    0 -3.776711 4.813573 -2.179985 0.274250 0.536498 -0.798096 0 0
  phy
    0 -2.664166 1.992211 -1.814765 0.448549 0.599358 -0.663004 0 0
    0 -1.331501 2.178864 -2.727374 0.389867 0.890566 -0.234299 0 0
    0 -1.807309 1.074167 -1.596359 0.896540 0.400684 -0.188862 0 0
  phy
    0 -1.331501 2.178864 -2.727374 0.389867 0.890566 -0.234299 0 0
    0 -2.664166 1.992211 -1.814765 0.448549 0.599358 -0.663004 0 0
    0 -2.213409 4.644416 -3.325831 0.166150 0.950919 -0.261051 0 0
  phy
    0 -2.664166 1.992211 -1.814765 0.448549 0.599358 -0.663004 0 0
    0 -3.776711 4.813573 -2.179985 0.274250 0.536498 -0.798096 0 0
    0 -2.213409 4.644416 -3.325831 0.166150 0.950919 -0.261051 0 0
  phy
    0 -0.450849 5.118423 -3.682044 0.209617 0.977551 0.021344 0 0
    0 2.110842 15.132985 -5.508136 0.200394 0.856799 0.475118 0 0
    0 0.920828 3.295220 -2.947700 0.260290 0.690379 0.675000 0 0
  phy
    0 2.110842 15.132985 -5.508136 0.200394 0.856799 0.475118 0 0
    0 -0.450849 5.118423 -3.682044 0.209617 0.977551 0.021344 0 0
    0 -2.213409 4.644416 -3.325831 0.166150 0.950919 -0.261051 0 0
  phy
    0 -0.450849 5.118423 -3.682044 0.209617 0.977551 0.021344 0 0
    0 -1.331501 2.178864 -2.727374 0.389867 0.890566 -0.234299 0 0
    0 -2.213409 4.644416 -3.325831 0.166150 0.950919 -0.261051 0 0
  phy
    0 -1.807310 1.074166 0.592388 0.962367 -0.271702 -0.005216 0 0
    0 -1.807309 1.074167 -1.596359 0.896540 0.400684 -0.188862 0 0
    0 -0.687014 1.403468 -2.288857 0.933852 0.217365 0.284030 0 0
  phy
    0 -0.687014 1.403468 -2.288857 0.933852 0.217365 0.284030 0 0
    0 -0.687014 1.403467 1.284887 0.924955 -0.245159 0.290441 0 0
    0 -1.807310 1.074166 0.592388 0.962367 -0.271702 -0.005216 0 0
  phy
    0 1.247159 2.048245 -0.639754 0.687491 0.000000 0.726193 0 0
    0 -0.687014 1.403467 1.284887 0.924955 -0.245159 0.290441 0 0
    0 -0.687014 1.403468 -2.288857 0.933852 0.217365 0.284030 0 0
  phy
    0 -0.687014 1.403468 -2.288857 0.933852 0.217365 0.284030 0 0
    0 0.319930 2.179692 -2.646523 0.655044 0.501407 0.565250 0 0
    0 1.247159 2.048245 -0.639754 0.687491 0.000000 0.726193 0 0
  phy
    0 -1.331501 2.178864 -2.727374 0.389867 0.890566 -0.234299 0 0
    0 -0.687014 1.403468 -2.288857 0.933852 0.217365 0.284030 0 0
    0 -1.807309 1.074167 -1.596359 0.896540 0.400684 -0.188862 0 0
  phy
    0 2.110842 15.132985 -5.508136 0.200394 0.856799 0.475118 0 0
    0 1.900419 3.978202 -1.118340 0.153513 0.250520 0.955863 0 0
    0 0.920828 3.295220 -2.947700 0.260290 0.690379 0.675000 0 0
  phy
    0 3.187182 22.478510 -6.199393 -0.025221 0.143125 0.989383 0 0
    0 1.900419 3.978202 -1.118340 0.153513 0.250520 0.955863 0 0
    0 2.110842 15.132985 -5.508136 0.200394 0.856799 0.475118 0 0
  phy
    0 3.187182 22.478510 -6.199393 -0.025221 0.143125 0.989383 0 0
    0 2.110842 15.132985 -5.508136 0.200394 0.856799 0.475118 0 0
    0 2.658634 22.119042 -6.484906 -0.035601 0.878773 -0.475911 0 0
  phy
    0 2.110842 15.132985 -5.508136 0.200394 0.856799 0.475118 0 0
    0 -2.213409 4.644416 -3.325831 0.166150 0.950919 -0.261051 0 0
    0 2.658634 22.119042 -6.484906 -0.035601 0.878773 -0.475911 0 0
  phy
    0 -2.213409 4.644415 2.321861 0.166150 -0.950919 -0.261050 0 0
    0 -2.506584 6.586053 2.473447 0.008627 -0.852035 -0.523413 0 0
    0 -3.776711 4.813573 1.176015 0.280247 -0.541409 -0.792677 0 0
  phy
    0 -3.776711 4.813573 1.176015 0.280247 -0.541409 -0.792677 0 0
    0 -2.506584 6.586053 2.473447 0.008627 -0.852035 -0.523413 0 0
    0 -4.172013 6.981218 1.183278 0.078752 -0.578004 -0.812225 0 0
  phy
    0 -3.776711 4.813573 1.176015 0.280247 -0.541409 -0.792677 0 0
    0 -2.664166 1.992211 0.810794 0.442309 -0.589038 -0.676311 0 0
    0 -2.213409 4.644415 2.321861 0.166150 -0.950919 -0.261050 0 0
  phy
    0 -3.776711 4.813573 1.176015 0.280247 -0.541409 -0.792677 0 0
    0 -3.114746 2.134139 -0.587082 0.419613 0.000000 -0.907703 0 0
    0 -2.664166 1.992211 0.810794 0.442309 -0.589038 -0.676311 0 0
  phy
    0 -3.114746 2.134139 -0.587082 0.419613 0.000000 -0.907703 0 0
    0 -3.776711 4.813573 1.176015 0.280247 -0.541409 -0.792677 0 0
    0 -4.277915 5.038646 -0.414643 0.184184 0.000000 -0.982892 0 0
  phy
    0 -3.776711 4.813573 1.176015 0.280247 -0.541409 -0.792677 0 0
    0 -4.172013 6.981218 1.183278 0.078752 -0.578004 -0.812225 0 0
    0 -4.277915 5.038646 -0.414643 0.184184 0.000000 -0.982892 0 0
  phy
    0 2.658634 22.119042 5.480939 -0.069615 -0.888873 -0.452834 0 0
    0 -2.506584 6.586053 2.473447 0.008627 -0.852035 -0.523413 0 0
    0 -2.213409 4.644415 2.321861 0.166150 -0.950919 -0.261050 0 0
  phy
    0 -5.741202 16.088578 -0.273845 0.115030 -0.005045 -0.993349 0 0
    0 -6.285069 22.703606 -0.593234 -0.087398 0.795522 -0.599588 0 0
    0 -4.172013 6.981218 -2.187248 0.073856 0.535129 -0.841535 0 0
  phy
    0 -4.277915 5.038646 -0.414643 0.184184 0.000000 -0.982892 0 0
    0 -5.741202 16.088578 -0.273845 0.115030 -0.005045 -0.993349 0 0
    0 -4.172013 6.981218 -2.187248 0.073856 0.535129 -0.841535 0 0
  phy
    0 -6.285069 22.703606 -0.593234 -0.087398 0.795522 -0.599588 0 0
    0 -5.741202 16.088578 -0.273845 0.115030 -0.005045 -0.993349 0 0
    0 -6.262727 22.702306 -0.015205 -0.041704 -0.816666 -0.575601 0 0
  phy
    0 -4.172013 6.981218 1.183278 0.078752 -0.578004 -0.812225 0 0
    0 -5.741202 16.088578 -0.273845 0.115030 -0.005045 -0.993349 0 0
    0 -4.277915 5.038646 -0.414643 0.184184 0.000000 -0.982892 0 0
  phy
    0 -5.741202 16.088578 -0.273845 0.115030 -0.005045 -0.993349 0 0
    0 -4.172013 6.981218 1.183278 0.078752 -0.578004 -0.812225 0 0
    0 -6.262727 22.702306 -0.015205 -0.041704 -0.816666 -0.575601 0 0
  phy
    0 -1.807310 1.074166 0.592388 0.962367 -0.271702 -0.005216 0 0
    0 -2.279875 1.007578 -0.415200 0.742249 0.000000 -0.670124 0 0
    0 -1.807309 1.074167 -1.596359 0.896540 0.400684 -0.188862 0 0
  phy
    0 -2.664166 1.992211 0.810794 0.442309 -0.589038 -0.676311 0 0
    0 -2.279875 1.007578 -0.415200 0.742249 0.000000 -0.670124 0 0
    0 -1.807310 1.074166 0.592388 0.962367 -0.271702 -0.005216 0 0
  phy
    0 -3.776711 4.813573 -2.179985 0.274250 0.536498 -0.798096 0 0
    0 -3.114746 2.134139 -0.587082 0.419613 0.000000 -0.907703 0 0
    0 -4.277915 5.038646 -0.414643 0.184184 0.000000 -0.982892 0 0
  phy
    0 -2.664166 1.992211 0.810794 0.442309 -0.589038 -0.676311 0 0
    0 -3.114746 2.134139 -0.587082 0.419613 0.000000 -0.907703 0 0
    0 -2.279875 1.007578 -0.415200 0.742249 0.000000 -0.670124 0 0
  phy
    0 -3.776711 4.813573 -2.179985 0.274250 0.536498 -0.798096 0 0
    0 -2.506584 6.586054 -3.477417 -0.003135 0.840353 -0.542030 0 0
    0 -2.213409 4.644416 -3.325831 0.166150 0.950919 -0.261051 0 0
  phy
    0 -2.506584 6.586054 -3.477417 -0.003135 0.840353 -0.542030 0 0
    0 -3.776711 4.813573 -2.179985 0.274250 0.536498 -0.798096 0 0
    0 -4.172013 6.981218 -2.187248 0.073856 0.535129 -0.841535 0 0
  phy
    0 -3.776711 4.813573 -2.179985 0.274250 0.536498 -0.798096 0 0
    0 -4.277915 5.038646 -0.414643 0.184184 0.000000 -0.982892 0 0
    0 -4.172013 6.981218 -2.187248 0.073856 0.535129 -0.841535 0 0
  phy
    0 -6.285069 22.703606 -0.593234 -0.087398 0.795522 -0.599588 0 0
    0 -2.506584 6.586054 -3.477417 -0.003135 0.840353 -0.542030 0 0
    0 -4.172013 6.981218 -2.187248 0.073856 0.535129 -0.841535 0 0
  phy
    0 -2.506584 6.586054 -3.477417 -0.003135 0.840353 -0.542030 0 0
    0 -6.285069 22.703606 -0.593234 -0.087398 0.795522 -0.599588 0 0
    0 2.658634 22.119042 -6.484906 -0.035601 0.878773 -0.475911 0 0
  phy
    0 -2.213409 4.644416 -3.325831 0.166150 0.950919 -0.261051 0 0
    0 -2.506584 6.586054 -3.477417 -0.003135 0.840353 -0.542030 0 0
    0 2.658634 22.119042 -6.484906 -0.035601 0.878773 -0.475911 0 0
  phy
    0 1.247159 2.048245 -0.639754 0.687491 0.000000 0.726193 0 0
    0 0.319930 2.179692 -2.646523 0.655044 0.501407 0.565250 0 0
    0 0.920828 3.295220 -2.947700 0.260290 0.690379 0.675000 0 0
  phy
    0 0.920828 3.295220 -2.947700 0.260290 0.690379 0.675000 0 0
    0 1.900419 3.978202 -1.118340 0.153513 0.250520 0.955863 0 0
    0 1.247159 2.048245 -0.639754 0.687491 0.000000 0.726193 0 0
  phy
    0 -4.172013 6.981218 1.183278 0.078752 -0.578004 -0.812225 0 0
    0 -2.506584 6.586053 2.473447 0.008627 -0.852035 -0.523413 0 0
    0 -6.262727 22.702306 -0.015205 -0.041704 -0.816666 -0.575601 0 0
  phy
    0 -6.285069 22.703606 -0.593234 -0.087398 0.795522 -0.599588 0 0
    0 2.297506 23.663856 -5.226501 -0.965902 0.258901 0.001708 0 0
    0 2.658634 22.119042 -6.484906 -0.035601 0.878773 -0.475911 0 0
  phy
    0 2.297506 23.663856 -5.226501 -0.965902 0.258901 0.001708 0 0
    0 -6.285069 22.703606 -0.593234 -0.087398 0.795522 -0.599588 0 0
    0 -4.851848 24.144234 -0.190455 -0.975835 -0.139364 -0.168299 0 0
  phy
    0 -6.285069 22.703606 -0.593234 -0.087398 0.795522 -0.599588 0 0
    0 -6.262727 22.702306 -0.015205 -0.041704 -0.816666 -0.575601 0 0
    0 -4.851848 24.144234 -0.190455 -0.975835 -0.139364 -0.168299 0 0
  phy
    0 3.448744 15.586378 -0.501984 0.069386 0.000000 0.997590 0 0
    0 1.900419 3.978202 -1.118340 0.153513 0.250520 0.955863 0 0
    0 3.187182 22.478510 -6.199393 -0.025221 0.143125 0.989383 0 0
  phy
    0 3.187182 22.478510 -6.199393 -0.025221 0.143125 0.989383 0 0
    0 2.297506 23.663856 -5.226501 -0.965902 0.258901 0.001708 0 0
    0 2.600028 23.646289 4.081248 -0.964326 -0.120883 0.235504 0 0
  phy
    0 2.600028 23.646289 4.081248 -0.964326 -0.120883 0.235504 0 0
    0 3.187181 22.478510 5.195427 0.018226 -0.149012 0.988667 0 0
    0 3.187182 22.478510 -6.199393 -0.025221 0.143125 0.989383 0 0
  phy
    0 3.187182 22.478510 -6.199393 -0.025221 0.143125 0.989383 0 0
    0 3.187181 22.478510 5.195427 0.018226 -0.149012 0.988667 0 0
    0 3.448744 15.586378 -0.501984 0.069386 0.000000 0.997590 0 0
  phy
    0 2.297506 23.663856 -5.226501 -0.965902 0.258901 0.001708 0 0
    0 3.187182 22.478510 -6.199393 -0.025221 0.143125 0.989383 0 0
    0 2.658634 22.119042 -6.484906 -0.035601 0.878773 -0.475911 0 0
  phy
    0 2.658634 22.119042 5.480939 -0.069615 -0.888873 -0.452834 0 0
    0 3.187181 22.478510 5.195427 0.018226 -0.149012 0.988667 0 0
    0 2.600028 23.646289 4.081248 -0.964326 -0.120883 0.235504 0 0
  phy
    0 2.600028 23.646289 4.081248 -0.964326 -0.120883 0.235504 0 0
    0 -4.851848 24.144234 -0.190455 -0.975835 -0.139364 -0.168299 0 0
    0 2.658634 22.119042 5.480939 -0.069615 -0.888873 -0.452834 0 0
  phy
    0 2.600028 23.646289 4.081248 -0.964326 -0.120883 0.235504 0 0
    0 2.297506 23.663856 -5.226501 -0.965902 0.258901 0.001708 0 0
    0 -4.851848 24.144234 -0.190455 -0.975835 -0.139364 -0.168299 0 0
  phy
    0 -6.262727 22.702306 -0.015205 -0.041704 -0.816666 -0.575601 0 0
    0 -2.506584 6.586053 2.473447 0.008627 -0.852035 -0.523413 0 0
    0 2.658634 22.119042 5.480939 -0.069615 -0.888873 -0.452834 0 0
  phy
    0 2.658634 22.119042 5.480939 -0.069615 -0.888873 -0.452834 0 0
    0 -4.851848 24.144234 -0.190455 -0.975835 -0.139364 -0.168299 0 0
    0 -6.262727 22.702306 -0.015205 -0.041704 -0.816666 -0.575601 0 0
end
