// Created by Crowbar 0.74
version 1
nodes
  0 "Scene_Root" -1
  1 "Root" 0
  2 "Door_Left" 1
  3 "Door_Right" 1
end
skeleton
  time 0
    0 0.000000 0.000000 0.000000 1.570796 0.000000 -1.570796
    1 0.000000 0.000000 0.000000 0.000000 1.570792 0.000000
    2 0.000000 45.053329 0.000000 0.000000 0.680678 0.000000
    3 0.000000 54.462692 0.000000 0.000000 -0.680678 0.000000
  time 1
    0 0.000000 0.000000 0.000000 1.570796 0.000000 -1.570796
    1 0.000000 0.000000 0.000000 0.000000 1.570792 0.000000
    2 0.000000 45.053329 0.000000 0.000000 0.675443 0.000000
    3 0.000000 54.462692 0.000000 0.000000 -0.675422 0.000000
  time 2
    0 0.000000 0.000000 0.000000 1.570796 0.000000 -1.570796
    1 0.000000 0.000000 0.000000 0.000000 1.570792 0.000000
    2 0.000000 45.053329 0.000000 0.000000 0.660945 0.000000
    3 0.000000 54.462692 0.000000 0.000000 -0.660944 0.000000
  time 3
    0 0.000000 0.000000 0.000000 1.570796 0.000000 -1.570796
    1 0.000000 0.000000 0.000000 0.000000 1.570792 0.000000
    2 0.000000 45.053329 0.000000 0.000000 0.638926 0.000000
    3 0.000000 54.462692 0.000000 0.000000 -0.638925 0.000000
  time 4
    0 0.000000 0.000000 0.000000 1.570796 0.000000 -1.570796
    1 0.000000 0.000000 0.000000 0.000000 1.570792 0.000000
    2 0.000000 45.053329 0.000000 0.000000 0.610656 0.000000
    3 0.000000 54.462692 0.000000 0.000000 -0.610653 0.000000
  time 5
    0 0.000000 0.000000 0.000000 1.570796 0.000000 -1.570796
    1 0.000000 0.000000 0.000000 0.000000 1.570792 0.000000
    2 0.000000 45.053329 0.000000 0.000000 0.577150 0.000000
    3 0.000000 54.462692 0.000000 0.000000 -0.577147 0.000000
  time 6
    0 0.000000 0.000000 0.000000 1.570796 0.000000 -1.570796
    1 0.000000 0.000000 0.000000 0.000000 1.570792 0.000000
    2 0.000000 45.053329 0.000000 0.000000 0.539304 0.000000
    3 0.000000 54.462692 0.000000 0.000000 -0.539299 0.000000
  time 7
    0 0.000000 0.000000 0.000000 1.570796 0.000000 -1.570796
    1 0.000000 0.000000 0.000000 0.000000 1.570792 0.000000
    2 0.000000 45.053329 0.000000 0.000000 0.497884 0.000000
    3 0.000000 54.462692 0.000000 0.000000 -0.497879 0.000000
  time 8
    0 0.000000 0.000000 0.000000 1.570796 0.000000 -1.570796
    1 0.000000 0.000000 0.000000 0.000000 1.570792 0.000000
    2 0.000000 45.053329 0.000000 0.000000 0.453578 0.000000
    3 0.000000 54.462692 0.000000 0.000000 -0.453571 0.000000
  time 9
    0 0.000000 0.000000 0.000000 1.570796 0.000000 -1.570796
    1 0.000000 0.000000 0.000000 0.000000 1.570792 0.000000
    2 0.000000 45.053329 0.000000 0.000000 0.406986 0.000000
    3 0.000000 54.462692 0.000000 0.000000 -0.406978 0.000000
  time 10
    0 0.000000 0.000000 0.000000 1.570796 0.000000 -1.570796
    1 0.000000 0.000000 0.000000 0.000000 1.570792 0.000000
    2 0.000000 45.053329 0.000000 0.000000 0.358753 0.000000
    3 0.000000 54.462692 0.000000 0.000000 -0.358744 0.000000
  time 11
    0 0.000000 0.000000 0.000000 1.570796 0.000000 -1.570796
    1 0.000000 0.000000 0.000000 0.000000 1.570792 0.000000
    2 0.000000 45.053329 0.000000 0.000000 0.309482 0.000000
    3 0.000000 54.462692 0.000000 0.000000 -0.309471 0.000000
  time 12
    0 0.000000 0.000000 0.000000 1.570796 0.000000 -1.570796
    1 0.000000 0.000000 0.000000 0.000000 1.570792 0.000000
    2 0.000000 45.053329 0.000000 0.000000 0.259816 0.000000
    3 0.000000 54.462692 0.000000 0.000000 -0.259824 0.000000
  time 13
    0 0.000000 0.000000 0.000000 1.570796 0.000000 -1.570796
    1 0.000000 0.000000 0.000000 0.000000 1.570792 0.000000
    2 0.000000 45.053329 0.000000 0.000000 0.210524 0.000000
    3 0.000000 54.462692 0.000000 0.000000 -0.210531 0.000000
  time 14
    0 0.000000 0.000000 0.000000 1.570796 0.000000 -1.570796
    1 0.000000 0.000000 0.000000 0.000000 1.570792 0.000000
    2 0.000000 45.053329 0.000000 0.000000 0.162437 0.000000
    3 0.000000 54.462692 0.000000 0.000000 -0.162442 0.000000
  time 15
    0 0.000000 0.000000 0.000000 1.570796 0.000000 -1.570796
    1 0.000000 0.000000 0.000000 0.000000 1.570792 0.000000
    2 0.000000 45.053329 0.000000 0.000000 0.116635 0.000000
    3 0.000000 54.462692 0.000000 0.000000 -0.116639 0.000000
  time 16
    0 0.000000 0.000000 0.000000 1.570796 0.000000 -1.570796
    1 0.000000 0.000000 0.000000 0.000000 1.570792 0.000000
    2 0.000000 45.053329 0.000000 0.000000 0.074592 0.000000
    3 0.000000 54.462692 0.000000 0.000000 -0.074595 0.000000
  time 17
    0 0.000000 0.000000 0.000000 1.570796 0.000000 -1.570796
    1 0.000000 0.000000 0.000000 0.000000 1.570792 0.000000
    2 0.000000 45.053329 0.000000 0.000000 0.038387 0.000000
    3 0.000000 54.462692 0.000000 0.000000 -0.038388 0.000000
  time 18
    0 0.000000 0.000000 0.000000 1.570796 0.000000 -1.570796
    1 0.000000 0.000000 0.000000 0.000000 1.570792 0.000000
    2 0.000000 45.053329 0.000000 0.000000 0.011446 0.000000
    3 0.000000 54.462692 0.000000 0.000000 -0.011425 0.000000
  time 19
    0 0.000000 0.000000 0.000000 1.570796 0.000000 -1.570796
    1 0.000000 0.000000 0.000000 0.000000 1.570792 0.000000
    2 0.000000 45.053329 0.000000 0.000000 0.000021 0.000000
    3 0.000000 54.462692 0.000000 0.000000 -0.000042 0.000000
end
