// Created by Crowbar 0.74
version 1
nodes
  0 "static_prop" -1
end
skeleton
  time 0
    0 0.000000 0.000000 0.000000 0.000000 0.000000 0.000000
end
triangles
  phy
    0 -36.396079 3.856697 17.667999 -0.990431 -0.124155 -0.060270 0 0
    0 36.396079 3.856700 17.667999 -0.985078 -0.123484 0.119888 0 0
    0 36.396079 3.856702 -17.667999 -0.997582 0.062526 0.030352 0 0
  phy
    0 -36.396079 3.856697 17.667999 -0.990431 -0.124155 -0.060270 0 0
    0 36.396079 3.856702 -17.667999 -0.997582 0.062526 0.030352 0 0
    0 -36.396079 3.856698 -17.667999 -0.968295 0.242761 -0.058923 0 0
  phy
    0 -36.396079 -0.572841 17.667999 0.990431 -0.124155 -0.060270 0 0
    0 36.396079 -0.572838 17.667999 0.991783 -0.124325 0.030176 0 0
    0 -36.396079 3.856697 17.667999 -0.990431 -0.124155 -0.060270 0 0
  phy
    0 36.396079 -0.572838 17.667999 0.991783 -0.124325 0.030176 0 0
    0 36.396079 3.856700 17.667999 -0.985078 -0.123484 0.119888 0 0
    0 -36.396079 3.856697 17.667999 -0.990431 -0.124155 -0.060270 0 0
  phy
    0 -36.396079 -0.572841 17.667999 0.990431 -0.124155 -0.060270 0 0
    0 -36.396079 3.856697 17.667999 -0.990431 -0.124155 -0.060270 0 0
    0 -36.396079 -0.572840 -17.667999 0.996206 0.062440 -0.060621 0 0
  phy
    0 -36.396079 -0.572840 -17.667999 0.996206 0.062440 -0.060621 0 0
    0 -36.396079 3.856697 17.667999 -0.990431 -0.124155 -0.060270 0 0
    0 -36.396079 3.856698 -17.667999 -0.968295 0.242761 -0.058923 0 0
  phy
    0 -36.396079 -0.572840 -17.667999 0.996206 0.062440 -0.060621 0 0
    0 36.396079 -0.572838 17.667999 0.991783 -0.124325 0.030176 0 0
    0 -36.396079 -0.572841 17.667999 0.990431 -0.124155 -0.060270 0 0
  phy
    0 -36.396079 -0.572840 -17.667999 0.996206 0.062440 -0.060621 0 0
    0 36.396079 -0.572837 -17.667999 0.963291 0.241506 0.117236 0 0
    0 36.396079 -0.572838 17.667999 0.991783 -0.124325 0.030176 0 0
  phy
    0 36.396079 -0.572838 17.667999 0.991783 -0.124325 0.030176 0 0
    0 36.396079 -0.572837 -17.667999 0.963291 0.241506 0.117236 0 0
    0 36.396079 3.856700 17.667999 -0.985078 -0.123484 0.119888 0 0
  phy
    0 36.396079 -0.572837 -17.667999 0.963291 0.241506 0.117236 0 0
    0 36.396079 3.856702 -17.667999 -0.997582 0.062526 0.030352 0 0
    0 36.396079 3.856700 17.667999 -0.985078 -0.123484 0.119888 0 0
  phy
    0 36.396079 3.856702 -17.667999 -0.997582 0.062526 0.030352 0 0
    0 36.396079 -0.572837 -17.667999 0.963291 0.241506 0.117236 0 0
    0 -36.396079 3.856698 -17.667999 -0.968295 0.242761 -0.058923 0 0
  phy
    0 -36.396079 3.856698 -17.667999 -0.968295 0.242761 -0.058923 0 0
    0 36.396079 -0.572837 -17.667999 0.963291 0.241506 0.117236 0 0
    0 -36.396079 -0.572840 -17.667999 0.996206 0.062440 -0.060621 0 0
end
