// Created by Crowbar 0.74
version 1
nodes
  0 "static_prop" -1
end
skeleton
  time 0
    0 0.000000 0.000000 0.000000 0.000000 0.000000 0.000000
end
triangles
sign_frame02
  0 -33.367378 -0.502366 14.175380 0.966355 0.000000 -0.257211 0.557246 0.112877 1 0 1.000000
  0 -33.313084 3.838305 14.270147 0.794365 0.000000 -0.607440 0.556474 0.184549 1 0 1.000000
  0 -33.313084 -0.502366 14.270147 0.794365 0.000000 -0.607440 0.556474 0.112877 1 0 1.000000
sign_frame02
  0 -33.367378 -0.502366 14.175380 0.966355 0.000000 -0.257211 0.557246 0.112877 1 0 1.000000
  0 -33.367378 3.838305 14.175380 0.966355 0.000000 -0.257211 0.557246 0.184549 1 0 1.000000
  0 -33.313084 3.838305 14.270147 0.794365 0.000000 -0.607440 0.556474 0.184549 1 0 1.000000
sign_frame02
  0 -33.367378 -0.502364 -14.175380 0.966355 0.000000 0.257211 0.757762 0.112877 1 0 1.000000
  0 -33.367378 3.838305 14.175380 0.966355 0.000000 -0.257211 0.557246 0.184549 1 0 1.000000
  0 -33.367378 -0.502366 14.175380 0.966355 0.000000 -0.257211 0.557246 0.112877 1 0 1.000000
sign_frame02
  0 -33.367378 -0.502364 -14.175380 0.966355 0.000000 0.257211 0.757762 0.112877 1 0 1.000000
  0 -33.367378 3.838306 -14.175380 0.966355 0.000000 0.257211 0.757762 0.184549 1 0 1.000000
  0 -33.367378 3.838305 14.175380 0.966355 0.000000 -0.257211 0.557246 0.184549 1 0 1.000000
sign_frame02
  0 -33.313084 -0.502364 -14.270147 0.794365 0.000000 0.607440 0.758535 0.112877 1 0 1.000000
  0 -33.367378 3.838306 -14.175380 0.966355 0.000000 0.257211 0.757762 0.184549 1 0 1.000000
  0 -33.367378 -0.502364 -14.175380 0.966355 0.000000 0.257211 0.757762 0.112877 1 0 1.000000
sign_frame02
  0 -33.313084 -0.502364 -14.270147 0.794365 0.000000 0.607440 0.758535 0.112877 1 0 1.000000
  0 -33.313084 3.838307 -14.270147 0.794365 0.000000 0.607440 0.758535 0.184549 1 0 1.000000
  0 -33.367378 3.838306 -14.175380 0.966355 0.000000 0.257211 0.757762 0.184549 1 0 1.000000
sign_frame02
  0 -33.230709 -0.502364 -14.352522 0.607440 0.000000 0.794365 0.759359 0.112877 1 0 1.000000
  0 -33.313084 3.838307 -14.270147 0.794365 0.000000 0.607440 0.758535 0.184549 1 0 1.000000
  0 -33.313084 -0.502364 -14.270147 0.794365 0.000000 0.607440 0.758535 0.112877 1 0 1.000000
sign_frame02
  0 -33.230709 -0.502364 -14.352522 0.607440 0.000000 0.794365 0.759359 0.112877 1 0 1.000000
  0 -33.230709 3.838307 -14.352522 0.607440 0.000000 0.794365 0.759359 0.184549 1 0 1.000000
  0 -33.313084 3.838307 -14.270147 0.794365 0.000000 0.607440 0.758535 0.184549 1 0 1.000000
sign_frame02
  0 -33.135941 -0.502364 -14.406816 0.257211 0.000000 0.966355 0.760131 0.112877 1 0 1.000000
  0 -33.230709 3.838307 -14.352522 0.607440 0.000000 0.794365 0.759359 0.184549 1 0 1.000000
  0 -33.230709 -0.502364 -14.352522 0.607440 0.000000 0.794365 0.759359 0.112877 1 0 1.000000
sign_frame02
  0 -33.135941 -0.502364 -14.406816 0.257211 0.000000 0.966355 0.760131 0.112877 1 0 1.000000
  0 -33.135941 3.838307 -14.406816 0.257211 0.000000 0.966355 0.760131 0.184549 1 0 1.000000
  0 -33.230709 3.838307 -14.352522 0.607440 0.000000 0.794365 0.759359 0.184549 1 0 1.000000
sign_frame02
  0 -2.772225 -0.502363 -14.406816 -0.382683 0.000000 0.923879 0.974884 0.112877 1 0 1.000000
  0 -33.135941 3.838307 -14.406816 0.257211 0.000000 0.966355 0.760131 0.184549 1 0 1.000000
  0 -33.135941 -0.502364 -14.406816 0.257211 0.000000 0.966355 0.760131 0.112877 1 0 1.000000
sign_frame02
  0 -2.772225 -0.502363 -14.406816 -0.382683 0.000000 0.923879 0.974884 0.112877 1 0 1.000000
  0 -2.772226 3.838308 -14.406816 -0.382683 0.000000 0.923879 0.974884 0.184549 1 0 1.000000
  0 -33.135941 3.838307 -14.406816 0.257211 0.000000 0.966355 0.760131 0.184549 1 0 1.000000
sign_frame02
  0 -33.313084 -0.502366 14.270147 0.794365 0.000000 -0.607440 0.556474 0.112877 1 0 1.000000
  0 -33.230709 3.838305 14.352522 0.607440 0.000000 -0.794365 0.555650 0.184549 1 0 1.000000
  0 -33.230709 -0.502366 14.352522 0.607440 0.000000 -0.794365 0.555650 0.112877 1 0 1.000000
sign_frame02
  0 -33.313084 -0.502366 14.270147 0.794365 0.000000 -0.607440 0.556474 0.112877 1 0 1.000000
  0 -33.313084 3.838305 14.270147 0.794365 0.000000 -0.607440 0.556474 0.184549 1 0 1.000000
  0 -33.230709 3.838305 14.352522 0.607440 0.000000 -0.794365 0.555650 0.184549 1 0 1.000000
sign_frame02
  0 -33.230709 -0.502366 14.352522 0.607440 0.000000 -0.794365 0.555650 0.112877 1 0 1.000000
  0 -33.135941 3.838305 14.406816 0.257211 0.000000 -0.966355 0.554878 0.184549 1 0 1.000000
  0 -33.135941 -0.502366 14.406816 0.257211 0.000000 -0.966355 0.554878 0.112877 1 0 1.000000
sign_frame02
  0 -33.230709 -0.502366 14.352522 0.607440 0.000000 -0.794365 0.555650 0.112877 1 0 1.000000
  0 -33.230709 3.838305 14.352522 0.607440 0.000000 -0.794365 0.555650 0.184549 1 0 1.000000
  0 -33.135941 3.838305 14.406816 0.257211 0.000000 -0.966355 0.554878 0.184549 1 0 1.000000
sign_frame02
  0 -33.135941 -0.502366 14.406816 0.257211 0.000000 -0.966355 0.554878 0.112877 1 0 1.000000
  0 -2.772226 3.838307 14.406816 -0.382683 0.000000 -0.923879 0.340125 0.184549 1 0 1.000000
  0 -2.772225 -0.502364 14.406816 -0.382683 0.000000 -0.923879 0.340125 0.112877 1 0 1.000000
sign_frame02
  0 -33.135941 -0.502366 14.406816 0.257211 0.000000 -0.966355 0.554878 0.112877 1 0 1.000000
  0 -33.135941 3.838305 14.406816 0.257211 0.000000 -0.966355 0.554878 0.184549 1 0 1.000000
  0 -2.772226 3.838307 14.406816 -0.382683 0.000000 -0.923879 0.340125 0.184549 1 0 1.000000
sign_frame02
  0 -2.772225 -0.502364 14.406816 -0.382683 0.000000 -0.923879 0.340125 0.112877 1 0 1.000000
  0 -2.467170 3.838307 14.101761 -0.923879 0.000000 -0.382683 0.337073 0.184549 1 0 1.000000
  0 -2.467170 -0.502364 14.101761 -0.923879 0.000000 -0.382683 0.337073 0.112877 1 0 1.000000
sign_frame02
  0 -2.772225 -0.502364 14.406816 -0.382683 0.000000 -0.923879 0.340125 0.112877 1 0 1.000000
  0 -2.772226 3.838307 14.406816 -0.382683 0.000000 -0.923879 0.340125 0.184549 1 0 1.000000
  0 -2.467170 3.838307 14.101761 -0.923879 0.000000 -0.382683 0.337073 0.184549 1 0 1.000000
sign_frame02
  0 -2.467170 -0.502364 14.101761 -0.923879 0.000000 -0.382683 0.337073 0.112877 1 0 1.000000
  0 -2.467170 3.838308 -14.101761 -0.923879 0.000000 0.382683 0.027551 0.184549 1 0 1.000000
  0 -2.467170 -0.502363 -14.101761 -0.923879 0.000000 0.382683 0.027551 0.112877 1 0 1.000000
sign_frame02
  0 -2.467170 -0.502364 14.101761 -0.923879 0.000000 -0.382683 0.337073 0.112877 1 0 1.000000
  0 -2.467170 3.838307 14.101761 -0.923879 0.000000 -0.382683 0.337073 0.184549 1 0 1.000000
  0 -2.467170 3.838308 -14.101761 -0.923879 0.000000 0.382683 0.027551 0.184549 1 0 1.000000
sign_frame02
  0 -2.467170 3.838308 -14.101761 -0.923879 0.000000 0.382683 0.977935 0.184549 1 0 1.000000
  0 -2.772225 -0.502363 -14.406816 -0.382683 0.000000 0.923879 0.974884 0.112877 1 0 1.000000
  0 -2.467170 -0.502363 -14.101761 -0.923879 0.000000 0.382683 0.977935 0.112877 1 0 1.000000
sign_frame02
  0 -2.467170 3.838308 -14.101761 -0.923879 0.000000 0.382683 0.977935 0.184549 1 0 1.000000
  0 -2.772226 3.838308 -14.406816 -0.382683 0.000000 0.923879 0.974884 0.184549 1 0 1.000000
  0 -2.772225 -0.502363 -14.406816 -0.382683 0.000000 0.923879 0.974884 0.112877 1 0 1.000000
sign_frame02
  0 -34.619911 -0.502366 17.116659 -0.074486 -0.924776 0.373150 0.035773 0.982065 1 0 1.000000
  0 -1.568642 -0.025867 17.584000 0.000000 -0.378198 0.925725 0.479275 0.988337 1 0 1.000000
  0 -34.712872 -0.025869 17.584000 -0.180323 -0.384794 0.905217 0.034525 0.988337 1 0 1.000000
sign_frame02
  0 -34.712872 -0.025869 17.584000 -0.180323 -0.384794 0.905217 0.034525 0.988337 1 0 1.000000
  0 -35.141338 -0.502366 16.898474 -0.212123 -0.924504 0.316695 0.028776 0.979138 1 0 1.000000
  0 -34.619911 -0.502366 17.116659 -0.074486 -0.924776 0.373150 0.035773 0.982065 1 0 1.000000
sign_frame02
  0 -34.712872 -0.025869 17.584000 -0.180323 -0.384794 0.905217 0.034525 0.988337 1 0 1.000000
  0 -35.396782 -0.025869 17.300714 -0.513294 -0.384178 0.767422 0.025348 0.984535 1 0 1.000000
  0 -35.141338 -0.502366 16.898474 -0.212123 -0.924504 0.316695 0.028776 0.979138 1 0 1.000000
sign_frame02
  0 -35.607380 -0.502366 16.432430 -0.316695 -0.924504 0.212123 0.022522 0.972884 1 0 1.000000
  0 -35.141338 -0.502366 16.898474 -0.212123 -0.924504 0.316695 0.028776 0.979138 1 0 1.000000
  0 -35.396782 -0.025869 17.300714 -0.513294 -0.384178 0.767422 0.025348 0.984535 1 0 1.000000
sign_frame02
  0 -35.607380 -0.502366 16.432430 -0.316695 -0.924504 0.212123 0.022522 0.972884 1 0 1.000000
  0 -35.396782 -0.025869 17.300714 -0.513294 -0.384178 0.767422 0.025348 0.984535 1 0 1.000000
  0 -36.009624 -0.025869 16.687874 -0.767422 -0.384178 0.513294 0.017125 0.976312 1 0 1.000000
sign_frame02
  0 -36.009624 -0.025869 16.687874 -0.767422 -0.384178 0.513294 0.017125 0.976312 1 0 1.000000
  0 -35.825565 -0.502366 15.911003 -0.373150 -0.924776 0.074486 0.019595 0.965887 1 0 1.000000
  0 -35.607380 -0.502366 16.432430 -0.316695 -0.924504 0.212123 0.022522 0.972884 1 0 1.000000
sign_frame02
  0 -36.009624 -0.025869 16.687874 -0.767422 -0.384178 0.513294 0.017125 0.976312 1 0 1.000000
  0 -36.292908 -0.025869 16.003963 -0.905217 -0.384794 0.180323 0.013324 0.967135 1 0 1.000000
  0 -35.825565 -0.502366 15.911003 -0.373150 -0.924776 0.074486 0.019595 0.965887 1 0 1.000000
sign_frame02
  0 -35.825565 -0.502365 -15.911003 -0.373150 -0.924776 -0.074486 0.019595 0.538880 1 0 1.000000
  0 -35.825565 -0.502366 15.911003 -0.373150 -0.924776 0.074486 0.019595 0.965887 1 0 1.000000
  0 -36.292908 -0.025869 16.003963 -0.905217 -0.384794 0.180323 0.013324 0.967135 1 0 1.000000
sign_frame02
  0 -35.825565 -0.502365 -15.911003 -0.373150 -0.924776 -0.074486 0.019595 0.538880 1 0 1.000000
  0 -36.292908 -0.025869 16.003963 -0.905217 -0.384794 0.180323 0.013324 0.967135 1 0 1.000000
  0 -36.292908 -0.025867 -16.003963 -0.905217 -0.384794 -0.180323 0.013324 0.537633 1 0 1.000000
sign_frame02
  0 -36.292908 -0.025867 -16.003963 -0.905217 -0.384794 -0.180323 0.013324 0.537633 1 0 1.000000
  0 -35.607380 -0.502364 -16.432430 -0.316695 -0.924504 -0.212123 0.022522 0.531884 1 0 1.000000
  0 -35.825565 -0.502365 -15.911003 -0.373150 -0.924776 -0.074486 0.019595 0.538880 1 0 1.000000
sign_frame02
  0 -36.292908 -0.025867 -16.003963 -0.905217 -0.384794 -0.180323 0.013324 0.537633 1 0 1.000000
  0 -36.009624 -0.025867 -16.687874 -0.767422 -0.384178 -0.513294 0.017125 0.528456 1 0 1.000000
  0 -35.607380 -0.502364 -16.432430 -0.316695 -0.924504 -0.212123 0.022522 0.531884 1 0 1.000000
sign_frame02
  0 -35.141338 -0.502364 -16.898474 -0.212123 -0.924504 -0.316695 0.028776 0.525630 1 0 1.000000
  0 -35.607380 -0.502364 -16.432430 -0.316695 -0.924504 -0.212123 0.022522 0.531884 1 0 1.000000
  0 -36.009624 -0.025867 -16.687874 -0.767422 -0.384178 -0.513294 0.017125 0.528456 1 0 1.000000
sign_frame02
  0 -35.141338 -0.502364 -16.898474 -0.212123 -0.924504 -0.316695 0.028776 0.525630 1 0 1.000000
  0 -36.009624 -0.025867 -16.687874 -0.767422 -0.384178 -0.513294 0.017125 0.528456 1 0 1.000000
  0 -35.396782 -0.025867 -17.300714 -0.513294 -0.384178 -0.767422 0.025348 0.520232 1 0 1.000000
sign_frame02
  0 -35.396782 -0.025867 -17.300714 -0.513294 -0.384178 -0.767422 0.025348 0.520232 1 0 1.000000
  0 -34.619911 -0.502364 -17.116659 -0.074486 -0.924776 -0.373151 0.035773 0.522702 1 0 1.000000
  0 -35.141338 -0.502364 -16.898474 -0.212123 -0.924504 -0.316695 0.028776 0.525630 1 0 1.000000
sign_frame02
  0 -35.396782 -0.025867 -17.300714 -0.513294 -0.384178 -0.767422 0.025348 0.520232 1 0 1.000000
  0 -34.712872 -0.025867 -17.584000 -0.180323 -0.384794 -0.905217 0.034525 0.516431 1 0 1.000000
  0 -34.619911 -0.502364 -17.116659 -0.074486 -0.924776 -0.373151 0.035773 0.522702 1 0 1.000000
sign_frame02
  0 -34.712872 -0.025867 -17.584000 -0.180323 -0.384794 -0.905217 0.034525 0.516431 1 0 1.000000
  0 -1.567619 -0.502363 -17.116659 0.000000 -0.922013 -0.387160 0.479288 0.522702 1 0 1.000000
  0 -34.619911 -0.502364 -17.116659 -0.074486 -0.924776 -0.373151 0.035773 0.522702 1 0 1.000000
sign_frame02
  0 -34.712872 -0.025867 -17.584000 -0.180323 -0.384794 -0.905217 0.034525 0.516431 1 0 1.000000
  0 -1.568642 -0.025866 -17.584000 0.000000 -0.378198 -0.925725 0.479275 0.516431 1 0 1.000000
  0 -1.567619 -0.502363 -17.116659 0.000000 -0.922013 -0.387160 0.479288 0.522702 1 0 1.000000
sign_frame02
  0 1.592162 -0.025866 -17.584000 0.000000 -0.378198 -0.925725 0.521688 0.516431 1 0 1.000000
  0 -1.567619 -0.502363 -17.116659 0.000000 -0.922013 -0.387160 0.479288 0.522702 1 0 1.000000
  0 -1.568642 -0.025866 -17.584000 0.000000 -0.378198 -0.925725 0.479275 0.516431 1 0 1.000000
sign_frame02
  0 -33.367378 -0.502366 14.175380 0.000000 -1.000000 0.000000 0.044054 0.954309 1 0 1.000000
  0 -35.825565 -0.502365 -15.911003 -0.373150 -0.924776 -0.074486 0.019595 0.538880 1 0 1.000000
  0 -33.367378 -0.502364 -14.175380 0.000000 -1.000000 0.000000 0.044054 0.550458 1 0 1.000000
sign_frame02
  0 -33.367378 -0.502366 14.175380 0.000000 -1.000000 0.000000 0.044054 0.954309 1 0 1.000000
  0 -35.825565 -0.502366 15.911003 -0.373150 -0.924776 0.074486 0.019595 0.965887 1 0 1.000000
  0 -35.825565 -0.502365 -15.911003 -0.373150 -0.924776 -0.074486 0.019595 0.538880 1 0 1.000000
sign_frame02
  0 -33.367378 -0.502364 -14.175380 0.000000 -1.000000 0.000000 0.044054 0.550458 1 0 1.000000
  0 -35.607380 -0.502364 -16.432430 -0.316695 -0.924504 -0.212123 0.022522 0.531884 1 0 1.000000
  0 -33.313084 -0.502364 -14.270147 0.000000 -1.000000 0.000000 0.044827 0.549108 1 0 1.000000
sign_frame02
  0 -33.367378 -0.502364 -14.175380 0.000000 -1.000000 0.000000 0.044054 0.550458 1 0 1.000000
  0 -35.825565 -0.502365 -15.911003 -0.373150 -0.924776 -0.074486 0.019595 0.538880 1 0 1.000000
  0 -35.607380 -0.502364 -16.432430 -0.316695 -0.924504 -0.212123 0.022522 0.531884 1 0 1.000000
sign_frame02
  0 -33.313084 -0.502364 -14.270147 0.000000 -1.000000 0.000000 0.044827 0.549108 1 0 1.000000
  0 -35.141338 -0.502364 -16.898474 -0.212123 -0.924504 -0.316695 0.028776 0.525630 1 0 1.000000
  0 -33.230709 -0.502364 -14.352522 0.000000 -1.000000 0.000000 0.046001 0.547935 1 0 1.000000
sign_frame02
  0 -33.313084 -0.502364 -14.270147 0.000000 -1.000000 0.000000 0.044827 0.549108 1 0 1.000000
  0 -35.607380 -0.502364 -16.432430 -0.316695 -0.924504 -0.212123 0.022522 0.531884 1 0 1.000000
  0 -35.141338 -0.502364 -16.898474 -0.212123 -0.924504 -0.316695 0.028776 0.525630 1 0 1.000000
sign_frame02
  0 -33.230709 -0.502364 -14.352522 0.000000 -1.000000 0.000000 0.046001 0.547935 1 0 1.000000
  0 -34.619911 -0.502364 -17.116659 -0.074486 -0.924776 -0.373151 0.035773 0.522702 1 0 1.000000
  0 -33.135941 -0.502364 -14.406816 0.000000 -1.000000 0.000000 0.047351 0.547162 1 0 1.000000
sign_frame02
  0 -33.230709 -0.502364 -14.352522 0.000000 -1.000000 0.000000 0.046001 0.547935 1 0 1.000000
  0 -35.141338 -0.502364 -16.898474 -0.212123 -0.924504 -0.316695 0.028776 0.525630 1 0 1.000000
  0 -34.619911 -0.502364 -17.116659 -0.074486 -0.924776 -0.373151 0.035773 0.522702 1 0 1.000000
sign_frame02
  0 -34.619911 -0.502364 -17.116659 -0.074486 -0.924776 -0.373151 0.035773 0.522702 1 0 1.000000
  0 -1.567619 -0.502363 -17.116659 0.000000 -0.922013 -0.387160 0.479288 0.522702 1 0 1.000000
  0 -2.772225 -0.502363 -14.406816 0.000000 -1.000000 0.000000 0.479876 0.547162 1 0 1.000000
sign_frame02
  0 -34.619911 -0.502364 -17.116659 -0.074486 -0.924776 -0.373151 0.035773 0.522702 1 0 1.000000
  0 -2.772225 -0.502363 -14.406816 0.000000 -1.000000 0.000000 0.479876 0.547162 1 0 1.000000
  0 -33.135941 -0.502364 -14.406816 0.000000 -1.000000 0.000000 0.047351 0.547162 1 0 1.000000
sign_frame02
  0 35.607380 -0.502361 -16.432430 0.316695 -0.924504 -0.212123 0.978125 0.531884 1 0 1.000000
  0 35.141338 -0.502361 -16.898474 0.212123 -0.924504 -0.316695 0.971871 0.525630 1 0 1.000000
  0 35.396782 -0.025864 -17.300714 0.513294 -0.384177 -0.767422 0.975299 0.520232 1 0 1.000000
sign_frame02
  0 34.712872 -0.025864 -17.584000 0.180323 -0.384794 -0.905217 0.966122 0.516431 1 0 1.000000
  0 35.396782 -0.025864 -17.300714 0.513294 -0.384177 -0.767422 0.975299 0.520232 1 0 1.000000
  0 35.141338 -0.502361 -16.898474 0.212123 -0.924504 -0.316695 0.971871 0.525630 1 0 1.000000
sign_frame02
  0 34.712872 -0.025864 -17.584000 0.180323 -0.384794 -0.905217 0.966122 0.516431 1 0 1.000000
  0 35.141338 -0.502361 -16.898474 0.212123 -0.924504 -0.316695 0.971871 0.525630 1 0 1.000000
  0 34.619911 -0.502361 -17.116659 0.074486 -0.924776 -0.373151 0.964874 0.522702 1 0 1.000000
sign_frame02
  0 34.619911 -0.502361 -17.116659 0.074486 -0.924776 -0.373151 0.964874 0.522702 1 0 1.000000
  0 1.592162 -0.025866 -17.584000 0.000000 -0.378198 -0.925725 0.521688 0.516431 1 0 1.000000
  0 34.712872 -0.025864 -17.584000 0.180323 -0.384794 -0.905217 0.966122 0.516431 1 0 1.000000
sign_frame02
  0 34.619911 -0.502361 -17.116659 0.074486 -0.924776 -0.373151 0.964874 0.522702 1 0 1.000000
  0 1.591075 -0.502363 -17.116659 0.000000 -0.922013 -0.387160 0.521674 0.522702 1 0 1.000000
  0 1.592162 -0.025866 -17.584000 0.000000 -0.378198 -0.925725 0.521688 0.516431 1 0 1.000000
sign_frame02
  0 1.592162 -0.025866 -17.584000 0.000000 -0.378198 -0.925725 0.521688 0.516431 1 0 1.000000
  0 1.591075 -0.502363 -17.116659 0.000000 -0.922013 -0.387160 0.521674 0.522702 1 0 1.000000
  0 -1.567619 -0.502363 -17.116659 0.000000 -0.922013 -0.387160 0.479288 0.522702 1 0 1.000000
sign_frame02
  0 1.591075 -0.502363 -17.116659 0.000000 -0.922013 -0.387160 0.521674 0.522702 1 0 1.000000
  0 -2.772225 -0.502363 -14.406816 0.000000 -1.000000 0.000000 0.479876 0.547162 1 0 1.000000
  0 -1.567619 -0.502363 -17.116659 0.000000 -0.922013 -0.387160 0.479288 0.522702 1 0 1.000000
sign_frame02
  0 1.591075 -0.502363 -17.116659 0.000000 -0.922013 -0.387160 0.521674 0.522702 1 0 1.000000
  0 2.772225 -0.502363 -14.406816 0.000000 -1.000000 0.000000 0.520771 0.547162 1 0 1.000000
  0 -2.772225 -0.502363 -14.406816 0.000000 -1.000000 0.000000 0.479876 0.547162 1 0 1.000000
sign_frame02
  0 2.772225 -0.502363 -14.406816 0.000000 -1.000000 0.000000 0.520771 0.547162 1 0 1.000000
  0 34.619911 -0.502361 -17.116659 0.074486 -0.924776 -0.373151 0.964874 0.522702 1 0 1.000000
  0 33.135941 -0.502362 -14.406816 0.000000 -1.000000 0.000000 0.953296 0.547162 1 0 1.000000
sign_frame02
  0 2.772225 -0.502363 -14.406816 0.000000 -1.000000 0.000000 0.520771 0.547162 1 0 1.000000
  0 1.591075 -0.502363 -17.116659 0.000000 -0.922013 -0.387160 0.521674 0.522702 1 0 1.000000
  0 34.619911 -0.502361 -17.116659 0.074486 -0.924776 -0.373151 0.964874 0.522702 1 0 1.000000
sign_frame02
  0 33.230709 -0.502362 -14.352522 0.000000 -1.000000 0.000000 0.954646 0.547935 1 0 1.000000
  0 35.607380 -0.502361 -16.432430 0.316695 -0.924504 -0.212123 0.978125 0.531884 1 0 1.000000
  0 33.313084 -0.502362 -14.270147 0.000000 -1.000000 0.000000 0.955820 0.549108 1 0 1.000000
sign_frame02
  0 33.230709 -0.502362 -14.352522 0.000000 -1.000000 0.000000 0.954646 0.547935 1 0 1.000000
  0 35.141338 -0.502361 -16.898474 0.212123 -0.924504 -0.316695 0.971871 0.525630 1 0 1.000000
  0 35.607380 -0.502361 -16.432430 0.316695 -0.924504 -0.212123 0.978125 0.531884 1 0 1.000000
sign_frame02
  0 33.135941 -0.502362 -14.406816 0.000000 -1.000000 0.000000 0.953296 0.547162 1 0 1.000000
  0 35.141338 -0.502361 -16.898474 0.212123 -0.924504 -0.316695 0.971871 0.525630 1 0 1.000000
  0 33.230709 -0.502362 -14.352522 0.000000 -1.000000 0.000000 0.954646 0.547935 1 0 1.000000
sign_frame02
  0 33.135941 -0.502362 -14.406816 0.000000 -1.000000 0.000000 0.953296 0.547162 1 0 1.000000
  0 34.619911 -0.502361 -17.116659 0.074486 -0.924776 -0.373151 0.964874 0.522702 1 0 1.000000
  0 35.141338 -0.502361 -16.898474 0.212123 -0.924504 -0.316695 0.971871 0.525630 1 0 1.000000
sign_frame02
  0 33.313084 -0.502362 -14.270147 0.000000 -1.000000 0.000000 0.955820 0.549108 1 0 1.000000
  0 35.825565 -0.502361 -15.911003 0.373151 -0.924776 -0.074486 0.981053 0.538880 1 0 1.000000
  0 33.367378 -0.502362 -14.175380 0.000000 -1.000000 0.000000 0.956593 0.550458 1 0 1.000000
sign_frame02
  0 33.313084 -0.502362 -14.270147 0.000000 -1.000000 0.000000 0.955820 0.549108 1 0 1.000000
  0 35.607380 -0.502361 -16.432430 0.316695 -0.924504 -0.212123 0.978125 0.531884 1 0 1.000000
  0 35.825565 -0.502361 -15.911003 0.373151 -0.924776 -0.074486 0.981053 0.538880 1 0 1.000000
sign_frame02
  0 33.367378 -0.502362 -14.175380 0.000000 -1.000000 0.000000 0.956593 0.550458 1 0 1.000000
  0 35.825565 -0.502363 15.911003 0.373151 -0.924776 0.074486 0.981053 0.965887 1 0 1.000000
  0 33.367378 -0.502363 14.175380 0.000000 -1.000000 0.000000 0.956593 0.954309 1 0 1.000000
sign_frame02
  0 33.367378 -0.502362 -14.175380 0.000000 -1.000000 0.000000 0.956593 0.550458 1 0 1.000000
  0 35.825565 -0.502361 -15.911003 0.373151 -0.924776 -0.074486 0.981053 0.538880 1 0 1.000000
  0 35.825565 -0.502363 15.911003 0.373151 -0.924776 0.074486 0.981053 0.965887 1 0 1.000000
sign_frame02
  0 33.367378 -0.502363 14.175380 0.000000 -1.000000 0.000000 0.956593 0.954309 1 0 1.000000
  0 35.607380 -0.502363 16.432430 0.316695 -0.924504 0.212123 0.978125 0.972884 1 0 1.000000
  0 33.313084 -0.502363 14.270147 0.000000 -1.000000 0.000000 0.955820 0.955659 1 0 1.000000
sign_frame02
  0 33.367378 -0.502363 14.175380 0.000000 -1.000000 0.000000 0.956593 0.954309 1 0 1.000000
  0 35.825565 -0.502363 15.911003 0.373151 -0.924776 0.074486 0.981053 0.965887 1 0 1.000000
  0 35.607380 -0.502363 16.432430 0.316695 -0.924504 0.212123 0.978125 0.972884 1 0 1.000000
sign_frame02
  0 33.313084 -0.502363 14.270147 0.000000 -1.000000 0.000000 0.955820 0.955659 1 0 1.000000
  0 35.141338 -0.502363 16.898474 0.212123 -0.924504 0.316695 0.971871 0.979138 1 0 1.000000
  0 33.230709 -0.502363 14.352522 0.000000 -1.000000 0.000000 0.954646 0.956833 1 0 1.000000
sign_frame02
  0 33.313084 -0.502363 14.270147 0.000000 -1.000000 0.000000 0.955820 0.955659 1 0 1.000000
  0 35.607380 -0.502363 16.432430 0.316695 -0.924504 0.212123 0.978125 0.972884 1 0 1.000000
  0 35.141338 -0.502363 16.898474 0.212123 -0.924504 0.316695 0.971871 0.979138 1 0 1.000000
sign_frame02
  0 -2.772225 -0.502364 14.406816 0.000000 -1.000000 0.000000 0.479876 0.957606 1 0 1.000000
  0 -34.619911 -0.502366 17.116659 -0.074486 -0.924776 0.373150 0.035773 0.982065 1 0 1.000000
  0 -33.135941 -0.502366 14.406816 0.000000 -1.000000 0.000000 0.047351 0.957606 1 0 1.000000
sign_frame02
  0 -2.772225 -0.502364 14.406816 0.000000 -1.000000 0.000000 0.479876 0.957606 1 0 1.000000
  0 -1.567619 -0.502364 17.116659 0.000000 -0.922013 0.387160 0.479288 0.982065 1 0 1.000000
  0 -34.619911 -0.502366 17.116659 -0.074486 -0.924776 0.373150 0.035773 0.982065 1 0 1.000000
sign_frame02
  0 -34.619911 -0.502366 17.116659 -0.074486 -0.924776 0.373150 0.035773 0.982065 1 0 1.000000
  0 -1.567619 -0.502364 17.116659 0.000000 -0.922013 0.387160 0.479288 0.982065 1 0 1.000000
  0 -1.568642 -0.025867 17.584000 0.000000 -0.378198 0.925725 0.479275 0.988337 1 0 1.000000
sign_frame02
  0 1.591075 -0.502364 17.116659 0.000000 -0.922013 0.387160 0.521674 0.982065 1 0 1.000000
  0 -1.568642 -0.025867 17.584000 0.000000 -0.378198 0.925725 0.479275 0.988337 1 0 1.000000
  0 -1.567619 -0.502364 17.116659 0.000000 -0.922013 0.387160 0.479288 0.982065 1 0 1.000000
sign_frame02
  0 1.591075 -0.502364 17.116659 0.000000 -0.922013 0.387160 0.521674 0.982065 1 0 1.000000
  0 1.592162 -0.025867 17.584000 0.000000 -0.378198 0.925725 0.521688 0.988337 1 0 1.000000
  0 -1.568642 -0.025867 17.584000 0.000000 -0.378198 0.925725 0.479275 0.988337 1 0 1.000000
sign_frame02
  0 34.712872 -0.025866 17.584000 0.180323 -0.384794 0.905217 0.966122 0.988337 1 0 1.000000
  0 1.592162 -0.025867 17.584000 0.000000 -0.378198 0.925725 0.521688 0.988337 1 0 1.000000
  0 1.591075 -0.502364 17.116659 0.000000 -0.922013 0.387160 0.521674 0.982065 1 0 1.000000
sign_frame02
  0 34.712872 -0.025866 17.584000 0.180323 -0.384794 0.905217 0.966122 0.988337 1 0 1.000000
  0 1.591075 -0.502364 17.116659 0.000000 -0.922013 0.387160 0.521674 0.982065 1 0 1.000000
  0 34.619911 -0.502363 17.116659 0.074486 -0.924776 0.373150 0.964874 0.982065 1 0 1.000000
sign_frame02
  0 35.396782 -0.025866 17.300714 0.513294 -0.384178 0.767422 0.975299 0.984535 1 0 1.000000
  0 34.712872 -0.025866 17.584000 0.180323 -0.384794 0.905217 0.966122 0.988337 1 0 1.000000
  0 34.619911 -0.502363 17.116659 0.074486 -0.924776 0.373150 0.964874 0.982065 1 0 1.000000
sign_frame02
  0 35.396782 -0.025866 17.300714 0.513294 -0.384178 0.767422 0.975299 0.984535 1 0 1.000000
  0 34.619911 -0.502363 17.116659 0.074486 -0.924776 0.373150 0.964874 0.982065 1 0 1.000000
  0 35.141338 -0.502363 16.898474 0.212123 -0.924504 0.316695 0.971871 0.979138 1 0 1.000000
sign_frame02
  0 35.141338 -0.502363 16.898474 0.212123 -0.924504 0.316695 0.971871 0.979138 1 0 1.000000
  0 36.009624 -0.025866 16.687874 0.767422 -0.384178 0.513294 0.983522 0.976312 1 0 1.000000
  0 35.396782 -0.025866 17.300714 0.513294 -0.384178 0.767422 0.975299 0.984535 1 0 1.000000
sign_frame02
  0 35.141338 -0.502363 16.898474 0.212123 -0.924504 0.316695 0.971871 0.979138 1 0 1.000000
  0 35.607380 -0.502363 16.432430 0.316695 -0.924504 0.212123 0.978125 0.972884 1 0 1.000000
  0 36.009624 -0.025866 16.687874 0.767422 -0.384178 0.513294 0.983522 0.976312 1 0 1.000000
sign_frame02
  0 36.292908 -0.025866 16.003963 0.905217 -0.384794 0.180323 0.987324 0.967135 1 0 1.000000
  0 36.009624 -0.025866 16.687874 0.767422 -0.384178 0.513294 0.983522 0.976312 1 0 1.000000
  0 35.607380 -0.502363 16.432430 0.316695 -0.924504 0.212123 0.978125 0.972884 1 0 1.000000
sign_frame02
  0 36.292908 -0.025866 16.003963 0.905217 -0.384794 0.180323 0.987324 0.967135 1 0 1.000000
  0 35.607380 -0.502363 16.432430 0.316695 -0.924504 0.212123 0.978125 0.972884 1 0 1.000000
  0 35.825565 -0.502363 15.911003 0.373151 -0.924776 0.074486 0.981053 0.965887 1 0 1.000000
sign_frame02
  0 35.825565 -0.502363 15.911003 0.373151 -0.924776 0.074486 0.981053 0.965887 1 0 1.000000
  0 36.292908 -0.025864 -16.003963 0.905217 -0.384794 -0.180323 0.987324 0.537633 1 0 1.000000
  0 36.292908 -0.025866 16.003963 0.905217 -0.384794 0.180323 0.987324 0.967135 1 0 1.000000
sign_frame02
  0 35.825565 -0.502363 15.911003 0.373151 -0.924776 0.074486 0.981053 0.965887 1 0 1.000000
  0 35.825565 -0.502361 -15.911003 0.373151 -0.924776 -0.074486 0.981053 0.538880 1 0 1.000000
  0 36.292908 -0.025864 -16.003963 0.905217 -0.384794 -0.180323 0.987324 0.537633 1 0 1.000000
sign_frame02
  0 36.009624 -0.025864 -16.687874 0.767422 -0.384177 -0.513294 0.983522 0.528456 1 0 1.000000
  0 36.292908 -0.025864 -16.003963 0.905217 -0.384794 -0.180323 0.987324 0.537633 1 0 1.000000
  0 35.825565 -0.502361 -15.911003 0.373151 -0.924776 -0.074486 0.981053 0.538880 1 0 1.000000
sign_frame02
  0 36.009624 -0.025864 -16.687874 0.767422 -0.384177 -0.513294 0.983522 0.528456 1 0 1.000000
  0 35.825565 -0.502361 -15.911003 0.373151 -0.924776 -0.074486 0.981053 0.538880 1 0 1.000000
  0 35.607380 -0.502361 -16.432430 0.316695 -0.924504 -0.212123 0.978125 0.531884 1 0 1.000000
sign_frame02
  0 35.607380 -0.502361 -16.432430 0.316695 -0.924504 -0.212123 0.978125 0.531884 1 0 1.000000
  0 35.396782 -0.025864 -17.300714 0.513294 -0.384177 -0.767422 0.975299 0.520232 1 0 1.000000
  0 36.009624 -0.025864 -16.687874 0.767422 -0.384177 -0.513294 0.983522 0.528456 1 0 1.000000
sign_frame02
  0 34.619911 -0.502363 17.116659 0.074486 -0.924776 0.373150 0.964874 0.982065 1 0 1.000000
  0 2.772225 -0.502364 14.406816 0.000000 -1.000000 0.000000 0.520771 0.957606 1 0 1.000000
  0 33.135941 -0.502363 14.406816 0.000000 -1.000000 0.000000 0.953296 0.957606 1 0 1.000000
sign_frame02
  0 34.619911 -0.502363 17.116659 0.074486 -0.924776 0.373150 0.964874 0.982065 1 0 1.000000
  0 1.591075 -0.502364 17.116659 0.000000 -0.922013 0.387160 0.521674 0.982065 1 0 1.000000
  0 2.772225 -0.502364 14.406816 0.000000 -1.000000 0.000000 0.520771 0.957606 1 0 1.000000
sign_frame02
  0 -1.567619 -0.502364 17.116659 0.000000 -0.922013 0.387160 0.479288 0.982065 1 0 1.000000
  0 2.772225 -0.502364 14.406816 0.000000 -1.000000 0.000000 0.520771 0.957606 1 0 1.000000
  0 1.591075 -0.502364 17.116659 0.000000 -0.922013 0.387160 0.521674 0.982065 1 0 1.000000
sign_frame02
  0 -1.567619 -0.502364 17.116659 0.000000 -0.922013 0.387160 0.479288 0.982065 1 0 1.000000
  0 -2.772225 -0.502364 14.406816 0.000000 -1.000000 0.000000 0.479876 0.957606 1 0 1.000000
  0 2.772225 -0.502364 14.406816 0.000000 -1.000000 0.000000 0.520771 0.957606 1 0 1.000000
sign_frame02
  0 33.230709 -0.502363 14.352522 0.000000 -1.000000 0.000000 0.954646 0.956833 1 0 1.000000
  0 34.619911 -0.502363 17.116659 0.074486 -0.924776 0.373150 0.964874 0.982065 1 0 1.000000
  0 33.135941 -0.502363 14.406816 0.000000 -1.000000 0.000000 0.953296 0.957606 1 0 1.000000
sign_frame02
  0 33.230709 -0.502363 14.352522 0.000000 -1.000000 0.000000 0.954646 0.956833 1 0 1.000000
  0 35.141338 -0.502363 16.898474 0.212123 -0.924504 0.316695 0.971871 0.979138 1 0 1.000000
  0 34.619911 -0.502363 17.116659 0.074486 -0.924776 0.373150 0.964874 0.982065 1 0 1.000000
sign_frame02
  0 36.009624 3.850243 -16.687874 0.831469 0.000000 -0.555570 0.022756 0.380515 1 0 1.000000
  0 36.292908 3.850243 -16.003963 0.980785 0.000000 -0.195090 0.013027 0.380507 1 0 1.000000
  0 36.292908 -0.025864 -16.003963 0.905217 -0.384794 -0.180323 0.013057 0.304710 1 0 1.000000
sign_frame02
  0 36.009624 3.850243 -16.687874 0.831469 0.000000 -0.555570 0.022756 0.380515 1 0 1.000000
  0 36.292908 -0.025864 -16.003963 0.905217 -0.384794 -0.180323 0.013057 0.304710 1 0 1.000000
  0 36.009624 -0.025864 -16.687874 0.767422 -0.384177 -0.513294 0.022776 0.304716 1 0 1.000000
sign_frame02
  0 36.009624 -0.025864 -16.687874 0.767422 -0.384177 -0.513294 0.022776 0.304716 1 0 1.000000
  0 35.396782 3.850243 -17.300714 0.555570 0.000000 -0.831469 0.034150 0.380524 1 0 1.000000
  0 36.009624 3.850243 -16.687874 0.831469 0.000000 -0.555570 0.022756 0.380515 1 0 1.000000
sign_frame02
  0 36.009624 -0.025864 -16.687874 0.767422 -0.384177 -0.513294 0.022776 0.304716 1 0 1.000000
  0 35.396782 -0.025864 -17.300714 0.513294 -0.384177 -0.767422 0.034157 0.304716 1 0 1.000000
  0 35.396782 3.850243 -17.300714 0.555570 0.000000 -0.831469 0.034150 0.380524 1 0 1.000000
sign_frame02
  0 34.712872 3.850243 -17.584000 0.195090 0.000000 -0.980785 0.043883 0.380530 1 0 1.000000
  0 35.396782 3.850243 -17.300714 0.555570 0.000000 -0.831469 0.034150 0.380524 1 0 1.000000
  0 35.396782 -0.025864 -17.300714 0.513294 -0.384177 -0.767422 0.034157 0.304716 1 0 1.000000
sign_frame02
  0 34.712872 3.850243 -17.584000 0.195090 0.000000 -0.980785 0.043883 0.380530 1 0 1.000000
  0 35.396782 -0.025864 -17.300714 0.513294 -0.384177 -0.767422 0.034157 0.304716 1 0 1.000000
  0 34.712872 -0.025864 -17.584000 0.180323 -0.384794 -0.905217 0.043882 0.304712 1 0 1.000000
sign_frame02
  0 34.712872 -0.025864 -17.584000 0.180323 -0.384794 -0.905217 0.043882 0.304712 1 0 1.000000
  0 1.592162 3.850242 -17.584000 0.000000 0.000000 -1.000000 0.479282 0.380474 1 0 1.000000
  0 34.712872 3.850243 -17.584000 0.195090 0.000000 -0.980785 0.043883 0.380530 1 0 1.000000
sign_frame02
  0 34.712872 -0.025864 -17.584000 0.180323 -0.384794 -0.905217 0.043882 0.304712 1 0 1.000000
  0 1.592162 -0.025866 -17.584000 0.000000 -0.378198 -0.925725 0.479279 0.304659 1 0 1.000000
  0 1.592162 3.850242 -17.584000 0.000000 0.000000 -1.000000 0.479282 0.380474 1 0 1.000000
sign_frame02
  0 -1.568642 -0.025866 -17.584000 0.000000 -0.378198 -0.925725 0.520816 0.304685 1 0 1.000000
  0 1.592162 3.850242 -17.584000 0.000000 0.000000 -1.000000 0.479282 0.380474 1 0 1.000000
  0 1.592162 -0.025866 -17.584000 0.000000 -0.378198 -0.925725 0.479279 0.304659 1 0 1.000000
sign_frame02
  0 -1.568642 -0.025866 -17.584000 0.000000 -0.378198 -0.925725 0.520816 0.304685 1 0 1.000000
  0 -1.568642 3.850241 -17.584000 0.000000 0.000000 -1.000000 0.520813 0.380449 1 0 1.000000
  0 1.592162 3.850242 -17.584000 0.000000 0.000000 -1.000000 0.479282 0.380474 1 0 1.000000
sign_frame02
  0 -34.712872 -0.025867 -17.584000 -0.180323 -0.384794 -0.905217 0.956168 0.304747 1 0 1.000000
  0 -1.568642 3.850241 -17.584000 0.000000 0.000000 -1.000000 0.520813 0.380449 1 0 1.000000
  0 -1.568642 -0.025866 -17.584000 0.000000 -0.378198 -0.925725 0.520816 0.304685 1 0 1.000000
sign_frame02
  0 -34.712872 -0.025867 -17.584000 -0.180323 -0.384794 -0.905217 0.956168 0.304747 1 0 1.000000
  0 -34.712872 3.850240 -17.584000 -0.195090 0.000000 -0.980785 0.956166 0.380509 1 0 1.000000
  0 -1.568642 3.850241 -17.584000 0.000000 0.000000 -1.000000 0.520813 0.380449 1 0 1.000000
sign_frame02
  0 -35.396782 3.850240 -17.300714 -0.555570 0.000000 -0.831469 0.965896 0.380513 1 0 1.000000
  0 -34.712872 3.850240 -17.584000 -0.195090 0.000000 -0.980785 0.956166 0.380509 1 0 1.000000
  0 -34.712872 -0.025867 -17.584000 -0.180323 -0.384794 -0.905217 0.956168 0.304747 1 0 1.000000
sign_frame02
  0 -35.396782 3.850240 -17.300714 -0.555570 0.000000 -0.831469 0.965896 0.380513 1 0 1.000000
  0 -34.712872 -0.025867 -17.584000 -0.180323 -0.384794 -0.905217 0.956168 0.304747 1 0 1.000000
  0 -35.396782 -0.025867 -17.300714 -0.513294 -0.384178 -0.767422 0.965889 0.304742 1 0 1.000000
sign_frame02
  0 -35.396782 -0.025867 -17.300714 -0.513294 -0.384178 -0.767422 0.965889 0.304742 1 0 1.000000
  0 -36.009624 3.850240 -16.687874 -0.831469 0.000000 -0.555570 0.977292 0.380512 1 0 1.000000
  0 -35.396782 3.850240 -17.300714 -0.555570 0.000000 -0.831469 0.965896 0.380513 1 0 1.000000
sign_frame02
  0 -35.396782 -0.025867 -17.300714 -0.513294 -0.384178 -0.767422 0.965889 0.304742 1 0 1.000000
  0 -36.009624 -0.025867 -16.687874 -0.767422 -0.384178 -0.513294 0.977272 0.304733 1 0 1.000000
  0 -36.009624 3.850240 -16.687874 -0.831469 0.000000 -0.555570 0.977292 0.380512 1 0 1.000000
sign_frame02
  0 -36.292908 3.850240 -16.003963 -0.980785 0.000000 -0.195090 0.987027 0.380507 1 0 1.000000
  0 -36.009624 3.850240 -16.687874 -0.831469 0.000000 -0.555570 0.977292 0.380512 1 0 1.000000
  0 -36.009624 -0.025867 -16.687874 -0.767422 -0.384178 -0.513294 0.977272 0.304733 1 0 1.000000
sign_frame02
  0 -36.292908 3.850240 -16.003963 -0.980785 0.000000 -0.195090 0.987027 0.380507 1 0 1.000000
  0 -36.009624 -0.025867 -16.687874 -0.767422 -0.384178 -0.513294 0.977272 0.304733 1 0 1.000000
  0 -36.292908 -0.025867 -16.003963 -0.905217 -0.384794 -0.180323 0.986998 0.304725 1 0 1.000000
sign_frame02
  0 33.135941 -0.502362 -14.406816 -0.257211 0.000000 0.966355 0.243664 0.208635 1 0 1.000000
  0 2.772225 3.838308 -14.406816 0.382683 0.000000 0.923879 0.028912 0.280307 1 0 1.000000
  0 2.772225 -0.502363 -14.406816 0.382683 0.000000 0.923879 0.028912 0.208635 1 0 1.000000
sign_frame02
  0 33.135941 -0.502362 -14.406816 -0.257211 0.000000 0.966355 0.243664 0.208635 1 0 1.000000
  0 33.135941 3.838310 -14.406816 -0.257211 0.000000 0.966355 0.243664 0.280307 1 0 1.000000
  0 2.772225 3.838308 -14.406816 0.382683 0.000000 0.923879 0.028912 0.280307 1 0 1.000000
sign_frame02
  0 2.772225 3.838308 -14.406816 0.382683 0.000000 0.923879 0.028912 0.280307 1 0 1.000000
  0 2.467169 3.838308 -14.101761 0.923879 0.000000 0.382683 0.025860 0.280307 1 0 1.000000
  0 2.467170 -0.502363 -14.101761 0.923879 0.000000 0.382683 0.025860 0.208635 1 0 1.000000
sign_frame02
  0 2.772225 3.838308 -14.406816 0.382683 0.000000 0.923879 0.028912 0.280307 1 0 1.000000
  0 2.467170 -0.502363 -14.101761 0.923879 0.000000 0.382683 0.025860 0.208635 1 0 1.000000
  0 2.772225 -0.502363 -14.406816 0.382683 0.000000 0.923879 0.028912 0.208635 1 0 1.000000
sign_frame02
  0 33.230709 -0.502362 -14.352522 -0.607440 0.000000 0.794365 0.244437 0.208635 1 0 1.000000
  0 33.135941 3.838310 -14.406816 -0.257211 0.000000 0.966355 0.243664 0.280307 1 0 1.000000
  0 33.135941 -0.502362 -14.406816 -0.257211 0.000000 0.966355 0.243664 0.208635 1 0 1.000000
sign_frame02
  0 33.230709 -0.502362 -14.352522 -0.607440 0.000000 0.794365 0.244437 0.208635 1 0 1.000000
  0 33.230709 3.838310 -14.352522 -0.607440 0.000000 0.794365 0.244437 0.280307 1 0 1.000000
  0 33.135941 3.838310 -14.406816 -0.257211 0.000000 0.966355 0.243664 0.280307 1 0 1.000000
sign_frame02
  0 33.313084 -0.502362 -14.270147 -0.794365 0.000000 0.607440 0.245261 0.208635 1 0 1.000000
  0 33.230709 3.838310 -14.352522 -0.607440 0.000000 0.794365 0.244437 0.280307 1 0 1.000000
  0 33.230709 -0.502362 -14.352522 -0.607440 0.000000 0.794365 0.244437 0.208635 1 0 1.000000
sign_frame02
  0 33.313084 -0.502362 -14.270147 -0.794365 0.000000 0.607440 0.245261 0.208635 1 0 1.000000
  0 33.313084 3.838310 -14.270147 -0.794365 0.000000 0.607440 0.245261 0.280307 1 0 1.000000
  0 33.230709 3.838310 -14.352522 -0.607440 0.000000 0.794365 0.244437 0.280307 1 0 1.000000
sign_frame02
  0 33.367378 -0.502362 -14.175380 -0.966355 0.000000 0.257211 0.246033 0.208635 1 0 1.000000
  0 33.313084 3.838310 -14.270147 -0.794365 0.000000 0.607440 0.245261 0.280307 1 0 1.000000
  0 33.313084 -0.502362 -14.270147 -0.794365 0.000000 0.607440 0.245261 0.208635 1 0 1.000000
sign_frame02
  0 33.367378 -0.502362 -14.175380 -0.966355 0.000000 0.257211 0.246033 0.208635 1 0 1.000000
  0 33.367378 3.838310 -14.175380 -0.966355 0.000000 0.257211 0.246033 0.280307 1 0 1.000000
  0 33.313084 3.838310 -14.270147 -0.794365 0.000000 0.607440 0.245261 0.280307 1 0 1.000000
sign_frame02
  0 33.367378 -0.502363 14.175380 -0.966355 0.000000 -0.257211 0.446549 0.208635 1 0 1.000000
  0 33.367378 3.838310 -14.175380 -0.966355 0.000000 0.257211 0.246033 0.280307 1 0 1.000000
  0 33.367378 -0.502362 -14.175380 -0.966355 0.000000 0.257211 0.246033 0.208635 1 0 1.000000
sign_frame02
  0 33.367378 -0.502363 14.175380 -0.966355 0.000000 -0.257211 0.446549 0.208635 1 0 1.000000
  0 33.367378 3.838308 14.175380 -0.966355 0.000000 -0.257211 0.446549 0.280307 1 0 1.000000
  0 33.367378 3.838310 -14.175380 -0.966355 0.000000 0.257211 0.246033 0.280307 1 0 1.000000
sign_frame02
  0 33.313084 -0.502363 14.270147 -0.794365 0.000000 -0.607440 0.447322 0.208635 1 0 1.000000
  0 33.367378 3.838308 14.175380 -0.966355 0.000000 -0.257211 0.446549 0.280307 1 0 1.000000
  0 33.367378 -0.502363 14.175380 -0.966355 0.000000 -0.257211 0.446549 0.208635 1 0 1.000000
sign_frame02
  0 33.313084 -0.502363 14.270147 -0.794365 0.000000 -0.607440 0.447322 0.208635 1 0 1.000000
  0 33.313084 3.838308 14.270147 -0.794365 0.000000 -0.607440 0.447322 0.280307 1 0 1.000000
  0 33.367378 3.838308 14.175380 -0.966355 0.000000 -0.257211 0.446549 0.280307 1 0 1.000000
sign_frame02
  0 33.230709 -0.502363 14.352522 -0.607440 0.000000 -0.794365 0.448146 0.208635 1 0 1.000000
  0 33.313084 3.838308 14.270147 -0.794365 0.000000 -0.607440 0.447322 0.280307 1 0 1.000000
  0 33.313084 -0.502363 14.270147 -0.794365 0.000000 -0.607440 0.447322 0.208635 1 0 1.000000
sign_frame02
  0 33.230709 -0.502363 14.352522 -0.607440 0.000000 -0.794365 0.448146 0.208635 1 0 1.000000
  0 33.230709 3.838308 14.352522 -0.607440 0.000000 -0.794365 0.448146 0.280307 1 0 1.000000
  0 33.313084 3.838308 14.270147 -0.794365 0.000000 -0.607440 0.447322 0.280307 1 0 1.000000
sign_frame02
  0 33.135941 -0.502363 14.406816 -0.257211 0.000000 -0.966355 0.448918 0.208635 1 0 1.000000
  0 33.230709 3.838308 14.352522 -0.607440 0.000000 -0.794365 0.448146 0.280307 1 0 1.000000
  0 33.230709 -0.502363 14.352522 -0.607440 0.000000 -0.794365 0.448146 0.208635 1 0 1.000000
sign_frame02
  0 33.135941 -0.502363 14.406816 -0.257211 0.000000 -0.966355 0.448918 0.208635 1 0 1.000000
  0 33.135941 3.838308 14.406816 -0.257211 0.000000 -0.966355 0.448918 0.280307 1 0 1.000000
  0 33.230709 3.838308 14.352522 -0.607440 0.000000 -0.794365 0.448146 0.280307 1 0 1.000000
sign_frame02
  0 2.772225 -0.502364 14.406816 0.382683 0.000000 -0.923879 0.663671 0.208635 1 0 1.000000
  0 33.135941 3.838308 14.406816 -0.257211 0.000000 -0.966355 0.448918 0.280307 1 0 1.000000
  0 33.135941 -0.502363 14.406816 -0.257211 0.000000 -0.966355 0.448918 0.208635 1 0 1.000000
sign_frame02
  0 2.772225 -0.502364 14.406816 0.382683 0.000000 -0.923879 0.663671 0.208635 1 0 1.000000
  0 2.772225 3.838307 14.406816 0.382683 0.000000 -0.923879 0.663671 0.280307 1 0 1.000000
  0 33.135941 3.838308 14.406816 -0.257211 0.000000 -0.966355 0.448918 0.280307 1 0 1.000000
sign_frame02
  0 2.467169 3.838307 14.101761 0.923879 0.000000 -0.382683 0.666722 0.280307 1 0 1.000000
  0 2.772225 3.838307 14.406816 0.382683 0.000000 -0.923879 0.663671 0.280307 1 0 1.000000
  0 2.772225 -0.502364 14.406816 0.382683 0.000000 -0.923879 0.663671 0.208635 1 0 1.000000
sign_frame02
  0 2.467169 3.838307 14.101761 0.923879 0.000000 -0.382683 0.666722 0.280307 1 0 1.000000
  0 2.772225 -0.502364 14.406816 0.382683 0.000000 -0.923879 0.663671 0.208635 1 0 1.000000
  0 2.467170 -0.502364 14.101761 0.923879 0.000000 -0.382683 0.666722 0.208635 1 0 1.000000
sign_frame02
  0 2.467170 -0.502363 -14.101761 0.923879 0.000000 0.382683 0.976244 0.208635 1 0 1.000000
  0 2.467169 3.838307 14.101761 0.923879 0.000000 -0.382683 0.666722 0.280307 1 0 1.000000
  0 2.467170 -0.502364 14.101761 0.923879 0.000000 -0.382683 0.666722 0.208635 1 0 1.000000
sign_frame02
  0 2.467170 -0.502363 -14.101761 0.923879 0.000000 0.382683 0.976244 0.208635 1 0 1.000000
  0 2.467169 3.838308 -14.101761 0.923879 0.000000 0.382683 0.976244 0.280307 1 0 1.000000
  0 2.467169 3.838307 14.101761 0.923879 0.000000 -0.382683 0.666722 0.280307 1 0 1.000000
sign_frame02
  0 -36.009624 3.850238 16.687874 -0.831469 0.000000 0.555570 0.023330 0.484757 1 0 1.000000
  0 -36.292908 3.850238 16.003963 -0.980785 0.000000 0.195090 0.013595 0.484751 1 0 1.000000
  0 -36.292908 -0.025869 16.003963 -0.905217 -0.384794 0.180323 0.013624 0.408969 1 0 1.000000
sign_frame02
  0 -36.009624 3.850238 16.687874 -0.831469 0.000000 0.555570 0.023330 0.484757 1 0 1.000000
  0 -36.292908 -0.025869 16.003963 -0.905217 -0.384794 0.180323 0.013624 0.408969 1 0 1.000000
  0 -36.009624 -0.025869 16.687874 -0.767422 -0.384178 0.513294 0.023350 0.408978 1 0 1.000000
sign_frame02
  0 -36.009624 -0.025869 16.687874 -0.767422 -0.384178 0.513294 0.023350 0.408978 1 0 1.000000
  0 -35.396782 3.850238 17.300714 -0.555570 0.000000 0.831469 0.034726 0.484757 1 0 1.000000
  0 -36.009624 3.850238 16.687874 -0.831469 0.000000 0.555570 0.023330 0.484757 1 0 1.000000
sign_frame02
  0 -36.009624 -0.025869 16.687874 -0.767422 -0.384178 0.513294 0.023350 0.408978 1 0 1.000000
  0 -35.396782 -0.025869 17.300714 -0.513294 -0.384178 0.767422 0.034734 0.408986 1 0 1.000000
  0 -35.396782 3.850238 17.300714 -0.555570 0.000000 0.831469 0.034726 0.484757 1 0 1.000000
sign_frame02
  0 -34.712872 3.850238 17.584000 -0.195090 0.000000 0.980785 0.044456 0.484754 1 0 1.000000
  0 -35.396782 3.850238 17.300714 -0.555570 0.000000 0.831469 0.034726 0.484757 1 0 1.000000
  0 -35.396782 -0.025869 17.300714 -0.513294 -0.384178 0.767422 0.034734 0.408986 1 0 1.000000
sign_frame02
  0 -34.712872 3.850238 17.584000 -0.195090 0.000000 0.980785 0.044456 0.484754 1 0 1.000000
  0 -35.396782 -0.025869 17.300714 -0.513294 -0.384178 0.767422 0.034734 0.408986 1 0 1.000000
  0 -34.712872 -0.025869 17.584000 -0.180323 -0.384794 0.905217 0.044455 0.408992 1 0 1.000000
sign_frame02
  0 -34.712872 -0.025869 17.584000 -0.180323 -0.384794 0.905217 0.044455 0.408992 1 0 1.000000
  0 -1.568642 3.850240 17.584000 0.000000 0.000000 1.000000 0.479809 0.484701 1 0 1.000000
  0 -34.712872 3.850238 17.584000 -0.195090 0.000000 0.980785 0.044456 0.484754 1 0 1.000000
sign_frame02
  0 -34.712872 -0.025869 17.584000 -0.180323 -0.384794 0.905217 0.044455 0.408992 1 0 1.000000
  0 -1.568642 -0.025867 17.584000 0.000000 -0.378198 0.925725 0.479806 0.408936 1 0 1.000000
  0 -1.568642 3.850240 17.584000 0.000000 0.000000 1.000000 0.479809 0.484701 1 0 1.000000
sign_frame02
  0 1.592162 -0.025867 17.584000 0.000000 -0.378198 0.925725 0.521344 0.408911 1 0 1.000000
  0 -1.568642 3.850240 17.584000 0.000000 0.000000 1.000000 0.479809 0.484701 1 0 1.000000
  0 -1.568642 -0.025867 17.584000 0.000000 -0.378198 0.925725 0.479806 0.408936 1 0 1.000000
sign_frame02
  0 1.592162 -0.025867 17.584000 0.000000 -0.378198 0.925725 0.521344 0.408911 1 0 1.000000
  0 1.592162 3.850240 17.584000 0.000000 0.000000 1.000000 0.521340 0.484726 1 0 1.000000
  0 -1.568642 3.850240 17.584000 0.000000 0.000000 1.000000 0.479809 0.484701 1 0 1.000000
sign_frame02
  0 34.712872 -0.025866 17.584000 0.180323 -0.384794 0.905217 0.956740 0.408971 1 0 1.000000
  0 1.592162 3.850240 17.584000 0.000000 0.000000 1.000000 0.521340 0.484726 1 0 1.000000
  0 1.592162 -0.025867 17.584000 0.000000 -0.378198 0.925725 0.521344 0.408911 1 0 1.000000
sign_frame02
  0 34.712872 -0.025866 17.584000 0.180323 -0.384794 0.905217 0.956740 0.408971 1 0 1.000000
  0 34.712872 3.850241 17.584000 0.195090 0.000000 0.980785 0.956739 0.484789 1 0 1.000000
  0 1.592162 3.850240 17.584000 0.000000 0.000000 1.000000 0.521340 0.484726 1 0 1.000000
sign_frame02
  0 35.396782 3.850241 17.300714 0.555570 0.000000 0.831469 0.966472 0.484783 1 0 1.000000
  0 34.712872 3.850241 17.584000 0.195090 0.000000 0.980785 0.956739 0.484789 1 0 1.000000
  0 34.712872 -0.025866 17.584000 0.180323 -0.384794 0.905217 0.956740 0.408971 1 0 1.000000
sign_frame02
  0 35.396782 3.850241 17.300714 0.555570 0.000000 0.831469 0.966472 0.484783 1 0 1.000000
  0 34.712872 -0.025866 17.584000 0.180323 -0.384794 0.905217 0.956740 0.408971 1 0 1.000000
  0 35.396782 -0.025866 17.300714 0.513294 -0.384178 0.767422 0.966465 0.408975 1 0 1.000000
sign_frame02
  0 35.396782 -0.025866 17.300714 0.513294 -0.384178 0.767422 0.966465 0.408975 1 0 1.000000
  0 36.009624 3.850242 16.687874 0.831469 0.000000 0.555570 0.977866 0.484774 1 0 1.000000
  0 35.396782 3.850241 17.300714 0.555570 0.000000 0.831469 0.966472 0.484783 1 0 1.000000
sign_frame02
  0 35.396782 -0.025866 17.300714 0.513294 -0.384178 0.767422 0.966465 0.408975 1 0 1.000000
  0 36.009624 -0.025866 16.687874 0.767422 -0.384178 0.513294 0.977846 0.408975 1 0 1.000000
  0 36.009624 3.850242 16.687874 0.831469 0.000000 0.555570 0.977866 0.484774 1 0 1.000000
sign_frame02
  0 36.292908 3.850242 16.003963 0.980785 0.000000 0.195090 0.987595 0.484766 1 0 1.000000
  0 36.009624 3.850242 16.687874 0.831469 0.000000 0.555570 0.977866 0.484774 1 0 1.000000
  0 36.009624 -0.025866 16.687874 0.767422 -0.384178 0.513294 0.977846 0.408975 1 0 1.000000
sign_frame02
  0 36.292908 3.850242 16.003963 0.980785 0.000000 0.195090 0.987595 0.484766 1 0 1.000000
  0 36.009624 -0.025866 16.687874 0.767422 -0.384178 0.513294 0.977846 0.408975 1 0 1.000000
  0 36.292908 -0.025866 16.003963 0.905217 -0.384794 0.180323 0.987566 0.408969 1 0 1.000000
sign_frame02
  0 -33.135941 -0.502366 14.406816 0.000000 -1.000000 0.000000 0.047351 0.957606 1 0 1.000000
  0 -35.141338 -0.502366 16.898474 -0.212123 -0.924504 0.316695 0.028776 0.979138 1 0 1.000000
  0 -33.230709 -0.502366 14.352522 0.000000 -1.000000 0.000000 0.046001 0.956833 1 0 1.000000
sign_frame02
  0 -33.135941 -0.502366 14.406816 0.000000 -1.000000 0.000000 0.047351 0.957606 1 0 1.000000
  0 -34.619911 -0.502366 17.116659 -0.074486 -0.924776 0.373150 0.035773 0.982065 1 0 1.000000
  0 -35.141338 -0.502366 16.898474 -0.212123 -0.924504 0.316695 0.028776 0.979138 1 0 1.000000
sign_frame02
  0 -33.230709 -0.502366 14.352522 0.000000 -1.000000 0.000000 0.046001 0.956833 1 0 1.000000
  0 -35.607380 -0.502366 16.432430 -0.316695 -0.924504 0.212123 0.022522 0.972884 1 0 1.000000
  0 -33.313084 -0.502366 14.270147 0.000000 -1.000000 0.000000 0.044827 0.955659 1 0 1.000000
sign_frame02
  0 -33.230709 -0.502366 14.352522 0.000000 -1.000000 0.000000 0.046001 0.956833 1 0 1.000000
  0 -35.141338 -0.502366 16.898474 -0.212123 -0.924504 0.316695 0.028776 0.979138 1 0 1.000000
  0 -35.607380 -0.502366 16.432430 -0.316695 -0.924504 0.212123 0.022522 0.972884 1 0 1.000000
sign_frame02
  0 -33.313084 -0.502366 14.270147 0.000000 -1.000000 0.000000 0.044827 0.955659 1 0 1.000000
  0 -35.825565 -0.502366 15.911003 -0.373150 -0.924776 0.074486 0.019595 0.965887 1 0 1.000000
  0 -33.367378 -0.502366 14.175380 0.000000 -1.000000 0.000000 0.044054 0.954309 1 0 1.000000
sign_frame02
  0 -33.313084 -0.502366 14.270147 0.000000 -1.000000 0.000000 0.044827 0.955659 1 0 1.000000
  0 -35.607380 -0.502366 16.432430 -0.316695 -0.924504 0.212123 0.022522 0.972884 1 0 1.000000
  0 -35.825565 -0.502366 15.911003 -0.373150 -0.924776 0.074486 0.019595 0.965887 1 0 1.000000
sign_frame02
  0 -36.292908 -0.025867 -16.003963 -0.905217 -0.384794 -0.180323 0.016211 0.032225 1 0 1.000000
  0 -36.292908 3.850238 16.003963 -0.980785 0.000000 0.195090 0.492846 0.089945 1 0 1.000000
  0 -36.292908 3.850240 -16.003963 -0.980785 0.000000 -0.195090 0.016211 0.089945 1 0 1.000000
sign_frame02
  0 -36.292908 -0.025867 -16.003963 -0.905217 -0.384794 -0.180323 0.016211 0.032225 1 0 1.000000
  0 -36.292908 -0.025869 16.003963 -0.905217 -0.384794 0.180323 0.492846 0.032225 1 0 1.000000
  0 -36.292908 3.850238 16.003963 -0.980785 0.000000 0.195090 0.492846 0.089945 1 0 1.000000
sign_frame02
  0 36.292908 -0.025866 16.003963 0.905217 -0.384794 0.180323 0.983303 0.091704 1 0 1.000000
  0 36.292908 3.850243 -16.003963 0.980785 0.000000 -0.195090 0.506667 0.033984 1 0 1.000000
  0 36.292908 3.850242 16.003963 0.980785 0.000000 0.195090 0.983303 0.033984 1 0 1.000000
sign_frame02
  0 36.292908 -0.025866 16.003963 0.905217 -0.384794 0.180323 0.983303 0.091704 1 0 1.000000
  0 36.292908 -0.025864 -16.003963 0.905217 -0.384794 -0.180323 0.506667 0.091704 1 0 1.000000
  0 36.292908 3.850243 -16.003963 0.980785 0.000000 -0.195090 0.506667 0.033984 1 0 1.000000
sign_frame02
  0 -2.467170 -0.502364 14.101761 0.000000 -1.000000 0.000000 0.484221 0.953261 1 0 1.000000
  0 2.772225 -0.502364 14.406816 0.000000 -1.000000 0.000000 0.520771 0.957606 1 0 1.000000
  0 -2.772225 -0.502364 14.406816 0.000000 -1.000000 0.000000 0.479876 0.957606 1 0 1.000000
sign_frame02
  0 -2.467170 -0.502364 14.101761 0.000000 -1.000000 0.000000 0.484221 0.953261 1 0 1.000000
  0 2.467170 -0.502364 14.101761 0.000000 -1.000000 0.000000 0.516426 0.953261 1 0 1.000000
  0 2.772225 -0.502364 14.406816 0.000000 -1.000000 0.000000 0.520771 0.957606 1 0 1.000000
sign_frame02
  0 2.467170 -0.502363 -14.101761 0.000000 -1.000000 0.000000 0.516426 0.551507 1 0 1.000000
  0 -2.772225 -0.502363 -14.406816 0.000000 -1.000000 0.000000 0.479876 0.547162 1 0 1.000000
  0 2.772225 -0.502363 -14.406816 0.000000 -1.000000 0.000000 0.520771 0.547162 1 0 1.000000
sign_frame02
  0 2.467170 -0.502363 -14.101761 0.000000 -1.000000 0.000000 0.516426 0.551507 1 0 1.000000
  0 -2.467170 -0.502363 -14.101761 0.000000 -1.000000 0.000000 0.484221 0.551507 1 0 1.000000
  0 -2.772225 -0.502363 -14.406816 0.000000 -1.000000 0.000000 0.479876 0.547162 1 0 1.000000
sign_frame02
  0 -2.467170 -0.502363 -14.101761 0.000000 -1.000000 0.000000 0.484221 0.551507 1 0 1.000000
  0 2.467170 -0.502364 14.101761 0.000000 -1.000000 0.000000 0.516426 0.953261 1 0 1.000000
  0 -2.467170 -0.502364 14.101761 0.000000 -1.000000 0.000000 0.484221 0.953261 1 0 1.000000
sign_frame02
  0 -2.467170 -0.502363 -14.101761 0.000000 -1.000000 0.000000 0.484221 0.551507 1 0 1.000000
  0 2.467170 -0.502363 -14.101761 0.000000 -1.000000 0.000000 0.516426 0.551507 1 0 1.000000
  0 2.467170 -0.502364 14.101761 0.000000 -1.000000 0.000000 0.516426 0.953261 1 0 1.000000
end
