version 1
nodes
0 "root" -1
end
skeleton
time 0
0 0 0 0 0 0 0
end
triangles
Material
0  -14.254272 -8.291846 -2.750656  -0.745983 -0.114075 -0.656122  0.375000 0.125000 0
0  -13.225113 2.553538 2.695248  -0.520702 0.628826 0.577449  0.625000 0.250000 0
0  -13.225113 2.553538 -2.750656  -0.520720 0.628813 -0.577447  0.375000 0.250000 0
Material
0  -13.225113 2.553538 -2.750656  -0.520720 0.628813 -0.577447  0.375000 0.250000 0
0  14.259077 -0.007792 2.695248  0.600899 0.547492 0.582386  0.625000 0.500000 0
0  14.259077 -0.007792 -2.750656  0.600884 0.547506 -0.582388  0.375000 0.500000 0
Material
0  14.259077 -0.007792 -2.750656  0.600884 0.547506 -0.582388  0.375000 0.500000 0
0  14.259077 -11.076443 2.695248  0.577337 -0.577357 0.577357  0.625000 0.750000 0
0  14.259077 -11.076443 -2.750656  0.577355 -0.577341 -0.577355  0.375000 0.750000 0
Material
0  14.259077 -11.076443 -2.750656  0.577355 -0.577341 -0.577355  0.375000 0.750000 0
0  -13.083235 -11.076443 2.695248  -0.442167 -0.665613 0.601206  0.625000 1.000000 0
0  -13.083235 -11.076443 -2.750656  -0.442158 -0.665620 -0.601204  0.375000 1.000000 0
Material
0  14.259077 -0.007792 -2.750656  0.600884 0.547506 -0.582388  0.375000 0.500000 0
0  14.259077 -11.076443 -2.750656  0.577355 -0.577341 -0.577355  0.375000 0.750000 0
0  -13.083235 -11.076443 -2.750656  -0.442158 -0.665620 -0.601204  0.125000 0.750000 0
Material
0  -13.225113 2.553538 2.695248  -0.520702 0.628826 0.577449  0.875000 0.500000 0
0  -14.254272 -8.291845 2.695248  -0.745986 -0.114070 0.656120  0.875000 0.625000 0
0  -13.083235 -11.076443 2.695248  -0.442167 -0.665613 0.601206  0.875000 0.750000 0
Material
0  -13.083235 -11.076443 -2.750656  -0.442158 -0.665620 -0.601204  0.375000 0.000000 0
0  -14.254272 -8.291845 2.695248  -0.745986 -0.114070 0.656120  0.625000 0.125000 0
0  -14.254272 -8.291846 -2.750656  -0.745983 -0.114075 -0.656122  0.375000 0.125000 0
Material
0  -14.254272 -8.291846 -2.750656  -0.745983 -0.114075 -0.656122  0.375000 0.125000 0
0  -14.254272 -8.291845 2.695248  -0.745986 -0.114070 0.656120  0.625000 0.125000 0
0  -13.225113 2.553538 2.695248  -0.520702 0.628826 0.577449  0.625000 0.250000 0
Material
0  -13.225113 2.553538 -2.750656  -0.520720 0.628813 -0.577447  0.375000 0.250000 0
0  -13.225113 2.553538 2.695248  -0.520702 0.628826 0.577449  0.625000 0.250000 0
0  14.259077 -0.007792 2.695248  0.600899 0.547492 0.582386  0.625000 0.500000 0
Material
0  14.259077 -0.007792 -2.750656  0.600884 0.547506 -0.582388  0.375000 0.500000 0
0  14.259077 -0.007792 2.695248  0.600899 0.547492 0.582386  0.625000 0.500000 0
0  14.259077 -11.076443 2.695248  0.577337 -0.577357 0.577357  0.625000 0.750000 0
Material
0  14.259077 -11.076443 -2.750656  0.577355 -0.577341 -0.577355  0.375000 0.750000 0
0  14.259077 -11.076443 2.695248  0.577337 -0.577357 0.577357  0.625000 0.750000 0
0  -13.083235 -11.076443 2.695248  -0.442167 -0.665613 0.601206  0.625000 1.000000 0
Material
0  -14.254272 -8.291846 -2.750656  -0.745983 -0.114075 -0.656122  0.125000 0.625000 0
0  -13.225113 2.553538 -2.750656  -0.520720 0.628813 -0.577447  0.125000 0.500000 0
0  -13.083235 -11.076443 -2.750656  -0.442158 -0.665620 -0.601204  0.125000 0.750000 0
Material
0  -13.225113 2.553538 -2.750656  -0.520720 0.628813 -0.577447  0.125000 0.500000 0
0  14.259077 -0.007792 -2.750656  0.600884 0.547506 -0.582388  0.375000 0.500000 0
0  -13.083235 -11.076443 -2.750656  -0.442158 -0.665620 -0.601204  0.125000 0.750000 0
Material
0  14.259077 -11.076443 2.695248  0.577337 -0.577357 0.577357  0.625000 0.750000 0
0  14.259077 -0.007792 2.695248  0.600899 0.547492 0.582386  0.625000 0.500000 0
0  -13.083235 -11.076443 2.695248  -0.442167 -0.665613 0.601206  0.875000 0.750000 0
Material
0  14.259077 -0.007792 2.695248  0.600899 0.547492 0.582386  0.625000 0.500000 0
0  -13.225113 2.553538 2.695248  -0.520702 0.628826 0.577449  0.875000 0.500000 0
0  -13.083235 -11.076443 2.695248  -0.442167 -0.665613 0.601206  0.875000 0.750000 0
Material
0  -13.083235 -11.076443 -2.750656  -0.442158 -0.665620 -0.601204  0.375000 0.000000 0
0  -13.083235 -11.076443 2.695248  -0.442167 -0.665613 0.601206  0.625000 0.000000 0
0  -14.254272 -8.291845 2.695248  -0.745986 -0.114070 0.656120  0.625000 0.125000 0
end
