version 1
nodes
0 "root" -1
end
skeleton
time 0
0 0 0 0 0 0 0
end
triangles
Material
0  -8.324495 -4.844709 -1.606383  -0.746853 -0.112010 -0.655488  0.375000 0.125000 0
0  -7.682172 1.501972 1.574025  -0.518323 0.630530 0.577731  0.625000 0.250000 0
0  -7.682172 1.501972 -1.606383  -0.518341 0.630517 -0.577729  0.375000 0.250000 0
Material
0  -7.682172 1.501972 -1.606383  -0.518341 0.630517 -0.577729  0.375000 0.250000 0
0  8.327301 -0.004551 1.574025  0.601119 0.547197 0.582437  0.625000 0.500000 0
0  8.327301 -0.004551 -1.606383  0.601104 0.547211 -0.582439  0.375000 0.500000 0
Material
0  8.327301 -0.004551 -1.606383  0.601104 0.547211 -0.582439  0.375000 0.500000 0
0  8.327301 -6.468642 1.574025  0.577337 -0.577357 0.577357  0.625000 0.750000 0
0  8.327301 -6.468642 -1.606383  0.577355 -0.577342 -0.577355  0.375000 0.750000 0
Material
0  8.327301 -6.468642 -1.606383  0.577355 -0.577342 -0.577355  0.375000 0.750000 0
0  -7.640609 -6.468642 1.574025  -0.441986 -0.665702 0.601239  0.625000 1.000000 0
0  -7.640609 -6.468642 -1.606383  -0.441977 -0.665709 -0.601238  0.375000 1.000000 0
Material
0  8.327301 -0.004551 -1.606383  0.601104 0.547211 -0.582439  0.375000 0.500000 0
0  8.327301 -6.468642 -1.606383  0.577355 -0.577342 -0.577355  0.375000 0.750000 0
0  -7.640609 -6.468642 -1.606383  -0.441977 -0.665709 -0.601238  0.125000 0.750000 0
Material
0  -7.682172 1.501972 1.574025  -0.518323 0.630530 0.577731  0.875000 0.500000 0
0  -8.324495 -4.844709 1.574025  -0.746856 -0.112006 0.655485  0.875000 0.625000 0
0  -7.640609 -6.468642 1.574025  -0.441986 -0.665702 0.601239  0.875000 0.750000 0
Material
0  -7.640609 -6.468642 -1.606383  -0.441977 -0.665709 -0.601238  0.375000 0.000000 0
0  -8.324495 -4.844709 1.574025  -0.746856 -0.112006 0.655485  0.625000 0.125000 0
0  -8.324495 -4.844709 -1.606383  -0.746853 -0.112010 -0.655488  0.375000 0.125000 0
Material
0  -8.324495 -4.844709 -1.606383  -0.746853 -0.112010 -0.655488  0.375000 0.125000 0
0  -8.324495 -4.844709 1.574025  -0.746856 -0.112006 0.655485  0.625000 0.125000 0
0  -7.682172 1.501972 1.574025  -0.518323 0.630530 0.577731  0.625000 0.250000 0
Material
0  -7.682172 1.501972 -1.606383  -0.518341 0.630517 -0.577729  0.375000 0.250000 0
0  -7.682172 1.501972 1.574025  -0.518323 0.630530 0.577731  0.625000 0.250000 0
0  8.327301 -0.004551 1.574025  0.601119 0.547197 0.582437  0.625000 0.500000 0
Material
0  8.327301 -0.004551 -1.606383  0.601104 0.547211 -0.582439  0.375000 0.500000 0
0  8.327301 -0.004551 1.574025  0.601119 0.547197 0.582437  0.625000 0.500000 0
0  8.327301 -6.468642 1.574025  0.577337 -0.577357 0.577357  0.625000 0.750000 0
Material
0  8.327301 -6.468642 -1.606383  0.577355 -0.577342 -0.577355  0.375000 0.750000 0
0  8.327301 -6.468642 1.574025  0.577337 -0.577357 0.577357  0.625000 0.750000 0
0  -7.640609 -6.468642 1.574025  -0.441986 -0.665702 0.601239  0.625000 1.000000 0
Material
0  -8.324495 -4.844709 -1.606383  -0.746853 -0.112010 -0.655488  0.125000 0.625000 0
0  -7.682172 1.501972 -1.606383  -0.518341 0.630517 -0.577729  0.125000 0.500000 0
0  -7.640609 -6.468642 -1.606383  -0.441977 -0.665709 -0.601238  0.125000 0.750000 0
Material
0  -7.682172 1.501972 -1.606383  -0.518341 0.630517 -0.577729  0.125000 0.500000 0
0  8.327301 -0.004551 -1.606383  0.601104 0.547211 -0.582439  0.375000 0.500000 0
0  -7.640609 -6.468642 -1.606383  -0.441977 -0.665709 -0.601238  0.125000 0.750000 0
Material
0  8.327301 -6.468642 1.574025  0.577337 -0.577357 0.577357  0.625000 0.750000 0
0  8.327301 -0.004551 1.574025  0.601119 0.547197 0.582437  0.625000 0.500000 0
0  -7.640609 -6.468642 1.574025  -0.441986 -0.665702 0.601239  0.875000 0.750000 0
Material
0  8.327301 -0.004551 1.574025  0.601119 0.547197 0.582437  0.625000 0.500000 0
0  -7.682172 1.501972 1.574025  -0.518323 0.630530 0.577731  0.875000 0.500000 0
0  -7.640609 -6.468642 1.574025  -0.441986 -0.665702 0.601239  0.875000 0.750000 0
Material
0  -7.640609 -6.468642 -1.606383  -0.441977 -0.665709 -0.601238  0.375000 0.000000 0
0  -7.640609 -6.468642 1.574025  -0.441986 -0.665702 0.601239  0.625000 0.000000 0
0  -8.324495 -4.844709 1.574025  -0.746856 -0.112006 0.655485  0.625000 0.125000 0
end
