// Created by Crowbar 0.74
version 1
nodes
  0 "polymsh" -1
end
skeleton
  time 0
    0 0.000000 0.000000 0.000000 1.570796 0.000000 0.000000
end
triangles
  phy
    0 -15.745435 22.600232 -0.857399 -0.180158 0.983616 0.006603 0 0
    0 -2.071849 18.157415 -1.413224 -0.927272 0.164207 0.336455 0 0
    0 -0.359530 16.897382 -1.536001 -0.137284 0.989242 0.050531 0 0
  phy
    0 -2.071849 18.157415 -1.413224 -0.927272 0.164207 0.336455 0 0
    0 -15.745435 22.600232 -0.857399 -0.180158 0.983616 0.006603 0 0
    0 -2.071852 18.157416 2.070883 -0.652224 -0.700220 0.290338 0 0
  phy
    0 -0.359530 16.897382 -1.536001 -0.137284 0.989242 0.050531 0 0
    0 -2.071849 18.157415 -1.413224 -0.927272 0.164207 0.336455 0 0
    0 -2.071852 18.157416 2.070883 -0.652224 -0.700220 0.290338 0 0
  phy
    0 22.453166 -15.598374 1.712778 -0.182264 -0.324876 0.928028 0 0
    0 23.018924 -22.787008 -0.532157 0.803953 0.583666 0.113991 0 0
    0 22.453166 -15.598374 -0.857400 -0.006603 0.983616 0.180158 0 0
  phy
    0 22.453166 -15.598374 1.712778 -0.182264 -0.324876 0.928028 0 0
    0 23.018924 -22.787008 1.559498 0.077593 -0.996567 0.028868 0 0
    0 23.018924 -22.787008 -0.532157 0.803953 0.583666 0.113991 0 0
  phy
    0 22.453166 -15.598374 1.712778 -0.182264 -0.324876 0.928028 0 0
    0 22.453166 -15.598374 -0.857400 -0.006603 0.983616 0.180158 0 0
    0 18.010345 -1.924781 2.070882 -0.370332 -0.587551 0.719471 0 0
  phy
    0 18.010345 -1.924781 2.070882 -0.370332 -0.587551 0.719471 0 0
    0 23.018924 -22.787008 1.559498 0.077593 -0.996567 0.028868 0 0
    0 22.453166 -15.598374 1.712778 -0.182264 -0.324876 0.928028 0 0
  phy
    0 18.010345 -1.924779 -1.413225 -0.336455 0.164206 0.927273 0 0
    0 16.750320 -0.212472 -1.536001 -0.021840 0.994879 0.098686 0 0
    0 18.010345 -1.924781 2.070882 -0.370332 -0.587551 0.719471 0 0
  phy
    0 16.750320 -0.212472 -1.536001 -0.021840 0.994879 0.098686 0 0
    0 9.497145 9.644216 -1.809588 -0.126124 0.982647 0.136006 0 0
    0 18.010345 -1.924781 2.070882 -0.370332 -0.587551 0.719471 0 0
  phy
    0 18.010345 -1.924781 2.070882 -0.370332 -0.587551 0.719471 0 0
    0 22.453166 -15.598374 -0.857400 -0.006603 0.983616 0.180158 0 0
    0 18.010345 -1.924779 -1.413225 -0.336455 0.164206 0.927273 0 0
  phy
    0 18.010345 -1.924779 -1.413225 -0.336455 0.164206 0.927273 0 0
    0 22.453166 -15.598374 -0.857400 -0.006603 0.983616 0.180158 0 0
    0 16.750320 -0.212472 -1.536001 -0.021840 0.994879 0.098686 0 0
  phy
    0 -18.955572 -18.808504 -3.746157 -0.033761 0.998860 0.033761 0 0
    0 -17.920867 -20.232651 -3.746157 -0.014904 0.998447 0.053671 0 0
    0 -20.379717 -17.773800 -3.746157 -0.052805 0.998497 0.014664 0 0
  phy
    0 -20.379717 -17.773800 -3.746157 -0.052805 0.998497 0.014664 0 0
    0 -17.920867 -20.232651 -3.746157 -0.014904 0.998447 0.053671 0 0
    0 -17.307619 -22.787008 -3.746157 0.102774 0.992723 0.062762 0 0
  phy
    0 -20.379717 -17.773800 -3.746157 -0.052805 0.998497 0.014664 0 0
    0 -17.307619 -22.787008 -3.746157 0.102774 0.992723 0.062762 0 0
    0 -22.934077 -17.160553 -3.746157 -0.063034 0.992659 -0.103219 0 0
  phy
    0 -0.359530 16.897382 -1.536001 -0.137284 0.989242 0.050531 0 0
    0 9.497145 9.644216 -1.809588 -0.126124 0.982647 0.136006 0 0
    0 -20.379717 -17.773800 -3.746157 -0.052805 0.998497 0.014664 0 0
  phy
    0 -0.359530 16.897382 -1.536001 -0.137284 0.989242 0.050531 0 0
    0 -20.379717 -17.773800 -3.746157 -0.052805 0.998497 0.014664 0 0
    0 -22.934077 -17.160553 -3.746157 -0.063034 0.992659 -0.103219 0 0
  phy
    0 -18.955572 -18.808504 -3.746157 -0.033761 0.998860 0.033761 0 0
    0 -20.379717 -17.773800 -3.746157 -0.052805 0.998497 0.014664 0 0
    0 9.497145 9.644216 -1.809588 -0.126124 0.982647 0.136006 0 0
  phy
    0 -17.920867 -20.232651 -3.746157 -0.014904 0.998447 0.053671 0 0
    0 9.497145 9.644216 -1.809588 -0.126124 0.982647 0.136006 0 0
    0 16.750320 -0.212472 -1.536001 -0.021840 0.994879 0.098686 0 0
  phy
    0 -17.920867 -20.232651 -3.746157 -0.014904 0.998447 0.053671 0 0
    0 16.750320 -0.212472 -1.536001 -0.021840 0.994879 0.098686 0 0
    0 -17.307619 -22.787008 -3.746157 0.102774 0.992723 0.062762 0 0
  phy
    0 -17.920867 -20.232651 -3.746157 -0.014904 0.998447 0.053671 0 0
    0 -18.955572 -18.808504 -3.746157 -0.033761 0.998860 0.033761 0 0
    0 9.497145 9.644216 -1.809588 -0.126124 0.982647 0.136006 0 0
  phy
    0 -15.745435 22.600232 -0.857399 -0.180158 0.983616 0.006603 0 0
    0 -15.745445 22.600234 1.712779 -0.928028 -0.324875 0.182264 0 0
    0 -2.071852 18.157416 2.070883 -0.652224 -0.700220 0.290338 0 0
  phy
    0 -15.745445 22.600234 1.712779 -0.928028 -0.324875 0.182264 0 0
    0 -15.745435 22.600232 -0.857399 -0.180158 0.983616 0.006603 0 0
    0 -22.934077 23.165991 -0.532155 -0.161667 0.827780 -0.537256 0 0
  phy
    0 -15.745435 22.600232 -0.857399 -0.180158 0.983616 0.006603 0 0
    0 -0.359530 16.897382 -1.536001 -0.137284 0.989242 0.050531 0 0
    0 -22.934077 -17.160553 -3.746157 -0.063034 0.992659 -0.103219 0 0
  phy
    0 -15.745435 22.600232 -0.857399 -0.180158 0.983616 0.006603 0 0
    0 -22.934077 -17.160553 -3.746157 -0.063034 0.992659 -0.103219 0 0
    0 -22.934077 23.165991 -0.532155 -0.161667 0.827780 -0.537256 0 0
  phy
    0 18.010345 -1.924781 2.070882 -0.370332 -0.587551 0.719471 0 0
    0 9.497145 9.644215 2.467844 -0.037524 -0.998695 0.034650 0 0
    0 23.018924 -22.787008 1.559498 0.077593 -0.996567 0.028868 0 0
  phy
    0 9.497145 9.644215 2.467844 -0.037524 -0.998695 0.034650 0 0
    0 -22.934074 -22.787008 2.467843 0.102293 -0.992268 -0.070294 0 0
    0 23.018924 -22.787008 1.559498 0.077593 -0.996567 0.028868 0 0
  phy
    0 18.010345 -1.924781 2.070882 -0.370332 -0.587551 0.719471 0 0
    0 9.497145 9.644216 -1.809588 -0.126124 0.982647 0.136006 0 0
    0 9.497145 9.644215 2.467844 -0.037524 -0.998695 0.034650 0 0
  phy
    0 -0.359530 16.897382 -1.536001 -0.137284 0.989242 0.050531 0 0
    0 9.497145 9.644215 2.467844 -0.037524 -0.998695 0.034650 0 0
    0 9.497145 9.644216 -1.809588 -0.126124 0.982647 0.136006 0 0
  phy
    0 -0.359530 16.897382 -1.536001 -0.137284 0.989242 0.050531 0 0
    0 -2.071852 18.157416 2.070883 -0.652224 -0.700220 0.290338 0 0
    0 9.497145 9.644215 2.467844 -0.037524 -0.998695 0.034650 0 0
  phy
    0 16.750320 -0.212472 -1.536001 -0.021840 0.994879 0.098686 0 0
    0 22.453166 -15.598374 -0.857400 -0.006603 0.983616 0.180158 0 0
    0 -17.307619 -22.787008 -3.746157 0.102774 0.992723 0.062762 0 0
  phy
    0 -17.307619 -22.787008 -3.746157 0.102774 0.992723 0.062762 0 0
    0 22.453166 -15.598374 -0.857400 -0.006603 0.983616 0.180158 0 0
    0 23.018924 -22.787008 -0.532157 0.803953 0.583666 0.113991 0 0
  phy
    0 -15.745445 22.600234 1.712779 -0.928028 -0.324875 0.182264 0 0
    0 -22.934077 23.165993 1.559499 -0.028355 -0.978833 -0.202688 0 0
    0 -2.071852 18.157416 2.070883 -0.652224 -0.700220 0.290338 0 0
  phy
    0 -22.934077 23.165993 1.559499 -0.028355 -0.978833 -0.202688 0 0
    0 9.497145 9.644215 2.467844 -0.037524 -0.998695 0.034650 0 0
    0 -2.071852 18.157416 2.070883 -0.652224 -0.700220 0.290338 0 0
  phy
    0 -22.934077 23.165993 1.559499 -0.028355 -0.978833 -0.202688 0 0
    0 -22.934074 -22.787008 2.467843 0.102293 -0.992268 -0.070294 0 0
    0 9.497145 9.644215 2.467844 -0.037524 -0.998695 0.034650 0 0
  phy
    0 -15.745445 22.600234 1.712779 -0.928028 -0.324875 0.182264 0 0
    0 -22.934077 23.165991 -0.532155 -0.161667 0.827780 -0.537256 0 0
    0 -22.934077 23.165993 1.559499 -0.028355 -0.978833 -0.202688 0 0
  phy
    0 -22.934077 -17.160553 -3.746157 -0.063034 0.992659 -0.103219 0 0
    0 -17.307619 -22.787008 -3.746157 0.102774 0.992723 0.062762 0 0
    0 -22.934077 -22.787011 -2.127156 0.603661 0.062937 -0.794753 0 0
  phy
    0 -22.934077 23.165991 -0.532155 -0.161667 0.827780 -0.537256 0 0
    0 -22.934077 -17.160553 -3.746157 -0.063034 0.992659 -0.103219 0 0
    0 -22.934077 -22.787011 -2.127156 0.603661 0.062937 -0.794753 0 0
  phy
    0 23.018924 -22.787008 1.559498 0.077593 -0.996567 0.028868 0 0
    0 -22.934074 -22.787008 2.467843 0.102293 -0.992268 -0.070294 0 0
    0 23.018924 -22.787008 -0.532157 0.803953 0.583666 0.113991 0 0
  phy
    0 23.018924 -22.787008 -0.532157 0.803953 0.583666 0.113991 0 0
    0 -22.934077 -22.787011 -2.127156 0.603661 0.062937 -0.794753 0 0
    0 -17.307619 -22.787008 -3.746157 0.102774 0.992723 0.062762 0 0
  phy
    0 -22.934077 23.165991 -0.532155 -0.161667 0.827780 -0.537256 0 0
    0 -22.934077 -22.787011 -2.127156 0.603661 0.062937 -0.794753 0 0
    0 -22.934077 23.165993 1.559499 -0.028355 -0.978833 -0.202688 0 0
  phy
    0 -22.934074 -22.787008 2.467843 0.102293 -0.992268 -0.070294 0 0
    0 -22.934077 -22.787011 -2.127156 0.603661 0.062937 -0.794753 0 0
    0 23.018924 -22.787008 -0.532157 0.803953 0.583666 0.113991 0 0
  phy
    0 -22.934077 -22.787011 -2.127156 0.603661 0.062937 -0.794753 0 0
    0 -22.934074 -22.787008 2.467843 0.102293 -0.992268 -0.070294 0 0
    0 -22.934077 23.165993 1.559499 -0.028355 -0.978833 -0.202688 0 0
end
