// Created by Crowbar 0.74
version 1
nodes
  0 "static_prop" -1
end
skeleton
  time 0
    0 0.000000 0.000000 0.000000 0.000000 0.000000 0.000000
end
triangles
  phy
    0 46.065239 0.000002 2.435503 0.056340 0.020162 0.998208 0 0
    0 42.128141 0.000002 2.435504 -0.478127 0.075011 -0.875082 0 0
    0 42.128141 -0.000002 99.895620 -0.479402 -0.017723 -0.877416 0 0
  phy
    0 46.065239 0.000002 2.435503 0.056340 0.020162 0.998208 0 0
    0 42.128141 -0.000002 99.895620 -0.479402 -0.017723 -0.877416 0 0
    0 46.065239 -0.000002 99.895620 0.055732 -0.147870 0.987435 0 0
  phy
    0 42.128141 0.000002 2.435504 -0.478127 0.075011 -0.875082 0 0
    0 41.165746 -17.051408 2.435502 0.381075 0.091576 0.919997 0 0
    0 29.789094 -29.789090 2.435503 -0.281284 0.037585 -0.958888 0 0
  phy
    0 41.165746 -17.051408 2.435502 0.381075 0.091576 0.919997 0 0
    0 42.128141 0.000002 2.435504 -0.478127 0.075011 -0.875082 0 0
    0 46.065239 0.000002 2.435503 0.056340 0.020162 0.998208 0 0
  phy
    0 42.128141 0.000002 2.435504 -0.478127 0.075011 -0.875082 0 0
    0 29.789094 -29.789090 2.435503 -0.281284 0.037585 -0.958888 0 0
    0 42.128141 -0.000002 99.895620 -0.479402 -0.017723 -0.877416 0 0
  phy
    0 29.789094 -29.789090 2.435503 -0.281284 0.037585 -0.958888 0 0
    0 41.165746 -17.051408 2.435502 0.381075 0.091576 0.919997 0 0
    0 32.573044 -32.573044 2.435502 0.576985 0.019903 0.816512 0 0
  phy
    0 41.165746 -17.051413 99.895620 0.382523 -0.028903 0.923494 0 0
    0 32.573044 -32.573044 2.435502 0.576985 0.019903 0.816512 0 0
    0 41.165746 -17.051408 2.435502 0.381075 0.091576 0.919997 0 0
  phy
    0 41.165746 -17.051408 2.435502 0.381075 0.091576 0.919997 0 0
    0 46.065239 0.000002 2.435503 0.056340 0.020162 0.998208 0 0
    0 41.165746 -17.051413 99.895620 0.382523 -0.028903 0.923494 0 0
  phy
    0 29.789094 -29.789090 2.435503 -0.281284 0.037585 -0.958888 0 0
    0 32.573044 -32.573044 2.435502 0.576985 0.019903 0.816512 0 0
    0 32.573044 -32.573049 99.895620 0.817462 -0.039765 0.574608 0 0
  phy
    0 29.789094 -29.789094 99.895620 -0.280207 -0.095082 -0.955219 0 0
    0 29.789094 -29.789090 2.435503 -0.281284 0.037585 -0.958888 0 0
    0 32.573044 -32.573049 99.895620 0.817462 -0.039765 0.574608 0 0
  phy
    0 42.128141 -0.000002 99.895620 -0.479402 -0.017723 -0.877416 0 0
    0 29.789094 -29.789090 2.435503 -0.281284 0.037585 -0.958888 0 0
    0 29.789094 -29.789094 99.895620 -0.280207 -0.095082 -0.955219 0 0
  phy
    0 29.789094 -29.789094 99.895620 -0.280207 -0.095082 -0.955219 0 0
    0 46.065239 -0.000002 99.895620 0.055732 -0.147870 0.987435 0 0
    0 42.128141 -0.000002 99.895620 -0.479402 -0.017723 -0.877416 0 0
  phy
    0 41.165746 -17.051413 99.895620 0.382523 -0.028903 0.923494 0 0
    0 46.065239 -0.000002 99.895620 0.055732 -0.147870 0.987435 0 0
    0 29.789094 -29.789094 99.895620 -0.280207 -0.095082 -0.955219 0 0
  phy
    0 29.789094 -29.789094 99.895620 -0.280207 -0.095082 -0.955219 0 0
    0 32.573044 -32.573049 99.895620 0.817462 -0.039765 0.574608 0 0
    0 41.165746 -17.051413 99.895620 0.382523 -0.028903 0.923494 0 0
  phy
    0 41.165746 -17.051413 99.895620 0.382523 -0.028903 0.923494 0 0
    0 32.573044 -32.573049 99.895620 0.817462 -0.039765 0.574608 0 0
    0 32.573044 -32.573044 2.435502 0.576985 0.019903 0.816512 0 0
  phy
    0 41.165746 -17.051413 99.895620 0.382523 -0.028903 0.923494 0 0
    0 46.065239 0.000002 2.435503 0.056340 0.020162 0.998208 0 0
    0 46.065239 -0.000002 99.895620 0.055732 -0.147870 0.987435 0 0
  phy
    0 32.573044 32.573044 2.435505 -0.654448 0.186515 0.732741 0 0
    0 46.065239 0.000002 2.435503 -0.055954 0.118543 0.991371 0 0
    0 42.128141 0.000002 2.435504 0.479148 0.037082 -0.876951 0 0
  phy
    0 32.573044 32.573044 2.435505 -0.654448 0.186515 0.732741 0 0
    0 42.128141 0.000002 2.435504 0.479148 0.037082 -0.876951 0 0
    0 29.789090 29.789094 2.435505 0.187985 0.033409 -0.981604 0 0
  phy
    0 46.065239 0.000002 2.435503 -0.055954 0.118543 0.991371 0 0
    0 46.065239 -0.000002 99.895620 -0.056340 -0.020162 0.998208 0 0
    0 42.128141 0.000002 2.435504 0.479148 0.037082 -0.876951 0 0
  phy
    0 46.065239 -0.000002 99.895620 -0.056340 -0.020162 0.998208 0 0
    0 42.128141 -0.000002 99.895620 0.478127 -0.075011 -0.875082 0 0
    0 42.128141 0.000002 2.435504 0.479148 0.037082 -0.876951 0 0
  phy
    0 41.165746 17.051414 2.435504 -0.382663 0.010254 0.923831 0 0
    0 46.065239 0.000002 2.435503 -0.055954 0.118543 0.991371 0 0
    0 32.573044 32.573044 2.435505 -0.654448 0.186515 0.732741 0 0
  phy
    0 46.065239 0.000002 2.435503 -0.055954 0.118543 0.991371 0 0
    0 41.165746 17.051414 2.435504 -0.382663 0.010254 0.923831 0 0
    0 46.065239 -0.000002 99.895620 -0.056340 -0.020162 0.998208 0 0
  phy
    0 46.065239 -0.000002 99.895620 -0.056340 -0.020162 0.998208 0 0
    0 41.165746 17.051408 99.895620 -0.381075 -0.091576 0.919997 0 0
    0 42.128141 -0.000002 99.895620 0.478127 -0.075011 -0.875082 0 0
  phy
    0 41.165746 17.051408 99.895620 -0.381075 -0.091576 0.919997 0 0
    0 29.789090 29.789090 99.895620 0.331012 -0.038605 -0.942837 0 0
    0 42.128141 -0.000002 99.895620 0.478127 -0.075011 -0.875082 0 0
  phy
    0 41.165746 17.051408 99.895620 -0.381075 -0.091576 0.919997 0 0
    0 32.573044 32.573040 99.895620 -0.666002 -0.020162 0.745678 0 0
    0 29.789090 29.789090 99.895620 0.331012 -0.038605 -0.942837 0 0
  phy
    0 29.789090 29.789090 99.895620 0.331012 -0.038605 -0.942837 0 0
    0 29.789090 29.789094 2.435505 0.187985 0.033409 -0.981604 0 0
    0 42.128141 0.000002 2.435504 0.479148 0.037082 -0.876951 0 0
  phy
    0 29.789090 29.789090 99.895620 0.331012 -0.038605 -0.942837 0 0
    0 42.128141 0.000002 2.435504 0.479148 0.037082 -0.876951 0 0
    0 42.128141 -0.000002 99.895620 0.478127 -0.075011 -0.875082 0 0
  phy
    0 29.789090 29.789094 2.435505 0.187985 0.033409 -0.981604 0 0
    0 29.789090 29.789090 99.895620 0.331012 -0.038605 -0.942837 0 0
    0 32.573044 32.573040 99.895620 -0.666002 -0.020162 0.745678 0 0
  phy
    0 41.165746 17.051414 2.435504 -0.382663 0.010254 0.923831 0 0
    0 41.165746 17.051408 99.895620 -0.381075 -0.091576 0.919997 0 0
    0 46.065239 -0.000002 99.895620 -0.056340 -0.020162 0.998208 0 0
  phy
    0 32.573044 32.573040 99.895620 -0.666002 -0.020162 0.745678 0 0
    0 41.165746 17.051408 99.895620 -0.381075 -0.091576 0.919997 0 0
    0 41.165746 17.051414 2.435504 -0.382663 0.010254 0.923831 0 0
  phy
    0 41.165746 17.051414 2.435504 -0.382663 0.010254 0.923831 0 0
    0 32.573044 32.573044 2.435505 -0.654448 0.186515 0.732741 0 0
    0 32.573044 32.573040 99.895620 -0.666002 -0.020162 0.745678 0 0
  phy
    0 29.789090 29.789094 2.435505 0.187985 0.033409 -0.981604 0 0
    0 32.573044 32.573040 99.895620 -0.666002 -0.020162 0.745678 0 0
    0 32.573044 32.573044 2.435505 -0.654448 0.186515 0.732741 0 0
  phy
    0 29.789090 29.789090 99.895620 0.943384 -0.018204 -0.331204 0 0
    0 29.789090 29.789094 2.435505 0.979690 0.070753 -0.187619 0 0
    0 32.573044 32.573040 99.895620 -0.568906 -0.145944 0.809350 0 0
  phy
    0 29.789090 29.789094 2.435505 0.979690 0.070753 -0.187619 0 0
    0 32.573042 32.573042 2.435505 -0.816512 0.019903 0.576986 0 0
    0 32.573044 32.573040 99.895620 -0.568906 -0.145944 0.809350 0 0
  phy
    0 32.573042 32.573042 2.435505 -0.816512 0.019903 0.576986 0 0
    0 29.789090 29.789094 2.435505 0.979690 0.070753 -0.187619 0 0
    0 17.051408 41.165746 2.435505 -0.919998 0.091576 0.381075 0 0
  phy
    0 17.051408 41.165746 2.435505 -0.919998 0.091576 0.381075 0 0
    0 29.789090 29.789094 2.435505 0.979690 0.070753 -0.187619 0 0
    0 -0.000002 42.128141 2.435506 0.876934 0.037585 -0.479139 0 0
  phy
    0 17.051408 41.165746 2.435505 -0.919998 0.091576 0.381075 0 0
    0 -0.000002 42.128141 2.435506 0.876934 0.037585 -0.479139 0 0
    0 -0.000002 46.065234 2.435506 -0.985351 0.019903 0.169371 0 0
  phy
    0 17.051408 41.165746 99.895620 -0.923494 -0.028903 0.382523 0 0
    0 32.573042 32.573042 2.435505 -0.816512 0.019903 0.576986 0 0
    0 17.051408 41.165746 2.435505 -0.919998 0.091576 0.381075 0 0
  phy
    0 32.573044 32.573040 99.895620 -0.568906 -0.145944 0.809350 0 0
    0 32.573042 32.573042 2.435505 -0.816512 0.019903 0.576986 0 0
    0 17.051408 41.165746 99.895620 -0.923494 -0.028903 0.382523 0 0
  phy
    0 17.051408 41.165746 99.895620 -0.923494 -0.028903 0.382523 0 0
    0 -0.000002 42.128136 99.895620 0.873578 -0.095082 -0.477305 0 0
    0 32.573044 32.573040 99.895620 -0.568906 -0.145944 0.809350 0 0
  phy
    0 17.051408 41.165746 99.895620 -0.923494 -0.028903 0.382523 0 0
    0 -0.000002 46.065234 99.895620 -0.984342 -0.039764 -0.171723 0 0
    0 -0.000002 42.128136 99.895620 0.873578 -0.095082 -0.477305 0 0
  phy
    0 -0.000002 42.128136 99.895620 0.873578 -0.095082 -0.477305 0 0
    0 29.789090 29.789090 99.895620 0.943384 -0.018204 -0.331204 0 0
    0 32.573044 32.573040 99.895620 -0.568906 -0.145944 0.809350 0 0
  phy
    0 -0.000002 46.065234 2.435506 -0.985351 0.019903 0.169371 0 0
    0 -0.000002 42.128141 2.435506 0.876934 0.037585 -0.479139 0 0
    0 -0.000002 46.065234 99.895620 -0.984342 -0.039764 -0.171723 0 0
  phy
    0 -0.000002 46.065234 99.895620 -0.984342 -0.039764 -0.171723 0 0
    0 -0.000002 42.128141 2.435506 0.876934 0.037585 -0.479139 0 0
    0 -0.000002 42.128136 99.895620 0.873578 -0.095082 -0.477305 0 0
  phy
    0 -0.000002 42.128141 2.435506 0.876934 0.037585 -0.479139 0 0
    0 29.789090 29.789090 99.895620 0.943384 -0.018204 -0.331204 0 0
    0 -0.000002 42.128136 99.895620 0.873578 -0.095082 -0.477305 0 0
  phy
    0 29.789090 29.789094 2.435505 0.979690 0.070753 -0.187619 0 0
    0 29.789090 29.789090 99.895620 0.943384 -0.018204 -0.331204 0 0
    0 -0.000002 42.128141 2.435506 0.876934 0.037585 -0.479139 0 0
  phy
    0 17.051408 41.165746 99.895620 -0.923494 -0.028903 0.382523 0 0
    0 17.051408 41.165746 2.435505 -0.919998 0.091576 0.381075 0 0
    0 -0.000002 46.065234 2.435506 -0.985351 0.019903 0.169371 0 0
  phy
    0 -0.000002 46.065234 99.895620 -0.984342 -0.039764 -0.171723 0 0
    0 17.051408 41.165746 99.895620 -0.923494 -0.028903 0.382523 0 0
    0 -0.000002 46.065234 2.435506 -0.985351 0.019903 0.169371 0 0
  phy
    0 -0.000002 46.065239 2.435506 -0.997600 0.040300 -0.056305 0 0
    0 -17.051413 41.165746 2.435505 -0.922904 0.045933 -0.382280 0 0
    0 -0.000002 46.065239 99.895620 -0.998208 -0.020162 -0.056339 0 0
  phy
    0 -0.000002 46.065239 99.895620 -0.998208 -0.020162 -0.056339 0 0
    0 -17.051413 41.165746 2.435505 -0.922904 0.045933 -0.382280 0 0
    0 -17.051413 41.165746 99.895620 -0.919997 -0.091576 -0.381075 0 0
  phy
    0 -0.000002 46.065239 2.435506 -0.997600 0.040300 -0.056305 0 0
    0 -0.000002 46.065239 99.895620 -0.998208 -0.020162 -0.056339 0 0
    0 -0.000002 42.128141 2.435506 0.825412 0.070753 0.560080 0 0
  phy
    0 -0.000002 46.065239 99.895620 -0.998208 -0.020162 -0.056339 0 0
    0 -0.000002 42.128136 99.895620 0.900747 -0.038605 0.432626 0 0
    0 -0.000002 42.128141 2.435506 0.825412 0.070753 0.560080 0 0
  phy
    0 -17.051413 41.165746 2.435505 -0.922904 0.045933 -0.382280 0 0
    0 -0.000002 46.065239 2.435506 -0.997600 0.040300 -0.056305 0 0
    0 -0.000002 42.128141 2.435506 0.825412 0.070753 0.560080 0 0
  phy
    0 -32.573044 32.573040 99.895620 -0.745678 -0.020162 -0.666002 0 0
    0 -17.051413 41.165746 99.895620 -0.919997 -0.091576 -0.381075 0 0
    0 -17.051413 41.165746 2.435505 -0.922904 0.045933 -0.382280 0 0
  phy
    0 -32.573044 32.573040 99.895620 -0.745678 -0.020162 -0.666002 0 0
    0 -17.051413 41.165746 2.435505 -0.922904 0.045933 -0.382280 0 0
    0 -32.573042 32.573040 2.435505 -0.745223 0.040300 -0.665596 0 0
  phy
    0 -29.789094 29.789090 2.435505 0.958888 0.037585 0.281284 0 0
    0 -17.051413 41.165746 2.435505 -0.922904 0.045933 -0.382280 0 0
    0 -0.000002 42.128141 2.435506 0.825412 0.070753 0.560080 0 0
  phy
    0 -17.051413 41.165746 2.435505 -0.922904 0.045933 -0.382280 0 0
    0 -29.789094 29.789090 2.435505 0.958888 0.037585 0.281284 0 0
    0 -32.573042 32.573040 2.435505 -0.745223 0.040300 -0.665596 0 0
  phy
    0 -29.789094 29.789090 2.435505 0.958888 0.037585 0.281284 0 0
    0 -29.789092 29.789085 99.895620 0.956863 -0.075011 0.280690 0 0
    0 -32.573044 32.573040 99.895620 -0.745678 -0.020162 -0.666002 0 0
  phy
    0 -29.789094 29.789090 2.435505 0.958888 0.037585 0.281284 0 0
    0 -32.573044 32.573040 99.895620 -0.745678 -0.020162 -0.666002 0 0
    0 -32.573042 32.573040 2.435505 -0.745223 0.040300 -0.665596 0 0
  phy
    0 -32.573044 32.573040 99.895620 -0.745678 -0.020162 -0.666002 0 0
    0 -29.789092 29.789085 99.895620 0.956863 -0.075011 0.280690 0 0
    0 -17.051413 41.165746 99.895620 -0.919997 -0.091576 -0.381075 0 0
  phy
    0 -29.789094 29.789090 2.435505 0.958888 0.037585 0.281284 0 0
    0 -0.000002 42.128141 2.435506 0.825412 0.070753 0.560080 0 0
    0 -0.000002 42.128136 99.895620 0.900747 -0.038605 0.432626 0 0
  phy
    0 -0.000002 42.128136 99.895620 0.900747 -0.038605 0.432626 0 0
    0 -29.789092 29.789085 99.895620 0.956863 -0.075011 0.280690 0 0
    0 -29.789094 29.789090 2.435505 0.958888 0.037585 0.281284 0 0
  phy
    0 -0.000002 46.065239 99.895620 -0.998208 -0.020162 -0.056339 0 0
    0 -17.051413 41.165746 99.895620 -0.919997 -0.091576 -0.381075 0 0
    0 -0.000002 42.128136 99.895620 0.900747 -0.038605 0.432626 0 0
  phy
    0 -17.051413 41.165746 99.895620 -0.919997 -0.091576 -0.381075 0 0
    0 -29.789092 29.789085 99.895620 0.956863 -0.075011 0.280690 0 0
    0 -0.000002 42.128136 99.895620 0.900747 -0.038605 0.432626 0 0
  phy
    0 -32.573044 32.573044 2.435505 -0.654448 0.186515 -0.732742 0 0
    0 -29.789094 29.789090 2.435505 0.187985 0.033409 0.981604 0 0
    0 -42.128141 -0.000002 2.435504 0.432634 0.038089 0.900765 0 0
  phy
    0 -32.573044 32.573044 2.435505 -0.654448 0.186515 -0.732742 0 0
    0 -42.128141 -0.000002 2.435504 0.432634 0.038089 0.900765 0 0
    0 -46.065239 -0.000002 2.435503 0.170679 0.116987 -0.978357 0 0
  phy
    0 -29.789094 29.789085 99.895620 0.330861 -0.048997 0.942407 0 0
    0 -42.128141 -0.000002 2.435504 0.432634 0.038089 0.900765 0 0
    0 -29.789094 29.789090 2.435505 0.187985 0.033409 0.981604 0 0
  phy
    0 -29.789094 29.789085 99.895620 0.330861 -0.048997 0.942407 0 0
    0 -42.128141 -0.000006 99.895620 0.561173 -0.033409 0.827024 0 0
    0 -42.128141 -0.000002 2.435504 0.432634 0.038089 0.900765 0 0
  phy
    0 -42.128141 -0.000002 2.435504 0.432634 0.038089 0.900765 0 0
    0 -42.128141 -0.000006 99.895620 0.561173 -0.033409 0.827024 0 0
    0 -46.065239 -0.000002 2.435503 0.170679 0.116987 -0.978357 0 0
  phy
    0 -42.128141 -0.000006 99.895620 0.561173 -0.033409 0.827024 0 0
    0 -46.065239 -0.000006 99.895620 -0.168945 -0.073594 -0.982874 0 0
    0 -46.065239 -0.000002 2.435503 0.170679 0.116987 -0.978357 0 0
  phy
    0 -32.573044 32.573040 99.895620 -0.666002 -0.020162 -0.745678 0 0
    0 -41.165746 17.051405 99.895620 -0.382045 -0.057734 -0.922339 0 0
    0 -29.789094 29.789085 99.895620 0.330861 -0.048997 0.942407 0 0
  phy
    0 -41.165746 17.051405 99.895620 -0.382045 -0.057734 -0.922339 0 0
    0 -46.065239 -0.000006 99.895620 -0.168945 -0.073594 -0.982874 0 0
    0 -29.789094 29.789085 99.895620 0.330861 -0.048997 0.942407 0 0
  phy
    0 -32.573044 32.573040 99.895620 -0.666002 -0.020162 -0.745678 0 0
    0 -41.165746 17.051408 2.435504 -0.382663 0.010254 -0.923831 0 0
    0 -41.165746 17.051405 99.895620 -0.382045 -0.057734 -0.922339 0 0
  phy
    0 -41.165746 17.051408 2.435504 -0.382663 0.010254 -0.923831 0 0
    0 -32.573044 32.573040 99.895620 -0.666002 -0.020162 -0.745678 0 0
    0 -32.573044 32.573044 2.435505 -0.654448 0.186515 -0.732742 0 0
  phy
    0 -32.573044 32.573040 99.895620 -0.666002 -0.020162 -0.745678 0 0
    0 -29.789094 29.789085 99.895620 0.330861 -0.048997 0.942407 0 0
    0 -29.789094 29.789090 2.435505 0.187985 0.033409 0.981604 0 0
  phy
    0 -29.789094 29.789090 2.435505 0.187985 0.033409 0.981604 0 0
    0 -32.573044 32.573044 2.435505 -0.654448 0.186515 -0.732742 0 0
    0 -32.573044 32.573040 99.895620 -0.666002 -0.020162 -0.745678 0 0
  phy
    0 -41.165746 17.051405 99.895620 -0.382045 -0.057734 -0.922339 0 0
    0 -41.165746 17.051408 2.435504 -0.382663 0.010254 -0.923831 0 0
    0 -46.065239 -0.000006 99.895620 -0.168945 -0.073594 -0.982874 0 0
  phy
    0 -41.165746 17.051408 2.435504 -0.382663 0.010254 -0.923831 0 0
    0 -46.065239 -0.000002 2.435503 0.170679 0.116987 -0.978357 0 0
    0 -46.065239 -0.000006 99.895620 -0.168945 -0.073594 -0.982874 0 0
  phy
    0 -46.065239 -0.000002 2.435503 0.170679 0.116987 -0.978357 0 0
    0 -41.165746 17.051408 2.435504 -0.382663 0.010254 -0.923831 0 0
    0 -32.573044 32.573044 2.435505 -0.654448 0.186515 -0.732742 0 0
  phy
    0 -29.789094 29.789085 99.895620 0.330861 -0.048997 0.942407 0 0
    0 -46.065239 -0.000006 99.895620 -0.168945 -0.073594 -0.982874 0 0
    0 -42.128141 -0.000006 99.895620 0.561173 -0.033409 0.827024 0 0
  phy
    0 -29.789090 -29.789094 2.435503 -0.331204 0.018204 0.943384 0 0
    0 -32.573044 -32.573044 2.435502 0.663156 0.094499 -0.742492 0 0
    0 -42.128141 -0.000002 2.435504 -0.478163 0.074011 0.875147 0 0
  phy
    0 -42.128141 -0.000002 2.435504 -0.478163 0.074011 0.875147 0 0
    0 -32.573044 -32.573044 2.435502 0.663156 0.094499 -0.742492 0 0
    0 -46.065239 -0.000002 2.435503 0.056251 0.059586 -0.996637 0 0
  phy
    0 -42.128141 -0.000002 2.435504 -0.478163 0.074011 0.875147 0 0
    0 -46.065239 -0.000002 2.435503 0.056251 0.059586 -0.996637 0 0
    0 -42.128141 -0.000006 99.895620 -0.479402 -0.017723 0.877416 0 0
  phy
    0 -42.128141 -0.000006 99.895620 -0.479402 -0.017723 0.877416 0 0
    0 -46.065239 -0.000002 2.435503 0.056251 0.059586 -0.996637 0 0
    0 -46.065239 -0.000006 99.895620 0.055732 -0.147870 -0.987435 0 0
  phy
    0 -46.065239 -0.000002 2.435503 0.056251 0.059586 -0.996637 0 0
    0 -41.165746 -17.051413 2.435502 0.382603 0.020504 -0.923685 0 0
    0 -41.165746 -17.051416 99.895620 0.382524 -0.028903 -0.923494 0 0
  phy
    0 -46.065239 -0.000006 99.895620 0.055732 -0.147870 -0.987435 0 0
    0 -46.065239 -0.000002 2.435503 0.056251 0.059586 -0.996637 0 0
    0 -41.165746 -17.051416 99.895620 0.382524 -0.028903 -0.923494 0 0
  phy
    0 -41.165746 -17.051413 2.435502 0.382603 0.020504 -0.923685 0 0
    0 -46.065239 -0.000002 2.435503 0.056251 0.059586 -0.996637 0 0
    0 -32.573044 -32.573044 2.435502 0.663156 0.094499 -0.742492 0 0
  phy
    0 -29.789090 -29.789099 99.895620 -0.187332 -0.089702 0.978192 0 0
    0 -41.165746 -17.051416 99.895620 0.382524 -0.028903 -0.923494 0 0
    0 -32.573044 -32.573049 99.895620 0.665596 -0.040300 -0.745223 0 0
  phy
    0 -29.789090 -29.789099 99.895620 -0.187332 -0.089702 0.978192 0 0
    0 -46.065239 -0.000006 99.895620 0.055732 -0.147870 -0.987435 0 0
    0 -41.165746 -17.051416 99.895620 0.382524 -0.028903 -0.923494 0 0
  phy
    0 -29.789090 -29.789099 99.895620 -0.187332 -0.089702 0.978192 0 0
    0 -32.573044 -32.573044 2.435502 0.663156 0.094499 -0.742492 0 0
    0 -29.789090 -29.789094 2.435503 -0.331204 0.018204 0.943384 0 0
  phy
    0 -29.789090 -29.789099 99.895620 -0.187332 -0.089702 0.978192 0 0
    0 -32.573044 -32.573049 99.895620 0.665596 -0.040300 -0.745223 0 0
    0 -32.573044 -32.573044 2.435502 0.663156 0.094499 -0.742492 0 0
  phy
    0 -29.789090 -29.789099 99.895620 -0.187332 -0.089702 0.978192 0 0
    0 -42.128141 -0.000006 99.895620 -0.479402 -0.017723 0.877416 0 0
    0 -46.065239 -0.000006 99.895620 0.055732 -0.147870 -0.987435 0 0
  phy
    0 -29.789090 -29.789094 2.435503 -0.331204 0.018204 0.943384 0 0
    0 -42.128141 -0.000006 99.895620 -0.479402 -0.017723 0.877416 0 0
    0 -29.789090 -29.789099 99.895620 -0.187332 -0.089702 0.978192 0 0
  phy
    0 -41.165746 -17.051416 99.895620 0.382524 -0.028903 -0.923494 0 0
    0 -41.165746 -17.051413 2.435502 0.382603 0.020504 -0.923685 0 0
    0 -32.573044 -32.573044 2.435502 0.663156 0.094499 -0.742492 0 0
  phy
    0 -29.789090 -29.789094 2.435503 -0.331204 0.018204 0.943384 0 0
    0 -42.128141 -0.000002 2.435504 -0.478163 0.074011 0.875147 0 0
    0 -42.128141 -0.000006 99.895620 -0.479402 -0.017723 0.877416 0 0
  phy
    0 -41.165746 -17.051416 99.895620 0.382524 -0.028903 -0.923494 0 0
    0 -32.573044 -32.573044 2.435502 0.663156 0.094499 -0.742492 0 0
    0 -32.573044 -32.573049 99.895620 0.665596 -0.040300 -0.745223 0 0
  phy
    0 0.000002 -42.128141 2.435502 -0.877003 0.035428 0.479176 0 0
    0 0.000002 -46.065239 2.435501 0.993943 0.094499 -0.056099 0 0
    0 -29.789090 -29.789094 2.435503 -0.958906 0.037082 0.281289 0 0
  phy
    0 -29.789090 -29.789094 2.435503 -0.958906 0.037082 0.281289 0 0
    0 0.000002 -46.065239 2.435501 0.993943 0.094499 -0.056099 0 0
    0 -32.573047 -32.573044 2.435502 0.740570 0.118543 -0.661440 0 0
  phy
    0 -17.051408 -41.165746 2.435501 0.908683 0.013661 -0.417264 0 0
    0 -32.573047 -32.573049 99.895620 0.745678 -0.020162 -0.666002 0 0
    0 -32.573047 -32.573044 2.435502 0.740570 0.118543 -0.661440 0 0
  phy
    0 -17.051408 -41.165746 2.435501 0.908683 0.013661 -0.417264 0 0
    0 -17.051408 -41.165751 99.895620 0.935919 -0.061150 -0.346868 0 0
    0 -32.573047 -32.573049 99.895620 0.745678 -0.020162 -0.666002 0 0
  phy
    0 -29.789090 -29.789094 2.435503 -0.958906 0.037082 0.281289 0 0
    0 -32.573047 -32.573044 2.435502 0.740570 0.118543 -0.661440 0 0
    0 -32.573047 -32.573049 99.895620 0.745678 -0.020162 -0.666002 0 0
  phy
    0 -29.789090 -29.789094 2.435503 -0.958906 0.037082 0.281289 0 0
    0 -32.573047 -32.573049 99.895620 0.745678 -0.020162 -0.666002 0 0
    0 -29.789087 -29.789097 99.895620 -0.956863 -0.075011 0.280690 0 0
  phy
    0 -32.573047 -32.573044 2.435502 0.740570 0.118543 -0.661440 0 0
    0 0.000002 -46.065239 2.435501 0.993943 0.094499 -0.056099 0 0
    0 -17.051408 -41.165746 2.435501 0.908683 0.013661 -0.417264 0 0
  phy
    0 0.000002 -42.128141 2.435502 -0.877003 0.035428 0.479176 0 0
    0 0.000002 -42.128141 99.895620 -0.876934 -0.037585 0.479139 0 0
    0 0.000002 -46.065239 2.435501 0.993943 0.094499 -0.056099 0 0
  phy
    0 0.000002 -42.128141 99.895620 -0.876934 -0.037585 0.479139 0 0
    0 0.000002 -46.065243 99.895620 0.997600 -0.040300 -0.056305 0 0
    0 0.000002 -46.065239 2.435501 0.993943 0.094499 -0.056099 0 0
  phy
    0 0.000002 -46.065239 2.435501 0.993943 0.094499 -0.056099 0 0
    0 -17.051408 -41.165751 99.895620 0.935919 -0.061150 -0.346868 0 0
    0 -17.051408 -41.165746 2.435501 0.908683 0.013661 -0.417264 0 0
  phy
    0 0.000002 -46.065239 2.435501 0.993943 0.094499 -0.056099 0 0
    0 0.000002 -46.065243 99.895620 0.997600 -0.040300 -0.056305 0 0
    0 -17.051408 -41.165751 99.895620 0.935919 -0.061150 -0.346868 0 0
  phy
    0 0.000002 -46.065243 99.895620 0.997600 -0.040300 -0.056305 0 0
    0 0.000002 -42.128141 99.895620 -0.876934 -0.037585 0.479139 0 0
    0 -17.051408 -41.165751 99.895620 0.935919 -0.061150 -0.346868 0 0
  phy
    0 0.000002 -42.128141 99.895620 -0.876934 -0.037585 0.479139 0 0
    0 -29.789087 -29.789097 99.895620 -0.956863 -0.075011 0.280690 0 0
    0 -17.051408 -41.165751 99.895620 0.935919 -0.061150 -0.346868 0 0
  phy
    0 -29.789087 -29.789097 99.895620 -0.956863 -0.075011 0.280690 0 0
    0 -32.573047 -32.573049 99.895620 0.745678 -0.020162 -0.666002 0 0
    0 -17.051408 -41.165751 99.895620 0.935919 -0.061150 -0.346868 0 0
  phy
    0 0.000002 -42.128141 99.895620 -0.876934 -0.037585 0.479139 0 0
    0 0.000002 -42.128141 2.435502 -0.877003 0.035428 0.479176 0 0
    0 -29.789090 -29.789094 2.435503 -0.958906 0.037082 0.281289 0 0
  phy
    0 -29.789087 -29.789097 99.895620 -0.956863 -0.075011 0.280690 0 0
    0 0.000002 -42.128141 99.895620 -0.876934 -0.037585 0.479139 0 0
    0 -29.789090 -29.789094 2.435503 -0.958906 0.037082 0.281289 0 0
  phy
    0 17.051413 -41.165746 2.435501 0.919997 0.091576 0.381075 0 0
    0 0.000002 -46.065239 2.435501 0.998208 0.020162 0.056339 0 0
    0 0.000002 -42.128141 2.435502 -0.875082 0.075011 -0.478127 0 0
  phy
    0 17.051413 -41.165746 2.435501 0.919997 0.091576 0.381075 0 0
    0 0.000002 -42.128141 2.435502 -0.875082 0.075011 -0.478127 0 0
    0 29.789094 -29.789090 2.435503 -0.958888 0.037585 -0.281284 0 0
  phy
    0 17.051413 -41.165746 2.435501 0.919997 0.091576 0.381075 0 0
    0 29.789094 -29.789090 2.435503 -0.958888 0.037585 -0.281284 0 0
    0 32.573047 -32.573044 2.435502 0.816512 0.019903 0.576986 0 0
  phy
    0 32.573047 -32.573044 2.435502 0.816512 0.019903 0.576986 0 0
    0 29.789094 -29.789090 2.435503 -0.958888 0.037585 -0.281284 0 0
    0 32.573047 -32.573049 99.895620 0.568905 -0.145944 0.809350 0 0
  phy
    0 29.789094 -29.789090 2.435503 -0.958888 0.037585 -0.281284 0 0
    0 29.789092 -29.789092 99.895620 -0.958964 -0.035428 -0.281306 0 0
    0 32.573047 -32.573049 99.895620 0.568905 -0.145944 0.809350 0 0
  phy
    0 32.573047 -32.573044 2.435502 0.816512 0.019903 0.576986 0 0
    0 17.051413 -41.165751 99.895620 0.923494 -0.028903 0.382523 0 0
    0 17.051413 -41.165746 2.435501 0.919997 0.091576 0.381075 0 0
  phy
    0 32.573047 -32.573049 99.895620 0.568905 -0.145944 0.809350 0 0
    0 17.051413 -41.165751 99.895620 0.923494 -0.028903 0.382523 0 0
    0 32.573047 -32.573044 2.435502 0.816512 0.019903 0.576986 0 0
  phy
    0 0.000002 -42.128141 2.435502 -0.875082 0.075011 -0.478127 0 0
    0 0.000002 -46.065239 2.435501 0.998208 0.020162 0.056339 0 0
    0 0.000002 -42.128141 99.895620 -0.876555 -0.047703 -0.478932 0 0
  phy
    0 0.000002 -42.128141 99.895620 -0.876555 -0.047703 -0.478932 0 0
    0 0.000002 -46.065239 2.435501 0.998208 0.020162 0.056339 0 0
    0 0.000002 -46.065243 99.895620 0.997600 -0.040300 0.056305 0 0
  phy
    0 17.051413 -41.165746 2.435501 0.919997 0.091576 0.381075 0 0
    0 17.051413 -41.165751 99.895620 0.923494 -0.028903 0.382523 0 0
    0 0.000002 -46.065239 2.435501 0.998208 0.020162 0.056339 0 0
  phy
    0 17.051413 -41.165751 99.895620 0.923494 -0.028903 0.382523 0 0
    0 0.000002 -46.065243 99.895620 0.997600 -0.040300 0.056305 0 0
    0 0.000002 -46.065239 2.435501 0.998208 0.020162 0.056339 0 0
  phy
    0 0.000002 -42.128141 99.895620 -0.876555 -0.047703 -0.478932 0 0
    0 29.789092 -29.789092 99.895620 -0.958964 -0.035428 -0.281306 0 0
    0 29.789094 -29.789090 2.435503 -0.958888 0.037585 -0.281284 0 0
  phy
    0 0.000002 -42.128141 99.895620 -0.876555 -0.047703 -0.478932 0 0
    0 29.789094 -29.789090 2.435503 -0.958888 0.037585 -0.281284 0 0
    0 0.000002 -42.128141 2.435502 -0.875082 0.075011 -0.478127 0 0
  phy
    0 0.000002 -46.065243 99.895620 0.997600 -0.040300 0.056305 0 0
    0 17.051413 -41.165751 99.895620 0.923494 -0.028903 0.382523 0 0
    0 0.000002 -42.128141 99.895620 -0.876555 -0.047703 -0.478932 0 0
  phy
    0 17.051413 -41.165751 99.895620 0.923494 -0.028903 0.382523 0 0
    0 32.573047 -32.573049 99.895620 0.568905 -0.145944 0.809350 0 0
    0 0.000002 -42.128141 99.895620 -0.876555 -0.047703 -0.478932 0 0
  phy
    0 32.573047 -32.573049 99.895620 0.568905 -0.145944 0.809350 0 0
    0 29.789092 -29.789092 99.895620 -0.958964 -0.035428 -0.281306 0 0
    0 0.000002 -42.128141 99.895620 -0.876555 -0.047703 -0.478932 0 0
end
