// Created by Crowbar 0.74
version 1
nodes
  0 "static_prop" -1
end
skeleton
  time 0
    0 0.000000 0.000000 0.000000 0.000000 0.000000 0.000000
end
triangles
  phy
    0 4.868535 60.476956 -0.007922 -0.839225 0.000000 0.543785 0 0
    0 12.090261 49.488319 -0.007923 -0.047334 0.924375 0.378536 0 0
    0 -4.868541 60.476956 -0.007922 -0.966129 0.000000 -0.258061 0 0
  phy
    0 -4.868541 60.476956 -0.007922 -0.966129 0.000000 -0.258061 0 0
    0 12.090261 49.488319 -0.007923 -0.047334 0.924375 0.378536 0 0
    0 -12.090265 49.488319 -0.007923 -0.037184 0.989035 -0.142920 0 0
  phy
    0 -12.090265 49.488319 -0.007923 -0.037184 0.989035 -0.142920 0 0
    0 12.090261 49.488319 -0.007923 -0.047334 0.924375 0.378536 0 0
    0 12.042840 32.901672 -0.007924 0.278447 0.941192 0.191376 0 0
  phy
    0 -12.090265 49.488319 -0.007923 -0.037184 0.989035 -0.142920 0 0
    0 12.042840 32.901672 -0.007924 0.278447 0.941192 0.191376 0 0
    0 -12.042845 32.901672 -0.007924 0.706579 0.596165 -0.381225 0 0
  phy
    0 -4.868541 60.476956 -0.007922 -0.966129 0.000000 -0.258061 0 0
    0 -12.090265 49.488319 5.579817 -0.351225 -0.845659 -0.401871 0 0
    0 12.090261 49.488319 5.579817 -0.344049 -0.930958 0.122260 0 0
  phy
    0 12.090261 49.488319 5.579817 -0.344049 -0.930958 0.122260 0 0
    0 4.868535 60.476956 -0.007922 -0.839225 0.000000 0.543785 0 0
    0 -4.868541 60.476956 -0.007922 -0.966129 0.000000 -0.258061 0 0
  phy
    0 -12.090265 49.488319 5.579817 -0.351225 -0.845659 -0.401871 0 0
    0 -4.868541 60.476956 -0.007922 -0.966129 0.000000 -0.258061 0 0
    0 -12.090265 49.488319 -0.007923 -0.037184 0.989035 -0.142920 0 0
  phy
    0 -12.090265 49.488319 5.579817 -0.351225 -0.845659 -0.401871 0 0
    0 -12.042845 32.901672 9.806223 0.040182 -0.979156 -0.199095 0 0
    0 12.090261 49.488319 5.579817 -0.344049 -0.930958 0.122260 0 0
  phy
    0 -12.042845 32.901672 9.806223 0.040182 -0.979156 -0.199095 0 0
    0 12.042840 32.901672 9.806223 0.616909 -0.663058 0.424001 0 0
    0 12.090261 49.488319 5.579817 -0.344049 -0.930958 0.122260 0 0
  phy
    0 12.090261 49.488319 5.579817 -0.344049 -0.930958 0.122260 0 0
    0 12.042840 32.901672 9.806223 0.616909 -0.663058 0.424001 0 0
    0 12.090261 49.488319 -0.007923 -0.047334 0.924375 0.378536 0 0
  phy
    0 12.090261 49.488319 -0.007923 -0.047334 0.924375 0.378536 0 0
    0 4.868535 60.476956 -0.007922 -0.839225 0.000000 0.543785 0 0
    0 12.090261 49.488319 5.579817 -0.344049 -0.930958 0.122260 0 0
  phy
    0 -12.042845 32.901672 9.806223 0.040182 -0.979156 -0.199095 0 0
    0 -12.090265 49.488319 5.579817 -0.351225 -0.845659 -0.401871 0 0
    0 -12.042845 32.901672 -0.007924 0.706579 0.596165 -0.381225 0 0
  phy
    0 -12.090265 49.488319 5.579817 -0.351225 -0.845659 -0.401871 0 0
    0 -12.090265 49.488319 -0.007923 -0.037184 0.989035 -0.142920 0 0
    0 -12.042845 32.901672 -0.007924 0.706579 0.596165 -0.381225 0 0
  phy
    0 12.090261 49.488319 -0.007923 -0.047334 0.924375 0.378536 0 0
    0 12.042840 32.901672 9.806223 0.616909 -0.663058 0.424001 0 0
    0 12.042840 32.901672 -0.007924 0.278447 0.941192 0.191376 0 0
  phy
    0 12.042840 32.901672 9.806223 0.616909 -0.663058 0.424001 0 0
    0 -12.042845 32.901672 -0.007924 0.706579 0.596165 -0.381225 0 0
    0 12.042840 32.901672 -0.007924 0.278447 0.941192 0.191376 0 0
  phy
    0 -12.042845 32.901672 9.806223 0.040182 -0.979156 -0.199095 0 0
    0 -12.042845 32.901672 -0.007924 0.706579 0.596165 -0.381225 0 0
    0 12.042840 32.901672 9.806223 0.616909 -0.663058 0.424001 0 0
  phy
    0 -27.914036 48.431336 0.123512 -0.884288 0.000000 -0.466942 0 0
    0 -12.115099 53.858236 0.123513 -0.721740 0.000000 0.692164 0 0
    0 -12.131162 33.295239 0.123512 0.232150 0.913692 0.333578 0 0
  phy
    0 -27.914036 48.431336 0.123512 -0.884288 0.000000 -0.466942 0 0
    0 -12.131162 33.295239 0.123512 0.232150 0.913692 0.333578 0 0
    0 -39.189707 39.561682 0.123511 -0.475508 -0.745468 -0.467086 0 0
  phy
    0 -39.189707 39.561682 0.123511 -0.475508 -0.745468 -0.467086 0 0
    0 -12.131162 33.295239 0.123512 0.232150 0.913692 0.333578 0 0
    0 -48.355455 27.913059 0.123511 -0.179193 0.921678 -0.344092 0 0
  phy
    0 -48.355455 27.913059 0.123511 -0.179193 0.921678 -0.344092 0 0
    0 -12.131162 33.295239 0.123512 0.232150 0.913692 0.333578 0 0
    0 -33.755978 12.492304 0.123511 0.383137 0.903283 0.193095 0 0
  phy
    0 -48.355455 27.913059 0.123511 -0.179193 0.921678 -0.344092 0 0
    0 -33.755978 12.492304 0.123511 0.383137 0.903283 0.193095 0 0
    0 -53.243402 12.575292 0.123510 0.687505 0.000000 -0.726180 0 0
  phy
    0 -39.189707 39.561682 0.123511 -0.475508 -0.745468 -0.467086 0 0
    0 -12.131162 33.295239 9.785331 -0.192150 -0.980356 0.044500 0 0
    0 -27.914036 48.431336 0.123512 -0.884288 0.000000 -0.466942 0 0
  phy
    0 -39.189707 39.561682 0.123511 -0.475508 -0.745468 -0.467086 0 0
    0 -33.755981 12.492303 9.785331 0.195636 -0.979630 -0.045307 0 0
    0 -12.131162 33.295239 9.785331 -0.192150 -0.980356 0.044500 0 0
  phy
    0 -48.355455 27.913059 0.123511 -0.179193 0.921678 -0.344092 0 0
    0 -33.755981 12.492303 9.785331 0.195636 -0.979630 -0.045307 0 0
    0 -39.189707 39.561682 0.123511 -0.475508 -0.745468 -0.467086 0 0
  phy
    0 -12.131162 33.295239 9.785331 -0.192150 -0.980356 0.044500 0 0
    0 -12.115099 53.858236 0.123513 -0.721740 0.000000 0.692164 0 0
    0 -27.914036 48.431336 0.123512 -0.884288 0.000000 -0.466942 0 0
  phy
    0 -12.131162 33.295239 9.785331 -0.192150 -0.980356 0.044500 0 0
    0 -33.755981 12.492303 9.785331 0.195636 -0.979630 -0.045307 0 0
    0 -12.131162 33.295239 0.123512 0.232150 0.913692 0.333578 0 0
  phy
    0 -12.131162 33.295239 0.123512 0.232150 0.913692 0.333578 0 0
    0 -33.755981 12.492303 9.785331 0.195636 -0.979630 -0.045307 0 0
    0 -33.755978 12.492304 0.123511 0.383137 0.903283 0.193095 0 0
  phy
    0 -12.131162 33.295239 0.123512 0.232150 0.913692 0.333578 0 0
    0 -12.115099 53.858236 0.123513 -0.721740 0.000000 0.692164 0 0
    0 -12.131162 33.295239 9.785331 -0.192150 -0.980356 0.044500 0 0
  phy
    0 -53.243402 12.575292 0.123510 0.687505 0.000000 -0.726180 0 0
    0 -33.755981 12.492303 9.785331 0.195636 -0.979630 -0.045307 0 0
    0 -48.355455 27.913059 0.123511 -0.179193 0.921678 -0.344092 0 0
  phy
    0 -33.755978 12.492304 0.123511 0.383137 0.903283 0.193095 0 0
    0 -33.755981 12.492303 9.785331 0.195636 -0.979630 -0.045307 0 0
    0 -53.243402 12.575292 0.123510 0.687505 0.000000 -0.726180 0 0
  phy
    0 -49.533961 12.556805 5.579816 -0.269657 -0.907418 -0.322302 0 0
    0 -60.522599 5.335077 -0.007925 -0.258061 0.000000 -0.966129 0 0
    0 -49.533961 -11.623722 5.579814 0.180024 -0.904049 -0.387668 0 0
  phy
    0 -60.522599 5.335077 -0.007925 -0.258061 0.000000 -0.966129 0 0
    0 -60.522599 -4.401998 -0.007926 0.543785 0.000000 -0.839225 0 0
    0 -49.533961 -11.623722 5.579814 0.180024 -0.904049 -0.387668 0 0
  phy
    0 -60.522599 -4.401998 -0.007926 0.543785 0.000000 -0.839225 0 0
    0 -60.522599 5.335077 -0.007925 -0.258061 0.000000 -0.966129 0 0
    0 -49.533961 -11.623722 -0.007926 0.260589 0.964900 -0.032585 0 0
  phy
    0 -49.533961 -11.623722 -0.007926 0.260589 0.964900 -0.032585 0 0
    0 -60.522599 5.335077 -0.007925 -0.258061 0.000000 -0.966129 0 0
    0 -49.533961 12.556804 -0.007924 -0.224766 0.972657 -0.058478 0 0
  phy
    0 -49.533961 -11.623722 -0.007926 0.260589 0.964900 -0.032585 0 0
    0 -49.533961 12.556804 -0.007924 -0.224766 0.972657 -0.058478 0 0
    0 -32.947315 12.509383 -0.007924 -0.264852 0.829989 0.490888 0 0
  phy
    0 -49.533961 -11.623722 -0.007926 0.260589 0.964900 -0.032585 0 0
    0 -32.947315 12.509383 -0.007924 -0.264852 0.829989 0.490888 0 0
    0 -32.947315 -11.576303 -0.007926 0.330772 0.811773 0.481263 0 0
  phy
    0 -49.533961 12.556804 -0.007924 -0.224766 0.972657 -0.058478 0 0
    0 -60.522599 5.335077 -0.007925 -0.258061 0.000000 -0.966129 0 0
    0 -49.533961 12.556805 5.579816 -0.269657 -0.907418 -0.322302 0 0
  phy
    0 -60.522599 -4.401998 -0.007926 0.543785 0.000000 -0.839225 0 0
    0 -49.533961 -11.623722 -0.007926 0.260589 0.964900 -0.032585 0 0
    0 -49.533961 -11.623722 5.579814 0.180024 -0.904049 -0.387668 0 0
  phy
    0 -32.947315 -11.576303 9.806220 0.289479 -0.907163 0.305380 0 0
    0 -32.947315 12.509383 -0.007924 -0.264852 0.829989 0.490888 0 0
    0 -32.947315 12.509383 9.806222 -0.360111 -0.883778 0.298758 0 0
  phy
    0 -32.947315 -11.576303 9.806220 0.289479 -0.907163 0.305380 0 0
    0 -32.947315 -11.576303 -0.007926 0.330772 0.811773 0.481263 0 0
    0 -32.947315 12.509383 -0.007924 -0.264852 0.829989 0.490888 0 0
  phy
    0 -32.947315 -11.576303 9.806220 0.289479 -0.907163 0.305380 0 0
    0 -49.533961 -11.623722 -0.007926 0.260589 0.964900 -0.032585 0 0
    0 -32.947315 -11.576303 -0.007926 0.330772 0.811773 0.481263 0 0
  phy
    0 -32.947315 12.509383 -0.007924 -0.264852 0.829989 0.490888 0 0
    0 -49.533961 12.556804 -0.007924 -0.224766 0.972657 -0.058478 0 0
    0 -49.533961 12.556805 5.579816 -0.269657 -0.907418 -0.322302 0 0
  phy
    0 -49.533961 -11.623722 5.579814 0.180024 -0.904049 -0.387668 0 0
    0 -49.533961 -11.623722 -0.007926 0.260589 0.964900 -0.032585 0 0
    0 -32.947315 -11.576303 9.806220 0.289479 -0.907163 0.305380 0 0
  phy
    0 -32.947315 -11.576303 9.806220 0.289479 -0.907163 0.305380 0 0
    0 -49.533961 12.556805 5.579816 -0.269657 -0.907418 -0.322302 0 0
    0 -49.533961 -11.623722 5.579814 0.180024 -0.904049 -0.387668 0 0
  phy
    0 -32.947315 12.509383 9.806222 -0.360111 -0.883778 0.298758 0 0
    0 -32.947315 12.509383 -0.007924 -0.264852 0.829989 0.490888 0 0
    0 -49.533961 12.556805 5.579816 -0.269657 -0.907418 -0.322302 0 0
  phy
    0 -32.947315 12.509383 9.806222 -0.360111 -0.883778 0.298758 0 0
    0 -49.533961 12.556805 5.579816 -0.269657 -0.907418 -0.322302 0 0
    0 -32.947315 -11.576303 9.806220 0.289479 -0.907163 0.305380 0 0
  phy
    0 -4.997753 -61.064297 -0.007928 0.839225 0.000000 -0.543785 0 0
    0 -12.219479 -50.075664 -0.007927 0.050745 0.979481 -0.195044 0 0
    0 4.739323 -61.064297 -0.007928 0.966129 0.000000 0.258060 0 0
  phy
    0 4.739323 -61.064297 -0.007928 0.966129 0.000000 0.258060 0 0
    0 -12.219479 -50.075664 -0.007927 0.050745 0.979481 -0.195044 0 0
    0 11.961047 -50.075664 -0.007927 0.037184 0.989035 0.142920 0 0
  phy
    0 11.961047 -50.075664 -0.007927 0.037184 0.989035 0.142920 0 0
    0 -12.219479 -50.075664 -0.007927 0.050745 0.979481 -0.195044 0 0
    0 -12.172058 -33.489013 -0.007926 -0.490888 0.829989 -0.264852 0 0
  phy
    0 11.961047 -50.075664 -0.007927 0.037184 0.989035 0.142920 0 0
    0 -12.172058 -33.489013 -0.007926 -0.490888 0.829989 -0.264852 0 0
    0 11.913626 -33.489013 -0.007926 -0.447231 0.753527 0.481852 0 0
  phy
    0 -12.219479 -50.075664 -0.007927 0.050745 0.979481 -0.195044 0 0
    0 -4.997753 -61.064297 -0.007928 0.839225 0.000000 -0.543785 0 0
    0 -12.219479 -50.075664 5.579812 0.335715 -0.909383 -0.245596 0 0
  phy
    0 -4.997753 -61.064297 -0.007928 0.839225 0.000000 -0.543785 0 0
    0 4.739323 -61.064297 -0.007928 0.966129 0.000000 0.258060 0 0
    0 -12.219479 -50.075664 5.579812 0.335715 -0.909383 -0.245596 0 0
  phy
    0 11.961047 -50.075664 -0.007927 0.037184 0.989035 0.142920 0 0
    0 11.913626 -33.489013 -0.007926 -0.447231 0.753527 0.481852 0 0
    0 11.961047 -50.075664 5.579812 0.351225 -0.845659 0.401871 0 0
  phy
    0 11.913626 -33.489013 -0.007926 -0.447231 0.753527 0.481852 0 0
    0 11.913626 -33.489013 9.806219 -0.312998 -0.930709 0.189244 0 0
    0 11.961047 -50.075664 5.579812 0.351225 -0.845659 0.401871 0 0
  phy
    0 11.961047 -50.075664 5.579812 0.351225 -0.845659 0.401871 0 0
    0 4.739323 -61.064297 -0.007928 0.966129 0.000000 0.258060 0 0
    0 11.961047 -50.075664 -0.007927 0.037184 0.989035 0.142920 0 0
  phy
    0 11.961047 -50.075664 5.579812 0.351225 -0.845659 0.401871 0 0
    0 11.913626 -33.489013 9.806219 -0.312998 -0.930709 0.189244 0 0
    0 -12.219479 -50.075664 5.579812 0.335715 -0.909383 -0.245596 0 0
  phy
    0 -12.219479 -50.075664 5.579812 0.335715 -0.909383 -0.245596 0 0
    0 4.739323 -61.064297 -0.007928 0.966129 0.000000 0.258060 0 0
    0 11.961047 -50.075664 5.579812 0.351225 -0.845659 0.401871 0 0
  phy
    0 -12.219479 -50.075664 -0.007927 0.050745 0.979481 -0.195044 0 0
    0 -12.219479 -50.075664 5.579812 0.335715 -0.909383 -0.245596 0 0
    0 -12.172058 -33.489013 -0.007926 -0.490888 0.829989 -0.264852 0 0
  phy
    0 11.913626 -33.489013 9.806219 -0.312998 -0.930709 0.189244 0 0
    0 -12.172058 -33.489013 9.806219 -0.298758 -0.883778 -0.360111 0 0
    0 -12.219479 -50.075664 5.579812 0.335715 -0.909383 -0.245596 0 0
  phy
    0 -12.172058 -33.489013 -0.007926 -0.490888 0.829989 -0.264852 0 0
    0 -12.219479 -50.075664 5.579812 0.335715 -0.909383 -0.245596 0 0
    0 -12.172058 -33.489013 9.806219 -0.298758 -0.883778 -0.360111 0 0
  phy
    0 11.913626 -33.489013 9.806219 -0.312998 -0.930709 0.189244 0 0
    0 11.913626 -33.489013 -0.007926 -0.447231 0.753527 0.481852 0 0
    0 -12.172058 -33.489013 -0.007926 -0.490888 0.829989 -0.264852 0 0
  phy
    0 11.913626 -33.489013 9.806219 -0.312998 -0.930709 0.189244 0 0
    0 -12.172058 -33.489013 -0.007926 -0.490888 0.829989 -0.264852 0 0
    0 -12.172058 -33.489013 9.806219 -0.298758 -0.883778 -0.360111 0 0
  phy
    0 49.754560 -12.078862 -0.007926 0.772136 0.602868 0.200888 0 0
    0 33.167908 -12.031442 -0.007926 0.197919 0.908989 -0.366833 0 0
    0 60.743192 -4.857135 -0.007926 0.257472 0.067511 0.963925 0 0
  phy
    0 60.743192 -4.857135 -0.007926 0.257472 0.067511 0.963925 0 0
    0 33.167908 -12.031442 -0.007926 0.197919 0.908989 -0.366833 0 0
    0 60.743192 4.879939 -0.007925 -0.110034 0.979313 0.169816 0 0
  phy
    0 60.743192 4.879939 -0.007925 -0.110034 0.979313 0.169816 0 0
    0 33.167908 -12.031442 -0.007926 0.197919 0.908989 -0.366833 0 0
    0 49.754560 12.101664 -0.007924 -0.192492 0.980020 0.050081 0 0
  phy
    0 49.754560 12.101664 -0.007924 -0.192492 0.980020 0.050081 0 0
    0 33.167908 -12.031442 -0.007926 0.197919 0.908989 -0.366833 0 0
    0 33.167908 12.054243 -0.007924 -0.481852 0.753527 -0.447231 0 0
  phy
    0 60.743192 4.879939 -0.007925 -0.110034 0.979313 0.169816 0 0
    0 49.754560 12.101664 5.579815 -0.352307 -0.860326 0.368401 0 0
    0 60.743192 -4.857135 -0.007926 0.257472 0.067511 0.963925 0 0
  phy
    0 60.743192 4.879939 -0.007925 -0.110034 0.979313 0.169816 0 0
    0 49.754560 12.101664 -0.007924 -0.192492 0.980020 0.050081 0 0
    0 49.754560 12.101664 5.579815 -0.352307 -0.860326 0.368401 0 0
  phy
    0 33.167908 -12.031442 9.806220 0.360111 -0.883778 -0.298758 0 0
    0 33.167908 -12.031442 -0.007926 0.197919 0.908989 -0.366833 0 0
    0 49.754560 -12.078862 5.579814 0.269657 -0.907418 0.322302 0 0
  phy
    0 33.167908 -12.031442 -0.007926 0.197919 0.908989 -0.366833 0 0
    0 49.754560 -12.078862 -0.007926 0.772136 0.602868 0.200888 0 0
    0 49.754560 -12.078862 5.579814 0.269657 -0.907418 0.322302 0 0
  phy
    0 33.167908 -12.031442 -0.007926 0.197919 0.908989 -0.366833 0 0
    0 33.167908 -12.031442 9.806220 0.360111 -0.883778 -0.298758 0 0
    0 33.167908 12.054243 9.806222 -0.189244 -0.930709 -0.312998 0 0
  phy
    0 33.167908 12.054243 -0.007924 -0.481852 0.753527 -0.447231 0 0
    0 33.167908 -12.031442 -0.007926 0.197919 0.908989 -0.366833 0 0
    0 33.167908 12.054243 9.806222 -0.189244 -0.930709 -0.312998 0 0
  phy
    0 33.167908 12.054243 9.806222 -0.189244 -0.930709 -0.312998 0 0
    0 49.754560 12.101664 5.579815 -0.352307 -0.860326 0.368401 0 0
    0 33.167908 12.054243 -0.007924 -0.481852 0.753527 -0.447231 0 0
  phy
    0 33.167908 12.054243 -0.007924 -0.481852 0.753527 -0.447231 0 0
    0 49.754560 12.101664 5.579815 -0.352307 -0.860326 0.368401 0 0
    0 49.754560 12.101664 -0.007924 -0.192492 0.980020 0.050081 0 0
  phy
    0 60.743192 -4.857135 -0.007926 0.257472 0.067511 0.963925 0 0
    0 49.754560 -12.078862 5.579814 0.269657 -0.907418 0.322302 0 0
    0 49.754560 -12.078862 -0.007926 0.772136 0.602868 0.200888 0 0
  phy
    0 60.743192 -4.857135 -0.007926 0.257472 0.067511 0.963925 0 0
    0 49.754560 12.101664 5.579815 -0.352307 -0.860326 0.368401 0 0
    0 49.754560 -12.078862 5.579814 0.269657 -0.907418 0.322302 0 0
  phy
    0 33.167908 -12.031442 9.806220 0.360111 -0.883778 -0.298758 0 0
    0 49.754560 -12.078862 5.579814 0.269657 -0.907418 0.322302 0 0
    0 33.167908 12.054243 9.806222 -0.189244 -0.930709 -0.312998 0 0
  phy
    0 49.754560 -12.078862 5.579814 0.269657 -0.907418 0.322302 0 0
    0 49.754560 12.101664 5.579815 -0.352307 -0.860326 0.368401 0 0
    0 33.167908 12.054243 9.806222 -0.189244 -0.930709 -0.312998 0 0
  phy
    0 -39.297378 -38.664489 0.123507 0.286743 -0.912450 -0.291913 0 0
    0 -48.167039 -27.388822 0.123507 0.131271 0.959670 -0.248600 0 0
    0 -27.648755 -47.830240 0.123507 0.567186 0.768801 -0.295373 0 0
  phy
    0 -27.648755 -47.830240 0.123507 0.567186 0.768801 -0.295373 0 0
    0 -48.167039 -27.388822 0.123507 0.131271 0.959670 -0.248600 0 0
    0 -12.227996 -33.230765 0.123509 -0.231919 0.907430 0.350407 0 0
  phy
    0 -27.648755 -47.830240 0.123507 0.567186 0.768801 -0.295373 0 0
    0 -12.227996 -33.230765 0.123509 -0.231919 0.907430 0.350407 0 0
    0 -12.310985 -52.718187 0.123508 0.726180 0.000000 0.687505 0 0
  phy
    0 -12.227996 -33.230765 0.123509 -0.231919 0.907430 0.350407 0 0
    0 -48.167039 -27.388822 0.123507 0.131271 0.959670 -0.248600 0 0
    0 -33.030932 -11.605948 0.123509 -0.370335 0.908469 0.193743 0 0
  phy
    0 -33.030932 -11.605948 0.123509 -0.370335 0.908469 0.193743 0 0
    0 -48.167039 -27.388822 0.123507 0.131271 0.959670 -0.248600 0 0
    0 -53.593934 -11.589884 0.123508 -0.692164 0.000000 -0.721740 0 0
  phy
    0 -12.227996 -33.230765 9.785328 0.195761 -0.979864 0.039296 0 0
    0 -39.297378 -38.664489 0.123507 0.286743 -0.912450 -0.291913 0 0
    0 -27.648755 -47.830240 0.123507 0.567186 0.768801 -0.295373 0 0
  phy
    0 -27.648755 -47.830240 0.123507 0.567186 0.768801 -0.295373 0 0
    0 -12.310985 -52.718187 0.123508 0.726180 0.000000 0.687505 0 0
    0 -12.227996 -33.230765 9.785328 0.195761 -0.979864 0.039296 0 0
  phy
    0 -12.227996 -33.230765 9.785328 0.195761 -0.979864 0.039296 0 0
    0 -12.227996 -33.230765 0.123509 -0.231919 0.907430 0.350407 0 0
    0 -33.030932 -11.605948 9.785329 -0.192271 -0.980583 -0.038595 0 0
  phy
    0 -12.227996 -33.230765 0.123509 -0.231919 0.907430 0.350407 0 0
    0 -33.030932 -11.605948 0.123509 -0.370335 0.908469 0.193743 0 0
    0 -33.030932 -11.605948 9.785329 -0.192271 -0.980583 -0.038595 0 0
  phy
    0 -12.227996 -33.230765 9.785328 0.195761 -0.979864 0.039296 0 0
    0 -12.310985 -52.718187 0.123508 0.726180 0.000000 0.687505 0 0
    0 -12.227996 -33.230765 0.123509 -0.231919 0.907430 0.350407 0 0
  phy
    0 -12.227996 -33.230765 9.785328 0.195761 -0.979864 0.039296 0 0
    0 -33.030932 -11.605948 9.785329 -0.192271 -0.980583 -0.038595 0 0
    0 -39.297378 -38.664489 0.123507 0.286743 -0.912450 -0.291913 0 0
  phy
    0 -39.297378 -38.664489 0.123507 0.286743 -0.912450 -0.291913 0 0
    0 -33.030932 -11.605948 9.785329 -0.192271 -0.980583 -0.038595 0 0
    0 -48.167039 -27.388822 0.123507 0.131271 0.959670 -0.248600 0 0
  phy
    0 -33.030932 -11.605948 9.785329 -0.192271 -0.980583 -0.038595 0 0
    0 -53.593934 -11.589884 0.123508 -0.692164 0.000000 -0.721740 0 0
    0 -48.167039 -27.388822 0.123507 0.131271 0.959670 -0.248600 0 0
  phy
    0 -33.030932 -11.605948 9.785329 -0.192271 -0.980583 -0.038595 0 0
    0 -33.030932 -11.605948 0.123509 -0.370335 0.908469 0.193743 0 0
    0 -53.593934 -11.589884 0.123508 -0.692164 0.000000 -0.721740 0 0
  phy
    0 48.033384 -27.522963 0.123507 0.129193 0.960086 0.248081 0 0
    0 33.433902 -12.102202 9.785329 -0.039296 -0.979864 0.195761 0 0
    0 38.867626 -39.171581 0.123508 0.291913 -0.912450 0.286743 0 0
  phy
    0 38.867626 -39.171581 0.123508 0.291913 -0.912450 0.286743 0 0
    0 27.591964 -48.041250 0.123503 0.549817 0.783206 0.290327 0 0
    0 48.033384 -27.522963 0.123507 0.129193 0.960086 0.248081 0 0
  phy
    0 38.867626 -39.171581 0.123508 0.291913 -0.912450 0.286743 0 0
    0 11.809083 -32.905138 9.785328 0.038595 -0.980583 -0.192271 0 0
    0 27.591964 -48.041250 0.123503 0.549817 0.783206 0.290327 0 0
  phy
    0 38.867626 -39.171581 0.123508 0.291913 -0.912450 0.286743 0 0
    0 33.433902 -12.102202 9.785329 -0.039296 -0.979864 0.195761 0 0
    0 11.809083 -32.905138 9.785328 0.038595 -0.980583 -0.192271 0 0
  phy
    0 27.591964 -48.041250 0.123503 0.549817 0.783206 0.290327 0 0
    0 11.793019 -53.468149 0.123502 0.721740 0.000000 -0.692164 0 0
    0 11.809083 -32.905138 0.123506 -0.126129 0.962272 -0.241091 0 0
  phy
    0 27.591964 -48.041250 0.123503 0.549817 0.783206 0.290327 0 0
    0 11.809083 -32.905138 0.123506 -0.126129 0.962272 -0.241091 0 0
    0 48.033384 -27.522963 0.123507 0.129193 0.960086 0.248081 0 0
  phy
    0 48.033384 -27.522963 0.123507 0.129193 0.960086 0.248081 0 0
    0 11.809083 -32.905138 0.123506 -0.126129 0.962272 -0.241091 0 0
    0 33.433900 -12.102203 0.123510 -0.511314 0.789958 -0.338416 0 0
  phy
    0 48.033384 -27.522963 0.123507 0.129193 0.960086 0.248081 0 0
    0 33.433900 -12.102203 0.123510 -0.511314 0.789958 -0.338416 0 0
    0 52.921326 -12.185192 0.123510 -0.687505 0.000000 0.726180 0 0
  phy
    0 11.809083 -32.905138 9.785328 0.038595 -0.980583 -0.192271 0 0
    0 11.793019 -53.468149 0.123502 0.721740 0.000000 -0.692164 0 0
    0 27.591964 -48.041250 0.123503 0.549817 0.783206 0.290327 0 0
  phy
    0 11.809083 -32.905138 9.785328 0.038595 -0.980583 -0.192271 0 0
    0 33.433902 -12.102202 9.785329 -0.039296 -0.979864 0.195761 0 0
    0 33.433900 -12.102203 0.123510 -0.511314 0.789958 -0.338416 0 0
  phy
    0 11.809083 -32.905138 9.785328 0.038595 -0.980583 -0.192271 0 0
    0 33.433900 -12.102203 0.123510 -0.511314 0.789958 -0.338416 0 0
    0 11.809083 -32.905138 0.123506 -0.126129 0.962272 -0.241091 0 0
  phy
    0 11.809083 -32.905138 9.785328 0.038595 -0.980583 -0.192271 0 0
    0 11.809083 -32.905138 0.123506 -0.126129 0.962272 -0.241091 0 0
    0 11.793019 -53.468149 0.123502 0.721740 0.000000 -0.692164 0 0
  phy
    0 52.921326 -12.185192 0.123510 -0.687505 0.000000 0.726180 0 0
    0 33.433902 -12.102202 9.785329 -0.039296 -0.979864 0.195761 0 0
    0 48.033384 -27.522963 0.123507 0.129193 0.960086 0.248081 0 0
  phy
    0 52.921326 -12.185192 0.123510 -0.687505 0.000000 0.726180 0 0
    0 33.433900 -12.102203 0.123510 -0.511314 0.789958 -0.338416 0 0
    0 33.433902 -12.102202 9.785329 -0.039296 -0.979864 0.195761 0 0
  phy
    0 39.186790 39.223777 0.123509 -0.286743 -0.912450 0.291913 0 0
    0 48.056447 27.948113 0.123507 -0.131272 0.959670 0.248600 0 0
    0 27.538163 48.389529 0.123511 -0.567186 0.768801 0.295373 0 0
  phy
    0 27.538163 48.389529 0.123511 -0.567186 0.768801 0.295373 0 0
    0 48.056447 27.948113 0.123507 -0.131272 0.959670 0.248600 0 0
    0 12.117404 33.790049 0.123512 0.122702 0.962117 -0.243464 0 0
  phy
    0 27.538163 48.389529 0.123511 -0.567186 0.768801 0.295373 0 0
    0 12.117404 33.790049 0.123512 0.122702 0.962117 -0.243464 0 0
    0 12.200393 53.277476 0.123513 -0.726180 0.000000 -0.687505 0 0
  phy
    0 12.117404 33.790049 0.123512 0.122702 0.962117 -0.243464 0 0
    0 48.056447 27.948113 0.123507 -0.131272 0.959670 0.248600 0 0
    0 32.920342 12.165233 0.123508 0.490966 0.801377 -0.341682 0 0
  phy
    0 32.920342 12.165233 0.123508 0.490966 0.801377 -0.341682 0 0
    0 48.056447 27.948113 0.123507 -0.131272 0.959670 0.248600 0 0
    0 53.483346 12.149169 0.123505 0.692164 0.000000 0.721740 0 0
  phy
    0 12.117404 33.790049 9.785331 -0.045307 -0.979630 -0.195635 0 0
    0 39.186790 39.223777 0.123509 -0.286743 -0.912450 0.291913 0 0
    0 27.538163 48.389529 0.123511 -0.567186 0.768801 0.295373 0 0
  phy
    0 27.538163 48.389529 0.123511 -0.567186 0.768801 0.295373 0 0
    0 12.200393 53.277476 0.123513 -0.726180 0.000000 -0.687505 0 0
    0 12.117404 33.790049 9.785331 -0.045307 -0.979630 -0.195635 0 0
  phy
    0 39.186790 39.223777 0.123509 -0.286743 -0.912450 0.291913 0 0
    0 32.920340 12.165235 9.785330 0.044500 -0.980356 0.192150 0 0
    0 48.056447 27.948113 0.123507 -0.131272 0.959670 0.248600 0 0
  phy
    0 32.920340 12.165235 9.785330 0.044500 -0.980356 0.192150 0 0
    0 53.483346 12.149169 0.123505 0.692164 0.000000 0.721740 0 0
    0 48.056447 27.948113 0.123507 -0.131272 0.959670 0.248600 0 0
  phy
    0 12.117404 33.790049 9.785331 -0.045307 -0.979630 -0.195635 0 0
    0 32.920342 12.165233 0.123508 0.490966 0.801377 -0.341682 0 0
    0 32.920340 12.165235 9.785330 0.044500 -0.980356 0.192150 0 0
  phy
    0 12.117404 33.790049 9.785331 -0.045307 -0.979630 -0.195635 0 0
    0 12.117404 33.790049 0.123512 0.122702 0.962117 -0.243464 0 0
    0 32.920342 12.165233 0.123508 0.490966 0.801377 -0.341682 0 0
  phy
    0 12.117404 33.790049 0.123512 0.122702 0.962117 -0.243464 0 0
    0 12.117404 33.790049 9.785331 -0.045307 -0.979630 -0.195635 0 0
    0 12.200393 53.277476 0.123513 -0.726180 0.000000 -0.687505 0 0
  phy
    0 12.117404 33.790049 9.785331 -0.045307 -0.979630 -0.195635 0 0
    0 32.920340 12.165235 9.785330 0.044500 -0.980356 0.192150 0 0
    0 39.186790 39.223777 0.123509 -0.286743 -0.912450 0.291913 0 0
  phy
    0 32.920342 12.165233 0.123508 0.490966 0.801377 -0.341682 0 0
    0 53.483346 12.149169 0.123505 0.692164 0.000000 0.721740 0 0
    0 32.920340 12.165235 9.785330 0.044500 -0.980356 0.192150 0 0
end
