version 1
nodes
0 "portal_button_root" -1
1 "portal_button_top" -1
2 "static_prop" -1
3 "button_whole_reference_02.polymsh" -1
4 "portal_button_export" -1
end
skeleton
time 0
0  0.000000 0.000000 0.000000  1.570796 -0.000000 0.000000
1  0.000000 0.000000 14.000000  1.570796 -0.000000 0.000000
2  0.000000 0.000000 0.000000  0.000000 -0.000000 0.000000
3  0.000000 0.000000 0.000000  1.570796 -0.000000 0.000000
4  0.000000 0.000000 0.000000  0.000000 -0.000000 0.000000
end
triangles
  phy
0  25.132748 20.042713 9.889892  0.587174 0.468251 -0.660278  0.000000 0.000000 1 1 1.000000
0  31.340029 7.153169 9.889892  0.732179 0.167112 -0.660294  0.000000 0.000000 1 1 1.000000
0  31.340034 -7.153147 9.889892  0.732180 -0.167115 -0.660292  0.000000 0.000000 1 1 1.000000
  phy
0  25.132748 20.042713 9.889892  0.587174 0.468251 -0.660278  0.000000 0.000000 1 1 1.000000
0  31.340034 -7.153147 9.889892  0.732180 -0.167115 -0.660292  0.000000 0.000000 1 1 1.000000
0  -13.947638 28.962542 9.889890  -0.325852 0.676639 -0.660287  0.000000 0.000000 1 1 1.000000
  phy
0  -13.947638 28.962542 9.889890  -0.325852 0.676639 -0.660287  0.000000 0.000000 1 1 1.000000
0  31.340034 -7.153147 9.889892  0.732180 -0.167115 -0.660292  0.000000 0.000000 1 1 1.000000
0  -31.340034 7.153147 9.889889  -0.732199 0.167123 -0.660268  0.000000 0.000000 1 1 1.000000
  phy
0  -31.340034 7.153147 9.889889  -0.732199 0.167123 -0.660268  0.000000 0.000000 1 1 1.000000
0  31.340034 -7.153147 9.889892  0.732180 -0.167115 -0.660292  0.000000 0.000000 1 1 1.000000
0  -25.132750 -20.042713 9.889890  -0.587165 -0.468249 -0.660288  0.000000 0.000000 1 1 1.000000
  phy
0  -13.947639 28.962542 13.646249  -0.325858 0.676651 0.660272  0.000000 0.000000 1 1 1.000000
0  -13.947638 28.962542 9.889890  -0.325852 0.676639 -0.660287  0.000000 0.000000 1 1 1.000000
0  -25.132761 20.042698 13.646248  -0.587158 0.468238 0.660302  0.000000 0.000000 1 1 1.000000
  phy
0  -25.132761 20.042698 13.646248  -0.587158 0.468238 0.660302  0.000000 0.000000 1 1 1.000000
0  -13.947638 28.962542 9.889890  -0.325852 0.676639 -0.660287  0.000000 0.000000 1 1 1.000000
0  -25.132761 20.042694 9.889890  -0.587159 0.468248 -0.660294  0.000000 0.000000 1 1 1.000000
  phy
0  -13.947638 28.962542 9.889890  -0.325852 0.676639 -0.660287  0.000000 0.000000 1 1 1.000000
0  -13.947639 28.962542 13.646249  -0.325858 0.676651 0.660272  0.000000 0.000000 1 1 1.000000
0  -0.000012 32.146000 13.646249  -0.000000 0.751001 0.660302  0.000000 0.000000 1 1 1.000000
  phy
0  -13.947638 28.962542 9.889890  -0.325852 0.676639 -0.660287  0.000000 0.000000 1 1 1.000000
0  -0.000012 32.146000 13.646249  -0.000000 0.751001 0.660302  0.000000 0.000000 1 1 1.000000
0  -0.000011 32.146000 9.889891  -0.000000 0.751027 -0.660272  0.000000 0.000000 1 1 1.000000
  phy
0  -25.132761 20.042694 9.889890  -0.587159 0.468248 -0.660294  0.000000 0.000000 1 1 1.000000
0  -13.947638 28.962542 9.889890  -0.325852 0.676639 -0.660287  0.000000 0.000000 1 1 1.000000
0  -31.340034 7.153147 9.889889  -0.732199 0.167123 -0.660268  0.000000 0.000000 1 1 1.000000
  phy
0  25.132748 20.042713 9.889892  0.587174 0.468251 -0.660278  0.000000 0.000000 1 1 1.000000
0  -13.947638 28.962542 9.889890  -0.325852 0.676639 -0.660287  0.000000 0.000000 1 1 1.000000
0  -0.000011 32.146000 9.889891  -0.000000 0.751027 -0.660272  0.000000 0.000000 1 1 1.000000
  phy
0  31.340036 -7.153142 13.646251  0.732185 -0.167116 0.660286  0.000000 0.000000 1 1 1.000000
0  31.340034 -7.153147 9.889892  0.732180 -0.167115 -0.660292  0.000000 0.000000 1 1 1.000000
0  31.340031 7.153169 13.646251  0.732193 0.167122 0.660275  0.000000 0.000000 1 1 1.000000
  phy
0  31.340031 7.153169 13.646251  0.732193 0.167122 0.660275  0.000000 0.000000 1 1 1.000000
0  31.340034 -7.153147 9.889892  0.732180 -0.167115 -0.660292  0.000000 0.000000 1 1 1.000000
0  31.340029 7.153169 9.889892  0.732179 0.167112 -0.660294  0.000000 0.000000 1 1 1.000000
  phy
0  31.340031 7.153169 13.646251  0.732193 0.167122 0.660275  0.000000 0.000000 1 1 1.000000
0  31.340029 7.153169 9.889892  0.732179 0.167112 -0.660294  0.000000 0.000000 1 1 1.000000
0  25.132750 20.042713 13.646250  0.587159 0.468249 0.660294  0.000000 0.000000 1 1 1.000000
  phy
0  25.132750 20.042713 13.646250  0.587159 0.468249 0.660294  0.000000 0.000000 1 1 1.000000
0  31.340029 7.153169 9.889892  0.732179 0.167112 -0.660294  0.000000 0.000000 1 1 1.000000
0  25.132748 20.042713 9.889892  0.587174 0.468251 -0.660278  0.000000 0.000000 1 1 1.000000
  phy
0  -0.000011 32.146000 9.889891  -0.000000 0.751027 -0.660272  0.000000 0.000000 1 1 1.000000
0  -0.000012 32.146000 13.646249  -0.000000 0.751001 0.660302  0.000000 0.000000 1 1 1.000000
0  13.947618 28.962549 9.889891  0.325853 0.676633 -0.660294  0.000000 0.000000 1 1 1.000000
  phy
0  13.947618 28.962549 9.889891  0.325853 0.676633 -0.660294  0.000000 0.000000 1 1 1.000000
0  -0.000012 32.146000 13.646249  -0.000000 0.751001 0.660302  0.000000 0.000000 1 1 1.000000
0  13.947620 28.962549 13.646250  0.325855 0.676655 0.660270  0.000000 0.000000 1 1 1.000000
  phy
0  13.947618 28.962549 9.889891  0.325853 0.676633 -0.660294  0.000000 0.000000 1 1 1.000000
0  13.947620 28.962549 13.646250  0.325855 0.676655 0.660270  0.000000 0.000000 1 1 1.000000
0  25.132748 20.042713 9.889892  0.587174 0.468251 -0.660278  0.000000 0.000000 1 1 1.000000
  phy
0  25.132748 20.042713 9.889892  0.587174 0.468251 -0.660278  0.000000 0.000000 1 1 1.000000
0  13.947620 28.962549 13.646250  0.325855 0.676655 0.660270  0.000000 0.000000 1 1 1.000000
0  25.132750 20.042713 13.646250  0.587159 0.468249 0.660294  0.000000 0.000000 1 1 1.000000
  phy
0  13.947618 28.962549 9.889891  0.325853 0.676633 -0.660294  0.000000 0.000000 1 1 1.000000
0  25.132748 20.042713 9.889892  0.587174 0.468251 -0.660278  0.000000 0.000000 1 1 1.000000
0  -0.000011 32.146000 9.889891  -0.000000 0.751027 -0.660272  0.000000 0.000000 1 1 1.000000
  phy
0  -25.132750 -20.042715 13.646248  -0.587167 -0.468250 0.660286  0.000000 0.000000 1 1 1.000000
0  -31.340031 -7.153169 13.646248  -0.732183 -0.167116 0.660288  0.000000 0.000000 1 1 1.000000
0  -25.132750 -20.042713 9.889890  -0.587165 -0.468249 -0.660288  0.000000 0.000000 1 1 1.000000
  phy
0  -31.340031 -7.153169 13.646248  -0.732183 -0.167116 0.660288  0.000000 0.000000 1 1 1.000000
0  -31.340031 -7.153169 9.889889  -0.732185 -0.167117 -0.660286  0.000000 0.000000 1 1 1.000000
0  -25.132750 -20.042713 9.889890  -0.587165 -0.468249 -0.660288  0.000000 0.000000 1 1 1.000000
  phy
0  -31.340031 -7.153169 9.889889  -0.732185 -0.167117 -0.660286  0.000000 0.000000 1 1 1.000000
0  -31.340031 -7.153169 13.646248  -0.732183 -0.167116 0.660288  0.000000 0.000000 1 1 1.000000
0  -31.340034 7.153147 9.889889  -0.732199 0.167123 -0.660268  0.000000 0.000000 1 1 1.000000
  phy
0  -31.340031 -7.153169 13.646248  -0.732183 -0.167116 0.660288  0.000000 0.000000 1 1 1.000000
0  -31.340034 7.153147 13.646248  -0.732187 0.167113 0.660285  0.000000 0.000000 1 1 1.000000
0  -31.340034 7.153147 9.889889  -0.732199 0.167123 -0.660268  0.000000 0.000000 1 1 1.000000
  phy
0  -25.132750 -20.042713 9.889890  -0.587165 -0.468249 -0.660288  0.000000 0.000000 1 1 1.000000
0  -31.340031 -7.153169 9.889889  -0.732185 -0.167117 -0.660286  0.000000 0.000000 1 1 1.000000
0  -31.340034 7.153147 9.889889  -0.732199 0.167123 -0.660268  0.000000 0.000000 1 1 1.000000
  phy
0  -31.340034 7.153147 9.889889  -0.732199 0.167123 -0.660268  0.000000 0.000000 1 1 1.000000
0  -31.340034 7.153147 13.646248  -0.732187 0.167113 0.660285  0.000000 0.000000 1 1 1.000000
0  -25.132761 20.042694 9.889890  -0.587159 0.468248 -0.660294  0.000000 0.000000 1 1 1.000000
  phy
0  -31.340034 7.153147 13.646248  -0.732187 0.167113 0.660285  0.000000 0.000000 1 1 1.000000
0  -25.132761 20.042698 13.646248  -0.587158 0.468238 0.660302  0.000000 0.000000 1 1 1.000000
0  -25.132761 20.042694 9.889890  -0.587159 0.468248 -0.660294  0.000000 0.000000 1 1 1.000000
  phy
0  -13.947639 28.962542 13.646249  -0.325858 0.676651 0.660272  0.000000 0.000000 1 1 1.000000
0  -25.132761 20.042698 13.646248  -0.587158 0.468238 0.660302  0.000000 0.000000 1 1 1.000000
0  13.947620 28.962549 13.646250  0.325855 0.676655 0.660270  0.000000 0.000000 1 1 1.000000
  phy
0  13.947620 28.962549 13.646250  0.325855 0.676655 0.660270  0.000000 0.000000 1 1 1.000000
0  -0.000012 32.146000 13.646249  -0.000000 0.751001 0.660302  0.000000 0.000000 1 1 1.000000
0  -13.947639 28.962542 13.646249  -0.325858 0.676651 0.660272  0.000000 0.000000 1 1 1.000000
  phy
0  13.947639 -28.962542 9.889891  0.325859 -0.676653 -0.660270  0.000000 0.000000 1 1 1.000000
0  25.132761 -20.042694 9.889892  0.587164 -0.468242 -0.660294  0.000000 0.000000 1 1 1.000000
0  13.947639 -28.962542 13.646250  0.325847 -0.676628 0.660301  0.000000 0.000000 1 1 1.000000
  phy
0  25.132761 -20.042694 9.889892  0.587164 -0.468242 -0.660294  0.000000 0.000000 1 1 1.000000
0  25.132761 -20.042694 13.646250  0.587169 -0.468256 0.660279  0.000000 0.000000 1 1 1.000000
0  13.947639 -28.962542 13.646250  0.325847 -0.676628 0.660301  0.000000 0.000000 1 1 1.000000
  phy
0  25.132761 -20.042694 9.889892  0.587164 -0.468242 -0.660294  0.000000 0.000000 1 1 1.000000
0  31.340034 -7.153147 9.889892  0.732180 -0.167115 -0.660292  0.000000 0.000000 1 1 1.000000
0  25.132761 -20.042694 13.646250  0.587169 -0.468256 0.660279  0.000000 0.000000 1 1 1.000000
  phy
0  25.132761 -20.042694 13.646250  0.587169 -0.468256 0.660279  0.000000 0.000000 1 1 1.000000
0  31.340034 -7.153147 9.889892  0.732180 -0.167115 -0.660292  0.000000 0.000000 1 1 1.000000
0  31.340036 -7.153142 13.646251  0.732185 -0.167116 0.660286  0.000000 0.000000 1 1 1.000000
  phy
0  25.132761 -20.042694 9.889892  0.587164 -0.468242 -0.660294  0.000000 0.000000 1 1 1.000000
0  13.947639 -28.962542 9.889891  0.325859 -0.676653 -0.660270  0.000000 0.000000 1 1 1.000000
0  31.340034 -7.153147 9.889892  0.732180 -0.167115 -0.660292  0.000000 0.000000 1 1 1.000000
  phy
0  13.947639 -28.962542 13.646250  0.325847 -0.676628 0.660301  0.000000 0.000000 1 1 1.000000
0  0.000011 -32.146000 9.889891  -0.000003 -0.751007 -0.660294  0.000000 0.000000 1 1 1.000000
0  13.947639 -28.962542 9.889891  0.325859 -0.676653 -0.660270  0.000000 0.000000 1 1 1.000000
  phy
0  13.947639 -28.962542 13.646250  0.325847 -0.676628 0.660301  0.000000 0.000000 1 1 1.000000
0  0.000010 -32.146000 13.646249  0.000004 -0.751020 0.660280  0.000000 0.000000 1 1 1.000000
0  0.000011 -32.146000 9.889891  -0.000003 -0.751007 -0.660294  0.000000 0.000000 1 1 1.000000
  phy
0  25.132761 -20.042694 13.646250  0.587169 -0.468256 0.660279  0.000000 0.000000 1 1 1.000000
0  0.000010 -32.146000 13.646249  0.000004 -0.751020 0.660280  0.000000 0.000000 1 1 1.000000
0  13.947639 -28.962542 13.646250  0.325847 -0.676628 0.660301  0.000000 0.000000 1 1 1.000000
  phy
0  0.000011 -32.146000 9.889891  -0.000003 -0.751007 -0.660294  0.000000 0.000000 1 1 1.000000
0  -13.947616 -28.962549 9.889890  -0.325858 -0.676644 -0.660280  0.000000 0.000000 1 1 1.000000
0  13.947639 -28.962542 9.889891  0.325859 -0.676653 -0.660270  0.000000 0.000000 1 1 1.000000
  phy
0  13.947639 -28.962542 9.889891  0.325859 -0.676653 -0.660270  0.000000 0.000000 1 1 1.000000
0  -13.947616 -28.962549 9.889890  -0.325858 -0.676644 -0.660280  0.000000 0.000000 1 1 1.000000
0  -25.132750 -20.042713 9.889890  -0.587165 -0.468249 -0.660288  0.000000 0.000000 1 1 1.000000
  phy
0  13.947639 -28.962542 9.889891  0.325859 -0.676653 -0.660270  0.000000 0.000000 1 1 1.000000
0  -25.132750 -20.042713 9.889890  -0.587165 -0.468249 -0.660288  0.000000 0.000000 1 1 1.000000
0  31.340034 -7.153147 9.889892  0.732180 -0.167115 -0.660292  0.000000 0.000000 1 1 1.000000
  phy
0  0.000010 -32.146000 13.646249  0.000004 -0.751020 0.660280  0.000000 0.000000 1 1 1.000000
0  -13.947616 -28.962549 9.889890  -0.325858 -0.676644 -0.660280  0.000000 0.000000 1 1 1.000000
0  0.000011 -32.146000 9.889891  -0.000003 -0.751007 -0.660294  0.000000 0.000000 1 1 1.000000
  phy
0  0.000010 -32.146000 13.646249  0.000004 -0.751020 0.660280  0.000000 0.000000 1 1 1.000000
0  -13.947618 -28.962549 13.646249  -0.325855 -0.676655 0.660270  0.000000 0.000000 1 1 1.000000
0  -13.947616 -28.962549 9.889890  -0.325858 -0.676644 -0.660280  0.000000 0.000000 1 1 1.000000
  phy
0  13.947620 28.962549 13.646250  0.325855 0.676655 0.660270  0.000000 0.000000 1 1 1.000000
0  25.132761 -20.042694 13.646250  0.587169 -0.468256 0.660279  0.000000 0.000000 1 1 1.000000
0  31.340031 7.153169 13.646251  0.732193 0.167122 0.660275  0.000000 0.000000 1 1 1.000000
  phy
0  31.340031 7.153169 13.646251  0.732193 0.167122 0.660275  0.000000 0.000000 1 1 1.000000
0  25.132750 20.042713 13.646250  0.587159 0.468249 0.660294  0.000000 0.000000 1 1 1.000000
0  13.947620 28.962549 13.646250  0.325855 0.676655 0.660270  0.000000 0.000000 1 1 1.000000
  phy
0  25.132761 -20.042694 13.646250  0.587169 -0.468256 0.660279  0.000000 0.000000 1 1 1.000000
0  31.340036 -7.153142 13.646251  0.732185 -0.167116 0.660286  0.000000 0.000000 1 1 1.000000
0  31.340031 7.153169 13.646251  0.732193 0.167122 0.660275  0.000000 0.000000 1 1 1.000000
  phy
0  -25.132761 20.042698 13.646248  -0.587158 0.468238 0.660302  0.000000 0.000000 1 1 1.000000
0  25.132761 -20.042694 13.646250  0.587169 -0.468256 0.660279  0.000000 0.000000 1 1 1.000000
0  13.947620 28.962549 13.646250  0.325855 0.676655 0.660270  0.000000 0.000000 1 1 1.000000
  phy
0  -13.947616 -28.962549 9.889890  -0.325858 -0.676644 -0.660280  0.000000 0.000000 1 1 1.000000
0  -13.947618 -28.962549 13.646249  -0.325855 -0.676655 0.660270  0.000000 0.000000 1 1 1.000000
0  -25.132750 -20.042713 9.889890  -0.587165 -0.468249 -0.660288  0.000000 0.000000 1 1 1.000000
  phy
0  -13.947618 -28.962549 13.646249  -0.325855 -0.676655 0.660270  0.000000 0.000000 1 1 1.000000
0  -25.132750 -20.042715 13.646248  -0.587167 -0.468250 0.660286  0.000000 0.000000 1 1 1.000000
0  -25.132750 -20.042713 9.889890  -0.587165 -0.468249 -0.660288  0.000000 0.000000 1 1 1.000000
  phy
0  -13.947618 -28.962549 13.646249  -0.325855 -0.676655 0.660270  0.000000 0.000000 1 1 1.000000
0  -31.340034 7.153147 13.646248  -0.732187 0.167113 0.660285  0.000000 0.000000 1 1 1.000000
0  -31.340031 -7.153169 13.646248  -0.732183 -0.167116 0.660288  0.000000 0.000000 1 1 1.000000
  phy
0  -13.947618 -28.962549 13.646249  -0.325855 -0.676655 0.660270  0.000000 0.000000 1 1 1.000000
0  -25.132761 20.042698 13.646248  -0.587158 0.468238 0.660302  0.000000 0.000000 1 1 1.000000
0  -31.340034 7.153147 13.646248  -0.732187 0.167113 0.660285  0.000000 0.000000 1 1 1.000000
  phy
0  -13.947618 -28.962549 13.646249  -0.325855 -0.676655 0.660270  0.000000 0.000000 1 1 1.000000
0  25.132761 -20.042694 13.646250  0.587169 -0.468256 0.660279  0.000000 0.000000 1 1 1.000000
0  -25.132761 20.042698 13.646248  -0.587158 0.468238 0.660302  0.000000 0.000000 1 1 1.000000
  phy
0  -13.947618 -28.962549 13.646249  -0.325855 -0.676655 0.660270  0.000000 0.000000 1 1 1.000000
0  0.000010 -32.146000 13.646249  0.000004 -0.751020 0.660280  0.000000 0.000000 1 1 1.000000
0  25.132761 -20.042694 13.646250  0.587169 -0.468256 0.660279  0.000000 0.000000 1 1 1.000000
  phy
0  -13.947618 -28.962549 13.646249  -0.325855 -0.676655 0.660270  0.000000 0.000000 1 1 1.000000
0  -31.340031 -7.153169 13.646248  -0.732183 -0.167116 0.660288  0.000000 0.000000 1 1 1.000000
0  -25.132750 -20.042715 13.646248  -0.587167 -0.468250 0.660286  0.000000 0.000000 1 1 1.000000
end
