// Created by Crowbar 0.74
version 1
nodes
  0 "static_prop" -1
end
skeleton
  time 0
    0 0.000000 0.000000 0.000000 0.000000 0.000000 0.000000
end
triangles
  phy
    0 51.646228 -8.999998 6.853221 0.337781 -0.086350 0.937255 0 0
    0 45.789490 -8.999998 0.011297 0.305770 0.898183 0.315868 0 0
    0 51.646228 9.000002 6.853221 -0.176616 -0.090300 0.980129 0 0
  phy
    0 51.646228 9.000002 6.853221 -0.176616 -0.090300 0.980129 0 0
    0 44.695810 -8.999999 11.882212 0.447800 -0.891998 -0.061764 0 0
    0 51.646228 -8.999998 6.853221 0.337781 -0.086350 0.937255 0 0
  phy
    0 51.646228 -8.999998 6.853221 0.337781 -0.086350 0.937255 0 0
    0 44.695810 -8.999999 11.882212 0.447800 -0.891998 -0.061764 0 0
    0 45.789490 -8.999998 0.011297 0.305770 0.898183 0.315868 0 0
  phy
    0 44.695810 9.000001 11.882212 -0.336697 -0.812859 -0.475284 0 0
    0 51.646228 9.000002 6.853221 -0.176616 -0.090300 0.980129 0 0
    0 45.789490 9.000002 0.011298 -0.540427 0.793738 0.279137 0 0
  phy
    0 44.695810 9.000001 11.882212 -0.336697 -0.812859 -0.475284 0 0
    0 45.789490 9.000002 0.011298 -0.540427 0.793738 0.279137 0 0
    0 32.136161 9.000001 -0.007969 -0.429791 0.703809 -0.565626 0 0
  phy
    0 45.789490 -8.999998 0.011297 0.305770 0.898183 0.315868 0 0
    0 45.789490 9.000002 0.011298 -0.540427 0.793738 0.279137 0 0
    0 51.646228 9.000002 6.853221 -0.176616 -0.090300 0.980129 0 0
  phy
    0 44.695810 9.000001 11.882212 -0.336697 -0.812859 -0.475284 0 0
    0 44.695810 -8.999999 11.882212 0.447800 -0.891998 -0.061764 0 0
    0 51.646228 9.000002 6.853221 -0.176616 -0.090300 0.980129 0 0
  phy
    0 45.789490 9.000002 0.011298 -0.540427 0.793738 0.279137 0 0
    0 45.789490 -8.999998 0.011297 0.305770 0.898183 0.315868 0 0
    0 32.136161 9.000001 -0.007969 -0.429791 0.703809 -0.565626 0 0
  phy
    0 32.136161 9.000001 -0.007969 -0.429791 0.703809 -0.565626 0 0
    0 45.789490 -8.999998 0.011297 0.305770 0.898183 0.315868 0 0
    0 32.136161 -8.999999 -0.007970 0.323037 -0.411298 -0.852339 0 0
  phy
    0 45.789490 -8.999998 0.011297 0.305770 0.898183 0.315868 0 0
    0 44.695810 -8.999999 11.882212 0.447800 -0.891998 -0.061764 0 0
    0 32.136161 -8.999999 -0.007970 0.323037 -0.411298 -0.852339 0 0
  phy
    0 32.136161 9.000001 -0.007969 -0.429791 0.703809 -0.565626 0 0
    0 32.136161 -8.999999 -0.007970 0.323037 -0.411298 -0.852339 0 0
    0 44.695810 9.000001 11.882212 -0.336697 -0.812859 -0.475284 0 0
  phy
    0 32.136161 -8.999999 -0.007970 0.323037 -0.411298 -0.852339 0 0
    0 44.695810 -8.999999 11.882212 0.447800 -0.891998 -0.061764 0 0
    0 44.695810 9.000001 11.882212 -0.336697 -0.812859 -0.475284 0 0
  phy
    0 44.695810 -8.999999 11.882212 0.400335 -0.181667 -0.898181 0 0
    0 60.877012 -8.999999 24.497014 0.459411 0.277924 0.843623 0 0
    0 55.247062 -8.999999 44.352483 0.639831 -0.392732 -0.660588 0 0
  phy
    0 44.695810 -8.999999 11.882212 0.400335 -0.181667 -0.898181 0 0
    0 51.646228 -8.999999 6.853221 0.359943 0.886521 0.290727 0 0
    0 60.877012 -8.999999 24.497014 0.459411 0.277924 0.843623 0 0
  phy
    0 60.877012 -8.999999 24.497014 0.459411 0.277924 0.843623 0 0
    0 63.999999 -8.999999 44.352483 0.366419 -0.545837 0.753524 0 0
    0 55.247062 -8.999999 44.352483 0.639831 -0.392732 -0.660588 0 0
  phy
    0 44.695810 9.000001 11.882212 -0.691547 0.056716 -0.720102 0 0
    0 44.695810 -8.999999 11.882212 0.400335 -0.181667 -0.898181 0 0
    0 55.247062 9.000001 44.352483 -0.204572 -0.500220 -0.841386 0 0
  phy
    0 44.695810 -8.999999 11.882212 0.400335 -0.181667 -0.898181 0 0
    0 55.247062 -8.999999 44.352483 0.639831 -0.392732 -0.660588 0 0
    0 55.247062 9.000001 44.352483 -0.204572 -0.500220 -0.841386 0 0
  phy
    0 44.695810 -8.999999 11.882212 0.400335 -0.181667 -0.898181 0 0
    0 44.695810 9.000001 11.882212 -0.691547 0.056716 -0.720102 0 0
    0 51.646228 -8.999999 6.853221 0.359943 0.886521 0.290727 0 0
  phy
    0 60.877012 9.000002 24.497016 -0.535773 0.264199 0.801964 0 0
    0 60.877012 -8.999999 24.497014 0.459411 0.277924 0.843623 0 0
    0 51.646228 9.000002 6.853221 -0.231242 0.625684 0.745015 0 0
  phy
    0 60.877012 -8.999999 24.497014 0.459411 0.277924 0.843623 0 0
    0 51.646228 -8.999999 6.853221 0.359943 0.886521 0.290727 0 0
    0 51.646228 9.000002 6.853221 -0.231242 0.625684 0.745015 0 0
  phy
    0 44.695810 9.000001 11.882212 -0.691547 0.056716 -0.720102 0 0
    0 51.646228 9.000002 6.853221 -0.231242 0.625684 0.745015 0 0
    0 51.646228 -8.999999 6.853221 0.359943 0.886521 0.290727 0 0
  phy
    0 51.646228 9.000002 6.853221 -0.231242 0.625684 0.745015 0 0
    0 44.695810 9.000001 11.882212 -0.691547 0.056716 -0.720102 0 0
    0 60.877012 9.000002 24.497016 -0.535773 0.264199 0.801964 0 0
  phy
    0 55.247062 9.000001 44.352483 -0.204572 -0.500220 -0.841386 0 0
    0 63.999999 -8.999999 44.352483 0.366419 -0.545837 0.753524 0 0
    0 63.999999 9.000002 44.352483 -0.620092 -0.049429 0.782971 0 0
  phy
    0 55.247062 9.000001 44.352483 -0.204572 -0.500220 -0.841386 0 0
    0 55.247062 -8.999999 44.352483 0.639831 -0.392732 -0.660588 0 0
    0 63.999999 -8.999999 44.352483 0.366419 -0.545837 0.753524 0 0
  phy
    0 63.999999 9.000002 44.352483 -0.620092 -0.049429 0.782971 0 0
    0 44.695810 9.000001 11.882212 -0.691547 0.056716 -0.720102 0 0
    0 55.247062 9.000001 44.352483 -0.204572 -0.500220 -0.841386 0 0
  phy
    0 44.695810 9.000001 11.882212 -0.691547 0.056716 -0.720102 0 0
    0 63.999999 9.000002 44.352483 -0.620092 -0.049429 0.782971 0 0
    0 60.877012 9.000002 24.497016 -0.535773 0.264199 0.801964 0 0
  phy
    0 63.999999 9.000002 44.352483 -0.620092 -0.049429 0.782971 0 0
    0 63.999999 -8.999999 44.352483 0.366419 -0.545837 0.753524 0 0
    0 60.877012 -8.999999 24.497014 0.459411 0.277924 0.843623 0 0
  phy
    0 60.877012 -8.999999 24.497014 0.459411 0.277924 0.843623 0 0
    0 60.877012 9.000002 24.497016 -0.535773 0.264199 0.801964 0 0
    0 63.999999 9.000002 44.352483 -0.620092 -0.049429 0.782971 0 0
  phy
    0 60.882798 -9.000000 64.093039 0.566673 -0.294024 0.769696 0 0
    0 55.247062 -8.999999 44.352483 0.402123 0.383388 -0.831451 0 0
    0 63.999999 -8.999999 44.352483 0.227657 0.267313 0.936331 0 0
  phy
    0 60.882798 -9.000000 64.093039 0.566673 -0.294024 0.769696 0 0
    0 44.718760 -9.000002 76.676321 0.587491 -0.066909 -0.806460 0 0
    0 55.247062 -8.999999 44.352483 0.402123 0.383388 -0.831451 0 0
  phy
    0 60.882798 -9.000000 64.093039 0.566673 -0.294024 0.769696 0 0
    0 51.777086 -9.000002 82.139744 0.433013 -0.711272 0.553707 0 0
    0 44.718760 -9.000002 76.676321 0.587491 -0.066909 -0.806460 0 0
  phy
    0 63.999999 9.000002 44.352483 -0.894636 0.122655 0.429630 0 0
    0 60.882798 9.000000 64.093039 -0.114479 -0.255959 0.959885 0 0
    0 63.999999 -8.999999 44.352483 0.227657 0.267313 0.936331 0 0
  phy
    0 60.882798 9.000000 64.093039 -0.114479 -0.255959 0.959885 0 0
    0 60.882798 -9.000000 64.093039 0.566673 -0.294024 0.769696 0 0
    0 63.999999 -8.999999 44.352483 0.227657 0.267313 0.936331 0 0
  phy
    0 63.999999 -8.999999 44.352483 0.227657 0.267313 0.936331 0 0
    0 55.247062 -8.999999 44.352483 0.402123 0.383388 -0.831451 0 0
    0 55.247062 9.000001 44.352483 -0.344827 0.615014 -0.709121 0 0
  phy
    0 63.999999 -8.999999 44.352483 0.227657 0.267313 0.936331 0 0
    0 55.247062 9.000001 44.352483 -0.344827 0.615014 -0.709121 0 0
    0 63.999999 9.000002 44.352483 -0.894636 0.122655 0.429630 0 0
  phy
    0 60.882798 9.000000 64.093039 -0.114479 -0.255959 0.959885 0 0
    0 51.777086 8.999998 82.139744 -0.526753 -0.670737 0.522152 0 0
    0 60.882798 -9.000000 64.093039 0.566673 -0.294024 0.769696 0 0
  phy
    0 51.777086 8.999998 82.139744 -0.526753 -0.670737 0.522152 0 0
    0 51.777086 -9.000002 82.139744 0.433013 -0.711272 0.553707 0 0
    0 60.882798 -9.000000 64.093039 0.566673 -0.294024 0.769696 0 0
  phy
    0 51.777086 8.999998 82.139744 -0.526753 -0.670737 0.522152 0 0
    0 60.882798 9.000000 64.093039 -0.114479 -0.255959 0.959885 0 0
    0 63.999999 9.000002 44.352483 -0.894636 0.122655 0.429630 0 0
  phy
    0 55.247062 -8.999999 44.352483 0.402123 0.383388 -0.831451 0 0
    0 44.718760 -9.000002 76.676321 0.587491 -0.066909 -0.806460 0 0
    0 44.718760 8.999998 76.676321 -0.431994 0.176582 -0.884421 0 0
  phy
    0 55.247062 -8.999999 44.352483 0.402123 0.383388 -0.831451 0 0
    0 44.718760 8.999998 76.676321 -0.431994 0.176582 -0.884421 0 0
    0 55.247062 9.000001 44.352483 -0.344827 0.615014 -0.709121 0 0
  phy
    0 51.777086 -9.000002 82.139744 0.433013 -0.711272 0.553707 0 0
    0 51.777086 8.999998 82.139744 -0.526753 -0.670737 0.522152 0 0
    0 44.718760 -9.000002 76.676321 0.587491 -0.066909 -0.806460 0 0
  phy
    0 51.777086 8.999998 82.139744 -0.526753 -0.670737 0.522152 0 0
    0 44.718760 8.999998 76.676321 -0.431994 0.176582 -0.884421 0 0
    0 44.718760 -9.000002 76.676321 0.587491 -0.066909 -0.806460 0 0
  phy
    0 63.999999 9.000002 44.352483 -0.894636 0.122655 0.429630 0 0
    0 55.247062 9.000001 44.352483 -0.344827 0.615014 -0.709121 0 0
    0 44.718760 8.999998 76.676321 -0.431994 0.176582 -0.884421 0 0
  phy
    0 63.999999 9.000002 44.352483 -0.894636 0.122655 0.429630 0 0
    0 44.718760 8.999998 76.676321 -0.431994 0.176582 -0.884421 0 0
    0 51.777086 8.999998 82.139744 -0.526753 -0.670737 0.522152 0 0
  phy
    0 19.777089 8.999997 105.136980 -0.719614 -0.672382 0.173374 0 0
    0 37.627640 -9.000004 96.087878 0.571334 -0.690373 0.443805 0 0
    0 37.627640 8.999998 96.087878 -0.112930 -0.775662 0.620963 0 0
  phy
    0 19.777089 8.999997 105.136980 -0.719614 -0.672382 0.173374 0 0
    0 19.777089 -9.000004 105.136980 0.360471 -0.891261 -0.275164 0 0
    0 37.627640 -9.000004 96.087878 0.571334 -0.690373 0.443805 0 0
  phy
    0 37.627640 -9.000004 96.087878 0.571334 -0.690373 0.443805 0 0
    0 51.777086 -9.000003 82.139744 0.239697 -0.521428 0.818937 0 0
    0 37.627640 8.999998 96.087878 -0.112930 -0.775662 0.620963 0 0
  phy
    0 51.777086 -9.000003 82.139744 0.239697 -0.521428 0.818937 0 0
    0 51.777086 8.999999 82.139744 -0.715134 -0.000922 0.698986 0 0
    0 37.627640 8.999998 96.087878 -0.112930 -0.775662 0.620963 0 0
  phy
    0 19.777089 8.999997 105.136980 -0.719614 -0.672382 0.173374 0 0
    0 37.627640 8.999998 96.087878 -0.112930 -0.775662 0.620963 0 0
    0 51.777086 8.999999 82.139744 -0.715134 -0.000922 0.698986 0 0
  phy
    0 16.930994 -9.000003 96.978184 0.639644 0.506617 -0.578095 0 0
    0 37.627640 -9.000004 96.087878 0.571334 -0.690373 0.443805 0 0
    0 19.777089 -9.000004 105.136980 0.360471 -0.891261 -0.275164 0 0
  phy
    0 16.930994 -9.000003 96.978184 0.639644 0.506617 -0.578095 0 0
    0 44.718760 -9.000002 76.676321 0.386394 0.848599 -0.361357 0 0
    0 37.627640 -9.000004 96.087878 0.571334 -0.690373 0.443805 0 0
  phy
    0 44.718760 -9.000002 76.676321 0.386394 0.848599 -0.361357 0 0
    0 51.777086 -9.000003 82.139744 0.239697 -0.521428 0.818937 0 0
    0 37.627640 -9.000004 96.087878 0.571334 -0.690373 0.443805 0 0
  phy
    0 16.930994 -9.000003 96.978184 0.639644 0.506617 -0.578095 0 0
    0 16.930994 8.999997 96.978184 -0.204418 0.645165 -0.736190 0 0
    0 44.718760 -9.000002 76.676321 0.386394 0.848599 -0.361357 0 0
  phy
    0 16.930994 8.999997 96.978184 -0.204418 0.645165 -0.736190 0 0
    0 16.930994 -9.000003 96.978184 0.639644 0.506617 -0.578095 0 0
    0 19.777089 -9.000004 105.136980 0.360471 -0.891261 -0.275164 0 0
  phy
    0 51.777086 8.999999 82.139744 -0.715134 -0.000922 0.698986 0 0
    0 51.777086 -9.000003 82.139744 0.239697 -0.521428 0.818937 0 0
    0 44.718760 -9.000002 76.676321 0.386394 0.848599 -0.361357 0 0
  phy
    0 51.777086 8.999999 82.139744 -0.715134 -0.000922 0.698986 0 0
    0 44.718760 -9.000002 76.676321 0.386394 0.848599 -0.361357 0 0
    0 44.718760 8.999998 76.676321 -0.673795 0.679846 -0.289498 0 0
  phy
    0 19.777089 8.999997 105.136980 -0.719614 -0.672382 0.173374 0 0
    0 44.718760 8.999998 76.676321 -0.673795 0.679846 -0.289498 0 0
    0 16.930994 8.999997 96.978184 -0.204418 0.645165 -0.736190 0 0
  phy
    0 44.718760 8.999998 76.676321 -0.673795 0.679846 -0.289498 0 0
    0 19.777089 8.999997 105.136980 -0.719614 -0.672382 0.173374 0 0
    0 51.777086 8.999999 82.139744 -0.715134 -0.000922 0.698986 0 0
  phy
    0 16.930994 8.999997 96.978184 -0.204418 0.645165 -0.736190 0 0
    0 44.718760 8.999998 76.676321 -0.673795 0.679846 -0.289498 0 0
    0 44.718760 -9.000002 76.676321 0.386394 0.848599 -0.361357 0 0
  phy
    0 19.777089 8.999997 105.136980 -0.719614 -0.672382 0.173374 0 0
    0 16.930994 8.999997 96.978184 -0.204418 0.645165 -0.736190 0 0
    0 19.777089 -9.000004 105.136980 0.360471 -0.891261 -0.275164 0 0
  phy
    0 -16.930994 -9.000005 96.978184 0.581545 0.752034 -0.310242 0 0
    0 0.000000 -9.000006 108.213603 0.711390 -0.702797 0.000000 0 0
    0 -19.777089 -9.000006 105.136980 0.233254 -0.905990 -0.353235 0 0
  phy
    0 -16.930994 -9.000005 96.978184 0.581545 0.752034 -0.310242 0 0
    0 16.930994 -9.000003 96.978184 0.395462 0.912405 0.105486 0 0
    0 0.000000 -9.000006 108.213603 0.711390 -0.702797 0.000000 0 0
  phy
    0 16.930994 -9.000003 96.978184 0.395462 0.912405 0.105486 0 0
    0 19.777089 -9.000004 105.136980 0.226507 -0.811572 0.538559 0 0
    0 0.000000 -9.000006 108.213603 0.711390 -0.702797 0.000000 0 0
  phy
    0 16.930994 -9.000003 96.978184 0.395462 0.912405 0.105486 0 0
    0 -16.930994 -9.000005 96.978184 0.581545 0.752034 -0.310242 0 0
    0 -16.930994 8.999995 96.978184 -0.395462 0.912405 -0.105486 0 0
  phy
    0 16.930994 -9.000003 96.978184 0.395462 0.912405 0.105486 0 0
    0 -16.930994 8.999995 96.978184 -0.395462 0.912405 -0.105486 0 0
    0 16.930994 8.999997 96.978184 -0.581545 0.752034 0.310243 0 0
  phy
    0 16.930994 -9.000003 96.978184 0.395462 0.912405 0.105486 0 0
    0 16.930994 8.999997 96.978184 -0.581545 0.752034 0.310243 0 0
    0 19.777089 -9.000004 105.136980 0.226507 -0.811572 0.538559 0 0
  phy
    0 -16.930994 -9.000005 96.978184 0.581545 0.752034 -0.310242 0 0
    0 -19.777089 -9.000006 105.136980 0.233254 -0.905990 -0.353235 0 0
    0 -19.777089 8.999995 105.136980 -0.366806 -0.546667 -0.752734 0 0
  phy
    0 -16.930994 -9.000005 96.978184 0.581545 0.752034 -0.310242 0 0
    0 -19.777089 8.999995 105.136980 -0.366806 -0.546667 -0.752734 0 0
    0 -16.930994 8.999995 96.978184 -0.395462 0.912405 -0.105486 0 0
  phy
    0 16.930994 8.999997 96.978184 -0.581545 0.752034 0.310243 0 0
    0 -16.930994 8.999995 96.978184 -0.395462 0.912405 -0.105486 0 0
    0 0.000000 8.999995 108.213603 -0.451572 -0.892235 0.000000 0 0
  phy
    0 16.930994 8.999997 96.978184 -0.581545 0.752034 0.310243 0 0
    0 0.000000 8.999995 108.213603 -0.451572 -0.892235 0.000000 0 0
    0 19.777089 8.999996 105.136980 -0.421720 -0.755509 0.501356 0 0
  phy
    0 0.000000 8.999995 108.213603 -0.451572 -0.892235 0.000000 0 0
    0 -16.930994 8.999995 96.978184 -0.395462 0.912405 -0.105486 0 0
    0 -19.777089 8.999995 105.136980 -0.366806 -0.546667 -0.752734 0 0
  phy
    0 -19.777089 8.999995 105.136980 -0.366806 -0.546667 -0.752734 0 0
    0 -19.777089 -9.000006 105.136980 0.233254 -0.905990 -0.353235 0 0
    0 0.000000 8.999995 108.213603 -0.451572 -0.892235 0.000000 0 0
  phy
    0 19.777089 -9.000004 105.136980 0.226507 -0.811572 0.538559 0 0
    0 0.000000 8.999995 108.213603 -0.451572 -0.892235 0.000000 0 0
    0 0.000000 -9.000006 108.213603 0.711390 -0.702797 0.000000 0 0
  phy
    0 0.000000 8.999995 108.213603 -0.451572 -0.892235 0.000000 0 0
    0 -19.777089 -9.000006 105.136980 0.233254 -0.905990 -0.353235 0 0
    0 0.000000 -9.000006 108.213603 0.711390 -0.702797 0.000000 0 0
  phy
    0 19.777089 8.999996 105.136980 -0.421720 -0.755509 0.501356 0 0
    0 0.000000 8.999995 108.213603 -0.451572 -0.892235 0.000000 0 0
    0 19.777089 -9.000004 105.136980 0.226507 -0.811572 0.538559 0 0
  phy
    0 19.777089 -9.000004 105.136980 0.226507 -0.811572 0.538559 0 0
    0 16.930994 8.999997 96.978184 -0.581545 0.752034 0.310243 0 0
    0 19.777089 8.999996 105.136980 -0.421720 -0.755509 0.501356 0 0
  phy
    0 -37.627640 8.999995 96.087878 -0.571334 -0.690373 -0.443805 0 0
    0 -19.777089 8.999995 105.136980 -0.417638 -0.907774 -0.039050 0 0
    0 -16.930994 8.999995 96.978184 -0.592915 0.416020 0.689478 0 0
  phy
    0 -37.627640 8.999995 96.087878 -0.571334 -0.690373 -0.443805 0 0
    0 -16.930994 8.999995 96.978184 -0.592915 0.416020 0.689478 0 0
    0 -44.718760 8.999994 76.676321 -0.404159 0.797717 0.447553 0 0
  phy
    0 -37.627640 8.999995 96.087878 -0.571334 -0.690373 -0.443805 0 0
    0 -44.718760 8.999994 76.676321 -0.404159 0.797717 0.447553 0 0
    0 -51.777086 8.999994 82.139744 -0.229907 -0.333935 -0.914128 0 0
  phy
    0 -51.777086 8.999994 82.139744 -0.229907 -0.333935 -0.914128 0 0
    0 -37.627640 -9.000007 96.087878 0.572285 -0.640181 -0.512503 0 0
    0 -37.627640 8.999995 96.087878 -0.571334 -0.690373 -0.443805 0 0
  phy
    0 -51.777086 8.999994 82.139744 -0.229907 -0.333935 -0.914128 0 0
    0 -51.777086 -9.000007 82.139744 0.427189 -0.310242 -0.849270 0 0
    0 -37.627640 -9.000007 96.087878 0.572285 -0.640181 -0.512503 0 0
  phy
    0 -37.627640 -9.000007 96.087878 0.572285 -0.640181 -0.512503 0 0
    0 -19.777089 -9.000006 105.136980 0.223982 -0.973693 -0.041885 0 0
    0 -37.627640 8.999995 96.087878 -0.571334 -0.690373 -0.443805 0 0
  phy
    0 -19.777089 -9.000006 105.136980 0.223982 -0.973693 -0.041885 0 0
    0 -19.777089 8.999995 105.136980 -0.417638 -0.907774 -0.039050 0 0
    0 -37.627640 8.999995 96.087878 -0.571334 -0.690373 -0.443805 0 0
  phy
    0 -44.718760 -9.000006 76.676321 0.594326 0.784823 0.175584 0 0
    0 -37.627640 -9.000007 96.087878 0.572285 -0.640181 -0.512503 0 0
    0 -51.777086 -9.000007 82.139744 0.427189 -0.310242 -0.849270 0 0
  phy
    0 -44.718760 -9.000006 76.676321 0.594326 0.784823 0.175584 0 0
    0 -16.930994 -9.000005 96.978184 0.401561 0.672390 0.621805 0 0
    0 -37.627640 -9.000007 96.087878 0.572285 -0.640181 -0.512503 0 0
  phy
    0 -16.930994 -9.000005 96.978184 0.401561 0.672390 0.621805 0 0
    0 -19.777089 -9.000006 105.136980 0.223982 -0.973693 -0.041885 0 0
    0 -37.627640 -9.000007 96.087878 0.572285 -0.640181 -0.512503 0 0
  phy
    0 -44.718760 8.999994 76.676321 -0.404159 0.797717 0.447553 0 0
    0 -16.930994 8.999995 96.978184 -0.592915 0.416020 0.689478 0 0
    0 -16.930994 -9.000005 96.978184 0.401561 0.672390 0.621805 0 0
  phy
    0 -44.718760 8.999994 76.676321 -0.404159 0.797717 0.447553 0 0
    0 -16.930994 -9.000005 96.978184 0.401561 0.672390 0.621805 0 0
    0 -44.718760 -9.000006 76.676321 0.594326 0.784823 0.175584 0 0
  phy
    0 -51.777086 8.999994 82.139744 -0.229907 -0.333935 -0.914128 0 0
    0 -44.718760 -9.000006 76.676321 0.594326 0.784823 0.175584 0 0
    0 -51.777086 -9.000007 82.139744 0.427189 -0.310242 -0.849270 0 0
  phy
    0 -44.718760 -9.000006 76.676321 0.594326 0.784823 0.175584 0 0
    0 -51.777086 8.999994 82.139744 -0.229907 -0.333935 -0.914128 0 0
    0 -44.718760 8.999994 76.676321 -0.404159 0.797717 0.447553 0 0
  phy
    0 -16.930994 -9.000005 96.978184 0.401561 0.672390 0.621805 0 0
    0 -16.930994 8.999995 96.978184 -0.592915 0.416020 0.689478 0 0
    0 -19.777089 -9.000006 105.136980 0.223982 -0.973693 -0.041885 0 0
  phy
    0 -16.930994 8.999995 96.978184 -0.592915 0.416020 0.689478 0 0
    0 -19.777089 8.999995 105.136980 -0.417638 -0.907774 -0.039050 0 0
    0 -19.777089 -9.000006 105.136980 0.223982 -0.973693 -0.041885 0 0
  phy
    0 -60.882798 -9.000006 64.093039 0.566673 -0.294024 -0.769696 0 0
    0 -44.718760 -9.000006 76.676321 0.587491 -0.066909 0.806460 0 0
    0 -51.777086 -9.000006 82.139744 0.433013 -0.711272 -0.553707 0 0
  phy
    0 -60.882798 -9.000006 64.093039 0.566673 -0.294024 -0.769696 0 0
    0 -55.247062 -9.000005 44.352483 0.383585 0.473098 0.793121 0 0
    0 -44.718760 -9.000006 76.676321 0.587491 -0.066909 0.806460 0 0
  phy
    0 -60.882798 -9.000006 64.093039 0.566673 -0.294024 -0.769696 0 0
    0 -63.999999 -9.000005 44.352483 0.235802 0.061866 -0.969830 0 0
    0 -55.247062 -9.000005 44.352483 0.383585 0.473098 0.793121 0 0
  phy
    0 -63.999999 8.999995 44.352483 -0.859663 0.300911 -0.412835 0 0
    0 -63.999999 -9.000005 44.352483 0.235802 0.061866 -0.969830 0 0
    0 -60.882798 8.999995 64.093039 -0.114479 -0.255959 -0.959885 0 0
  phy
    0 -60.882798 8.999995 64.093039 -0.114479 -0.255959 -0.959885 0 0
    0 -63.999999 -9.000005 44.352483 0.235802 0.061866 -0.969830 0 0
    0 -60.882798 -9.000006 64.093039 0.566673 -0.294024 -0.769696 0 0
  phy
    0 -63.999999 -9.000005 44.352483 0.235802 0.061866 -0.969830 0 0
    0 -63.999999 8.999995 44.352483 -0.859663 0.300911 -0.412835 0 0
    0 -55.247062 -9.000005 44.352483 0.383585 0.473098 0.793121 0 0
  phy
    0 -55.247062 -9.000005 44.352483 0.383585 0.473098 0.793121 0 0
    0 -63.999999 8.999995 44.352483 -0.859663 0.300911 -0.412835 0 0
    0 -55.247062 8.999995 44.352483 -0.385365 0.472719 0.792484 0 0
  phy
    0 -60.882798 8.999995 64.093039 -0.114479 -0.255959 -0.959885 0 0
    0 -60.882798 -9.000006 64.093039 0.566673 -0.294024 -0.769696 0 0
    0 -51.777086 8.999994 82.139744 -0.526753 -0.670737 -0.522152 0 0
  phy
    0 -51.777086 8.999994 82.139744 -0.526753 -0.670737 -0.522152 0 0
    0 -60.882798 -9.000006 64.093039 0.566673 -0.294024 -0.769696 0 0
    0 -51.777086 -9.000006 82.139744 0.433013 -0.711272 -0.553707 0 0
  phy
    0 -60.882798 8.999995 64.093039 -0.114479 -0.255959 -0.959885 0 0
    0 -51.777086 8.999994 82.139744 -0.526753 -0.670737 -0.522152 0 0
    0 -63.999999 8.999995 44.352483 -0.859663 0.300911 -0.412835 0 0
  phy
    0 -51.777086 8.999994 82.139744 -0.526753 -0.670737 -0.522152 0 0
    0 -44.718760 -9.000006 76.676321 0.587491 -0.066909 0.806460 0 0
    0 -44.718760 8.999994 76.676321 -0.431994 0.176582 0.884421 0 0
  phy
    0 -51.777086 8.999994 82.139744 -0.526753 -0.670737 -0.522152 0 0
    0 -51.777086 -9.000006 82.139744 0.433013 -0.711272 -0.553707 0 0
    0 -44.718760 -9.000006 76.676321 0.587491 -0.066909 0.806460 0 0
  phy
    0 -55.247062 -9.000005 44.352483 0.383585 0.473098 0.793121 0 0
    0 -44.718760 8.999994 76.676321 -0.431994 0.176582 0.884421 0 0
    0 -44.718760 -9.000006 76.676321 0.587491 -0.066909 0.806460 0 0
  phy
    0 -55.247062 8.999995 44.352483 -0.385365 0.472719 0.792484 0 0
    0 -44.718760 8.999994 76.676321 -0.431994 0.176582 0.884421 0 0
    0 -55.247062 -9.000005 44.352483 0.383585 0.473098 0.793121 0 0
  phy
    0 -44.718760 8.999994 76.676321 -0.431994 0.176582 0.884421 0 0
    0 -55.247062 8.999995 44.352483 -0.385365 0.472719 0.792484 0 0
    0 -63.999999 8.999995 44.352483 -0.859663 0.300911 -0.412835 0 0
  phy
    0 -51.777086 8.999994 82.139744 -0.526753 -0.670737 -0.522152 0 0
    0 -44.718760 8.999994 76.676321 -0.431994 0.176582 0.884421 0 0
    0 -63.999999 8.999995 44.352483 -0.859663 0.300911 -0.412835 0 0
  phy
    0 -44.695810 8.999997 11.882212 -0.590165 0.063386 0.804790 0 0
    0 -44.695810 -9.000003 11.882212 0.427115 -0.179254 0.886251 0 0
    0 -51.646228 -9.000003 6.853221 0.717177 0.662192 -0.217160 0 0
  phy
    0 -44.695810 8.999997 11.882212 -0.590165 0.063386 0.804790 0 0
    0 -51.646228 -9.000003 6.853221 0.717177 0.662192 -0.217160 0 0
    0 -51.646228 8.999998 6.853221 -0.231242 0.625684 -0.745015 0 0
  phy
    0 -44.695810 8.999997 11.882212 -0.590165 0.063386 0.804790 0 0
    0 -60.877012 8.999997 24.497016 -0.718977 0.217475 -0.660134 0 0
    0 -55.247062 8.999995 44.352483 -0.384309 -0.471783 0.793554 0 0
  phy
    0 -60.877012 8.999997 24.497016 -0.718977 0.217475 -0.660134 0 0
    0 -44.695810 8.999997 11.882212 -0.590165 0.063386 0.804790 0 0
    0 -51.646228 8.999998 6.853221 -0.231242 0.625684 -0.745015 0 0
  phy
    0 -44.695810 8.999997 11.882212 -0.590165 0.063386 0.804790 0 0
    0 -55.247062 8.999995 44.352483 -0.384309 -0.471783 0.793554 0 0
    0 -44.695810 -9.000003 11.882212 0.427115 -0.179254 0.886251 0 0
  phy
    0 -63.999999 8.999996 44.352483 -0.235811 -0.061228 -0.969868 0 0
    0 -60.877012 8.999997 24.497016 -0.718977 0.217475 -0.660134 0 0
    0 -60.877012 -9.000004 24.497014 0.089818 0.311633 -0.945948 0 0
  phy
    0 -63.999999 8.999996 44.352483 -0.235811 -0.061228 -0.969868 0 0
    0 -60.877012 -9.000004 24.497014 0.089818 0.311633 -0.945948 0 0
    0 -63.999999 -9.000005 44.352483 0.857378 -0.301935 -0.416819 0 0
  phy
    0 -63.999999 -9.000005 44.352483 0.857378 -0.301935 -0.416819 0 0
    0 -55.247062 8.999995 44.352483 -0.384309 -0.471783 0.793554 0 0
    0 -63.999999 8.999996 44.352483 -0.235811 -0.061228 -0.969868 0 0
  phy
    0 -63.999999 -9.000005 44.352483 0.857378 -0.301935 -0.416819 0 0
    0 -55.247062 -9.000005 44.352483 0.385651 -0.471497 0.793073 0 0
    0 -55.247062 8.999995 44.352483 -0.384309 -0.471783 0.793554 0 0
  phy
    0 -60.877012 8.999997 24.497016 -0.718977 0.217475 -0.660134 0 0
    0 -63.999999 8.999996 44.352483 -0.235811 -0.061228 -0.969868 0 0
    0 -55.247062 8.999995 44.352483 -0.384309 -0.471783 0.793554 0 0
  phy
    0 -60.877012 -9.000004 24.497014 0.089818 0.311633 -0.945948 0 0
    0 -60.877012 8.999997 24.497016 -0.718977 0.217475 -0.660134 0 0
    0 -51.646228 8.999998 6.853221 -0.231242 0.625684 -0.745015 0 0
  phy
    0 -51.646228 -9.000003 6.853221 0.717177 0.662192 -0.217160 0 0
    0 -60.877012 -9.000004 24.497014 0.089818 0.311633 -0.945948 0 0
    0 -51.646228 8.999998 6.853221 -0.231242 0.625684 -0.745015 0 0
  phy
    0 -51.646228 -9.000003 6.853221 0.717177 0.662192 -0.217160 0 0
    0 -63.999999 -9.000005 44.352483 0.857378 -0.301935 -0.416819 0 0
    0 -60.877012 -9.000004 24.497014 0.089818 0.311633 -0.945948 0 0
  phy
    0 -55.247062 -9.000005 44.352483 0.385651 -0.471497 0.793073 0 0
    0 -63.999999 -9.000005 44.352483 0.857378 -0.301935 -0.416819 0 0
    0 -44.695810 -9.000003 11.882212 0.427115 -0.179254 0.886251 0 0
  phy
    0 -44.695810 -9.000003 11.882212 0.427115 -0.179254 0.886251 0 0
    0 -63.999999 -9.000005 44.352483 0.857378 -0.301935 -0.416819 0 0
    0 -51.646228 -9.000003 6.853221 0.717177 0.662192 -0.217160 0 0
  phy
    0 -55.247062 8.999995 44.352483 -0.384309 -0.471783 0.793554 0 0
    0 -55.247062 -9.000005 44.352483 0.385651 -0.471497 0.793073 0 0
    0 -44.695810 -9.000003 11.882212 0.427115 -0.179254 0.886251 0 0
  phy
    0 -51.646228 -9.000003 6.853221 0.222830 -0.418976 -0.880230 0 0
    0 -45.789490 -9.000002 0.011297 0.418458 0.799096 -0.431670 0 0
    0 -44.695810 -9.000003 11.882212 0.540427 -0.793738 0.279138 0 0
  phy
    0 -45.789490 -9.000002 0.011297 0.418458 0.799096 -0.431670 0 0
    0 -32.136161 -9.000001 -0.007970 0.353344 0.085825 0.931548 0 0
    0 -44.695810 -9.000003 11.882212 0.540427 -0.793738 0.279138 0 0
  phy
    0 -51.646228 -9.000003 6.853221 0.222830 -0.418976 -0.880230 0 0
    0 -51.646228 8.999998 6.853221 -0.216314 0.240829 -0.946155 0 0
    0 -45.789490 -9.000002 0.011297 0.418458 0.799096 -0.431670 0 0
  phy
    0 -45.789490 -9.000002 0.011297 0.418458 0.799096 -0.431670 0 0
    0 -51.646228 8.999998 6.853221 -0.216314 0.240829 -0.946155 0 0
    0 -45.789490 8.999999 0.011298 -0.365123 0.911548 -0.189120 0 0
  phy
    0 -51.646228 -9.000003 6.853221 0.222830 -0.418976 -0.880230 0 0
    0 -44.695810 -9.000003 11.882212 0.540427 -0.793738 0.279138 0 0
    0 -44.695810 8.999997 11.882212 -0.305770 -0.898183 0.315868 0 0
  phy
    0 -51.646228 -9.000003 6.853221 0.222830 -0.418976 -0.880230 0 0
    0 -44.695810 8.999997 11.882212 -0.305770 -0.898183 0.315868 0 0
    0 -51.646228 8.999998 6.853221 -0.216314 0.240829 -0.946155 0 0
  phy
    0 -44.695810 8.999997 11.882212 -0.305770 -0.898183 0.315868 0 0
    0 -32.136161 8.999999 -0.007969 -0.602763 0.073203 0.794555 0 0
    0 -45.789490 8.999999 0.011298 -0.365123 0.911548 -0.189120 0 0
  phy
    0 -44.695810 8.999997 11.882212 -0.305770 -0.898183 0.315868 0 0
    0 -45.789490 8.999999 0.011298 -0.365123 0.911548 -0.189120 0 0
    0 -51.646228 8.999998 6.853221 -0.216314 0.240829 -0.946155 0 0
  phy
    0 -45.789490 -9.000002 0.011297 0.418458 0.799096 -0.431670 0 0
    0 -45.789490 8.999999 0.011298 -0.365123 0.911548 -0.189120 0 0
    0 -32.136161 -9.000001 -0.007970 0.353344 0.085825 0.931548 0 0
  phy
    0 -32.136161 -9.000001 -0.007970 0.353344 0.085825 0.931548 0 0
    0 -45.789490 8.999999 0.011298 -0.365123 0.911548 -0.189120 0 0
    0 -32.136161 8.999999 -0.007969 -0.602763 0.073203 0.794555 0 0
  phy
    0 -44.695810 8.999997 11.882212 -0.305770 -0.898183 0.315868 0 0
    0 -32.136161 -9.000001 -0.007970 0.353344 0.085825 0.931548 0 0
    0 -32.136161 8.999999 -0.007969 -0.602763 0.073203 0.794555 0 0
  phy
    0 -44.695810 8.999997 11.882212 -0.305770 -0.898183 0.315868 0 0
    0 -44.695810 -9.000003 11.882212 0.540427 -0.793738 0.279138 0 0
    0 -32.136161 -9.000001 -0.007970 0.353344 0.085825 0.931548 0 0
end
