// Created by Crowbar 0.74
version 1
nodes
  0 "polymsh" -1
end
skeleton
  time 0
    0 0.000000 0.000000 0.000000 1.570796 0.000000 0.000000
end
triangles
  phy
    0 20.000001 -19.999998 20.000001 0.577350 -0.577350 0.577350 0 0
    0 -20.000001 -20.000003 -20.000001 0.816497 0.408248 -0.408248 0 0
    0 20.000001 -20.000001 -20.000001 0.408248 0.816497 0.408248 0 0
  phy
    0 20.000001 -19.999998 20.000001 0.577350 -0.577350 0.577350 0 0
    0 -20.000001 -20.000001 20.000001 0.408248 -0.408248 -0.816497 0 0
    0 -20.000001 -20.000003 -20.000001 0.816497 0.408248 -0.408248 0 0
  phy
    0 20.000001 -19.999998 20.000001 0.577350 -0.577350 0.577350 0 0
    0 20.000001 20.000001 -20.000001 -0.666667 0.333333 0.666667 0 0
    0 20.000001 20.000003 20.000001 -0.577350 -0.577350 0.577350 0 0
  phy
    0 20.000001 -19.999998 20.000001 0.577350 -0.577350 0.577350 0 0
    0 20.000001 -20.000001 -20.000001 0.408248 0.816497 0.408248 0 0
    0 20.000001 20.000001 -20.000001 -0.666667 0.333333 0.666667 0 0
  phy
    0 20.000001 20.000003 20.000001 -0.577350 -0.577350 0.577350 0 0
    0 -20.000001 20.000001 20.000001 -0.666667 -0.666667 -0.333333 0 0
    0 20.000001 -19.999998 20.000001 0.577350 -0.577350 0.577350 0 0
  phy
    0 -20.000001 20.000001 20.000001 -0.666667 -0.666667 -0.333333 0 0
    0 -20.000001 -20.000001 20.000001 0.408248 -0.408248 -0.816497 0 0
    0 20.000001 -19.999998 20.000001 0.577350 -0.577350 0.577350 0 0
  phy
    0 20.000001 20.000001 -20.000001 -0.666667 0.333333 0.666667 0 0
    0 20.000001 -20.000001 -20.000001 0.408248 0.816497 0.408248 0 0
    0 -20.000001 19.999998 -20.000001 -0.333333 0.666667 -0.666667 0 0
  phy
    0 -20.000001 19.999998 -20.000001 -0.333333 0.666667 -0.666667 0 0
    0 20.000001 -20.000001 -20.000001 0.408248 0.816497 0.408248 0 0
    0 -20.000001 -20.000003 -20.000001 0.816497 0.408248 -0.408248 0 0
  phy
    0 -20.000001 20.000001 20.000001 -0.666667 -0.666667 -0.333333 0 0
    0 -20.000001 19.999998 -20.000001 -0.333333 0.666667 -0.666667 0 0
    0 -20.000001 -20.000001 20.000001 0.408248 -0.408248 -0.816497 0 0
  phy
    0 -20.000001 -20.000001 20.000001 0.408248 -0.408248 -0.816497 0 0
    0 -20.000001 19.999998 -20.000001 -0.333333 0.666667 -0.666667 0 0
    0 -20.000001 -20.000003 -20.000001 0.816497 0.408248 -0.408248 0 0
  phy
    0 -20.000001 20.000001 20.000001 -0.666667 -0.666667 -0.333333 0 0
    0 20.000001 20.000001 -20.000001 -0.666667 0.333333 0.666667 0 0
    0 -20.000001 19.999998 -20.000001 -0.333333 0.666667 -0.666667 0 0
  phy
    0 20.000001 20.000001 -20.000001 -0.666667 0.333333 0.666667 0 0
    0 -20.000001 20.000001 20.000001 -0.666667 -0.666667 -0.333333 0 0
    0 20.000001 20.000003 20.000001 -0.577350 -0.577350 0.577350 0 0
end
