// Created by Crowbar 0.74
version 1
nodes
  0 "door_root" -1
  1 "door_left" 0
  2 "door_right" 0
end
skeleton
  time 0
    0 0.000000 0.000000 0.000000 0.000000 0.000000 0.000000
    1 -10.000000 0.000000 0.000000 0.000000 0.000000 0.000000
    2 10.000000 0.000000 0.000000 0.000000 0.000000 0.000000
end
triangles
  phy
    0 32.136163 -0.007971 0.000000 -0.642443 -0.764044 -0.059189 0 0
    0 45.789494 0.011297 0.000000 0.328853 -0.132020 -0.935108 0 0
    0 51.646223 6.853218 0.000000 0.720859 -0.602190 0.343118 0 0
  phy
    0 51.646223 6.853218 0.000000 0.720859 -0.602190 0.343118 0 0
    0 44.695805 11.882209 0.000000 -0.491725 -0.225754 0.840977 0 0
    0 32.136163 -0.007971 0.000000 -0.642443 -0.764044 -0.059189 0 0
  phy
    0 44.695810 11.882213 -16.936485 -0.060977 0.469857 0.880634 0 0
    0 44.695805 11.882209 0.000000 -0.491725 -0.225754 0.840977 0 0
    0 51.646223 6.853218 0.000000 0.720859 -0.602190 0.343118 0 0
  phy
    0 51.646223 6.853218 0.000000 0.720859 -0.602190 0.343118 0 0
    0 51.646223 6.853217 -16.936485 0.943301 0.229204 -0.240102 0 0
    0 44.695810 11.882213 -16.936485 -0.060977 0.469857 0.880634 0 0
  phy
    0 45.789494 0.011297 0.000000 0.328853 -0.132020 -0.935108 0 0
    0 51.646223 6.853217 -16.936485 0.943301 0.229204 -0.240102 0 0
    0 51.646223 6.853218 0.000000 0.720859 -0.602190 0.343118 0 0
  phy
    0 45.789490 0.011299 -16.936485 0.274003 0.563797 -0.779137 0 0
    0 32.136161 -0.007969 -16.936485 -0.924106 0.372532 -0.085139 0 0
    0 44.695810 11.882213 -16.936485 -0.060977 0.469857 0.880634 0 0
  phy
    0 45.789490 0.011299 -16.936485 0.274003 0.563797 -0.779137 0 0
    0 44.695810 11.882213 -16.936485 -0.060977 0.469857 0.880634 0 0
    0 51.646223 6.853217 -16.936485 0.943301 0.229204 -0.240102 0 0
  phy
    0 45.789490 0.011299 -16.936485 0.274003 0.563797 -0.779137 0 0
    0 51.646223 6.853217 -16.936485 0.943301 0.229204 -0.240102 0 0
    0 45.789494 0.011297 0.000000 0.328853 -0.132020 -0.935108 0 0
  phy
    0 45.789490 0.011299 -16.936485 0.274003 0.563797 -0.779137 0 0
    0 45.789494 0.011297 0.000000 0.328853 -0.132020 -0.935108 0 0
    0 32.136161 -0.007969 -16.936485 -0.924106 0.372532 -0.085139 0 0
  phy
    0 44.695810 11.882213 -16.936485 -0.060977 0.469857 0.880634 0 0
    0 32.136161 -0.007969 -16.936485 -0.924106 0.372532 -0.085139 0 0
    0 44.695805 11.882209 0.000000 -0.491725 -0.225754 0.840977 0 0
  phy
    0 45.789494 0.011297 0.000000 0.328853 -0.132020 -0.935108 0 0
    0 32.136163 -0.007971 0.000000 -0.642443 -0.764044 -0.059189 0 0
    0 32.136161 -0.007969 -16.936485 -0.924106 0.372532 -0.085139 0 0
  phy
    0 44.695805 11.882209 0.000000 -0.491725 -0.225754 0.840977 0 0
    0 32.136161 -0.007969 -16.936485 -0.924106 0.372532 -0.085139 0 0
    0 32.136163 -0.007971 0.000000 -0.642443 -0.764044 -0.059189 0 0
  phy
    0 60.877012 24.497021 0.000000 0.932803 -0.188263 -0.307303 0 0
    0 51.646223 6.853220 0.000000 0.422376 -0.726680 -0.541788 0 0
    0 60.877012 24.497012 -16.936481 0.945454 0.095408 -0.311471 0 0
  phy
    0 60.877012 24.497012 -16.936481 0.945454 0.095408 -0.311471 0 0
    0 64.000004 44.352483 0.000000 0.805584 -0.546679 0.228421 0 0
    0 60.877012 24.497021 0.000000 0.932803 -0.188263 -0.307303 0 0
  phy
    0 60.877012 24.497021 0.000000 0.932803 -0.188263 -0.307303 0 0
    0 64.000004 44.352483 0.000000 0.805584 -0.546679 0.228421 0 0
    0 51.646223 6.853220 0.000000 0.422376 -0.726680 -0.541788 0 0
  phy
    0 51.646223 6.853220 0.000000 0.422376 -0.726680 -0.541788 0 0
    0 51.646228 6.853220 -16.936485 0.262746 0.904088 -0.337029 0 0
    0 60.877012 24.497012 -16.936481 0.945454 0.095408 -0.311471 0 0
  phy
    0 64.000004 44.352483 -16.936481 0.584960 0.793921 0.165864 0 0
    0 60.877012 24.497012 -16.936481 0.945454 0.095408 -0.311471 0 0
    0 51.646228 6.853220 -16.936485 0.262746 0.904088 -0.337029 0 0
  phy
    0 64.000004 44.352483 -16.936481 0.584960 0.793921 0.165864 0 0
    0 64.000004 44.352483 0.000000 0.805584 -0.546679 0.228421 0 0
    0 60.877012 24.497012 -16.936481 0.945454 0.095408 -0.311471 0 0
  phy
    0 44.695805 11.882214 -16.936483 -0.972490 0.213410 0.093382 0 0
    0 55.247057 44.352478 0.000000 -0.812201 -0.448223 0.373397 0 0
    0 55.247057 44.352478 -16.936480 -0.580762 0.641001 0.501829 0 0
  phy
    0 55.247057 44.352478 0.000000 -0.812201 -0.448223 0.373397 0 0
    0 44.695805 11.882214 -16.936483 -0.972490 0.213410 0.093382 0 0
    0 44.695805 11.882212 0.000000 -0.912169 -0.400345 0.087590 0 0
  phy
    0 51.646223 6.853220 0.000000 0.422376 -0.726680 -0.541788 0 0
    0 44.695805 11.882214 -16.936483 -0.972490 0.213410 0.093382 0 0
    0 51.646228 6.853220 -16.936485 0.262746 0.904088 -0.337029 0 0
  phy
    0 44.695805 11.882214 -16.936483 -0.972490 0.213410 0.093382 0 0
    0 51.646223 6.853220 0.000000 0.422376 -0.726680 -0.541788 0 0
    0 44.695805 11.882212 0.000000 -0.912169 -0.400345 0.087590 0 0
  phy
    0 44.695805 11.882214 -16.936483 -0.972490 0.213410 0.093382 0 0
    0 55.247057 44.352478 -16.936480 -0.580762 0.641001 0.501829 0 0
    0 51.646228 6.853220 -16.936485 0.262746 0.904088 -0.337029 0 0
  phy
    0 51.646223 6.853220 0.000000 0.422376 -0.726680 -0.541788 0 0
    0 64.000004 44.352483 0.000000 0.805584 -0.546679 0.228421 0 0
    0 55.247057 44.352478 0.000000 -0.812201 -0.448223 0.373397 0 0
  phy
    0 55.247057 44.352478 0.000000 -0.812201 -0.448223 0.373397 0 0
    0 44.695805 11.882212 0.000000 -0.912169 -0.400345 0.087590 0 0
    0 51.646223 6.853220 0.000000 0.422376 -0.726680 -0.541788 0 0
  phy
    0 55.247057 44.352478 0.000000 -0.812201 -0.448223 0.373397 0 0
    0 64.000004 44.352483 0.000000 0.805584 -0.546679 0.228421 0 0
    0 55.247057 44.352478 -16.936480 -0.580762 0.641001 0.501829 0 0
  phy
    0 55.247057 44.352478 -16.936480 -0.580762 0.641001 0.501829 0 0
    0 64.000004 44.352483 -16.936481 0.584960 0.793921 0.165864 0 0
    0 51.646228 6.853220 -16.936485 0.262746 0.904088 -0.337029 0 0
  phy
    0 55.247057 44.352478 -16.936480 -0.580762 0.641001 0.501829 0 0
    0 64.000004 44.352483 0.000000 0.805584 -0.546679 0.228421 0 0
    0 64.000004 44.352483 -16.936481 0.584960 0.793921 0.165864 0 0
  phy
    0 60.882794 64.093053 0.000000 0.927286 -0.121101 0.354224 0 0
    0 63.999990 44.352478 0.000000 0.826036 -0.561148 -0.052694 0 0
    0 60.882803 64.093034 -16.936481 0.959072 0.121564 0.255742 0 0
  phy
    0 63.999990 44.352478 0.000000 0.826036 -0.561148 -0.052694 0 0
    0 63.999995 44.352483 -16.936484 0.544152 0.739314 -0.396626 0 0
    0 60.882803 64.093034 -16.936481 0.959072 0.121564 0.255742 0 0
  phy
    0 60.882803 64.093034 -16.936481 0.959072 0.121564 0.255742 0 0
    0 51.777086 82.139744 -16.936483 0.518825 0.740007 0.428031 0 0
    0 60.882794 64.093053 0.000000 0.927286 -0.121101 0.354224 0 0
  phy
    0 51.777086 82.139744 -16.936483 0.518825 0.740007 0.428031 0 0
    0 60.882803 64.093034 -16.936481 0.959072 0.121564 0.255742 0 0
    0 63.999995 44.352483 -16.936484 0.544152 0.739314 -0.396626 0 0
  phy
    0 55.247062 44.352473 0.000000 -0.773181 -0.435295 -0.461204 0 0
    0 44.718760 76.676316 0.000000 -0.909962 -0.406185 -0.083561 0 0
    0 44.718760 76.676316 -16.936480 -0.972091 0.216959 -0.089266 0 0
  phy
    0 55.247062 44.352478 -16.936481 -0.617372 0.695151 -0.368263 0 0
    0 55.247062 44.352473 0.000000 -0.773181 -0.435295 -0.461204 0 0
    0 44.718760 76.676316 -16.936480 -0.972091 0.216959 -0.089266 0 0
  phy
    0 55.247062 44.352473 0.000000 -0.773181 -0.435295 -0.461204 0 0
    0 51.777086 82.139744 0.000000 0.142437 -0.874002 0.464577 0 0
    0 44.718760 76.676316 0.000000 -0.909962 -0.406185 -0.083561 0 0
  phy
    0 55.247062 44.352473 0.000000 -0.773181 -0.435295 -0.461204 0 0
    0 63.999990 44.352478 0.000000 0.826036 -0.561148 -0.052694 0 0
    0 51.777086 82.139744 0.000000 0.142437 -0.874002 0.464577 0 0
  phy
    0 55.247062 44.352473 0.000000 -0.773181 -0.435295 -0.461204 0 0
    0 55.247062 44.352478 -16.936481 -0.617372 0.695151 -0.368263 0 0
    0 63.999995 44.352483 -16.936484 0.544152 0.739314 -0.396626 0 0
  phy
    0 63.999990 44.352478 0.000000 0.826036 -0.561148 -0.052694 0 0
    0 55.247062 44.352473 0.000000 -0.773181 -0.435295 -0.461204 0 0
    0 63.999995 44.352483 -16.936484 0.544152 0.739314 -0.396626 0 0
  phy
    0 51.777086 82.139744 -16.936483 0.518825 0.740007 0.428031 0 0
    0 51.777086 82.139744 0.000000 0.142437 -0.874002 0.464577 0 0
    0 60.882794 64.093053 0.000000 0.927286 -0.121101 0.354224 0 0
  phy
    0 51.777086 82.139744 0.000000 0.142437 -0.874002 0.464577 0 0
    0 63.999990 44.352478 0.000000 0.826036 -0.561148 -0.052694 0 0
    0 60.882794 64.093053 0.000000 0.927286 -0.121101 0.354224 0 0
  phy
    0 51.777086 82.139744 0.000000 0.142437 -0.874002 0.464577 0 0
    0 44.718760 76.676316 -16.936480 -0.972091 0.216959 -0.089266 0 0
    0 44.718760 76.676316 0.000000 -0.909962 -0.406185 -0.083561 0 0
  phy
    0 55.247062 44.352478 -16.936481 -0.617372 0.695151 -0.368263 0 0
    0 51.777086 82.139744 -16.936483 0.518825 0.740007 0.428031 0 0
    0 63.999995 44.352483 -16.936484 0.544152 0.739314 -0.396626 0 0
  phy
    0 51.777086 82.139744 -16.936483 0.518825 0.740007 0.428031 0 0
    0 55.247062 44.352478 -16.936481 -0.617372 0.695151 -0.368263 0 0
    0 44.718760 76.676316 -16.936480 -0.972091 0.216959 -0.089266 0 0
  phy
    0 51.777086 82.139744 -16.936483 0.518825 0.740007 0.428031 0 0
    0 44.718760 76.676316 -16.936480 -0.972091 0.216959 -0.089266 0 0
    0 51.777086 82.139744 0.000000 0.142437 -0.874002 0.464577 0 0
  phy
    0 19.777084 105.136971 -16.936483 -0.272877 0.379922 0.883854 0 0
    0 37.627671 96.087869 -16.936483 0.509983 0.486156 0.709627 0 0
    0 16.930993 96.978174 -16.936483 -0.563359 0.662483 -0.493704 0 0
  phy
    0 16.930993 96.978174 -16.936483 -0.563359 0.662483 -0.493704 0 0
    0 37.627671 96.087869 -16.936483 0.509983 0.486156 0.709627 0 0
    0 44.718756 76.676321 -16.936483 -0.357912 0.406744 -0.840510 0 0
  phy
    0 44.718756 76.676321 -16.936483 -0.357912 0.406744 -0.840510 0 0
    0 37.627671 96.087869 -16.936483 0.509983 0.486156 0.709627 0 0
    0 51.777091 82.139753 -16.936483 0.839407 0.448742 0.306637 0 0
  phy
    0 37.627671 96.087869 -16.936483 0.509983 0.486156 0.709627 0 0
    0 19.777089 105.136971 0.000001 0.167836 -0.740373 0.650906 0 0
    0 37.627652 96.087869 0.000000 0.574237 -0.178309 0.799035 0 0
  phy
    0 19.777084 105.136971 -16.936483 -0.272877 0.379922 0.883854 0 0
    0 19.777089 105.136971 0.000001 0.167836 -0.740373 0.650906 0 0
    0 37.627671 96.087869 -16.936483 0.509983 0.486156 0.709627 0 0
  phy
    0 37.627652 96.087869 0.000000 0.574237 -0.178309 0.799035 0 0
    0 51.777086 82.139744 0.000000 0.785959 -0.547572 0.287113 0 0
    0 37.627671 96.087869 -16.936483 0.509983 0.486156 0.709627 0 0
  phy
    0 51.777086 82.139744 0.000000 0.785959 -0.547572 0.287113 0 0
    0 51.777091 82.139753 -16.936483 0.839407 0.448742 0.306637 0 0
    0 37.627671 96.087869 -16.936483 0.509983 0.486156 0.709627 0 0
  phy
    0 37.627652 96.087869 0.000000 0.574237 -0.178309 0.799035 0 0
    0 19.777089 105.136971 0.000001 0.167836 -0.740373 0.650906 0 0
    0 51.777086 82.139744 0.000000 0.785959 -0.547572 0.287113 0 0
  phy
    0 16.930993 96.978165 0.000000 -0.734206 -0.216668 -0.643426 0 0
    0 44.718756 76.676321 -16.936483 -0.357912 0.406744 -0.840510 0 0
    0 44.718751 76.676316 0.000000 -0.281343 -0.695935 -0.660697 0 0
  phy
    0 44.718756 76.676321 -16.936483 -0.357912 0.406744 -0.840510 0 0
    0 16.930993 96.978165 0.000000 -0.734206 -0.216668 -0.643426 0 0
    0 16.930993 96.978174 -16.936483 -0.563359 0.662483 -0.493704 0 0
  phy
    0 19.777084 105.136971 -16.936483 -0.272877 0.379922 0.883854 0 0
    0 16.930993 96.978165 0.000000 -0.734206 -0.216668 -0.643426 0 0
    0 19.777089 105.136971 0.000001 0.167836 -0.740373 0.650906 0 0
  phy
    0 16.930993 96.978165 0.000000 -0.734206 -0.216668 -0.643426 0 0
    0 19.777084 105.136971 -16.936483 -0.272877 0.379922 0.883854 0 0
    0 16.930993 96.978174 -16.936483 -0.563359 0.662483 -0.493704 0 0
  phy
    0 44.718751 76.676316 0.000000 -0.281343 -0.695935 -0.660697 0 0
    0 19.777089 105.136971 0.000001 0.167836 -0.740373 0.650906 0 0
    0 16.930993 96.978165 0.000000 -0.734206 -0.216668 -0.643426 0 0
  phy
    0 44.718756 76.676321 -16.936483 -0.357912 0.406744 -0.840510 0 0
    0 51.777086 82.139744 0.000000 0.785959 -0.547572 0.287113 0 0
    0 44.718751 76.676316 0.000000 -0.281343 -0.695935 -0.660697 0 0
  phy
    0 51.777086 82.139744 0.000000 0.785959 -0.547572 0.287113 0 0
    0 44.718756 76.676321 -16.936483 -0.357912 0.406744 -0.840510 0 0
    0 51.777091 82.139753 -16.936483 0.839407 0.448742 0.306637 0 0
  phy
    0 51.777086 82.139744 0.000000 0.785959 -0.547572 0.287113 0 0
    0 19.777089 105.136971 0.000001 0.167836 -0.740373 0.650906 0 0
    0 44.718751 76.676316 0.000000 -0.281343 -0.695935 -0.660697 0 0
  phy
    0 -19.777089 105.136971 0.000000 -0.464518 -0.542427 0.699997 0 0
    0 19.777089 105.136980 0.000000 0.246796 -0.733765 0.632993 0 0
    0 -0.000038 108.213594 0.000000 0.000000 -0.178732 0.983898 0 0
  phy
    0 -16.930993 96.978184 0.000001 -0.158048 -0.685107 -0.711091 0 0
    0 19.777089 105.136980 0.000000 0.246796 -0.733765 0.632993 0 0
    0 -19.777089 105.136971 0.000000 -0.464518 -0.542427 0.699997 0 0
  phy
    0 -19.777089 105.136971 0.000000 -0.464518 -0.542427 0.699997 0 0
    0 -0.000038 108.213594 0.000000 0.000000 -0.178732 0.983898 0 0
    0 0.000054 108.213603 -16.936481 -0.000001 0.090456 0.995900 0 0
  phy
    0 0.000054 108.213603 -16.936481 -0.000001 0.090456 0.995900 0 0
    0 -19.777091 105.136961 -16.936479 -0.238267 0.902391 0.359052 0 0
    0 -19.777089 105.136971 0.000000 -0.464518 -0.542427 0.699997 0 0
  phy
    0 -19.777089 105.136971 0.000000 -0.464518 -0.542427 0.699997 0 0
    0 -16.930993 96.978165 -16.936477 -0.212037 0.211967 -0.953997 0 0
    0 -16.930993 96.978184 0.000001 -0.158048 -0.685107 -0.711091 0 0
  phy
    0 -16.930993 96.978165 -16.936477 -0.212037 0.211967 -0.953997 0 0
    0 -19.777089 105.136971 0.000000 -0.464518 -0.542427 0.699997 0 0
    0 -19.777091 105.136961 -16.936479 -0.238267 0.902391 0.359052 0 0
  phy
    0 0.000054 108.213603 -16.936481 -0.000001 0.090456 0.995900 0 0
    0 19.777089 105.136999 -16.936484 0.545712 0.738330 0.396317 0 0
    0 -19.777091 105.136961 -16.936479 -0.238267 0.902391 0.359052 0 0
  phy
    0 -0.000038 108.213594 0.000000 0.000000 -0.178732 0.983898 0 0
    0 19.777089 105.136980 0.000000 0.246796 -0.733765 0.632993 0 0
    0 0.000054 108.213603 -16.936481 -0.000001 0.090456 0.995900 0 0
  phy
    0 0.000054 108.213603 -16.936481 -0.000001 0.090456 0.995900 0 0
    0 19.777089 105.136980 0.000000 0.246796 -0.733765 0.632993 0 0
    0 19.777089 105.136999 -16.936484 0.545712 0.738330 0.396317 0 0
  phy
    0 -16.930993 96.978165 -16.936477 -0.212037 0.211967 -0.953997 0 0
    0 16.930992 96.978184 0.000000 0.212037 -0.211969 -0.953997 0 0
    0 -16.930993 96.978184 0.000001 -0.158048 -0.685107 -0.711091 0 0
  phy
    0 16.930992 96.978184 0.000000 0.212037 -0.211969 -0.953997 0 0
    0 -16.930993 96.978165 -16.936477 -0.212037 0.211967 -0.953997 0 0
    0 16.930977 96.978165 -16.936481 0.158049 0.685107 -0.711090 0 0
  phy
    0 16.930977 96.978165 -16.936481 0.158049 0.685107 -0.711090 0 0
    0 19.777089 105.136999 -16.936484 0.545712 0.738330 0.396317 0 0
    0 16.930992 96.978184 0.000000 0.212037 -0.211969 -0.953997 0 0
  phy
    0 19.777089 105.136999 -16.936484 0.545712 0.738330 0.396317 0 0
    0 19.777089 105.136980 0.000000 0.246796 -0.733765 0.632993 0 0
    0 16.930992 96.978184 0.000000 0.212037 -0.211969 -0.953997 0 0
  phy
    0 16.930992 96.978184 0.000000 0.212037 -0.211969 -0.953997 0 0
    0 19.777089 105.136980 0.000000 0.246796 -0.733765 0.632993 0 0
    0 -16.930993 96.978184 0.000001 -0.158048 -0.685107 -0.711091 0 0
  phy
    0 16.930977 96.978165 -16.936481 0.158049 0.685107 -0.711090 0 0
    0 -16.930993 96.978165 -16.936477 -0.212037 0.211967 -0.953997 0 0
    0 -19.777091 105.136961 -16.936479 -0.238267 0.902391 0.359052 0 0
  phy
    0 19.777089 105.136999 -16.936484 0.545712 0.738330 0.396317 0 0
    0 16.930977 96.978165 -16.936481 0.158049 0.685107 -0.711090 0 0
    0 -19.777091 105.136961 -16.936479 -0.238267 0.902391 0.359052 0 0
  phy
    0 -51.777086 82.139744 0.000000 -0.696262 -0.564524 0.443319 0 0
    0 -44.718765 76.676321 0.000000 0.352574 -0.436066 -0.827972 0 0
    0 -19.777084 105.136971 0.000000 -0.167837 -0.740373 0.650906 0 0
  phy
    0 -19.777084 105.136971 0.000000 -0.167837 -0.740373 0.650906 0 0
    0 -37.627652 96.087869 0.000000 -0.574237 -0.178309 0.799035 0 0
    0 -51.777086 82.139744 0.000000 -0.696262 -0.564524 0.443319 0 0
  phy
    0 -51.777086 82.139744 0.000000 -0.696262 -0.564524 0.443319 0 0
    0 -37.627652 96.087869 0.000000 -0.574237 -0.178309 0.799035 0 0
    0 -37.627671 96.087869 -16.936481 -0.553325 0.317849 0.769937 0 0
  phy
    0 -37.627671 96.087869 -16.936481 -0.553325 0.317849 0.769937 0 0
    0 -51.777091 82.139744 -16.936481 -0.593576 0.804777 0.000782 0 0
    0 -51.777086 82.139744 0.000000 -0.696262 -0.564524 0.443319 0 0
  phy
    0 -44.718765 76.676321 0.000000 0.352574 -0.436066 -0.827972 0 0
    0 -51.777086 82.139744 0.000000 -0.696262 -0.564524 0.443319 0 0
    0 -51.777091 82.139744 -16.936481 -0.593576 0.804777 0.000782 0 0
  phy
    0 -44.718765 76.676321 0.000000 0.352574 -0.436066 -0.827972 0 0
    0 -44.718765 76.676321 -16.936480 0.355924 0.417960 -0.835839 0 0
    0 -16.930997 96.978203 -16.936481 0.579497 0.521063 -0.626640 0 0
  phy
    0 -44.718765 76.676321 -16.936480 0.355924 0.417960 -0.835839 0 0
    0 -44.718765 76.676321 0.000000 0.352574 -0.436066 -0.827972 0 0
    0 -51.777091 82.139744 -16.936481 -0.593576 0.804777 0.000782 0 0
  phy
    0 -16.930997 96.978203 -16.936481 0.579497 0.521063 -0.626640 0 0
    0 -44.718765 76.676321 -16.936480 0.355924 0.417960 -0.835839 0 0
    0 -51.777091 82.139744 -16.936481 -0.593576 0.804777 0.000782 0 0
  phy
    0 -37.627671 96.087869 -16.936481 -0.553325 0.317849 0.769937 0 0
    0 -37.627652 96.087869 0.000000 -0.574237 -0.178309 0.799035 0 0
    0 -19.777084 105.136971 0.000000 -0.167837 -0.740373 0.650906 0 0
  phy
    0 -19.777084 105.136971 0.000000 -0.167837 -0.740373 0.650906 0 0
    0 -19.777084 105.136971 -16.936480 0.272875 0.379922 0.883854 0 0
    0 -37.627671 96.087869 -16.936481 -0.553325 0.317849 0.769937 0 0
  phy
    0 -44.718765 76.676321 0.000000 0.352574 -0.436066 -0.827972 0 0
    0 -16.930997 96.978203 0.000000 0.796948 -0.365569 -0.480866 0 0
    0 -19.777084 105.136971 0.000000 -0.167837 -0.740373 0.650906 0 0
  phy
    0 -19.777084 105.136971 0.000000 -0.167837 -0.740373 0.650906 0 0
    0 -16.930997 96.978203 0.000000 0.796948 -0.365569 -0.480866 0 0
    0 -19.777084 105.136971 -16.936480 0.272875 0.379922 0.883854 0 0
  phy
    0 -37.627671 96.087869 -16.936481 -0.553325 0.317849 0.769937 0 0
    0 -19.777084 105.136971 -16.936480 0.272875 0.379922 0.883854 0 0
    0 -16.930997 96.978203 -16.936481 0.579497 0.521063 -0.626640 0 0
  phy
    0 -37.627671 96.087869 -16.936481 -0.553325 0.317849 0.769937 0 0
    0 -16.930997 96.978203 -16.936481 0.579497 0.521063 -0.626640 0 0
    0 -51.777091 82.139744 -16.936481 -0.593576 0.804777 0.000782 0 0
  phy
    0 -44.718765 76.676321 0.000000 0.352574 -0.436066 -0.827972 0 0
    0 -16.930997 96.978203 -16.936481 0.579497 0.521063 -0.626640 0 0
    0 -16.930997 96.978203 0.000000 0.796948 -0.365569 -0.480866 0 0
  phy
    0 -19.777084 105.136971 -16.936480 0.272875 0.379922 0.883854 0 0
    0 -16.930997 96.978203 0.000000 0.796948 -0.365569 -0.480866 0 0
    0 -16.930997 96.978203 -16.936481 0.579497 0.521063 -0.626640 0 0
  phy
    0 -55.247067 44.352478 0.000000 0.822878 -0.422966 -0.379435 0 0
    0 -44.718770 76.676321 0.000000 0.789016 -0.610875 0.065462 0 0
    0 -60.882789 64.093034 0.000000 -0.640012 -0.739951 0.207022 0 0
  phy
    0 -60.882789 64.093034 0.000000 -0.640012 -0.739951 0.207022 0 0
    0 -44.718770 76.676321 0.000000 0.789016 -0.610875 0.065462 0 0
    0 -51.777091 82.139744 0.000000 -0.745935 -0.254694 0.615396 0 0
  phy
    0 -60.882789 64.093034 0.000000 -0.640012 -0.739951 0.207022 0 0
    0 -63.999990 44.352483 0.000000 -0.933204 -0.241144 -0.266420 0 0
    0 -55.247067 44.352478 0.000000 0.822878 -0.422966 -0.379435 0 0
  phy
    0 -60.882789 64.093043 -16.936487 -0.900900 0.321650 0.291411 0 0
    0 -60.882789 64.093034 0.000000 -0.640012 -0.739951 0.207022 0 0
    0 -51.777091 82.139744 0.000000 -0.745935 -0.254694 0.615396 0 0
  phy
    0 -60.882789 64.093034 0.000000 -0.640012 -0.739951 0.207022 0 0
    0 -60.882789 64.093043 -16.936487 -0.900900 0.321650 0.291411 0 0
    0 -63.999990 44.352483 0.000000 -0.933204 -0.241144 -0.266420 0 0
  phy
    0 -44.718774 76.676321 -16.936484 0.836785 0.521420 -0.167071 0 0
    0 -55.247067 44.352478 0.000000 0.822878 -0.422966 -0.379435 0 0
    0 -55.247071 44.352483 -16.936484 0.703722 0.363690 -0.610331 0 0
  phy
    0 -44.718774 76.676321 -16.936484 0.836785 0.521420 -0.167071 0 0
    0 -55.247071 44.352483 -16.936484 0.703722 0.363690 -0.610331 0 0
    0 -63.999990 44.352487 -16.936487 -0.505397 0.850739 -0.144285 0 0
  phy
    0 -55.247071 44.352483 -16.936484 0.703722 0.363690 -0.610331 0 0
    0 -55.247067 44.352478 0.000000 0.822878 -0.422966 -0.379435 0 0
    0 -63.999990 44.352483 0.000000 -0.933204 -0.241144 -0.266420 0 0
  phy
    0 -55.247071 44.352483 -16.936484 0.703722 0.363690 -0.610331 0 0
    0 -63.999990 44.352483 0.000000 -0.933204 -0.241144 -0.266420 0 0
    0 -63.999990 44.352487 -16.936487 -0.505397 0.850739 -0.144285 0 0
  phy
    0 -60.882789 64.093043 -16.936487 -0.900900 0.321650 0.291411 0 0
    0 -51.777091 82.139744 0.000000 -0.745935 -0.254694 0.615396 0 0
    0 -51.777095 82.139744 -16.936484 -0.269231 0.395473 0.878132 0 0
  phy
    0 -44.718774 76.676321 -16.936484 0.836785 0.521420 -0.167071 0 0
    0 -60.882789 64.093043 -16.936487 -0.900900 0.321650 0.291411 0 0
    0 -51.777095 82.139744 -16.936484 -0.269231 0.395473 0.878132 0 0
  phy
    0 -60.882789 64.093043 -16.936487 -0.900900 0.321650 0.291411 0 0
    0 -44.718774 76.676321 -16.936484 0.836785 0.521420 -0.167071 0 0
    0 -63.999990 44.352487 -16.936487 -0.505397 0.850739 -0.144285 0 0
  phy
    0 -63.999990 44.352483 0.000000 -0.933204 -0.241144 -0.266420 0 0
    0 -60.882789 64.093043 -16.936487 -0.900900 0.321650 0.291411 0 0
    0 -63.999990 44.352487 -16.936487 -0.505397 0.850739 -0.144285 0 0
  phy
    0 -44.718774 76.676321 -16.936484 0.836785 0.521420 -0.167071 0 0
    0 -44.718770 76.676321 0.000000 0.789016 -0.610875 0.065462 0 0
    0 -55.247067 44.352478 0.000000 0.822878 -0.422966 -0.379435 0 0
  phy
    0 -51.777095 82.139744 -16.936484 -0.269231 0.395473 0.878132 0 0
    0 -44.718770 76.676321 0.000000 0.789016 -0.610875 0.065462 0 0
    0 -44.718774 76.676321 -16.936484 0.836785 0.521420 -0.167071 0 0
  phy
    0 -51.777091 82.139744 0.000000 -0.745935 -0.254694 0.615396 0 0
    0 -44.718770 76.676321 0.000000 0.789016 -0.610875 0.065462 0 0
    0 -51.777095 82.139744 -16.936484 -0.269231 0.395473 0.878132 0 0
  phy
    0 -44.695815 11.882212 0.000000 0.911152 -0.402676 0.087493 0 0
    0 -55.247071 44.352483 0.000000 0.596942 -0.614492 0.515810 0 0
    0 -60.876997 24.496993 0.000000 -0.639085 -0.739759 -0.210540 0 0
  phy
    0 -60.876997 24.496993 0.000000 -0.639085 -0.739759 -0.210540 0 0
    0 -51.646233 6.853222 0.000000 -0.742448 -0.244916 -0.623528 0 0
    0 -44.695815 11.882212 0.000000 0.911152 -0.402676 0.087493 0 0
  phy
    0 -51.646228 6.853222 -16.936484 -0.184461 0.805971 -0.562481 0 0
    0 -44.695815 11.882212 0.000000 0.911152 -0.402676 0.087493 0 0
    0 -51.646233 6.853222 0.000000 -0.742448 -0.244916 -0.623528 0 0
  phy
    0 -44.695815 11.882212 0.000000 0.911152 -0.402676 0.087493 0 0
    0 -51.646228 6.853222 -16.936484 -0.184461 0.805971 -0.562481 0 0
    0 -44.695810 11.882214 -16.936483 0.912169 0.400345 0.087590 0 0
  phy
    0 -44.695815 11.882212 0.000000 0.911152 -0.402676 0.087493 0 0
    0 -55.247067 44.352487 -16.936483 0.776591 0.519075 0.357026 0 0
    0 -55.247071 44.352483 0.000000 0.596942 -0.614492 0.515810 0 0
  phy
    0 -44.695815 11.882212 0.000000 0.911152 -0.402676 0.087493 0 0
    0 -44.695810 11.882214 -16.936483 0.912169 0.400345 0.087590 0 0
    0 -55.247067 44.352487 -16.936483 0.776591 0.519075 0.357026 0 0
  phy
    0 -55.247071 44.352483 0.000000 0.596942 -0.614492 0.515810 0 0
    0 -63.999995 44.352483 0.000000 -0.966394 -0.249721 0.061008 0 0
    0 -60.876997 24.496993 0.000000 -0.639085 -0.739759 -0.210540 0 0
  phy
    0 -60.876997 24.496993 0.000000 -0.639085 -0.739759 -0.210540 0 0
    0 -60.877002 24.497002 -16.936481 -0.898882 0.322984 -0.296128 0 0
    0 -51.646233 6.853222 0.000000 -0.742448 -0.244916 -0.623528 0 0
  phy
    0 -60.877002 24.497002 -16.936481 -0.898882 0.322984 -0.296128 0 0
    0 -60.876997 24.496993 0.000000 -0.639085 -0.739759 -0.210540 0 0
    0 -63.999995 44.352483 0.000000 -0.966394 -0.249721 0.061008 0 0
  phy
    0 -55.247067 44.352487 -16.936483 0.776591 0.519075 0.357026 0 0
    0 -63.999995 44.352487 -16.936480 -0.747057 0.386086 0.541151 0 0
    0 -55.247071 44.352483 0.000000 0.596942 -0.614492 0.515810 0 0
  phy
    0 -63.999995 44.352487 -16.936480 -0.747057 0.386086 0.541151 0 0
    0 -63.999995 44.352483 0.000000 -0.966394 -0.249721 0.061008 0 0
    0 -55.247071 44.352483 0.000000 0.596942 -0.614492 0.515810 0 0
  phy
    0 -60.877002 24.497002 -16.936481 -0.898882 0.322984 -0.296128 0 0
    0 -55.247067 44.352487 -16.936483 0.776591 0.519075 0.357026 0 0
    0 -51.646228 6.853222 -16.936484 -0.184461 0.805971 -0.562481 0 0
  phy
    0 -55.247067 44.352487 -16.936483 0.776591 0.519075 0.357026 0 0
    0 -60.877002 24.497002 -16.936481 -0.898882 0.322984 -0.296128 0 0
    0 -63.999995 44.352487 -16.936480 -0.747057 0.386086 0.541151 0 0
  phy
    0 -60.877002 24.497002 -16.936481 -0.898882 0.322984 -0.296128 0 0
    0 -51.646228 6.853222 -16.936484 -0.184461 0.805971 -0.562481 0 0
    0 -51.646233 6.853222 0.000000 -0.742448 -0.244916 -0.623528 0 0
  phy
    0 -63.999995 44.352487 -16.936480 -0.747057 0.386086 0.541151 0 0
    0 -60.877002 24.497002 -16.936481 -0.898882 0.322984 -0.296128 0 0
    0 -63.999995 44.352483 0.000000 -0.966394 -0.249721 0.061008 0 0
  phy
    0 -51.646228 6.853222 -16.936484 -0.184461 0.805971 -0.562481 0 0
    0 -55.247067 44.352487 -16.936483 0.776591 0.519075 0.357026 0 0
    0 -44.695810 11.882214 -16.936483 0.912169 0.400345 0.087590 0 0
  phy
    0 -51.646223 6.853218 0.000000 -0.943301 -0.229204 -0.240102 0 0
    0 -45.789485 0.011299 -16.936485 -0.313972 0.323020 -0.892793 0 0
    0 -45.789485 0.011297 0.000000 -0.274003 -0.563797 -0.779138 0 0
  phy
    0 -45.789485 0.011299 -16.936485 -0.313972 0.323020 -0.892793 0 0
    0 -51.646223 6.853218 0.000000 -0.943301 -0.229204 -0.240102 0 0
    0 -51.646223 6.853220 -16.936485 -0.877413 0.236065 0.417636 0 0
  phy
    0 -45.789485 0.011297 0.000000 -0.274003 -0.563797 -0.779138 0 0
    0 -44.695805 11.882207 0.000000 0.060978 -0.469857 0.880634 0 0
    0 -51.646223 6.853218 0.000000 -0.943301 -0.229204 -0.240102 0 0
  phy
    0 -44.695805 11.882207 0.000000 0.060978 -0.469857 0.880634 0 0
    0 -51.646223 6.853220 -16.936485 -0.877413 0.236065 0.417636 0 0
    0 -51.646223 6.853218 0.000000 -0.943301 -0.229204 -0.240102 0 0
  phy
    0 -45.789485 0.011299 -16.936485 -0.313972 0.323020 -0.892793 0 0
    0 -51.646223 6.853220 -16.936485 -0.877413 0.236065 0.417636 0 0
    0 -44.695805 11.882209 -16.936485 0.471833 0.355240 0.806956 0 0
  phy
    0 -45.789485 0.011299 -16.936485 -0.313972 0.323020 -0.892793 0 0
    0 -44.695805 11.882209 -16.936485 0.471833 0.355240 0.806956 0 0
    0 -32.136161 -0.007969 -16.936485 0.776494 0.626051 -0.071539 0 0
  phy
    0 -45.789485 0.011299 -16.936485 -0.313972 0.323020 -0.892793 0 0
    0 -32.136161 -0.007971 0.000000 0.924106 -0.372532 -0.085139 0 0
    0 -45.789485 0.011297 0.000000 -0.274003 -0.563797 -0.779138 0 0
  phy
    0 -32.136161 -0.007971 0.000000 0.924106 -0.372532 -0.085139 0 0
    0 -45.789485 0.011299 -16.936485 -0.313972 0.323020 -0.892793 0 0
    0 -32.136161 -0.007969 -16.936485 0.776494 0.626051 -0.071539 0 0
  phy
    0 -44.695805 11.882209 -16.936485 0.471833 0.355240 0.806956 0 0
    0 -44.695805 11.882207 0.000000 0.060978 -0.469857 0.880634 0 0
    0 -32.136161 -0.007971 0.000000 0.924106 -0.372532 -0.085139 0 0
  phy
    0 -32.136161 -0.007971 0.000000 0.924106 -0.372532 -0.085139 0 0
    0 -32.136161 -0.007969 -16.936485 0.776494 0.626051 -0.071539 0 0
    0 -44.695805 11.882209 -16.936485 0.471833 0.355240 0.806956 0 0
  phy
    0 -44.695805 11.882209 -16.936485 0.471833 0.355240 0.806956 0 0
    0 -51.646223 6.853220 -16.936485 -0.877413 0.236065 0.417636 0 0
    0 -44.695805 11.882207 0.000000 0.060978 -0.469857 0.880634 0 0
  phy
    0 -32.136161 -0.007971 0.000000 0.924106 -0.372532 -0.085139 0 0
    0 -44.695805 11.882207 0.000000 0.060978 -0.469857 0.880634 0 0
    0 -45.789485 0.011297 0.000000 -0.274003 -0.563797 -0.779138 0 0
  phy
    1 -60.350681 28.459101 0.000001 -0.059814 -0.981592 -0.181381 0 0
    1 0.000000 68.262787 0.000001 0.059814 -0.981592 0.181381 0 0
    1 -60.350681 68.262787 0.000001 -0.233084 -0.956268 0.176702 0 0
  phy
    1 -60.350681 28.459101 0.000001 -0.059814 -0.981592 -0.181381 0 0
    1 0.000000 28.459101 0.000001 0.233084 -0.956268 -0.176702 0 0
    1 0.000000 68.262787 0.000001 0.059814 -0.981592 0.181381 0 0
  phy
    1 -60.350681 28.459101 0.000001 -0.059814 -0.981592 -0.181381 0 0
    1 -60.350681 68.262787 0.000001 -0.233084 -0.956268 0.176702 0 0
    1 -60.350681 28.459101 -7.355035 -0.233084 0.956268 -0.176702 0 0
  phy
    1 -60.350681 28.459101 -7.355035 -0.233084 0.956268 -0.176702 0 0
    1 -60.350681 68.262787 0.000001 -0.233084 -0.956268 0.176702 0 0
    1 -60.350681 68.262787 -7.355035 -0.059814 0.981592 0.181381 0 0
  phy
    1 0.000000 28.459101 0.000001 0.233084 -0.956268 -0.176702 0 0
    1 -60.350681 28.459101 0.000001 -0.059814 -0.981592 -0.181381 0 0
    1 0.000000 28.459101 -7.355035 0.059814 0.981592 -0.181381 0 0
  phy
    1 0.000000 28.459101 -7.355035 0.059814 0.981592 -0.181381 0 0
    1 -60.350681 28.459101 0.000001 -0.059814 -0.981592 -0.181381 0 0
    1 -60.350681 28.459101 -7.355035 -0.233084 0.956268 -0.176702 0 0
  phy
    1 0.000000 68.262787 0.000001 0.059814 -0.981592 0.181381 0 0
    1 -60.350681 68.262787 -7.355035 -0.059814 0.981592 0.181381 0 0
    1 -60.350681 68.262787 0.000001 -0.233084 -0.956268 0.176702 0 0
  phy
    1 0.000000 68.262787 0.000001 0.059814 -0.981592 0.181381 0 0
    1 0.000000 68.262787 -7.355035 0.233084 0.956268 0.176702 0 0
    1 -60.350681 68.262787 -7.355035 -0.059814 0.981592 0.181381 0 0
  phy
    1 0.000000 28.459101 0.000001 0.233084 -0.956268 -0.176702 0 0
    1 0.000000 68.262787 -7.355035 0.233084 0.956268 0.176702 0 0
    1 0.000000 68.262787 0.000001 0.059814 -0.981592 0.181381 0 0
  phy
    1 0.000000 28.459101 0.000001 0.233084 -0.956268 -0.176702 0 0
    1 0.000000 28.459101 -7.355035 0.059814 0.981592 -0.181381 0 0
    1 0.000000 68.262787 -7.355035 0.233084 0.956268 0.176702 0 0
  phy
    1 -60.350681 28.459101 -7.355035 -0.233084 0.956268 -0.176702 0 0
    1 -60.350681 68.262787 -7.355035 -0.059814 0.981592 0.181381 0 0
    1 0.000000 28.459101 -7.355035 0.059814 0.981592 -0.181381 0 0
  phy
    1 0.000000 28.459101 -7.355035 0.059814 0.981592 -0.181381 0 0
    1 -60.350681 68.262787 -7.355035 -0.059814 0.981592 0.181381 0 0
    1 0.000000 68.262787 -7.355035 0.233084 0.956268 0.176702 0 0
  phy
    1 -31.823715 108.023816 0.000001 -0.199620 -0.863715 0.462761 0 0
    1 -31.823715 108.023816 -7.355036 -0.379885 0.821841 0.424577 0 0
    1 -60.350676 68.262787 0.000001 -0.157592 -0.987483 -0.006533 0 0
  phy
    1 -60.350676 68.262787 0.000001 -0.157592 -0.987483 -0.006533 0 0
    1 -31.823715 108.023816 -7.355036 -0.379885 0.821841 0.424577 0 0
    1 -60.350676 68.262787 -7.355036 -0.078223 0.980305 -0.181338 0 0
  phy
    1 -60.350676 68.262787 0.000001 -0.157592 -0.987483 -0.006533 0 0
    1 -60.350676 68.262787 -7.355036 -0.078223 0.980305 -0.181338 0 0
    1 0.000000 68.262787 0.000001 0.113561 -0.931806 -0.344733 0 0
  phy
    1 0.000000 68.262787 0.000001 0.113561 -0.931806 -0.344733 0 0
    1 -60.350676 68.262787 -7.355036 -0.078223 0.980305 -0.181338 0 0
    1 0.000000 68.262787 -7.355037 0.233076 0.956236 -0.176886 0 0
  phy
    1 -60.350676 68.262787 0.000001 -0.157592 -0.987483 -0.006533 0 0
    1 0.000000 108.023816 0.000001 0.157283 -0.985546 0.062943 0 0
    1 -31.823715 108.023816 0.000001 -0.199620 -0.863715 0.462761 0 0
  phy
    1 0.000000 68.262787 0.000001 0.113561 -0.931806 -0.344733 0 0
    1 0.000000 108.023816 0.000001 0.157283 -0.985546 0.062943 0 0
    1 -60.350676 68.262787 0.000001 -0.157592 -0.987483 -0.006533 0 0
  phy
    1 -31.823715 108.023816 0.000001 -0.199620 -0.863715 0.462761 0 0
    1 0.000000 108.023816 -7.355037 0.078905 0.988848 0.126307 0 0
    1 -31.823715 108.023816 -7.355036 -0.379885 0.821841 0.424577 0 0
  phy
    1 -31.823715 108.023816 0.000001 -0.199620 -0.863715 0.462761 0 0
    1 0.000000 108.023816 0.000001 0.157283 -0.985546 0.062943 0 0
    1 0.000000 108.023816 -7.355037 0.078905 0.988848 0.126307 0 0
  phy
    1 0.000000 68.262787 -7.355037 0.233076 0.956236 -0.176886 0 0
    1 0.000000 108.023816 0.000001 0.157283 -0.985546 0.062943 0 0
    1 0.000000 68.262787 0.000001 0.113561 -0.931806 -0.344733 0 0
  phy
    1 0.000000 68.262787 -7.355037 0.233076 0.956236 -0.176886 0 0
    1 0.000000 108.023816 -7.355037 0.078905 0.988848 0.126307 0 0
    1 0.000000 108.023816 0.000001 0.157283 -0.985546 0.062943 0 0
  phy
    1 -31.823715 108.023816 -7.355036 -0.379885 0.821841 0.424577 0 0
    1 0.000000 108.023816 -7.355037 0.078905 0.988848 0.126307 0 0
    1 -60.350676 68.262787 -7.355036 -0.078223 0.980305 -0.181338 0 0
  phy
    1 0.000000 108.023816 -7.355037 0.078905 0.988848 0.126307 0 0
    1 0.000000 68.262787 -7.355037 0.233076 0.956236 -0.176886 0 0
    1 -60.350676 68.262787 -7.355036 -0.078223 0.980305 -0.181338 0 0
  phy
    1 0.000000 0.000866 0.000001 0.320319 -0.917173 -0.237044 0 0
    1 0.000000 28.459101 -7.355037 0.140512 0.978805 0.148990 0 0
    1 0.000000 28.459101 0.000001 0.068505 -0.954404 0.290552 0 0
  phy
    1 0.000000 0.000866 0.000001 0.320319 -0.917173 -0.237044 0 0
    1 0.000000 0.000866 -7.355036 0.153291 0.877842 -0.453757 0 0
    1 0.000000 28.459101 -7.355037 0.140512 0.978805 0.148990 0 0
  phy
    1 0.000000 0.000866 0.000001 0.320319 -0.917173 -0.237044 0 0
    1 -42.119498 0.000866 0.000001 -0.069327 -0.965857 -0.249626 0 0
    1 0.000000 0.000866 -7.355036 0.153291 0.877842 -0.453757 0 0
  phy
    1 0.000000 0.000866 0.000001 0.320319 -0.917173 -0.237044 0 0
    1 0.000000 28.459101 0.000001 0.068505 -0.954404 0.290552 0 0
    1 -42.119498 0.000866 0.000001 -0.069327 -0.965857 -0.249626 0 0
  phy
    1 -60.350676 28.459099 0.000001 -0.235649 -0.966792 0.098904 0 0
    1 -42.119502 0.000866 -7.355036 -0.139440 0.971336 -0.192518 0 0
    1 -42.119498 0.000866 0.000001 -0.069327 -0.965857 -0.249626 0 0
  phy
    1 -42.119502 0.000866 -7.355036 -0.139440 0.971336 -0.192518 0 0
    1 -60.350676 28.459099 0.000001 -0.235649 -0.966792 0.098904 0 0
    1 -60.350676 28.459101 -7.355036 -0.110911 0.910061 0.399359 0 0
  phy
    1 -42.119498 0.000866 0.000001 -0.069327 -0.965857 -0.249626 0 0
    1 0.000000 28.459101 0.000001 0.068505 -0.954404 0.290552 0 0
    1 -60.350676 28.459099 0.000001 -0.235649 -0.966792 0.098904 0 0
  phy
    1 0.000000 28.459101 0.000001 0.068505 -0.954404 0.290552 0 0
    1 -60.350676 28.459101 -7.355036 -0.110911 0.910061 0.399359 0 0
    1 -60.350676 28.459099 0.000001 -0.235649 -0.966792 0.098904 0 0
  phy
    1 -42.119498 0.000866 0.000001 -0.069327 -0.965857 -0.249626 0 0
    1 -42.119502 0.000866 -7.355036 -0.139440 0.971336 -0.192518 0 0
    1 0.000000 0.000866 -7.355036 0.153291 0.877842 -0.453757 0 0
  phy
    1 0.000000 0.000866 -7.355036 0.153291 0.877842 -0.453757 0 0
    1 -42.119502 0.000866 -7.355036 -0.139440 0.971336 -0.192518 0 0
    1 0.000000 28.459101 -7.355037 0.140512 0.978805 0.148990 0 0
  phy
    1 0.000000 28.459101 -7.355037 0.140512 0.978805 0.148990 0 0
    1 -42.119502 0.000866 -7.355036 -0.139440 0.971336 -0.192518 0 0
    1 -60.350676 28.459101 -7.355036 -0.110911 0.910061 0.399359 0 0
  phy
    1 0.000000 28.459101 -7.355037 0.140512 0.978805 0.148990 0 0
    1 -60.350676 28.459101 -7.355036 -0.110911 0.910061 0.399359 0 0
    1 0.000000 28.459101 0.000001 0.068505 -0.954404 0.290552 0 0
  phy
    2 60.350681 28.459101 -7.355035 0.233084 0.956268 -0.176702 0 0
    2 60.350681 68.262787 0.000001 0.233084 -0.956268 0.176702 0 0
    2 60.350681 28.459101 0.000001 0.059814 -0.981592 -0.181381 0 0
  phy
    2 60.350681 28.459101 -7.355035 0.233084 0.956268 -0.176702 0 0
    2 60.350681 68.262787 -7.355035 0.059814 0.981592 0.181381 0 0
    2 60.350681 68.262787 0.000001 0.233084 -0.956268 0.176702 0 0
  phy
    2 60.350681 28.459101 -7.355035 0.233084 0.956268 -0.176702 0 0
    2 60.350681 28.459101 0.000001 0.059814 -0.981592 -0.181381 0 0
    2 0.000000 28.459101 -7.355035 -0.059814 0.981592 -0.181381 0 0
  phy
    2 0.000000 28.459101 -7.355035 -0.059814 0.981592 -0.181381 0 0
    2 60.350681 28.459101 0.000001 0.059814 -0.981592 -0.181381 0 0
    2 0.000000 28.459101 0.000001 -0.233084 -0.956268 -0.176702 0 0
  phy
    2 60.350681 28.459101 0.000001 0.059814 -0.981592 -0.181381 0 0
    2 0.000000 68.262787 0.000001 -0.059814 -0.981592 0.181381 0 0
    2 0.000000 28.459101 0.000001 -0.233084 -0.956268 -0.176702 0 0
  phy
    2 60.350681 28.459101 0.000001 0.059814 -0.981592 -0.181381 0 0
    2 60.350681 68.262787 0.000001 0.233084 -0.956268 0.176702 0 0
    2 0.000000 68.262787 0.000001 -0.059814 -0.981592 0.181381 0 0
  phy
    2 60.350681 28.459101 -7.355035 0.233084 0.956268 -0.176702 0 0
    2 0.000000 28.459101 -7.355035 -0.059814 0.981592 -0.181381 0 0
    2 60.350681 68.262787 -7.355035 0.059814 0.981592 0.181381 0 0
  phy
    2 60.350681 68.262787 -7.355035 0.059814 0.981592 0.181381 0 0
    2 0.000000 28.459101 -7.355035 -0.059814 0.981592 -0.181381 0 0
    2 0.000000 68.262787 -7.355035 -0.233084 0.956268 0.176702 0 0
  phy
    2 0.000000 28.459101 -7.355035 -0.059814 0.981592 -0.181381 0 0
    2 0.000000 28.459101 0.000001 -0.233084 -0.956268 -0.176702 0 0
    2 0.000000 68.262787 -7.355035 -0.233084 0.956268 0.176702 0 0
  phy
    2 0.000000 68.262787 -7.355035 -0.233084 0.956268 0.176702 0 0
    2 0.000000 28.459101 0.000001 -0.233084 -0.956268 -0.176702 0 0
    2 0.000000 68.262787 0.000001 -0.059814 -0.981592 0.181381 0 0
  phy
    2 60.350681 68.262787 -7.355035 0.059814 0.981592 0.181381 0 0
    2 0.000000 68.262787 0.000001 -0.059814 -0.981592 0.181381 0 0
    2 60.350681 68.262787 0.000001 0.233084 -0.956268 0.176702 0 0
  phy
    2 60.350681 68.262787 -7.355035 0.059814 0.981592 0.181381 0 0
    2 0.000000 68.262787 -7.355035 -0.233084 0.956268 0.176702 0 0
    2 0.000000 68.262787 0.000001 -0.059814 -0.981592 0.181381 0 0
  phy
    2 31.823715 108.023816 0.000001 0.379885 -0.821841 0.424577 0 0
    2 60.350676 68.262787 -7.355036 0.157592 0.987483 -0.006533 0 0
    2 31.823715 108.023816 -7.355036 0.199620 0.863715 0.462761 0 0
  phy
    2 31.823715 108.023816 0.000001 0.379885 -0.821841 0.424577 0 0
    2 60.350676 68.262787 0.000001 0.078223 -0.980305 -0.181338 0 0
    2 60.350676 68.262787 -7.355036 0.157592 0.987483 -0.006533 0 0
  phy
    2 60.350676 68.262787 -7.355036 0.157592 0.987483 -0.006533 0 0
    2 60.350676 68.262787 0.000001 0.078223 -0.980305 -0.181338 0 0
    2 0.000000 68.262787 -7.355037 -0.113561 0.931806 -0.344733 0 0
  phy
    2 0.000000 68.262787 -7.355037 -0.113561 0.931806 -0.344733 0 0
    2 60.350676 68.262787 0.000001 0.078223 -0.980305 -0.181338 0 0
    2 0.000000 68.262787 0.000001 -0.233076 -0.956236 -0.176886 0 0
  phy
    2 31.823715 108.023816 0.000001 0.379885 -0.821841 0.424577 0 0
    2 0.000000 108.023816 0.000001 -0.078905 -0.988848 0.126307 0 0
    2 60.350676 68.262787 0.000001 0.078223 -0.980305 -0.181338 0 0
  phy
    2 60.350676 68.262787 0.000001 0.078223 -0.980305 -0.181338 0 0
    2 0.000000 108.023816 0.000001 -0.078905 -0.988848 0.126307 0 0
    2 0.000000 68.262787 0.000001 -0.233076 -0.956236 -0.176886 0 0
  phy
    2 31.823715 108.023816 -7.355036 0.199620 0.863715 0.462761 0 0
    2 0.000000 108.023816 0.000001 -0.078905 -0.988848 0.126307 0 0
    2 31.823715 108.023816 0.000001 0.379885 -0.821841 0.424577 0 0
  phy
    2 31.823715 108.023816 -7.355036 0.199620 0.863715 0.462761 0 0
    2 0.000000 108.023816 -7.355037 -0.157283 0.985546 0.062943 0 0
    2 0.000000 108.023816 0.000001 -0.078905 -0.988848 0.126307 0 0
  phy
    2 0.000000 68.262787 -7.355037 -0.113561 0.931806 -0.344733 0 0
    2 0.000000 68.262787 0.000001 -0.233076 -0.956236 -0.176886 0 0
    2 0.000000 108.023816 -7.355037 -0.157283 0.985546 0.062943 0 0
  phy
    2 0.000000 108.023816 -7.355037 -0.157283 0.985546 0.062943 0 0
    2 0.000000 68.262787 0.000001 -0.233076 -0.956236 -0.176886 0 0
    2 0.000000 108.023816 0.000001 -0.078905 -0.988848 0.126307 0 0
  phy
    2 0.000000 108.023816 -7.355037 -0.157283 0.985546 0.062943 0 0
    2 31.823715 108.023816 -7.355036 0.199620 0.863715 0.462761 0 0
    2 60.350676 68.262787 -7.355036 0.157592 0.987483 -0.006533 0 0
  phy
    2 0.000000 108.023816 -7.355037 -0.157283 0.985546 0.062943 0 0
    2 60.350676 68.262787 -7.355036 0.157592 0.987483 -0.006533 0 0
    2 0.000000 68.262787 -7.355037 -0.113561 0.931806 -0.344733 0 0
  phy
    2 0.000000 0.000866 0.000001 -0.166702 -0.954639 -0.246727 0 0
    2 0.000000 28.459101 0.000001 -0.136055 -0.947756 0.288528 0 0
    2 0.000000 0.000866 -7.355036 -0.296316 0.848446 -0.438562 0 0
  phy
    2 0.000000 0.000866 -7.355036 -0.296316 0.848446 -0.438562 0 0
    2 0.000000 28.459101 0.000001 -0.136055 -0.947756 0.288528 0 0
    2 0.000000 28.459101 -7.355037 -0.070782 0.986133 0.150106 0 0
  phy
    2 42.119498 0.000866 0.000001 0.069327 -0.965857 -0.249626 0 0
    2 0.000000 0.000866 0.000001 -0.166702 -0.954639 -0.246727 0 0
    2 0.000000 0.000866 -7.355036 -0.296316 0.848446 -0.438562 0 0
  phy
    2 42.119498 0.000866 0.000001 0.069327 -0.965857 -0.249626 0 0
    2 0.000000 28.459101 0.000001 -0.136055 -0.947756 0.288528 0 0
    2 0.000000 0.000866 0.000001 -0.166702 -0.954639 -0.246727 0 0
  phy
    2 60.350676 28.459099 0.000001 0.235649 -0.966792 0.098904 0 0
    2 42.119498 0.000866 0.000001 0.069327 -0.965857 -0.249626 0 0
    2 42.119502 0.000866 -7.355036 0.139440 0.971336 -0.192518 0 0
  phy
    2 42.119502 0.000866 -7.355036 0.139440 0.971336 -0.192518 0 0
    2 60.350676 28.459101 -7.355036 0.110911 0.910061 0.399359 0 0
    2 60.350676 28.459099 0.000001 0.235649 -0.966792 0.098904 0 0
  phy
    2 60.350676 28.459099 0.000001 0.235649 -0.966792 0.098904 0 0
    2 0.000000 28.459101 0.000001 -0.136055 -0.947756 0.288528 0 0
    2 42.119498 0.000866 0.000001 0.069327 -0.965857 -0.249626 0 0
  phy
    2 60.350676 28.459099 0.000001 0.235649 -0.966792 0.098904 0 0
    2 60.350676 28.459101 -7.355036 0.110911 0.910061 0.399359 0 0
    2 0.000000 28.459101 0.000001 -0.136055 -0.947756 0.288528 0 0
  phy
    2 42.119502 0.000866 -7.355036 0.139440 0.971336 -0.192518 0 0
    2 42.119498 0.000866 0.000001 0.069327 -0.965857 -0.249626 0 0
    2 0.000000 0.000866 -7.355036 -0.296316 0.848446 -0.438562 0 0
  phy
    2 42.119502 0.000866 -7.355036 0.139440 0.971336 -0.192518 0 0
    2 0.000000 0.000866 -7.355036 -0.296316 0.848446 -0.438562 0 0
    2 0.000000 28.459101 -7.355037 -0.070782 0.986133 0.150106 0 0
  phy
    2 60.350676 28.459101 -7.355036 0.110911 0.910061 0.399359 0 0
    2 42.119502 0.000866 -7.355036 0.139440 0.971336 -0.192518 0 0
    2 0.000000 28.459101 -7.355037 -0.070782 0.986133 0.150106 0 0
  phy
    2 60.350676 28.459101 -7.355036 0.110911 0.910061 0.399359 0 0
    2 0.000000 28.459101 -7.355037 -0.070782 0.986133 0.150106 0 0
    2 0.000000 28.459101 0.000001 -0.136055 -0.947756 0.288528 0 0
end
