// Created by Crowbar 0.74
version 1
nodes
  0 "polymsh" -1
end
skeleton
  time 0
    0 0.000000 0.000000 0.000000 1.570796 0.000000 0.000000
end
triangles
  phy
    0 -2.161713 -3.491429 8.442213 0.980923 -0.164352 -0.103824 0 0
    0 -4.860748 -2.731827 10.183517 0.936898 -0.237419 -0.256621 0 0
    0 -2.965507 -3.390246 8.339793 0.971617 -0.171828 -0.162591 0 0
  phy
    0 -2.965507 -3.390246 8.339793 0.971617 -0.171828 -0.162591 0 0
    0 -6.682587 -4.183990 0.248219 0.995646 -0.053868 -0.076080 0 0
    0 -2.161713 -3.491429 8.442213 0.980923 -0.164352 -0.103824 0 0
  phy
    0 -4.860748 -2.731827 10.183517 0.936898 -0.237419 -0.256621 0 0
    0 -6.682587 -4.183990 0.248219 0.995646 -0.053868 -0.076080 0 0
    0 -2.965507 -3.390246 8.339793 0.971617 -0.171828 -0.162591 0 0
  phy
    0 -3.388116 -0.563923 13.090699 0.149717 -0.946092 -0.287219 0 0
    0 -5.444499 0.619462 12.111013 -0.202892 -0.807151 -0.554384 0 0
    0 -5.444499 -0.563923 12.111013 0.191593 -0.772604 -0.605289 0 0
  phy
    0 -3.388116 0.619462 13.090699 -0.208757 -0.937705 -0.277724 0 0
    0 -5.444499 0.619462 12.111013 -0.202892 -0.807151 -0.554384 0 0
    0 -3.388116 -0.563923 13.090699 0.149717 -0.946092 -0.287219 0 0
  phy
    0 -1.181118 -0.563923 13.482977 0.199601 -0.977560 -0.067351 0 0
    0 -1.181118 0.619462 13.482977 -0.111556 -0.990116 -0.085002 0 0
    0 -3.388116 -0.563923 13.090699 0.149717 -0.946092 -0.287219 0 0
  phy
    0 -3.388116 -0.563923 13.090699 0.149717 -0.946092 -0.287219 0 0
    0 -1.181118 0.619462 13.482977 -0.111556 -0.990116 -0.085002 0 0
    0 -3.388116 0.619462 13.090699 -0.208757 -0.937705 -0.277724 0 0
  phy
    0 -3.388116 -0.563923 13.090699 0.149717 -0.946092 -0.287219 0 0
    0 -1.144157 -1.706985 13.090699 0.537630 -0.839403 -0.079735 0 0
    0 -1.181118 -0.563923 13.482977 0.199601 -0.977560 -0.067351 0 0
  phy
    0 -3.388116 -0.563923 13.090699 0.149717 -0.946092 -0.287219 0 0
    0 -3.316586 -1.706985 12.669658 0.580378 -0.762967 -0.284679 0 0
    0 -1.144157 -1.706985 13.090699 0.537630 -0.839403 -0.079735 0 0
  phy
    0 -5.444499 -0.563923 12.111013 0.191593 -0.772604 -0.605289 0 0
    0 -3.316586 -1.706985 12.669658 0.580378 -0.762967 -0.284679 0 0
    0 -3.388116 -0.563923 13.090699 0.149717 -0.946092 -0.287219 0 0
  phy
    0 -0.738533 -3.491506 9.019061 0.988199 -0.149585 -0.032972 0 0
    0 0.738533 -3.491506 9.019061 0.994749 -0.102044 0.007781 0 0
    0 -1.042237 -2.731827 12.111013 0.912672 -0.405053 -0.054427 0 0
  phy
    0 0.738533 -3.491506 9.019061 0.994749 -0.102044 0.007781 0 0
    0 1.042250 -2.731827 12.111013 0.875490 -0.479765 0.057812 0 0
    0 -1.042237 -2.731827 12.111013 0.912672 -0.405053 -0.054427 0 0
  phy
    0 -3.042799 -2.731827 11.551776 0.920222 -0.349462 -0.176259 0 0
    0 -0.738533 -3.491506 9.019061 0.988199 -0.149585 -0.032972 0 0
    0 -1.042237 -2.731827 12.111013 0.912672 -0.405053 -0.054427 0 0
  phy
    0 -1.042237 -2.731827 12.111013 0.912672 -0.405053 -0.054427 0 0
    0 1.042250 -2.731827 12.111013 0.875490 -0.479765 0.057812 0 0
    0 -1.144157 -1.706985 13.090699 0.537630 -0.839403 -0.079735 0 0
  phy
    0 -1.042237 -2.731827 12.111013 0.912672 -0.405053 -0.054427 0 0
    0 -3.316586 -1.706985 12.669658 0.580378 -0.762967 -0.284679 0 0
    0 -3.042799 -2.731827 11.551776 0.920222 -0.349462 -0.176259 0 0
  phy
    0 -1.144157 -1.706985 13.090699 0.537630 -0.839403 -0.079735 0 0
    0 -3.316586 -1.706985 12.669658 0.580378 -0.762967 -0.284679 0 0
    0 -1.042237 -2.731827 12.111013 0.912672 -0.405053 -0.054427 0 0
  phy
    0 -2.161713 -3.491429 8.442213 0.980923 -0.164352 -0.103824 0 0
    0 -0.738533 -3.491506 9.019061 0.988199 -0.149585 -0.032972 0 0
    0 -3.042799 -2.731827 11.551776 0.920222 -0.349462 -0.176259 0 0
  phy
    0 -3.042799 -2.731827 11.551776 0.920222 -0.349462 -0.176259 0 0
    0 -4.860748 -2.731827 10.183517 0.936898 -0.237419 -0.256621 0 0
    0 -2.161713 -3.491429 8.442213 0.980923 -0.164352 -0.103824 0 0
  phy
    0 -2.161713 -3.491429 8.442213 0.980923 -0.164352 -0.103824 0 0
    0 -6.682587 -4.183990 0.248219 0.995646 -0.053868 -0.076080 0 0
    0 -0.738533 -3.491506 9.019061 0.988199 -0.149585 -0.032972 0 0
  phy
    0 1.144214 -1.706985 13.090699 0.474541 -0.876582 0.080093 0 0
    0 1.042250 -2.731827 12.111013 0.875490 -0.479765 0.057812 0 0
    0 3.317538 -1.706985 12.669658 0.580523 -0.762895 0.284578 0 0
  phy
    0 -1.144157 -1.706985 13.090699 0.537630 -0.839403 -0.079735 0 0
    0 1.042250 -2.731827 12.111013 0.875490 -0.479765 0.057812 0 0
    0 1.144214 -1.706985 13.090699 0.474541 -0.876582 0.080093 0 0
  phy
    0 3.317538 -1.706985 12.669658 0.580523 -0.762895 0.284578 0 0
    0 3.389877 -0.563923 13.090699 0.208839 -0.937730 0.277577 0 0
    0 1.144214 -1.706985 13.090699 0.474541 -0.876582 0.080093 0 0
  phy
    0 1.144214 -1.706985 13.090699 0.474541 -0.876582 0.080093 0 0
    0 3.389877 -0.563923 13.090699 0.208839 -0.937730 0.277577 0 0
    0 1.181215 -0.563923 13.482977 0.111557 -0.990119 0.084971 0 0
  phy
    0 -1.181118 -0.563923 13.482977 0.199601 -0.977560 -0.067351 0 0
    0 -1.144157 -1.706985 13.090699 0.537630 -0.839403 -0.079735 0 0
    0 1.144214 -1.706985 13.090699 0.474541 -0.876582 0.080093 0 0
  phy
    0 1.144214 -1.706985 13.090699 0.474541 -0.876582 0.080093 0 0
    0 1.181215 -0.563923 13.482977 0.111557 -0.990119 0.084971 0 0
    0 -1.181118 -0.563923 13.482977 0.199601 -0.977560 -0.067351 0 0
  phy
    0 3.317538 -1.706985 12.669658 0.580523 -0.762895 0.284578 0 0
    0 5.332725 -1.706985 11.551776 0.634755 -0.577460 0.513446 0 0
    0 5.447117 -0.563923 12.111013 0.203174 -0.807063 0.554409 0 0
  phy
    0 5.447117 -0.563923 12.111013 0.203174 -0.807063 0.554409 0 0
    0 3.389877 -0.563923 13.090699 0.208839 -0.937730 0.277577 0 0
    0 3.317538 -1.706985 12.669658 0.580523 -0.762895 0.284578 0 0
  phy
    0 5.447117 -0.563923 12.111013 0.203174 -0.807063 0.554409 0 0
    0 5.447117 0.619462 12.111013 -0.191888 -0.772438 0.605407 0 0
    0 3.389877 0.619462 13.090699 -0.149776 -0.946128 0.287068 0 0
  phy
    0 3.389877 0.619462 13.090699 -0.149776 -0.946128 0.287068 0 0
    0 3.389877 -0.563923 13.090699 0.208839 -0.937730 0.277577 0 0
    0 5.447117 -0.563923 12.111013 0.203174 -0.807063 0.554409 0 0
  phy
    0 5.447117 -0.563923 12.111013 0.203174 -0.807063 0.554409 0 0
    0 5.332725 -1.706985 11.551776 0.634755 -0.577460 0.513446 0 0
    0 7.670653 -0.563923 9.798605 0.204701 -0.565774 0.798747 0 0
  phy
    0 7.670653 -0.563923 9.798605 0.204701 -0.565774 0.798747 0 0
    0 5.447117 0.619462 12.111013 -0.191888 -0.772438 0.605407 0 0
    0 5.447117 -0.563923 12.111013 0.203174 -0.807063 0.554409 0 0
  phy
    0 0.826278 3.624145 9.798605 -0.983922 -0.176047 0.030089 0 0
    0 -1.042237 2.787366 12.111013 -0.870360 -0.488224 -0.064112 0 0
    0 1.042250 2.787366 12.111013 -0.832247 -0.550395 0.066557 0 0
  phy
    0 -1.042237 2.787366 12.111013 -0.870360 -0.488224 -0.064112 0 0
    0 0.826278 3.624145 9.798605 -0.983922 -0.176047 0.030089 0 0
    0 -0.826277 3.624145 9.798605 -0.996621 -0.081810 -0.007339 0 0
  phy
    0 -1.042237 2.787366 12.111013 -0.870360 -0.488224 -0.064112 0 0
    0 -3.042799 2.787366 11.551776 -0.884012 -0.417906 -0.209472 0 0
    0 -3.316586 1.762524 12.669658 -0.580378 -0.762967 -0.284679 0 0
  phy
    0 -1.042237 2.787366 12.111013 -0.870360 -0.488224 -0.064112 0 0
    0 -3.316586 1.762524 12.669658 -0.580378 -0.762967 -0.284679 0 0
    0 -1.144157 1.762524 13.090699 -0.509082 -0.857982 -0.068577 0 0
  phy
    0 -3.042799 2.787366 11.551776 -0.884012 -0.417906 -0.209472 0 0
    0 -1.042237 2.787366 12.111013 -0.870360 -0.488224 -0.064112 0 0
    0 -0.826277 3.624145 9.798605 -0.996621 -0.081810 -0.007339 0 0
  phy
    0 -1.144157 1.762524 13.090699 -0.509082 -0.857982 -0.068577 0 0
    0 1.042250 2.787366 12.111013 -0.832247 -0.550395 0.066557 0 0
    0 -1.042237 2.787366 12.111013 -0.870360 -0.488224 -0.064112 0 0
  phy
    0 4.860873 2.787366 10.183517 -0.884531 -0.318319 0.340997 0 0
    0 5.332725 1.762524 11.551776 -0.634755 -0.577460 0.513446 0 0
    0 7.327553 1.762524 9.163707 -0.677446 -0.327846 0.658470 0 0
  phy
    0 6.472936 2.787366 7.897428 -0.890200 -0.233598 0.391121 0 0
    0 4.860873 2.787366 10.183517 -0.884531 -0.318319 0.340997 0 0
    0 7.327553 1.762524 9.163707 -0.677446 -0.327846 0.658470 0 0
  phy
    0 5.332725 1.762524 11.551776 -0.634755 -0.577460 0.513446 0 0
    0 4.860873 2.787366 10.183517 -0.884531 -0.318319 0.340997 0 0
    0 3.042980 2.787366 11.551776 -0.884037 -0.417866 0.209443 0 0
  phy
    0 4.860873 2.787366 10.183517 -0.884531 -0.318319 0.340997 0 0
    0 3.844157 3.624146 7.897428 -0.945428 -0.199789 0.257391 0 0
    0 2.416457 3.624145 9.163707 -0.976699 -0.178973 0.118436 0 0
  phy
    0 4.860873 2.787366 10.183517 -0.884531 -0.318319 0.340997 0 0
    0 2.416457 3.624145 9.163707 -0.976699 -0.178973 0.118436 0 0
    0 3.042980 2.787366 11.551776 -0.884037 -0.417866 0.209443 0 0
  phy
    0 4.860873 2.787366 10.183517 -0.884531 -0.318319 0.340997 0 0
    0 6.472936 2.787366 7.897428 -0.890200 -0.233598 0.391121 0 0
    0 3.844157 3.624146 7.897428 -0.945428 -0.199789 0.257391 0 0
  phy
    0 1.181215 -0.563923 13.482977 0.111557 -0.990119 0.084971 0 0
    0 -1.181118 0.619462 13.482977 -0.111556 -0.990116 -0.085002 0 0
    0 -1.181118 -0.563923 13.482977 0.199601 -0.977560 -0.067351 0 0
  phy
    0 -5.331574 -1.706985 11.551776 0.634495 -0.577711 -0.513484 0 0
    0 -5.444499 -0.563923 12.111013 0.191593 -0.772604 -0.605289 0 0
    0 -7.670403 -0.563923 9.798605 0.233852 -0.543997 -0.805842 0 0
  phy
    0 -7.327507 -1.706985 9.163707 0.697175 -0.344163 -0.628887 0 0
    0 -5.331574 -1.706985 11.551776 0.634495 -0.577711 -0.513484 0 0
    0 -7.670403 -0.563923 9.798605 0.233852 -0.543997 -0.805842 0 0
  phy
    0 -5.331574 -1.706985 11.551776 0.634495 -0.577711 -0.513484 0 0
    0 -7.327507 -1.706985 9.163707 0.697175 -0.344163 -0.628887 0 0
    0 -4.860748 -2.731827 10.183517 0.936898 -0.237419 -0.256621 0 0
  phy
    0 -5.331574 -1.706985 11.551776 0.634495 -0.577711 -0.513484 0 0
    0 -4.860748 -2.731827 10.183517 0.936898 -0.237419 -0.256621 0 0
    0 -3.042799 -2.731827 11.551776 0.920222 -0.349462 -0.176259 0 0
  phy
    0 -3.042799 -2.731827 11.551776 0.920222 -0.349462 -0.176259 0 0
    0 -3.316586 -1.706985 12.669658 0.580378 -0.762967 -0.284679 0 0
    0 -5.331574 -1.706985 11.551776 0.634495 -0.577711 -0.513484 0 0
  phy
    0 -5.331574 -1.706985 11.551776 0.634495 -0.577711 -0.513484 0 0
    0 -3.316586 -1.706985 12.669658 0.580378 -0.762967 -0.284679 0 0
    0 -5.444499 -0.563923 12.111013 0.191593 -0.772604 -0.605289 0 0
  phy
    0 -4.860748 -2.731827 10.183517 0.936898 -0.237419 -0.256621 0 0
    0 -7.327507 -1.706985 9.163707 0.697175 -0.344163 -0.628887 0 0
    0 -6.472936 -2.731826 7.897428 0.903155 -0.224452 -0.365968 0 0
  phy
    0 -7.327507 -1.706985 9.163707 0.697175 -0.344163 -0.628887 0 0
    0 -9.770587 -3.281650 -0.034354 0.182190 0.979964 -0.080478 0 0
    0 -6.472936 -2.731826 7.897428 0.903155 -0.224452 -0.365968 0 0
  phy
    0 -6.472936 -2.731826 7.897428 0.903155 -0.224452 -0.365968 0 0
    0 -6.682587 -4.183990 0.248219 0.995646 -0.053868 -0.076080 0 0
    0 -4.860748 -2.731827 10.183517 0.936898 -0.237419 -0.256621 0 0
  phy
    0 -9.770587 -3.281650 -0.034354 0.182190 0.979964 -0.080478 0 0
    0 -6.682587 -4.183990 0.248219 0.995646 -0.053868 -0.076080 0 0
    0 -6.472936 -2.731826 7.897428 0.903155 -0.224452 -0.365968 0 0
  phy
    0 -0.738533 -3.491506 9.019061 0.988199 -0.149585 -0.032972 0 0
    0 -6.682587 -4.183990 0.248219 0.995646 -0.053868 -0.076080 0 0
    0 0.738533 -3.491506 9.019061 0.994749 -0.102044 0.007781 0 0
  phy
    0 -9.508083 -0.563923 6.238383 0.372071 -0.392309 -0.841224 0 0
    0 -11.378010 -2.070611 -0.034354 0.664551 0.136454 -0.734679 0 0
    0 -7.327507 -1.706985 9.163707 0.697175 -0.344163 -0.628887 0 0
  phy
    0 -11.378010 -2.070611 -0.034354 0.664551 0.136454 -0.734679 0 0
    0 -9.508083 -0.563923 6.238383 0.372071 -0.392309 -0.841224 0 0
    0 -12.210075 -0.719873 -0.034354 0.201051 -0.238075 -0.950210 0 0
  phy
    0 -9.508083 -0.563923 6.238383 0.372071 -0.392309 -0.841224 0 0
    0 -7.327507 -1.706985 9.163707 0.697175 -0.344163 -0.628887 0 0
    0 -7.670403 -0.563923 9.798605 0.233852 -0.543997 -0.805842 0 0
  phy
    0 -9.508083 -0.563923 6.238383 0.372071 -0.392309 -0.841224 0 0
    0 -9.508083 0.619462 6.238383 -0.284174 -0.401356 -0.870723 0 0
    0 -12.210075 -0.719873 -0.034354 0.201051 -0.238075 -0.950210 0 0
  phy
    0 -9.508083 0.619462 6.238383 -0.284174 -0.401356 -0.870723 0 0
    0 -9.508083 -0.563923 6.238383 0.372071 -0.392309 -0.841224 0 0
    0 -7.670403 -0.563923 9.798605 0.233852 -0.543997 -0.805842 0 0
  phy
    0 -7.670403 0.619462 9.798605 -0.242476 -0.582688 -0.775680 0 0
    0 -5.331574 1.762524 11.551776 -0.634495 -0.577711 -0.513484 0 0
    0 -7.327507 1.762524 9.163707 -0.699861 -0.338684 -0.628878 0 0
  phy
    0 -5.331574 1.762524 11.551776 -0.634495 -0.577711 -0.513484 0 0
    0 -7.670403 0.619462 9.798605 -0.242476 -0.582688 -0.775680 0 0
    0 -5.444499 0.619462 12.111013 -0.202892 -0.807151 -0.554384 0 0
  phy
    0 -7.670403 0.619462 9.798605 -0.242476 -0.582688 -0.775680 0 0
    0 -5.444499 -0.563923 12.111013 0.191593 -0.772604 -0.605289 0 0
    0 -5.444499 0.619462 12.111013 -0.202892 -0.807151 -0.554384 0 0
  phy
    0 -5.444499 -0.563923 12.111013 0.191593 -0.772604 -0.605289 0 0
    0 -7.670403 0.619462 9.798605 -0.242476 -0.582688 -0.775680 0 0
    0 -7.670403 -0.563923 9.798605 0.233852 -0.543997 -0.805842 0 0
  phy
    0 -9.508083 0.619462 6.238383 -0.284174 -0.401356 -0.870723 0 0
    0 -7.670403 0.619462 9.798605 -0.242476 -0.582688 -0.775680 0 0
    0 -7.327507 1.762524 9.163707 -0.699861 -0.338684 -0.628878 0 0
  phy
    0 -7.670403 0.619462 9.798605 -0.242476 -0.582688 -0.775680 0 0
    0 -9.508083 0.619462 6.238383 -0.284174 -0.401356 -0.870723 0 0
    0 -7.670403 -0.563923 9.798605 0.233852 -0.543997 -0.805842 0 0
  phy
    0 3.317538 -1.706985 12.669658 0.580523 -0.762895 0.284578 0 0
    0 1.042250 -2.731827 12.111013 0.875490 -0.479765 0.057812 0 0
    0 3.042980 -2.731827 11.551776 0.923744 -0.340853 0.174688 0 0
  phy
    0 3.317538 -1.706985 12.669658 0.580523 -0.762895 0.284578 0 0
    0 3.042980 -2.731827 11.551776 0.923744 -0.340853 0.174688 0 0
    0 5.332725 -1.706985 11.551776 0.634755 -0.577460 0.513446 0 0
  phy
    0 2.965928 -3.390305 8.339181 0.971318 -0.176188 0.159686 0 0
    0 3.042980 -2.731827 11.551776 0.923744 -0.340853 0.174688 0 0
    0 2.161714 -3.491429 8.442213 0.983425 -0.156057 0.092315 0 0
  phy
    0 2.965928 -3.390305 8.339181 0.971318 -0.176188 0.159686 0 0
    0 4.860873 -2.731827 10.183517 0.934945 -0.239351 0.261894 0 0
    0 3.042980 -2.731827 11.551776 0.923744 -0.340853 0.174688 0 0
  phy
    0 2.161714 -3.491429 8.442213 0.983425 -0.156057 0.092315 0 0
    0 6.681634 -4.183989 0.248219 0.996178 0.037350 0.078959 0 0
    0 2.965928 -3.390305 8.339181 0.971318 -0.176188 0.159686 0 0
  phy
    0 2.965928 -3.390305 8.339181 0.971318 -0.176188 0.159686 0 0
    0 6.681634 -4.183989 0.248219 0.996178 0.037350 0.078959 0 0
    0 4.860873 -2.731827 10.183517 0.934945 -0.239351 0.261894 0 0
  phy
    0 7.670653 -0.563923 9.798605 0.204701 -0.565774 0.798747 0 0
    0 7.670653 0.619462 9.798605 -0.284524 -0.557820 0.779668 0 0
    0 5.447117 0.619462 12.111013 -0.191888 -0.772438 0.605407 0 0
  phy
    0 7.670653 -0.563923 9.798605 0.204701 -0.565774 0.798747 0 0
    0 9.508083 -0.563923 6.238383 0.372147 -0.392216 0.841233 0 0
    0 9.508083 0.619462 6.238383 -0.201492 -0.410625 0.889263 0 0
  phy
    0 9.508083 0.619462 6.238383 -0.201492 -0.410625 0.889263 0 0
    0 7.670653 0.619462 9.798605 -0.284524 -0.557820 0.779668 0 0
    0 7.670653 -0.563923 9.798605 0.204701 -0.565774 0.798747 0 0
  phy
    0 5.332725 -1.706985 11.551776 0.634755 -0.577460 0.513446 0 0
    0 7.327553 -1.706985 9.163707 0.697220 -0.344071 0.628888 0 0
    0 7.670653 -0.563923 9.798605 0.204701 -0.565774 0.798747 0 0
  phy
    0 7.670653 -0.563923 9.798605 0.204701 -0.565774 0.798747 0 0
    0 7.327553 -1.706985 9.163707 0.697220 -0.344071 0.628888 0 0
    0 9.508083 -0.563923 6.238383 0.372147 -0.392216 0.841233 0 0
  phy
    0 3.317538 1.762524 12.669658 -0.580523 -0.762895 0.284578 0 0
    0 1.144214 1.762524 13.090699 -0.502763 -0.859091 0.095872 0 0
    0 3.389877 0.619462 13.090699 -0.149776 -0.946128 0.287068 0 0
  phy
    0 1.144214 1.762524 13.090699 -0.502763 -0.859091 0.095872 0 0
    0 1.181215 0.619462 13.482977 -0.199593 -0.977563 0.067331 0 0
    0 3.389877 0.619462 13.090699 -0.149776 -0.946128 0.287068 0 0
  phy
    0 1.181215 -0.563923 13.482977 0.111557 -0.990119 0.084971 0 0
    0 3.389877 -0.563923 13.090699 0.208839 -0.937730 0.277577 0 0
    0 3.389877 0.619462 13.090699 -0.149776 -0.946128 0.287068 0 0
  phy
    0 3.389877 0.619462 13.090699 -0.149776 -0.946128 0.287068 0 0
    0 1.181215 0.619462 13.482977 -0.199593 -0.977563 0.067331 0 0
    0 1.181215 -0.563923 13.482977 0.111557 -0.990119 0.084971 0 0
  phy
    0 3.389877 0.619462 13.090699 -0.149776 -0.946128 0.287068 0 0
    0 5.447117 0.619462 12.111013 -0.191888 -0.772438 0.605407 0 0
    0 3.317538 1.762524 12.669658 -0.580523 -0.762895 0.284578 0 0
  phy
    0 3.317538 1.762524 12.669658 -0.580523 -0.762895 0.284578 0 0
    0 5.332725 1.762524 11.551776 -0.634755 -0.577460 0.513446 0 0
    0 3.042980 2.787366 11.551776 -0.884037 -0.417866 0.209443 0 0
  phy
    0 5.332725 1.762524 11.551776 -0.634755 -0.577460 0.513446 0 0
    0 7.670653 0.619462 9.798605 -0.284524 -0.557820 0.779668 0 0
    0 7.327553 1.762524 9.163707 -0.677446 -0.327846 0.658470 0 0
  phy
    0 5.447117 0.619462 12.111013 -0.191888 -0.772438 0.605407 0 0
    0 7.670653 0.619462 9.798605 -0.284524 -0.557820 0.779668 0 0
    0 5.332725 1.762524 11.551776 -0.634755 -0.577460 0.513446 0 0
  phy
    0 3.317538 1.762524 12.669658 -0.580523 -0.762895 0.284578 0 0
    0 5.447117 0.619462 12.111013 -0.191888 -0.772438 0.605407 0 0
    0 5.332725 1.762524 11.551776 -0.634755 -0.577460 0.513446 0 0
  phy
    0 -3.042799 2.787366 11.551776 -0.884012 -0.417906 -0.209472 0 0
    0 -2.416456 3.624145 9.163707 -0.976696 -0.178986 -0.118443 0 0
    0 -4.860748 2.787366 10.183517 -0.884499 -0.318386 -0.341016 0 0
  phy
    0 -2.416456 3.624145 9.163707 -0.976696 -0.178986 -0.118443 0 0
    0 -3.042799 2.787366 11.551776 -0.884012 -0.417906 -0.209472 0 0
    0 -0.826277 3.624145 9.798605 -0.996621 -0.081810 -0.007339 0 0
  phy
    0 -3.042799 2.787366 11.551776 -0.884012 -0.417906 -0.209472 0 0
    0 -5.331574 1.762524 11.551776 -0.634495 -0.577711 -0.513484 0 0
    0 -3.316586 1.762524 12.669658 -0.580378 -0.762967 -0.284679 0 0
  phy
    0 -5.331574 1.762524 11.551776 -0.634495 -0.577711 -0.513484 0 0
    0 -3.042799 2.787366 11.551776 -0.884012 -0.417906 -0.209472 0 0
    0 -4.860748 2.787366 10.183517 -0.884499 -0.318386 -0.341016 0 0
  phy
    0 0.826278 3.624145 9.798605 -0.983922 -0.176047 0.030089 0 0
    0 2.416457 3.624145 9.163707 -0.976699 -0.178973 0.118436 0 0
    0 7.496394 4.229101 -0.034354 -0.866883 0.494716 0.061404 0 0
  phy
    0 -0.826277 3.624145 9.798605 -0.996621 -0.081810 -0.007339 0 0
    0 0.826278 3.624145 9.798605 -0.983922 -0.176047 0.030089 0 0
    0 7.496394 4.229101 -0.034354 -0.866883 0.494716 0.061404 0 0
  phy
    0 0.826278 3.624145 9.798605 -0.983922 -0.176047 0.030089 0 0
    0 1.042250 2.787366 12.111013 -0.832247 -0.550395 0.066557 0 0
    0 3.042980 2.787366 11.551776 -0.884037 -0.417866 0.209443 0 0
  phy
    0 2.416457 3.624145 9.163707 -0.976699 -0.178973 0.118436 0 0
    0 0.826278 3.624145 9.798605 -0.983922 -0.176047 0.030089 0 0
    0 3.042980 2.787366 11.551776 -0.884037 -0.417866 0.209443 0 0
  phy
    0 3.844157 3.624146 7.897428 -0.945428 -0.199789 0.257391 0 0
    0 6.472936 2.787366 7.897428 -0.890200 -0.233598 0.391121 0 0
    0 7.496394 4.229101 -0.034354 -0.866883 0.494716 0.061404 0 0
  phy
    0 6.472936 2.787366 7.897428 -0.890200 -0.233598 0.391121 0 0
    0 7.327553 1.762524 9.163707 -0.677446 -0.327846 0.658470 0 0
    0 9.769635 3.240292 -0.034354 -0.293346 0.929811 0.222261 0 0
  phy
    0 6.472936 2.787366 7.897428 -0.890200 -0.233598 0.391121 0 0
    0 9.769635 3.240292 -0.034354 -0.293346 0.929811 0.222261 0 0
    0 7.496394 4.229101 -0.034354 -0.866883 0.494716 0.061404 0 0
  phy
    0 9.508083 -0.563923 6.238383 0.372147 -0.392216 0.841233 0 0
    0 12.209123 -0.719871 -0.034354 0.193113 0.360135 0.912694 0 0
    0 9.508083 0.619462 6.238383 -0.201492 -0.410625 0.889263 0 0
  phy
    0 12.209123 -0.719871 -0.034354 0.193113 0.360135 0.912694 0 0
    0 12.209123 0.678516 -0.034354 -0.558616 -0.266152 0.785565 0 0
    0 9.508083 0.619462 6.238383 -0.201492 -0.410625 0.889263 0 0
  phy
    0 9.508083 0.619462 6.238383 -0.201492 -0.410625 0.889263 0 0
    0 12.209123 0.678516 -0.034354 -0.558616 -0.266152 0.785565 0 0
    0 7.327553 1.762524 9.163707 -0.677446 -0.327846 0.658470 0 0
  phy
    0 7.327553 1.762524 9.163707 -0.677446 -0.327846 0.658470 0 0
    0 7.670653 0.619462 9.798605 -0.284524 -0.557820 0.779668 0 0
    0 9.508083 0.619462 6.238383 -0.201492 -0.410625 0.889263 0 0
  phy
    0 -1.144157 1.762524 13.090699 -0.509082 -0.857982 -0.068577 0 0
    0 1.144214 1.762524 13.090699 -0.502763 -0.859091 0.095872 0 0
    0 1.042250 2.787366 12.111013 -0.832247 -0.550395 0.066557 0 0
  phy
    0 -1.144157 1.762524 13.090699 -0.509082 -0.857982 -0.068577 0 0
    0 -3.316586 1.762524 12.669658 -0.580378 -0.762967 -0.284679 0 0
    0 -3.388116 0.619462 13.090699 -0.208757 -0.937705 -0.277724 0 0
  phy
    0 -3.388116 0.619462 13.090699 -0.208757 -0.937705 -0.277724 0 0
    0 -1.181118 0.619462 13.482977 -0.111556 -0.990116 -0.085002 0 0
    0 -1.144157 1.762524 13.090699 -0.509082 -0.857982 -0.068577 0 0
  phy
    0 -1.144157 1.762524 13.090699 -0.509082 -0.857982 -0.068577 0 0
    0 1.181215 0.619462 13.482977 -0.199593 -0.977563 0.067331 0 0
    0 1.144214 1.762524 13.090699 -0.502763 -0.859091 0.095872 0 0
  phy
    0 -1.181118 0.619462 13.482977 -0.111556 -0.990116 -0.085002 0 0
    0 1.181215 0.619462 13.482977 -0.199593 -0.977563 0.067331 0 0
    0 -1.144157 1.762524 13.090699 -0.509082 -0.857982 -0.068577 0 0
  phy
    0 -3.316586 1.762524 12.669658 -0.580378 -0.762967 -0.284679 0 0
    0 -5.444499 0.619462 12.111013 -0.202892 -0.807151 -0.554384 0 0
    0 -3.388116 0.619462 13.090699 -0.208757 -0.937705 -0.277724 0 0
  phy
    0 -12.210075 0.678514 -0.034354 -0.273387 -0.330711 -0.903266 0 0
    0 -11.378010 2.029252 -0.034354 -0.672370 -0.073388 -0.736568 0 0
    0 -12.210075 -0.719873 -0.034354 0.201051 -0.238075 -0.950210 0 0
  phy
    0 -12.210075 -0.719873 -0.034354 0.201051 -0.238075 -0.950210 0 0
    0 -11.378010 2.029252 -0.034354 -0.672370 -0.073388 -0.736568 0 0
    0 -11.378010 -2.070611 -0.034354 0.664551 0.136454 -0.734679 0 0
  phy
    0 -11.378010 -2.070611 -0.034354 0.664551 0.136454 -0.734679 0 0
    0 -11.378010 2.029252 -0.034354 -0.672370 -0.073388 -0.736568 0 0
    0 -9.770587 3.240292 -0.034354 -0.804153 0.340045 -0.487553 0 0
  phy
    0 -11.378010 -2.070611 -0.034354 0.664551 0.136454 -0.734679 0 0
    0 -9.770587 3.240292 -0.034354 -0.804153 0.340045 -0.487553 0 0
    0 -9.770587 -3.281650 -0.034354 0.182190 0.979964 -0.080478 0 0
  phy
    0 -9.770587 -3.281650 -0.034354 0.182190 0.979964 -0.080478 0 0
    0 -9.770587 3.240292 -0.034354 -0.804153 0.340045 -0.487553 0 0
    0 -7.497346 4.229101 -0.034354 -0.882863 0.464753 -0.067507 0 0
  phy
    0 -9.770587 -3.281650 -0.034354 0.182190 0.979964 -0.080478 0 0
    0 -7.497346 4.229101 -0.034354 -0.882863 0.464753 -0.067507 0 0
    0 7.496394 4.229101 -0.034354 -0.866883 0.494716 0.061404 0 0
  phy
    0 -9.770587 -3.281650 -0.034354 0.182190 0.979964 -0.080478 0 0
    0 7.496394 4.229101 -0.034354 -0.866883 0.494716 0.061404 0 0
    0 9.769635 3.240292 -0.034354 -0.293346 0.929811 0.222261 0 0
  phy
    0 -9.770587 -3.281650 -0.034354 0.182190 0.979964 -0.080478 0 0
    0 9.769635 3.240292 -0.034354 -0.293346 0.929811 0.222261 0 0
    0 9.769635 -3.281649 -0.034354 0.342504 0.925494 0.161715 0 0
  phy
    0 9.769635 -3.281649 -0.034354 0.342504 0.925494 0.161715 0 0
    0 9.769635 3.240292 -0.034354 -0.293346 0.929811 0.222261 0 0
    0 12.209123 -0.719871 -0.034354 0.193113 0.360135 0.912694 0 0
  phy
    0 9.769635 -3.281649 -0.034354 0.342504 0.925494 0.161715 0 0
    0 12.209123 -0.719871 -0.034354 0.193113 0.360135 0.912694 0 0
    0 11.377059 -2.070609 -0.034354 0.638648 -0.306138 0.705980 0 0
  phy
    0 12.209123 -0.719871 -0.034354 0.193113 0.360135 0.912694 0 0
    0 9.769635 3.240292 -0.034354 -0.293346 0.929811 0.222261 0 0
    0 12.209123 0.678516 -0.034354 -0.558616 -0.266152 0.785565 0 0
  phy
    0 -11.378010 -2.070611 -0.034354 0.664551 0.136454 -0.734679 0 0
    0 -9.770587 -3.281650 -0.034354 0.182190 0.979964 -0.080478 0 0
    0 -7.327507 -1.706985 9.163707 0.697175 -0.344163 -0.628887 0 0
  phy
    0 -5.331574 1.762524 11.551776 -0.634495 -0.577711 -0.513484 0 0
    0 -5.444499 0.619462 12.111013 -0.202892 -0.807151 -0.554384 0 0
    0 -3.316586 1.762524 12.669658 -0.580378 -0.762967 -0.284679 0 0
  phy
    0 -7.327507 1.762524 9.163707 -0.699861 -0.338684 -0.628878 0 0
    0 -5.331574 1.762524 11.551776 -0.634495 -0.577711 -0.513484 0 0
    0 -4.860748 2.787366 10.183517 -0.884499 -0.318386 -0.341016 0 0
  phy
    0 -11.378010 2.029252 -0.034354 -0.672370 -0.073388 -0.736568 0 0
    0 -9.508083 0.619462 6.238383 -0.284174 -0.401356 -0.870723 0 0
    0 -7.327507 1.762524 9.163707 -0.699861 -0.338684 -0.628878 0 0
  phy
    0 -9.508083 0.619462 6.238383 -0.284174 -0.401356 -0.870723 0 0
    0 -11.378010 2.029252 -0.034354 -0.672370 -0.073388 -0.736568 0 0
    0 -12.210075 0.678514 -0.034354 -0.273387 -0.330711 -0.903266 0 0
  phy
    0 -12.210075 -0.719873 -0.034354 0.201051 -0.238075 -0.950210 0 0
    0 -9.508083 0.619462 6.238383 -0.284174 -0.401356 -0.870723 0 0
    0 -12.210075 0.678514 -0.034354 -0.273387 -0.330711 -0.903266 0 0
  phy
    0 -3.844157 3.624146 7.897428 -0.945420 -0.199817 -0.257398 0 0
    0 -6.472936 2.787366 7.897428 -0.890194 -0.233636 -0.391112 0 0
    0 -4.860748 2.787366 10.183517 -0.884499 -0.318386 -0.341016 0 0
  phy
    0 -6.472936 2.787366 7.897428 -0.890194 -0.233636 -0.391112 0 0
    0 -3.844157 3.624146 7.897428 -0.945420 -0.199817 -0.257398 0 0
    0 -7.497346 4.229101 -0.034354 -0.882863 0.464753 -0.067507 0 0
  phy
    0 -6.472936 2.787366 7.897428 -0.890194 -0.233636 -0.391112 0 0
    0 -7.497346 4.229101 -0.034354 -0.882863 0.464753 -0.067507 0 0
    0 -9.770587 3.240292 -0.034354 -0.804153 0.340045 -0.487553 0 0
  phy
    0 -6.472936 2.787366 7.897428 -0.890194 -0.233636 -0.391112 0 0
    0 -7.327507 1.762524 9.163707 -0.699861 -0.338684 -0.628878 0 0
    0 -4.860748 2.787366 10.183517 -0.884499 -0.318386 -0.341016 0 0
  phy
    0 -7.327507 1.762524 9.163707 -0.699861 -0.338684 -0.628878 0 0
    0 -6.472936 2.787366 7.897428 -0.890194 -0.233636 -0.391112 0 0
    0 -9.770587 3.240292 -0.034354 -0.804153 0.340045 -0.487553 0 0
  phy
    0 -11.378010 2.029252 -0.034354 -0.672370 -0.073388 -0.736568 0 0
    0 -7.327507 1.762524 9.163707 -0.699861 -0.338684 -0.628878 0 0
    0 -9.770587 3.240292 -0.034354 -0.804153 0.340045 -0.487553 0 0
  phy
    0 3.042980 -2.731827 11.551776 0.923744 -0.340853 0.174688 0 0
    0 4.860873 -2.731827 10.183517 0.934945 -0.239351 0.261894 0 0
    0 5.332725 -1.706985 11.551776 0.634755 -0.577460 0.513446 0 0
  phy
    0 4.860873 -2.731827 10.183517 0.934945 -0.239351 0.261894 0 0
    0 7.327553 -1.706985 9.163707 0.697220 -0.344071 0.628888 0 0
    0 5.332725 -1.706985 11.551776 0.634755 -0.577460 0.513446 0 0
  phy
    0 3.042980 -2.731827 11.551776 0.923744 -0.340853 0.174688 0 0
    0 0.738533 -3.491506 9.019061 0.994749 -0.102044 0.007781 0 0
    0 2.161714 -3.491429 8.442213 0.983425 -0.156057 0.092315 0 0
  phy
    0 0.738533 -3.491506 9.019061 0.994749 -0.102044 0.007781 0 0
    0 6.681634 -4.183989 0.248219 0.996178 0.037350 0.078959 0 0
    0 2.161714 -3.491429 8.442213 0.983425 -0.156057 0.092315 0 0
  phy
    0 3.042980 -2.731827 11.551776 0.923744 -0.340853 0.174688 0 0
    0 1.042250 -2.731827 12.111013 0.875490 -0.479765 0.057812 0 0
    0 0.738533 -3.491506 9.019061 0.994749 -0.102044 0.007781 0 0
  phy
    0 4.860873 -2.731827 10.183517 0.934945 -0.239351 0.261894 0 0
    0 6.681634 -4.183989 0.248219 0.996178 0.037350 0.078959 0 0
    0 6.472936 -2.731825 7.897428 0.903164 -0.224414 0.365968 0 0
  phy
    0 6.681634 -4.183989 0.248219 0.996178 0.037350 0.078959 0 0
    0 9.769635 -3.281649 -0.034354 0.342504 0.925494 0.161715 0 0
    0 6.472936 -2.731825 7.897428 0.903164 -0.224414 0.365968 0 0
  phy
    0 6.472936 -2.731825 7.897428 0.903164 -0.224414 0.365968 0 0
    0 7.327553 -1.706985 9.163707 0.697220 -0.344071 0.628888 0 0
    0 4.860873 -2.731827 10.183517 0.934945 -0.239351 0.261894 0 0
  phy
    0 6.472936 -2.731825 7.897428 0.903164 -0.224414 0.365968 0 0
    0 9.769635 -3.281649 -0.034354 0.342504 0.925494 0.161715 0 0
    0 7.327553 -1.706985 9.163707 0.697220 -0.344071 0.628888 0 0
  phy
    0 9.508083 -0.563923 6.238383 0.372147 -0.392216 0.841233 0 0
    0 7.327553 -1.706985 9.163707 0.697220 -0.344071 0.628888 0 0
    0 11.377059 -2.070609 -0.034354 0.638648 -0.306138 0.705980 0 0
  phy
    0 11.377059 -2.070609 -0.034354 0.638648 -0.306138 0.705980 0 0
    0 12.209123 -0.719871 -0.034354 0.193113 0.360135 0.912694 0 0
    0 9.508083 -0.563923 6.238383 0.372147 -0.392216 0.841233 0 0
  phy
    0 7.327553 -1.706985 9.163707 0.697220 -0.344071 0.628888 0 0
    0 9.769635 -3.281649 -0.034354 0.342504 0.925494 0.161715 0 0
    0 11.377059 -2.070609 -0.034354 0.638648 -0.306138 0.705980 0 0
  phy
    0 1.042250 2.787366 12.111013 -0.832247 -0.550395 0.066557 0 0
    0 1.144214 1.762524 13.090699 -0.502763 -0.859091 0.095872 0 0
    0 3.317538 1.762524 12.669658 -0.580523 -0.762895 0.284578 0 0
  phy
    0 1.042250 2.787366 12.111013 -0.832247 -0.550395 0.066557 0 0
    0 3.317538 1.762524 12.669658 -0.580523 -0.762895 0.284578 0 0
    0 3.042980 2.787366 11.551776 -0.884037 -0.417866 0.209443 0 0
  phy
    0 2.416457 3.624145 9.163707 -0.976699 -0.178973 0.118436 0 0
    0 3.844157 3.624146 7.897428 -0.945428 -0.199789 0.257391 0 0
    0 7.496394 4.229101 -0.034354 -0.866883 0.494716 0.061404 0 0
  phy
    0 7.327553 1.762524 9.163707 -0.677446 -0.327846 0.658470 0 0
    0 12.209123 0.678516 -0.034354 -0.558616 -0.266152 0.785565 0 0
    0 9.769635 3.240292 -0.034354 -0.293346 0.929811 0.222261 0 0
  phy
    0 -2.416456 3.624145 9.163707 -0.976696 -0.178986 -0.118443 0 0
    0 -3.844157 3.624146 7.897428 -0.945420 -0.199817 -0.257398 0 0
    0 -4.860748 2.787366 10.183517 -0.884499 -0.318386 -0.341016 0 0
  phy
    0 -3.844157 3.624146 7.897428 -0.945420 -0.199817 -0.257398 0 0
    0 -2.416456 3.624145 9.163707 -0.976696 -0.178986 -0.118443 0 0
    0 -7.497346 4.229101 -0.034354 -0.882863 0.464753 -0.067507 0 0
  phy
    0 -7.497346 4.229101 -0.034354 -0.882863 0.464753 -0.067507 0 0
    0 -2.416456 3.624145 9.163707 -0.976696 -0.178986 -0.118443 0 0
    0 -0.826277 3.624145 9.798605 -0.996621 -0.081810 -0.007339 0 0
  phy
    0 1.181215 -0.563923 13.482977 0.111557 -0.990119 0.084971 0 0
    0 1.181215 0.619462 13.482977 -0.199593 -0.977563 0.067331 0 0
    0 -1.181118 0.619462 13.482977 -0.111556 -0.990116 -0.085002 0 0
  phy
    0 0.738533 -3.491506 9.019061 0.994749 -0.102044 0.007781 0 0
    0 -6.682587 -4.183990 0.248219 0.995646 -0.053868 -0.076080 0 0
    0 6.681634 -4.183989 0.248219 0.996178 0.037350 0.078959 0 0
  phy
    0 -9.770587 -3.281650 -0.034354 0.182190 0.979964 -0.080478 0 0
    0 6.681634 -4.183989 0.248219 0.996178 0.037350 0.078959 0 0
    0 -6.682587 -4.183990 0.248219 0.995646 -0.053868 -0.076080 0 0
  phy
    0 6.681634 -4.183989 0.248219 0.996178 0.037350 0.078959 0 0
    0 -9.770587 -3.281650 -0.034354 0.182190 0.979964 -0.080478 0 0
    0 9.769635 -3.281649 -0.034354 0.342504 0.925494 0.161715 0 0
  phy
    0 -7.497346 4.229101 -0.034354 -0.882863 0.464753 -0.067507 0 0
    0 -0.826277 3.624145 9.798605 -0.996621 -0.081810 -0.007339 0 0
    0 7.496394 4.229101 -0.034354 -0.866883 0.494716 0.061404 0 0
  phy
    0 2.744402 0.000000 11.165598 -0.099155 0.279381 -0.955047 0 0
    0 2.790724 0.000000 14.210389 0.112064 -0.044151 -0.992720 0 0
    0 2.927253 0.420193 14.210389 -0.577897 -0.182652 -0.795408 0 0
  phy
    0 2.744402 0.000000 11.165598 -0.099155 0.279381 -0.955047 0 0
    0 2.927253 0.420193 14.210389 -0.577897 -0.182652 -0.795408 0 0
    0 2.889778 0.447420 11.165598 -0.561103 0.297875 -0.772291 0 0
  phy
    0 4.083946 0.420193 14.210389 -0.587386 -0.036905 0.808465 0 0
    0 3.726508 0.679886 14.210389 -0.784798 -0.598605 0.160515 0 0
    0 4.220476 0.000000 14.210389 0.000000 -0.174718 0.984619 0 0
  phy
    0 3.726508 0.679886 14.210389 -0.784798 -0.598605 0.160515 0 0
    0 4.083946 -0.420194 14.210389 0.580031 -0.161896 0.798344 0 0
    0 4.220476 0.000000 14.210389 0.000000 -0.174718 0.984619 0 0
  phy
    0 3.726508 0.679886 14.210389 -0.784798 -0.598605 0.160515 0 0
    0 3.726508 -0.679888 14.210389 0.870534 -0.402697 0.282854 0 0
    0 4.083946 -0.420194 14.210389 0.580031 -0.161896 0.798344 0 0
  phy
    0 3.726508 0.679886 14.210389 -0.784798 -0.598605 0.160515 0 0
    0 3.284691 -0.679888 14.210389 0.933211 -0.304441 -0.190871 0 0
    0 3.726508 -0.679888 14.210389 0.870534 -0.402697 0.282854 0 0
  phy
    0 3.726508 0.679886 14.210389 -0.784798 -0.598605 0.160515 0 0
    0 2.927253 -0.420194 14.210389 0.633579 -0.344250 -0.692871 0 0
    0 3.284691 -0.679888 14.210389 0.933211 -0.304441 -0.190871 0 0
  phy
    0 3.726508 0.679886 14.210389 -0.784798 -0.598605 0.160515 0 0
    0 2.927253 0.420193 14.210389 -0.577897 -0.182652 -0.795408 0 0
    0 2.927253 -0.420194 14.210389 0.633579 -0.344250 -0.692871 0 0
  phy
    0 3.726508 0.679886 14.210389 -0.784798 -0.598605 0.160515 0 0
    0 3.284689 0.679886 14.210389 -0.949346 -0.059946 -0.308461 0 0
    0 2.927253 0.420193 14.210389 -0.577897 -0.182652 -0.795408 0 0
  phy
    0 2.927253 0.420193 14.210389 -0.577897 -0.182652 -0.795408 0 0
    0 2.790724 0.000000 14.210389 0.112064 -0.044151 -0.992720 0 0
    0 2.927253 -0.420194 14.210389 0.633579 -0.344250 -0.692871 0 0
  phy
    0 2.927253 -0.420194 14.210389 0.633579 -0.344250 -0.692871 0 0
    0 2.790724 0.000000 14.210389 0.112064 -0.044151 -0.992720 0 0
    0 2.889778 -0.447421 11.165598 0.455212 0.418037 -0.786147 0 0
  phy
    0 2.889778 -0.447421 11.165598 0.455212 0.418037 -0.786147 0 0
    0 2.790724 0.000000 14.210389 0.112064 -0.044151 -0.992720 0 0
    0 2.744402 0.000000 11.165598 -0.099155 0.279381 -0.955047 0 0
  phy
    0 3.740822 -0.723942 11.165598 0.909153 0.293563 0.295402 0 0
    0 4.083946 -0.420194 14.210389 0.580031 -0.161896 0.798344 0 0
    0 3.726508 -0.679888 14.210389 0.870534 -0.402697 0.282854 0 0
  phy
    0 3.740822 -0.723942 11.165598 0.909153 0.293563 0.295402 0 0
    0 4.121421 -0.447421 11.165598 0.587475 0.032515 0.808589 0 0
    0 4.083946 -0.420194 14.210389 0.580031 -0.161896 0.798344 0 0
  phy
    0 3.740822 -0.723942 11.165598 0.909153 0.293563 0.295402 0 0
    0 3.284691 -0.679888 14.210389 0.933211 -0.304441 -0.190871 0 0
    0 3.270376 -0.723942 11.165598 0.913926 0.017181 -0.405517 0 0
  phy
    0 3.740822 -0.723942 11.165598 0.909153 0.293563 0.295402 0 0
    0 3.726508 -0.679888 14.210389 0.870534 -0.402697 0.282854 0 0
    0 3.284691 -0.679888 14.210389 0.933211 -0.304441 -0.190871 0 0
  phy
    0 2.927253 -0.420194 14.210389 0.633579 -0.344250 -0.692871 0 0
    0 3.270376 -0.723942 11.165598 0.913926 0.017181 -0.405517 0 0
    0 3.284691 -0.679888 14.210389 0.933211 -0.304441 -0.190871 0 0
  phy
    0 2.927253 -0.420194 14.210389 0.633579 -0.344250 -0.692871 0 0
    0 2.889778 -0.447421 11.165598 0.455212 0.418037 -0.786147 0 0
    0 3.270376 -0.723942 11.165598 0.913926 0.017181 -0.405517 0 0
  phy
    0 3.740822 0.723941 11.165598 -0.913927 0.017181 0.405516 0 0
    0 4.121421 0.447422 11.165598 -0.387744 0.751557 0.533683 0 0
    0 3.270376 0.723941 11.165598 -0.948472 0.073669 -0.308177 0 0
  phy
    0 3.270376 0.723941 11.165598 -0.948472 0.073669 -0.308177 0 0
    0 4.121421 0.447422 11.165598 -0.387744 0.751557 0.533683 0 0
    0 2.889778 0.447420 11.165598 -0.561103 0.297875 -0.772291 0 0
  phy
    0 2.889778 0.447420 11.165598 -0.561103 0.297875 -0.772291 0 0
    0 4.121421 0.447422 11.165598 -0.387744 0.751557 0.533683 0 0
    0 2.744402 0.000000 11.165598 -0.099155 0.279381 -0.955047 0 0
  phy
    0 2.744402 0.000000 11.165598 -0.099155 0.279381 -0.955047 0 0
    0 4.121421 0.447422 11.165598 -0.387744 0.751557 0.533683 0 0
    0 2.889778 -0.447421 11.165598 0.455212 0.418037 -0.786147 0 0
  phy
    0 2.889778 -0.447421 11.165598 0.455212 0.418037 -0.786147 0 0
    0 4.121421 0.447422 11.165598 -0.387744 0.751557 0.533683 0 0
    0 3.740822 -0.723942 11.165598 0.909153 0.293563 0.295402 0 0
  phy
    0 2.889778 -0.447421 11.165598 0.455212 0.418037 -0.786147 0 0
    0 3.740822 -0.723942 11.165598 0.909153 0.293563 0.295402 0 0
    0 3.270376 -0.723942 11.165598 0.913926 0.017181 -0.405517 0 0
  phy
    0 3.740822 -0.723942 11.165598 0.909153 0.293563 0.295402 0 0
    0 4.121421 0.447422 11.165598 -0.387744 0.751557 0.533683 0 0
    0 4.266797 0.000000 11.165598 0.000000 0.073670 0.997283 0 0
  phy
    0 3.740822 -0.723942 11.165598 0.909153 0.293563 0.295402 0 0
    0 4.266797 0.000000 11.165598 0.000000 0.073670 0.997283 0 0
    0 4.121421 -0.447421 11.165598 0.587475 0.032515 0.808589 0 0
  phy
    0 4.083946 -0.420194 14.210389 0.580031 -0.161896 0.798344 0 0
    0 4.266797 0.000000 11.165598 0.000000 0.073670 0.997283 0 0
    0 4.220476 0.000000 14.210389 0.000000 -0.174718 0.984619 0 0
  phy
    0 4.083946 -0.420194 14.210389 0.580031 -0.161896 0.798344 0 0
    0 4.121421 -0.447421 11.165598 0.587475 0.032515 0.808589 0 0
    0 4.266797 0.000000 11.165598 0.000000 0.073670 0.997283 0 0
  phy
    0 3.726508 0.679886 14.210389 -0.784798 -0.598605 0.160515 0 0
    0 4.083946 0.420193 14.210389 -0.587386 -0.036905 0.808465 0 0
    0 3.740822 0.723941 11.165598 -0.913927 0.017181 0.405516 0 0
  phy
    0 4.083946 0.420193 14.210389 -0.587386 -0.036905 0.808465 0 0
    0 4.121421 0.447422 11.165598 -0.387744 0.751557 0.533683 0 0
    0 3.740822 0.723941 11.165598 -0.913927 0.017181 0.405516 0 0
  phy
    0 4.083946 0.420193 14.210389 -0.587386 -0.036905 0.808465 0 0
    0 4.220476 0.000000 14.210389 0.000000 -0.174718 0.984619 0 0
    0 4.266797 0.000000 11.165598 0.000000 0.073670 0.997283 0 0
  phy
    0 4.083946 0.420193 14.210389 -0.587386 -0.036905 0.808465 0 0
    0 4.266797 0.000000 11.165598 0.000000 0.073670 0.997283 0 0
    0 4.121421 0.447422 11.165598 -0.387744 0.751557 0.533683 0 0
  phy
    0 2.927253 0.420193 14.210389 -0.577897 -0.182652 -0.795408 0 0
    0 3.284689 0.679886 14.210389 -0.949346 -0.059946 -0.308461 0 0
    0 3.270376 0.723941 11.165598 -0.948472 0.073669 -0.308177 0 0
  phy
    0 2.927253 0.420193 14.210389 -0.577897 -0.182652 -0.795408 0 0
    0 3.270376 0.723941 11.165598 -0.948472 0.073669 -0.308177 0 0
    0 2.889778 0.447420 11.165598 -0.561103 0.297875 -0.772291 0 0
  phy
    0 3.284689 0.679886 14.210389 -0.949346 -0.059946 -0.308461 0 0
    0 3.726508 0.679886 14.210389 -0.784798 -0.598605 0.160515 0 0
    0 3.270376 0.723941 11.165598 -0.948472 0.073669 -0.308177 0 0
  phy
    0 3.270376 0.723941 11.165598 -0.948472 0.073669 -0.308177 0 0
    0 3.726508 0.679886 14.210389 -0.784798 -0.598605 0.160515 0 0
    0 3.740822 0.723941 11.165598 -0.913927 0.017181 0.405516 0 0
  phy
    0 -1.733879 1.306502 30.979683 0.891720 -0.048675 0.449962 0 0
    0 -2.707146 1.306503 12.985706 0.703731 0.019207 -0.710206 0 0
    0 -1.733879 1.306503 12.985706 0.443422 0.048409 0.895005 0 0
  phy
    0 -1.733879 1.306502 30.979683 0.891720 -0.048675 0.449962 0 0
    0 -2.707146 1.306502 30.979683 0.703342 -0.038393 -0.709814 0 0
    0 -2.707146 1.306503 12.985706 0.703731 0.019207 -0.710206 0 0
  phy
    0 -1.733879 1.306502 30.979683 0.891720 -0.048675 0.449962 0 0
    0 -1.733879 1.306503 12.985706 0.443422 0.048409 0.895005 0 0
    0 -1.733879 2.288724 30.979683 -0.443813 -0.024226 0.895792 0 0
  phy
    0 -1.733879 1.306503 12.985706 0.443422 0.048409 0.895005 0 0
    0 -1.733879 2.288725 12.985706 -0.892513 0.024359 0.450363 0 0
    0 -1.733879 2.288724 30.979683 -0.443813 -0.024226 0.895792 0 0
  phy
    0 -1.733879 2.288724 30.979683 -0.443813 -0.024226 0.895792 0 0
    0 -2.707146 2.288724 30.979683 -0.703342 -0.038393 -0.709814 0 0
    0 -1.733879 1.306502 30.979683 0.891720 -0.048675 0.449962 0 0
  phy
    0 -2.707146 2.288724 30.979683 -0.703342 -0.038393 -0.709814 0 0
    0 -2.707146 1.306502 30.979683 0.703342 -0.038393 -0.709814 0 0
    0 -1.733879 1.306502 30.979683 0.891720 -0.048675 0.449962 0 0
  phy
    0 -1.733879 2.288724 30.979683 -0.443813 -0.024226 0.895792 0 0
    0 -1.733879 2.288725 12.985706 -0.892513 0.024359 0.450363 0 0
    0 -2.707146 2.288724 30.979683 -0.703342 -0.038393 -0.709814 0 0
  phy
    0 -2.707146 2.288724 30.979683 -0.703342 -0.038393 -0.709814 0 0
    0 -1.733879 2.288725 12.985706 -0.892513 0.024359 0.450363 0 0
    0 -2.707146 2.288725 12.985706 -0.701792 0.076616 -0.708250 0 0
  phy
    0 -1.733879 2.288725 12.985706 -0.892513 0.024359 0.450363 0 0
    0 -1.733879 1.306503 12.985706 0.443422 0.048409 0.895005 0 0
    0 -2.707146 2.288725 12.985706 -0.701792 0.076616 -0.708250 0 0
  phy
    0 -2.707146 2.288725 12.985706 -0.701792 0.076616 -0.708250 0 0
    0 -1.733879 1.306503 12.985706 0.443422 0.048409 0.895005 0 0
    0 -2.707146 1.306503 12.985706 0.703731 0.019207 -0.710206 0 0
  phy
    0 -2.707146 2.288724 30.979683 -0.703342 -0.038393 -0.709814 0 0
    0 -2.707146 2.288725 12.985706 -0.701792 0.076616 -0.708250 0 0
    0 -2.707146 1.306503 12.985706 0.703731 0.019207 -0.710206 0 0
  phy
    0 -2.707146 2.288724 30.979683 -0.703342 -0.038393 -0.709814 0 0
    0 -2.707146 1.306503 12.985706 0.703731 0.019207 -0.710206 0 0
    0 -2.707146 1.306502 30.979683 0.703342 -0.038393 -0.709814 0 0
end
