// Created by Crowbar 0.74
version 1
nodes
  0 "Base" -1
  1 "Aim_LR" 0
  2 "Aim_UD" 1
  3 "LFT_Wing" 2
  4 "LFT_Gun1" 3
  5 "LFT_Gun2" 3
  6 "RT_Wing" 2
  7 "RT_Gun1" 6
  8 "RT_Gun2" 6
end
skeleton
  time 0
    0 0.000000 -0.000001 18.707941 1.570796 0.000000 0.000000
    1 0.000000 18.046322 5.566185 0.000000 0.000000 0.000000
    2 0.000000 -0.000002 0.000000 0.000000 0.000000 0.000000
    3 -14.150279 -0.000002 0.000000 0.000000 0.000000 0.000000
    4 5.452318 1.799003 7.001915 0.000000 0.000000 0.000000
    5 5.452210 -2.218407 7.001915 0.000000 0.000000 0.000000
    6 14.133805 -0.000002 0.000000 0.000000 0.000000 0.000000
    7 -5.278988 1.800285 7.001915 0.000000 0.000000 0.000000
    8 -5.278988 -2.218407 7.001915 0.000000 0.000000 0.000000
end
triangles
  phy
    0 -11.810649 -24.286476 0.009592 -0.637004 0.432008 0.638432 0 0
    0 -11.810649 -25.161843 0.009592 0.288701 0.071270 0.954763 0 0
    0 -12.684057 -24.286476 0.009592 -0.656747 0.261133 -0.707455 0 0
  phy
    0 -12.684057 -24.286476 0.009592 -0.656747 0.261133 -0.707455 0 0
    0 -11.810649 -25.161843 0.009592 0.288701 0.071270 0.954763 0 0
    0 -12.684057 -25.161843 0.009592 0.899846 -0.346586 -0.264868 0 0
  phy
    0 -11.810649 -24.286476 0.009592 -0.637004 0.432008 0.638432 0 0
    0 -12.684057 -24.286476 0.009592 -0.656747 0.261133 -0.707455 0 0
    0 -9.120479 -16.671312 16.504636 -0.632390 0.340469 0.695819 0 0
  phy
    0 -11.810649 -24.286476 0.009592 -0.637004 0.432008 0.638432 0 0
    0 -9.120479 -16.671312 16.504636 -0.632390 0.340469 0.695819 0 0
    0 -11.810649 -25.161843 0.009592 0.288701 0.071270 0.954763 0 0
  phy
    0 -12.684057 -24.286476 0.009592 -0.656747 0.261133 -0.707455 0 0
    0 -11.220984 -18.786079 17.013721 0.504254 -0.330326 -0.797880 0 0
    0 -11.220984 -16.671312 16.504636 -0.693710 0.074257 -0.716417 0 0
  phy
    0 -11.220984 -18.786079 17.013721 0.504254 -0.330326 -0.797880 0 0
    0 -12.684057 -24.286476 0.009592 -0.656747 0.261133 -0.707455 0 0
    0 -12.684057 -25.161843 0.009592 0.899846 -0.346586 -0.264868 0 0
  phy
    0 -12.684057 -24.286476 0.009592 -0.656747 0.261133 -0.707455 0 0
    0 -11.220984 -16.671312 16.504636 -0.693710 0.074257 -0.716417 0 0
    0 -9.120479 -16.671312 16.504636 -0.632390 0.340469 0.695819 0 0
  phy
    0 -9.120479 -18.786079 17.013721 0.741713 -0.329991 0.583925 0 0
    0 -12.684057 -25.161843 0.009592 0.899846 -0.346586 -0.264868 0 0
    0 -11.810649 -25.161843 0.009592 0.288701 0.071270 0.954763 0 0
  phy
    0 -11.810649 -25.161843 0.009592 0.288701 0.071270 0.954763 0 0
    0 -9.120479 -16.671312 16.504636 -0.632390 0.340469 0.695819 0 0
    0 -9.120479 -18.786079 17.013721 0.741713 -0.329991 0.583925 0 0
  phy
    0 -11.220984 -18.786079 17.013721 0.504254 -0.330326 -0.797880 0 0
    0 -9.120479 -18.786079 17.013721 0.741713 -0.329991 0.583925 0 0
    0 -11.220984 -16.671312 16.504636 -0.693710 0.074257 -0.716417 0 0
  phy
    0 -11.220984 -18.786079 17.013721 0.504254 -0.330326 -0.797880 0 0
    0 -12.684057 -25.161843 0.009592 0.899846 -0.346586 -0.264868 0 0
    0 -9.120479 -18.786079 17.013721 0.741713 -0.329991 0.583925 0 0
  phy
    0 -9.120479 -18.786079 17.013721 0.741713 -0.329991 0.583925 0 0
    0 -9.120479 -16.671312 16.504636 -0.632390 0.340469 0.695819 0 0
    0 -11.220984 -16.671312 16.504636 -0.693710 0.074257 -0.716417 0 0
  phy
    0 -10.483894 -14.519572 21.049634 -0.062928 -0.667478 -0.741965 0 0
    0 -11.886459 -16.086746 16.144960 -0.309846 0.671410 -0.673204 0 0
    0 -12.971139 -19.080660 17.752460 0.344400 -0.358206 -0.867800 0 0
  phy
    0 -11.886459 -16.086746 16.144960 -0.309846 0.671410 -0.673204 0 0
    0 -10.483894 -14.519572 21.049634 -0.062928 -0.667478 -0.741965 0 0
    0 -7.380325 -7.113227 19.965984 -0.675857 0.533269 -0.508765 0 0
  phy
    0 -8.223789 -17.167790 16.001546 -0.088698 0.915612 0.392158 0 0
    0 -11.886459 -16.086746 16.144960 -0.309846 0.671410 -0.673204 0 0
    0 -7.380325 -7.113227 19.965984 -0.675857 0.533269 -0.508765 0 0
  phy
    0 -11.886459 -16.086746 16.144960 -0.309846 0.671410 -0.673204 0 0
    0 -8.223789 -17.167790 16.001546 -0.088698 0.915612 0.392158 0 0
    0 -9.295177 -20.882243 17.812009 0.742916 -0.121032 0.658352 0 0
  phy
    0 -12.971139 -19.080660 17.752460 0.344400 -0.358206 -0.867800 0 0
    0 -11.886459 -16.086746 16.144960 -0.309846 0.671410 -0.673204 0 0
    0 -9.295177 -20.882243 17.812009 0.742916 -0.121032 0.658352 0 0
  phy
    0 -8.042258 -9.985613 21.149716 -0.140633 -0.976895 -0.160929 0 0
    0 -7.699696 -15.769204 21.159478 0.368972 -0.736468 0.566987 0 0
    0 -6.127583 -10.754913 21.225315 -0.118228 -0.941733 0.314900 0 0
  phy
    0 -10.483894 -14.519572 21.049634 -0.062928 -0.667478 -0.741965 0 0
    0 -7.699696 -15.769204 21.159478 0.368972 -0.736468 0.566987 0 0
    0 -8.042258 -9.985613 21.149716 -0.140633 -0.976895 -0.160929 0 0
  phy
    0 -6.127583 -10.754913 21.225315 -0.118228 -0.941733 0.314900 0 0
    0 -7.380325 -7.113227 19.965984 -0.675857 0.533269 -0.508765 0 0
    0 -8.042258 -9.985613 21.149716 -0.140633 -0.976895 -0.160929 0 0
  phy
    0 -10.483894 -14.519572 21.049634 -0.062928 -0.667478 -0.741965 0 0
    0 -8.042258 -9.985613 21.149716 -0.140633 -0.976895 -0.160929 0 0
    0 -7.380325 -7.113227 19.965984 -0.675857 0.533269 -0.508765 0 0
  phy
    0 -5.040557 -7.836967 19.876248 0.138045 0.214553 0.966908 0 0
    0 -8.223789 -17.167790 16.001546 -0.088698 0.915612 0.392158 0 0
    0 -7.380325 -7.113227 19.965984 -0.675857 0.533269 -0.508765 0 0
  phy
    0 -5.040557 -7.836967 19.876248 0.138045 0.214553 0.966908 0 0
    0 -9.295177 -20.882243 17.812009 0.742916 -0.121032 0.658352 0 0
    0 -8.223789 -17.167790 16.001546 -0.088698 0.915612 0.392158 0 0
  phy
    0 -6.127583 -10.754913 21.225315 -0.118228 -0.941733 0.314900 0 0
    0 -7.699696 -15.769204 21.159478 0.368972 -0.736468 0.566987 0 0
    0 -5.040557 -7.836967 19.876248 0.138045 0.214553 0.966908 0 0
  phy
    0 -5.040557 -7.836967 19.876248 0.138045 0.214553 0.966908 0 0
    0 -7.380325 -7.113227 19.965984 -0.675857 0.533269 -0.508765 0 0
    0 -6.127583 -10.754913 21.225315 -0.118228 -0.941733 0.314900 0 0
  phy
    0 -12.971139 -19.080660 17.752460 0.344400 -0.358206 -0.867800 0 0
    0 -9.295177 -20.882243 17.812009 0.742916 -0.121032 0.658352 0 0
    0 -10.483894 -14.519572 21.049634 -0.062928 -0.667478 -0.741965 0 0
  phy
    0 -10.483894 -14.519572 21.049634 -0.062928 -0.667478 -0.741965 0 0
    0 -9.295177 -20.882243 17.812009 0.742916 -0.121032 0.658352 0 0
    0 -7.699696 -15.769204 21.159478 0.368972 -0.736468 0.566987 0 0
  phy
    0 -7.699696 -15.769204 21.159478 0.368972 -0.736468 0.566987 0 0
    0 -9.295177 -20.882243 17.812009 0.742916 -0.121032 0.658352 0 0
    0 -5.040557 -7.836967 19.876248 0.138045 0.214553 0.966908 0 0
  phy
    0 11.810651 -24.286473 0.009592 -0.627551 0.458901 -0.628959 0 0
    0 12.684058 -24.286473 0.009592 -0.658449 0.251701 0.709289 0 0
    0 12.684058 -25.161840 0.009592 0.904035 -0.334531 0.266101 0 0
  phy
    0 11.810651 -24.286473 0.009592 -0.627551 0.458901 -0.628959 0 0
    0 12.684058 -25.161840 0.009592 0.904035 -0.334531 0.266101 0 0
    0 11.810651 -25.161840 0.009592 0.288954 0.057714 -0.955602 0 0
  phy
    0 12.684058 -24.286473 0.009592 -0.658449 0.251701 0.709289 0 0
    0 11.220985 -18.786079 17.013721 0.504254 -0.330326 0.797880 0 0
    0 12.684058 -25.161840 0.009592 0.904035 -0.334531 0.266101 0 0
  phy
    0 12.684058 -24.286473 0.009592 -0.658449 0.251701 0.709289 0 0
    0 11.220985 -16.671312 16.504636 -0.693710 0.074257 0.716417 0 0
    0 11.220985 -18.786079 17.013721 0.504254 -0.330326 0.797880 0 0
  phy
    0 12.684058 -24.286473 0.009592 -0.658449 0.251701 0.709289 0 0
    0 11.810651 -24.286473 0.009592 -0.627551 0.458901 -0.628959 0 0
    0 9.120480 -16.671312 16.504636 -0.632390 0.340469 -0.695819 0 0
  phy
    0 12.684058 -24.286473 0.009592 -0.658449 0.251701 0.709289 0 0
    0 9.120480 -16.671312 16.504636 -0.632390 0.340469 -0.695819 0 0
    0 11.220985 -16.671312 16.504636 -0.693710 0.074257 0.716417 0 0
  phy
    0 11.220985 -18.786079 17.013721 0.504254 -0.330326 0.797880 0 0
    0 9.120480 -18.786079 17.013721 0.741713 -0.329990 -0.583925 0 0
    0 12.684058 -25.161840 0.009592 0.904035 -0.334531 0.266101 0 0
  phy
    0 9.120480 -18.786079 17.013721 0.741713 -0.329990 -0.583925 0 0
    0 11.810651 -25.161840 0.009592 0.288954 0.057714 -0.955602 0 0
    0 12.684058 -25.161840 0.009592 0.904035 -0.334531 0.266101 0 0
  phy
    0 9.120480 -16.671312 16.504636 -0.632390 0.340469 -0.695819 0 0
    0 11.810651 -24.286473 0.009592 -0.627551 0.458901 -0.628959 0 0
    0 11.810651 -25.161840 0.009592 0.288954 0.057714 -0.955602 0 0
  phy
    0 11.220985 -18.786079 17.013721 0.504254 -0.330326 0.797880 0 0
    0 11.220985 -16.671312 16.504636 -0.693710 0.074257 0.716417 0 0
    0 9.120480 -18.786079 17.013721 0.741713 -0.329990 -0.583925 0 0
  phy
    0 9.120480 -18.786079 17.013721 0.741713 -0.329990 -0.583925 0 0
    0 9.120480 -16.671312 16.504636 -0.632390 0.340469 -0.695819 0 0
    0 11.810651 -25.161840 0.009592 0.288954 0.057714 -0.955602 0 0
  phy
    0 9.120480 -18.786079 17.013721 0.741713 -0.329990 -0.583925 0 0
    0 11.220985 -16.671312 16.504636 -0.693710 0.074257 0.716417 0 0
    0 9.120480 -16.671312 16.504636 -0.632390 0.340469 -0.695819 0 0
  phy
    0 11.886462 -16.086746 16.144960 -0.196222 0.891677 0.407932 0 0
    0 8.223791 -17.167790 16.001546 -0.088698 0.915612 -0.392158 0 0
    0 7.380326 -7.113226 19.965984 -0.656190 0.419559 0.627204 0 0
  phy
    0 11.886462 -16.086746 16.144960 -0.196222 0.891677 0.407932 0 0
    0 7.380326 -7.113226 19.965984 -0.656190 0.419559 0.627204 0 0
    0 12.971142 -19.080658 17.752460 0.036382 -0.426763 0.903632 0 0
  phy
    0 8.223791 -17.167790 16.001546 -0.088698 0.915612 -0.392158 0 0
    0 11.886462 -16.086746 16.144960 -0.196222 0.891677 0.407932 0 0
    0 9.295180 -20.882241 17.812009 0.649392 0.098989 -0.753984 0 0
  phy
    0 11.886462 -16.086746 16.144960 -0.196222 0.891677 0.407932 0 0
    0 12.971142 -19.080658 17.752460 0.036382 -0.426763 0.903632 0 0
    0 9.295180 -20.882241 17.812009 0.649392 0.098989 -0.753984 0 0
  phy
    0 6.127585 -10.754912 21.225315 -0.075666 -0.979383 -0.187305 0 0
    0 10.483896 -14.519571 21.049634 -0.106623 -0.774656 0.623330 0 0
    0 8.042258 -9.985612 21.149716 -0.240297 -0.939133 0.245535 0 0
  phy
    0 8.042258 -9.985612 21.149716 -0.240297 -0.939133 0.245535 0 0
    0 7.380326 -7.113226 19.965984 -0.656190 0.419559 0.627204 0 0
    0 6.127585 -10.754912 21.225315 -0.075666 -0.979383 -0.187305 0 0
  phy
    0 10.483896 -14.519571 21.049634 -0.106623 -0.774656 0.623330 0 0
    0 7.380326 -7.113226 19.965984 -0.656190 0.419559 0.627204 0 0
    0 8.042258 -9.985612 21.149716 -0.240297 -0.939133 0.245535 0 0
  phy
    0 8.223791 -17.167790 16.001546 -0.088698 0.915612 -0.392158 0 0
    0 5.040558 -7.836967 19.876248 0.138045 0.214553 -0.966908 0 0
    0 7.380326 -7.113226 19.965984 -0.656190 0.419559 0.627204 0 0
  phy
    0 5.040558 -7.836967 19.876248 0.138045 0.214553 -0.966908 0 0
    0 8.223791 -17.167790 16.001546 -0.088698 0.915612 -0.392158 0 0
    0 9.295180 -20.882241 17.812009 0.649392 0.098989 -0.753984 0 0
  phy
    0 6.127585 -10.754912 21.225315 -0.075666 -0.979383 -0.187305 0 0
    0 7.699698 -15.769203 21.159478 0.483031 -0.778149 -0.401454 0 0
    0 10.483896 -14.519571 21.049634 -0.106623 -0.774656 0.623330 0 0
  phy
    0 6.127585 -10.754912 21.225315 -0.075666 -0.979383 -0.187305 0 0
    0 5.040558 -7.836967 19.876248 0.138045 0.214553 -0.966908 0 0
    0 7.699698 -15.769203 21.159478 0.483031 -0.778149 -0.401454 0 0
  phy
    0 6.127585 -10.754912 21.225315 -0.075666 -0.979383 -0.187305 0 0
    0 7.380326 -7.113226 19.965984 -0.656190 0.419559 0.627204 0 0
    0 5.040558 -7.836967 19.876248 0.138045 0.214553 -0.966908 0 0
  phy
    0 10.483896 -14.519571 21.049634 -0.106623 -0.774656 0.623330 0 0
    0 7.699698 -15.769203 21.159478 0.483031 -0.778149 -0.401454 0 0
    0 12.971142 -19.080658 17.752460 0.036382 -0.426763 0.903632 0 0
  phy
    0 12.971142 -19.080658 17.752460 0.036382 -0.426763 0.903632 0 0
    0 7.380326 -7.113226 19.965984 -0.656190 0.419559 0.627204 0 0
    0 10.483896 -14.519571 21.049634 -0.106623 -0.774656 0.623330 0 0
  phy
    0 7.699698 -15.769203 21.159478 0.483031 -0.778149 -0.401454 0 0
    0 5.040558 -7.836967 19.876248 0.138045 0.214553 -0.966908 0 0
    0 9.295180 -20.882241 17.812009 0.649392 0.098989 -0.753984 0 0
  phy
    0 7.699698 -15.769203 21.159478 0.483031 -0.778149 -0.401454 0 0
    0 9.295180 -20.882241 17.812009 0.649392 0.098989 -0.753984 0 0
    0 12.971142 -19.080658 17.752460 0.036382 -0.426763 0.903632 0 0
  phy
    0 1.284309 15.959302 27.221033 0.848351 0.153427 0.506716 0 0
    0 -0.814020 22.130376 0.029099 0.965659 0.234503 -0.111854 0 0
    0 0.814018 22.130376 0.029099 0.469451 0.130087 0.873323 0 0
  phy
    0 1.284309 15.959302 27.221033 0.848351 0.153427 0.506716 0 0
    0 -1.284311 15.959302 27.221033 0.659319 0.042977 -0.750634 0 0
    0 -0.814020 22.130376 0.029099 0.965659 0.234503 -0.111854 0 0
  phy
    0 0.814018 22.130376 0.029099 0.469451 0.130087 0.873323 0 0
    0 1.284309 18.403964 27.563750 -0.631470 -0.201448 0.748775 0 0
    0 1.284309 15.959302 27.221033 0.848351 0.153427 0.506716 0 0
  phy
    0 0.814018 22.130376 0.029099 0.469451 0.130087 0.873323 0 0
    0 0.816842 22.561229 0.257968 -0.984878 -0.135140 0.108410 0 0
    0 1.284309 18.403964 27.563750 -0.631470 -0.201448 0.748775 0 0
  phy
    0 0.814018 22.130376 0.029099 0.469451 0.130087 0.873323 0 0
    0 -0.814020 22.130376 0.029099 0.965659 0.234503 -0.111854 0 0
    0 0.816842 22.561229 0.257968 -0.984878 -0.135140 0.108410 0 0
  phy
    0 -0.816844 22.561229 0.257968 -0.485049 -0.050733 -0.873014 0 0
    0 -0.814020 22.130376 0.029099 0.965659 0.234503 -0.111854 0 0
    0 -1.284311 15.959302 27.221033 0.659319 0.042977 -0.750634 0 0
  phy
    0 -1.284311 18.403964 27.563750 -0.846120 -0.167749 -0.505905 0 0
    0 -0.816844 22.561229 0.257968 -0.485049 -0.050733 -0.873014 0 0
    0 -1.284311 15.959302 27.221033 0.659319 0.042977 -0.750634 0 0
  phy
    0 -0.814020 22.130376 0.029099 0.965659 0.234503 -0.111854 0 0
    0 -0.816844 22.561229 0.257968 -0.485049 -0.050733 -0.873014 0 0
    0 0.816842 22.561229 0.257968 -0.984878 -0.135140 0.108410 0 0
  phy
    0 -0.816844 22.561229 0.257968 -0.485049 -0.050733 -0.873014 0 0
    0 -1.284311 18.403964 27.563750 -0.846120 -0.167749 -0.505905 0 0
    0 0.816842 22.561229 0.257968 -0.984878 -0.135140 0.108410 0 0
  phy
    0 1.284309 18.403964 27.563750 -0.631470 -0.201448 0.748775 0 0
    0 -1.284311 15.959302 27.221033 0.659319 0.042977 -0.750634 0 0
    0 1.284309 15.959302 27.221033 0.848351 0.153427 0.506716 0 0
  phy
    0 -1.284311 18.403964 27.563750 -0.846120 -0.167749 -0.505905 0 0
    0 -1.284311 15.959302 27.221033 0.659319 0.042977 -0.750634 0 0
    0 1.284309 18.403964 27.563750 -0.631470 -0.201448 0.748775 0 0
  phy
    0 -1.284311 18.403964 27.563750 -0.846120 -0.167749 -0.505905 0 0
    0 1.284309 18.403964 27.563750 -0.631470 -0.201448 0.748775 0 0
    0 0.816842 22.561229 0.257968 -0.984878 -0.135140 0.108410 0 0
  phy
    0 -1.855474 10.269013 34.167835 -0.293270 -0.944709 -0.146690 0 0
    0 -2.279921 6.809840 33.831456 0.359177 -0.352441 -0.864163 0 0
    0 1.855472 10.269013 34.167835 -0.130002 -0.973540 0.187933 0 0
  phy
    0 1.855472 10.269013 34.167835 -0.130002 -0.973540 0.187933 0 0
    0 -2.279921 6.809840 33.831456 0.359177 -0.352441 -0.864163 0 0
    0 2.279921 6.809840 33.831456 0.338231 -0.286826 0.896287 0 0
  phy
    0 1.855472 10.269013 34.167835 -0.130002 -0.973540 0.187933 0 0
    0 2.473329 16.169076 31.664097 -0.375832 -0.672459 0.637612 0 0
    0 -1.855474 10.269013 34.167835 -0.293270 -0.944709 -0.146690 0 0
  phy
    0 1.855472 10.269013 34.167835 -0.130002 -0.973540 0.187933 0 0
    0 2.279921 6.809840 33.831456 0.338231 -0.286826 0.896287 0 0
    0 2.473329 16.169076 31.664097 -0.375832 -0.672459 0.637612 0 0
  phy
    0 2.473329 16.169076 31.664097 -0.375832 -0.672459 0.637612 0 0
    0 2.279921 6.809840 33.831456 0.338231 -0.286826 0.896287 0 0
    0 3.999999 14.998896 26.221850 0.076999 0.131158 0.988367 0 0
  phy
    0 3.999999 14.998896 26.221850 0.076999 0.131158 0.988367 0 0
    0 2.577236 19.394371 27.528741 -0.699895 0.687875 0.192288 0 0
    0 2.473329 16.169076 31.664097 -0.375832 -0.672459 0.637612 0 0
  phy
    0 3.999999 14.998896 26.221850 0.076999 0.131158 0.988367 0 0
    0 2.279921 6.809840 33.831456 0.338231 -0.286826 0.896287 0 0
    0 0.323566 -0.295294 24.021711 0.473319 -0.079660 0.877282 0 0
  phy
    0 0.323566 -0.295294 24.021711 0.473319 -0.079660 0.877282 0 0
    0 0.294495 3.827822 22.654944 -0.088114 0.890781 0.445809 0 0
    0 3.999999 14.998896 26.221850 0.076999 0.131158 0.988367 0 0
  phy
    0 3.999999 14.998896 26.221850 0.076999 0.131158 0.988367 0 0
    0 0.294495 3.827822 22.654944 -0.088114 0.890781 0.445809 0 0
    0 2.577236 19.394371 27.528741 -0.699895 0.687875 0.192288 0 0
  phy
    0 2.473329 16.169076 31.664097 -0.375832 -0.672459 0.637612 0 0
    0 -2.473331 16.169076 31.664097 -0.459041 -0.626226 -0.630177 0 0
    0 -1.855474 10.269013 34.167835 -0.293270 -0.944709 -0.146690 0 0
  phy
    0 -1.855474 10.269013 34.167835 -0.293270 -0.944709 -0.146690 0 0
    0 -2.473331 16.169076 31.664097 -0.459041 -0.626226 -0.630177 0 0
    0 -2.279921 6.809840 33.831456 0.359177 -0.352441 -0.864163 0 0
  phy
    0 -2.473331 16.169076 31.664097 -0.459041 -0.626226 -0.630177 0 0
    0 2.473329 16.169076 31.664097 -0.375832 -0.672459 0.637612 0 0
    0 2.577236 19.394371 27.528741 -0.699895 0.687875 0.192288 0 0
  phy
    0 -2.577238 19.394371 27.528741 -0.552316 0.807078 -0.208740 0 0
    0 -0.294495 3.827822 22.654944 -0.219267 0.952392 -0.211830 0 0
    0 -4.000001 14.998895 26.221850 0.076999 0.131158 -0.988367 0 0
  phy
    0 -0.294495 3.827822 22.654944 -0.219267 0.952392 -0.211830 0 0
    0 -2.577238 19.394371 27.528741 -0.552316 0.807078 -0.208740 0 0
    0 2.577236 19.394371 27.528741 -0.699895 0.687875 0.192288 0 0
  phy
    0 -2.473331 16.169076 31.664097 -0.459041 -0.626226 -0.630177 0 0
    0 -2.577238 19.394371 27.528741 -0.552316 0.807078 -0.208740 0 0
    0 -4.000001 14.998895 26.221850 0.076999 0.131158 -0.988367 0 0
  phy
    0 -2.577238 19.394371 27.528741 -0.552316 0.807078 -0.208740 0 0
    0 -2.473331 16.169076 31.664097 -0.459041 -0.626226 -0.630177 0 0
    0 2.577236 19.394371 27.528741 -0.699895 0.687875 0.192288 0 0
  phy
    0 0.294495 3.827822 22.654944 -0.088114 0.890781 0.445809 0 0
    0 -0.294495 3.827822 22.654944 -0.219267 0.952392 -0.211830 0 0
    0 2.577236 19.394371 27.528741 -0.699895 0.687875 0.192288 0 0
  phy
    0 -0.294495 3.827822 22.654944 -0.219267 0.952392 -0.211830 0 0
    0 0.294495 3.827822 22.654944 -0.088114 0.890781 0.445809 0 0
    0 -0.323566 -0.295294 24.021711 0.260959 0.116028 -0.958352 0 0
  phy
    0 -4.000001 14.998895 26.221850 0.076999 0.131158 -0.988367 0 0
    0 -0.294495 3.827822 22.654944 -0.219267 0.952392 -0.211830 0 0
    0 -0.323566 -0.295294 24.021711 0.260959 0.116028 -0.958352 0 0
  phy
    0 0.294495 3.827822 22.654944 -0.088114 0.890781 0.445809 0 0
    0 0.323566 -0.295294 24.021711 0.473319 -0.079660 0.877282 0 0
    0 -0.323566 -0.295294 24.021711 0.260959 0.116028 -0.958352 0 0
  phy
    0 2.279921 6.809840 33.831456 0.338231 -0.286826 0.896287 0 0
    0 -2.279921 6.809840 33.831456 0.359177 -0.352441 -0.864163 0 0
    0 0.323566 -0.295294 24.021711 0.473319 -0.079660 0.877282 0 0
  phy
    0 -2.279921 6.809840 33.831456 0.359177 -0.352441 -0.864163 0 0
    0 -0.323566 -0.295294 24.021711 0.260959 0.116028 -0.958352 0 0
    0 0.323566 -0.295294 24.021711 0.473319 -0.079660 0.877282 0 0
  phy
    0 -2.473331 16.169076 31.664097 -0.459041 -0.626226 -0.630177 0 0
    0 -4.000001 14.998895 26.221850 0.076999 0.131158 -0.988367 0 0
    0 -2.279921 6.809840 33.831456 0.359177 -0.352441 -0.864163 0 0
  phy
    0 -2.279921 6.809840 33.831456 0.359177 -0.352441 -0.864163 0 0
    0 -4.000001 14.998895 26.221850 0.076999 0.131158 -0.988367 0 0
    0 -0.323566 -0.295294 24.021711 0.260959 0.116028 -0.958352 0 0
  phy
    0 2.022491 -2.778552 56.483046 -0.505203 -0.705973 0.496359 0 0
    0 4.574791 -0.502776 51.855642 -0.714999 -0.494585 0.494128 0 0
    0 2.287526 0.920139 51.855642 -0.851145 -0.425887 0.306875 0 0
  phy
    0 2.022491 -2.778552 56.483046 -0.505203 -0.705973 0.496359 0 0
    0 2.287526 0.920139 51.855642 -0.851145 -0.425887 0.306875 0 0
    0 0.000000 -1.666612 56.483046 -0.721450 -0.692467 0.000000 0 0
  phy
    0 2.022491 -2.778552 56.483046 -0.505203 -0.705973 0.496359 0 0
    0 0.000000 -5.463012 58.107972 0.000001 -1.000000 0.000000 0 0
    0 2.986657 -5.463012 56.483046 0.000000 -0.692968 0.720968 0 0
  phy
    0 0.000000 -1.666612 56.483046 -0.721450 -0.692467 0.000000 0 0
    0 0.000000 -5.463012 58.107972 0.000001 -1.000000 0.000000 0 0
    0 2.022491 -2.778552 56.483046 -0.505203 -0.705973 0.496359 0 0
  phy
    0 4.574791 -0.502776 51.855642 -0.714999 -0.494585 0.494128 0 0
    0 2.022491 -2.778552 56.483046 -0.505203 -0.705973 0.496359 0 0
    0 5.834714 -1.657653 52.038328 -0.363494 -0.496717 0.788127 0 0
  phy
    0 2.986657 -5.463012 56.483046 0.000000 -0.692968 0.720968 0 0
    0 5.834714 -1.657653 52.038328 -0.363494 -0.496717 0.788127 0 0
    0 2.022491 -2.778552 56.483046 -0.505203 -0.705973 0.496359 0 0
  phy
    0 -8.584158 -5.172018 45.902602 -0.018841 -0.170204 -0.985229 0 0
    0 -8.280023 -1.422317 45.969045 -0.317474 -0.225345 -0.921102 0 0
    0 -9.146841 -1.514953 36.761176 -0.437337 -0.013729 -0.899193 0 0
  phy
    0 -9.146841 -1.514953 36.761176 -0.437337 -0.013729 -0.899193 0 0
    0 -8.280023 -1.422317 45.969045 -0.317474 -0.225345 -0.921102 0 0
    0 -5.855810 1.846835 45.969045 -0.825493 -0.162240 -0.540592 0 0
  phy
    0 -8.280023 -1.422317 45.969045 -0.317474 -0.225345 -0.921102 0 0
    0 -5.845567 -1.657653 52.038328 -0.363436 -0.496839 -0.788077 0 0
    0 -5.855810 1.846835 45.969045 -0.825493 -0.162240 -0.540592 0 0
  phy
    0 -8.280023 -1.422317 45.969045 -0.317474 -0.225345 -0.921102 0 0
    0 -8.584158 -5.172018 45.902602 -0.018841 -0.170204 -0.985229 0 0
    0 -6.469102 -5.463012 51.855642 0.000000 -0.434627 -0.900610 0 0
  phy
    0 -8.280023 -1.422317 45.969045 -0.317474 -0.225345 -0.921102 0 0
    0 -6.469102 -5.463012 51.855642 0.000000 -0.434627 -0.900610 0 0
    0 -5.845567 -1.657653 52.038328 -0.363436 -0.496839 -0.788077 0 0
  phy
    0 3.937909 -1.797072 19.809782 -0.411179 0.683176 0.603491 0 0
    0 0.020344 -5.451948 17.885918 -0.113482 0.993493 0.009648 0 0
    0 0.020454 -1.859703 19.225475 -0.591498 0.805928 0.024707 0 0
  phy
    0 0.020344 -5.451948 17.885918 -0.113482 0.993493 0.009648 0 0
    0 3.937909 -1.797072 19.809782 -0.411179 0.683176 0.603491 0 0
    0 3.937831 -5.401205 18.466959 0.033111 0.610552 0.791283 0 0
  phy
    0 3.937909 -1.797072 19.809782 -0.411179 0.683176 0.603491 0 0
    0 0.020454 -1.859703 19.225475 -0.591498 0.805928 0.024707 0 0
    0 3.923062 0.795275 22.562134 -0.780561 0.440023 0.443965 0 0
  phy
    0 8.460598 -1.511804 28.592111 -0.285496 0.282743 0.915723 0 0
    0 3.937831 -5.401205 18.466959 0.033111 0.610552 0.791283 0 0
    0 3.937909 -1.797072 19.809782 -0.411179 0.683176 0.603491 0 0
  phy
    0 3.937909 -1.797072 19.809782 -0.411179 0.683176 0.603491 0 0
    0 3.923062 0.795275 22.562134 -0.780561 0.440023 0.443965 0 0
    0 8.460598 -1.511804 28.592111 -0.285496 0.282743 0.915723 0 0
  phy
    0 0.000001 -14.705268 28.592109 0.974719 0.215568 0.058758 0 0
    0 0.000001 -15.592099 36.641594 0.998925 -0.037091 -0.027821 0 0
    0 -1.768732 -14.220958 28.592109 0.923082 0.164209 -0.347787 0 0
  phy
    0 -1.768732 -14.220958 28.592109 0.923082 0.164209 -0.347787 0 0
    0 0.000001 -15.592099 36.641594 0.998925 -0.037091 -0.027821 0 0
    0 -2.337914 -14.965112 36.761176 0.907346 0.008276 -0.420302 0 0
  phy
    0 -1.768732 -14.220958 28.592109 0.923082 0.164209 -0.347787 0 0
    0 -2.337914 -14.965112 36.761176 0.907346 0.008276 -0.420302 0 0
    0 -5.271069 -12.582584 28.592111 0.809724 0.148207 -0.567786 0 0
  phy
    0 -5.271069 -12.582584 28.592111 0.809724 0.148207 -0.567786 0 0
    0 -3.897300 -11.574525 22.590604 0.682832 0.491749 -0.540299 0 0
    0 -1.768732 -14.220958 28.592109 0.923082 0.164209 -0.347787 0 0
  phy
    0 -3.897300 -11.574525 22.590604 0.682832 0.491749 -0.540299 0 0
    0 0.000001 -14.705268 28.592109 0.974719 0.215568 0.058758 0 0
    0 -1.768732 -14.220958 28.592109 0.923082 0.164209 -0.347787 0 0
  phy
    0 2.986657 -5.463012 56.483046 0.000000 -0.692968 0.720968 0 0
    0 0.000000 -5.463012 58.107972 0.000001 -1.000000 0.000000 0 0
    0 2.022491 -8.147472 56.483042 0.505816 -0.705825 0.495944 0 0
  phy
    0 2.022491 -8.147472 56.483042 0.505816 -0.705825 0.495944 0 0
    0 5.834715 -9.268370 52.038323 0.363169 -0.479697 0.798748 0 0
    0 2.986657 -5.463012 56.483046 0.000000 -0.692968 0.720968 0 0
  phy
    0 5.834715 -9.268370 52.038323 0.363169 -0.479697 0.798748 0 0
    0 6.469624 -5.463012 51.855642 0.000000 -0.434898 0.900479 0 0
    0 2.986657 -5.463012 56.483046 0.000000 -0.692968 0.720968 0 0
  phy
    0 2.986657 -5.463012 56.483046 0.000000 -0.692968 0.720968 0 0
    0 6.469624 -5.463012 51.855642 0.000000 -0.434898 0.900479 0 0
    0 5.834714 -1.657653 52.038328 -0.363494 -0.496717 0.788127 0 0
  phy
    0 4.574791 -0.502776 51.855642 -0.714999 -0.494585 0.494128 0 0
    0 5.834714 -1.657653 52.038328 -0.363494 -0.496717 0.788127 0 0
    0 5.853310 1.846835 45.969045 -0.825358 -0.162249 0.540795 0 0
  phy
    0 2.287526 0.920139 51.855642 -0.851145 -0.425887 0.306875 0 0
    0 4.574791 -0.502776 51.855642 -0.714999 -0.494585 0.494128 0 0
    0 5.853310 1.846835 45.969045 -0.825358 -0.162249 0.540795 0 0
  phy
    0 -8.280023 -8.928213 45.969045 0.267402 -0.197610 -0.943105 0 0
    0 -8.584158 -5.172018 45.902602 -0.018841 -0.170204 -0.985229 0 0
    0 -9.456720 -5.415014 36.761176 0.004726 -0.007182 -0.999963 0 0
  phy
    0 -8.584158 -5.172018 45.902602 -0.018841 -0.170204 -0.985229 0 0
    0 -9.146841 -1.514953 36.761176 -0.437337 -0.013729 -0.899193 0 0
    0 -9.456720 -5.415014 36.761176 0.004726 -0.007182 -0.999963 0 0
  phy
    0 -6.469102 -5.463012 51.855642 0.000000 -0.434627 -0.900610 0 0
    0 -8.584158 -5.172018 45.902602 -0.018841 -0.170204 -0.985229 0 0
    0 -8.280023 -8.928213 45.969045 0.267402 -0.197610 -0.943105 0 0
  phy
    0 0.020564 0.796481 22.047629 -0.788699 0.614675 -0.011371 0 0
    0 -3.897066 -1.797520 19.733648 -0.466662 0.699116 -0.541722 0 0
    0 -3.896987 0.836973 22.559067 -0.778801 0.404013 -0.479835 0 0
  phy
    0 -3.897066 -1.797520 19.733648 -0.466662 0.699116 -0.541722 0 0
    0 0.020564 0.796481 22.047629 -0.788699 0.614675 -0.011371 0 0
    0 0.020454 -1.859703 19.225475 -0.591498 0.805928 0.024707 0 0
  phy
    0 0.020454 -1.859703 19.225475 -0.591498 0.805928 0.024707 0 0
    0 0.020564 0.796481 22.047629 -0.788699 0.614675 -0.011371 0 0
    0 3.923062 0.795275 22.562134 -0.780561 0.440023 0.443965 0 0
  phy
    0 0.028965 2.913632 25.628272 -0.924085 0.382171 0.003543 0 0
    0 0.020564 0.796481 22.047629 -0.788699 0.614675 -0.011371 0 0
    0 -3.896987 0.836973 22.559067 -0.778801 0.404013 -0.479835 0 0
  phy
    0 0.020564 0.796481 22.047629 -0.788699 0.614675 -0.011371 0 0
    0 0.028965 2.913632 25.628272 -0.924085 0.382171 0.003543 0 0
    0 3.923062 0.795275 22.562134 -0.780561 0.440023 0.443965 0 0
  phy
    0 8.460598 -1.511804 28.592111 -0.285496 0.282743 0.915723 0 0
    0 9.451650 -5.671432 36.581236 0.004762 -0.007141 0.999963 0 0
    0 8.679295 -5.435735 28.592111 0.028193 0.259736 0.965268 0 0
  phy
    0 9.144968 -1.514953 36.761176 -0.428974 -0.013274 0.903220 0 0
    0 9.451650 -5.671432 36.581236 0.004762 -0.007141 0.999963 0 0
    0 8.460598 -1.511804 28.592111 -0.285496 0.282743 0.915723 0 0
  phy
    0 5.844240 1.434260 28.592111 -0.793058 0.119043 0.597401 0 0
    0 9.144968 -1.514953 36.761176 -0.428974 -0.013274 0.903220 0 0
    0 8.460598 -1.511804 28.592111 -0.285496 0.282743 0.915723 0 0
  phy
    0 8.460598 -1.511804 28.592111 -0.285496 0.282743 0.915723 0 0
    0 3.923062 0.795275 22.562134 -0.780561 0.440023 0.443965 0 0
    0 5.844240 1.434260 28.592111 -0.793058 0.119043 0.597401 0 0
  phy
    0 8.679295 -5.435735 28.592111 0.028193 0.259736 0.965268 0 0
    0 3.937831 -5.401205 18.466959 0.033111 0.610552 0.791283 0 0
    0 8.460598 -1.511804 28.592111 -0.285496 0.282743 0.915723 0 0
  phy
    0 9.144968 -9.315074 36.761176 0.409017 -0.001880 0.912525 0 0
    0 8.329778 -9.359663 28.592111 0.404078 0.270033 0.873958 0 0
    0 8.679295 -5.435735 28.592111 0.028193 0.259736 0.965268 0 0
  phy
    0 8.679295 -5.435735 28.592111 0.028193 0.259736 0.965268 0 0
    0 9.451650 -5.671432 36.581236 0.004762 -0.007141 0.999963 0 0
    0 9.144968 -9.315074 36.761176 0.409017 -0.001880 0.912525 0 0
  phy
    0 9.144968 -9.315074 36.761176 0.409017 -0.001880 0.912525 0 0
    0 5.820531 -12.474220 45.969045 0.754747 -0.160292 0.636131 0 0
    0 6.065901 -12.800291 36.761176 0.754571 0.025606 0.655719 0 0
  phy
    0 8.278151 -8.928213 45.969045 0.269279 -0.198740 0.942333 0 0
    0 5.820531 -12.474220 45.969045 0.754747 -0.160292 0.636131 0 0
    0 9.144968 -9.315074 36.761176 0.409017 -0.001880 0.912525 0 0
  phy
    0 9.144968 -9.315074 36.761176 0.409017 -0.001880 0.912525 0 0
    0 9.451650 -5.671432 36.581236 0.004762 -0.007141 0.999963 0 0
    0 8.278151 -8.928213 45.969045 0.269279 -0.198740 0.942333 0 0
  phy
    0 6.065901 -12.800291 36.761176 0.754571 0.025606 0.655719 0 0
    0 8.329778 -9.359663 28.592111 0.404078 0.270033 0.873958 0 0
    0 9.144968 -9.315074 36.761176 0.409017 -0.001880 0.912525 0 0
  phy
    0 -3.897300 -11.574525 22.590604 0.682832 0.491749 -0.540299 0 0
    0 -5.271069 -12.582584 28.592111 0.809724 0.148207 -0.567786 0 0
    0 -8.331656 -9.359664 28.592111 0.419415 0.281408 -0.863076 0 0
  phy
    0 -8.331656 -9.359664 28.592111 0.419415 0.281408 -0.863076 0 0
    0 -5.271069 -12.582584 28.592111 0.809724 0.148207 -0.567786 0 0
    0 -6.066670 -12.800291 36.761176 0.754665 0.025600 -0.655610 0 0
  phy
    0 -2.337914 -14.965112 36.761176 0.907346 0.008276 -0.420302 0 0
    0 -6.066670 -12.800291 36.761176 0.754665 0.025600 -0.655610 0 0
    0 -5.271069 -12.582584 28.592111 0.809724 0.148207 -0.567786 0 0
  phy
    0 9.144968 -1.514953 36.761176 -0.428974 -0.013274 0.903220 0 0
    0 8.278151 -1.422317 45.969045 -0.317930 -0.225692 0.920860 0 0
    0 8.583036 -5.171855 45.899303 -0.017200 -0.167343 0.985749 0 0
  phy
    0 8.583036 -5.171855 45.899303 -0.017200 -0.167343 0.985749 0 0
    0 9.451650 -5.671432 36.581236 0.004762 -0.007141 0.999963 0 0
    0 9.144968 -1.514953 36.761176 -0.428974 -0.013274 0.903220 0 0
  phy
    0 8.278151 -8.928213 45.969045 0.269279 -0.198740 0.942333 0 0
    0 9.451650 -5.671432 36.581236 0.004762 -0.007141 0.999963 0 0
    0 8.583036 -5.171855 45.899303 -0.017200 -0.167343 0.985749 0 0
  phy
    0 8.583036 -5.171855 45.899303 -0.017200 -0.167343 0.985749 0 0
    0 6.469624 -5.463012 51.855642 0.000000 -0.434898 0.900479 0 0
    0 8.278151 -8.928213 45.969045 0.269279 -0.198740 0.942333 0 0
  phy
    0 8.278151 -1.422317 45.969045 -0.317930 -0.225692 0.920860 0 0
    0 6.469624 -5.463012 51.855642 0.000000 -0.434898 0.900479 0 0
    0 8.583036 -5.171855 45.899303 -0.017200 -0.167343 0.985749 0 0
  phy
    0 2.022491 -8.147472 56.483042 0.505816 -0.705825 0.495944 0 0
    0 2.287526 -11.830785 51.855642 0.807979 -0.452947 0.376840 0 0
    0 4.574791 -10.423248 51.855642 0.723628 -0.477732 0.498131 0 0
  phy
    0 4.574791 -10.423248 51.855642 0.723628 -0.477732 0.498131 0 0
    0 5.834715 -9.268370 52.038323 0.363169 -0.479697 0.798748 0 0
    0 2.022491 -8.147472 56.483042 0.505816 -0.705825 0.495944 0 0
  phy
    0 2.287526 -11.830785 51.855642 0.807979 -0.452947 0.376840 0 0
    0 5.820531 -12.474220 45.969045 0.754747 -0.160292 0.636131 0 0
    0 4.574791 -10.423248 51.855642 0.723628 -0.477732 0.498131 0 0
  phy
    0 4.574791 -10.423248 51.855642 0.723628 -0.477732 0.498131 0 0
    0 5.820531 -12.474220 45.969045 0.754747 -0.160292 0.636131 0 0
    0 5.834715 -9.268370 52.038323 0.363169 -0.479697 0.798748 0 0
  phy
    0 0.000000 -9.259413 56.483042 0.713926 -0.700222 0.000000 0 0
    0 0.000000 -5.463012 58.107972 0.000001 -1.000000 0.000000 0 0
    0 -2.022491 -8.147472 56.483042 0.506104 -0.705938 -0.495490 0 0
  phy
    0 -2.022491 -8.147472 56.483042 0.506104 -0.705938 -0.495490 0 0
    0 0.000000 -5.463012 58.107972 0.000001 -1.000000 0.000000 0 0
    0 -2.986657 -5.463012 56.483046 0.000001 -0.693268 -0.720680 0 0
  phy
    0 -2.022491 -8.147472 56.483042 0.506104 -0.705938 -0.495490 0 0
    0 -2.986657 -5.463012 56.483046 0.000001 -0.693268 -0.720680 0 0
    0 -5.845567 -9.268370 52.038323 0.363198 -0.479793 -0.798678 0 0
  phy
    0 -2.022491 -8.147472 56.483042 0.506104 -0.705938 -0.495490 0 0
    0 -5.845567 -9.268370 52.038323 0.363198 -0.479793 -0.798678 0 0
    0 -4.574271 -10.423248 51.855642 0.724375 -0.477696 -0.497078 0 0
  phy
    0 -2.022491 -8.147472 56.483042 0.506104 -0.705938 -0.495490 0 0
    0 -2.287004 -11.830785 51.855642 0.807984 -0.452955 -0.376821 0 0
    0 0.000000 -9.259413 56.483042 0.713926 -0.700222 0.000000 0 0
  phy
    0 -4.574271 -10.423248 51.855642 0.724375 -0.477696 -0.497078 0 0
    0 -2.287004 -11.830785 51.855642 0.807984 -0.452955 -0.376821 0 0
    0 -2.022491 -8.147472 56.483042 0.506104 -0.705938 -0.495490 0 0
  phy
    0 2.022491 -8.147472 56.483042 0.505816 -0.705825 0.495944 0 0
    0 0.000000 -9.259413 56.483042 0.713926 -0.700222 0.000000 0 0
    0 2.287526 -11.830785 51.855642 0.807979 -0.452947 0.376840 0 0
  phy
    0 2.022491 -8.147472 56.483042 0.505816 -0.705825 0.495944 0 0
    0 0.000000 -5.463012 58.107972 0.000001 -1.000000 0.000000 0 0
    0 0.000000 -9.259413 56.483042 0.713926 -0.700222 0.000000 0 0
  phy
    0 8.278151 -1.422317 45.969045 -0.317930 -0.225692 0.920860 0 0
    0 5.853310 1.846835 45.969045 -0.825358 -0.162249 0.540795 0 0
    0 5.834714 -1.657653 52.038328 -0.363494 -0.496717 0.788127 0 0
  phy
    0 5.834714 -1.657653 52.038328 -0.363494 -0.496717 0.788127 0 0
    0 6.469624 -5.463012 51.855642 0.000000 -0.434898 0.900479 0 0
    0 8.278151 -1.422317 45.969045 -0.317930 -0.225692 0.920860 0 0
  phy
    0 -2.287005 0.920139 51.855642 -0.851150 -0.425912 -0.306827 0 0
    0 -2.022491 -2.778552 56.483046 -0.505490 -0.706086 -0.495905 0 0
    0 0.000000 -1.666612 56.483046 -0.721450 -0.692467 0.000000 0 0
  phy
    0 -2.022491 -2.778552 56.483046 -0.505490 -0.706086 -0.495905 0 0
    0 -2.287005 0.920139 51.855642 -0.851150 -0.425912 -0.306827 0 0
    0 -4.574271 -0.502776 51.855642 -0.715708 -0.494625 -0.493060 0 0
  phy
    0 -5.845567 -1.657653 52.038328 -0.363436 -0.496839 -0.788077 0 0
    0 -2.022491 -2.778552 56.483046 -0.505490 -0.706086 -0.495905 0 0
    0 -4.574271 -0.502776 51.855642 -0.715708 -0.494625 -0.493060 0 0
  phy
    0 -2.986657 -5.463012 56.483046 0.000001 -0.693268 -0.720680 0 0
    0 0.000000 -5.463012 58.107972 0.000001 -1.000000 0.000000 0 0
    0 -2.022491 -2.778552 56.483046 -0.505490 -0.706086 -0.495905 0 0
  phy
    0 -2.022491 -2.778552 56.483046 -0.505490 -0.706086 -0.495905 0 0
    0 0.000000 -5.463012 58.107972 0.000001 -1.000000 0.000000 0 0
    0 0.000000 -1.666612 56.483046 -0.721450 -0.692467 0.000000 0 0
  phy
    0 -2.022491 -2.778552 56.483046 -0.505490 -0.706086 -0.495905 0 0
    0 -5.845567 -1.657653 52.038328 -0.363436 -0.496839 -0.788077 0 0
    0 -2.986657 -5.463012 56.483046 0.000001 -0.693268 -0.720680 0 0
  phy
    0 -5.845567 -1.657653 52.038328 -0.363436 -0.496839 -0.788077 0 0
    0 -6.469102 -5.463012 51.855642 0.000000 -0.434627 -0.900610 0 0
    0 -2.986657 -5.463012 56.483046 0.000001 -0.693268 -0.720680 0 0
  phy
    0 -2.986657 -5.463012 56.483046 0.000001 -0.693268 -0.720680 0 0
    0 -6.469102 -5.463012 51.855642 0.000000 -0.434627 -0.900610 0 0
    0 -5.845567 -9.268370 52.038323 0.363198 -0.479793 -0.798678 0 0
  phy
    0 -6.469102 -5.463012 51.855642 0.000000 -0.434627 -0.900610 0 0
    0 -8.280023 -8.928213 45.969045 0.267402 -0.197610 -0.943105 0 0
    0 -5.845567 -9.268370 52.038323 0.363198 -0.479793 -0.798678 0 0
  phy
    0 1.768734 -14.220958 28.592109 0.912797 0.177879 0.367642 0 0
    0 2.337916 -14.965112 36.761176 0.912426 0.015675 0.408941 0 0
    0 0.000001 -14.705268 28.592109 0.974719 0.215568 0.058758 0 0
  phy
    0 1.768734 -14.220958 28.592109 0.912797 0.177879 0.367642 0 0
    0 5.270300 -12.582584 28.592111 0.809796 0.147541 0.567858 0 0
    0 2.337916 -14.965112 36.761176 0.912426 0.015675 0.408941 0 0
  phy
    0 0.000001 -14.705268 28.592109 0.974719 0.215568 0.058758 0 0
    0 3.937676 -11.574174 22.666736 0.823879 0.384811 0.416106 0 0
    0 1.768734 -14.220958 28.592109 0.912797 0.177879 0.367642 0 0
  phy
    0 3.937676 -11.574174 22.666736 0.823879 0.384811 0.416106 0 0
    0 5.270300 -12.582584 28.592111 0.809796 0.147541 0.567858 0 0
    0 1.768734 -14.220958 28.592109 0.912797 0.177879 0.367642 0 0
  phy
    0 -1.824722 3.320352 28.592111 -0.930419 0.157775 -0.330797 0 0
    0 0.028965 2.913632 25.628272 -0.924085 0.382171 0.003543 0 0
    0 -3.896987 0.836973 22.559067 -0.778801 0.404013 -0.479835 0 0
  phy
    0 0.028965 2.913632 25.628272 -0.924085 0.382171 0.003543 0 0
    0 -1.824722 3.320352 28.592111 -0.930419 0.157775 -0.330797 0 0
    0 0.000000 3.702310 28.592111 -0.990521 0.137358 0.000000 0 0
  phy
    0 1.824722 3.320352 28.592111 -0.929723 0.158357 0.332472 0 0
    0 0.028965 2.913632 25.628272 -0.924085 0.382171 0.003543 0 0
    0 0.000000 3.702310 28.592111 -0.990521 0.137358 0.000000 0 0
  phy
    0 0.028965 2.913632 25.628272 -0.924085 0.382171 0.003543 0 0
    0 1.824722 3.320352 28.592111 -0.929723 0.158357 0.332472 0 0
    0 3.923062 0.795275 22.562134 -0.780561 0.440023 0.443965 0 0
  phy
    0 0.020344 -5.451948 17.885918 -0.113482 0.993493 0.009648 0 0
    0 -3.897066 -1.797520 19.733648 -0.466662 0.699116 -0.541722 0 0
    0 0.020454 -1.859703 19.225475 -0.591498 0.805928 0.024707 0 0
  phy
    0 -3.897066 -1.797520 19.733648 -0.466662 0.699116 -0.541722 0 0
    0 0.020344 -5.451948 17.885918 -0.113482 0.993493 0.009648 0 0
    0 -3.897144 -5.401517 18.390825 0.135290 0.609661 -0.781032 0 0
  phy
    0 -3.896987 0.836973 22.559067 -0.778801 0.404013 -0.479835 0 0
    0 -3.897066 -1.797520 19.733648 -0.466662 0.699116 -0.541722 0 0
    0 -8.462474 -1.511805 28.592111 -0.287078 0.284974 -0.914536 0 0
  phy
    0 -8.462474 -1.511805 28.592111 -0.287078 0.284974 -0.914536 0 0
    0 -3.897066 -1.797520 19.733648 -0.466662 0.699116 -0.541722 0 0
    0 -3.897144 -5.401517 18.390825 0.135290 0.609661 -0.781032 0 0
  phy
    0 -1.824722 3.320352 28.592111 -0.930419 0.157775 -0.330797 0 0
    0 -3.896987 0.836973 22.559067 -0.778801 0.404013 -0.479835 0 0
    0 -5.846740 1.434260 28.592111 -0.793211 0.118299 -0.597346 0 0
  phy
    0 -2.337915 3.902232 36.761176 -0.929393 -0.013607 -0.368841 0 0
    0 -1.824722 3.320352 28.592111 -0.930419 0.157775 -0.330797 0 0
    0 -5.846740 1.434260 28.592111 -0.793211 0.118299 -0.597346 0 0
  phy
    0 0.000000 3.702310 28.592111 -0.990521 0.137358 0.000000 0 0
    0 -1.824722 3.320352 28.592111 -0.930419 0.157775 -0.330797 0 0
    0 0.000000 4.457461 36.761176 -0.999973 0.007281 0.000000 0 0
  phy
    0 -1.824722 3.320352 28.592111 -0.930419 0.157775 -0.330797 0 0
    0 -2.337915 3.902232 36.761176 -0.929393 -0.013607 -0.368841 0 0
    0 0.000000 4.457461 36.761176 -0.999973 0.007281 0.000000 0 0
  phy
    0 1.824722 3.320352 28.592111 -0.929723 0.158357 0.332472 0 0
    0 5.844240 1.434260 28.592111 -0.793058 0.119043 0.597401 0 0
    0 3.923062 0.795275 22.562134 -0.780561 0.440023 0.443965 0 0
  phy
    0 5.844240 1.434260 28.592111 -0.793058 0.119043 0.597401 0 0
    0 1.824722 3.320352 28.592111 -0.929723 0.158357 0.332472 0 0
    0 2.337915 3.902232 36.761176 -0.929336 -0.013618 0.368984 0 0
  phy
    0 1.824722 3.320352 28.592111 -0.929723 0.158357 0.332472 0 0
    0 0.000000 3.702310 28.592111 -0.990521 0.137358 0.000000 0 0
    0 0.000000 4.457461 36.761176 -0.999973 0.007281 0.000000 0 0
  phy
    0 2.337915 3.902232 36.761176 -0.929336 -0.013618 0.368984 0 0
    0 1.824722 3.320352 28.592111 -0.929723 0.158357 0.332472 0 0
    0 0.000000 4.457461 36.761176 -0.999973 0.007281 0.000000 0 0
  phy
    0 -6.195257 1.693409 36.761176 -0.782406 0.018901 -0.622482 0 0
    0 -5.846740 1.434260 28.592111 -0.793211 0.118299 -0.597346 0 0
    0 -9.146841 -1.514953 36.761176 -0.437337 -0.013729 -0.899193 0 0
  phy
    0 -6.195257 1.693409 36.761176 -0.782406 0.018901 -0.622482 0 0
    0 -9.146841 -1.514953 36.761176 -0.437337 -0.013729 -0.899193 0 0
    0 -5.855810 1.846835 45.969045 -0.825493 -0.162240 -0.540592 0 0
  phy
    0 -6.195257 1.693409 36.761176 -0.782406 0.018901 -0.622482 0 0
    0 -2.337915 3.902232 36.761176 -0.929393 -0.013607 -0.368841 0 0
    0 -5.846740 1.434260 28.592111 -0.793211 0.118299 -0.597346 0 0
  phy
    0 -2.337915 3.902232 36.761176 -0.929393 -0.013607 -0.368841 0 0
    0 -6.195257 1.693409 36.761176 -0.782406 0.018901 -0.622482 0 0
    0 -5.855810 1.846835 45.969045 -0.825493 -0.162240 -0.540592 0 0
  phy
    0 8.329778 -9.359663 28.592111 0.404078 0.270033 0.873958 0 0
    0 3.937831 -5.401205 18.466959 0.033111 0.610552 0.791283 0 0
    0 8.679295 -5.435735 28.592111 0.028193 0.259736 0.965268 0 0
  phy
    0 2.337916 -14.965112 36.761176 0.912426 0.015675 0.408941 0 0
    0 5.270300 -12.582584 28.592111 0.809796 0.147541 0.567858 0 0
    0 6.065901 -12.800291 36.761176 0.754571 0.025606 0.655719 0 0
  phy
    0 6.065901 -12.800291 36.761176 0.754571 0.025606 0.655719 0 0
    0 5.820531 -12.474220 45.969045 0.754747 -0.160292 0.636131 0 0
    0 2.337916 -14.965112 36.761176 0.912426 0.015675 0.408941 0 0
  phy
    0 6.065901 -12.800291 36.761176 0.754571 0.025606 0.655719 0 0
    0 5.270300 -12.582584 28.592111 0.809796 0.147541 0.567858 0 0
    0 8.329778 -9.359663 28.592111 0.404078 0.270033 0.873958 0 0
  phy
    0 -3.897300 -11.574525 22.590604 0.682832 0.491749 -0.540299 0 0
    0 0.020233 -9.816356 19.247772 0.560489 0.824698 -0.075666 0 0
    0 0.020124 -11.647555 22.092227 0.866670 0.498858 0.004886 0 0
  phy
    0 0.020124 -11.647555 22.092227 0.866670 0.498858 0.004886 0 0
    0 0.028721 -13.848916 26.253652 0.904872 0.425663 0.004177 0 0
    0 -3.897300 -11.574525 22.590604 0.682832 0.491749 -0.540299 0 0
  phy
    0 0.020124 -11.647555 22.092227 0.866670 0.498858 0.004886 0 0
    0 0.020233 -9.816356 19.247772 0.560489 0.824698 -0.075666 0 0
    0 3.937676 -11.574174 22.666736 0.823879 0.384811 0.416106 0 0
  phy
    0 3.937676 -11.574174 22.666736 0.823879 0.384811 0.416106 0 0
    0 0.028721 -13.848916 26.253652 0.904872 0.425663 0.004177 0 0
    0 0.020124 -11.647555 22.092227 0.866670 0.498858 0.004886 0 0
  phy
    0 0.020233 -9.816356 19.247772 0.560489 0.824698 -0.075666 0 0
    0 -3.897300 -11.574525 22.590604 0.682832 0.491749 -0.540299 0 0
    0 -3.897144 -5.401517 18.390825 0.135290 0.609661 -0.781032 0 0
  phy
    0 -3.897300 -11.574525 22.590604 0.682832 0.491749 -0.540299 0 0
    0 -8.331656 -9.359664 28.592111 0.419415 0.281408 -0.863076 0 0
    0 -3.897144 -5.401517 18.390825 0.135290 0.609661 -0.781032 0 0
  phy
    0 -3.897300 -11.574525 22.590604 0.682832 0.491749 -0.540299 0 0
    0 0.028721 -13.848916 26.253652 0.904872 0.425663 0.004177 0 0
    0 0.000001 -14.705268 28.592109 0.974719 0.215568 0.058758 0 0
  phy
    0 0.020233 -9.816356 19.247772 0.560489 0.824698 -0.075666 0 0
    0 0.020344 -5.451948 17.885918 -0.113482 0.993493 0.009648 0 0
    0 3.937831 -5.401205 18.466959 0.033111 0.610552 0.791283 0 0
  phy
    0 0.020344 -5.451948 17.885918 -0.113482 0.993493 0.009648 0 0
    0 0.020233 -9.816356 19.247772 0.560489 0.824698 -0.075666 0 0
    0 -3.897144 -5.401517 18.390825 0.135290 0.609661 -0.781032 0 0
  phy
    0 5.844240 1.434260 28.592111 -0.793058 0.119043 0.597401 0 0
    0 2.337915 3.902232 36.761176 -0.929336 -0.013618 0.368984 0 0
    0 6.192756 1.693409 36.761176 -0.782322 0.018899 0.622587 0 0
  phy
    0 5.844240 1.434260 28.592111 -0.793058 0.119043 0.597401 0 0
    0 6.192756 1.693409 36.761176 -0.782322 0.018899 0.622587 0 0
    0 9.144968 -1.514953 36.761176 -0.428974 -0.013274 0.903220 0 0
  phy
    0 5.834715 -9.268370 52.038323 0.363169 -0.479697 0.798748 0 0
    0 5.820531 -12.474220 45.969045 0.754747 -0.160292 0.636131 0 0
    0 8.278151 -8.928213 45.969045 0.269279 -0.198740 0.942333 0 0
  phy
    0 8.278151 -8.928213 45.969045 0.269279 -0.198740 0.942333 0 0
    0 6.469624 -5.463012 51.855642 0.000000 -0.434898 0.900479 0 0
    0 5.834715 -9.268370 52.038323 0.363169 -0.479697 0.798748 0 0
  phy
    0 0.000000 -9.259413 56.483042 0.713926 -0.700222 0.000000 0 0
    0 0.000261 -12.477845 51.855642 0.916649 -0.399694 0.000000 0 0
    0 2.287526 -11.830785 51.855642 0.807979 -0.452947 0.376840 0 0
  phy
    0 2.287526 -11.830785 51.855642 0.807979 -0.452947 0.376840 0 0
    0 0.000261 -12.477845 51.855642 0.916649 -0.399694 0.000000 0 0
    0 2.517092 -14.023391 45.969045 0.941236 -0.195113 0.275693 0 0
  phy
    0 2.517092 -14.023391 45.969045 0.941236 -0.195113 0.275693 0 0
    0 5.820531 -12.474220 45.969045 0.754747 -0.160292 0.636131 0 0
    0 2.287526 -11.830785 51.855642 0.807979 -0.452947 0.376840 0 0
  phy
    0 -2.287004 -11.830785 51.855642 0.807984 -0.452955 -0.376821 0 0
    0 0.000261 -12.477845 51.855642 0.916649 -0.399694 0.000000 0 0
    0 0.000000 -9.259413 56.483042 0.713926 -0.700222 0.000000 0 0
  phy
    0 -4.574271 -10.423248 51.855642 0.724375 -0.477696 -0.497078 0 0
    0 -5.821301 -12.474220 45.969045 0.754962 -0.160226 -0.635893 0 0
    0 -2.287004 -11.830785 51.855642 0.807984 -0.452955 -0.376821 0 0
  phy
    0 -5.845567 -9.268370 52.038323 0.363198 -0.479793 -0.798678 0 0
    0 -5.821301 -12.474220 45.969045 0.754962 -0.160226 -0.635893 0 0
    0 -4.574271 -10.423248 51.855642 0.724375 -0.477696 -0.497078 0 0
  phy
    0 0.000001 -14.234483 45.969045 0.979686 -0.200538 0.000000 0 0
    0 0.000001 -15.592099 36.641594 0.998925 -0.037091 -0.027821 0 0
    0 2.517092 -14.023391 45.969045 0.941236 -0.195113 0.275693 0 0
  phy
    0 -2.517090 -14.023391 45.969045 0.941241 -0.195123 -0.275668 0 0
    0 0.000001 -15.592099 36.641594 0.998925 -0.037091 -0.027821 0 0
    0 0.000001 -14.234483 45.969045 0.979686 -0.200538 0.000000 0 0
  phy
    0 2.517092 -14.023391 45.969045 0.941236 -0.195113 0.275693 0 0
    0 0.000261 -12.477845 51.855642 0.916649 -0.399694 0.000000 0 0
    0 0.000001 -14.234483 45.969045 0.979686 -0.200538 0.000000 0 0
  phy
    0 0.000001 -14.234483 45.969045 0.979686 -0.200538 0.000000 0 0
    0 0.000261 -12.477845 51.855642 0.916649 -0.399694 0.000000 0 0
    0 -2.517090 -14.023391 45.969045 0.941241 -0.195123 -0.275668 0 0
  phy
    0 2.287526 0.920139 51.855642 -0.851145 -0.425887 0.306875 0 0
    0 0.000000 3.337274 45.969045 -0.980454 -0.196749 0.000000 0 0
    0 0.000260 1.325176 51.855642 -0.902953 -0.429739 0.000000 0 0
  phy
    0 0.000000 3.337274 45.969045 -0.980454 -0.196749 0.000000 0 0
    0 2.287526 0.920139 51.855642 -0.851145 -0.425887 0.306875 0 0
    0 5.853310 1.846835 45.969045 -0.825358 -0.162249 0.540795 0 0
  phy
    0 0.000000 -1.666612 56.483046 -0.721450 -0.692467 0.000000 0 0
    0 2.287526 0.920139 51.855642 -0.851145 -0.425887 0.306875 0 0
    0 0.000260 1.325176 51.855642 -0.902953 -0.429739 0.000000 0 0
  phy
    0 -5.845567 -1.657653 52.038328 -0.363436 -0.496839 -0.788077 0 0
    0 -4.574271 -0.502776 51.855642 -0.715708 -0.494625 -0.493060 0 0
    0 -5.855810 1.846835 45.969045 -0.825493 -0.162240 -0.540592 0 0
  phy
    0 -2.287005 0.920139 51.855642 -0.851150 -0.425912 -0.306827 0 0
    0 0.000000 -1.666612 56.483046 -0.721450 -0.692467 0.000000 0 0
    0 0.000260 1.325176 51.855642 -0.902953 -0.429739 0.000000 0 0
  phy
    0 0.000000 3.337274 45.969045 -0.980454 -0.196749 0.000000 0 0
    0 -2.287005 0.920139 51.855642 -0.851150 -0.425912 -0.306827 0 0
    0 0.000260 1.325176 51.855642 -0.902953 -0.429739 0.000000 0 0
  phy
    0 -2.287005 0.920139 51.855642 -0.851150 -0.425912 -0.306827 0 0
    0 0.000000 3.337274 45.969045 -0.980454 -0.196749 0.000000 0 0
    0 -5.855810 1.846835 45.969045 -0.825493 -0.162240 -0.540592 0 0
  phy
    0 -4.574271 -0.502776 51.855642 -0.715708 -0.494625 -0.493060 0 0
    0 -2.287005 0.920139 51.855642 -0.851150 -0.425912 -0.306827 0 0
    0 -5.855810 1.846835 45.969045 -0.825493 -0.162240 -0.540592 0 0
  phy
    0 -8.280023 -8.928213 45.969045 0.267402 -0.197610 -0.943105 0 0
    0 -9.146841 -9.315075 36.761176 0.400626 -0.002284 -0.916239 0 0
    0 -5.821301 -12.474220 45.969045 0.754962 -0.160226 -0.635893 0 0
  phy
    0 -9.146841 -9.315075 36.761176 0.400626 -0.002284 -0.916239 0 0
    0 -6.066670 -12.800291 36.761176 0.754665 0.025600 -0.655610 0 0
    0 -5.821301 -12.474220 45.969045 0.754962 -0.160226 -0.635893 0 0
  phy
    0 -9.146841 -9.315075 36.761176 0.400626 -0.002284 -0.916239 0 0
    0 -8.331656 -9.359664 28.592111 0.419415 0.281408 -0.863076 0 0
    0 -6.066670 -12.800291 36.761176 0.754665 0.025600 -0.655610 0 0
  phy
    0 -9.146841 -9.315075 36.761176 0.400626 -0.002284 -0.916239 0 0
    0 -8.280023 -8.928213 45.969045 0.267402 -0.197610 -0.943105 0 0
    0 -9.456720 -5.415014 36.761176 0.004726 -0.007182 -0.999963 0 0
  phy
    0 -8.331656 -9.359664 28.592111 0.419415 0.281408 -0.863076 0 0
    0 -9.146841 -9.315075 36.761176 0.400626 -0.002284 -0.916239 0 0
    0 -8.681552 -5.435735 28.592111 0.027082 0.256837 -0.966075 0 0
  phy
    0 -8.681552 -5.435735 28.592111 0.027082 0.256837 -0.966075 0 0
    0 -9.146841 -9.315075 36.761176 0.400626 -0.002284 -0.916239 0 0
    0 -9.456720 -5.415014 36.761176 0.004726 -0.007182 -0.999963 0 0
  phy
    0 0.000001 -14.705268 28.592109 0.974719 0.215568 0.058758 0 0
    0 0.028721 -13.848916 26.253652 0.904872 0.425663 0.004177 0 0
    0 3.937676 -11.574174 22.666736 0.823879 0.384811 0.416106 0 0
  phy
    0 2.337916 -14.965112 36.761176 0.912426 0.015675 0.408941 0 0
    0 0.000001 -15.592099 36.641594 0.998925 -0.037091 -0.027821 0 0
    0 0.000001 -14.705268 28.592109 0.974719 0.215568 0.058758 0 0
  phy
    0 -5.846740 1.434260 28.592111 -0.793211 0.118299 -0.597346 0 0
    0 -3.896987 0.836973 22.559067 -0.778801 0.404013 -0.479835 0 0
    0 -8.462474 -1.511805 28.592111 -0.287078 0.284974 -0.914536 0 0
  phy
    0 0.000000 3.337274 45.969045 -0.980454 -0.196749 0.000000 0 0
    0 -2.337915 3.902232 36.761176 -0.929393 -0.013607 -0.368841 0 0
    0 -5.855810 1.846835 45.969045 -0.825493 -0.162240 -0.540592 0 0
  phy
    0 -2.337915 3.902232 36.761176 -0.929393 -0.013607 -0.368841 0 0
    0 0.000000 3.337274 45.969045 -0.980454 -0.196749 0.000000 0 0
    0 0.000000 4.457461 36.761176 -0.999973 0.007281 0.000000 0 0
  phy
    0 8.329778 -9.359663 28.592111 0.404078 0.270033 0.873958 0 0
    0 5.270300 -12.582584 28.592111 0.809796 0.147541 0.567858 0 0
    0 3.937676 -11.574174 22.666736 0.823879 0.384811 0.416106 0 0
  phy
    0 3.937676 -11.574174 22.666736 0.823879 0.384811 0.416106 0 0
    0 3.937753 -9.727289 19.816860 0.405665 0.596234 0.692778 0 0
    0 8.329778 -9.359663 28.592111 0.404078 0.270033 0.873958 0 0
  phy
    0 8.329778 -9.359663 28.592111 0.404078 0.270033 0.873958 0 0
    0 3.937753 -9.727289 19.816860 0.405665 0.596234 0.692778 0 0
    0 3.937831 -5.401205 18.466959 0.033111 0.610552 0.791283 0 0
  phy
    0 0.020233 -9.816356 19.247772 0.560489 0.824698 -0.075666 0 0
    0 3.937753 -9.727289 19.816860 0.405665 0.596234 0.692778 0 0
    0 3.937676 -11.574174 22.666736 0.823879 0.384811 0.416106 0 0
  phy
    0 2.337916 -14.965112 36.761176 0.912426 0.015675 0.408941 0 0
    0 5.820531 -12.474220 45.969045 0.754747 -0.160292 0.636131 0 0
    0 2.517092 -14.023391 45.969045 0.941236 -0.195113 0.275693 0 0
  phy
    0 2.517092 -14.023391 45.969045 0.941236 -0.195113 0.275693 0 0
    0 0.000001 -15.592099 36.641594 0.998925 -0.037091 -0.027821 0 0
    0 2.337916 -14.965112 36.761176 0.912426 0.015675 0.408941 0 0
  phy
    0 0.020233 -9.816356 19.247772 0.560489 0.824698 -0.075666 0 0
    0 3.937831 -5.401205 18.466959 0.033111 0.610552 0.791283 0 0
    0 3.937753 -9.727289 19.816860 0.405665 0.596234 0.692778 0 0
  phy
    0 9.144968 -1.514953 36.761176 -0.428974 -0.013274 0.903220 0 0
    0 5.853310 1.846835 45.969045 -0.825358 -0.162249 0.540795 0 0
    0 8.278151 -1.422317 45.969045 -0.317930 -0.225692 0.920860 0 0
  phy
    0 6.192756 1.693409 36.761176 -0.782322 0.018899 0.622587 0 0
    0 5.853310 1.846835 45.969045 -0.825358 -0.162249 0.540795 0 0
    0 9.144968 -1.514953 36.761176 -0.428974 -0.013274 0.903220 0 0
  phy
    0 2.337915 3.902232 36.761176 -0.929336 -0.013618 0.368984 0 0
    0 0.000000 3.337274 45.969045 -0.980454 -0.196749 0.000000 0 0
    0 5.853310 1.846835 45.969045 -0.825358 -0.162249 0.540795 0 0
  phy
    0 0.000000 3.337274 45.969045 -0.980454 -0.196749 0.000000 0 0
    0 2.337915 3.902232 36.761176 -0.929336 -0.013618 0.368984 0 0
    0 0.000000 4.457461 36.761176 -0.999973 0.007281 0.000000 0 0
  phy
    0 6.192756 1.693409 36.761176 -0.782322 0.018899 0.622587 0 0
    0 2.337915 3.902232 36.761176 -0.929336 -0.013618 0.368984 0 0
    0 5.853310 1.846835 45.969045 -0.825358 -0.162249 0.540795 0 0
  phy
    0 -2.517090 -14.023391 45.969045 0.941241 -0.195123 -0.275668 0 0
    0 0.000261 -12.477845 51.855642 0.916649 -0.399694 0.000000 0 0
    0 -2.287004 -11.830785 51.855642 0.807984 -0.452955 -0.376821 0 0
  phy
    0 -2.287004 -11.830785 51.855642 0.807984 -0.452955 -0.376821 0 0
    0 -5.821301 -12.474220 45.969045 0.754962 -0.160226 -0.635893 0 0
    0 -2.517090 -14.023391 45.969045 0.941241 -0.195123 -0.275668 0 0
  phy
    0 -2.517090 -14.023391 45.969045 0.941241 -0.195123 -0.275668 0 0
    0 -5.821301 -12.474220 45.969045 0.754962 -0.160226 -0.635893 0 0
    0 -2.337914 -14.965112 36.761176 0.907346 0.008276 -0.420302 0 0
  phy
    0 -2.337914 -14.965112 36.761176 0.907346 0.008276 -0.420302 0 0
    0 0.000001 -15.592099 36.641594 0.998925 -0.037091 -0.027821 0 0
    0 -2.517090 -14.023391 45.969045 0.941241 -0.195123 -0.275668 0 0
  phy
    0 -5.845567 -9.268370 52.038323 0.363198 -0.479793 -0.798678 0 0
    0 -8.280023 -8.928213 45.969045 0.267402 -0.197610 -0.943105 0 0
    0 -5.821301 -12.474220 45.969045 0.754962 -0.160226 -0.635893 0 0
  phy
    0 -8.331656 -9.359664 28.592111 0.419415 0.281408 -0.863076 0 0
    0 -8.681552 -5.435735 28.592111 0.027082 0.256837 -0.966075 0 0
    0 -3.897144 -5.401517 18.390825 0.135290 0.609661 -0.781032 0 0
  phy
    0 -8.681552 -5.435735 28.592111 0.027082 0.256837 -0.966075 0 0
    0 -8.462474 -1.511805 28.592111 -0.287078 0.284974 -0.914536 0 0
    0 -3.897144 -5.401517 18.390825 0.135290 0.609661 -0.781032 0 0
  phy
    0 -8.462474 -1.511805 28.592111 -0.287078 0.284974 -0.914536 0 0
    0 -8.681552 -5.435735 28.592111 0.027082 0.256837 -0.966075 0 0
    0 -9.456720 -5.415014 36.761176 0.004726 -0.007182 -0.999963 0 0
  phy
    0 -2.337914 -14.965112 36.761176 0.907346 0.008276 -0.420302 0 0
    0 -5.821301 -12.474220 45.969045 0.754962 -0.160226 -0.635893 0 0
    0 -6.066670 -12.800291 36.761176 0.754665 0.025600 -0.655610 0 0
  phy
    0 -9.146841 -1.514953 36.761176 -0.437337 -0.013729 -0.899193 0 0
    0 -5.846740 1.434260 28.592111 -0.793211 0.118299 -0.597346 0 0
    0 -8.462474 -1.511805 28.592111 -0.287078 0.284974 -0.914536 0 0
  phy
    0 -9.146841 -1.514953 36.761176 -0.437337 -0.013729 -0.899193 0 0
    0 -8.462474 -1.511805 28.592111 -0.287078 0.284974 -0.914536 0 0
    0 -9.456720 -5.415014 36.761176 0.004726 -0.007182 -0.999963 0 0
end
